<svg xmlns="http://www.w3.org/2000/svg" xmlns:xlink="http://www.w3.org/1999/xlink" width="139" height="140" viewBox="0 0 139 140">
  <defs>
    <clipPath id="clip-path">
      <ellipse id="Elipse_154" data-name="Elipse 154" cx="69.5" cy="70" rx="69.5" ry="70" transform="translate(-0.304 -0.327)" fill="#fff" stroke="#707070" stroke-width="1"/>
    </clipPath>
  </defs>
  <g id="Grupo_4585" data-name="Grupo 4585" transform="translate(0.304 0.327)">
    <g id="Enmascarar_grupo_17" data-name="Enmascarar grupo 17" transform="translate(0 0)" clip-path="url(#clip-path)">
      <g id="Elipse_7362" data-name="Elipse 7362" transform="translate(-7.304 -6.327)" fill="#fff" stroke="#707070" stroke-width="1">
        <circle cx="76.5" cy="76.5" r="76.5" stroke="none"/>
        <circle cx="76.5" cy="76.5" r="76" fill="none"/>
      </g>
      <g id="Grupo_845315" data-name="Grupo 845315" transform="translate(22.657 23.322)">
        <path id="Trazado_583021" data-name="Trazado 583021" d="M2176.65,60.6c1.316-.085,1.891.542,1.866,1.848-.032,1.705-.432,3.567.113,5.076.6,1.647,2.881,1.211,4.309,2.042a12.382,12.382,0,0,1,6.068,13.03,12.111,12.111,0,0,1-22.986,2.471,3.455,3.455,0,0,0-3.972-1.491c-.454.229-.338.6-.333.938.015.988-.317,1.733-1.412,1.708-.976-.022-1.39-.708-1.3-1.623.142-1.367-.818-1.056-1.545-1.058-5.909-.01-11.819,0-17.729-.009-2.984,0-4.074-1.094-4.074-4.067,0-12.612.017-25.224-.026-37.835a4.727,4.727,0,0,1,1.558-3.709q3.042-2.9,5.946-5.943a4.538,4.538,0,0,1,3.565-1.473c5.665.049,11.332,0,17,.035.955.005,1.45-.095,1.678-1.258.362-1.846,1.986-1.785,3.5-1.836.966-.033,2.222.612,2.735-1.014.237-.749.278-1.226-.331-1.746-.554-.473-1.05-1.015-1.559-1.54a2.478,2.478,0,0,1-.11-3.729c.355-.416.7-.844,1.087-1.231,2.688-2.7,3.8-3.555,6.774-.149a1.52,1.52,0,0,0,2.016.564c1.006-.413,1-1.052.985-1.863a21.313,21.313,0,0,1,.025-2.192,2.314,2.314,0,0,1,2.188-2.294,17.985,17.985,0,0,1,4.559-.012,2.378,2.378,0,0,1,2.294,2.576,22.456,22.456,0,0,1-.006,2.375c-.075.861.411,1.134,1.09,1.42.637.269,1.144.365,1.606-.239a1.681,1.681,0,0,1,.251-.264c1.166-.979,2.027-2.843,3.893-2.148a9.317,9.317,0,0,1,4.649,4.455,2.108,2.108,0,0,1-.523,2.523c-.637.654-1.318,1.27-1.914,1.959a1.606,1.606,0,0,0,1.006,2.562c.906.085,1.826.023,2.74.031a1.925,1.925,0,0,1,1.983,1.053c.438,1.367,1.037,2.192,2.632,2.172.585-.007.907.747.782,1.445a1.2,1.2,0,0,1-1.277,1.079c-1.187-.067-1.638.353-1.8,1.573a2.15,2.15,0,0,1-2.284,1.735,22.672,22.672,0,0,1-2.557.009c-.861-.063-1.114.436-1.411,1.1a1.148,1.148,0,0,0,.286,1.6.844.844,0,0,1,.135.123c1.018,1.207,2.957,2.081,2.239,4.032a9.421,9.421,0,0,1-4.31,4.553,2.155,2.155,0,0,1-2.683-.493c-.608-.6-1.24-1.174-1.806-1.81a1.175,1.175,0,0,0-1.6-.258c-.659.3-1.2.529-1.119,1.4a15.4,15.4,0,0,1,.007,1.827,6.478,6.478,0,0,1-.084,1.272c-.386,1.719-1.907,2.239-5.65,1.967-2.395-.173-3.17-.756-3.318-2.545-.05-.606-.016-1.218-.02-1.827-.01-1.723-.01-1.723-1.965-2.254,0,3.246-.031,6.461.015,9.674.019,1.353-.43,2.115-1.89,2a2.093,2.093,0,0,1-.846-2.072c.027-1.887-.006-3.775.014-5.662.009-.789.1-1.308-1.12-1.1-1.872.327-5.763-3.306-5.83-5.2a2.354,2.354,0,0,1,.7-1.818c.514-.518,1.031-1.034,1.54-1.559.448-.462.97-.783.644-1.679-.352-.965-.974-.888-1.708-.9-3.508-.042-4.007-.386-5.119-3.456-4.621-.294-9.242-.2-13.864-.049a22.487,22.487,0,0,0-5.135.019,50.017,50.017,0,0,0-7.329,7.318c-.046,2.422-.13,4.844-.134,7.267-.015,10.326.016,20.653-.033,30.979-.006,1.3.244,1.893,1.684,1.756,1.564-.149,3.148-.091,4.724-.123q9.643.048,19.286.092c.336,0,.764.088.794-.466.4-5.117,2.539-9.428,7.511-11.014,3.307-1.056,3.683-2.751,3.417-5.508C2175.722,62.661,2175.436,61.4,2176.65,60.6Zm-.437,10.435a9.223,9.223,0,0,0,.764,18.412,8.551,8.551,0,0,0,8.344-4.811,8.7,8.7,0,0,0-.507-9.655A8.567,8.567,0,0,0,2176.213,71.038Zm10.808-26.532c2.677-2.834,5.051-2.969,7.684-.207,1.059,1.111,1.618.731,2.446-.127.783-.812,1.419-1.412.174-2.437-.949-.782-2.08-1.567-2.108-3.05a4.607,4.607,0,0,1,4.812-4.873c.365,0,.732-.022,1.1,0,.661.046.957-.186,1.057-.9.327-2.347.045-2.716-2.379-2.706-1.231.005-2.449.082-3.255-1.152-1.884-2.882-1.832-4.313.688-6.659,1.17-1.091.811-1.678-.111-2.578-.877-.856-1.481-1.227-2.443-.055-.819,1-1.7,2.345-3.249,2-1.629-.367-3.328-.8-4.437-2.272a26.246,26.246,0,0,1-.149-3.085c.076-1.213-.407-1.487-1.558-1.6-1.951-.188-2.328.756-2.063,2.343.433,2.6-1.238,3.437-3.247,4.269a3.267,3.267,0,0,1-4.17-1.121c-.278-.321-.631-.579-.894-.91-.511-.644-.936-.491-1.5-.025-1.836,1.508-1.869,1.7-.126,3.43.874.869,1.763,1.7,1.5,3.123-.617,3.289-1.76,4.341-5.149,4.25-1.553-.042-1.755.584-1.813,1.906-.067,1.531.543,1.854,1.906,1.77,1.179-.072,2.447-.3,3.439.73a4.57,4.57,0,0,1-.073,6.859c-.258.259-.5.539-.777.77-.566.469-.417.853-.005,1.37,1.49,1.866,1.766,1.906,3.437.235.863-.864,1.669-1.8,3.1-1.567,3.237.529,4.418,1.815,4.344,5.085-.031,1.387.3,1.886,1.789,1.9,1.581.016,2.007-.536,1.873-2A16.858,16.858,0,0,1,2187.021,44.506Z" transform="translate(-2135.634 -12.104)" fill="#090909"/>
        <path id="Trazado_583022" data-name="Trazado 583022" d="M2181.462,97.32c-1.214.8-.928,2.059-.824,3.146.265,2.757-.11,4.452-3.417,5.508-4.972,1.586-7.11,5.9-7.511,11.014q-9.193,0-18.385,0c-.579,0-1.232-.207-1.7.374-1.576.032-3.16-.026-4.725.123-1.439.136-1.69-.453-1.684-1.756.05-10.326.019-20.653.033-30.979,0-2.423.087-4.845.134-7.267.64.6.362,1.378.363,2.074q.027,16.992.013,33.983c0,3.459,0,3.368,3.5,3.478,1.647.052,2.035-.478,2.027-2.065-.064-11.815,0-23.63-.073-35.445a5.428,5.428,0,0,1,1.9-4.482c1.472-1.305,2.8-2.77,4.3-4.266-1.728-.591-3.314.277-4.7-.6a22.464,22.464,0,0,1,5.135-.019c.282.412.716.383,1.137.383q5.781,0,11.561,0c.419,0,.853.04,1.166-.334,1.112,3.07,1.611,3.414,5.119,3.456.735.009,1.356-.069,1.708.9.326.9-.2,1.217-.644,1.679-.508.524-1.026,1.04-1.54,1.559a2.354,2.354,0,0,0-.7,1.818c.067,1.9,3.958,5.531,5.83,5.2,1.219-.213,1.128.306,1.12,1.1-.02,1.887.012,3.775-.014,5.662a2.093,2.093,0,0,0,.846,2.072A5.083,5.083,0,0,1,2181.462,97.32Zm-29.326,2.67c-.8.372-1.327.936-1,1.861.291.819,1.028.908,1.8.907q8.932-.018,17.863,0c.754,0,1.505-.014,1.832-.852a1.456,1.456,0,0,0-.737-1.851c-.219-.87-.935-.613-1.49-.615q-8.343-.022-16.687,0C2153.141,99.434,2152.48,99.278,2152.136,99.99Zm9.728-19.926c-2.922,0-5.845.008-8.767,0-1.059,0-2.076.133-2.026,1.477.045,1.219,1.041,1.331,2.007,1.331H2170.8c.986,0,1.928-.173,1.934-1.4s-.914-1.408-1.915-1.4C2167.831,80.07,2164.847,80.064,2161.864,80.065Zm.025,6.633q-4.292,0-8.585,0c-1.073,0-2.261-.017-2.228,1.461.031,1.333,1.136,1.355,2.156,1.354q8.677-.009,17.354,0c1.02,0,2.1-.023,2.135-1.375s-1.027-1.442-2.064-1.44Q2166.274,86.7,2161.889,86.7Zm-.2,9.412c3.044,0,6.088-.006,9.133,0,1,0,1.919-.184,1.91-1.41s-.954-1.4-1.938-1.4h-17.717c-.968,0-1.962.115-2,1.335-.045,1.343.973,1.478,2.031,1.474C2155.964,96.1,2158.825,96.11,2161.687,96.11Zm-4.942,10.573c-1.4,0-2.794-.008-4.19,0-.836.007-1.443.383-1.483,1.262-.045.979.567,1.424,1.494,1.428,2.733.011,5.466,0,8.2,0a1.306,1.306,0,0,0,1.49-1.263c.041-.937-.556-1.423-1.5-1.427C2159.417,106.681,2158.081,106.685,2156.745,106.683Z" transform="translate(-2140.445 -48.822)" fill="#f9edd6"/>
        <path id="Trazado_583023" data-name="Trazado 583023" d="M2315.743,155.211c-.525,2.047-2.205,1.342-3.474,1.346-1.157,0-1.584.262-1.537,1.5.039,1.037.332,1.329,1.355,1.315,4.019-.053,8.04-.032,12.06-.018,2.477.009,3.153.687,3.16,3.13q.013,4.2,0,8.406c-.01,2.261-.705,3.01-2.906,3.013q-14.985.024-29.969,0c-2.308,0-2.926-.722-3-3.117-.037-1.2.463-2.54-.893-3.462A.906.906,0,0,1,2290.5,166c1.317-.923.917-2.238.938-3.45.045-2.568.651-3.19,3.286-3.2,3.959-.01,7.919-.049,11.877.026,1.156.022,1.391-.341,1.422-1.434.033-1.2-.4-1.385-1.466-1.37-4.019.059-8.04.033-12.06.019-2.309-.008-3.035-.742-3.046-3.06q-.02-4.295,0-8.589c.014-2.18.771-2.923,3-2.932,4.02-.016,8.041-.028,12.061.011.975.01,1.518-.036,1.524-1.309.006-1.314-.512-1.449-1.6-1.434-3.9.052-7.8.029-11.694.017-2.594-.008-3.286-.686-3.294-3.207-.009-2.863-.021-5.726.005-8.589.018-2,.767-2.769,2.755-2.783,4.081-.028,8.163-.065,12.242.024,1.264.027,1.778-.281,1.535-1.564a5.735,5.735,0,0,1-.008-.912c-.025-1.015.214-1.918,1.432-1.89s1.344.982,1.37,1.967c.064,2.367.079,2.367,2.475,2.367,3.655,0,7.31-.01,10.964,0,2.372.009,3.077.7,3.088,3.013q.02,4.295,0,8.589c-.011,2.18-.771,2.963-2.973,2.978-4.02.027-8.041.049-12.06-.018-1.157-.019-1.529.253-1.552,1.482-.026,1.348.667,1.263,1.568,1.259q5.939-.03,11.878-.005c2.418.007,3.134.734,3.141,3.162.008,2.863.018,5.726,0,8.589-.014,1.979-.8,2.782-2.729,2.83-1.1.027-2.2-.045-3.288.019a1.772,1.772,0,0,1-2.036-1.4c.464-1.611,1.8-1.5,2.981-1.348,1.946.256,2.516-.5,2.346-2.375a43.686,43.686,0,0,1-.018-5.473c.034-.973-.318-1.236-1.258-1.233q-13.966.047-27.932.005c-1.007,0-1.225.37-1.2,1.279.053,2.007.125,4.024-.02,6.022-.109,1.515.462,1.8,1.843,1.781,5.781-.067,11.562-.016,17.344-.022C2314.414,153.843,2315.454,153.849,2315.743,155.211Zm-21,15.9,4.067,0c8.162.022,16.324.03,24.487.081.977.006,1.263-.351,1.244-1.276-.046-2.192-.049-4.387,0-6.579.021-.94-.286-1.262-1.249-1.256-8.162.05-16.325.056-24.488.076-1.206-.025-2.413-.023-3.617-.086-.79-.041-1.079.28-1.056,1.053.072,2.467.11,4.934.161,7.4C2294.178,170.921,2294.286,171.149,2294.739,171.115Zm14.559-34.6v.007c4.622,0,9.244-.037,13.865.026,1.132.016,1.475-.312,1.432-1.433-.082-2.125-.045-4.256-.013-6.384.012-.844-.1-1.336-1.166-1.332q-14.047.06-28.095.014c-.879,0-1.175.3-1.16,1.157.038,2.189.076,4.381-.014,6.566-.048,1.171.385,1.414,1.469,1.4C2300.176,136.479,2304.737,136.51,2309.3,136.51Z" transform="translate(-2233.665 -80.762)" fill="#080806"/>
        <path id="Trazado_583024" data-name="Trazado 583024" d="M2322.514,197.5c-.289-1.362-1.329-1.368-2.408-1.367-5.781.005-11.563-.045-17.344.022-1.38.016-1.952-.266-1.842-1.781.144-2,.073-4.015.019-6.022-.025-.908.193-1.282,1.2-1.279q13.966.048,27.932-.005c.94,0,1.292.261,1.258,1.233a43.779,43.779,0,0,0,.018,5.473c.17,1.876-.4,2.632-2.345,2.375-1.186-.157-2.518-.263-2.982,1.348Zm-6.349-7.3q-4.745,0-9.49,0c-.994,0-1.92.189-1.9,1.421s.953,1.38,1.943,1.379q9.4-.008,18.8,0c.976,0,1.954-.106,2-1.327.047-1.352-.991-1.475-2.035-1.474Q2320.819,190.2,2316.166,190.2Z" transform="translate(-2240.437 -123.052)" fill="#fcd302"/>
        <path id="Trazado_583025" data-name="Trazado 583025" d="M2341.511,104.437c.036,1.1-.048,2.267-1.464,2.24-1.284-.025-1.394-1.127-1.349-2.167.01-.243.013-.487,0-.73-.055-1.02.214-1.944,1.369-1.973s1.476.87,1.447,1.9C2341.505,103.95,2341.511,104.194,2341.511,104.437Z" transform="translate(-2264.395 -68.986)" fill="#12110f"/>
        <path id="Trazado_583026" data-name="Trazado 583026" d="M2341.465,85.722c.012.849.145,1.773-.763,2.272a1.29,1.29,0,0,1-1.66-.3c-.57-.617-.557-3.389.02-3.993a1.27,1.27,0,0,1,1.658-.263C2341.627,83.96,2341.459,84.881,2341.465,85.722Z" transform="translate(-2264.352 -57.215)" fill="#12110f"/>
        <path id="Trazado_583027" data-name="Trazado 583027" d="M2340.458,68.142c.031.967-.328,1.685-1.244,1.8-.931.115-1.449-.494-1.548-1.408a3.037,3.037,0,0,0-.369-1.194,1.289,1.289,0,0,1,.543-1.991c.877-.418,1.5.051,1.97.8A4.77,4.77,0,0,1,2340.458,68.142Z" transform="translate(-2263.351 -45.767)" fill="#12110f"/>
        <path id="Trazado_583028" data-name="Trazado 583028" d="M2204.183,241.3a1.385,1.385,0,0,1-1.451,1.262,3.736,3.736,0,0,1-2.784-2.812,1.315,1.315,0,0,1,1.328-1.434C2202.033,238.262,2204.2,240.455,2204.183,241.3Z" transform="translate(-2176.417 -155.548)" fill="#12110f"/>
        <path id="Trazado_583029" data-name="Trazado 583029" d="M2219.19,243.091c1.057-.012,2.247-.069,2.18,1.439-.06,1.357-1.189,1.284-2.175,1.275-.363,0-.725,0-1.087,0-.908-.007-1.558-.372-1.562-1.356s.647-1.351,1.557-1.354Z" transform="translate(-2186.942 -158.575)" fill="#090909"/>
        <path id="Trazado_583030" data-name="Trazado 583030" d="M2255.934,245.748c-.78-.082-1.564.192-2.127-.455a1.262,1.262,0,0,1,.079-1.922c.557-.538,3.434-.525,3.977.016a1.263,1.263,0,0,1,.045,1.923C2257.335,245.957,2256.547,245.632,2255.934,245.748Z" transform="translate(-2210.312 -158.503)" fill="#090909"/>
        <path id="Trazado_583031" data-name="Trazado 583031" d="M2202.139,222.42a8.082,8.082,0,0,1-.012,1.264,1.194,1.194,0,0,1-1.39,1.123c-1.677-.276-1.205-1.666-1.264-2.746-.051-.931-.057-1.912,1.17-2.087a1.214,1.214,0,0,1,1.5,1.179,11.457,11.457,0,0,1,.008,1.266Z" transform="translate(-2176.104 -143.906)" fill="#080806"/>
        <path id="Trazado_583032" data-name="Trazado 583032" d="M2237.353,245.744c-.7-.067-1.481.189-2.056-.439a1.232,1.232,0,0,1,.064-1.912c.564-.546,3.415-.546,3.981,0a1.232,1.232,0,0,1,.067,1.912C2238.834,245.934,2238.056,245.676,2237.353,245.744Z" transform="translate(-2198.563 -158.509)" fill="#090909"/>
        <path id="Trazado_583033" data-name="Trazado 583033" d="M2274.342,245.718c-.647-.072-1.35.168-1.922-.314a1.238,1.238,0,0,1-.22-1.9c.585-.737,3.636-.749,4.241-.017a1.235,1.235,0,0,1-.182,1.907C2275.694,245.885,2274.989,245.648,2274.342,245.718Z" transform="translate(-2222.011 -158.481)" fill="#090909"/>
        <path id="Trazado_583034" data-name="Trazado 583034" d="M2151.006,70.436c1.385.873,2.971.006,4.7.6-1.492,1.5-2.824,2.96-4.3,4.266a5.428,5.428,0,0,0-1.9,4.482c.075,11.815.009,23.63.073,35.445.009,1.587-.38,2.116-2.027,2.065-3.5-.11-3.5-.019-3.5-3.478q0-16.992-.013-33.983c0-.7.277-1.476-.363-2.074A50.029,50.029,0,0,1,2151.006,70.436Z" transform="translate(-2140.734 -49.093)" fill="#f9e1c0"/>
        <path id="Trazado_583035" data-name="Trazado 583035" d="M2242.793,49.141a16.741,16.741,0,0,0-.173,2.714c.134,1.464-.291,2.017-1.873,2-1.488-.016-1.82-.515-1.789-1.9.074-3.27-1.108-4.556-4.344-5.085-1.43-.234-2.236.7-3.1,1.567-1.671,1.671-1.947,1.63-3.437-.235-.412-.516-.561-.9.005-1.369.28-.232.52-.511.777-.77a4.57,4.57,0,0,0,.073-6.859c-.992-1.026-2.26-.8-3.439-.73-1.362.084-1.972-.239-1.905-1.77.058-1.323.26-1.948,1.813-1.906,3.388.091,4.532-.962,5.149-4.25.267-1.423-.622-2.254-1.5-3.123-1.743-1.733-1.71-1.922.126-3.43.568-.466.993-.619,1.5.025.263.331.616.59.894.91a3.268,3.268,0,0,0,4.17,1.121c2.008-.831,3.679-1.667,3.246-4.269-.264-1.588.112-2.531,2.064-2.343,1.151.11,1.634.385,1.558,1.6a26.3,26.3,0,0,0,.149,3.085,6.447,6.447,0,0,0-4.551,3.114,10.072,10.072,0,0,0-6.573,6.3c-1.839,5.38.951,10.417,6.964,12.608C2239.33,48.079,2240.918,48.809,2242.793,49.141Z" transform="translate(-2191.405 -16.739)" fill="#638893"/>
        <path id="Trazado_583036" data-name="Trazado 583036" d="M2240.364,173.028a8.567,8.567,0,0,1,8.6,3.946,8.7,8.7,0,0,1,.507,9.655,8.551,8.551,0,0,1-8.344,4.811c.037-.681-.6-.829-.951-1.2a10.731,10.731,0,0,1-3.378-6.715c.832.8,1.682,1.571,2.489,2.39a1.546,1.546,0,0,0,2.51.078q2.5-2.515,5.017-5.02c.681-.682.976-1.462.2-2.219-.81-.788-1.544-.334-2.2.327-1.026,1.032-2.116,2.009-3.069,3.1-.8.92-1.4,1.119-2.253.06a32.215,32.215,0,0,0-2.424-2.454,9.871,9.871,0,0,1,2.566-5.014C2240.078,174.3,2240.933,173.948,2240.364,173.028Z" transform="translate(-2199.784 -114.094)" fill="#05df99"/>
        <path id="Trazado_583037" data-name="Trazado 583037" d="M2263.572,34.586a6.446,6.446,0,0,1,4.551-3.114c1.109,1.473,2.808,1.9,4.437,2.272,1.55.349,2.43-1,3.25-2,.962-1.172,1.566-.8,2.443.055.922.9,1.281,1.488.111,2.578-2.519,2.347-2.571,3.778-.687,6.659.806,1.234,2.025,1.157,3.255,1.152,2.425-.01,2.707.359,2.379,2.706-.1.715-.4.947-1.057.9-.364-.025-.731,0-1.1,0a4.608,4.608,0,0,0-4.812,4.873c.028,1.483,1.158,2.269,2.108,3.05,1.246,1.025.61,1.625-.174,2.437-.828.858-1.386,1.238-2.446.127-2.633-2.761-5.008-2.627-7.684.207-1.874-.332-3.463-1.062-4.186-3,.668.05,1.335.134,2,.146a9.663,9.663,0,0,0,9.368-12.689c-.451-1.33-1.173-1.941-2.58-1.544a4.256,4.256,0,0,0-2.381-2.37c.325-1.36-.334-2-1.585-2.344A13.063,13.063,0,0,0,2263.572,34.586Z" transform="translate(-2216.762 -24.091)" fill="#779bab"/>
        <path id="Trazado_583038" data-name="Trazado 583038" d="M2231.956,173.177c.569.921-.286,1.271-.732,1.749a9.871,9.871,0,0,0-2.565,5.014,1.479,1.479,0,0,0-1.916.832c-.344.818.209,1.33.7,1.854.322.345.635.7.951,1.048a10.732,10.732,0,0,0,3.378,6.715c.353.372.987.521.951,1.2a9.223,9.223,0,0,1-.765-18.412Z" transform="translate(-2191.376 -114.243)" fill="#0dce8d"/>
        <path id="Trazado_583039" data-name="Trazado 583039" d="M2160.736,198.725c.463-.581,1.116-.372,1.7-.374q9.192-.016,18.384,0c-.029.554-.458.468-.794.466Q2170.379,198.779,2160.736,198.725Z" transform="translate(-2151.552 -130.185)" fill="#f6f8f9"/>
        <path id="Trazado_583040" data-name="Trazado 583040" d="M2191.606,70.184c-.313.374-.746.334-1.166.334q-5.781,0-11.561,0c-.421,0-.854.029-1.137-.383C2182.364,69.983,2186.986,69.89,2191.606,70.184Z" transform="translate(-2162.335 -48.812)" fill="#f6f8f9"/>
        <path id="Trazado_583041" data-name="Trazado 583041" d="M2175.466,97.486c2.983,0,5.966.006,8.95,0,1,0,1.92.177,1.915,1.4s-.947,1.4-1.934,1.4H2166.68c-.966,0-1.962-.112-2.008-1.331-.05-1.344.967-1.481,2.026-1.477C2169.621,97.494,2172.543,97.486,2175.466,97.486Z" transform="translate(-2154.047 -66.244)" fill="#12110f"/>
        <path id="Trazado_583042" data-name="Trazado 583042" d="M2175.5,115.619q4.385,0,8.769,0c1.037,0,2.1.082,2.064,1.44s-1.115,1.376-2.135,1.375q-8.677-.006-17.354,0c-1.021,0-2.126-.021-2.156-1.354-.034-1.478,1.155-1.462,2.228-1.461Q2171.209,115.623,2175.5,115.619Z" transform="translate(-2154.057 -77.743)" fill="#12110f"/>
        <path id="Trazado_583043" data-name="Trazado 583043" d="M2175.288,136.487c-2.862,0-5.723-.008-8.584,0-1.058,0-2.076-.131-2.031-1.474.042-1.22,1.035-1.335,2-1.335h17.717c.985,0,1.93.165,1.938,1.4s-.907,1.413-1.91,1.41C2181.376,136.482,2178.332,136.487,2175.288,136.487Z" transform="translate(-2154.047 -89.199)" fill="#12110f"/>
        <path id="Trazado_583044" data-name="Trazado 583044" d="M2185.448,152.015a1.456,1.456,0,0,1,.736,1.851c-.326.838-1.077.853-1.832.852q-8.932-.009-17.863,0c-.777,0-1.514-.088-1.805-.907-.329-.925.2-1.489,1-1.861Z" transform="translate(-2153.993 -100.784)" fill="#030404"/>
        <path id="Trazado_583045" data-name="Trazado 583045" d="M2170.346,170.241c1.336,0,2.672,0,4.008,0,.945,0,1.542.49,1.5,1.427a1.306,1.306,0,0,1-1.49,1.263c-2.733,0-5.466.01-8.2,0-.927,0-1.539-.449-1.494-1.428.04-.879.648-1.255,1.483-1.262C2167.552,170.232,2168.948,170.24,2170.346,170.241Z" transform="translate(-2154.046 -112.379)" fill="#030404"/>
        <path id="Trazado_583046" data-name="Trazado 583046" d="M2187.35,151l-19.765-.063c.344-.711,1.005-.555,1.588-.556q8.343-.013,16.687,0C2186.415,150.385,2187.13,150.128,2187.35,151Z" transform="translate(-2155.895 -99.768)" fill="#f6f8f9"/>
        <path id="Trazado_583047" data-name="Trazado 583047" d="M2316.082,148.673c-4.561,0-9.122-.032-13.682.023-1.083.013-1.517-.23-1.468-1.4.09-2.185.052-4.378.014-6.566-.015-.859.281-1.159,1.159-1.157q14.048.033,28.095-.014c1.066,0,1.178.487,1.166,1.332-.032,2.128-.068,4.259.013,6.384.043,1.12-.3,1.449-1.432,1.433-4.621-.063-9.243-.026-13.865-.026Zm.091-3.169q4.659,0,9.32,0c.946,0,1.983-.022,2.017-1.284.037-1.366-1.015-1.436-2.055-1.435q-9.32.012-18.64,0c-.968,0-1.964.049-2.013,1.291-.056,1.4,1.036,1.427,2.052,1.428Q2311.513,145.507,2316.173,145.5Z" transform="translate(-2240.45 -92.925)" fill="#01c9f2"/>
        <path id="Trazado_583048" data-name="Trazado 583048" d="M2313.62,234.435c8.163-.019,16.325-.026,24.487-.076.963-.006,1.271.316,1.25,1.256-.05,2.192-.046,4.387,0,6.579.019.925-.268,1.282-1.244,1.276-8.162-.052-16.324-.06-24.487-.081q-.013-1.572-.026-3.144,9.955.01,19.91.022c1.037,0,2.092-.058,2.039-1.44-.048-1.267-1.078-1.265-2.026-1.264q-9.955.012-19.91.02Z" transform="translate(-2248.485 -153.04)" fill="#fb5426"/>
        <path id="Trazado_583049" data-name="Trazado 583049" d="M2305.534,240.222q.013,1.572.026,3.144l-4.067,0c0-.311-.091-.553-.45-.589-.051-2.467-.089-4.935-.161-7.4-.023-.773.266-1.094,1.056-1.053,1.2.063,2.411.06,3.617.086q0,1.573-.006,3.148C2304.432,238.441,2304.562,239.329,2305.534,240.222Z" transform="translate(-2240.419 -153.017)" fill="#d74120"/>
        <path id="Trazado_583050" data-name="Trazado 583050" d="M2301.254,257.44c.359.036.451.278.45.589C2301.252,258.063,2301.145,257.835,2301.254,257.44Z" transform="translate(-2240.632 -167.676)" fill="#fb5426"/>
        <path id="Trazado_583051" data-name="Trazado 583051" d="M2322.865,195.62q4.653,0,9.307,0c1.043,0,2.081.123,2.035,1.474-.042,1.221-1.019,1.328-2,1.327q-9.4-.008-18.8,0c-.99,0-1.925-.149-1.942-1.379s.909-1.422,1.9-1.421Q2318.119,195.622,2322.865,195.62Z" transform="translate(-2247.136 -128.474)" fill="#080806"/>
        <path id="Trazado_583052" data-name="Trazado 583052" d="M2260.395,45.244c1.407-.4,2.129.214,2.58,1.544a9.662,9.662,0,0,1-9.367,12.689c-.669-.013-1.336-.1-2-.146-6.014-2.191-8.8-7.228-6.964-12.608a10.071,10.071,0,0,1,6.572-6.3,13.065,13.065,0,0,1,5.217.105c1.251.341,1.91.984,1.585,2.344a2.366,2.366,0,0,1-2.372.332,6.838,6.838,0,0,0-7.8,3.187,6.894,6.894,0,0,0,9.528,9.333,6.779,6.779,0,0,0,3.006-7.867A3.283,3.283,0,0,1,2260.395,45.244Z" transform="translate(-2204.401 -29.929)" fill="#030404"/>
        <path id="Trazado_583053" data-name="Trazado 583053" d="M2233.755,192.872c-.317-.35-.629-.7-.951-1.048-.489-.524-1.042-1.035-.7-1.854a1.479,1.479,0,0,1,1.916-.832,32.266,32.266,0,0,1,2.424,2.454c.854,1.059,1.454.859,2.253-.06.953-1.1,2.042-2.073,3.069-3.1.657-.661,1.391-1.115,2.2-.327.779.757.484,1.537-.2,2.219q-2.505,2.513-5.017,5.02a1.546,1.546,0,0,1-2.51-.078C2235.436,194.443,2234.586,193.667,2233.755,192.872Z" transform="translate(-2196.74 -123.442)" fill="#090909"/>
        <path id="Trazado_583054" data-name="Trazado 583054" d="M2265.249,49.854a3.288,3.288,0,0,0-.02,2.615,6.852,6.852,0,0,1-11.374,6.872,6.671,6.671,0,0,1-1.16-8.338,6.837,6.837,0,0,1,7.8-3.187,2.367,2.367,0,0,0,2.372-.332A4.254,4.254,0,0,1,2265.249,49.854Zm-2.287,4.663a4.341,4.341,0,0,0-8.68-.148,4.6,4.6,0,0,0,4.269,4.4A4.551,4.551,0,0,0,2262.962,54.517Z" transform="translate(-2209.255 -34.539)" fill="#3c5656"/>
        <path id="Trazado_583055" data-name="Trazado 583055" d="M2322.881,151.1q-4.66,0-9.32,0c-1.016,0-2.108-.028-2.052-1.428.049-1.242,1.046-1.292,2.013-1.291q9.32.011,18.64,0c1.041,0,2.093.068,2.055,1.435-.034,1.262-1.071,1.283-2.017,1.284Q2327.54,151.1,2322.881,151.1Z" transform="translate(-2247.158 -98.517)" fill="#030404"/>
        <path id="Trazado_583056" data-name="Trazado 583056" d="M2312.254,245.8c-.972-.892-1.1-1.781.013-2.663q9.955-.009,19.91-.02c.948,0,1.977,0,2.026,1.264.053,1.382-1,1.442-2.039,1.44Q2322.209,245.8,2312.254,245.8Z" transform="translate(-2247.139 -158.592)" fill="#030404"/>
        <path id="Trazado_583057" data-name="Trazado 583057" d="M2267.376,59.084a4.551,4.551,0,0,1-4.411,4.25,4.325,4.325,0,1,1,.148-8.648A4.552,4.552,0,0,1,2267.376,59.084Zm-2.825-.094a1.427,1.427,0,0,0-1.515-1.448,1.468,1.468,0,1,0,.031,2.937A1.421,1.421,0,0,0,2264.552,58.99Z" transform="translate(-2213.669 -39.106)" fill="#030404"/>
        <path id="Trazado_583058" data-name="Trazado 583058" d="M2269.557,63.941a1.421,1.421,0,0,1-1.483,1.488,1.468,1.468,0,1,1-.031-2.937A1.427,1.427,0,0,1,2269.557,63.941Z" transform="translate(-2218.675 -44.056)" fill="#f6f8f9"/>
      </g>
    </g>
  </g>
</svg>
