<svg xmlns="http://www.w3.org/2000/svg" xmlns:xlink="http://www.w3.org/1999/xlink" width="139" height="140" viewBox="0 0 139 140">
  <defs>
    <clipPath id="clip-path">
      <ellipse id="Elipse_154" data-name="Elipse 154" cx="69.5" cy="70" rx="69.5" ry="70" transform="translate(0.108 -0.327)" fill="#fff" stroke="#707070" stroke-width="1"/>
    </clipPath>
  </defs>
  <g id="Grupo_845316" data-name="Grupo 845316" transform="translate(-0.108 0.327)">
    <g id="Enmascarar_grupo_17" data-name="Enmascarar grupo 17" transform="translate(0 0)" clip-path="url(#clip-path)">
      <g id="Elipse_7362" data-name="Elipse 7362" transform="translate(-7.892 -6.327)" fill="#fff" stroke="#707070" stroke-width="1">
        <ellipse cx="77" cy="76.5" rx="77" ry="76.5" stroke="none"/>
        <ellipse cx="77" cy="76.5" rx="76.5" ry="76" fill="none"/>
      </g>
      <g id="Grupo_845317" data-name="Grupo 845317" transform="translate(26.608 27.434)">
        <path id="Trazado_582988" data-name="Trazado 582988" d="M1811.826,59.408c0,10.485-.072,20.971.048,31.454a6.135,6.135,0,0,1-3.407,5.813,30.285,30.285,0,0,1-10.307,3.452,96.288,96.288,0,0,1-39.184-.819,21.846,21.846,0,0,1-7.515-3.143,5.377,5.377,0,0,1-2.6-5.04c.113-1.874-.06-3.765.052-5.638.075-1.255-.249-1.621-1.563-1.6-6.267.079-12.537,0-18.8.068-1.276.015-1.595-.3-1.587-1.581.06-9.687.046-19.374.013-29.061a2.99,2.99,0,0,1,.953-2.388q5.015-4.895,9.913-9.909a2.78,2.78,0,0,1,2.241-.9c2.563.05,5.129-.022,7.692.038.916.022,1.141-.279,1.131-1.155-.043-3.817.08-7.639-.053-11.452a5.705,5.705,0,0,1,2.957-5.372,25.782,25.782,0,0,1,9.068-3.367c14.052-2.742,28.068-2.8,42,.78a18.776,18.776,0,0,1,6.643,3.021,5.394,5.394,0,0,1,2.334,4.663C1811.8,37.983,1811.826,48.7,1811.826,59.408Zm-62.944,2.616c0-5.927-.032-11.854.028-17.781.012-1.142-.323-1.45-1.424-1.394a50.85,50.85,0,0,1-5.3,0c-1.144-.061-1.589.191-1.541,1.455.1,2.732-.016,5.472.057,8.205.027,1.037-.227,1.37-1.311,1.338-2.79-.083-5.586.028-8.376-.056-1.087-.033-1.313.309-1.308,1.34q.063,12.4-.005,24.792c-.007,1.128.387,1.283,1.369,1.276q8.207-.065,16.414,0c1.1.011,1.435-.254,1.423-1.4C1748.85,73.879,1748.882,67.952,1748.882,62.024Zm31.525-28.717c7.482-.094,14.912-.616,22.136-2.766a15.637,15.637,0,0,0,5.542-2.567c1.336-1.078,1.332-1.978-.012-3.056a16.016,16.016,0,0,0-5.546-2.561,66.543,66.543,0,0,0-15.989-2.554c-9.547-.5-19.025-.11-28.29,2.542a15.793,15.793,0,0,0-5.561,2.53c-1.423,1.116-1.419,2.047.012,3.163a16.236,16.236,0,0,0,5.563,2.527C1765.492,32.7,1772.921,33.225,1780.407,33.307ZM1751.626,79.95c0,3.543.18,6.842-.058,10.112-.186,2.56.916,3.942,3.089,4.814.58.232,1.146.5,1.732.716a62.1,62.1,0,0,0,14.669,2.98c1.013.115,1.1-.321,1.094-1.127-.027-3.7-.054-7.4.014-11.1.02-1.091-.3-1.4-1.389-1.51C1764.263,84.179,1757.793,83.288,1751.626,79.95Zm0-32.835c0,3.781.1,7.3-.043,10.815a3.444,3.444,0,0,0,2.057,3.549,25.1,25.1,0,0,0,2.624,1.218c4.775,1.815,9.789,2.473,14.825,3.045,1.067.121,1.063-.407,1.06-1.163-.018-3.7-.056-7.4.021-11.095.023-1.13-.362-1.377-1.417-1.484C1764.242,51.336,1757.775,50.446,1751.626,47.115Zm0,16.433c0,3.781.086,7.344-.038,10.9a3.364,3.364,0,0,0,1.99,3.414c.6.32,1.2.658,1.827.916,5.056,2.079,10.4,2.8,15.784,3.386.988.109.96-.414.958-1.095-.013-3.812-.021-7.624.006-11.436.005-.742-.132-1.088-.988-1.173C1764.489,67.8,1757.862,66.905,1751.626,63.549Zm0-32.826c0,3.778.1,7.3-.043,10.807a3.434,3.434,0,0,0,2.071,3.538,26.374,26.374,0,0,0,2.786,1.27c4.723,1.781,9.68,2.42,14.656,2.989,1.076.123,1.055-.423,1.052-1.169-.016-3.639-.074-7.281.029-10.918.037-1.3-.4-1.541-1.6-1.664C1764.128,34.916,1757.712,34.058,1751.626,30.722Zm36.944,17.646c1.252-.79,2.322-1.044,3.146.3a.848.848,0,0,0,.914.314c4.96-.726,9.916-1.468,14.412-3.9a3.416,3.416,0,0,0,2.08-3.547c-.163-2.209-.039-4.438-.039-6.659V30.684a30.513,30.513,0,0,1-8.533,3.279,78.219,78.219,0,0,1-10.787,1.674c-.626.06-1.222-.028-1.211.955C1788.6,40.446,1788.57,44.3,1788.57,48.368Zm0,38.1c0,3.962.043,7.544-.026,11.123-.021,1.076.479,1.07,1.242.968,1.691-.226,3.395-.377,5.078-.651,4.1-.669,8.175-1.466,11.922-3.4,1.518-.783,2.549-1.781,2.332-3.731a41.835,41.835,0,0,1-.034-4.606V79.94a36.676,36.676,0,0,1-13.4,4.18,5.357,5.357,0,0,0-3.762,1.985C1791.067,87.2,1790.14,87.879,1788.568,86.465Zm-10.761-39.487c-2.923,0-2.923,0-2.923,2.953a3.825,3.825,0,0,1-.005.683c-.31,1.676.336,1.984,2,1.9a15.037,15.037,0,1,1,1.1,30.051c-.994.021-2.377-.61-2.878.121-.513.749-.215,2.078-.2,3.152.007.667-.215,1.38.161,2,.21.346,5.373.267,5.653-.062a1.169,1.169,0,0,0,.279-.611c.159-1.972,1.449-2.749,3.179-3.177a9.166,9.166,0,0,0,2.012-.922c.488-.259.989-.432,1.429-.045,1.924,1.69,3.216.624,4.459-.935a12.426,12.426,0,0,1,1.568-1.571,1.051,1.051,0,0,0,.2-1.626c-1.11-1.406-.9-2.764,0-4.195a6.852,6.852,0,0,0,.78-2.068c.163-.692.483-1.212,1.179-1.266,2.21-.173,2.575-1.527,2.36-3.392a17.489,17.489,0,0,1-.01-2.732c.026-.616-.2-1.029-.8-1.088-2.018-.2-2.873-1.476-3.281-3.3a7.1,7.1,0,0,0-.851-1.855,1.281,1.281,0,0,1-.021-1.582c1.467-1.753.74-3.031-.82-4.2a7.011,7.011,0,0,1-1.326-1.327c-.709-.917-1.47-1.176-2.444-.416a2.479,2.479,0,0,1-3.261.043,4.145,4.145,0,0,0-1.724-.714,2.688,2.688,0,0,1-2.493-2.556c-.151-1.08-.766-1.4-1.776-1.275A12.714,12.714,0,0,1,1777.807,46.978Zm16.635,4.652a19.962,19.962,0,0,0,1.643,1.416c1.544,1.039,1.508,2.165.58,3.689-1.217,2-.165,4.229,2.1,4.985.688.23,1.889.238,1.954.812.248,2.179,1.483.878,2.241.7a21.179,21.179,0,0,0,3.016-1.167c2.212-.909,3.513-2.286,3.159-4.957a44.507,44.507,0,0,1-.049-5.8V47.1a26.974,26.974,0,0,1-7.059,2.862C1799.656,50.553,1797.255,51.017,1794.443,51.629Zm14.639,12.04c-1.64.707-3.027,1.343-4.445,1.9-1.206.476-2.97.521-3.534,1.381-.633.966-.314,2.644-.188,3.992s-.414,1.853-1.654,2.212c-3.074.888-3.793,2.825-2.347,5.743.242.488.889.908.391,1.662-.19.288.1.544.551.442,3.439-.785,6.9-1.519,9.885-3.548a2.551,2.551,0,0,0,1.353-2.216C1809.062,71.433,1809.082,67.626,1809.082,63.669Zm-34.2,3.729c0,1.764.038,3.529-.017,5.291a1.2,1.2,0,0,0,1.041,1.426,6.852,6.852,0,0,0,7.241-2.624,6.731,6.731,0,0,0,.014-7.966,6.831,6.831,0,0,0-7.228-2.652,1.19,1.19,0,0,0-1.07,1.4C1774.925,63.982,1774.882,65.691,1774.882,67.4Zm.181,9.358c-.444,2.768-.257,3,2.383,3.046a12.306,12.306,0,0,0,7.009-22.533,11.9,11.9,0,0,0-8.622-1.93c-1.6.247-.868,1.48-.908,2.285-.056,1.107.781.458,1.209.4a9.584,9.584,0,0,1,4.47,18.57A9.97,9.97,0,0,1,1775.063,76.756Zm10.761,9.766c-2.148-.1-2.3,1.572-2.666,2.937-.265.982-.674,1.386-1.745,1.327-1.817-.1-3.644.006-5.465-.043-.793-.021-1.105.189-1.081,1.038.056,1.992.049,3.987,0,5.979-.018.783.186,1.139,1.032,1.13q4.441-.046,8.882,0c.816.008,1.065-.293,1.057-1.106C1785.8,94.03,1785.824,90.274,1785.824,86.522Zm0-38.046c0-3.86-.016-7.725.014-11.589.006-.738-.205-.962-.963-.95q-4.523.068-9.047,0c-.772-.012-.966.235-.953.961.038,2.1.05,4.212-.005,6.317-.022.849.289,1.059,1.081,1.036,1.706-.05,3.423.09,5.119-.049a1.758,1.758,0,0,1,2.2,1.653C1783.538,47.184,1783.892,48.579,1785.822,48.476Zm-53.763,2.6c1.665,0,3.248-.015,4.83.007.638.009,1.081-.056,1.058-.885-.045-1.663-.013-3.328-.013-5Z" transform="translate(-1726.958 -16.816)" fill="#060604"/>
        <path id="Trazado_582989" data-name="Trazado 582989" d="M1754.159,112.037c0,5.927-.032,11.855.028,17.782.011,1.142-.326,1.407-1.424,1.4q-8.206-.083-16.414,0c-.982.008-1.376-.148-1.369-1.276q.08-12.4.005-24.792c-.005-1.03.22-1.372,1.308-1.34,2.79.084,5.586-.027,8.376.056,1.084.032,1.338-.3,1.31-1.338-.073-2.734.048-5.473-.057-8.205-.048-1.264.4-1.516,1.541-1.455a50.846,50.846,0,0,0,5.3,0c1.1-.056,1.436.253,1.425,1.394C1754.127,100.183,1754.159,106.11,1754.159,112.037Zm-5.4-10.609v2.062q-.08.349.27.271h2.063q.349.08.271-.27V101.43q.079-.349-.27-.271h-2.063Q1748.678,101.079,1748.756,101.428Zm.27-3.139h2.063q.349.08.271-.27V95.957q.079-.349-.27-.271h-2.063q-.349-.08-.271.27v2.062Q1748.676,98.367,1749.025,98.289Zm-4.438,30.167c1.934,0,3.869-.036,5.8.017.822.023,1.067-.24,1.055-1.057q-.065-4.436,0-8.873c.012-.825-.249-1.059-1.061-1.051q-5.8.056-11.6,0c-.82-.008-1.067.24-1.055,1.057q.065,4.436,0,8.872c-.012.826.247,1.073,1.061,1.051C1740.719,128.421,1742.653,128.456,1744.587,128.456Zm-.032-19.154c1.933,0,3.869-.071,5.8.026,1.174.059,1.113-.588,1.08-1.367-.03-.707.225-1.448-1.021-1.425-3.864.072-7.731.08-11.6,0-1.366-.029-1.005.8-1.086,1.538-.1.943.2,1.293,1.2,1.252C1740.8,109.247,1742.68,109.3,1744.556,109.3Zm.018,5.473c1.933,0,3.869-.071,5.8.026,1.2.06,1.075-.628,1.063-1.384-.012-.728.183-1.43-1.04-1.407q-5.8.109-11.595,0c-1.193-.023-1.075.629-1.062,1.386.012.728-.185,1.466,1.041,1.406C1740.7,114.706,1742.641,114.775,1744.573,114.775Z" transform="translate(-1732.235 -66.829)" fill="#e2e5e9"/>
        <path id="Trazado_582990" data-name="Trazado 582990" d="M1827.809,38.686c-7.485-.081-14.914-.611-22.142-2.742a16.233,16.233,0,0,1-5.563-2.527c-1.431-1.117-1.436-2.047-.012-3.163a15.792,15.792,0,0,1,5.561-2.53c9.266-2.651,18.743-3.042,28.29-2.542a66.545,66.545,0,0,1,15.989,2.554,16.017,16.017,0,0,1,5.546,2.561c1.344,1.078,1.347,1.977.012,3.056a15.637,15.637,0,0,1-5.542,2.567C1842.723,38.07,1835.293,38.592,1827.809,38.686Zm.136-10.958q-7.171,0-14.342,0c-2.77,0-3.624.88-3.631,3.7,0,.455-.009.911,0,1.366.049,2.12,1.032,3.117,3.169,3.135,2.9.024,5.805.007,8.708.007q9.988,0,19.977,0c2.884,0,3.713-.851,3.719-3.788,0-.342,0-.683,0-1.025-.025-2.442-.964-3.386-3.428-3.391C1837.393,27.72,1832.669,27.728,1827.945,27.728Z" transform="translate(-1774.361 -22.196)" fill="#f8e5a3"/>
        <path id="Trazado_582991" data-name="Trazado 582991" d="M1798.885,201.285c6.167,3.338,12.638,4.229,19.152,4.887,1.091.111,1.409.419,1.389,1.51-.068,3.7-.041,7.4-.014,11.1.006.806-.081,1.242-1.094,1.127a62.1,62.1,0,0,1-14.669-2.98c-.586-.216-1.152-.484-1.732-.716-2.174-.872-3.276-2.254-3.089-4.814C1799.065,208.127,1798.885,204.828,1798.885,201.285Z" transform="translate(-1774.216 -138.15)" fill="#f9d46f"/>
        <path id="Trazado_582992" data-name="Trazado 582992" d="M1798.941,105.347c6.148,3.331,12.616,4.22,19.127,4.886,1.054.107,1.44.354,1.417,1.484-.076,3.7-.038,7.4-.021,11.095,0,.756.007,1.284-1.06,1.163-5.036-.572-10.05-1.23-14.825-3.045a25.078,25.078,0,0,1-2.625-1.218,3.444,3.444,0,0,1-2.057-3.549C1799.045,112.65,1798.941,109.128,1798.941,105.347Z" transform="translate(-1774.273 -75.047)" fill="#f9d46f"/>
        <path id="Trazado_582993" data-name="Trazado 582993" d="M1798.956,153.362c6.236,3.356,12.863,4.252,19.538,4.912.856.085.994.432.989,1.173-.028,3.812-.02,7.624-.006,11.436,0,.68.031,1.2-.958,1.095-5.38-.591-10.728-1.307-15.784-3.386-.628-.258-1.225-.6-1.827-.916a3.364,3.364,0,0,1-1.99-3.414C1799.042,160.706,1798.956,157.143,1798.956,153.362Z" transform="translate(-1774.287 -106.629)" fill="#f9d46f"/>
        <path id="Trazado_582994" data-name="Trazado 582994" d="M1798.941,57.449c6.086,3.335,12.5,4.194,18.951,4.853,1.2.123,1.636.362,1.6,1.664-.1,3.637-.045,7.278-.029,10.918,0,.746.024,1.292-1.052,1.169-4.976-.568-9.933-1.208-14.656-2.989a26.362,26.362,0,0,1-2.786-1.27,3.435,3.435,0,0,1-2.071-3.538C1799.046,64.747,1798.941,61.227,1798.941,57.449Z" transform="translate(-1774.273 -43.542)" fill="#f9d46f"/>
        <path id="Trazado_582995" data-name="Trazado 582995" d="M1906.943,75.02c0-4.066.026-7.922-.018-11.777-.011-.983.585-.894,1.211-.955a78.219,78.219,0,0,0,10.787-1.674,30.512,30.512,0,0,0,8.533-3.279v4.191c0,2.221-.124,4.45.039,6.659a3.416,3.416,0,0,1-2.08,3.547c-4.5,2.436-9.452,3.177-14.412,3.9a.848.848,0,0,1-.915-.314C1909.265,73.977,1908.195,74.23,1906.943,75.02Z" transform="translate(-1845.331 -43.468)" fill="#f9d56f"/>
        <path id="Trazado_582996" data-name="Trazado 582996" d="M1906.924,207.78c1.572,1.415,2.5.74,3.349-.359a5.357,5.357,0,0,1,3.762-1.985,36.678,36.678,0,0,0,13.4-4.18v6.228a41.865,41.865,0,0,0,.033,4.606c.217,1.95-.814,2.948-2.332,3.731-3.747,1.932-7.819,2.728-11.922,3.4-1.683.274-3.386.425-5.078.651-.764.1-1.263.108-1.242-.968C1906.966,215.324,1906.924,211.742,1906.924,207.78Z" transform="translate(-1845.313 -138.131)" fill="#f9d56f"/>
        <path id="Trazado_582997" data-name="Trazado 582997" d="M1869.757,104.876a12.785,12.785,0,0,0,1.537-.011c1.01-.124,1.625.194,1.776,1.275a2.688,2.688,0,0,0,2.493,2.556,4.144,4.144,0,0,1,1.724.714,2.479,2.479,0,0,0,3.261-.043c.974-.76,1.735-.5,2.444.416a7.022,7.022,0,0,0,1.326,1.327c1.56,1.167,2.287,2.444.82,4.2a1.282,1.282,0,0,0,.021,1.582,7.1,7.1,0,0,1,.852,1.855c.407,1.819,1.263,3.1,3.281,3.3.6.059.83.472.8,1.088a17.5,17.5,0,0,0,.01,2.732c.216,1.865-.15,3.219-2.36,3.392-.7.054-1.016.574-1.179,1.266a6.842,6.842,0,0,1-.78,2.068c-.9,1.431-1.108,2.789,0,4.195a1.052,1.052,0,0,1-.2,1.626,12.435,12.435,0,0,0-1.568,1.571c-1.243,1.56-2.535,2.625-4.459.935-.44-.387-.941-.215-1.429.045a9.168,9.168,0,0,1-2.012.922c-1.73.428-3.02,1.2-3.179,3.177a1.168,1.168,0,0,1-.279.611c-.28.329-5.442.408-5.652.062-.376-.616-.154-1.329-.161-2-.01-1.074-.309-2.4.2-3.152.5-.731,1.884-.1,2.878-.121a15.037,15.037,0,1,0-1.1-30.051c-1.661.087-2.306-.221-2-1.9a3.825,3.825,0,0,0,.005-.683C1866.834,104.876,1866.834,104.876,1869.757,104.876Z" transform="translate(-1818.907 -74.714)" fill="#9ccf65"/>
        <path id="Trazado_582998" data-name="Trazado 582998" d="M1924.139,109.834c2.812-.612,5.214-1.076,7.583-1.666a26.977,26.977,0,0,0,7.059-2.862v4.2a44.507,44.507,0,0,0,.049,5.8c.353,2.671-.948,4.048-3.159,4.957a21.174,21.174,0,0,1-3.016,1.167c-.758.182-1.993,1.483-2.241-.7-.065-.574-1.266-.582-1.954-.812-2.262-.755-3.314-2.987-2.1-4.985.929-1.524.965-2.65-.579-3.689A19.983,19.983,0,0,1,1924.139,109.834Z" transform="translate(-1856.654 -75.02)" fill="#f8d46e"/>
        <path id="Trazado_582999" data-name="Trazado 582999" d="M1942.15,153.713c0,3.957-.02,7.764.012,11.57a2.551,2.551,0,0,1-1.353,2.216c-2.988,2.029-6.446,2.763-9.885,3.548-.448.1-.74-.154-.551-.442.5-.754-.15-1.174-.391-1.662-1.446-2.918-.727-4.855,2.347-5.743,1.24-.358,1.781-.856,1.654-2.212s-.445-3.026.188-3.992c.564-.86,2.328-.9,3.534-1.381C1939.123,155.056,1940.509,154.42,1942.15,153.713Z" transform="translate(-1860.026 -106.86)" fill="#f8d46e"/>
        <path id="Trazado_583000" data-name="Trazado 583000" d="M1866.945,151.649c0-1.707.043-3.416-.019-5.12a1.19,1.19,0,0,1,1.07-1.4,6.831,6.831,0,0,1,7.228,2.652,6.731,6.731,0,0,1-.014,7.966,6.852,6.852,0,0,1-7.241,2.624,1.2,1.2,0,0,1-1.041-1.426C1866.983,155.178,1866.945,153.413,1866.945,151.649Z" transform="translate(-1819.021 -101.067)" fill="#f3f5f6"/>
        <path id="Trazado_583001" data-name="Trazado 583001" d="M1866.995,150.5a9.97,9.97,0,0,0,5.541-.165,9.584,9.584,0,0,0-4.47-18.57c-.428.061-1.265.71-1.209-.4.04-.8-.69-2.038.908-2.285a11.9,11.9,0,0,1,8.622,1.93,12.306,12.306,0,0,1-7.009,22.533C1866.737,153.5,1866.55,153.27,1866.995,150.5Z" transform="translate(-1818.889 -90.562)" fill="#afd77b"/>
        <path id="Trazado_583002" data-name="Trazado 583002" d="M1877.895,220.478c0,3.752-.022,7.508.017,11.263.008.813-.24,1.114-1.057,1.106q-4.441-.043-8.882,0c-.846.009-1.05-.348-1.032-1.13.045-1.992.053-3.987,0-5.979-.024-.849.288-1.059,1.081-1.038,1.821.049,3.648-.057,5.465.043,1.071.059,1.481-.345,1.745-1.327C1875.6,222.051,1875.747,220.376,1877.895,220.478Z" transform="translate(-1819.028 -150.772)" fill="#fae6a4"/>
        <path id="Trazado_583003" data-name="Trazado 583003" d="M1877.9,85.221c-1.93.1-2.284-1.293-2.557-2.622a1.758,1.758,0,0,0-2.2-1.653c-1.7.139-3.413,0-5.119.049-.792.023-1.1-.187-1.081-1.036.055-2.1.043-4.212.005-6.317-.013-.727.182-.973.953-.961q4.523.072,9.047,0c.758-.012.969.212.963.95C1877.88,77.5,1877.9,81.361,1877.9,85.221Z" transform="translate(-1819.031 -53.56)" fill="#fce7a5"/>
        <path id="Trazado_583004" data-name="Trazado 583004" d="M1741.865,105.624l5.875-5.876c0,1.669-.032,3.335.013,5,.023.829-.42.894-1.058.885C1745.113,105.609,1743.53,105.624,1741.865,105.624Z" transform="translate(-1736.763 -71.364)" fill="#fa7f6c"/>
        <path id="Trazado_583005" data-name="Trazado 583005" d="M1749.861,175.811c-1.934,0-3.869-.035-5.8.017-.814.022-1.073-.226-1.061-1.051q.067-4.436,0-8.872c-.012-.818.235-1.065,1.055-1.057q5.8.057,11.6,0c.812-.008,1.073.226,1.061,1.051q-.067,4.436,0,8.873c.012.817-.233,1.08-1.055,1.057C1753.73,175.774,1751.795,175.811,1749.861,175.811Zm.073-2.739c4.152,0,4.152,0,4.027-4.218a1.078,1.078,0,0,1,0-.171c.1-.778-.167-1.119-1.022-1.1q-3.07.079-6.143,0c-.83-.02-1.023.281-1.062,1.076C1745.519,173.073,1745.5,173.072,1749.934,173.072Z" transform="translate(-1737.508 -114.183)" fill="#030302"/>
        <path id="Trazado_583006" data-name="Trazado 583006" d="M1749.8,135.6c-1.876,0-3.754-.055-5.627.023-1,.041-1.3-.309-1.2-1.252.081-.734-.28-1.568,1.086-1.538,3.864.083,7.731.074,11.6,0,1.246-.023.991.718,1.021,1.425.033.779.094,1.425-1.08,1.367C1753.672,135.526,1751.735,135.6,1749.8,135.6Z" transform="translate(-1737.482 -93.123)" fill="#040302"/>
        <path id="Trazado_583007" data-name="Trazado 583007" d="M1749.852,151.59c-1.932,0-3.869-.069-5.8.025-1.226.06-1.029-.678-1.04-1.406-.012-.756-.131-1.408,1.062-1.386q5.8.11,11.595,0c1.222-.023,1.028.679,1.04,1.407.012.756.133,1.444-1.063,1.384C1753.721,151.52,1751.785,151.59,1749.852,151.59Z" transform="translate(-1737.514 -103.644)" fill="#040302"/>
        <path id="Trazado_583008" data-name="Trazado 583008" d="M1777.561,103.734H1775.5l-.27-.271V101.4l.271-.27h2.063l.27.271v2.062Z" transform="translate(-1758.708 -72.274)" fill="#030302"/>
        <path id="Trazado_583009" data-name="Trazado 583009" d="M1775.5,117.122h2.063l.27.271v2.062l-.271.27H1775.5l-.27-.271v-2.062Z" transform="translate(-1758.708 -82.792)" fill="#030302"/>
        <path id="Trazado_583010" data-name="Trazado 583010" d="M1782.319,117.366l-.27-.271Q1782.4,117.017,1782.319,117.366Z" transform="translate(-1763.194 -82.765)" fill="#060604"/>
        <path id="Trazado_583011" data-name="Trazado 583011" d="M1782.044,108.22l.271-.27Q1782.393,108.3,1782.044,108.22Z" transform="translate(-1763.19 -76.759)" fill="#060604"/>
        <path id="Trazado_583012" data-name="Trazado 583012" d="M1775.2,123.936l.27.271Q1775.121,124.285,1775.2,123.936Z" transform="translate(-1758.68 -87.274)" fill="#060604"/>
        <path id="Trazado_583013" data-name="Trazado 583013" d="M1782.044,124.21l.271-.27Q1782.393,124.29,1782.044,124.21Z" transform="translate(-1763.19 -87.277)" fill="#060604"/>
        <path id="Trazado_583014" data-name="Trazado 583014" d="M1775.2,107.945l.27.271Q1775.121,108.294,1775.2,107.945Z" transform="translate(-1758.68 -76.756)" fill="#060604"/>
        <path id="Trazado_583015" data-name="Trazado 583015" d="M1782.319,101.376l-.27-.271Q1782.4,101.027,1782.319,101.376Z" transform="translate(-1763.194 -72.247)" fill="#060604"/>
        <path id="Trazado_583016" data-name="Trazado 583016" d="M1775.473,101.1l-.271.27Q1775.124,101.023,1775.473,101.1Z" transform="translate(-1758.681 -72.246)" fill="#060604"/>
        <path id="Trazado_583017" data-name="Trazado 583017" d="M1775.473,117.093l-.271.27Q1775.124,117.014,1775.473,117.093Z" transform="translate(-1758.681 -82.764)" fill="#060604"/>
        <path id="Trazado_583018" data-name="Trazado 583018" d="M1848.972,32.974c4.724,0,9.448-.007,14.171,0,2.464.005,3.4.949,3.428,3.391,0,.342,0,.683,0,1.025-.005,2.937-.834,3.786-3.719,3.788q-9.989.005-19.977,0c-2.9,0-5.805.018-8.708-.007-2.137-.018-3.12-1.015-3.169-3.135-.01-.455,0-.911,0-1.366.007-2.819.861-3.7,3.631-3.7Q1841.8,32.968,1848.972,32.974Zm-.217,5.47c4.614,0,9.228-.042,13.841.029,1.165.018,1.254-.469,1.267-1.408.013-.981-.168-1.387-1.293-1.381q-13.756.072-27.512,0c-1.03,0-1.38.236-1.36,1.317.02,1.044.191,1.487,1.386,1.468C1839.641,38.4,1844.2,38.444,1848.755,38.444Z" transform="translate(-1795.388 -27.442)" fill="#040302"/>
        <path id="Trazado_583019" data-name="Trazado 583019" d="M1755.053,178.335c-4.438,0-4.415,0-4.2-4.409.039-.795.232-1.1,1.062-1.076q3.069.074,6.142,0c.855-.022,1.123.319,1.022,1.1a1.108,1.108,0,0,0,0,.171C1759.2,178.335,1759.2,178.335,1755.053,178.335Z" transform="translate(-1742.627 -119.446)" fill="#b1da7d"/>
        <path id="Trazado_583020" data-name="Trazado 583020" d="M1853.949,43.658c-4.557,0-9.115-.043-13.671.03-1.2.019-1.367-.424-1.387-1.468-.021-1.081.33-1.321,1.36-1.317q13.756.058,27.512,0c1.124-.006,1.306.4,1.293,1.381-.013.939-.1,1.426-1.267,1.408C1863.178,43.617,1858.563,43.658,1853.949,43.658Z" transform="translate(-1800.582 -32.656)" fill="#fa7f6c"/>
      </g>
    </g>
  </g>
</svg>
