<svg id="Grupo_841495" data-name="Grupo 841495" xmlns="http://www.w3.org/2000/svg" width="107" height="107" viewBox="0 0 107 107">
  <rect id="Rectángulo_38178" data-name="Rectángulo 38178" width="107" height="107" fill="none"/>
  <g id="Grupo_845391" data-name="Grupo 845391" transform="translate(-2568.62 -16.542)">
    <path id="Trazado_583379" data-name="Trazado 583379" d="M2650.021,74.85c.925-.625,1.482-.07,2.067.59,10.125,11.439,3.958,29.945-11.008,33.036a19.928,19.928,0,0,1-12.147-1.193c-.765-.328-1.2-.419-1.776.337a3.753,3.753,0,0,1-3.161,1.319c-10.643,0-21.285.017-31.928-.011a3.986,3.986,0,0,1-4.2-4.214c-.033-1.09,0-2.183-.008-3.274a3.969,3.969,0,0,1,2.023-3.758c.5-.287.514-.475.356-1.027a15.015,15.015,0,0,1-.13-6.341c.095-.654.2-.964-.543-1.286a3.818,3.818,0,0,1-2.385-3.79c0-1.046,0-2.092,0-3.138.014-2.876,1.6-4.463,4.469-4.483.453,0,.906,0,1.411,0a19.168,19.168,0,0,1-.04-7.552c-3.43-.849-4.2-1.825-4.2-5.449,0-.819-.02-1.638.007-2.456.074-2.313,1.667-4.162,3.948-3.958s3.262-.857,4.219-2.643c2.014-3.759,4.213-7.419,6.356-11.108,2.39-4.115,7.215-4.124,9.613-.013,2.424,4.156,4.85,8.311,7.2,12.509a1.976,1.976,0,0,0,2.145,1.2,21.268,21.268,0,0,1,3.271.019,3.788,3.788,0,0,1,3.6,3.483,18.118,18.118,0,0,1-.294,6.116,5.816,5.816,0,0,1,2.9,1.095c.57.472,1.229.011,1.827-.078a20.189,20.189,0,0,1,14.1,2.9c.714.446,1.254.923.874,1.859-.744.659-1.365.262-2.065-.157a17.486,17.486,0,0,0-16.2-1.5,5.006,5.006,0,0,0-.644.182,17.963,17.963,0,0,0-10.75,19.317c1.156,7.033,5.124,11.944,11.941,14.384a17.108,17.108,0,0,0,14.836-1.225,18.122,18.122,0,0,0,4.975-27.565C2650.158,76.348,2649.468,75.8,2650.021,74.85Zm-30.7-8.446a8.082,8.082,0,0,1-3.308.565c-.314-.018-.8-.171-.829.4s.427.475.767.475c3.073,0,6.147.022,9.22-.013a1.7,1.7,0,0,0,1.895-1.687l.023-.255.012-.292c.519-4.95.011-5.594-4.286-5.429a2.421,2.421,0,0,1-.271,0c-.463-.034-.6.11-.526.621A5.455,5.455,0,0,1,2619.326,66.4Zm-22.041.023a1.557,1.557,0,0,1-.185-1.275,1.326,1.326,0,0,1,1.326-.438,3.854,3.854,0,0,0,1.862.089c1.019.323,2.454-.524,3.02,1.073q-.024,7.595-.043,15.189c0,1.876.529,2.334,2.493,2.231,1.635.018,3.27.048,4.9.051,1.95,0,2.426-.465,2.429-2.385.007-4.317,0-8.634,0-12.951,0-3.072-.419-3.167,3.074-3.149,3.411.019,4.808-2.425,3.108-5.381-2.625-4.565-5.277-9.115-7.886-13.69-.766-1.343-1.673-2.391-3.378-2.3s-2.561,1.181-3.137,2.616q-3.747,6.4-7.493,12.8c-.641,1.1-1.35,2.165-1.016,3.56.118.492-.266.836-.631,1.127-1.744.042-1.4-1.255-1.5-2.3-.036-.376.454-1-.288-1.1-1.448-.2-2.958.108-3.035,1.993-.05,1.222-.04,2.449,0,3.672a1.793,1.793,0,0,0,1.836,1.955c2.583.062,5.169.026,7.754.029.325,0,.664.012.647-.466s-.389-.418-.689-.414A6.218,6.218,0,0,1,2597.285,66.427ZM2600.561,70c-1.223-.019-2.447-.072-3.669-.046a1.88,1.88,0,0,0-2.079,2c-.044,1.223-.04,2.45,0,3.673a1.876,1.876,0,0,0,1.978,1.976c1.041.054,2.093-.064,3.127.036,1.158.112,1.464-.344,1.186-1.383.021-1.844.046-3.688.061-5.532C2601.169,70.32,2601.235,69.842,2600.561,70Zm14.656,6.232c-.315,1.033-.032,1.535,1.142,1.408a9.641,9.641,0,0,1,2.172,0,1.959,1.959,0,0,0,2.323-1.343,23.561,23.561,0,0,1,7.924-6.236c-4.342-.12-8.635-.114-12.927-.128-.539,0-.719.214-.709.722C2615.177,72.513,2615.193,74.372,2615.217,76.23ZM2593.73,97.013a1.09,1.09,0,0,0,.263.068q11.785.011,23.57.007c.258,0,.691.184.688-.367l-.459-1.084a24.5,24.5,0,0,1-1.085-5.448c-.026-.7-.353-.793-.936-.79q-8.975.048-17.95.066c-1.265-.019-2.532-.089-3.8-.042a1.923,1.923,0,0,0-2.035,2.068c-.049,1.22-.05,2.445.009,3.664A1.711,1.711,0,0,0,2593.73,97.013Zm18.528-11.646-8.121.013a3.822,3.822,0,0,1-2.925-3.3c-.086-.662-.068-1.337-.1-2.006.035-.225-.047-.344-.289-.317a43.055,43.055,0,0,0-5.447,0l-.283.007-.26,0c-1.176-.024-2.354-.093-3.529-.059a1.88,1.88,0,0,0-2.046,2.036c-.049,1.041-.027,2.085-.012,3.128.027,1.861.683,2.511,2.575,2.513,7.891.007,15.781-.018,23.672.028,1.051.006,1.389-.34,1.256-1.308a31.846,31.846,0,0,1,1.227-4.574c.73-1.834.7-1.75-1.23-1.871-1.322-.083-1.727.31-1.625,1.629A3.736,3.736,0,0,1,2612.258,85.367Zm-16.6,13.861c-1.227-.016-2.455-.074-3.68-.035a1.919,1.919,0,0,0-2.042,2.068c-.042,1.09-.027,2.183-.007,3.274.03,1.621.711,2.309,2.351,2.31q15.76.014,31.52,0a2.491,2.491,0,0,0,1.329-.209c.823-.481,1.154-.948-.007-1.415a22.254,22.254,0,0,1-5.2-5.515,1.031,1.031,0,0,0-.992-.54Q2607.292,99.211,2595.656,99.228Z" transform="translate(0 -4.301)" fill="#0a0a06"/>
    <path id="Trazado_583380" data-name="Trazado 583380" d="M2720.282,149.563a17.486,17.486,0,0,1,16.2,1.5c.7.418,1.321.816,2.064.157l1.429,1.316c-.553.95.138,1.5.664,2.122a18.122,18.122,0,0,1-4.975,27.565,17.108,17.108,0,0,1-14.837,1.225c-.16-.43-.581-.539-.914-.765a19.6,19.6,0,0,1-3.987-3.237,19.277,19.277,0,0,1-4.979-13.8c.234-6.028,2.877-10.7,7.419-14.473C2719.007,150.641,2719.953,150.46,2720.282,149.563Zm-7.429,16.869a13.96,13.96,0,1,0,13.932-14.008A13.979,13.979,0,0,0,2712.853,166.432Z" transform="translate(-89.957 -81.986)" fill="#ede24a"/>
    <path id="Trazado_583381" data-name="Trazado 583381" d="M2778.912,102.187a3.02,3.02,0,0,1-2.3,3c-1.141.29-2.3.505-3.466.695a3.219,3.219,0,0,1-1.846-6.073c.91-.4,1.917-.581,2.815-1C2776.134,97.861,2778.653,98.718,2778.912,102.187Zm-5.855,1.631c.85-.168,1.922-.333,2.968-.6.866-.221.886-.906.695-1.629-.2-.752-.611-1.242-1.457-.983-.99.3-1.962.661-2.937,1.009a1.034,1.034,0,0,0-.694,1.4C2771.8,103.612,2772.2,103.914,2773.057,103.818Z" transform="translate(-132.536 -45.799)" fill="#0b0b09"/>
    <path id="Trazado_583382" data-name="Trazado 583382" d="M2717.35,35.443c3.417.271,4.331,2.758,3.361,4.815-.4.855-.589,1.81-.959,2.684a3.206,3.206,0,0,1-6.1-1.741c.172-1.119.384-2.236.646-3.337A3.045,3.045,0,0,1,2717.35,35.443Zm.346,2.128c-.851-.11-1.285.2-1.432.877-.209.968-.391,1.943-.573,2.916a1.05,1.05,0,0,0,.8,1.352,1.075,1.075,0,0,0,1.464-.8c.282-.855.614-1.693.878-2.553C2719.17,38.263,2718.73,37.667,2717.7,37.571Z" transform="translate(-91.903 0)" fill="#0b0b09"/>
    <path id="Trazado_583383" data-name="Trazado 583383" d="M2752.148,67.015a3.168,3.168,0,0,1-2.956-1.831,2.847,2.847,0,0,1,.309-3.313,34.122,34.122,0,0,1,2.326-2.661c1.35-1.373,3.107-1.3,4.571.129,1.526,1.487,1.668,3.291.284,4.666-.866.861-1.83,1.624-2.765,2.414A2.679,2.679,0,0,1,2752.148,67.015Zm-.1-2.033c.585,0,3.349-2.382,3.457-2.939.149-.769-.41-1.162-.9-1.531a.937.937,0,0,0-1.339.167q-1.085,1.207-2.132,2.448a.9.9,0,0,0-.1,1.128A1.381,1.381,0,0,0,2752.049,64.982Z" transform="translate(-117.482 -16.559)" fill="#0b0b09"/>
    <path id="Trazado_583384" data-name="Trazado 583384" d="M2637.66,51.751c.576-1.435,1.441-2.53,3.137-2.616s2.612.962,3.378,2.3c2.609,4.574,5.26,9.124,7.886,13.69,1.7,2.956.3,5.4-3.108,5.381-3.493-.019-3.071.077-3.074,3.149,0,4.317,0,8.634,0,12.951,0,1.92-.479,2.388-2.429,2.385-1.635,0-3.27-.033-4.9-.051a19.9,19.9,0,0,1-.283-4.585q0-5.164,0-10.327c0-1.67-.451-2.183-2.165-2.508-.566-1.6-2-.75-3.02-1.073-.618-1.666-1.174-3.321-.447-5.122,1-2.476,1.976-4.961,2.9-7.468C2636.263,55.835,2637.335,53.922,2637.66,51.751Z" transform="translate(-32.784 -9.949)" fill="#94d4a3"/>
    <path id="Trazado_583385" data-name="Trazado 583385" d="M2616.664,253.094q11.637-.025,23.274-.059a1.032,1.032,0,0,1,.992.54,22.249,22.249,0,0,0,5.2,5.515c-.478.4-1.049.221-1.575.223q-9.752.02-19.5.009-3.888,0-7.775,0c-.531,0-1.188.116-1.153-.737C2616.2,256.742,2615.763,254.851,2616.664,253.094Z" transform="translate(-21.008 -158.167)" fill="#efe44b"/>
    <path id="Trazado_583386" data-name="Trazado 583386" d="M2624.5,217.325q8.975-.029,17.95-.066c.583,0,.91.087.936.79a24.489,24.489,0,0,0,1.085,5.448c-.272,0-.545,0-.817,0q-9.185,0-18.372-.011c-.451,0-1.248.235-1.241-.436C2624.061,221.136,2623.451,219.156,2624.5,217.325Z" transform="translate(-26.679 -132.163)" fill="#efe44b"/>
    <path id="Trazado_583387" data-name="Trazado 583387" d="M2602.915,253.124c-.9,1.757-.469,3.648-.543,5.487-.035.853.621.736,1.153.737q3.887.009,7.774,0,9.752,0,19.5-.009c.527,0,1.1.178,1.575-.223,1.161.466.829.934.007,1.415a2.489,2.489,0,0,1-1.328.209q-15.76,0-31.52,0c-1.64,0-2.321-.689-2.351-2.31-.02-1.091-.034-2.184.007-3.274a1.919,1.919,0,0,1,2.042-2.068C2600.461,253.05,2601.689,253.108,2602.915,253.124Z" transform="translate(-7.26 -158.197)" fill="#fcc14f"/>
    <path id="Trazado_583388" data-name="Trazado 583388" d="M2622.2,188.127c.134.968-.2,1.314-1.256,1.308-7.89-.047-15.781-.021-23.672-.028-1.893,0-2.548-.651-2.575-2.513-.015-1.043-.036-2.088.012-3.128a1.88,1.88,0,0,1,2.046-2.036c1.175-.034,2.353.035,3.529.059a14.578,14.578,0,0,0-.278,4.448c-.032,1.863-.007,1.863,1.8,1.865Z" transform="translate(-5.455 -106.329)" fill="#f4bc4d"/>
    <path id="Trazado_583389" data-name="Trazado 583389" d="M2636.3,188l-20.4-.025c-1.8,0-1.829,0-1.8-1.865a14.579,14.579,0,0,1,.278-4.448l.26,0c.1.207.194.2.283-.007a43.052,43.052,0,0,1,5.447,0l.289.317c.03.669.012,1.344.1,2.006a3.823,3.823,0,0,0,2.925,3.3c.118.379.426.42.754.42h6.626c.33,0,.636-.046.741-.433a3.736,3.736,0,0,0,2.863-4.085c-.1-1.319.3-1.711,1.625-1.629,1.934.121,1.961.037,1.231,1.871A31.847,31.847,0,0,0,2636.3,188Z" transform="translate(-19.547 -106.198)" fill="#ede24a"/>
    <path id="Trazado_583390" data-name="Trazado 583390" d="M2714.22,153.107c-.33.9-1.275,1.078-1.914,1.61-4.542,3.776-7.185,8.444-7.419,14.473a19.277,19.277,0,0,0,4.979,13.8,19.6,19.6,0,0,0,3.987,3.237c.333.226.754.335.914.765-6.817-2.44-10.785-7.351-11.941-14.384a17.963,17.963,0,0,1,10.75-19.317A5,5,0,0,1,2714.22,153.107Z" transform="translate(-83.894 -85.53)" fill="#f7be4d"/>
    <path id="Trazado_583391" data-name="Trazado 583391" d="M2610.531,217.345c-1.05,1.83-.439,3.811-.459,5.722-.007.671.79.435,1.241.436q9.186.024,18.372.011c.272,0,.544,0,.817,0l.459,1.085q-11.492,0-22.984.007c-.517,0-1.1-.209-1.537.285a1.711,1.711,0,0,1-1.731-1.859c-.058-1.219-.057-2.444-.009-3.664a1.923,1.923,0,0,1,2.035-2.068C2608,217.256,2609.266,217.327,2610.531,217.345Z" transform="translate(-12.71 -132.183)" fill="#f5bf4d"/>
    <path id="Trazado_583392" data-name="Trazado 583392" d="M2689.641,152.282c-.024-1.858-.041-3.717-.075-5.575-.01-.508.17-.724.709-.722,4.292.015,8.584.008,12.927.128a23.564,23.564,0,0,0-7.924,6.236Z" transform="translate(-74.424 -80.353)" fill="#efe44b"/>
    <path id="Trazado_583393" data-name="Trazado 583393" d="M2621.338,152.335c.278,1.039-.027,1.495-1.185,1.383-1.034-.1-2.087.018-3.127-.035a1.876,1.876,0,0,1-1.978-1.976c-.041-1.223-.045-2.45,0-3.673a1.88,1.88,0,0,1,2.079-2c1.222-.026,2.446.028,3.669.046-1.03,1.83-.412,3.815-.506,5.729C2620.257,152.478,2620.92,152.285,2621.338,152.335Z" transform="translate(-20.234 -80.385)" fill="#fcc14f"/>
    <path id="Trazado_583394" data-name="Trazado 583394" d="M2627.649,58.726c-.324,2.172-1.4,4.085-2.139,6.11-.919,2.506-1.9,4.992-2.9,7.468-.727,1.8-.171,3.456.447,5.122a3.854,3.854,0,0,1-1.862-.089,1.326,1.326,0,0,0-1.326.438l-.9-.681-.468-.876c.365-.292.75-.635.631-1.127-.334-1.4.375-2.463,1.016-3.56Q2623.9,65.126,2627.649,58.726Z" transform="translate(-22.773 -16.925)" fill="#75bea0"/>
    <path id="Trazado_583395" data-name="Trazado 583395" d="M2646.121,131.127c1.714.325,2.163.839,2.165,2.508q.005,5.164,0,10.327a19.9,19.9,0,0,0,.283,4.585c-1.964.1-2.495-.355-2.493-2.231Q2646.085,138.722,2646.121,131.127Z" transform="translate(-42.812 -69.553)" fill="#75bea0"/>
    <path id="Trazado_583396" data-name="Trazado 583396" d="M2605.588,113.584l.469.876c.18.752-.648,2.061,1.081,1.956a6.217,6.217,0,0,0,3.176.536c.3,0,.671-.074.689.414s-.322.467-.646.466c-2.584,0-5.17.033-7.754-.029a1.793,1.793,0,0,1-1.836-1.955c-.039-1.223-.049-2.45,0-3.672.076-1.885,1.587-2.2,3.035-1.993.741.1.252.726.288,1.1C2604.189,112.329,2603.844,113.625,2605.588,113.584Z" transform="translate(-9.852 -54.291)" fill="#f9be4e"/>
    <path id="Trazado_583397" data-name="Trazado 583397" d="M2712.654,115.882c-.008.085-.015.17-.023.255-2.566.534-5.161.213-7.744.262a5.455,5.455,0,0,0,2.7-5.618c-.077-.511.063-.655.525-.621a2.421,2.421,0,0,0,.271,0c4.3-.165,4.8.479,4.285,5.429C2712.447,115.678,2712.427,115.775,2712.654,115.882Z" transform="translate(-85.561 -54.296)" fill="#ede24a"/>
    <path id="Trazado_583398" data-name="Trazado 583398" d="M2693.87,132.365c2.583-.049,5.178.272,7.744-.262a1.7,1.7,0,0,1-1.894,1.687c-3.073.035-6.147.017-9.22.013-.34,0-.8.09-.767-.475s.515-.416.829-.4A8.08,8.08,0,0,0,2693.87,132.365Z" transform="translate(-74.545 -70.262)" fill="#f9be4e"/>
    <path id="Trazado_583399" data-name="Trazado 583399" d="M2689.525,169.043l5.637.067a1.959,1.959,0,0,1-2.323,1.343,9.644,9.644,0,0,0-2.172,0C2689.494,170.578,2689.21,170.076,2689.525,169.043Z" transform="translate(-74.308 -97.114)" fill="#eab44a"/>
    <path id="Trazado_583400" data-name="Trazado 583400" d="M2611.166,244.267c.436-.494,1.02-.284,1.537-.285q11.491-.02,22.983-.007c0,.551-.43.366-.688.367q-11.785.011-23.569-.007A1.081,1.081,0,0,1,2611.166,244.267Z" transform="translate(-17.436 -151.555)" fill="#fcc14f"/>
    <path id="Trazado_583401" data-name="Trazado 583401" d="M2635.111,152.395c-.419-.05-1.082.143-1.049-.524.094-1.914-.524-3.9.506-5.729.674-.156.608.322.6.721C2635.156,148.707,2635.132,150.551,2635.111,152.395Z" transform="translate(-34.006 -80.445)" fill="#efe44b"/>
    <path id="Trazado_583402" data-name="Trazado 583402" d="M2657.392,202.5c-.1.387-.411.433-.741.433h-6.626c-.328,0-.636-.04-.754-.42Z" transform="translate(-45.133 -121.432)" fill="#efe44b"/>
    <path id="Trazado_583403" data-name="Trazado 583403" d="M2621.187,127.938c-1.729.1-.9-1.2-1.081-1.956l.9.681A1.556,1.556,0,0,0,2621.187,127.938Z" transform="translate(-23.902 -65.813)" fill="#ede24a"/>
    <path id="Trazado_583404" data-name="Trazado 583404" d="M2732.9,130.392c-.227-.107-.208-.2.012-.292Q2732.9,130.246,2732.9,130.392Z" transform="translate(-105.805 -68.806)" fill="#efe44b"/>
    <path id="Trazado_583405" data-name="Trazado 583405" d="M2616.445,181.957c-.09.2-.184.214-.283.007Z" transform="translate(-21.067 -106.501)" fill="#efe44b"/>
    <path id="Trazado_583406" data-name="Trazado 583406" d="M2637.433,182.257l-.289-.317C2637.385,181.913,2637.468,182.032,2637.433,182.257Z" transform="translate(-36.319 -106.486)" fill="#efe44b"/>
    <path id="Trazado_583407" data-name="Trazado 583407" d="M2717.962,177.592a13.961,13.961,0,1,1,13.987,13.951A13.973,13.973,0,0,1,2717.962,177.592Zm13.9,11.869a11.907,11.907,0,1,0-11.874-11.893A11.924,11.924,0,0,0,2731.86,189.461Z" transform="translate(-95.065 -93.146)" fill="#090703"/>
    <path id="Trazado_583408" data-name="Trazado 583408" d="M2778.529,109.375c-.854.1-1.258-.206-1.426-.8a1.034,1.034,0,0,1,.694-1.4c.975-.348,1.948-.707,2.937-1.009.847-.259,1.259.232,1.458.983.191.723.171,1.409-.695,1.629C2780.451,109.042,2779.379,109.207,2778.529,109.375Z" transform="translate(-138.008 -51.356)" fill="#eeeb8e"/>
    <path id="Trazado_583409" data-name="Trazado 583409" d="M2723.146,43.18c1.035.1,1.475.692,1.135,1.8-.264.86-.6,1.7-.878,2.553a1.075,1.075,0,0,1-1.464.8,1.051,1.051,0,0,1-.8-1.352c.182-.974.364-1.948.573-2.916C2721.861,43.383,2722.3,43.069,2723.146,43.18Z" transform="translate(-97.354 -5.608)" fill="#eeeb8e"/>
    <path id="Trazado_583410" data-name="Trazado 583410" d="M2757.573,70.518a1.38,1.38,0,0,1-1.02-.727.9.9,0,0,1,.1-1.128q1.043-1.243,2.131-2.448a.937.937,0,0,1,1.339-.167c.494.369,1.052.762.9,1.531C2760.922,68.136,2758.158,70.514,2757.573,70.518Z" transform="translate(-123.006 -22.095)" fill="#eeeb8e"/>
    <path id="Trazado_583411" data-name="Trazado 583411" d="M2737.247,194.949a11.907,11.907,0,1,1,12-11.769A11.926,11.926,0,0,1,2737.247,194.949Zm-1.059-8.905c0,3.017,0,3.023-2.812,2.038-.631-.221-1.208-.232-1.5.447-.287.662.062,1.13.667,1.43a6.584,6.584,0,0,0,2.571.847c.747.037,1.19.223,1.1,1.109a.9.9,0,0,0,.9,1c.569.053,1.1-.284,1.033-.83-.148-1.227.7-1.327,1.5-1.637a4.75,4.75,0,0,0,3.2-4.473c-.046-1.837-1.215-3.2-3.4-3.947a2.448,2.448,0,0,0-.389-.126.894.894,0,0,1-.856-1.124c.052-.449-.013-.91.014-1.363.043-.716-.328-1.667.163-2.087s1.218.294,1.833.543a.972.972,0,0,0,1.3-.418.889.889,0,0,0-.3-1.309,6.288,6.288,0,0,0-1.843-.844c-.736-.174-1.277-.316-1.2-1.261.042-.518-.4-.815-.9-.839-.568-.028-1.081.283-1.027.845.095.995-.523,1.15-1.225,1.414a3.9,3.9,0,0,0-2.747,3.557,3.043,3.043,0,0,0,2.147,3.292c1.643.53,2.024,1.544,1.782,3.053A4.344,4.344,0,0,0,2736.188,186.044Z" transform="translate(-100.453 -98.634)" fill="#f9be4e"/>
    <path id="Trazado_583412" data-name="Trazado 583412" d="M2753.216,191.542a4.344,4.344,0,0,1,0-.681c.242-1.509-.139-2.523-1.782-3.053a3.043,3.043,0,0,1-2.147-3.292,3.894,3.894,0,0,1,2.747-3.557c.7-.264,1.32-.419,1.225-1.414-.053-.562.459-.873,1.027-.845.5.025.941.322.9.839-.078.945.464,1.087,1.2,1.261a6.289,6.289,0,0,1,1.844.844.889.889,0,0,1,.3,1.309.971.971,0,0,1-1.3.418c-.615-.248-1.328-.976-1.833-.543s-.121,1.371-.164,2.087c-.027.453.038.914-.014,1.363a.894.894,0,0,0,.856,1.124,2.436,2.436,0,0,1,.389.126c2.183.751,3.352,2.11,3.4,3.947a4.749,4.749,0,0,1-3.2,4.473c-.8.31-1.647.41-1.5,1.637.066.546-.463.883-1.033.83a.9.9,0,0,1-.9-1c.088-.887-.354-1.072-1.1-1.109a6.578,6.578,0,0,1-2.571-.847c-.6-.3-.955-.769-.667-1.43.294-.678.872-.668,1.5-.447C2753.214,194.565,2753.216,194.559,2753.216,191.542Zm2.008.209a2.638,2.638,0,0,0,.006.542c.133.609-.392,1.6.348,1.765.786.178,1.474-.578,1.9-1.3a2.627,2.627,0,0,0,.359-1.145c.056-.966-1.107-2.255-2.084-2.126-1.115.147-.289,1.154-.523,1.726A1.52,1.52,0,0,0,2755.224,191.751Zm-2-7.2a3.349,3.349,0,0,0,0-.54c-.063-.375.23-.923-.2-1.094-.516-.2-.911.255-1.237.624a1.875,1.875,0,0,0-.39.7,1.221,1.221,0,0,0,.427,1.45c.359.251.782.7,1.185.484.5-.267.12-.9.219-1.355A1.275,1.275,0,0,0,2753.225,184.552Z" transform="translate(-117.481 -104.132)" fill="#060502"/>
    <path id="Trazado_583413" data-name="Trazado 583413" d="M2772.147,220.439a1.52,1.52,0,0,1,.01-.539c.234-.572-.592-1.579.523-1.726.977-.129,2.14,1.16,2.084,2.126a2.627,2.627,0,0,1-.359,1.145c-.43.723-1.118,1.479-1.9,1.3-.739-.167-.215-1.156-.348-1.765A2.621,2.621,0,0,1,2772.147,220.439Z" transform="translate(-134.403 -132.821)" fill="#eab44a"/>
    <path id="Trazado_583414" data-name="Trazado 583414" d="M2759.927,195.652a1.309,1.309,0,0,1,0,.27c-.1.459.284,1.088-.219,1.355-.4.213-.826-.233-1.185-.484a1.221,1.221,0,0,1-.427-1.45,1.875,1.875,0,0,1,.39-.7c.325-.369.72-.828,1.237-.624.433.171.14.719.2,1.094A3.405,3.405,0,0,1,2759.927,195.652Z" transform="translate(-124.183 -115.232)" fill="#eab44a"/>
  </g>
</svg>
