<svg xmlns="http://www.w3.org/2000/svg" xmlns:xlink="http://www.w3.org/1999/xlink" width="85" height="85" viewBox="0 0 85 85">
  <defs>
    <clipPath id="clip-path">
      <rect id="Rectángulo_280681" data-name="Rectángulo 280681" width="85" height="85" transform="translate(492 1857)" fill="#fff" stroke="#707070" stroke-width="1"/>
    </clipPath>
  </defs>
  <g id="Enmascarar_grupo_700229" data-name="Enmascarar grupo 700229" transform="translate(-492 -1857)" clip-path="url(#clip-path)">
    <g id="Grupo_845283" data-name="Grupo 845283" transform="translate(-1934.337 1481.639)">
      <path id="Trazado_582700" data-name="Trazado 582700" d="M2468.873,450.559c-3.148,0-6.3.011-9.445-.006-.938-.005-2.132.319-2.417-1.023s.959-1.541,1.781-1.962c2.608-1.337,5.229-2.654,7.874-3.918a1.445,1.445,0,0,0,.941-1.549c-.04-4.937-.047-9.875.006-14.812a1.71,1.71,0,0,0-.974-1.709,24.966,24.966,0,0,1-9.365-9,22.744,22.744,0,0,1-2.547-17.095c.99-4.264,2.093-8.5,3.079-12.767a1.767,1.767,0,0,1,2.039-1.581q9.063.057,18.126,0c.982,0,1.637.272,1.878,1.293,1.121,4.757,2.492,9.469,3.335,14.274,1.669,9.523-1.67,17.181-9.292,23.032-.068.052-.14.1-.21.145-1.157.784-2.8,1.327-3.34,2.417-.595,1.2-.191,2.908-.194,4.394-.009,3.788.029,7.577-.027,11.364a1.51,1.51,0,0,0,1.028,1.624c2.8,1.335,5.555,2.752,8.33,4.137.7.35,1.438.708,1.244,1.677-.208,1.042-1.036,1.065-1.889,1.062C2475.511,450.55,2472.192,450.558,2468.873,450.559Zm-.034-49.544c-3.615,0-7.23.027-10.844-.02-.823-.011-1.081.237-1.167,1.044-.916,8.641,2.286,15.356,9.409,20.24,2.6,1.786,2.646,1.786,5.276-.02,7.076-4.859,10.25-11.546,9.4-20.131-.1-.977-.477-1.145-1.356-1.133C2475.985,401.043,2472.412,401.014,2468.839,401.014Zm11.275-2.6c-.828-3.4-1.654-6.74-2.442-10.087-.13-.551-.421-.616-.9-.615q-7.916.019-15.831,0c-.486,0-.776.085-.9.62-.791,3.345-1.61,6.684-2.433,10.083Zm-16.284,49.5h9.925c-4.544-2.7-4.544-2.7-9-.469C2464.524,447.555,2464.3,447.671,2463.831,447.91Z" transform="translate(0)" fill="#050505"/>
      <path id="Trazado_582701" data-name="Trazado 582701" d="M2476.424,447.186c3.573,0,7.146.028,10.717-.02.88-.012,1.259.155,1.356,1.133.851,8.586-2.323,15.272-9.4,20.131-2.63,1.806-2.672,1.806-5.277.02-7.122-4.883-10.324-11.6-9.408-20.24.086-.808.343-1.055,1.167-1.044C2469.194,447.213,2472.809,447.186,2476.424,447.186Zm9.223,8.127c-.016-.885-.347-1.393-1.082-1.506a1.255,1.255,0,0,0-1.473,1.091,15.638,15.638,0,0,1-4.518,7.533c-.636.592-.908,1.29-.22,1.99s1.371.427,2.007-.163a17.848,17.848,0,0,0,4.5-6.552C2485.186,456.883,2485.416,456.021,2485.646,455.313Zm.435-5.119a1.222,1.222,0,0,0-1.154-1.258,1.243,1.243,0,0,0-.239,2.475C2485.484,451.482,2485.938,451,2486.081,450.193Z" transform="translate(-7.584 -46.171)" fill="#c7f1fc"/>
      <path id="Trazado_582702" data-name="Trazado 582702" d="M2490.414,405.891h-22.507c.824-3.4,1.643-6.737,2.433-10.083.127-.535.417-.622.9-.62q7.916.022,15.831,0c.476,0,.768.064.9.615C2488.76,399.151,2489.586,402.489,2490.414,405.891Z" transform="translate(-10.299 -7.48)" fill="#c7f1fc"/>
      <path id="Trazado_582703" data-name="Trazado 582703" d="M2492.254,624.635c.468-.239.693-.355.92-.469,4.46-2.232,4.46-2.232,9,.469Z" transform="translate(-28.423 -176.725)" fill="#c1eaf3"/>
      <path id="Trazado_582704" data-name="Trazado 582704" d="M2525.518,474.6c-.23.708-.46,1.57-.789,2.393a17.847,17.847,0,0,1-4.5,6.552c-.636.59-1.325.857-2.007.163s-.416-1.4.22-1.99a15.642,15.642,0,0,0,4.518-7.533,1.255,1.255,0,0,1,1.472-1.091C2525.171,473.2,2525.5,473.713,2525.518,474.6Z" transform="translate(-47.456 -65.456)" fill="#080604"/>
      <path id="Trazado_582705" data-name="Trazado 582705" d="M2542.308,455.332c-.142.81-.6,1.289-1.392,1.217a1.243,1.243,0,0,1,.238-2.475A1.222,1.222,0,0,1,2542.308,455.332Z" transform="translate(-63.812 -51.31)" fill="#0d0b08"/>
    </g>
  </g>
</svg>
