<svg xmlns="http://www.w3.org/2000/svg" width="81.396" height="81.396" viewBox="0 0 81.396 81.396">
  <g id="Grupo_845187" data-name="Grupo 845187" transform="translate(-240 -1286.742)">
    <rect id="Rectángulo_38178" data-name="Rectángulo 38178" width="81.396" height="81.396" transform="translate(240 1286.742)" fill="none"/>
    <g id="Grupo_845296" data-name="Grupo 845296" transform="translate(-1255.233 1094.089)">
      <path id="Trazado_582747" data-name="Trazado 582747" d="M1529.89,233.152a1.281,1.281,0,0,1,.305-1.86c.81-.749,1.551-1.574,2.355-2.33a3.767,3.767,0,0,1,5.457-.013,1.248,1.248,0,0,0,1.681.323,9.477,9.477,0,0,1,9.7.607c.7.447,1.089.466,1.625-.168.6-.706,1.3-1.324,1.955-1.979a6.42,6.42,0,0,1,4.758-1.967q2.584.023,5.169,0c.741-.006,1.55-.006,1.576.956s-.756,1.028-1.517,1.019c-1.37-.017-2.745.074-4.108-.023a5.873,5.873,0,0,0-5.262,2.2c-.535.643-1.425,1.116-1.675,1.833s.691,1.311,1.017,2.016a9.858,9.858,0,0,1,.007,8.814,1.1,1.1,0,0,0,.177,1.479c1.714,1.875,1.626,3.9-.2,5.737q-4.949,4.985-9.936,9.932c-.451.449-.8.835-.561,1.581a2.089,2.089,0,0,1-.747,2.137c-1.159,1.153-2.322,2.3-3.469,3.466a2.045,2.045,0,0,1-2.137.735c-.775-.271-1.12.122-1.558.561q-4.866,4.88-9.747,9.746c-2.131,2.124-4.219,2.151-6.309.011-1.271-1.3-2.951-2.348-3.1-4.446-.031-.452-.422-.346-.693-.444a8.959,8.959,0,0,1-5.636-5.657,1.015,1.015,0,0,0-.828-.767,8.984,8.984,0,0,1-5.461-5.192c-.645-1.449.107-2.818,1.226-3.928,3.324-3.3,6.623-6.623,9.943-9.925.453-.451.794-.837.566-1.579a2.086,2.086,0,0,1,.741-2.139q1.749-1.718,3.471-3.465a2.041,2.041,0,0,1,2.133-.748c.771.275,1.124-.1,1.563-.545,1.271-1.29,2.578-2.546,3.831-3.854.6-.622,1.188-.893,1.965-.368a1.519,1.519,0,0,1-.5,1.765c-1.367,1.314-2.7,2.665-4.028,4.018-.214.218-.6.368-.339.861a3.943,3.943,0,0,0,4.184,2.031,5.457,5.457,0,0,1,1.447.058c1.262.4,2.023-.227,2.834-1.071,2.139-2.226,4.353-4.38,6.535-6.565,1.7-1.7,1.654-2.5-.2-4.092-.384-.415-.752-.847-1.156-1.241-1.22-1.191-2.052-1.2-3.259-.028-.691.669-1.389,1.335-2.037,2.045A1.445,1.445,0,0,1,1529.89,233.152Zm-7.961,28.228a10.919,10.919,0,0,1-2.223-2.778c-.38-.781-.7-.513-1.135-.07-2.268,2.289-4.564,4.551-6.826,6.847-1.057,1.073-1.031,2,.019,3.106.363.381.77.72,1.156,1.079,1.846,2.1,2.48,2.128,4.444.167.218-.218.454-.42.65-.656a1.488,1.488,0,0,1,1.751-.552c.82,1.072-.025,1.66-.67,2.306-2.367,2.373-2.364,2.723.045,5.034a4.384,4.384,0,0,0,.414.315c1.544,1.806,2.312,1.841,3.985.17q4.313-4.307,8.62-8.62c1.775-1.775,1.775-1.776-.163-3.452-.323-.4-.57-.867-1.227-.837-2.788.126-5.617.125-7.277,2.99-.021.037-.064.06-.092.094a1.226,1.226,0,0,1-1.649.328c-.785-1.114.163-1.652.778-2.276,1.617-1.642,1.625-1.635-.164-2.917C1522.225,261.559,1522.074,261.473,1521.929,261.38Zm14.339-14.1,1.33,2.089a1.617,1.617,0,0,0,.286-.168q3.375-3.362,6.745-6.73c1.768-1.767,1.736-2.548-.165-4.19-.518-.539-1-1.119-1.562-1.607a1.644,1.644,0,0,0-2.4,0c-2.6,2.572-5.152,5.2-7.814,7.893A11.9,11.9,0,0,1,1536.268,247.278Zm2.654,9.821a10.1,10.1,0,0,1,.786.881c.729,1.031,1.3,1,2.207.046,2.986-3.123,6.087-6.136,9.141-9.194,1.732-1.734,1.686-2.53-.229-4.185-.2-.231-.388-.475-.6-.692-1.809-1.831-2.415-1.834-4.22-.031-2.059,2.057-4.078,4.156-6.191,6.156-1.017.963-1.727,1.885-1.369,3.4a4.4,4.4,0,0,1-.163,2.091A1.2,1.2,0,0,0,1538.922,257.1Zm-20.511-4.522c-.036-.66.658-1.32-.008-1.98-.626-.62-1.263-1.229-1.863-1.874-.357-.383-.6-.353-.964.011-3.475,3.5-6.978,6.973-10.441,10.486a1.768,1.768,0,0,0,0,2.613c.431.493.946.913,1.423,1.366,1.787,2.05,2.47,2.083,4.343.211,1.77-1.77,3.426-3.678,5.343-5.27A5.366,5.366,0,0,0,1518.411,252.577Zm10.092-6.936a8.027,8.027,0,1,0,7.987,8.023A8.021,8.021,0,0,0,1528.5,245.641Zm23.446-7.4a7.773,7.773,0,0,0-1.192-4.268c-.291-.487-.533-.754-1.059-.184-.927,1-1.925,1.941-2.887,2.912-.231.233-.621.438-.19.84a5.347,5.347,0,0,1,1.312,2.527c.342,1.11,1.847.451,2.465,1.3.025.034.073.05.1.082.459.5.686.3.893-.246A7.8,7.8,0,0,0,1551.949,238.246Zm-7.992-7.98a7.779,7.779,0,0,0-2.958.56c-.54.2-.525.356-.3.916.608,1.492,1.252,2.825,3.065,3.1a1.227,1.227,0,0,1,.615.478c.384.467.677.363,1.054-.031.941-.984,1.9-1.957,2.891-2.887.471-.44.384-.675-.112-.965A7.9,7.9,0,0,0,1543.957,230.265Zm-24.79,18.684a1.766,1.766,0,0,0,.911-.854,8.149,8.149,0,0,1,2.481-2.535c1-.581,1.039-.975.189-1.791-2.341-2.248-2.3-2.286-4.584-.006-1.9,1.9-1.889,1.89-.023,3.795A11.867,11.867,0,0,1,1519.167,248.949Zm17.354,16.69a6.767,6.767,0,0,0,.564-.454c.663-.648,1.314-1.307,1.97-1.962,1.554-1.554,1.554-1.554-.026-3.135-1.564-1.565-1.562-1.562-2.921.076-.225.271-.495.5-.719.776-.574.7-2.006.969-1.87,1.765s1.219,1.424,1.906,2.108A2.254,2.254,0,0,0,1536.521,265.639Z" transform="translate(0 -16.358)" fill="#070606"/>
      <path id="Trazado_582748" data-name="Trazado 582748" d="M1587.267,244.263a1.445,1.445,0,0,0,1.755-.46c.648-.71,1.346-1.376,2.037-2.045,1.207-1.168,2.039-1.163,3.259.028.4.395.772.827,1.156,1.242a4.406,4.406,0,0,1-1.263,1.948q-4.26,4.207-8.473,8.463c-.362.364-.848.657-.877,1.259a3.943,3.943,0,0,1-4.184-2.031c-.258-.493.125-.644.339-.861,1.328-1.353,2.661-2.7,4.028-4.018a1.519,1.519,0,0,0,.5-1.765A6.919,6.919,0,0,1,1587.267,244.263Z" transform="translate(-57.377 -27.469)" fill="#dc626c"/>
      <path id="Trazado_582749" data-name="Trazado 582749" d="M1728.624,205.607c.076-.861-.3-2.09.981-2.108,1.391-.02,1.044,1.263,1.049,2.126.005.826.321,2.047-.972,2.067C1728.251,207.713,1728.74,206.413,1728.624,205.607Z" transform="translate(-166.135 0)" fill="#151616"/>
      <path id="Trazado_582750" data-name="Trazado 582750" d="M1730.693,241.741c-.1.858.318,2.149-1.069,2.139-1.284-.008-.921-1.234-.98-2.063a.853.853,0,0,1,0-.132c.068-.821-.31-2.026,1.037-2C1731,239.718,1730.591,240.927,1730.693,241.741Z" transform="translate(-166.146 -26.588)" fill="#151616"/>
      <path id="Trazado_582751" data-name="Trazado 582751" d="M1744.56,227.743c-.306,0-.613,0-.919,0-.608-.012-1.026-.289-1.052-.923-.029-.709.41-1.018,1.075-1.032s1.312,0,1.969,0,1.164.233,1.191.929c.03.778-.5,1.043-1.213,1.036C1745.26,227.742,1744.91,227.745,1744.56,227.743Z" transform="translate(-176.394 -16.37)" fill="#070606"/>
      <path id="Trazado_582752" data-name="Trazado 582752" d="M1512.269,326.015c-.477-.453-.992-.872-1.423-1.366a1.768,1.768,0,0,1,0-2.613c3.462-3.514,6.966-6.986,10.441-10.486.361-.364.607-.394.964-.011.6.645,1.237,1.254,1.863,1.874.666.66-.028,1.32.008,1.98-.536.071-.808.51-1.144.845q-4.4,4.384-8.786,8.783A2.517,2.517,0,0,1,1512.269,326.015Z" transform="translate(-5.713 -79.174)" fill="#dc626c"/>
      <path id="Trazado_582753" data-name="Trazado 582753" d="M1560.631,380.506a4.4,4.4,0,0,1-.414-.315c-2.409-2.311-2.412-2.661-.045-5.034.645-.647,1.49-1.234.67-2.306l1.985-1.672a1.226,1.226,0,0,0,1.649-.328c.028-.033.071-.057.092-.094,1.66-2.865,4.488-2.864,7.277-2.99.657-.03.9.434,1.226.837q-5.054,5.115-10.1,10.236A6.728,6.728,0,0,1,1560.631,380.506Z" transform="translate(-41.076 -120.686)" fill="#dd636d"/>
      <path id="Trazado_582754" data-name="Trazado 582754" d="M1578.032,300.684a8.027,8.027,0,1,1-8.123,8.029A8,8,0,0,1,1578.032,300.684Zm2.75,12.787c.88-.3,1.3-1.146,1.993-1.671,1.01.038,1.342-.617,1.562-1.456a6.566,6.566,0,1,0-4.687,4.714C1580.494,314.831,1581,314.426,1580.781,313.471Z" transform="translate(-49.529 -71.401)" fill="#7aaeef"/>
      <path id="Trazado_582755" data-name="Trazado 582755" d="M1637.828,303.652a1.2,1.2,0,0,1-.64-1.524,4.4,4.4,0,0,0,.163-2.091c-.358-1.52.352-2.441,1.369-3.4,2.113-2,4.132-4.1,6.191-6.156,1.805-1.8,2.411-1.8,4.22.031.215.217.4.461.6.692a2.288,2.288,0,0,1-.815,1.738q-5.1,5.1-10.2,10.2A1.253,1.253,0,0,1,1637.828,303.652Z" transform="translate(-98.906 -62.912)" fill="#dd636d"/>
      <path id="Trazado_582756" data-name="Trazado 582756" d="M1619.881,276.047a11.894,11.894,0,0,0-3.579-2.713c2.662-2.7,5.212-5.322,7.814-7.893a1.644,1.644,0,0,1,2.4,0c.562.488,1.044,1.068,1.562,1.607a3.25,3.25,0,0,1-.859,1.756C1624.789,271.234,1622.33,273.635,1619.881,276.047Z" transform="translate(-83.613 -45.127)" fill="#da616b"/>
      <path id="Trazado_582757" data-name="Trazado 582757" d="M1536.376,359.123c-.387-.358-.793-.7-1.156-1.079-1.05-1.1-1.075-2.033-.019-3.106,2.261-2.3,4.558-4.557,6.826-6.847.439-.443.755-.712,1.135.07a10.919,10.919,0,0,0,2.223,2.778,2.521,2.521,0,0,1-.345.681q-3.419,3.452-6.866,6.876A2.173,2.173,0,0,1,1536.376,359.123Z" transform="translate(-23.456 -105.917)" fill="#da616b"/>
      <path id="Trazado_582758" data-name="Trazado 582758" d="M1566.8,382.827a6.728,6.728,0,0,0,2.34-1.666q5.03-5.138,10.1-10.236c1.938,1.677,1.938,1.677.163,3.452q-4.309,4.31-8.619,8.62C1569.111,384.668,1568.343,384.633,1566.8,382.827Z" transform="translate(-47.244 -123.007)" fill="#d94854"/>
      <path id="Trazado_582759" data-name="Trazado 582759" d="M1639.8,309.387a1.253,1.253,0,0,0,.887-.513q5.1-5.1,10.2-10.2a2.288,2.288,0,0,0,.815-1.738c1.915,1.655,1.96,2.451.229,4.185-3.054,3.058-6.155,6.071-9.141,9.194-.908.95-1.478.985-2.207-.046A10.081,10.081,0,0,0,1639.8,309.387Z" transform="translate(-100.875 -68.646)" fill="#d94854"/>
      <path id="Trazado_582760" data-name="Trazado 582760" d="M1517.8,337.448a2.517,2.517,0,0,0,1.925-.994q4.386-4.4,8.786-8.783c.336-.335.607-.774,1.144-.845a5.366,5.366,0,0,1-2.169,5.563c-1.918,1.592-3.573,3.5-5.343,5.27C1520.273,339.531,1519.59,339.5,1517.8,337.448Z" transform="translate(-11.247 -90.608)" fill="#d54753"/>
      <path id="Trazado_582761" data-name="Trazado 582761" d="M1596.686,260.624c.029-.6.515-.895.877-1.259q4.224-4.244,8.473-8.463a4.406,4.406,0,0,0,1.263-1.948c1.857,1.6,1.9,2.393.2,4.091-2.182,2.185-4.4,4.339-6.535,6.565-.811.844-1.572,1.467-2.834,1.071A5.457,5.457,0,0,0,1596.686,260.624Z" transform="translate(-69.202 -33.396)" fill="#d64753"/>
      <path id="Trazado_582762" data-name="Trazado 582762" d="M1541.792,368.191a2.173,2.173,0,0,0,1.8-.627q3.442-3.429,6.866-6.876a2.521,2.521,0,0,0,.345-.681c.146.093.3.179.437.28,1.788,1.281,1.781,1.275.164,2.917-.615.624-1.562,1.162-.778,2.276l-1.985,1.672a1.488,1.488,0,0,0-1.751.552c-.2.236-.432.438-.65.656C1544.272,370.32,1543.638,370.3,1541.792,368.191Z" transform="translate(-28.872 -114.985)" fill="#d74753"/>
      <path id="Trazado_582763" data-name="Trazado 582763" d="M1629.792,281.937c2.448-2.411,4.907-4.812,7.337-7.242a3.25,3.25,0,0,0,.859-1.756c1.9,1.642,1.932,2.422.165,4.19q-3.369,3.368-6.745,6.73a1.617,1.617,0,0,1-.286.168Z" transform="translate(-93.524 -51.017)" fill="#d74753"/>
      <path id="Trazado_582764" data-name="Trazado 582764" d="M1673.606,259.59a7.816,7.816,0,0,1-.556,2.967c-.207.544-.434.743-.893.246-.03-.032-.078-.048-.1-.082-.618-.852-2.123-.193-2.465-1.3a5.347,5.347,0,0,0-1.312-2.527c-.431-.4-.041-.607.19-.84.963-.971,1.961-1.908,2.887-2.912.526-.57.768-.3,1.059.184A7.778,7.778,0,0,1,1673.606,259.59Z" transform="translate(-121.657 -37.704)" fill="#eef0f1"/>
      <path id="Trazado_582765" data-name="Trazado 582765" d="M1649.348,242.723a7.9,7.9,0,0,1,4.26,1.171c.5.289.583.525.113.965-.995.929-1.95,1.9-2.891,2.887-.376.393-.67.5-1.054.031a1.227,1.227,0,0,0-.615-.478c-1.813-.274-2.457-1.607-3.065-3.1-.229-.561-.244-.711.3-.916A7.778,7.778,0,0,1,1649.348,242.723Z" transform="translate(-105.392 -28.816)" fill="#eff1f2"/>
      <path id="Trazado_582766" data-name="Trazado 582766" d="M1558.619,294.1a11.869,11.869,0,0,0-1.025-1.392c-1.866-1.905-1.878-1.894.023-3.795,2.28-2.28,2.243-2.241,4.583.006.85.817.815,1.21-.189,1.791a8.148,8.148,0,0,0-2.481,2.535A1.766,1.766,0,0,1,1558.619,294.1Z" transform="translate(-39.452 -61.505)" fill="#716973"/>
      <path id="Trazado_582767" data-name="Trazado 582767" d="M1622.408,357.466a2.254,2.254,0,0,1-1.1-.827c-.687-.683-1.772-1.319-1.906-2.108s1.3-1.069,1.87-1.765c.224-.271.494-.505.719-.776,1.359-1.638,1.357-1.64,2.921-.076,1.58,1.58,1.58,1.58.026,3.135-.655.656-1.307,1.315-1.97,1.963A6.779,6.779,0,0,1,1622.408,357.466Z" transform="translate(-85.887 -108.185)" fill="#716973"/>
      <path id="Trazado_582768" data-name="Trazado 582768" d="M1584.95,317.516c.219.955-.287,1.36-1.132,1.587a6.562,6.562,0,1,1,4.688-4.714c-.221.839-.553,1.494-1.563,1.457a1.411,1.411,0,0,1-.45-1.755,4.18,4.18,0,0,0-.433-3.682,4.569,4.569,0,1,0-2.9,6.787C1583.839,317.052,1584.449,316.856,1584.95,317.516Z" transform="translate(-53.697 -75.446)" fill="#07090b"/>
      <path id="Trazado_582769" data-name="Trazado 582769" d="M1590.467,323.028c-.5-.66-1.111-.464-1.789-.32a4.556,4.556,0,0,1-5.362-3,4.569,4.569,0,0,1,8.26-3.783,4.18,4.18,0,0,1,.433,3.682,1.411,1.411,0,0,0,.45,1.755C1591.768,321.882,1591.346,322.728,1590.467,323.028Zm-.244-6.391a.923.923,0,0,0-1.4-.822,7.074,7.074,0,0,0-2.037,2.038.965.965,0,0,0,.865,1.408C1588.289,319.261,1590.239,317.269,1590.223,316.637Z" transform="translate(-59.214 -80.958)" fill="#d8e6f6"/>
      <path id="Trazado_582770" data-name="Trazado 582770" d="M1600.107,322.12c.016.632-1.934,2.624-2.568,2.623a.965.965,0,0,1-.864-1.408,7.075,7.075,0,0,1,2.037-2.038A.924.924,0,0,1,1600.107,322.12Z" transform="translate(-69.098 -86.441)" fill="#070606"/>
    </g>
  </g>
</svg>
