<svg xmlns="http://www.w3.org/2000/svg" width="81.396" height="81.396" viewBox="0 0 81.396 81.396">
  <g id="Grupo_845188" data-name="Grupo 845188" transform="translate(-240 -1286.742)">
    <rect id="Rectángulo_38178" data-name="Rectángulo 38178" width="81.396" height="81.396" transform="translate(240 1286.742)" fill="none"/>
    <g id="Grupo_845297" data-name="Grupo 845297" transform="translate(-1702.899 1042.629)">
      <path id="Trazado_582771" data-name="Trazado 582771" d="M2038.908,267.025c.376.114.36.423.361.724-1.254.815-.58,2.118-.79,3.192s.335,1.64,1.385,1.765a5.506,5.506,0,0,1,2.678,9.955,1.42,1.42,0,0,0-.282,2.318,5.5,5.5,0,0,1-5.1,8.895,1.492,1.492,0,0,0-1.931,1.491,5.516,5.516,0,0,1-9.929,2.622,1.673,1.673,0,0,0-2.158-.611,11.365,11.365,0,0,1-2.393.606,6.049,6.049,0,0,1-6.593-5.5c-.123-.96-.367-1.7-1.461-1.817a5.514,5.514,0,0,1-2.726-10,1.375,1.375,0,0,0,.294-2.224,5.507,5.507,0,0,1,5.1-8.958,1.442,1.442,0,0,0,1.871-1.413,5.532,5.532,0,0,1,9.982-2.671,1.414,1.414,0,0,0,2.318.279,5.246,5.246,0,0,1,4.05-1.186,1.882,1.882,0,0,0,1.747-.7,2.359,2.359,0,0,1,1.965,1.148C2036.919,266.463,2037.326,266.988,2038.908,267.025Zm-12.8,23.344c1.447,0,2.9.026,4.342-.007a2.112,2.112,0,0,0,2.307-2.215c.007-.835.231-1.1,1.07-1.186a3.459,3.459,0,0,0,3.058-4.825,1.71,1.71,0,0,1-.087-1.077c1.667-5.412-1.982-11.926-9-12.91-7.668-1.075-14.042,5.587-12.155,12.759a2.231,2.231,0,0,1-.08,1.318,3.454,3.454,0,0,0,2.935,4.721c.717.1,1.054.25,1.071,1.093.033,1.574.865,2.3,2.446,2.326C2023.38,290.389,2024.745,290.371,2026.11,290.369Zm-.294,6.521c.99.047,1.713-.1,1.806-1.077s-.577-1.311-1.385-1.383a2.843,2.843,0,0,1-2.187-1.2,1.181,1.181,0,0,0-1.812-.381c-.764.573-.6,1.274-.114,1.953A4.744,4.744,0,0,0,2025.816,296.89Zm4.145.009a1.16,1.16,0,0,0,1.3-1.2,1.226,1.226,0,0,0-2.45.009A1.13,1.13,0,0,0,2029.961,296.9Z" transform="translate(-37.668 -7.55)" fill="#a3a3a3"/>
      <path id="Trazado_582772" data-name="Trazado 582772" d="M2027.8,256.248a1.882,1.882,0,0,1-1.747.7,5.246,5.246,0,0,0-4.05,1.186,1.415,1.415,0,0,1-2.318-.279,5.531,5.531,0,0,0-9.981,2.671,1.442,1.442,0,0,1-1.871,1.413,5.507,5.507,0,0,0-5.1,8.958,1.375,1.375,0,0,1-.294,2.224,5.514,5.514,0,0,0,2.726,10c1.093.119,1.337.857,1.461,1.817a6.049,6.049,0,0,0,6.593,5.5,11.366,11.366,0,0,0,2.393-.606,1.672,1.672,0,0,1,2.158.611,5.516,5.516,0,0,0,9.929-2.622,1.492,1.492,0,0,1,1.931-1.491,5.5,5.5,0,0,0,5.1-8.895,1.42,1.42,0,0,1,.281-2.318,5.506,5.506,0,0,0-2.678-9.955c-1.051-.125-1.594-.7-1.385-1.765s-.464-2.377.79-3.192c1.221-.1,1.79.526,1.734,1.69-.034.718.255.944.914,1.173a7.946,7.946,0,0,1,3.428,12.833,1.093,1.093,0,0,0-.187,1.47,7.939,7.939,0,0,1-6.529,11.48,1.321,1.321,0,0,0-1.354,1.053,7.965,7.965,0,0,1-12.98,3.149,1.61,1.61,0,0,0-1.736-.44c-4.936,1.26-9.215-1.224-10.636-6.154a1.486,1.486,0,0,0-1.154-1.2,7.956,7.956,0,0,1-3.7-12.824,1.247,1.247,0,0,0,.191-1.67,7.92,7.92,0,0,1,6.238-11.3,1.817,1.817,0,0,0,1.807-1.347,7.93,7.93,0,0,1,12.517-3.193,1.431,1.431,0,0,0,1.909.212,7.555,7.555,0,0,1,3.979-.7C2027.363,254.5,2027.929,255.046,2027.8,256.248Z" transform="translate(-30.137)" fill="#060606"/>
      <path id="Trazado_582773" data-name="Trazado 582773" d="M1975.569,396.6a4.887,4.887,0,0,1-3.255,4.666,1.452,1.452,0,0,0-1.027,1.052,4.408,4.408,0,0,1-7.732,1.221,1.611,1.611,0,0,0-1.287-.741,5.25,5.25,0,0,1-4.6-3.92,5.17,5.17,0,0,1,2.115-5.655,1.735,1.735,0,0,0,.9-1.445,5.386,5.386,0,0,1,10.491-1.078,1.72,1.72,0,0,0,1.244,1.288A4.856,4.856,0,0,1,1975.569,396.6Zm-9.495-7.167a2.869,2.869,0,0,0-2.9,3.371,1.64,1.64,0,0,1-1.289,2.119,2.778,2.778,0,0,0,1.211,5.388c1.163-.141,1.867.111,2.251,1.315a1.9,1.9,0,0,0,3.677-.7c-.072-1.363.513-1.814,1.813-1.867a2.465,2.465,0,0,0-.087-4.916c-1.334-.031-1.786-.582-1.8-1.9A2.827,2.827,0,0,0,1966.074,389.435Z" transform="translate(0 -100.656)" fill="#050606"/>
      <path id="Trazado_582774" data-name="Trazado 582774" d="M2025.654,449.707a5.452,5.452,0,0,1,5.406,6.573,2.227,2.227,0,0,0,.242,1.6,4.419,4.419,0,1,1-8.2,3.083,2.853,2.853,0,0,0-1.053-1.7,5.32,5.32,0,0,1-1.478-6.078A5.462,5.462,0,0,1,2025.654,449.707Zm-.217,9.916a1.944,1.944,0,0,0,1.389,2.186,1.785,1.785,0,0,0,2.169-.765,1.851,1.851,0,0,0-.337-2.572,1.608,1.608,0,0,1-.274-2.021,2.953,2.953,0,0,0-1.3-3.935,3.031,3.031,0,0,0-4,1.156,2.928,2.928,0,0,0,1.074,4.082C2024.9,458.187,2025.68,458.518,2025.437,459.622Z" transform="translate(-47.116 -147.831)" fill="#060606"/>
      <path id="Trazado_582775" data-name="Trazado 582775" d="M1991.874,274.054a1.183,1.183,0,0,1-1.214-1.275,1.137,1.137,0,0,1,1.279-1.192,1.12,1.12,0,0,1,1.148,1.2A1.183,1.183,0,0,1,1991.874,274.054Z" transform="translate(-24.927 -13.94)" fill="#0e0e0e"/>
      <path id="Trazado_582776" data-name="Trazado 582776" d="M1976.058,349.835a1.147,1.147,0,0,1-1.3,1.132,1.125,1.125,0,0,1-1.145-1.2,1.147,1.147,0,0,1,1.24-1.242A1.17,1.17,0,0,1,1976.058,349.835Z" transform="translate(-12.116 -71.771)" fill="#0d0d0d"/>
      <path id="Trazado_582777" data-name="Trazado 582777" d="M2059.935,431.945a1.187,1.187,0,0,1-1.15-1.33,1.118,1.118,0,0,1,1.2-1.14,1.141,1.141,0,0,1,1.221,1.255A1.188,1.188,0,0,1,2059.935,431.945Z" transform="translate(-76.133 -132.624)" fill="#0e0e0e"/>
      <path id="Trazado_582778" data-name="Trazado 582778" d="M2089,464.955c-.748-.115-1.216-.515-1.174-1.307a1.216,1.216,0,0,1,2.431.064A1.2,1.2,0,0,1,2089,464.955Z" transform="translate(-97.962 -157.44)" fill="#0d0d0d"/>
      <path id="Trazado_582779" data-name="Trazado 582779" d="M1994.09,478.636a1.166,1.166,0,0,1-1.2,1.289,1.142,1.142,0,0,1-1.235-1.242,1.122,1.122,0,0,1,1.142-1.205A1.156,1.156,0,0,1,1994.09,478.636Z" transform="translate(-25.672 -168.705)" fill="#0e0e0e"/>
      <path id="Trazado_582780" data-name="Trazado 582780" d="M2125.316,431.694a1.209,1.209,0,0,1-1.236,1.244,1.116,1.116,0,0,1-1.219-1.12,1.13,1.13,0,0,1,1.135-1.325C2124.771,430.441,2125.194,430.92,2125.316,431.694Z" transform="translate(-124.298 -133.386)" fill="#0f0f0f"/>
      <path id="Trazado_582781" data-name="Trazado 582781" d="M2140.337,477.686c-.127.785-.55,1.278-1.32,1.226a1.137,1.137,0,0,1-1.142-1.324,1.119,1.119,0,0,1,1.214-1.127C2139.879,476.461,2140.239,476.985,2140.337,477.686Z" transform="translate(-135.584 -167.941)" fill="#0f0f0f"/>
      <path id="Trazado_582782" data-name="Trazado 582782" d="M2128.374,271.4c-1.582-.037-1.989-.562-1.613-2.08.671-.418,1.368-.694,1.981.043C2129.4,270.153,2128.957,270.8,2128.374,271.4Z" transform="translate(-127.134 -11.925)" fill="#0c0c0c"/>
      <path id="Trazado_582783" data-name="Trazado 582783" d="M2049.419,305.352c-1.365,0-2.73.019-4.094,0-1.581-.026-2.413-.752-2.446-2.326-.017-.843-.354-1-1.071-1.093a3.454,3.454,0,0,1-2.935-4.721,2.23,2.23,0,0,0,.08-1.318c-1.887-7.172,4.486-13.835,12.155-12.759,7.02.985,10.668,7.5,9,12.91a1.71,1.71,0,0,0,.087,1.077,3.459,3.459,0,0,1-3.058,4.825c-.839.09-1.063.352-1.07,1.186a2.112,2.112,0,0,1-2.307,2.215C2052.314,305.377,2050.866,305.351,2049.419,305.352Zm8.571-11.848a8.032,8.032,0,0,0-6.736-7.825c-6.325-1.257-11.926,4.477-9.615,10.424a1.767,1.767,0,0,1-.208,1.637c-.579.993-.191,1.662.951,1.764.328.029.66,0,.991.008,1.652.02,1.961.326,1.981,1.955,0,.248-.01.5,0,.743.015.269-.08.605.361.649.4.039.617-.084.642-.524a1.145,1.145,0,0,1,1.163-1.2,1.174,1.174,0,0,1,1.281,1.221c.047.566.4.513.774.512.337,0,.671.04.708-.449.058-.754.429-1.279,1.225-1.285s1.167.512,1.248,1.265c.029.264.1.468.437.468.448,0,.4-.308.408-.593,0-.371.017-.744,0-1.115-.058-1.168.548-1.652,1.656-1.646a13.342,13.342,0,0,0,1.608-.028c.929-.108,1.409-.835.908-1.557a2.2,2.2,0,0,1-.148-2.318A7.179,7.179,0,0,0,2057.99,293.5Z" transform="translate(-60.977 -22.532)" fill="#060606"/>
      <path id="Trazado_582784" data-name="Trazado 582784" d="M2068.51,386.13a4.744,4.744,0,0,1-3.692-2.092c-.482-.679-.65-1.38.114-1.953a1.181,1.181,0,0,1,1.812.381,2.843,2.843,0,0,0,2.187,1.2c.808.072,1.477.419,1.385,1.383S2069.5,386.177,2068.51,386.13Z" transform="translate(-80.362 -96.789)" fill="#050505"/>
      <path id="Trazado_582785" data-name="Trazado 582785" d="M2094.126,392.035a1.13,1.13,0,0,1-1.154-1.2,1.226,1.226,0,0,1,2.45-.009A1.16,1.16,0,0,1,2094.126,392.035Z" transform="translate(-101.833 -102.685)" fill="#060606"/>
      <path id="Trazado_582786" data-name="Trazado 582786" d="M1973.63,396.962a2.827,2.827,0,0,1,2.871,2.818c.016,1.314.468,1.865,1.8,1.9a2.465,2.465,0,0,1,.087,4.916c-1.3.053-1.885.5-1.813,1.867a1.9,1.9,0,0,1-3.677.7c-.384-1.2-1.089-1.456-2.251-1.315a2.778,2.778,0,0,1-1.211-5.388,1.64,1.64,0,0,0,1.289-2.119A2.869,2.869,0,0,1,1973.63,396.962Z" transform="translate(-7.555 -108.183)" fill="#a3a3a3"/>
      <path id="Trazado_582787" data-name="Trazado 582787" d="M2032.964,467.11c.243-1.1-.536-1.436-1.27-1.868a2.928,2.928,0,0,1-1.074-4.082,3.031,3.031,0,0,1,4-1.156,2.953,2.953,0,0,1,1.3,3.935,1.608,1.608,0,0,0,.274,2.021,1.851,1.851,0,0,1,.337,2.572,1.785,1.785,0,0,1-2.169.765A1.944,1.944,0,0,1,2032.964,467.11Z" transform="translate(-54.643 -155.318)" fill="#a2a2a2"/>
      <path id="Trazado_582788" data-name="Trazado 582788" d="M2065.524,301.04a7.179,7.179,0,0,1-.362,2.1,2.2,2.2,0,0,0,.148,2.318c.5.722.021,1.449-.908,1.557a13.342,13.342,0,0,1-1.608.028c-1.108-.006-1.714.477-1.656,1.646.018.371.006.743,0,1.115,0,.285.04.593-.408.593-.335,0-.408-.2-.437-.468-.081-.753-.452-1.271-1.248-1.265s-1.167.531-1.225,1.285c-.038.489-.371.448-.708.449-.377,0-.727.054-.774-.512a1.174,1.174,0,0,0-1.281-1.221,1.145,1.145,0,0,0-1.164,1.2c-.025.44-.247.563-.642.524-.441-.043-.345-.38-.361-.649-.014-.247,0-.5,0-.743-.02-1.629-.329-1.935-1.981-1.955-.33,0-.663.021-.99-.008-1.142-.1-1.53-.771-.951-1.764a1.767,1.767,0,0,0,.208-1.637c-2.311-5.947,3.29-11.681,9.615-10.424A8.032,8.032,0,0,1,2065.524,301.04Zm-5.014,1.9a1.2,1.2,0,0,0-1.213,1.3,1.139,1.139,0,0,0,1.29,1.19,1.12,1.12,0,0,0,1.137-1.212A1.19,1.19,0,0,0,2060.511,302.943Zm-5.6,1.211c-.145-.716-.523-1.24-1.315-1.188a1.137,1.137,0,0,0-1.148,1.324,1.12,1.12,0,0,0,1.208,1.139C2054.445,305.427,2054.8,304.906,2054.906,304.154Z" transform="translate(-68.511 -30.067)" fill="#fbf7f2"/>
      <path id="Trazado_582789" data-name="Trazado 582789" d="M2092.762,332.921a1.19,1.19,0,0,1,1.214,1.275,1.119,1.119,0,0,1-1.136,1.212,1.139,1.139,0,0,1-1.29-1.19A1.2,1.2,0,0,1,2092.762,332.921Z" transform="translate(-100.763 -60.045)" fill="#10100f"/>
      <path id="Trazado_582790" data-name="Trazado 582790" d="M2066.4,334.191c-.105.752-.461,1.273-1.255,1.276a1.12,1.12,0,0,1-1.208-1.14,1.137,1.137,0,0,1,1.148-1.324C2065.874,332.951,2066.253,333.475,2066.4,334.191Z" transform="translate(-80.003 -60.104)" fill="#0f0e0e"/>
    </g>
  </g>
</svg>
