<svg xmlns="http://www.w3.org/2000/svg" xmlns:xlink="http://www.w3.org/1999/xlink" width="85" height="85" viewBox="0 0 85 85">
  <defs>
    <clipPath id="clip-path">
      <rect id="Rectángulo_280682" data-name="Rectángulo 280682" width="85" height="85" transform="translate(492 1857)" fill="#fff" stroke="#707070" stroke-width="1"/>
    </clipPath>
  </defs>
  <g id="Enmascarar_grupo_700230" data-name="Enmascarar grupo 700230" transform="translate(-492 -1857)" clip-path="url(#clip-path)">
    <g id="Grupo_845285" data-name="Grupo 845285" transform="translate(-643.076 1687.956)">
      <path id="Trazado_582718" data-name="Trazado 582718" d="M1195.511,233.793a1.162,1.162,0,0,1,1,1.249c.071,2.361.139,4.736-1.477,6.712-.571.7-.455,1.046.266,1.58a2.98,2.98,0,0,1,1.015,3.559,3.093,3.093,0,0,1-3.108,2.243q-15.629.02-31.257,0a3.1,3.1,0,0,1-3.12-2.226,2.982,2.982,0,0,1,1.109-3.653c.777-.534.615-.91.173-1.483a7.968,7.968,0,0,1-1.5-5.1q.026-22.9,0-45.8a8.087,8.087,0,0,1,1.552-5.228c.426-.545.509-.87-.174-1.378a3.208,3.208,0,0,1-1.149-3.779,3.356,3.356,0,0,1,3.352-2.134c3.228-.017,6.458-.045,9.685.018.987.019,1.344-.173,1.316-1.253-.061-2.3.876-3.165,3.184-3.175.881,0,1.761-.01,2.641,0,1.994.026,3,.969,2.935,2.985-.034,1.121.236,1.484,1.419,1.45,3.177-.091,6.358-.041,9.537-.026a3.366,3.366,0,0,1,3.379,2.1,3.3,3.3,0,0,1-1.214,3.889c-.5.4-.594.652-.195,1.146,1.437,1.781,1.665,3.873,1.659,6.081q-.052,18.57-.012,37.14c0,.938.084,1.88-1.121,2.18-.891-.166-1.134-.756-1.123-1.59.025-1.939.008-3.879.008-5.818,0-3.246,0-3.246-3.224-3.056-1.271-.29-1.818.1-2.135,1.5a11.7,11.7,0,0,1-10.764,8.886,12.011,12.011,0,0,1-11.567-7.455c-.412-.987-.055-2.493-1.217-2.9a10.675,10.675,0,0,0-3.347-.086,1.015,1.015,0,0,1-.146,0c-.864-.13-1.058.291-1.053,1.09q.044,7.7,0,15.4c0,.789.178,1.123,1.05,1.119q14.589-.068,29.177-.074a2.607,2.607,0,0,0,.288.042c2.789.1,2.812.1,2.923-2.69C1194.313,234.391,1194.6,233.858,1195.511,233.793Zm-15.853-55.725c.073-.605.28-1.232-.167-1.776a13.617,13.617,0,0,0-3.839,0c-.445.544-.24,1.171-.166,1.776A6.333,6.333,0,0,0,1179.658,178.068Zm12.389,64.052a4.642,4.642,0,0,0,1.028-1.507c-.227-.784-.865-.371-1.284-.374-5.377-.036-10.755-.03-16.132-.033-4.155,0-8.311-.011-12.466.02-.365,0-1.018-.388-1.086.448l.989,1.447c.3.593.85.373,1.3.374q13.174.013,26.349-.011C1191.193,242.483,1191.745,242.705,1192.047,242.12Zm-1.256,4.71c.813.025,1.627.085,2.439.062a.983.983,0,0,0,1.037-.989,1.007,1.007,0,0,0-1.035-1.138c-.813-.04-1.631.014-2.447.026l-28.447-.05a2.314,2.314,0,0,0-.293,0c-1.1.135-1.344.668-.82,1.788.45.544,1.077.363,1.638.365q6.948.02,13.9.005C1181.436,246.89,1186.113,246.855,1190.791,246.83Zm0-66.163a1.34,1.34,0,0,0-.285-.063q-14.042-.008-28.084-.009c-.432,0-.892-.052-1.2.369-.55,1.163-.276,1.733.942,1.779,1.4.052,2.807.032,4.21.006a1.774,1.774,0,0,1,1.673.634,1.368,1.368,0,0,1-.657,1.565,12.565,12.565,0,0,0-1.584.055c-.908.141-1.912-.411-2.729.372l-1.26,1.733h31.264c-.977-2.262-1.144-2.343-4.073-2.038-.681-.026-1.362-.073-2.044-.076q-7.62-.041-15.239-.069a1.463,1.463,0,0,1-.7-1.281c.358-.934,1.145-.892,1.946-.893q8.907-.011,17.814-.046c.816.013,1.634.066,2.448.026a1.01,1.01,0,0,0,1.037-1.138.981.981,0,0,0-1.036-.989C1192.419,180.583,1191.605,180.643,1190.792,180.667Zm.285,28.779c-1.383-.406-1.879.065-1.782,1.532a42.083,42.083,0,0,1,0,5.542c-.1,1.468.4,1.935,1.783,1.531.677.028,1.359.014,2.03.095.944.114,1.266-.215,1.213-1.191-.085-1.55-.022-3.109-.022-4.664C1194.3,209.148,1194.3,209.148,1191.077,209.446Zm2.633-19.949-2.625-.014c-9.722-.02-19.443-.028-29.165-.08-1-.005-1.082.467-1.078,1.257.022,4.35.01,8.7.01,13.05,0,3.423,0,3.374,3.4,3.445,1.16.024,1.65-.232,1.929-1.477a11.7,11.7,0,0,1,22.751-.109c.318,1.395.861,1.794,2.134,1.5a12.566,12.566,0,0,1,1.6.065c1.383.226,1.675-.385,1.656-1.68-.073-4.862-.023-9.725-.042-14.588,0-.449.23-.981-.268-1.345Zm-6.73,30.274q.282-6.023,0-12.045a9.431,9.431,0,0,0-18.8-.288c-.234,4.111-.2,8.223-.022,12.335a9.43,9.43,0,0,0,18.818,0Zm-26.135-6.169v.733c0,3.964,0,3.944,3.99,3.822.728-.022,1.022-.163,1-.966q-.08-3.441,0-6.885c.019-.8-.276-.944-1-.966-3.99-.122-3.989-.142-3.989,3.823Z" transform="translate(0 0)" fill="#0d0c0c"/>
      <path id="Trazado_582719" data-name="Trazado 582719" d="M1269.053,331.959c3.224-.19,3.224-.19,3.224,3.056,0,1.94.018,3.879-.008,5.818-.011.833.233,1.424,1.123,1.59q.052,1.452.1,2.9c-.915.065-1.2.6-1.233,1.465-.111,2.793-.135,2.792-2.923,2.69a2.621,2.621,0,0,1-.289-.042Q1269.053,340.7,1269.053,331.959Z" transform="translate(-77.986 -111.533)" fill="#976a54"/>
      <path id="Trazado_582720" data-name="Trazado 582720" d="M1191.135,267.478a9.431,9.431,0,0,1,18.8.288,1,1,0,0,0-.307.922v10.2c0,.341-.012.687.307.922a9.43,9.43,0,0,1-18.818,0A51.539,51.539,0,0,0,1191.135,267.478Zm9.319,11.45a5.139,5.139,0,1,0-5.066-5.208A5.146,5.146,0,0,0,1200.454,278.928Z" transform="translate(-22.951 -60.041)" fill="#fbdd7b"/>
      <path id="Trazado_582721" data-name="Trazado 582721" d="M1196.426,244.22c-1.272.291-1.815-.108-2.134-1.5a11.7,11.7,0,0,0-22.751.109c-.279,1.245-.769,1.5-1.929,1.477-3.4-.071-3.4-.021-3.4-3.445,0-4.35.013-8.7-.01-13.05,0-.789.076-1.262,1.078-1.257,9.722.052,19.443.06,29.165.08Q1196.435,235.426,1196.426,244.22Z" transform="translate(-5.36 -37.149)" fill="#a87962"/>
      <path id="Trazado_582722" data-name="Trazado 582722" d="M1196.415,331.756q0,8.74,0,17.48-14.589.029-29.177.074c-.872,0-1.054-.33-1.05-1.119q.039-7.7,0-15.4c0-.8.189-1.219,1.053-1.09a1.012,1.012,0,0,0,.147,0,10.677,10.677,0,0,1,3.347.086c1.162.41.8,1.916,1.217,2.9a12.012,12.012,0,0,0,11.567,7.455,11.7,11.7,0,0,0,10.764-8.886C1194.6,331.861,1195.144,331.466,1196.415,331.756Z" transform="translate(-5.348 -111.33)" fill="#a87962"/>
      <path id="Trazado_582723" data-name="Trazado 582723" d="M1196.717,207.758c2.929-.305,3.1-.224,4.073,2.038h-31.264l1.26-1.733c1.436-.157,2.956.528,4.313-.428a1.368,1.368,0,0,0,.657-1.565,2.746,2.746,0,0,0,2.974.262,1.464,1.464,0,0,0,.7,1.281c.266.708.884.477,1.375.479q7.288.022,14.575,0C1195.844,208.092,1196.376,208.273,1196.717,207.758Z" transform="translate(-7.707 -22.686)" fill="#dde5ef"/>
      <path id="Trazado_582724" data-name="Trazado 582724" d="M1269.05,244.413q.009-8.794.019-17.588l2.625.014c.085.183.181.233.3.027.5.364.266.9.268,1.345.02,4.863-.031,9.727.042,14.588.02,1.295-.273,1.906-1.656,1.68A12.574,12.574,0,0,0,1269.05,244.413Z" transform="translate(-77.984 -37.342)" fill="#976a54"/>
      <path id="Trazado_582725" data-name="Trazado 582725" d="M1176.648,200.52a2.746,2.746,0,0,1-2.974-.262,1.773,1.773,0,0,0-1.673-.634c-1.4.026-2.809.046-4.21-.006-1.218-.046-1.492-.615-.942-1.779l29.567.043a1.446,1.446,0,0,1-.008,1.7q-8.907.026-17.814.046C1177.793,199.628,1177.006,199.586,1176.648,200.52Z" transform="translate(-5.626 -16.875)" fill="#d9e6f7"/>
      <path id="Trazado_582726" data-name="Trazado 582726" d="M1166.869,416.644c-.523-1.12-.28-1.653.821-1.788a2.315,2.315,0,0,1,.293,0l28.447.05a1.452,1.452,0,0,1,0,1.7Z" transform="translate(-5.644 -170.111)" fill="#d9e6f7"/>
      <path id="Trazado_582727" data-name="Trazado 582727" d="M1166.215,298.573v-.439c0-3.965,0-3.945,3.989-3.823.728.022,1.023.162,1,.966q-.08,3.441,0,6.885c.019.8-.275.943-1,.966-3.99.122-3.99.143-3.99-3.822Z" transform="translate(-5.369 -84.971)" fill="#fcf0be"/>
      <path id="Trazado_582728" data-name="Trazado 582728" d="M1171.5,402.354l-.989-1.447,27.8-.047-.6,1.467Z" transform="translate(-8.4 -160.233)" fill="#e9f1fc"/>
      <path id="Trazado_582729" data-name="Trazado 582729" d="M1269.087,294.458c3.22-.3,3.22-.3,3.22,2.844,0,1.555-.063,3.114.022,4.664.053.977-.269,1.305-1.213,1.191-.671-.081-1.353-.066-2.03-.095Q1269.087,298.761,1269.087,294.458Z" transform="translate(-78.01 -85.012)" fill="#f7e284"/>
      <path id="Trazado_582730" data-name="Trazado 582730" d="M1264.776,294.421q0,4.3,0,8.6c-1.38.4-1.88-.063-1.782-1.531a42.061,42.061,0,0,0,0-5.542C1262.9,294.485,1263.393,294.015,1264.776,294.421Z" transform="translate(-73.699 -84.975)" fill="#fcf0be"/>
      <path id="Trazado_582731" data-name="Trazado 582731" d="M1198.307,399.672l-27.8.047c.068-.837.721-.446,1.086-.448,4.155-.031,8.31-.022,12.466-.02,5.378,0,10.755,0,16.132.033.419,0,1.057-.41,1.284.374Z" transform="translate(-8.4 -159.045)" fill="#fcfefe"/>
      <path id="Trazado_582732" data-name="Trazado 582732" d="M1197.069,196.99l-29.567-.043c.307-.422.767-.369,1.2-.369q14.042,0,28.084.009a1.338,1.338,0,0,1,.285.063Q1197.069,196.82,1197.069,196.99Z" transform="translate(-6.278 -15.982)" fill="#eefcfe"/>
      <path id="Trazado_582733" data-name="Trazado 582733" d="M1167.5,420.855l29.565-.042c0,.113,0,.226,0,.339-4.678.025-9.355.06-14.033.073q-6.947.019-13.9,0C1168.581,421.218,1167.955,421.4,1167.5,420.855Z" transform="translate(-6.28 -174.322)" fill="#eefcfe"/>
      <path id="Trazado_582734" data-name="Trazado 582734" d="M1173.872,405.878l26.216-.028,2.736.026c-.3.586-.855.364-1.3.365q-13.175.024-26.349.011C1174.721,406.251,1174.168,406.471,1173.872,405.878Z" transform="translate(-10.776 -163.756)" fill="#fcfefe"/>
      <path id="Trazado_582735" data-name="Trazado 582735" d="M1268.093,197.006q0-.171,0-.341c.813-.025,1.628-.085,2.44-.062a.981.981,0,0,1,1.036.989,1.01,1.01,0,0,1-1.037,1.138c-.814.04-1.632-.013-2.448-.026A1.446,1.446,0,0,0,1268.093,197.006Z" transform="translate(-77.303 -15.998)" fill="#bbd4f3"/>
      <path id="Trazado_582736" data-name="Trazado 582736" d="M1268.1,416.969c0-.113,0-.226,0-.339a1.451,1.451,0,0,0,0-1.7c.816-.013,1.634-.067,2.447-.026a1.007,1.007,0,0,1,1.035,1.138.983.983,0,0,1-1.037.989C1269.727,417.054,1268.913,416.994,1268.1,416.969Z" transform="translate(-77.308 -170.139)" fill="#bbd4f3"/>
      <path id="Trazado_582737" data-name="Trazado 582737" d="M1220.205,184.272a6.333,6.333,0,0,1-4.172,0,2.181,2.181,0,0,1,4.172,0Z" transform="translate(-40.547 -6.204)" fill="#bbd4f3"/>
      <path id="Trazado_582738" data-name="Trazado 582738" d="M1220.525,211.464c-.341.515-.873.334-1.333.335q-7.287.018-14.575,0c-.491,0-1.11.229-1.375-.479q7.62.033,15.24.069C1219.163,211.391,1219.844,211.438,1220.525,211.464Z" transform="translate(-31.515 -26.393)" fill="#fcfefe"/>
      <path id="Trazado_582739" data-name="Trazado 582739" d="M1265.816,402.318l-2.736-.026.6-1.466,3.168-.014A4.64,4.64,0,0,1,1265.816,402.318Z" transform="translate(-73.768 -160.198)" fill="#d9e6f7"/>
      <path id="Trazado_582740" data-name="Trazado 582740" d="M1190.792,287.921a51.533,51.533,0,0,1-.022,12.335C1190.595,296.144,1190.558,292.032,1190.792,287.921Z" transform="translate(-22.608 -80.483)" fill="#f7e284"/>
      <path id="Trazado_582741" data-name="Trazado 582741" d="M1254.41,300.947c-.32-.235-.307-.581-.307-.922v-10.2a1,1,0,0,1,.307-.922Q1254.692,294.925,1254.41,300.947Z" transform="translate(-67.429 -81.176)" fill="#f7e284"/>
      <path id="Trazado_582742" data-name="Trazado 582742" d="M1219.936,183.39a2.181,2.181,0,0,0-4.172,0c-.074-.605-.279-1.232.166-1.776a13.616,13.616,0,0,1,3.839,0C1220.216,182.158,1220.008,182.785,1219.936,183.39Z" transform="translate(-40.278 -5.322)" fill="#d9e6f7"/>
      <path id="Trazado_582743" data-name="Trazado 582743" d="M1178.127,211.387c-1.357.955-2.877.27-4.313.428.817-.783,1.821-.231,2.729-.372A12.562,12.562,0,0,1,1178.127,211.387Z" transform="translate(-10.735 -26.438)" fill="#fcfefe"/>
      <path id="Trazado_582744" data-name="Trazado 582744" d="M1278.349,226.9c-.12.206-.216.156-.3-.027Z" transform="translate(-84.338 -37.375)" fill="#a87962"/>
      <path id="Trazado_582745" data-name="Trazado 582745" d="M1210.726,302.187a5.139,5.139,0,1,1,5.2-5.071A5.15,5.15,0,0,1,1210.726,302.187Zm.1-2.227A2.912,2.912,0,1,0,1207.87,297,2.919,2.919,0,0,0,1210.823,299.96Z" transform="translate(-33.223 -83.3)" fill="#090804"/>
      <path id="Trazado_582746" data-name="Trazado 582746" d="M1216.132,305.312a2.912,2.912,0,1,1,2.9-2.869A2.915,2.915,0,0,1,1216.132,305.312Z" transform="translate(-38.531 -88.652)" fill="#f7cc64"/>
    </g>
  </g>
</svg>
