<svg xmlns="http://www.w3.org/2000/svg" width="81.396" height="81.396" viewBox="0 0 81.396 81.396">
  <g id="Grupo_845190" data-name="Grupo 845190" transform="translate(-240 -1286.742)">
    <rect id="Rectángulo_38178" data-name="Rectángulo 38178" width="81.396" height="81.396" transform="translate(240 1286.742)" fill="none"/>
    <g id="Grupo_845299" data-name="Grupo 845299" transform="translate(-2281.41 1012.195)">
      <path id="Trazado_582796" data-name="Trazado 582796" d="M2537.044,309.33c-.216-.79.242-1.161.874-1.454a9.2,9.2,0,0,1,4.2-.766c.951.025,1.9,0,3.073,0a8.364,8.364,0,0,1-2.657-7.732,7.913,7.913,0,0,1,7.265-6.522c4.73-.138,9.467-.049,14.2-.067a1.072,1.072,0,0,1,1.217.857c-.117.969-.8,1.043-1.578,1.038-2.508-.016-5.015-.006-7.62-.006a2.287,2.287,0,0,0,2.608,1.554,7.633,7.633,0,0,1,1.394-.007c.608.018,1.117.228,1.143.92.029.766-.494,1-1.164,1.024a5.389,5.389,0,0,1-.761,0c-.782-.09-1.02.124-.828.979a7.854,7.854,0,0,1-1.785,7.1c-.193.228-.593.379-.44.853q8.428,0,16.859-.006a3.583,3.583,0,0,0,1.819-.457,6.081,6.081,0,0,0-.017-11.483,5.521,5.521,0,0,0-1.31-.393c-1.505-.069-3.014-.086-4.521-.074-.781.006-1.315-.2-1.386-1.069.153-.662.623-.836,1.236-.829,1.058.011,2.118.028,3.176,0,3.772-.108,6.609,1.443,8.129,4.915,1.507,3.44.635,6.525-2.1,9.409,1.362,0,2.547-.012,3.732,0a8.157,8.157,0,0,1,5.4,14.34c.429.134.763.241,1.1.341a8.091,8.091,0,0,1-2.123,15.877c-5.039.06-10.079.017-15.119.017-11.222,0-22.445.016-33.667-.008a8.1,8.1,0,0,1-2.612-15.841c.385-.121.775-.223,1.29-.37a8.613,8.613,0,0,1-2.793-5.218,8.3,8.3,0,0,1,.6-4.22,1.183,1.183,0,0,1,1.568-.866c.617.583.351,1.168.11,1.843a5.963,5.963,0,0,0,1.282,6.477,5.9,5.9,0,0,0,6.271,1.687,6.2,6.2,0,1,0-4.049-11.706C2538.33,309.756,2537.659,310.179,2537.044,309.33Zm46.7,11.754a6.094,6.094,0,0,0,0-11.678,2.563,2.563,0,0,0-1.342-.311q-8.351.005-16.7.027c-.158.03-.57-.188-.278.284a2.289,2.289,0,0,0,2.386,1.235c2.022-.093,4.052-.019,6.079-.03.7,0,1.37.12,1.362.944s-.681.941-1.376.936c-1.815-.013-3.631.019-5.446-.015-.751-.014-1.026.078-.835.981a7.935,7.935,0,0,1-1.842,7.2c-.172.2-.526.325-.364.773,1.117,0,2.255.016,3.392-.005.843-.016,1.391.284,1.469,1.189a1.488,1.488,0,0,1-1.588.775c-2.3-.025-4.6-.009-6.976-.009a2.593,2.593,0,0,0,2.74,1.569c3.132-.081,6.267-.027,9.4-.027,1.44,0,2.88.005,4.319,0,.676,0,1.224.229,1.225.969s-.564.968-1.228.973c-.424,0-.847,0-1.271,0l-12.445.061c-.574-.081-.574.161-.31.551a9.212,9.212,0,0,1-2.522,8.3c.363.02.519.036.675.036q11.867,0,23.734,0a4.135,4.135,0,0,0,2.076-.452,6.094,6.094,0,0,0,.022-11.534,5.145,5.145,0,0,0-2.452-.44c-3.788,0-7.576-.007-11.364.008-.707,0-1.356-.026-1.7-.773.084-1,.73-1.2,1.594-1.192,2.447.02,4.894.013,7.341,0A4.543,4.543,0,0,0,2583.742,321.084Zm-27.542,2.3a6.212,6.212,0,1,0,6.188,6.223A6.225,6.225,0,0,0,2556.2,323.381Zm-11.892-22.5a6.213,6.213,0,0,0,12.425.039,6.213,6.213,0,1,0-12.425-.039Zm15.323,8.167a6.195,6.195,0,1,0,6.272,6.144A6.172,6.172,0,0,0,2559.63,309.051Zm-16.236,20.6a6.194,6.194,0,1,0-6.251,6.156A6.172,6.172,0,0,0,2543.394,329.646Zm-.857-6.233a8.522,8.522,0,0,1,2.6,4.519c.087.481.3.8.832.722.714-.108,1.846.421,2.073-.37a11.588,11.588,0,0,1,2.715-4.871Zm8.161,12.33c-.816-.89-1.133-2.066-2.547-1.916-1.941.205-4.3-.831-5.378,1.916Zm-.173-23.231c-1.292-.295-1.511.208-1.185,1.413a5.455,5.455,0,0,1-.038,2.888c-.259.9.111,1.035.847.977a4.66,4.66,0,0,1,.885,0c.717.081.858-.217.69-.87a5.55,5.55,0,0,1-.031-3.124C2552.054,312.671,2551.687,312.245,2550.525,312.513Zm3.587-3.459h-7.143c.516.577.585,1.61,1.506,1.557C2550.433,310.5,2552.671,311.4,2554.112,309.054Zm-7.071,12.288h7.01c-.621-1.624-1.965-1.7-3.319-1.708C2549.284,319.621,2547.668,319.238,2547.041,321.342Zm-.468,10.644c.4,0,.69.022.98-.006.265-.026.692.119.717-.28a2.147,2.147,0,0,0-.294-1.047c-.059-.114-.378-.121-.58-.13-.458-.02-.921.017-1.377-.019-.672-.054-.953.318-.9.894C2545.221,332.595,2546.192,331.688,2546.573,331.986Z" transform="translate(0)" fill="#060505"/>
      <path id="Trazado_582797" data-name="Trazado 582797" d="M2646.567,296.09c.071.864.606,1.075,1.386,1.069,1.507-.012,3.015,0,4.52.074a5.511,5.511,0,0,1,1.31.393c-.015.488.389.725.633,1.059a7.206,7.206,0,0,1,.414,8.729c-.354.554-1,.941-1.03,1.695a3.584,3.584,0,0,1-1.819.457q-8.431.016-16.859.006c-.152-.473.248-.625.44-.853a7.854,7.854,0,0,0,1.785-7.1c-.192-.855.046-1.069.828-.979a5.377,5.377,0,0,0,.761,0c.67-.019,1.193-.257,1.164-1.024-.026-.692-.535-.9-1.143-.92a7.633,7.633,0,0,0-1.394.007,2.287,2.287,0,0,1-2.608-1.554c2.6,0,5.112-.01,7.62.006.78.005,1.461-.069,1.578-1.038A9.418,9.418,0,0,0,2646.567,296.09Zm2.208,5.581c-1.821,0-3.641,0-5.462,0-.721,0-1.467.051-1.44.99.024.837.721.917,1.4.916q5.462-.006,10.925,0c.675,0,1.358-.065,1.371-.933s-.636-.975-1.332-.972C2652.417,301.676,2650.6,301.671,2648.775,301.671Zm-1.3,4.069c-.885,0-1.77,0-2.654,0-.627,0-1.123.24-1.152.9s.432.986,1.064.991q2.78.021,5.561,0a.888.888,0,0,0,1.005-.9c.02-.688-.4-.976-1.043-.981C2649.327,305.735,2648.4,305.74,2647.474,305.74Z" transform="translate(-78.939 -2.467)" fill="#b57962"/>
      <path id="Trazado_582798" data-name="Trazado 582798" d="M2554.717,356.969c.615.849,1.286.426,2.009.142a6.2,6.2,0,1,1,4.049,11.706,5.9,5.9,0,0,1-6.271-1.687,5.964,5.964,0,0,1-1.282-6.477c.241-.675.507-1.26-.111-1.843Zm8.284,5.939a4.028,4.028,0,0,0-3.424-3.972c-.7-.105-1.346-.033-1.477.78-.118.736.405.99,1.071,1.124a2,2,0,0,1,1.874,2.266,2.054,2.054,0,0,1-4.089-.052c-.126-.676-.374-1.2-1.1-1.088-.816.121-.871.776-.782,1.474a3.984,3.984,0,0,0,7.93-.532Z" transform="translate(-17.674 -47.639)" fill="#d2aea2"/>
      <path id="Trazado_582799" data-name="Trazado 582799" d="M2683.352,422.776a4.134,4.134,0,0,1-2.076.452q-11.867.007-23.734,0c-.156,0-.312-.016-.674-.036a9.211,9.211,0,0,0,2.522-8.3.562.562,0,0,0,.31-.551l12.445-.061c.424,0,.847,0,1.271,0,.664,0,1.23-.226,1.228-.973s-.549-.972-1.225-.969c-1.44.006-2.879,0-4.319,0-3.134,0-6.269-.054-9.4.027a2.593,2.593,0,0,1-2.74-1.569c2.38,0,4.678-.015,6.976.009a1.488,1.488,0,0,0,1.588-.775h2.335c.346.747,1,.776,1.7.773,3.788-.016,7.575,0,11.363-.008a5.141,5.141,0,0,1,2.452.44,1.051,1.051,0,0,0,.487.964c2.2,1.934,2.382,6.692.652,8.836C2684.09,421.566,2683.379,421.966,2683.352,422.776Zm-15.9-1.516c2.325,0,4.65,0,6.975,0,.688,0,1.34-.082,1.322-.962s-.685-.94-1.361-.94q-6.849,0-13.7,0c-.69,0-1.374.112-1.4.923-.031.931.72.985,1.44.982C2662.974,421.255,2665.215,421.26,2667.455,421.26Zm10.027-3.63c1.729,0,3.459,0,5.189,0,.688,0,1.358-.135,1.38-.947.024-.906-.683-1.024-1.421-1.022q-5.126.01-10.251,0c-.7,0-1.362.134-1.385.937-.024.895.691,1.035,1.426,1.033Q2674.951,417.627,2677.482,417.63Zm-10.97-.022a15.8,15.8,0,0,0,1.644-.012.916.916,0,0,0,.913-1.012.892.892,0,0,0-.905-.889c-1.1-.039-2.195-.04-3.29,0a.867.867,0,0,0-.9.879.912.912,0,0,0,.9,1.023A15.079,15.079,0,0,0,2666.513,417.608Z" transform="translate(-95.277 -87.425)" fill="#b57962"/>
      <path id="Trazado_582800" data-name="Trazado 582800" d="M2678.851,370.424h-2.335c-.078-.905-.626-1.2-1.469-1.189-1.137.021-2.275.005-3.392.005-.162-.447.192-.576.364-.773a7.934,7.934,0,0,0,1.842-7.2c-.191-.9.084-.995.835-.981,1.815.034,3.631,0,5.446.015.7.005,1.369-.119,1.376-.936s-.667-.948-1.362-.944c-2.026.011-4.056-.063-6.079.03a2.289,2.289,0,0,1-2.386-1.235l.277-.284q8.351-.016,16.7-.027a2.566,2.566,0,0,1,1.342.311,1.273,1.273,0,0,0,.577.942c2.64,2.341,2.637,7.457,0,9.8a1.274,1.274,0,0,0-.577.941,4.546,4.546,0,0,1-2.228.338c-2.447.012-4.894.018-7.341,0C2679.581,369.225,2678.935,369.427,2678.851,370.424Zm5.718-8.1c-1.735,0-3.47,0-5.2,0-.661,0-1.239.19-1.274.928-.038.822.562,1.049,1.278,1.049q5.142,0,10.283,0c.7,0,1.34-.173,1.338-.992s-.639-.99-1.342-.987C2687.954,362.326,2686.261,362.321,2684.569,362.321Z" transform="translate(-106.271 -47.812)" fill="#a76852"/>
      <path id="Trazado_582801" data-name="Trazado 582801" d="M2617.4,413.059a6.212,6.212,0,1,1-6.238,6.186A6.2,6.2,0,0,1,2617.4,413.059Zm3.948,6.182a3.945,3.945,0,0,0-3.318-3.9c-.649-.088-1.367-.145-1.543.684s.4,1.048,1.115,1.186a2.066,2.066,0,1,1-2.258,2.322c-.148-.677-.309-1.318-1.163-1.156-.928.176-.838.941-.72,1.621a4.012,4.012,0,0,0,4.362,3.227A3.965,3.965,0,0,0,2621.345,419.241Z" transform="translate(-61.197 -89.678)" fill="#d2aea2"/>
      <path id="Trazado_582802" data-name="Trazado 582802" d="M2588.931,306.471a6.213,6.213,0,1,1,6.181,6.226A6.211,6.211,0,0,1,2588.931,306.471Zm6.242,3.987a3.977,3.977,0,0,0,3.944-3.84,4.02,4.02,0,0,0-3.562-4.089c-.483-.036-.95-.023-1.221.46a.91.91,0,0,0,.088,1.067c.3.377.764.311,1.161.426a2.058,2.058,0,0,1,.979,3.487,1.91,1.91,0,0,1-1.982.514,2.025,2.025,0,0,1-1.518-1.833c-.077-.7-.379-1.167-1.115-1.063-.77.109-.813.732-.761,1.366A3.937,3.937,0,0,0,2595.173,310.458Z" transform="translate(-44.624 -5.586)" fill="#d2aea2"/>
      <path id="Trazado_582803" data-name="Trazado 582803" d="M2631.13,356.733a6.195,6.195,0,1,1-6.152,6.243A6.219,6.219,0,0,1,2631.13,356.733Zm4.033,6.133a3.992,3.992,0,0,0-3.372-3.876c-.679-.111-1.347-.1-1.5.729s.436,1.039,1.142,1.174a2,2,0,0,1,1.793,2.22,2.048,2.048,0,0,1-1.913,1.868,2.014,2.014,0,0,1-2.189-1.844c-.125-.664-.329-1.21-1.066-1.132-.832.088-.894.755-.824,1.444a3.979,3.979,0,0,0,7.926-.584Z" transform="translate(-71.501 -47.681)" fill="#d2aea2"/>
      <path id="Trazado_582804" data-name="Trazado 582804" d="M2549.035,419.324a6.194,6.194,0,1,1-6.128-6.266A6.2,6.2,0,0,1,2549.035,419.324Zm-6.156,3.917a3.977,3.977,0,0,0,.521-7.918c-.68-.076-1.358-.038-1.475.789-.1.741.439.958,1.1,1.092a2.048,2.048,0,0,1,1.869,2.293,2.1,2.1,0,0,1-1.959,1.84,2.064,2.064,0,0,1-2.133-1.911c-.135-.664-.382-1.179-1.134-1.057-.832.136-.878.786-.772,1.472A4,4,0,0,0,2542.879,423.241Z" transform="translate(-5.641 -89.678)" fill="#d2aea2"/>
      <path id="Trazado_582805" data-name="Trazado 582805" d="M2581.969,413.188h8.222a11.594,11.594,0,0,0-2.715,4.871c-.227.792-1.359.263-2.073.37-.531.08-.745-.242-.832-.723A8.517,8.517,0,0,0,2581.969,413.188Z" transform="translate(-39.433 -89.775)" fill="#a1644e"/>
      <path id="Trazado_582806" data-name="Trazado 582806" d="M2743.938,369.806a1.275,1.275,0,0,1,.578-.941c2.636-2.338,2.639-7.454,0-9.8a1.273,1.273,0,0,1-.577-.942,6.094,6.094,0,0,1,0,11.678Z" transform="translate(-160.197 -48.722)" fill="#8f5944"/>
      <path id="Trazado_582807" data-name="Trazado 582807" d="M2708.981,313.608c.026-.754.676-1.141,1.03-1.695a7.205,7.205,0,0,0-.414-8.73c-.244-.334-.647-.571-.633-1.059a6.081,6.081,0,0,1,.017,11.483Z" transform="translate(-134.12 -6.966)" fill="#a56751"/>
      <path id="Trazado_582808" data-name="Trazado 582808" d="M2760.974,426.309c.027-.811.738-1.21,1.16-1.733,1.73-2.144,1.544-6.9-.652-8.836a1.05,1.05,0,0,1-.487-.964,6.093,6.093,0,0,1-.021,11.534Z" transform="translate(-172.899 -90.958)" fill="#a56751"/>
      <path id="Trazado_582809" data-name="Trazado 582809" d="M2590.824,455.957H2582.9c1.076-2.748,3.437-1.711,5.378-1.916C2589.691,453.891,2590.007,455.066,2590.824,455.957Z" transform="translate(-40.126 -120.213)" fill="#a1644e"/>
      <path id="Trazado_582810" data-name="Trazado 582810" d="M2609.5,370.1c1.162-.268,1.529.158,1.168,1.283a5.553,5.553,0,0,0,.031,3.124c.168.653.027.95-.689.87a4.665,4.665,0,0,0-.886,0c-.736.059-1.105-.078-.846-.977a5.45,5.45,0,0,0,.038-2.888C2607.991,370.306,2608.209,369.8,2609.5,370.1Z" transform="translate(-58.977 -57.585)" fill="#7d4c3b"/>
      <path id="Trazado_582811" data-name="Trazado 582811" d="M2606.534,356.744c-1.44,2.344-3.678,1.446-5.637,1.557-.921.052-.99-.98-1.506-1.557Z" transform="translate(-52.423 -47.69)" fill="#7d4c3b"/>
      <path id="Trazado_582812" data-name="Trazado 582812" d="M2599.674,399.937c.627-2.1,2.243-1.721,3.69-1.708,1.354.012,2.7.084,3.32,1.708Z" transform="translate(-52.634 -78.595)" fill="#7d4c3b"/>
      <path id="Trazado_582813" data-name="Trazado 582813" d="M2593.548,442.526c-.381-.3-1.352.609-1.457-.588-.051-.576.231-.948.9-.894.457.036.918,0,1.377.019.2.009.521.016.58.13a2.147,2.147,0,0,1,.294,1.047c-.025.4-.452.254-.717.28C2594.239,442.548,2593.944,442.526,2593.548,442.526Z" transform="translate(-46.975 -110.54)" fill="#8f5944"/>
      <path id="Trazado_582814" data-name="Trazado 582814" d="M2666.59,426.941a.561.561,0,0,1-.31.551C2666.016,427.1,2666.017,426.86,2666.59,426.941Z" transform="translate(-102.168 -100.017)" fill="#c3816a"/>
      <path id="Trazado_582815" data-name="Trazado 582815" d="M2671.9,356.942l-.278.284C2671.332,356.754,2671.744,356.972,2671.9,356.942Z" transform="translate(-106.204 -47.819)" fill="#b57962"/>
      <path id="Trazado_582816" data-name="Trazado 582816" d="M2669.048,318.019c1.821,0,3.641.005,5.462,0,.7,0,1.344.114,1.332.972s-.7.934-1.372.933q-5.462,0-10.924,0c-.679,0-1.377-.079-1.4-.916-.027-.939.719-.992,1.44-.99C2665.406,318.024,2667.227,318.019,2669.048,318.019Z" transform="translate(-99.212 -18.815)" fill="#020101"/>
      <path id="Trazado_582817" data-name="Trazado 582817" d="M2673,334.017c.927,0,1.854-.005,2.781,0,.644,0,1.063.293,1.043.981a.888.888,0,0,1-1.005.9q-2.78.024-5.56,0c-.633,0-1.094-.335-1.065-.991s.525-.9,1.152-.9C2671.233,334.021,2672.118,334.017,2673,334.017Z" transform="translate(-104.469 -30.743)" fill="#020101"/>
      <path id="Trazado_582818" data-name="Trazado 582818" d="M2569.609,369.425a3.984,3.984,0,0,1-7.93.532c-.089-.7-.034-1.353.781-1.474.73-.108.978.412,1.1,1.088a2.054,2.054,0,1,0,2.215-2.214c-.666-.135-1.189-.388-1.071-1.124.13-.813.779-.885,1.477-.78A4.028,4.028,0,0,1,2569.609,369.425Z" transform="translate(-24.281 -54.156)" fill="#090707"/>
      <path id="Trazado_582819" data-name="Trazado 582819" d="M2674.563,448.576c-2.24,0-4.481,0-6.722,0-.721,0-1.472-.051-1.44-.982.027-.811.711-.924,1.4-.923q6.849.01,13.7,0c.676,0,1.344.069,1.361.94s-.634.964-1.322.962C2679.213,448.572,2676.887,448.576,2674.563,448.576Z" transform="translate(-102.384 -114.742)" fill="#020101"/>
      <path id="Trazado_582820" data-name="Trazado 582820" d="M2718.886,434.111q-2.532,0-5.062,0c-.734,0-1.45-.139-1.426-1.033.023-.8.686-.94,1.385-.937q5.125.016,10.252,0c.738,0,1.445.116,1.421,1.022-.021.813-.691.949-1.38.947C2722.345,434.108,2720.615,434.111,2718.886,434.111Z" transform="translate(-136.68 -103.907)" fill="#0e0908"/>
      <path id="Trazado_582821" data-name="Trazado 582821" d="M2687.331,434.1a15.266,15.266,0,0,1-1.644-.012.912.912,0,0,1-.9-1.023.867.867,0,0,1,.9-.879c1.1-.041,2.195-.04,3.29,0a.892.892,0,0,1,.905.889.917.917,0,0,1-.913,1.012A16,16,0,0,1,2687.331,434.1Z" transform="translate(-116.094 -103.919)" fill="#0e0908"/>
      <path id="Trazado_582822" data-name="Trazado 582822" d="M2703.547,378.18c1.692,0,3.385,0,5.078,0,.7,0,1.341.167,1.342.987s-.634.993-1.338.992q-5.141-.006-10.282,0c-.717,0-1.316-.226-1.278-1.049.034-.738.613-.93,1.274-.928C2700.077,378.184,2701.812,378.18,2703.547,378.18Z" transform="translate(-125.249 -63.671)" fill="#0e0908"/>
      <path id="Trazado_582823" data-name="Trazado 582823" d="M2627.871,425.782a3.965,3.965,0,0,1-3.526,3.982,4.012,4.012,0,0,1-4.362-3.227c-.118-.681-.207-1.445.721-1.621.854-.162,1.014.479,1.163,1.156a2.064,2.064,0,1,0,2.258-2.322c-.719-.138-1.289-.366-1.115-1.186s.894-.772,1.543-.684A3.945,3.945,0,0,1,2627.871,425.782Z" transform="translate(-67.722 -96.22)" fill="#080606"/>
      <path id="Trazado_582824" data-name="Trazado 582824" d="M2601.74,317.03a3.938,3.938,0,0,1-3.987-3.5c-.052-.634-.009-1.257.761-1.366.736-.1,1.038.367,1.115,1.063a2.025,2.025,0,0,0,1.518,1.833,1.91,1.91,0,0,0,1.982-.514,2.058,2.058,0,0,0-.979-3.487c-.4-.114-.865-.049-1.161-.426a.911.911,0,0,1-.088-1.067c.271-.483.738-.5,1.221-.46a4.02,4.02,0,0,1,3.562,4.089A3.977,3.977,0,0,1,2601.74,317.03Z" transform="translate(-51.19 -12.158)" fill="#080606"/>
      <path id="Trazado_582825" data-name="Trazado 582825" d="M2641.723,369.335a3.979,3.979,0,0,1-7.926.584c-.07-.69-.008-1.356.824-1.444.737-.078.941.469,1.066,1.132a2.014,2.014,0,0,0,2.188,1.844,2.047,2.047,0,0,0,1.913-1.868,2,2,0,0,0-1.793-2.22c-.706-.135-1.294-.342-1.142-1.174s.819-.84,1.5-.729A3.992,3.992,0,0,1,2641.723,369.335Z" transform="translate(-78.06 -54.152)" fill="#090707"/>
      <path id="Trazado_582826" data-name="Trazado 582826" d="M2549.354,429.8a4,4,0,0,1-3.981-3.4c-.105-.687-.059-1.337.772-1.472.751-.123,1,.392,1.134,1.057a2.064,2.064,0,0,0,2.134,1.911,2.1,2.1,0,0,0,1.959-1.84,2.049,2.049,0,0,0-1.87-2.293c-.663-.134-1.205-.35-1.1-1.092.116-.827.794-.865,1.475-.789a3.977,3.977,0,0,1-.521,7.918Z" transform="translate(-12.117 -96.239)" fill="#090707"/>
    </g>
  </g>
</svg>
