<svg xmlns="http://www.w3.org/2000/svg" width="81.396" height="81.396" viewBox="0 0 81.396 81.396">
  <g id="Grupo_845291" data-name="Grupo 845291" transform="translate(-240 -1286.742)">
    <rect id="Rectángulo_38178" data-name="Rectángulo 38178" width="81.396" height="81.396" transform="translate(240 1286.742)" fill="none"/>
    <g id="Grupo_845303" data-name="Grupo 845303" transform="translate(-2577.418 670.725)">
      <path id="Trazado_582924" data-name="Trazado 582924" d="M2876.943,674.361c.38.68.034,1.113-.479,1.532a12.893,12.893,0,0,1-12.138,2.593c-.337-.091-.668-.2-1.136-.341,0,.831.014,1.59,0,2.349a3.27,3.27,0,0,1-3.4,3.422q-10.617.021-21.236,0a3.234,3.234,0,0,1-3.366-3.346q-.028-15.345.008-30.689a5.436,5.436,0,0,1,4.136-5.281c.632-.175.881-.429.807-1.074-.052-.454,0-.919-.01-1.379-.01-.679.28-1.129.993-1.076.749.055.653-.4.658-.868.006-.489.047-.922-.687-.857s-.967-.425-.965-1.087q.007-3.823,0-7.646c0-.814.388-1.107,1.188-1.1q7.857.029,15.715,0c.859,0,1.233.323,1.228,1.179-.015,2.513-.011,5.026,0,7.54,0,.721-.259,1.188-1.046,1.127s-.592.489-.612.913-.091.851.6.8c.848-.058,1.132.494,1.045,1.235a2.069,2.069,0,0,0,1.628,2.647,5,5,0,0,1,3.3,4.878c.061,1.3.011,2.612.011,4.008a19.483,19.483,0,0,1,3.784-.808,12.614,12.614,0,0,1,11.93,5.931c2.762,4.223,2.812,8.7.567,13.208-.326.656-.736,1.029-1.5.726-.384-.557-.152-1.046.119-1.571a11.389,11.389,0,0,0-14.882-15.644.207.207,0,0,0-.26.158l.018-.018-.418.248.007-.006a9.777,9.777,0,0,0-4.1,3.718c-3.737,5.682-1.593,13.7,4.333,16.278l.03.046.055-.006.334.166a11.08,11.08,0,0,0,12.171-1.555C2875.858,674.3,2876.294,673.915,2876.943,674.361Zm-32.233-33.352.213-.015c3.259.1,6.518.1,9.777,0,.168.026.24-.045.214-.215q0-.532,0-1.064c.031-.169.042-.323-.208-.292l-9.561-.041c-.314-.017-.631-.016-.942-.057-.644-.084-.808.18-.849.821C2843.276,641.385,2844.03,641.09,2844.71,641.008ZM2841.5,654.2l.239-.006c3.907.02,7.814.05,11.721.055,2.6,0,5.208-.031,7.812-.049.2.031.266-.064.237-.249a13.429,13.429,0,0,0,0-2.757c.025-.175-.059-.233-.221-.206-2.891-.017-5.781-.05-8.671-.048-3.772,0-7.545.032-11.317.05-.958-.261-1.393.054-1.232,1.084a6.29,6.29,0,0,1,.007.95C2840.077,654.479,2840.077,654.479,2841.5,654.2Zm-2.27,14.828-.484-.2-.263-.43q0-9.239-.007-18.479c.292-.651.864-.617,1.444-.616q10.189.008,20.378,0h1.151a3.68,3.68,0,0,0-3.146-3.207,3.329,3.329,0,0,0-1.351-.134q-4.633-.01-9.266-.01c-.386-.238-.678-.53-.509-1.032.186-.553.65-.555,1.126-.554,2.539.006,5.078-.031,7.615.022.813.017.679-.437.712-.927.036-.544-.048-.816-.714-.807-3.736.047-7.472.044-11.209.058-.668-.013-1.338,0-2-.048-.638-.044-1.011,0-1.008.85s.352.905,1,.863,1.338-.012,2.007-.013c.691.529.732,1.056,0,1.581a40.7,40.7,0,0,0-4.46.13,1.039,1.039,0,0,0-.847.216,3.822,3.822,0,0,0-2.6,4.036q-.012,9.713,0,19.427c0,3.539-.008,7.077.005,10.616,0,1.281.5,1.782,1.745,1.872a4.5,4.5,0,0,0,.522.059q10.213,0,20.424,0a5.721,5.721,0,0,0,.726-.091,1,1,0,0,0,.833-.387,2.6,2.6,0,0,0,.44-2.6c-.117-.55-.926-.228-1.409-.229q-10.025-.033-20.049-.012a1.872,1.872,0,0,1-1.484-.384c-.02-2.274-.032-4.547-.065-6.821a.972.972,0,0,1,.772-.981c.658.184.839.637.823,1.286-.034,1.379.064,2.764-.034,4.136-.077,1.08.357,1.306,1.279,1.084q9.873.015,19.748.024c.042,0,.084-.084.165-.172a12.876,12.876,0,0,1-6.209-10.178,13.011,13.011,0,0,1,4.667-11.069H2841.33c-1.043-.273-1.3.157-1.281,1.18.06,3.526.014,7.054.031,10.581C2840.083,668.335,2840,668.875,2839.234,669.029Zm4.2-34.475c0-.849-.034-1.7.011-2.546.036-.672-.25-.831-.871-.838-.661-.008-.853.239-.84.872q.05,2.439,0,4.881c-.012.613.137.883.82.888.708.005.936-.234.892-.922C2843.391,636.112,2843.43,635.332,2843.429,634.553Zm13.185.011c0-.849-.033-1.7.011-2.546.033-.642-.187-.869-.841-.863-.623.005-.884.167-.868.838q.059,2.438,0,4.879c-.016.69.223.919.915.93.713.01.816-.319.792-.9C2856.591,636.121,2856.615,635.342,2856.615,634.564Zm-6.592.01c0-.849-.031-1.7.01-2.547.031-.631-.167-.883-.833-.872-.611.01-.894.145-.877.828.041,1.626.038,3.255,0,4.881-.015.683.2.929.905.937s.83-.294.8-.893C2850,636.132,2850.023,635.352,2850.023,634.574Zm-3.353-.063c0-.884-.022-1.77.008-2.653.02-.6-.294-.7-.791-.693s-.812.069-.8.68c.024,1.733.029,3.468,0,5.2-.013.656.3.745.847.747s.772-.171.752-.734C2846.649,636.211,2846.672,635.361,2846.671,634.512Zm6.593.106c0-.919-.021-1.839.008-2.758.019-.6-.3-.695-.792-.693s-.809.072-.8.681q.036,2.6,0,5.2c-.007.545.18.756.736.746.528-.009.892-.065.86-.735C2853.235,636.246,2853.265,635.431,2853.263,634.617Z" fill="#0a0a0a"/>
      <path id="Trazado_582925" data-name="Trazado 582925" d="M2961.148,767.3c-.648-.445-1.085-.062-1.572.345a11.08,11.08,0,0,1-12.171,1.555l-.335-.166-.055.005-.031-.046c-.011-.373-.3-.505-.549-.714a11.867,11.867,0,0,1-4.317-8.851,11.4,11.4,0,0,1,3.723-9.193c.371-.342.9-.614.908-1.238l-.007.006c.2.018.362-.025.418-.248l-.017.018.259-.158a11.389,11.389,0,0,1,14.882,15.644c-.271.525-.5,1.015-.119,1.571A5.667,5.667,0,0,1,2961.148,767.3Zm-8.833,1.341a9.365,9.365,0,0,0,4.481-1.131.919.919,0,0,0,.432-1.47c-.906-1.554-1.8-3.117-2.694-4.676a.859.859,0,0,0-1.232-.448,2.374,2.374,0,0,1-2.143.018.9.9,0,0,0-1.312.469c-.872,1.532-1.75,3.062-2.647,4.581a.947.947,0,0,0,.441,1.543A9.717,9.717,0,0,0,2952.315,768.643Zm-6.165-8.94c.921,0,1.841-.006,2.762,0,.578.005.981-.216,1.018-.829a2.463,2.463,0,0,1,1.133-1.94.813.813,0,0,0,.216-1.206c-.94-1.621-1.867-3.25-2.809-4.871a.84.84,0,0,0-1.344-.295,9.663,9.663,0,0,0-4.656,8.121c-.027.726.32,1.031,1.025,1.021C2944.379,759.693,2945.265,759.7,2946.15,759.7Zm11.985,0c.921,0,1.841-.014,2.761,0,.782.015,1.089-.37,1.039-1.118a9.768,9.768,0,0,0-4.468-7.912c-.7-.465-1.2-.433-1.643.355-.858,1.545-1.755,3.07-2.651,4.594a.9.9,0,0,0,.238,1.374,2.229,2.229,0,0,1,1.039,1.761c.044.719.46.965,1.135.948C2956.436,759.687,2957.285,759.7,2958.135,759.7Zm-5.9,0a.734.734,0,0,0,.73-.82.7.7,0,0,0-.73-.73.719.719,0,0,0-.81.758C2951.417,759.4,2951.724,759.659,2952.237,759.7Z" transform="translate(-84.205 -92.942)" fill="#f8c84e"/>
      <path id="Trazado_582926" data-name="Trazado 582926" d="M2864.14,753.722h18.367a13.012,13.012,0,0,0-4.667,11.068,12.876,12.876,0,0,0,6.209,10.178c-.082.088-.123.172-.165.172q-9.874-.006-19.748-.025Q2864.138,764.419,2864.14,753.722Zm5.366,8.243c-1.234,0-2.468.008-3.7,0-.618-.005-1.209.1-1.19.851.017.681.584.785,1.158.784q3.755-.006,7.511,0c.582,0,1.125-.123,1.136-.806s-.512-.833-1.1-.828C2872.045,761.971,2870.776,761.965,2869.507,761.965Zm-.027-1.694c1.27,0,2.54-.008,3.81,0,.589.005,1.108-.11,1.108-.815,0-.653-.5-.77-1.043-.77q-3.864,0-7.727,0c-.562,0-1.03.2-1.01.815s.486.779,1.052.772C2866.939,760.259,2868.209,760.27,2869.48,760.27Zm-1.561-4.9c-.814,0-1.628,0-2.442,0a.8.8,0,1,0,0,1.6q2.389.028,4.779,0c.526-.006.9-.29.868-.854a.781.781,0,0,0-.868-.75C2869.477,755.362,2868.7,755.371,2867.919,755.372Z" transform="translate(-22.809 -97.808)" fill="#6dd4a1"/>
      <path id="Trazado_582927" data-name="Trazado 582927" d="M2855.639,691.443c3.737-.014,7.473-.011,11.209-.058.666-.008.75.264.714.807-.032.49.1.944-.712.927-2.537-.054-5.077-.017-7.616-.022-.475,0-.939,0-1.125.554-.169.5.123.795.509,1.032.144.492.556.342.879.343q4.426.014,8.851,0c.306,0,.641.084.887-.2a3.681,3.681,0,0,1,3.146,3.207h-1.151q-10.189,0-20.378,0c-.579,0-1.152-.035-1.444.616l-.354,0a4.009,4.009,0,0,1,.838-2.616c.222-.317.491-.582.436-1.007a1.039,1.039,0,0,1,.847-.216,11.8,11.8,0,0,0,4.309.129c.055,0,.1-.169.151-.26.736-.525.7-1.052,0-1.581Q2855.639,692.269,2855.639,691.443Z" transform="translate(-10.927 -48.725)" fill="#e4f0f9"/>
      <path id="Trazado_582928" data-name="Trazado 582928" d="M2849.435,860.433a1.872,1.872,0,0,0,1.484.384q10.025-.007,20.049.012c.483,0,1.292-.321,1.409.229a2.6,2.6,0,0,1-.44,2.6,1,1,0,0,1-.832.387c-.352-.36-.8-.2-1.208-.2q-10.232-.015-20.464-.007c-.7-1.065-.339-2.262-.418-3.4Z" transform="translate(-10.882 -181.83)" fill="#e9f5fd"/>
      <path id="Trazado_582929" data-name="Trazado 582929" d="M2883.946,733.589c-2.6.018-5.208.052-7.812.049-3.907,0-7.814-.035-11.722-.055l-.239-.231c-.406-.969-.09-1.986-.2-2.975,3.772-.018,7.544-.047,11.317-.05,2.89,0,5.781.031,8.671.048l.221.206a13.481,13.481,0,0,1,0,2.757Z" transform="translate(-22.669 -79.388)" fill="#bcd8ee"/>
      <path id="Trazado_582930" data-name="Trazado 582930" d="M2844.163,740.792c.079,1.142-.285,2.338.418,3.4,0,.081,0,.162,0,.243-1.248-.09-1.739-.591-1.744-1.872-.014-3.539-.006-7.077-.006-10.616q0-9.713,0-19.427a3.821,3.821,0,0,1,2.6-4.036c.056.425-.214.69-.436,1.007a4.007,4.007,0,0,0-.838,2.616q0,8.7.009,17.4c0,.374-.247.884.352,1.086l.262.43c-.727.087-.62.642-.62,1.124Q2844.157,736.468,2844.163,740.792Z" transform="translate(-6.031 -62.191)" fill="#d6e9fb"/>
      <path id="Trazado_582931" data-name="Trazado 582931" d="M2856.279,753.425q0,10.7,0,21.394c-.92.222-1.355,0-1.278-1.084.1-1.372,0-2.758.034-4.136.016-.65-.165-1.1-.823-1.286l-.055-.027v-.061c.027-.011.075-.022.075-.034a.912.912,0,0,0-.02-.155l-.026-1.5c.762-.153.85-.694.846-1.355-.017-3.527.029-7.055-.031-10.581C2854.98,753.582,2855.236,753.153,2856.279,753.425Z" transform="translate(-14.948 -97.512)" fill="#3cbc9e"/>
      <path id="Trazado_582932" data-name="Trazado 582932" d="M2941.893,754.4c-.011.624-.537.9-.908,1.238a11.4,11.4,0,0,0-3.723,9.194,11.865,11.865,0,0,0,4.316,8.851c.244.209.538.341.549.714-5.926-2.574-8.069-10.6-4.333-16.278A9.779,9.779,0,0,1,2941.893,754.4Z" transform="translate(-79.348 -98.344)" fill="#ecb035"/>
      <path id="Trazado_582933" data-name="Trazado 582933" d="M2880.457,675.981l9.561.041.208.292v1.064l-.214.215c-3.259.092-6.518.1-9.776,0l-.218-.216,0-1.051.2-.176Z" transform="translate(-35.31 -36.596)" fill="#bcd8ee"/>
      <path id="Trazado_582934" data-name="Trazado 582934" d="M2867.728,640.719c0,.778-.038,1.559.012,2.334.044.687-.184.927-.892.922-.682,0-.831-.275-.82-.888q.047-2.44,0-4.881c-.013-.633.179-.879.84-.872.621.007.907.166.871.839C2867.693,639.019,2867.728,639.87,2867.728,640.719Z" transform="translate(-24.299 -6.165)" fill="#434b50"/>
      <path id="Trazado_582935" data-name="Trazado 582935" d="M2929.751,640.679c0,.778-.024,1.557.008,2.333.025.586-.078.914-.791.9-.693-.01-.931-.239-.915-.93q.056-2.439,0-4.879c-.016-.67.245-.832.868-.838.653-.005.874.222.841.863C2929.718,638.98,2929.751,639.831,2929.751,640.679Z" transform="translate(-73.136 -6.115)" fill="#545c61"/>
      <path id="Trazado_582936" data-name="Trazado 582936" d="M2898.742,640.69c0,.778-.027,1.558.009,2.334.028.6-.1.9-.8.893s-.92-.255-.905-.937c.037-1.626.04-3.255,0-4.881-.017-.682.265-.818.876-.828.666-.011.864.242.833.872C2898.711,638.99,2898.742,639.841,2898.742,640.69Z" transform="translate(-48.72 -6.115)" fill="#545c61"/>
      <path id="Trazado_582937" data-name="Trazado 582937" d="M2883.38,640.666c0,.849-.022,1.7.009,2.547.02.562-.213.735-.752.734s-.86-.091-.847-.747c.034-1.733.028-3.467,0-5.2-.008-.611.318-.677.8-.68s.812.095.791.693C2883.357,638.9,2883.38,639.782,2883.38,640.666Z" transform="translate(-36.709 -6.154)" fill="#545c61"/>
      <path id="Trazado_582938" data-name="Trazado 582938" d="M2914.408,640.775c0,.813-.029,1.628.01,2.44.032.67-.333.725-.86.735-.556.01-.743-.2-.736-.746q.034-2.6,0-5.2c-.009-.609.314-.68.8-.681s.811.1.792.693C2914.386,638.935,2914.407,639.856,2914.408,640.775Z" transform="translate(-61.144 -6.157)" fill="#545c61"/>
      <path id="Trazado_582939" data-name="Trazado 582939" d="M2849.3,744.008c-.6-.2-.351-.712-.352-1.086q-.023-8.7-.009-17.4l.354,0Z" transform="translate(-10.808 -75.607)" fill="#f7f9fa"/>
      <path id="Trazado_582940" data-name="Trazado 582940" d="M2850.185,814.675q.013.748.025,1.495a.248.248,0,0,0-.055.19v.061l.055.027a.973.973,0,0,0-.772.981c.033,2.273.045,4.547.065,6.821l-.421,0q0-4.323,0-8.647c0-.482-.107-1.037.62-1.124Z" transform="translate(-10.95 -145.646)" fill="#f7f9fa"/>
      <path id="Trazado_582941" data-name="Trazado 582941" d="M2868.909,691.438q0,.825,0,1.651c-.669,0-1.341-.03-2.008.013s-1-.027-1-.863.37-.894,1.008-.85C2867.571,691.437,2868.24,691.425,2868.909,691.438Z" transform="translate(-24.196 -48.72)" fill="#d6e9fb"/>
      <path id="Trazado_582942" data-name="Trazado 582942" d="M2851.07,876.582c0-.081,0-.162,0-.243q10.232,0,20.463.007c.406,0,.856-.157,1.208.2a5.719,5.719,0,0,1-.727.091q-10.212.007-20.424,0A4.485,4.485,0,0,1,2851.07,876.582Z" transform="translate(-12.521 -194.335)" fill="#f7f9fa"/>
      <path id="Trazado_582943" data-name="Trazado 582943" d="M2904.686,707.041c-.246.285-.581.2-.887.2q-4.425.007-8.851,0c-.323,0-.735.149-.878-.343q4.632,0,9.265.01A3.33,3.33,0,0,1,2904.686,707.041Z" transform="translate(-46.379 -60.939)" fill="#f7f9fa"/>
      <path id="Trazado_582944" data-name="Trazado 582944" d="M2859.329,730.239c.113.988-.2,2.006.2,2.975,0,.079,0,.158,0,.237-1.428.278-1.428.278-1.428-1.178a6.321,6.321,0,0,0-.008-.95C2857.936,730.292,2858.372,729.978,2859.329,730.239Z" transform="translate(-18.029 -79.249)" fill="#b7c0c6"/>
      <path id="Trazado_582945" data-name="Trazado 582945" d="M2875,676.056q0,.525,0,1.051c0,.077,0,.154,0,.231-.68.081-1.433.377-1.354-.858.041-.641.2-.906.849-.821.312.041.628.039.943.057l-.246.165Z" transform="translate(-30.299 -36.33)" fill="#86a5ba"/>
      <path id="Trazado_582946" data-name="Trazado 582946" d="M2863.52,706.859c-.05.09-.1.257-.151.26a11.806,11.806,0,0,1-4.309-.129A40.731,40.731,0,0,1,2863.52,706.859Z" transform="translate(-18.812 -60.909)" fill="#f7f9fa"/>
      <path id="Trazado_582947" data-name="Trazado 582947" d="M2964.322,753.263c-.057.223-.219.266-.418.248Z" transform="translate(-101.366 -97.447)" fill="#ecb035"/>
      <path id="Trazado_582948" data-name="Trazado 582948" d="M2927.276,676.45l-.208-.292C2927.317,676.127,2927.307,676.281,2927.276,676.45Z" transform="translate(-72.362 -36.732)" fill="#d6e9fb"/>
      <path id="Trazado_582949" data-name="Trazado 582949" d="M2966.048,752.586l-.259.158A.206.206,0,0,1,2966.048,752.586Z" transform="translate(-102.85 -96.91)" fill="#ecb035"/>
      <path id="Trazado_582950" data-name="Trazado 582950" d="M2957.972,744.743l.237-.249C2958.237,744.679,2958.171,744.775,2957.972,744.743Z" transform="translate(-96.695 -90.542)" fill="#d6e9fb"/>
      <path id="Trazado_582951" data-name="Trazado 582951" d="M2864.971,744.789c0-.079,0-.158,0-.237l.239.232Z" transform="translate(-23.466 -90.588)" fill="#d6e9fb"/>
      <path id="Trazado_582952" data-name="Trazado 582952" d="M2958.245,730.738l-.221-.206C2958.186,730.506,2958.27,730.564,2958.245,730.738Z" transform="translate(-96.736 -79.544)" fill="#d6e9fb"/>
      <path id="Trazado_582953" data-name="Trazado 582953" d="M2927.032,682.765l.214-.215C2927.273,682.719,2927.2,682.79,2927.032,682.765Z" transform="translate(-72.333 -41.768)" fill="#d6e9fb"/>
      <path id="Trazado_582954" data-name="Trazado 582954" d="M2880.028,682.758c0-.077,0-.154,0-.231l.218.216Z" transform="translate(-35.318 -41.75)" fill="#d6e9fb"/>
      <path id="Trazado_582955" data-name="Trazado 582955" d="M2965.446,848.647l.334.166Z" transform="translate(-102.58 -172.552)" fill="#ecb035"/>
      <path id="Trazado_582956" data-name="Trazado 582956" d="M2970.3,817.759a9.719,9.719,0,0,1-4.674-1.114.947.947,0,0,1-.441-1.543c.9-1.518,1.774-3.048,2.646-4.581a.9.9,0,0,1,1.313-.469,2.374,2.374,0,0,0,2.143-.018.859.859,0,0,1,1.232.448c.9,1.558,1.788,3.122,2.694,4.676a.919.919,0,0,1-.432,1.47A9.365,9.365,0,0,1,2970.3,817.759Zm-.447-5.794a.813.813,0,0,0-1.259.439,16.263,16.263,0,0,1-1.26,2.18c-.573.827-.348,1.169.591,1.209a6.932,6.932,0,0,0,4.142.173c1.494-.319,1.526-.394.781-1.682a7.086,7.086,0,0,1-.606-1.108A1.7,1.7,0,0,0,2969.857,811.966Z" transform="translate(-102.194 -142.058)" fill="#050402"/>
      <path id="Trazado_582957" data-name="Trazado 582957" d="M2947.478,770.1c-.885,0-1.771-.01-2.656,0-.7.011-1.052-.294-1.025-1.021a9.663,9.663,0,0,1,4.656-8.121.84.84,0,0,1,1.344.295c.941,1.621,1.868,3.25,2.809,4.871a.814.814,0,0,1-.216,1.206,2.463,2.463,0,0,0-1.133,1.94c-.037.613-.44.834-1.018.829C2949.319,770.095,2948.4,770.1,2947.478,770.1Zm1.487-6.917c-.372-.805-.734-.089-.926.085a8.036,8.036,0,0,0-2.331,3.8c-.4,1.395-.314,1.517,1.123,1.426.14.012.281.015.42.039,1.552.268,2.764-.088,3.358-1.725.1-.267.278-.447.1-.751A23.987,23.987,0,0,0,2948.965,763.183Z" transform="translate(-85.533 -103.34)" fill="#050402"/>
      <path id="Trazado_582958" data-name="Trazado 582958" d="M2998.319,770.19c-.85,0-1.7-.016-2.549.005-.675.017-1.091-.229-1.135-.948a2.229,2.229,0,0,0-1.039-1.761.9.9,0,0,1-.238-1.374c.9-1.524,1.792-3.048,2.651-4.594.438-.788.945-.82,1.643-.355a9.771,9.771,0,0,1,4.468,7.912c.05.748-.257,1.133-1.04,1.118C3000.161,770.176,2999.24,770.189,2998.319,770.19Zm-.943-1.613c.735.016,1.474,0,2.206.057.783.062.9-.338.757-.962a7.584,7.584,0,0,0-2.334-4.133c-.534-.815-.975-.8-1.375.122a5.241,5.241,0,0,1-.69,1.188,2.171,2.171,0,0,0-.125,2.964C2996.288,768.507,2996.645,768.739,2997.376,768.577Z" transform="translate(-124.389 -103.428)" fill="#050402"/>
      <path id="Trazado_582959" data-name="Trazado 582959" d="M2986.747,798.986c-.513-.041-.82-.3-.809-.792a.718.718,0,0,1,.81-.758.7.7,0,0,1,.729.73A.735.735,0,0,1,2986.747,798.986Z" transform="translate(-118.715 -132.228)" fill="#0a0a0a"/>
      <path id="Trazado_582960" data-name="Trazado 582960" d="M2871.274,792.479c1.269,0,2.539.007,3.808,0,.592,0,1.117.145,1.1.828s-.554.807-1.136.806q-3.755-.007-7.511,0c-.574,0-1.141-.1-1.158-.784-.02-.755.572-.856,1.19-.851C2868.806,792.486,2870.04,792.478,2871.274,792.479Z" transform="translate(-24.578 -128.322)" fill="#08100c"/>
      <path id="Trazado_582961" data-name="Trazado 582961" d="M2871.256,778.661c-1.27,0-2.541-.011-3.81,0-.566.007-1.033-.165-1.052-.772s.449-.815,1.011-.815q3.863,0,7.727,0c.538,0,1.043.117,1.043.771,0,.705-.519.82-1.108.815C2873.8,778.653,2872.526,778.661,2871.256,778.661Z" transform="translate(-24.587 -116.2)" fill="#050402"/>
      <path id="Trazado_582962" data-name="Trazado 582962" d="M2869.651,761.467c.779,0,1.557-.009,2.336,0a.781.781,0,0,1,.868.75c.033.565-.342.848-.868.854q-2.389.029-4.778,0a.8.8,0,1,1,0-1.6C2868.023,761.463,2868.837,761.467,2869.651,761.467Z" transform="translate(-24.542 -103.904)" fill="#08100c"/>
      <path id="Trazado_582963" data-name="Trazado 582963" d="M2854.148,822.631a.248.248,0,0,1,.055-.19.855.855,0,0,1,.02.155C2854.224,822.608,2854.175,822.619,2854.148,822.631Z" transform="translate(-14.944 -151.917)" fill="#b7c0c6"/>
      <path id="Trazado_582964" data-name="Trazado 582964" d="M2880.013,676.931l.2-.176Z" transform="translate(-35.31 -37.205)" fill="#d6e9fb"/>
      <path id="Trazado_582965" data-name="Trazado 582965" d="M2980.867,819.033a1.7,1.7,0,0,1,2.388,1.211,7.11,7.11,0,0,0,.607,1.108c.745,1.288.713,1.363-.781,1.682a6.931,6.931,0,0,1-4.142-.173C2979.44,821.513,2980.485,820.44,2980.867,819.033Z" transform="translate(-113.204 -149.125)" fill="#545c61"/>
      <path id="Trazado_582966" data-name="Trazado 582966" d="M2977.52,819.011c-.382,1.407-1.427,2.48-1.928,3.827-.939-.04-1.164-.381-.591-1.209a16.311,16.311,0,0,0,1.26-2.179A.813.813,0,0,1,2977.52,819.011Z" transform="translate(-109.857 -149.104)" fill="#434b50"/>
      <path id="Trazado_582967" data-name="Trazado 582967" d="M2960.188,772.206a23.985,23.985,0,0,1,1.74,2.877c.182.3,0,.484-.1.751-.594,1.637-1.806,1.992-3.358,1.725-.138-.024-.28-.026-.42-.038C2957.958,775.425,2959.105,773.828,2960.188,772.206Z" transform="translate(-96.755 -112.363)" fill="#545c61"/>
      <path id="Trazado_582968" data-name="Trazado 582968" d="M2955.284,770.818c-1.083,1.622-2.23,3.219-2.134,5.314-1.437.091-1.524-.031-1.123-1.426a8.037,8.037,0,0,1,2.332-3.8C2954.55,770.728,2954.911,770.012,2955.284,770.818Z" transform="translate(-91.851 -110.974)" fill="#434b50"/>
      <path id="Trazado_582969" data-name="Trazado 582969" d="M3009.278,773.464a7.585,7.585,0,0,1,2.334,4.133c.143.624.025,1.024-.758.962-.732-.058-1.47-.041-2.206-.057a1.8,1.8,0,0,0-.8-1.425c-.385-.275-.524-.531-.237-.941A21.068,21.068,0,0,1,3009.278,773.464Z" transform="translate(-135.663 -113.353)" fill="#545c61"/>
      <path id="Trazado_582970" data-name="Trazado 582970" d="M3005.954,771.268a21.074,21.074,0,0,0-1.664,2.672c-.287.41-.147.666.237.941a1.8,1.8,0,0,1,.8,1.425c-.73.162-1.088-.07-1.561-.764a2.172,2.172,0,0,1,.125-2.964,5.26,5.26,0,0,0,.69-1.188C3004.979,770.464,3005.42,770.453,3005.954,771.268Z" transform="translate(-132.339 -111.157)" fill="#434b50"/>
    </g>
  </g>
</svg>
