<svg xmlns="http://www.w3.org/2000/svg" width="81.396" height="81.396" viewBox="0 0 81.396 81.396">
  <g id="Grupo_845290" data-name="Grupo 845290" transform="translate(-240 -1286.742)">
    <rect id="Rectángulo_38178" data-name="Rectángulo 38178" width="81.396" height="81.396" transform="translate(240 1286.742)" fill="none"/>
    <g id="Grupo_845302" data-name="Grupo 845302" transform="translate(-1583.305 692.529)">
      <path id="Trazado_582869" data-name="Trazado 582869" d="M1864.026,608.6h17.157c1.592,0,2.448.527,2.8,1.715s-.058,2.028-1.5,2.864a.7.7,0,0,0-.354.753c.005.959,0,1.918,0,2.877,0,.271-.052.571.206.755a2.408,2.408,0,0,1,.823,2.391c-.081,1.288.383,2.7-.929,3.7-.146.111-.1.513-.1.78q-.007,10.48,0,20.961c0,.331-.1.688.2.967,1.535,1.451.6,3.287.76,4.952a.385.385,0,0,1-.137.267c-1.506,1.326-.571,3.082-.814,4.629-.058.372.321.375.549.5a2.365,2.365,0,0,1-1.1,4.517q-17.568.01-35.135,0a2.358,2.358,0,0,1-2.487-1.862,2.268,2.268,0,0,1,1.408-2.657.776.776,0,0,0,.5-.862c-.024-.787-.037-1.577,0-2.363a1.684,1.684,0,0,0-.611-1.626,1.255,1.255,0,0,1-.427-1.105c.006-.959,0-1.918,0-2.877a1.1,1.1,0,0,1,.305-.947c.783-.575.729-1.377.728-2.2q-.015-10.069,0-20.138a1.607,1.607,0,0,0-.544-1.449,1.462,1.462,0,0,1-.5-1.286c.016-.89,0-1.781.005-2.672a1.213,1.213,0,0,1,.242-.97c1.483-1.348.523-3.1.77-4.644.048-.3-.293-.321-.494-.43a2.333,2.333,0,0,1-1.393-2.677,2.388,2.388,0,0,1,2.593-1.857Q1855.294,608.591,1864.026,608.6Zm-15.251,44.371h-1.007c-.183-.024-.332,0-.332.235v2.256c-.3,1.12.365,1.134,1.155,1a1.4,1.4,0,0,0,.2.029q15.54.007,31.079.026c.928,0,.769-.5.688-1.053a.1.1,0,0,0-.028-.151v-.295a5.2,5.2,0,0,0,0-1.752c.039-.247-.112-.3-.31-.295-.409-.018-.818-.051-1.227-.052q-8.574-.005-17.149,0c-.692,0-1.339-.017-1.409-.933a.969.969,0,0,1,1.058-.63c.41.019.82,0,1.231,0,5.881,0,11.763-.008,17.644.008.922,0,1.272-.4,1.28-1.3.021-2.436-.078-2.795-1.111-2.8-2.563-.017-5.128.019-7.692.034a2.943,2.943,0,0,0-1.954.365,14.266,14.266,0,0,1-13.684.023,3.1,3.1,0,0,0-2.054-.388l-6.563,0c-.338-.014-.677-.024-1.014-.042-.678-.037-1.249.275-1.18.937.11,1.059-.66,2.348.679,3.133a1.036,1.036,0,0,0,.5.036c.338-.006.676-.026,1.015-.04,2.852.014,5.7.038,8.556.033.642,0,1.154.1,1.292.832-.241.674-.78.739-1.4.74-2.678,0-5.356.031-8.034.05Zm-1.234-39.545v.422a5.4,5.4,0,0,0,0,2.666c-.118.3.083.334.3.352l.477.018.464-.036.222.006c.272.018.544.053.816.053q14.8,0,29.59,0c.273,0,.545-.033.817-.05.187.031.337.009.333-.233.016-.886.016-1.773.056-2.658.022-.494-.169-.656-.655-.641-.921.029-1.844-.016-2.765.016-.625.022-1.069-.153-1.231-.8a1.16,1.16,0,0,1,1.29-.767c1.365.025,2.731.014,4.1,0,.514,0,1.068.019,1.139-.711.016-1.01-.722-.9-1.363-.9q-16.735-.006-33.47,0c-.238,0-.475.036-.713.054l-.411-.019c-.637-.159-1.009.123-1.05.742s.4.816.938.835c.308.011.616.006.925.006q12.537,0,25.073,0c.662,0,1.34-.067,1.6.761-.183.8-.787.8-1.436.8q-11.993,0-23.986.013A1.507,1.507,0,0,0,1847.541,613.422Zm1.465,10.768h-.432c-.957-.264-1.216.1-1.21,1.073q.06,9.68,0,19.361c-.005.979.257,1.348,1.224,1l.416,0a17.2,17.2,0,0,0,3.06,0h.621a2.659,2.659,0,0,0,1.471-.044c-.283-.3-.5-.508-.7-.734a14.333,14.333,0,0,1-2.822-15.605c.238-.627.542-1.116,1.331-.947.581.5.314,1.025.087,1.58a12.641,12.641,0,0,0,.455,11.011c3.317,6.441,11.855,9,17.688,5.338,5.544-2.671,8.245-9.861,5.9-15.916a12.909,12.909,0,0,0-20.352-5.339l-.252.223.009-.015a4.262,4.262,0,0,0-1.171,1.094,1.033,1.033,0,0,1-1.338.343c-.726-1.263.779-1.57,1.077-2.5a4.8,4.8,0,0,0-1.6.058l-.415.008A16.853,16.853,0,0,0,1849.006,624.19Zm-2.474,33.9c-.637-.159-1.009.123-1.05.742s.4.815.937.836c.274.01.548.006.822.006h22.806q5.6,0,11.2,0c.537,0,1.149.082,1.246-.711.016-1.01-.722-.9-1.363-.9q-16.735-.006-33.47,0c-.238,0-.475.035-.713.054Zm28.955-33.92a4.242,4.242,0,0,0-1.843.157,4.738,4.738,0,0,1,.718.466,14.228,14.228,0,0,1,4.066,11.48,14.713,14.713,0,0,1-4.357,9.134c-.141.072-.234.144,0,.216l1.215.018c1.6.178,3.2.037,4.8.072.208,0,.414-.027.465-.29a.185.185,0,0,0,0-.2c.019-4.69.047-9.379.054-14.069,0-2.19-.035-4.379-.054-6.569a.131.131,0,0,0-.007-.163c-.009-.207-.136-.265-.319-.253l-4.312,0Zm-26.9-1.639,6.563,0a2.956,2.956,0,0,0,2.045-.409,14.277,14.277,0,0,1,13.5-.027,3.169,3.169,0,0,0,2.143.436c2.119.015,4.237.037,6.356.043,2.443.008,2.443,0,2.437-2.486,0-1.467-.156-1.617-1.671-1.617q-13.434,0-26.868,0c-1.5,0-3.006.025-4.509.039a5.45,5.45,0,0,0-1.417-.012c-1.124.287-.806,1.259-.806,2.024s-.32,1.737.806,2.023A5.474,5.474,0,0,0,1848.59,622.533Z" transform="translate(0 0)" fill="#030405"/>
      <path id="Trazado_582870" data-name="Trazado 582870" d="M1892.834,676.591a12.909,12.909,0,0,1,20.351,5.339c2.34,6.054-.36,13.244-5.9,15.915a10.156,10.156,0,0,0-2.22.205,15.27,15.27,0,0,1-8.316-2.28c.751-1.339,1.486-2.688,2.262-4.012.4-.677.384-1.161-.342-1.626a3.906,3.906,0,0,1-1.894-3.132c-.057-.934-.458-1.247-1.353-1.233-1.606.026-3.214-.022-4.82-.039a18.092,18.092,0,0,1,.574-5.253c.329-1.295,1.1-2.393,1.42-3.677l-.009.015Zm16.674,16.393a6.087,6.087,0,0,0,1.083-1.679.966.966,0,0,0,1.161-.747,12.378,12.378,0,0,0,.726-3.709c.026-.665-.238-1.061-.934-1.064-1.71-.008-3.421-.005-5.132,0a.881.881,0,0,0-.99.929,4.287,4.287,0,0,1-2.025,3.5.861.861,0,0,0-.332,1.3q1.284,2.219,2.56,4.442a.862.862,0,0,0,1.373.327,12.652,12.652,0,0,0,2.389-1.928A.94.94,0,0,0,1909.509,692.984ZM1901,675.075a11.983,11.983,0,0,0-5.277,1.353c-.74.384-.89.851-.464,1.57.8,1.351,1.589,2.712,2.349,4.087a1.024,1.024,0,0,0,1.579.519,4.1,4.1,0,0,1,3.85.025.972.972,0,0,0,1.508-.468c.782-1.4,1.579-2.8,2.409-4.171.455-.753.2-1.18-.5-1.551A11.982,11.982,0,0,0,1901,675.075Zm2.927,11.429a2.848,2.848,0,1,0-2.782,2.856A2.9,2.9,0,0,0,1903.927,686.5Z" transform="translate(-37.081 -51.614)" fill="#f1da45"/>
      <path id="Trazado_582871" data-name="Trazado 582871" d="M1897.289,632.063c-.272.017-.545.049-.817.05q-14.795,0-29.59,0c-.272,0-.544-.034-.816-.053-.07-.149-.144-.162-.222-.006l-.464.036c.5-1.145.083-2.363.279-3.533q11.993-.009,23.985-.013c.65,0,1.254,0,1.436-.8h1.947c.162.65.606.825,1.232.8.92-.032,1.844.013,2.765-.016.485-.015.677.147.654.641-.04.885-.039,1.772-.056,2.658A.351.351,0,0,0,1897.289,632.063Z" transform="translate(-17.062 -15.209)" fill="#5985ca"/>
      <path id="Trazado_582872" data-name="Trazado 582872" d="M1866.7,796.583l6.563,0c.11.6.668.749,1.086.987a15.292,15.292,0,0,0,14.565.565c.757-.34,1.7-.59,2.04-1.552,2.564-.015,5.128-.051,7.692-.034,1.033.007,1.133.366,1.112,2.8-.008.9-.358,1.3-1.28,1.3-5.881-.016-11.763-.008-17.644-.008-.41,0-.821.016-1.231,0a.969.969,0,0,0-1.058.63,5.221,5.221,0,0,1-2,.2c-.138-.734-.65-.833-1.292-.832-2.852.006-5.7-.019-8.556-.033Z" transform="translate(-18.115 -149.293)" fill="#4275c2"/>
      <path id="Trazado_582873" data-name="Trazado 582873" d="M1866.7,656.632c1.5-.014,3.006-.038,4.509-.039q13.434-.005,26.868,0c1.515,0,1.668.149,1.671,1.617.006,2.488.006,2.494-2.437,2.486-2.119-.007-4.237-.028-6.356-.043-.057-.427-.376-.615-.707-.814a15.443,15.443,0,0,0-9.353-2.245,14.207,14.207,0,0,0-5.763,1.6c-.678.367-1.6.535-1.869,1.462l-6.563,0Z" transform="translate(-18.115 -38.124)" fill="#4275c2"/>
      <path id="Trazado_582874" data-name="Trazado 582874" d="M1876.436,819.718a5.222,5.222,0,0,0,2-.2c.07.916.717.934,1.409.933q8.574-.009,17.149,0c.409,0,.818.034,1.227.052l.31.295a5.178,5.178,0,0,1,0,1.752c-.182.1-.185.2,0,.294a.1.1,0,0,1,.028.151l-31.97.006c.09-.749-.22-1.531.187-2.254l.231-.241c2.678-.019,5.355-.047,8.033-.05C1875.656,820.458,1876.195,820.392,1876.436,819.718Z" transform="translate(-17.997 -167.54)" fill="#5680c4"/>
      <path id="Trazado_582875" data-name="Trazado 582875" d="M1887.132,708.214a15.274,15.274,0,0,0,8.316,2.28,10.145,10.145,0,0,1,2.22-.206c-5.834,3.658-14.372,1.1-17.688-5.338a12.641,12.641,0,0,1-.455-11.011c.227-.555.493-1.083-.087-1.58l1.032-1.681a1.033,1.033,0,0,0,1.338-.343,4.27,4.27,0,0,1,1.171-1.094c-.317,1.284-1.091,2.382-1.42,3.677a18.086,18.086,0,0,0-.573,5.253c-.775.124-.948.615-.9,1.332a11.414,11.414,0,0,0,5.2,9.063C1886.081,709.119,1886.648,709.019,1887.132,708.214Z" transform="translate(-27.468 -64.058)" fill="#eccd30"/>
      <path id="Trazado_582876" data-name="Trazado 582876" d="M1866.38,686.44l-1.032,1.681c-.79-.17-1.093.319-1.331.946a14.332,14.332,0,0,0,2.822,15.605c.2.226.416.437.7.734a2.659,2.659,0,0,1-1.471.044.419.419,0,0,0-.4-.245c-.053-.607-.6-.888-.909-1.319a16.694,16.694,0,0,1-2.505-5.365l-.286.043v6.884c-.967.345-1.23-.024-1.224-1q.052-9.68,0-19.361c-.006-.972.253-1.337,1.21-1.073q.006.117.012.234V690.9l.257.019a22.5,22.5,0,0,1,1.93-4.525c.449-.765,1.224-1.279,1.515-2.139l.193-.253a4.805,4.805,0,0,1,1.6-.058C1867.159,684.87,1865.655,685.177,1866.38,686.44Z" transform="translate(-13.378 -59.819)" fill="#4173bd"/>
      <path id="Trazado_582877" data-name="Trazado 582877" d="M1998.718,684.341l4.312,0,.319.253a.13.13,0,0,1,.007.163c-.434.23-.312.645-.313,1q-.009,9.317,0,18.635c0,.356-.122.772.313,1a.183.183,0,0,1,0,.2l-4.854-.036a1.161,1.161,0,0,1,.135-.38,15.588,15.588,0,0,0,3.628-8.387,15.888,15.888,0,0,0-1.941-9.516c-.48-.934-1.4-1.583-1.616-2.664Z" transform="translate(-122.8 -60.163)" fill="#5985ca"/>
      <path id="Trazado_582878" data-name="Trazado 582878" d="M1866.671,836.424l31.97-.006c.082.552.24,1.055-.688,1.053q-15.539-.041-31.079-.026a1.413,1.413,0,0,1-.2-.029q0-.492-.008-.984Z" transform="translate(-18.082 -180.961)" fill="#4274c0"/>
      <path id="Trazado_582879" data-name="Trazado 582879" d="M1858.639,616.231c.237-.019.475-.054.713-.054q16.735,0,33.471,0c.642,0,1.379-.108,1.363.9q-17.143.006-34.286.008c-.5,0-1.06.078-1.276-.576Z" transform="translate(-11.696 -6.021)" fill="#5783c9"/>
      <path id="Trazado_582880" data-name="Trazado 582880" d="M1858.639,849.1c.237-.019.475-.054.713-.054q16.735,0,33.471,0c.642,0,1.379-.108,1.363.9q-17.143.005-34.286.008c-.5,0-1.06.078-1.276-.576Z" transform="translate(-11.696 -190.991)" fill="#5783c9"/>
      <path id="Trazado_582881" data-name="Trazado 582881" d="M1853.03,616.491c.216.654.776.576,1.276.576q17.143,0,34.286-.008c-.071.73-.625.707-1.139.711-1.365.01-2.732.022-4.1,0a1.16,1.16,0,0,0-1.29.767h-1.946c-.261-.828-.939-.761-1.6-.761q-12.536.005-25.073,0c-.308,0-.617.005-.925-.006-.541-.019-.978-.217-.937-.835s.413-.9,1.05-.742C1852.68,616.4,1852.852,616.452,1853.03,616.491Z" transform="translate(-6.102 -5.998)" fill="#3b66a6"/>
      <path id="Trazado_582882" data-name="Trazado 582882" d="M1990.766,684.464c.213,1.082,1.136,1.731,1.616,2.664a15.887,15.887,0,0,1,1.941,9.516,15.587,15.587,0,0,1-3.627,8.387,1.164,1.164,0,0,0-.135.38.429.429,0,0,0-.413.254l-1.215-.018c0-.072,0-.144,0-.216a14.717,14.717,0,0,0,4.356-9.134,14.229,14.229,0,0,0-4.066-11.48,4.74,4.74,0,0,0-.718-.466,4.243,4.243,0,0,1,1.844-.157A.444.444,0,0,0,1990.766,684.464Z" transform="translate(-114.861 -60.021)" fill="#4173bd"/>
      <path id="Trazado_582883" data-name="Trazado 582883" d="M1853.03,849.361c.216.654.776.576,1.276.576q17.143,0,34.286-.008c-.1.794-.708.71-1.246.711q-5.6.01-11.2,0h-22.806c-.274,0-.548,0-.822-.006-.54-.02-.978-.218-.937-.836s.413-.9,1.05-.742C1852.68,849.274,1852.852,849.322,1853.03,849.361Z" transform="translate(-6.102 -190.968)" fill="#3b66a6"/>
      <path id="Trazado_582884" data-name="Trazado 582884" d="M1898.612,664.33c.272-.928,1.19-1.1,1.869-1.462a14.2,14.2,0,0,1,5.763-1.6,15.443,15.443,0,0,1,9.353,2.245c.331.2.65.387.707.814a3.17,3.17,0,0,1-2.143-.436,14.277,14.277,0,0,0-13.5.027A2.955,2.955,0,0,1,1898.612,664.33Z" transform="translate(-43.459 -41.802)" fill="#3965ab"/>
      <path id="Trazado_582885" data-name="Trazado 582885" d="M1916.3,796.561c-.338.962-1.283,1.212-2.041,1.552a15.292,15.292,0,0,1-14.565-.565c-.418-.239-.977-.384-1.086-.987a3.094,3.094,0,0,1,2.054.388,14.266,14.266,0,0,0,13.684-.023A2.943,2.943,0,0,1,1916.3,796.561Z" transform="translate(-43.459 -149.267)" fill="#3965ab"/>
      <path id="Trazado_582886" data-name="Trazado 582886" d="M1866.706,761.659V755l.286-.043a16.7,16.7,0,0,0,2.505,5.365c.307.431.856.712.909,1.319l-.223.246a17.193,17.193,0,0,1-3.06,0A.427.427,0,0,0,1866.706,761.659Z" transform="translate(-18.116 -116.259)" fill="#5783c9"/>
      <path id="Trazado_582887" data-name="Trazado 582887" d="M1870.388,684.386c-.291.86-1.066,1.374-1.515,2.139a22.506,22.506,0,0,0-1.93,4.525l-.257-.019v-6.654a.419.419,0,0,0,.42-.236,16.843,16.843,0,0,1,3.061,0Z" transform="translate(-18.1 -59.952)" fill="#5783c9"/>
      <path id="Trazado_582888" data-name="Trazado 582888" d="M1857.963,656.555v4.024a5.472,5.472,0,0,1-1.416.012c-1.126-.286-.8-1.259-.806-2.023s-.318-1.737.806-2.024A5.451,5.451,0,0,1,1857.963,656.555Z" transform="translate(-9.373 -38.046)" fill="#3965ab"/>
      <path id="Trazado_582889" data-name="Trazado 582889" d="M1857.761,796.538v4.024c-.338.014-.676.033-1.014.04a1.038,1.038,0,0,1-.5-.036c-1.338-.785-.568-2.075-.679-3.133-.069-.662.5-.974,1.18-.937C1857.085,796.514,1857.423,796.524,1857.761,796.538Z" transform="translate(-9.171 -149.248)" fill="#3965ab"/>
      <path id="Trazado_582890" data-name="Trazado 582890" d="M2020.843,707c-.436-.229-.313-.644-.313-1q-.009-9.318,0-18.635c0-.357-.121-.772.313-1,.02,2.19.057,4.379.054,6.569C2020.89,697.62,2020.862,702.31,2020.843,707Z" transform="translate(-140.286 -61.771)" fill="#5680c4"/>
      <path id="Trazado_582891" data-name="Trazado 582891" d="M1862.016,631.472c-.2,1.169.224,2.387-.279,3.533l-.478-.018-.3-.352a5.393,5.393,0,0,1,0-2.666.267.267,0,0,0,0-.422A1.507,1.507,0,0,1,1862.016,631.472Z" transform="translate(-13.42 -18.124)" fill="#345587"/>
      <path id="Trazado_582892" data-name="Trazado 582892" d="M1862.429,824.548c-.406.723-.1,1.5-.186,2.254l-.007.007-1.147-.014q0-1.128,0-2.256a.343.343,0,0,0,.332-.235l1.007,0C1862.429,824.386,1862.429,824.467,1862.429,824.548Z" transform="translate(-13.654 -171.339)" fill="#4274c0"/>
      <path id="Trazado_582893" data-name="Trazado 582893" d="M1996.49,787.727a.429.429,0,0,1,.414-.254l4.854.036c-.051.263-.257.3-.465.291C1999.692,787.764,1998.088,787.906,1996.49,787.727Z" transform="translate(-121.204 -142.084)" fill="#5680c4"/>
      <path id="Trazado_582894" data-name="Trazado 582894" d="M1860.811,836.414l1.147.014q0,.492.008.984C1861.176,837.548,1860.516,837.534,1860.811,836.414Z" transform="translate(-13.376 -180.958)" fill="#3b66a6"/>
      <path id="Trazado_582895" data-name="Trazado 582895" d="M1883.61,787.7l.223-.246a.418.418,0,0,1,.4.245Z" transform="translate(-31.542 -142.072)" fill="#618fdb"/>
      <path id="Trazado_582896" data-name="Trazado 582896" d="M1857.095,616.659c-.178-.039-.35-.087-.4-.3l.411.019Q1857.1,616.518,1857.095,616.659Z" transform="translate(-10.167 -6.167)" fill="#618fdb"/>
      <path id="Trazado_582897" data-name="Trazado 582897" d="M1997.885,684.592a.445.445,0,0,1-.418-.27l.431.006C1997.894,684.416,1997.889,684.5,1997.885,684.592Z" transform="translate(-121.98 -60.15)" fill="#5680c4"/>
      <path id="Trazado_582898" data-name="Trazado 582898" d="M1883.828,684.623l-.221-.244.415-.008Z" transform="translate(-31.54 -60.188)" fill="#618fdb"/>
      <path id="Trazado_582899" data-name="Trazado 582899" d="M1866.706,787.522a.427.427,0,0,1,.416.233l-.416,0C1866.707,787.675,1866.706,787.6,1866.706,787.522Z" transform="translate(-18.116 -142.123)" fill="#618fdb"/>
      <path id="Trazado_582900" data-name="Trazado 582900" d="M1867.058,684.411a.418.418,0,0,1-.42.236q-.006-.117-.012-.234Z" transform="translate(-18.052 -60.221)" fill="#618fdb"/>
      <path id="Trazado_582901" data-name="Trazado 582901" d="M2020.51,647.843a.351.351,0,0,1,.332-.233C2020.846,647.852,2020.7,647.874,2020.51,647.843Z" transform="translate(-140.283 -30.99)" fill="#618fdb"/>
      <path id="Trazado_582902" data-name="Trazado 582902" d="M1861.428,824.276a.343.343,0,0,1-.332.235C1861.1,824.275,1861.245,824.252,1861.428,824.276Z" transform="translate(-13.659 -171.31)" fill="#5680c4"/>
      <path id="Trazado_582903" data-name="Trazado 582903" d="M1857.095,849.529c-.178-.039-.35-.087-.4-.3l.411.019Z" transform="translate(-10.167 -191.137)" fill="#618fdb"/>
      <path id="Trazado_582904" data-name="Trazado 582904" d="M1900.557,688.232l-.251.223Z" transform="translate(-44.804 -63.256)" fill="#eccd30"/>
      <path id="Trazado_582905" data-name="Trazado 582905" d="M2020.846,684.586l-.318-.253C2020.71,684.32,2020.838,684.379,2020.846,684.586Z" transform="translate(-140.297 -60.157)" fill="#5680c4"/>
      <path id="Trazado_582906" data-name="Trazado 582906" d="M1990.033,787.57c0,.072,0,.144,0,.216C1989.8,787.714,1989.892,787.642,1990.033,787.57Z" transform="translate(-115.962 -142.161)" fill="#5680c4"/>
      <path id="Trazado_582907" data-name="Trazado 582907" d="M1861.6,632.061a.267.267,0,0,1,0,.422Q1861.6,632.272,1861.6,632.061Z" transform="translate(-14.063 -18.639)" fill="#5985ca"/>
      <path id="Trazado_582908" data-name="Trazado 582908" d="M1867.6,824.554q0-.121,0-.242l.231,0Z" transform="translate(-18.829 -171.345)" fill="#618fdb"/>
      <path id="Trazado_582909" data-name="Trazado 582909" d="M2021.458,834.55c-.184-.1-.182-.2,0-.294C2021.459,834.354,2021.458,834.452,2021.458,834.55Z" transform="translate(-140.927 -179.244)" fill="#618fdb"/>
      <path id="Trazado_582910" data-name="Trazado 582910" d="M1867.634,648.267c.078-.156.152-.144.222.006Z" transform="translate(-18.853 -31.423)" fill="#618fdb"/>
      <path id="Trazado_582911" data-name="Trazado 582911" d="M1861.47,647.073l.3.352C1861.554,647.407,1861.352,647.376,1861.47,647.073Z" transform="translate(-13.929 -30.563)" fill="#5985ca"/>
      <path id="Trazado_582912" data-name="Trazado 582912" d="M2020.789,824.6l-.31-.295C2020.677,824.3,2020.827,824.352,2020.789,824.6Z" transform="translate(-140.259 -171.339)" fill="#618fdb"/>
      <path id="Trazado_582913" data-name="Trazado 582913" d="M1893.293,742.7c-.484.805-1.051.906-1.845.354a11.415,11.415,0,0,1-5.2-9.063c-.045-.717.128-1.208.9-1.332,1.607.017,3.214.065,4.82.039.894-.015,1.3.3,1.353,1.233a3.906,3.906,0,0,0,1.894,3.132c.726.465.738.948.342,1.626C1894.779,740.01,1894.044,741.359,1893.293,742.7Zm-4.5-8.39c-.872-.2-1.045.107-.865.963a10.088,10.088,0,0,0,3.288,5.667c.875.77.97.736,1.342-.458.345-.153.406-.525.613-.784.737-.922.972-1.765-.163-2.6a1.808,1.808,0,0,1-.684-1.1c-.21-1.837-1.433-1.882-2.821-1.72C1889.271,734.3,1889.032,734.3,1888.8,734.307Z" transform="translate(-33.629 -98.542)" fill="#080804"/>
      <path id="Trazado_582914" data-name="Trazado 582914" d="M1918.151,680.865a11.982,11.982,0,0,1,5.453,1.364c.7.372.955.8.5,1.551-.83,1.374-1.626,2.769-2.408,4.171a.973.973,0,0,1-1.508.468,4.094,4.094,0,0,0-3.849-.025,1.025,1.025,0,0,1-1.58-.519c-.759-1.375-1.547-2.736-2.348-4.087-.426-.719-.276-1.186.464-1.57A11.984,11.984,0,0,1,1918.151,680.865Zm2.607,5.456c.462-.755.9-1.525,1.4-2.26.348-.521.2-.769-.345-.961a9.481,9.481,0,0,0-6.7-.121c-1.151.362-1.151.362-.562,1.391.374.653.763,1.3,1.117,1.962a.576.576,0,0,0,.818.333,5.5,5.5,0,0,1,3.53,0C1920.4,686.8,1920.68,686.81,1920.758,686.321Z" transform="translate(-54.232 -57.404)" fill="#080804"/>
      <path id="Trazado_582915" data-name="Trazado 582915" d="M1957.057,740.11a.939.939,0,0,1-.119,1.37,12.644,12.644,0,0,1-2.389,1.928.862.862,0,0,1-1.373-.327q-1.281-2.221-2.56-4.442a.861.861,0,0,1,.332-1.3,4.288,4.288,0,0,0,2.025-3.5.881.881,0,0,1,.99-.93c1.711,0,3.421-.006,5.132,0,.7,0,.96.4.933,1.064a12.381,12.381,0,0,1-.726,3.709.966.966,0,0,1-1.161.747,1.008,1.008,0,0,1-.291-1.342,8.185,8.185,0,0,0,.42-1.45c.237-1.193.223-1.2-1.013-1.137-.718-.011-1.437-.014-2.155-.035-.374-.01-.646.032-.729.5a6.637,6.637,0,0,1-1.237,2.565c-.88.495-.912,1.1-.311,1.871a7.78,7.78,0,0,1,.914,1.579c.333.742.705.8,1.244.215.25-.274.554-.5.8-.778A1.021,1.021,0,0,1,1957.057,740.11Z" transform="translate(-84.629 -98.74)" fill="#080804"/>
      <path id="Trazado_582916" data-name="Trazado 582916" d="M1933.462,725.49a2.848,2.848,0,1,1-2.913-2.832A2.876,2.876,0,0,1,1933.462,725.49Zm-2.879-1.248a1.248,1.248,0,0,0,.068,2.495,1.111,1.111,0,0,0,1.208-1.211C1931.877,724.7,1931.374,724.316,1930.583,724.241Z" transform="translate(-66.615 -90.6)" fill="#080804"/>
      <path id="Trazado_582917" data-name="Trazado 582917" d="M1964.876,740.592c1.236-.059,1.25-.056,1.013,1.137a8.184,8.184,0,0,1-.42,1.45,1.008,1.008,0,0,0,.291,1.342,6.079,6.079,0,0,1-1.083,1.68,1.021,1.021,0,0,0-1.274.308c-.246.278-.55.5-.8.778-.539.589-.911.527-1.244-.215a7.778,7.778,0,0,0-.915-1.579c-.6-.775-.569-1.376.311-1.871.317.633.653,1.257.947,1.9.275.6.585.686,1.036.169A7.21,7.21,0,0,0,1964.876,740.592Z" transform="translate(-92.248 -104.83)" fill="#3965ab"/>
      <path id="Trazado_582918" data-name="Trazado 582918" d="M1898.676,740.3c.237-.012.475-.012.71-.039,1.388-.162,2.611-.117,2.821,1.72a1.807,1.807,0,0,0,.684,1.1c1.135.837.9,1.681.162,2.6-.207.259-.268.631-.613.784-.57-.056-.866-.5-1.188-.88A11.112,11.112,0,0,1,1898.676,740.3Z" transform="translate(-43.51 -104.537)" fill="#4274c0"/>
      <path id="Trazado_582919" data-name="Trazado 582919" d="M1895.088,740.456a11.112,11.112,0,0,0,2.578,5.292c.322.379.617.824,1.188.88-.372,1.194-.467,1.228-1.342.458a10.086,10.086,0,0,1-3.289-5.667C1894.043,740.563,1894.216,740.255,1895.088,740.456Z" transform="translate(-39.922 -104.691)" fill="#3965ab"/>
      <path id="Trazado_582920" data-name="Trazado 582920" d="M1926.428,688.993a9.48,9.48,0,0,1,6.7.121c.544.192.693.44.345.961-.492.735-.933,1.5-1.4,2.259-.047-.487-.373-.669-.8-.782a6.2,6.2,0,0,0-2.906-.111c-.383.082-.666.091-.855-.282C1927.15,690.438,1926.79,689.715,1926.428,688.993Z" transform="translate(-65.553 -63.418)" fill="#4274c0"/>
      <path id="Trazado_582921" data-name="Trazado 582921" d="M1922.757,691.145c.362.722.722,1.445,1.088,2.165.19.373.473.364.855.282a6.2,6.2,0,0,1,2.906.111c.429.113.754.3.8.783-.078.49-.357.478-.75.349a5.5,5.5,0,0,0-3.53,0,.575.575,0,0,1-.818-.333c-.354-.664-.743-1.309-1.117-1.962C1921.606,691.507,1921.606,691.507,1922.757,691.145Z" transform="translate(-61.882 -65.57)" fill="#3965ab"/>
      <path id="Trazado_582922" data-name="Trazado 582922" d="M1967.65,740.527a7.212,7.212,0,0,1-2.139,5.1c-.451.517-.76.435-1.036-.169-.294-.644-.63-1.268-.947-1.9a6.644,6.644,0,0,0,1.237-2.565c.083-.468.355-.51.729-.5C1966.213,740.512,1966.932,740.516,1967.65,740.527Z" transform="translate(-95.023 -104.765)" fill="#4275c2"/>
      <path id="Trazado_582923" data-name="Trazado 582923" d="M1936.8,730.36c.791.075,1.294.457,1.276,1.283a1.111,1.111,0,0,1-1.208,1.211,1.248,1.248,0,0,1-.068-2.494Z" transform="translate(-72.833 -96.718)" fill="#4173bd"/>
    </g>
  </g>
</svg>
