<svg xmlns="http://www.w3.org/2000/svg" width="81.396" height="81.396" viewBox="0 0 81.396 81.396">
  <g id="Grupo_845292" data-name="Grupo 845292" transform="translate(-240 -1286.742)">
    <rect id="Rectángulo_38178" data-name="Rectángulo 38178" width="81.396" height="81.396" transform="translate(240 1286.742)" fill="none"/>
    <g id="Grupo_845304" data-name="Grupo 845304" transform="translate(-2947.718 713.625)">
      <path id="Trazado_582971" data-name="Trazado 582971" d="M3221.281,656.137a1.342,1.342,0,0,1-.381,1.816c-2,1.947-3.963,3.939-5.94,5.913a5.287,5.287,0,0,1-3.066,1.667,2.08,2.08,0,0,0-1.232.757q-3.41,3.41-6.823,6.818a4.954,4.954,0,0,1-.964.8,2.551,2.551,0,0,1-3.683-1.343c-.628-1.684,1.293-4.423,3.135-4.469.674.592.515,1.1-.042,1.72-.533.588-1.427.928-1.45,1.908.4.92.86,1.062,1.561.368,1.948-1.929,3.858-3.9,5.782-5.848.145-.12.294-.236.435-.362.4-.361.8-.625.1-1.2-.514-.42-.767-.707-1.3-.063s-1.191,1.185-1.765,1.8a1.033,1.033,0,0,1-1.593.174,1.155,1.155,0,0,1,.375-1.427c.564-.516,1.085-1.079,1.629-1.617a5.124,5.124,0,0,0,1.917-2.99,4.822,4.822,0,0,1,1.714-2.52c4.387-4.378,8.753-8.776,13.164-13.129a1.08,1.08,0,0,0,.22-1.612c-1.26-2.093-2.446-4.229-3.643-6.359-.666-1.184-.559-1.931.644-2.446a15.667,15.667,0,0,0,8.762-8.779,1.351,1.351,0,0,1,1.933-.9c.766.381,2,.537,1.56,1.945-.292.178-.634.511-.935.283-1.23-.931-1.421.2-1.835.878a14.244,14.244,0,0,0-.955,1.7,8.418,8.418,0,0,1-4.544,4.587c-.908.391-1.734.972-2.61,1.442-.411.221-.541.418-.268.884,1.215,2.075,2.389,4.174,3.635,6.363l5.413-5.4a13.513,13.513,0,0,1,1.862-.863c3.009-.889,5.328,1.36,4.578,4.4a5.952,5.952,0,0,1-1.7,2.807c-1.506,1.494-3.006,2.995-4.564,4.549,2.182,1.266,4.239,2.44,6.272,3.655.476.284.7.227.957-.259.554-1.046,1.181-2.053,1.746-3.094.305-.563.681-.915,1.364-.753a1.043,1.043,0,0,1,.219,1.512c-.757,1.278-1.463,2.586-2.225,3.86a1.449,1.449,0,0,1-2.305.576c-2.152-1.226-4.3-2.454-6.416-3.746a1.065,1.065,0,0,0-1.613.231c-1.271,1.37-2.637,2.651-3.943,3.989-.475.487-.949.762-1.6.349-.45-.715-.062-1.186.435-1.68q5.193-5.163,10.363-10.349a4.07,4.07,0,0,0,1.379-2.436c.094-.9-.051-1.7-1.145-1.906-1.485-.456-2.479.412-3.4,1.331q-9.85,9.815-19.666,19.664a5.337,5.337,0,0,0-.931,1.157c-.379.694-.823,1.416-.349,2.258.324,1.176,1.216,1.257,2.174,1.051a4.282,4.282,0,0,0,2.118-1.293c1.9-1.926,3.841-3.819,5.731-5.758A1.688,1.688,0,0,1,3221.281,656.137Z" transform="translate(0 -31.014)" fill="#070806"/>
      <path id="Trazado_582972" data-name="Trazado 582972" d="M3339.864,655.251c-.683-.161-1.059.191-1.364.753-.564,1.041-1.192,2.048-1.746,3.094-.257.486-.48.543-.957.259-2.033-1.214-4.09-2.388-6.272-3.655,1.559-1.554,3.058-3.054,4.564-4.549a5.951,5.951,0,0,0,1.7-2.807c.75-3.041-1.569-5.29-4.578-4.4a13.516,13.516,0,0,0-1.862.863c-.259-.359-.59-.27-.929-.155-.509.174-.728.054-.6-.532a35.126,35.126,0,0,1,1.67-5.7c.6-1.5,1.606-2.768,2.149-4.28l1.763,1a.911.911,0,0,0,.309,1.126,4.594,4.594,0,0,0,2.828,1.087c1.3-.086,2.6-.042,3.905-.055,1.973-.019,2-.018,1.956,1.972-.066,2.828-.291,5.662,1.754,8.049a21.941,21.941,0,0,1,1.361,2.255c.341.515.222.759-.3,1.031-1.016.532-1.985,1.154-3,1.693a1.106,1.106,0,0,0-.672,1.4A3.336,3.336,0,0,0,3339.864,655.251Z" transform="translate(-99.112 -38.315)" fill="#f5e536"/>
      <path id="Trazado_582973" data-name="Trazado 582973" d="M3256.379,701.967a1.687,1.687,0,0,0-1.705.624c-1.89,1.939-3.828,3.832-5.731,5.758a4.281,4.281,0,0,1-2.118,1.293c-.958.206-1.85.125-2.174-1.051.584-.136.772-.706,1.139-1.071q11.112-11.069,22.179-22.181c.36-.362.96-.535,1.032-1.16,1.094.207,1.239,1.011,1.145,1.906a4.07,4.07,0,0,1-1.379,2.436q-5.186,5.171-10.363,10.349c-.5.494-.885.965-.435,1.68C3257.438,701.023,3257.067,701.672,3256.379,701.967Z" transform="translate(-35.098 -76.844)" fill="#3f7093"/>
      <path id="Trazado_582974" data-name="Trazado 582974" d="M3306.107,633.665c-.542,1.512-1.55,2.783-2.149,4.28a35.128,35.128,0,0,0-1.67,5.7c-.126.587.093.706.6.532.339-.115.67-.2.929.155l-5.413,5.4c-1.245-2.189-2.419-4.288-3.635-6.363-.273-.466-.143-.664.268-.884.876-.47,1.7-1.051,2.61-1.442a8.418,8.418,0,0,0,4.544-4.587,14.28,14.28,0,0,1,.955-1.7c.413-.68.605-1.809,1.835-.878.3.228.644-.1.935-.283A.144.144,0,0,1,3306.107,633.665Z" transform="translate(-73.582 -37.837)" fill="#efcf31"/>
      <path id="Trazado_582975" data-name="Trazado 582975" d="M3360.131,655.637a1.106,1.106,0,0,1,.672-1.4c1.012-.539,1.981-1.16,3-1.693.518-.271.637-.516.3-1.031a21.9,21.9,0,0,0-1.362-2.255c-2.044-2.387-1.82-5.221-1.753-8.049.047-1.989.017-1.99-1.956-1.972-1.3.012-2.608-.031-3.905.055a4.6,4.6,0,0,1-2.828-1.087.91.91,0,0,1-.309-1.126,1,1,0,0,1,1.519-.137,3.453,3.453,0,0,0,2.373.587c1.718-.038,3.438-.04,5.156-.028,1.176.009,1.642.494,1.686,1.675a2.493,2.493,0,0,1,0,.458,14.659,14.659,0,0,0,3.02,11.328c1.045,1.4.775,2.012-.773,2.9-1.091.627-2.2,1.218-3.278,1.871A1.149,1.149,0,0,1,3360.131,655.637Z" transform="translate(-117.695 -40.253)" fill="#090805"/>
      <path id="Trazado_582976" data-name="Trazado 582976" d="M3404.124,617.33a.928.928,0,0,1-.813-.485.815.815,0,0,1,.124-.961c1.287-1.3,2.57-2.607,3.883-3.883a.8.8,0,0,1,1.22.06.755.755,0,0,1,.01,1.131q-1.919,1.963-3.88,3.884A1.675,1.675,0,0,1,3404.124,617.33Z" transform="translate(-157.193 -21.068)" fill="#11100d"/>
      <path id="Trazado_582977" data-name="Trazado 582977" d="M3430.9,708.889c-.154.584-.505.962-1.149.8-1.7-.428-3.4-.887-5.086-1.361-.53-.149-.882-.512-.692-1.113a.853.853,0,0,1,1.182-.572c1.621.438,3.245.864,4.867,1.3A1.05,1.05,0,0,1,3430.9,708.889Z" transform="translate(-173.143 -94.098)" fill="#100f0d"/>
      <path id="Trazado_582978" data-name="Trazado 582978" d="M3319.164,585.51c-.012-.615.171-.971.643-1.091a.776.776,0,0,1,1,.537c.511,1.789.985,3.589,1.442,5.393a.848.848,0,0,1-1.6.517C3320.11,589.044,3319.629,587.206,3319.164,585.51Z" transform="translate(-92.475)" fill="#0c0c0a"/>
      <path id="Trazado_582979" data-name="Trazado 582979" d="M3369.683,769.455c-.039.528-.223.879-.711.98a.8.8,0,0,1-1-.564c-.5-1.758-.973-3.527-1.427-5.3a.813.813,0,0,1,.566-1,.728.728,0,0,1,1.032.441C3368.7,765.837,3369.187,767.678,3369.683,769.455Z" transform="translate(-128.939 -137.924)" fill="#0e0e0b"/>
      <path id="Trazado_582980" data-name="Trazado 582980" d="M3250.982,661.281c-1.614-.441-3.38-.911-5.137-1.412a.787.787,0,0,1-.562-1.078.756.756,0,0,1,.978-.567q2.658.67,5.3,1.409a.79.79,0,0,1,.6.972C3252.048,661.122,3251.673,661.352,3250.982,661.281Z" transform="translate(-35.548 -56.833)" fill="#0d0c0a"/>
      <path id="Trazado_582981" data-name="Trazado 582981" d="M3209.974,799.147a1.033,1.033,0,0,0,1.593-.174c.574-.613,1.234-1.152,1.765-1.8s.783-.358,1.3.063c.7.571.3.835-.1,1.2-.141.126-.29.241-.435.362-.542-.659-1.03-.568-1.6.019-1.561,1.607-3.158,3.179-4.749,4.757-.29.287-.52.673-1,.7.023-.979.917-1.32,1.45-1.908.557-.615.716-1.128.042-1.72A3.119,3.119,0,0,0,3209.974,799.147Z" transform="translate(-5.911 -163.562)" fill="#c7c3c9"/>
      <path id="Trazado_582982" data-name="Trazado 582982" d="M3268.313,683.761c-.072.624-.672.8-1.032,1.16q-11.067,11.112-22.179,22.181c-.366.365-.554.935-1.139,1.071-.474-.842-.03-1.564.349-2.258a5.331,5.331,0,0,1,.931-1.157q9.823-9.842,19.666-19.664C3265.833,684.172,3266.828,683.3,3268.313,683.761Z" transform="translate(-34.411 -76.425)" fill="#345b79"/>
      <path id="Trazado_582983" data-name="Trazado 582983" d="M3206.746,809.429c.475-.031.706-.418,1-.7,1.591-1.578,3.188-3.15,4.749-4.757.57-.586,1.058-.678,1.6-.019-1.924,1.952-3.834,3.919-5.782,5.848C3207.606,810.49,3207.148,810.349,3206.746,809.429Z" transform="translate(-5.911 -168.716)" fill="#e0dde1"/>
    </g>
  </g>
</svg>
