<svg xmlns="http://www.w3.org/2000/svg" width="81.396" height="81.396" viewBox="0 0 81.396 81.396">
  <g id="Grupo_845294" data-name="Grupo 845294" transform="translate(-240 -1286.742)">
    <rect id="Rectángulo_38178" data-name="Rectángulo 38178" width="81.396" height="81.396" transform="translate(240 1286.742)" fill="none"/>
    <g id="Grupo_845301" data-name="Grupo 845301" transform="translate(-2216.636 647.803)">
      <path id="Trazado_582847" data-name="Trazado 582847" d="M2498.107,694.429a8.641,8.641,0,0,1-.236-2.111,1.181,1.181,0,0,0,.872-1.35c-.082-1.374-.107-2.752-.2-4.126-.034-.515-.027-.769.639-.745,2.2.081,4.4.078,6.6.108-.275,1.308.2,2.674-.3,3.966a15.037,15.037,0,0,0-4.2-.178.806.806,0,0,0-.845.925.792.792,0,0,0,.816.838,15.518,15.518,0,0,0,4.206-.159c.368.305.237.728.239,1.106.011,1.617,0,3.235,0,4.852-1.537-.935-3.184-.4-4.79-.33-.307.014-.471.385-.474.736,0,.4.16.8.533.815,1.575.073,3.186.537,4.7-.305.757,1.016.475,2.263.708,3.391.361,1.752.462,1.923,2.327,1.781.336.419.924.164,1.3.486-.039.583.487.55.807.7a16.543,16.543,0,0,1,5.942,4.41c4.434,5.47,4.955,11.813,4.029,18.474-.381,2.736-1.2,5.366-1.78,8.055-5.685.475-11.382.562-17.082.5a1,1,0,0,0-1.442,0c-1.6-.011-3.194-.01-4.791-.038-.561-.01-1.1-.042-1.445.524a9.512,9.512,0,0,0-2.5.195c-.149-.7-.618-.924-1.294-.95-1.343-.052-2.682-.182-4.025-.223a.919.919,0,0,1-1-.747,38.738,38.738,0,0,1-2.217-13.5c.348-10.058,5.783-15.957,13.457-17.593a1.208,1.208,0,0,0,1.061-1.087,68.46,68.46,0,0,0,.882-7.173A1.321,1.321,0,0,0,2498.107,694.429Zm20.447,21.123a1.118,1.118,0,0,0,.314-1.566,18.531,18.531,0,0,0-1.648-2.737,1.343,1.343,0,0,0-1.913-.489,7.6,7.6,0,0,1-6.875-.224,10.478,10.478,0,0,0-10.721,0,7.59,7.59,0,0,1-6.869.211,1.356,1.356,0,0,0-1.911.514,14.684,14.684,0,0,0-2.267,4.4c-1.764,5.747-1.022,11.417.543,17.059.216.777.845.841,1.5.874,2.646.133,5.291.315,7.939.4a201.829,201.829,0,0,0,20.871-.407c.619-.043,1.216-.112,1.41-.829a34.282,34.282,0,0,0,1.286-14.2c-.105-.7-.43-1.074-1.134-1.114Zm-16.041-14.92c-.5,0-.7,0-.892,0-.506-.014-.956.09-1.151.624-.224.612.216.963.6,1.272a2.724,2.724,0,0,0,2.707-.459c.42-.648.175-1.148-.509-1.384A2.005,2.005,0,0,0,2502.514,700.633Zm-.312-7.106c-.276,0-.553-.016-.828,0-.533.039-.915.284-.934.862-.021.649.394.914.975.941a14.136,14.136,0,0,0,1.655-.011.854.854,0,0,0,.886-.914.876.876,0,0,0-.927-.879C2502.755,693.513,2502.478,693.527,2502.2,693.526Z" transform="translate(-5.745 -28.105)" fill="#e2ebf0"/>
      <path id="Trazado_582848" data-name="Trazado 582848" d="M2536.281,708.166c5.7.06,11.4-.028,17.082-.5,1.15.247,1.762-.216,1.953-1.378a18.854,18.854,0,0,1,.529-1.817c1.5-5.567,2.227-11.185.582-16.837-1.786-6.142-5.753-10.118-12.062-11.609-.372-.322-.961-.066-1.3-.486a11.653,11.653,0,0,1-.347-1.248,61.227,61.227,0,0,1-.806-14.5c.136-1.862.114-1.864-1.764-1.692-2.2-.029-4.4-.027-6.6-.108-.666-.025-.674.23-.639.745.092,1.374.117,2.751.2,4.126a1.181,1.181,0,0,1-.872,1.35c-.754-.175-.943-.685-.954-1.407-.022-1.379-.166-2.757-.175-4.136,0-.708-.263-.994-.945-1a6.323,6.323,0,0,1-.937-.129c-.566-.09-1.023-.37-.961-.985.067-.661.549-.906,1.2-.805.189.029.383.033.63.053a39.136,39.136,0,0,1,.041-4.412,1.6,1.6,0,0,1,1.564-1.7,47.374,47.374,0,0,1,5.3-.464c.743-.01,1.215.214,1.408.943a1.268,1.268,0,0,1-1.373.882c-.59-.012-1.182.03-1.772.059-3.67.181-3.966.554-3.366,4.233a.642.642,0,0,1,.014.117c-.014.511.269.652.739.678a49.077,49.077,0,0,0,8.144.026c2.455-.077,2.145.335,2.281-2.06.14-2.456.079-2.46-2.272-3a1.612,1.612,0,0,1-.35-.9.975.975,0,0,1,1.187-.723c3.1.466,3,.123,3.188,3.187a21.665,21.665,0,0,1-.02,2.49c-.028.51.062.734.639.6a.87.87,0,0,1,1.181.816c.046.61-.425.855-.987.973-1.812.379-1.837.388-1.939,2.219a64.25,64.25,0,0,0,.664,13.6,1.03,1.03,0,0,0,.855.938c8.617,2.733,13.475,9.119,13.875,18.14a44.945,44.945,0,0,1-2.632,16.05,1.132,1.132,0,0,1-1.121.86,238.044,238.044,0,0,1-25.6.558c-.838-.026-1.245-.409-1.134-1.269.341-.566.884-.534,1.445-.524,1.6.028,3.194.028,4.791.039A3.637,3.637,0,0,0,2536.281,708.166Z" transform="translate(-40.11 0)" fill="#0a0a0a"/>
      <path id="Trazado_582849" data-name="Trazado 582849" d="M2492.362,721.113a1.321,1.321,0,0,1,.5,1.251,68.456,68.456,0,0,1-.882,7.173,1.208,1.208,0,0,1-1.061,1.087c-7.674,1.637-13.108,7.536-13.457,17.593a38.738,38.738,0,0,0,2.217,13.5.919.919,0,0,0,1,.747c1.342.041,2.682.171,4.025.223.676.026,1.145.248,1.294.95a1.1,1.1,0,0,1-1.332.87q-2.6-.2-5.2-.354a1.078,1.078,0,0,1-1.1-.727c-2.424-7.055-3.766-14.212-1.688-21.6a17.352,17.352,0,0,1,12.485-12.582,1.561,1.561,0,0,0,1.326-1.6c.154-1.808.409-3.608.578-5.416C2491.143,721.391,2491.513,721,2492.362,721.113Z" transform="translate(0 -54.789)" fill="#090a0a"/>
      <path id="Trazado_582850" data-name="Trazado 582850" d="M2551.686,659.2a49.07,49.07,0,0,1-8.144-.026c-.47-.026-.752-.167-.739-.678a.643.643,0,0,0-.014-.117c-.6-3.679-.3-4.052,3.366-4.233.591-.029,1.182-.071,1.772-.059a1.268,1.268,0,0,0,1.373-.882l2.045.034a1.61,1.61,0,0,0,.349.9A14.515,14.515,0,0,1,2551.686,659.2Z" transform="translate(-51.003 -3.029)" fill="#e59b6a"/>
      <path id="Trazado_582851" data-name="Trazado 582851" d="M2526.973,791.166c.7.04,1.028.415,1.133,1.114a34.282,34.282,0,0,1-1.286,14.2c-.194.717-.791.786-1.41.829a201.838,201.838,0,0,1-20.871.407c-2.648-.089-5.292-.271-7.939-.4-.657-.033-1.287-.1-1.5-.874-1.565-5.642-2.308-11.312-.543-17.059a14.679,14.679,0,0,1,2.267-4.4,1.356,1.356,0,0,1,1.911-.514,7.59,7.59,0,0,0,6.869-.211,10.479,10.479,0,0,1,10.721,0,7.6,7.6,0,0,0,6.874.224,1.343,1.343,0,0,1,1.913.489,18.552,18.552,0,0,1,1.648,2.737,1.117,1.117,0,0,1-.314,1.565c-.873.167-1.14-.458-1.447-1.073-.983-1.97-.99-1.967-3.121-1.374a10.366,10.366,0,0,1-6.448-1,8.451,8.451,0,0,0-8.886-.016,9.469,9.469,0,0,1-6.321.987c-2.5-.412-2.511-.444-3.511,1.944a15.481,15.481,0,0,0-.753,2.24c-1.165,4.7-.549,9.333.568,13.946.136.563.509.63.963.656,1.341.076,2.681.176,4.022.229a188.562,188.562,0,0,0,21.557-.186c2.208.047,2.2.046,2.67-2.093a29.3,29.3,0,0,0,.589-10.993A1.164,1.164,0,0,1,2526.973,791.166Z" transform="translate(-13.634 -101.816)" fill="#0a0707"/>
      <path id="Trazado_582852" data-name="Trazado 582852" d="M2596.056,762c6.309,1.491,10.276,5.467,12.062,11.609,1.645,5.652.918,11.27-.582,16.837a18.854,18.854,0,0,0-.529,1.817c-.19,1.162-.8,1.625-1.953,1.378.576-2.688,1.4-5.319,1.78-8.055.926-6.661.4-13-4.029-18.474a16.548,16.548,0,0,0-5.942-4.41C2596.543,762.552,2596.018,762.585,2596.056,762Z" transform="translate(-91.801 -85.979)" fill="#ced8e8"/>
      <path id="Trazado_582853" data-name="Trazado 582853" d="M2617.939,803.027a1.164,1.164,0,0,0-.647,1.361,29.3,29.3,0,0,1-.589,10.993c-.469,2.138-.462,2.14-2.67,2.093.1-.46.162-.932.3-1.38a23.112,23.112,0,0,0,1.079-7.448,20.328,20.328,0,0,0-2.574-9.969c2.13-.593,2.138-.6,3.121,1.374.307.616.574,1.241,1.447,1.074Q2617.674,802.076,2617.939,803.027Z" transform="translate(-104.6 -113.678)" fill="#dd335c"/>
      <path id="Trazado_582854" data-name="Trazado 582854" d="M2577.277,686.33c1.878-.172,1.9-.17,1.764,1.692a61.24,61.24,0,0,0,.806,14.5,11.6,11.6,0,0,0,.347,1.248c-1.865.143-1.965-.029-2.327-1.781-.233-1.129.049-2.375-.708-3.391q.015-.458.029-.915c0-1.618.011-3.235,0-4.852,0-.378.129-.8-.239-1.106a1.118,1.118,0,0,0,.024-1.426C2577.476,689,2577,687.638,2577.277,686.33Z" transform="translate(-77.235 -28.229)" fill="#cdd7e6"/>
      <path id="Trazado_582855" data-name="Trazado 582855" d="M2561.059,732.579q-.015.457-.029.915c-1.517.842-3.128.378-4.7.305-.373-.017-.538-.419-.533-.815,0-.351.168-.722.474-.736C2557.875,732.174,2559.522,731.644,2561.059,732.579Z" transform="translate(-61.105 -63.128)" fill="#101111"/>
      <path id="Trazado_582856" data-name="Trazado 582856" d="M2560.854,702.483a1.118,1.118,0,0,1-.024,1.426,15.518,15.518,0,0,1-4.206.159.792.792,0,0,1-.816-.838.806.806,0,0,1,.845-.925A15.035,15.035,0,0,1,2560.854,702.483Z" transform="translate(-61.115 -40.417)" fill="#101111"/>
      <path id="Trazado_582857" data-name="Trazado 582857" d="M2557.792,747.243a2.008,2.008,0,0,1,.756.052c.684.235.928.736.509,1.384a2.724,2.724,0,0,1-2.707.459c-.385-.309-.824-.66-.6-1.272.2-.534.646-.638,1.152-.624C2557.1,747.248,2557.294,747.243,2557.792,747.243Z" transform="translate(-61.023 -74.715)" fill="#171818"/>
      <path id="Trazado_582858" data-name="Trazado 582858" d="M2557.579,717.354c.276,0,.553-.014.828,0a.876.876,0,0,1,.927.879.854.854,0,0,1-.886.914,14.133,14.133,0,0,1-1.655.011c-.582-.027-1-.292-.975-.941.019-.579.4-.824.934-.862C2557.026,717.337,2557.3,717.354,2557.579,717.354Z" transform="translate(-61.122 -51.932)" fill="#101111"/>
      <path id="Trazado_582859" data-name="Trazado 582859" d="M2557.4,896.317a3.637,3.637,0,0,1-1.442,0A1,1,0,0,1,2557.4,896.317Z" transform="translate(-61.232 -188.151)" fill="#f7f9fa"/>
      <path id="Trazado_582860" data-name="Trazado 582860" d="M2581.023,662.2a14.515,14.515,0,0,0,.009-5.061c2.352.541,2.413.545,2.272,3C2583.167,662.535,2583.478,662.123,2581.023,662.2Z" transform="translate(-80.34 -6.027)" fill="#cc7b4d"/>
      <path id="Trazado_582861" data-name="Trazado 582861" d="M2527.642,792.494a20.33,20.33,0,0,1,2.574,9.969,23.118,23.118,0,0,1-1.079,7.448c-.142.447-.2.919-.3,1.38a188.557,188.557,0,0,1-21.557.186c-1.342-.053-2.681-.154-4.022-.229-.454-.026-.827-.093-.963-.656-1.116-4.613-1.733-9.245-.567-13.946a15.454,15.454,0,0,1,.753-2.24c1-2.388,1.008-2.356,3.511-1.944a9.47,9.47,0,0,0,6.321-.987,8.452,8.452,0,0,1,8.886.016A10.365,10.365,0,0,0,2527.642,792.494Zm-10.878,16.813v-.052c.356,0,.712.018,1.066,0,1.958-.113,1.978-.11,2.559-2.03a.824.824,0,0,1,.825-.668,1.349,1.349,0,0,0,1.247-1.077,15.851,15.851,0,0,0,.649-6.443c-.431-3.536-2.58-5.442-6.106-5.5-3.806-.066-6.059,1.673-6.6,5.211a15.281,15.281,0,0,0,.623,6.792,1.238,1.238,0,0,0,1.167,1c.672.031.887.418.931.975.1,1.232.829,1.7,1.978,1.708C2515.66,809.227,2516.212,809.277,2516.764,809.307Zm-9.288-8.92c-.094-.534-.395-.889-.949-.855a.833.833,0,0,0-.831.958.817.817,0,0,0,.87.8A.883.883,0,0,0,2507.476,800.387Zm19.386,8.336c.53-.106.87-.388.822-.956a.8.8,0,0,0-.955-.788.789.789,0,0,0-.762.872C2525.979,808.423,2526.332,808.671,2526.862,808.723Zm-21.018-.835a.844.844,0,0,0-.871-.92.786.786,0,0,0-.859.776.8.8,0,0,0,.79.956A.84.84,0,0,0,2505.845,807.889Z" transform="translate(-19.4 -107.494)" fill="#fb5f7d"/>
      <path id="Trazado_582862" data-name="Trazado 582862" d="M2546.181,819.923c-.552-.03-1.1-.08-1.657-.086-1.149-.013-1.879-.477-1.978-1.709-.044-.558-.259-.944-.931-.975a1.238,1.238,0,0,1-1.167-1,15.281,15.281,0,0,1-.623-6.792c.536-3.539,2.79-5.278,6.6-5.211,3.526.061,5.676,1.968,6.106,5.5a15.851,15.851,0,0,1-.649,6.443,1.349,1.349,0,0,1-1.247,1.077.824.824,0,0,0-.825.667c-.581,1.92-.6,1.918-2.559,2.03-.354.02-.711,0-1.066,0Zm-.05-1.81c1.2.171,2.143.025,2.094-1.534-.024-.755.536-1,1.2-1.017.486-.014.825-.161.939-.691a13.048,13.048,0,0,0,.309-5.632c-.481-2.184-1.984-3.327-4.385-3.332-2.642-.005-4.131,1.065-4.643,3.311a13.228,13.228,0,0,0,.3,5.632c.122.607.536.7,1.045.722.619.032,1.117.291,1.092.986C2544.02,818.091,2544.922,818.306,2546.13,818.113Z" transform="translate(-48.817 -118.11)" fill="#080506"/>
      <path id="Trazado_582863" data-name="Trazado 582863" d="M2522.227,830.264a.883.883,0,0,1-.91.9.816.816,0,0,1-.87-.8.833.833,0,0,1,.831-.958C2521.833,829.375,2522.134,829.73,2522.227,830.264Z" transform="translate(-34.152 -137.371)" fill="#101111"/>
      <path id="Trazado_582864" data-name="Trazado 582864" d="M2606.685,862.49c-.53-.053-.883-.3-.9-.873a.789.789,0,0,1,.763-.872.8.8,0,0,1,.955.788C2607.554,862.1,2607.214,862.384,2606.685,862.49Z" transform="translate(-99.223 -161.261)" fill="#0a0707"/>
      <path id="Trazado_582865" data-name="Trazado 582865" d="M2515.518,861.64a.84.84,0,0,1-.94.812.8.8,0,0,1-.79-.956.786.786,0,0,1,.859-.776A.844.844,0,0,1,2515.518,861.64Z" transform="translate(-29.074 -161.246)" fill="#0a0707"/>
      <path id="Trazado_582866" data-name="Trazado 582866" d="M2551.787,823.771c-1.208.193-2.111-.022-2.055-1.555.025-.7-.473-.954-1.092-.986-.509-.026-.923-.115-1.045-.722a13.228,13.228,0,0,1-.3-5.632c.512-2.246,2-3.317,4.643-3.311,2.4.005,3.9,1.149,4.385,3.332a13.052,13.052,0,0,1-.309,5.632c-.114.53-.452.677-.939.691-.659.019-1.22.262-1.2,1.017C2553.929,823.8,2552.986,823.942,2551.787,823.771Zm-.88-6.556c0-.2-.006-.391,0-.586.023-.613-.135-1.132-.848-1.154s-.917.464-.906,1.093c.008.469,0,.937,0,1.406,0,.6.288,1.007.9.987s.872-.442.851-1.042C2550.9,817.684,2550.906,817.449,2550.907,817.215Zm1.81-.005c0,.234.005.469,0,.7-.016.591.223,1.035.842,1.046.685.012.93-.456.912-1.1-.012-.429-.01-.86,0-1.289.014-.632-.2-1.107-.9-1.1-.638.007-.855.449-.849,1.033C2552.719,816.741,2552.716,816.976,2552.716,817.21Z" transform="translate(-54.473 -123.769)" fill="#f6f6f6"/>
      <path id="Trazado_582867" data-name="Trazado 582867" d="M2557.509,829.758c0,.234-.007.469,0,.7.021.6-.243,1.022-.851,1.042s-.9-.382-.9-.987c0-.469,0-.938,0-1.406-.01-.629.2-1.115.906-1.093s.871.542.848,1.154C2557.5,829.367,2557.509,829.563,2557.509,829.758Z" transform="translate(-61.075 -136.312)" fill="#080506"/>
      <path id="Trazado_582868" data-name="Trazado 582868" d="M2570.749,829.752c0-.234,0-.469,0-.7-.007-.584.21-1.026.849-1.033.706-.008.918.467.9,1.1-.01.43-.012.86,0,1.289.018.641-.227,1.109-.912,1.1-.619-.011-.858-.455-.842-1.046C2570.754,830.221,2570.749,829.986,2570.749,829.752Z" transform="translate(-72.505 -136.311)" fill="#080506"/>
    </g>
  </g>
</svg>
