<svg xmlns="http://www.w3.org/2000/svg" xmlns:xlink="http://www.w3.org/1999/xlink" width="85" height="85" viewBox="0 0 85 85">
  <defs>
    <clipPath id="clip-path">
      <rect id="Rectángulo_281106" data-name="Rectángulo 281106" width="85" height="85" transform="translate(492 1857)" fill="#fff" stroke="#707070" stroke-width="1"/>
    </clipPath>
  </defs>
  <g id="Enmascarar_grupo_700311" data-name="Enmascarar grupo 700311" transform="translate(-492 -1857)" clip-path="url(#clip-path)">
    <g id="Grupo_846363" data-name="Grupo 846363" transform="translate(-1192.22 1523.219)">
      <path id="Trazado_587276" data-name="Trazado 587276" d="M1758.881,364.9a1.465,1.465,0,0,1,1.221,1.66c-.01,6.25.018,12.5-.025,18.75a3.743,3.743,0,0,1-3.017,3.733q-5.052,1.435-10.133,2.764a1.317,1.317,0,0,0-1.172,1.544c.052,5.081.034,10.162.021,15.243-.009,3.678-2.093,5.75-5.776,5.752q-13.719.009-27.438,0c-3.758,0-5.807-2.072-5.813-5.869-.008-4.98-.044-9.96.029-14.939.017-1.151-.374-1.541-1.434-1.806-3.2-.8-6.369-1.716-9.545-2.608-2.42-.68-3.363-1.9-3.367-4.385-.011-6.809-.021-13.618.015-20.426.005-.968-.159-1.468-1.213-1.852a5.98,5.98,0,0,1-3.227-8.637c1.387-2.536,2.952-4.974,4.411-7.471a2.392,2.392,0,0,1,1.57-1.084q15.448-4.388,30.892-8.793a5.086,5.086,0,0,1,2.851.025q15.371,4.38,30.75,8.734a2.9,2.9,0,0,1,1.833,1.455c1.243,2.153,2.545,4.272,3.807,6.415,2.5,4.249.84,8.363-3.925,9.742-.483.14-.949.336-1.423.506-.492.112-.99.2-1.475.339-5.467,1.526-10.968,2.944-16.389,4.62-7.007,2.166-8.689.387-11.574-4.783a5.534,5.534,0,0,0-1.81-2.467c0,3.137.048,6.075-.024,9.011-.027,1.13.43,1.338,1.428,1.324,3.5-.047,7-.019,10.507-.018,4.432,0,6.34,1.883,6.343,6.262,0,3.452.053,6.9-.026,10.355-.03,1.293.354,1.4,1.478,1.062q4.145-1.255,8.356-2.289a2.1,2.1,0,0,0,1.861-2.435c-.074-5.735-.027-11.472-.032-17.207C1757.418,366.05,1757.474,365.036,1758.881,364.9Zm-15.846,11.331a2.285,2.285,0,0,0-2.449-2.183c-1.062-.066-2.133-.018-3.2-.018q-12.418,0-24.837,0c-1.975,0-2.642.5-3.059,2.2-.037.6-.107,1.206-.107,1.809q-.011,14.81,0,29.619c0,.6.065,1.207.1,1.81a2.113,2.113,0,0,0,2.143,2.142c.552.035,1.1.1,1.657.1q11.994.01,23.988,0c1.21,0,2.421-.066,3.631-.1a2.112,2.112,0,0,0,2.141-2.143Q1743.3,392.848,1743.035,376.23Zm-44.142-29.608c.534.235.7.333.877.383q12.877,3.606,25.756,7.2a2.99,2.99,0,0,0,1.649-.048q12.66-3.537,25.319-7.073c.272-.076.777.019.74-.6-7-1.989-14.029-3.937-21.024-5.991-3.316-.974-6.427-1.814-10.036-.629C1714.63,342.347,1706.924,344.326,1698.893,346.622Zm-8.984,9.994a3.363,3.363,0,0,0,2.645,3.548q11.333,3.216,22.688,6.354a3.37,3.37,0,0,0,4.033-1.637c1.491-2.416,2.913-4.875,4.408-7.289.466-.752.439-1.037-.51-1.3q-13.845-3.832-27.662-7.761a1.319,1.319,0,0,0-1.762.668c-1.069,1.9-2.209,3.759-3.321,5.634A3.267,3.267,0,0,0,1689.909,356.616Zm72.712,0a3.278,3.278,0,0,0-.514-1.783c-1.115-1.878-2.258-3.74-3.329-5.642a1.317,1.317,0,0,0-1.768-.654q-13.849,3.909-27.71,7.774c-.847.235-.957.477-.5,1.2,1.084,1.717,2.112,3.471,3.16,5.211,2.682,4.454,2.771,4.51,7.771,3.129q9.981-2.756,19.944-5.577A3.519,3.519,0,0,0,1762.621,356.619Zm-37.627,4.6-.347-.128c-.948,1.575-1.883,3.157-2.847,4.722-1.907,3.1-4.449,4.064-7.919,3.085-5.807-1.638-11.627-3.234-17.427-4.9-1.086-.311-1.379-.1-1.37,1.053q.074,9.75.008,19.5a1.835,1.835,0,0,0,1.609,2.136q4.359,1.054,8.651,2.378c1.267.392,1.431-.013,1.413-1.144-.055-3.554-.025-7.11-.018-10.665.007-3.86,2.058-5.883,5.96-5.886,3.657,0,7.313.006,10.97-.009.559,0,1.316.232,1.316-.771Q1724.993,365.909,1724.994,361.222Z"/>
      <path id="Trazado_587277" data-name="Trazado 587277" d="M1850.631,421.335c-1.407.138-1.464,1.152-1.463,2.225,0,5.736-.042,11.472.032,17.207a2.1,2.1,0,0,1-1.861,2.435q-4.206,1.032-8.356,2.289c-1.124.34-1.507.23-1.478-1.062.079-3.45.029-6.9.026-10.355,0-4.379-1.911-6.261-6.343-6.262-3.5,0-7.005-.029-10.507.018-1,.014-1.456-.194-1.428-1.324.072-2.936.024-5.874.024-9.011a5.533,5.533,0,0,1,1.81,2.467c2.885,5.17,4.567,6.949,11.574,4.783,5.421-1.676,10.922-3.093,16.389-4.62.485-.135.983-.227,1.475-.339Z" transform="translate(-91.75 -56.437)" fill="#b88959"/>
      <path id="Trazado_587278" data-name="Trazado 587278" d="M1793.751,495.405a2.112,2.112,0,0,1-2.141,2.143c-.392-.471-.934-.309-1.42-.309q-13.219-.013-26.437,0c-.486,0-1.028-.162-1.42.31a2.113,2.113,0,0,1-2.143-2.142c.506-.443.307-1.04.308-1.572q.017-15.045,0-30.09c0-.533.2-1.128-.3-1.576.417-1.7,1.084-2.2,3.059-2.2q12.419-.01,24.837,0c1.067,0,2.137-.049,3.2.018a2.285,2.285,0,0,1,2.449,2.183c-.494.449-.3,1.044-.3,1.577q-.017,15.043,0,30.086C1793.446,494.364,1793.248,494.96,1793.751,495.405Zm-18.3-2.9c.161.523.6.453.994.453q5.813,0,11.626,0c.438,0,.946.107,1.086-.525.559-.418.992-.9.722-1.668-.3-.841-1-.89-1.742-.888q-5.943.014-11.886,0c-.8,0-1.575.036-1.811.991C1774.233,491.727,1774.746,492.192,1775.455,492.51Zm13.475-18.279c-.251-.506-.72-.474-1.174-.474H1776.43c-.4,0-.831-.052-.975.478-.716.308-1.214.776-1.011,1.629s.883.993,1.65.991q6.075-.014,12.15,0c.768,0,1.443-.125,1.668-.974S1789.615,474.569,1788.93,474.23Zm.211-5.2c.606-.448,1.074-.955.7-1.782-.325-.719-.956-.8-1.649-.8q-5.99.013-11.979,0c-.685,0-1.346.037-1.678.752a1.366,1.366,0,0,0,.635,1.814c.168.5.593.473,1,.473q5.983,0,11.966,0C1788.535,469.483,1788.962,469.523,1789.141,469.026Zm-6.941,15.66c2.028,0,4.056-.009,6.084,0,.939.006,1.678-.344,1.664-1.34s-.781-1.306-1.706-1.3q-6.085.014-12.168,0c-.926,0-1.67.312-1.655,1.341s.776,1.306,1.7,1.3C1778.144,484.677,1780.172,484.686,1782.2,484.686Zm-16.772-10.376a1.215,1.215,0,0,0-1.313.76c-.488,1.364.767,1.824,1.41,2.576a1.217,1.217,0,0,0,1.878.175c1.394-1.315,2.741-2.681,4.06-4.073a1.119,1.119,0,0,0-.083-1.641,1.2,1.2,0,0,0-1.763-.107c-.355.279-.619.682-.989.933C1767.621,473.616,1767.168,475.686,1765.429,474.31Zm1.3,19.457a1.645,1.645,0,0,0,.59-.26c1.406-1.378,2.815-2.755,4.166-4.186a1.1,1.1,0,0,0-.138-1.634,1.189,1.189,0,0,0-1.767-.031c-.748.678-1.458,1.4-2.154,2.131-.475.5-.8.856-1.593.3a1.228,1.228,0,0,0-1.845,1.062C1763.953,491.982,1765.786,493.808,1766.726,493.766Zm5.022-13.056a1.305,1.305,0,0,0-2.217-.829c-.69.665-1.389,1.324-2.036,2.03-.517.563-.913.859-1.734.343a1.09,1.09,0,0,0-1.707.862c-.225,1.34,1.017,1.865,1.8,2.577.637.583,1.309.232,1.862-.326,1.137-1.147,2.284-2.284,3.427-3.425A1.672,1.672,0,0,0,1771.748,480.71Zm0-15.42a1.264,1.264,0,0,0-.611-1.192,1.22,1.22,0,0,0-1.543.128c-.738.688-1.454,1.4-2.157,2.124-.468.481-.794.917-1.6.325-.748-.551-1.493-.112-1.768.747-.358,1.122.681,1.567,1.248,2.219.442.509,1.061,1.057,1.7.586a27.892,27.892,0,0,0,4.61-4.553A1.025,1.025,0,0,0,1771.748,465.29Z" transform="translate(-50.708 -85.939)" fill="#dfecfc"/>
      <path id="Trazado_587279" data-name="Trazado 587279" d="M1725.48,353.474c8.031-2.3,15.738-4.275,23.281-6.752,3.609-1.185,6.72-.344,10.036.629,6.995,2.054,14.021,4,21.024,5.991.037.615-.468.52-.74.6q-12.655,3.554-25.319,7.073a2.991,2.991,0,0,1-1.649.048q-12.879-3.6-25.756-7.2C1726.179,353.807,1726.014,353.709,1725.48,353.474Z" transform="translate(-26.587 -6.852)" fill="#a37449"/>
      <path id="Trazado_587280" data-name="Trazado 587280" d="M1696.027,384.287a3.266,3.266,0,0,1,.518-1.784c1.112-1.875,2.252-3.735,3.321-5.634a1.319,1.319,0,0,1,1.762-.668q13.825,3.9,27.662,7.761c.948.263.976.547.51,1.3-1.495,2.414-2.917,4.873-4.408,7.289a3.37,3.37,0,0,1-4.033,1.637q-11.355-3.138-22.688-6.354A3.363,3.363,0,0,1,1696.027,384.287Z" transform="translate(-6.118 -27.671)" fill="#d19d70"/>
      <path id="Trazado_587281" data-name="Trazado 587281" d="M1856.72,384.3a3.519,3.519,0,0,1-2.946,3.658q-9.967,2.807-19.944,5.577c-5,1.381-5.089,1.325-7.771-3.129-1.048-1.74-2.076-3.494-3.16-5.211-.457-.724-.347-.966.5-1.2q13.866-3.846,27.71-7.774a1.317,1.317,0,0,1,1.768.654c1.071,1.9,2.214,3.765,3.329,5.642A3.278,3.278,0,0,1,1856.72,384.3Z" transform="translate(-94.099 -27.683)" fill="#d19d70"/>
      <path id="Trazado_587282" data-name="Trazado 587282" d="M1742.905,417.738q0,4.688,0,9.376c0,1-.756.769-1.316.771-3.657.015-7.313.005-10.97.009-3.9,0-5.953,2.027-5.96,5.886-.007,3.555-.037,7.111.018,10.665.018,1.131-.146,1.536-1.413,1.144q-4.284-1.327-8.652-2.378a1.835,1.835,0,0,1-1.609-2.136q.052-9.751-.008-19.5c-.009-1.152.284-1.364,1.37-1.053,5.8,1.663,11.619,3.26,17.427,4.9,3.47.978,6.012.01,7.919-3.085.964-1.565,1.9-3.147,2.847-4.722Z" transform="translate(-17.912 -56.516)" fill="#b88959"/>
      <path id="Trazado_587283" data-name="Trazado 587283" d="M1759.961,467.219c.5.448.3,1.043.3,1.576q.017,15.045,0,30.09c0,.532.2,1.129-.308,1.572-.035-.6-.1-1.207-.1-1.81q-.009-14.81,0-29.619C1759.854,468.425,1759.924,467.822,1759.961,467.219Z" transform="translate(-50.47 -90.989)" fill="#ecfbfe"/>
      <path id="Trazado_587284" data-name="Trazado 587284" d="M1869.407,500.457c-.5-.445-.3-1.041-.305-1.573q-.017-15.043,0-30.086c0-.533-.2-1.128.3-1.577Q1869.692,483.838,1869.407,500.457Z" transform="translate(-126.364 -90.99)" fill="#ecfbfe"/>
      <path id="Trazado_587285" data-name="Trazado 587285" d="M1767.216,582.418c.392-.472.934-.309,1.42-.31q13.219-.013,26.437,0c.486,0,1.028-.162,1.42.309-1.21.035-2.421.1-3.631.1q-11.994.013-23.988,0C1768.321,582.518,1767.769,582.453,1767.216,582.418Z" transform="translate(-55.59 -170.808)" fill="#ecfbfe"/>
      <path id="Trazado_587286" data-name="Trazado 587286" d="M1807.513,483.8a1.366,1.366,0,0,1-.635-1.814c.332-.715.993-.753,1.678-.752q5.99.013,11.979,0c.693,0,1.324.08,1.649.8.373.827-.095,1.334-.7,1.782C1816.827,483.914,1812.17,483.945,1807.513,483.8Z" transform="translate(-83.051 -100.729)" fill="#3a3b3b"/>
      <path id="Trazado_587287" data-name="Trazado 587287" d="M1814.609,535.01c-2.028,0-4.056-.009-6.084,0-.92.006-1.68-.27-1.7-1.3s.728-1.342,1.654-1.341q6.084.006,12.168,0c.925,0,1.692.3,1.706,1.3s-.725,1.346-1.664,1.34C1818.666,535,1816.637,535.01,1814.609,535.01Z" transform="translate(-83.117 -136.263)" fill="#383838"/>
      <path id="Trazado_587288" data-name="Trazado 587288" d="M1821.289,506.754c.685.338,1.207.8.98,1.651s-.9.977-1.668.974q-6.075-.017-12.15,0c-.767,0-1.445-.127-1.65-.991s.3-1.321,1.011-1.629Z" transform="translate(-83.066 -118.463)" fill="#383838"/>
      <path id="Trazado_587289" data-name="Trazado 587289" d="M1807.811,560.678c-.709-.317-1.223-.783-1.01-1.639.237-.955,1.01-.993,1.811-.991q5.943.015,11.886,0c.747,0,1.447.047,1.742.888.27.769-.164,1.25-.723,1.668Z" transform="translate(-83.064 -154.108)" fill="#383838"/>
      <path id="Trazado_587290" data-name="Trazado 587290" d="M1774.117,500.986c1.74,1.376,2.192-.694,3.2-1.378.37-.251.634-.654.989-.933a1.2,1.2,0,0,1,1.763.107,1.119,1.119,0,0,1,.083,1.641c-1.318,1.391-2.666,2.758-4.06,4.073a1.218,1.218,0,0,1-1.879-.175c-.643-.752-1.9-1.212-1.41-2.576A1.216,1.216,0,0,1,1774.117,500.986Z" transform="translate(-59.396 -112.615)" fill="#3c3c3d"/>
      <path id="Trazado_587291" data-name="Trazado 587291" d="M1775.366,556.007c-.94.042-2.772-1.785-2.74-2.621a1.228,1.228,0,0,1,1.845-1.062c.8.559,1.119.2,1.593-.3.7-.732,1.406-1.453,2.154-2.131a1.19,1.19,0,0,1,1.767.031,1.1,1.1,0,0,1,.138,1.634c-1.351,1.431-2.76,2.808-4.166,4.186A1.645,1.645,0,0,1,1775.366,556.007Z" transform="translate(-59.349 -148.18)" fill="#3a3b3b"/>
      <path id="Trazado_587292" data-name="Trazado 587292" d="M1780.486,525.221a1.672,1.672,0,0,1-.61,1.232c-1.142,1.142-2.289,2.278-3.427,3.425-.553.558-1.225.909-1.862.326-.778-.712-2.02-1.237-1.8-2.577a1.09,1.09,0,0,1,1.707-.862c.821.517,1.218.221,1.734-.343.647-.706,1.345-1.365,2.036-2.03a1.305,1.305,0,0,1,2.216.829Z" transform="translate(-59.447 -130.45)" fill="#3a3b3b"/>
      <path id="Trazado_587293" data-name="Trazado 587293" d="M1780.419,474.246a1.023,1.023,0,0,1-.124.386,27.888,27.888,0,0,1-4.61,4.553c-.634.471-1.253-.077-1.7-.586-.566-.652-1.606-1.1-1.248-2.219.274-.859,1.019-1.3,1.768-.747.8.592,1.13.156,1.6-.325.7-.724,1.419-1.436,2.157-2.124a1.22,1.22,0,0,1,1.543-.128A1.264,1.264,0,0,1,1780.419,474.246Z" transform="translate(-59.379 -94.896)" fill="#3a3b3b"/>
      <path id="Trazado_587294" data-name="Trazado 587294" d="M1810.222,566.5l13.707-.074c-.141.632-.648.525-1.086.525q-5.813.006-11.626,0C1810.819,566.954,1810.384,567.024,1810.222,566.5Z" transform="translate(-85.475 -159.93)" fill="#ecfbfe"/>
      <path id="Trazado_587295" data-name="Trazado 587295" d="M1823.7,505.67l-13.476,0c.144-.529.574-.478.975-.478h11.326C1822.976,505.2,1823.445,505.164,1823.7,505.67Z" transform="translate(-85.474 -117.379)" fill="#ecfbfe"/>
      <path id="Trazado_587296" data-name="Trazado 587296" d="M1809.29,489.644c4.656.145,9.313.114,13.97.016-.179.5-.606.457-1.008.457q-5.983,0-11.965,0C1809.883,490.117,1809.458,490.147,1809.29,489.644Z" transform="translate(-84.827 -106.573)" fill="#ecfbfe"/>
    </g>
  </g>
</svg>
