<svg xmlns="http://www.w3.org/2000/svg" xmlns:xlink="http://www.w3.org/1999/xlink" width="85" height="85" viewBox="0 0 85 85">
  <defs>
    <clipPath id="clip-path">
      <rect id="Rectángulo_280679" data-name="Rectángulo 280679" width="85" height="85" transform="translate(492 1857)" fill="#fff" stroke="#707070" stroke-width="1"/>
    </clipPath>
  </defs>
  <g id="Enmascarar_grupo_700227" data-name="Enmascarar grupo 700227" transform="translate(-492 -1857)" clip-path="url(#clip-path)">
    <g id="Grupo_845278" data-name="Grupo 845278" transform="translate(-788.021 1570.786)">
      <path id="Trazado_582629" data-name="Trazado 582629" d="M1299.214,293.641l2.972-.006c.274,1.088,1.1,1.147,2.02,1.144q6.223-.024,12.447,0c1.775,0,1.988.228,1.995,2.032.009,2.429-.023,4.858.013,7.286.023,1.551.791,2.059,2.29,1.6q1.885-.572,3.77-1.142a2.95,2.95,0,0,1,2.216.141,4.94,4.94,0,0,1-6.3,5c-1.079-.254-2.134-.618-3.192-.958-1.013-.325-1.535-.109-1.493,1.084.057,1.619-.047,3.245.025,4.863.214,4.8-.445,5.036-5.063,4.866q.118-.6.235-1.194a6.313,6.313,0,0,0-9.759-6.5,6.2,6.2,0,0,0-2.563,6.655,18.38,18.38,0,0,0,.745,2.629c.306.79.068.955-.691.943-2.029-.033-4.059-.031-6.088-.006-1.124.013-1.511-.55-1.51-1.606q.021-12.023,0-24.046c0-1.151.449-1.686,1.621-1.661,1.521.033,3.044-.017,4.565.014A1.576,1.576,0,0,0,1299.214,293.641Z" transform="translate(-5.319 -2.748)" fill="#a9d67f"/>
      <path id="Trazado_582630" data-name="Trazado 582630" d="M1304.932,415.728c2.294,0,4.522-.011,6.75,0,2.547.016,3.893,1.308,3.918,3.8.027,2.589.021,5.179,0,7.768-.015,1.824-.767,2.311-2.53,1.738-1.348-.439-2.693-.908-4.071-1.226a3.814,3.814,0,0,0-4.078,1.711,4.006,4.006,0,0,0,.031,4.452,3.878,3.878,0,0,0,4.109,1.661c1.375-.335,2.717-.81,4.067-1.244,1.68-.54,2.454-.045,2.47,1.674.026,2.64.031,5.281,0,7.92a3.4,3.4,0,0,1-3.684,3.713q-12.262.025-24.524,0a3.414,3.414,0,0,1-3.737-3.683q-.055-12.262,0-24.523c.009-2.41,1.415-3.732,3.83-3.759,1.777-.02,3.558-.073,5.33.018,1.269.065,1.725-.119,1.178-1.521a7.372,7.372,0,0,1-.474-4.761,6.355,6.355,0,0,1,7.531-4.56,6.223,6.223,0,0,1,4.78,7.35C1305.6,413.392,1305.253,414.5,1304.932,415.728Zm7.841,21.321-1.992.633c-.6.1-1.191.243-1.792.309a6.292,6.292,0,0,1-6.911-5.06,6.378,6.378,0,0,1,4.794-7.4,9.012,9.012,0,0,1,3.762.192c.52.185,1.053.339,1.556.561.975.432,1.2.062,1.16-.9-.063-1.606-.016-3.216-.017-4.824,0-2.511-.108-2.606-2.693-2.432-2.18-.021-4.361-.018-6.54-.07-1.644-.04-2.177-.818-1.694-2.372.376-1.209.826-2.4,1.123-3.628a3.829,3.829,0,0,0-1.585-4.279,4.052,4.052,0,0,0-4.447-.1,3.905,3.905,0,0,0-1.721,4.362c.261,1.132.652,2.237,1.019,3.342.637,1.922.135,2.664-1.883,2.678-2.435.017-4.871.024-7.306,0-1.039-.012-1.646.324-1.642,1.467q.041,11.642.058,23.284c-.12,2.2.051,2.549,1.547,2.553,8.051.021,16.1,0,24.153.019,1.172,0,1.638-.53,1.614-1.67-.046-2.125-.043-4.251-.06-6.377C1313.31,436.895,1313.088,436.893,1312.773,437.049Z" transform="translate(0 -79.972)" fill="#0a0a0b"/>
      <path id="Trazado_582631" data-name="Trazado 582631" d="M1464.7,314.544a1.33,1.33,0,0,1,1.073,1.3,22.92,22.92,0,0,1-.047,2.737,3.382,3.382,0,0,1-3.532,3.094c-2.331.042-4.664.01-7.106.01.309,1.22.63,2.329.868,3.455a6.287,6.287,0,0,1-9.7,6.438,5.954,5.954,0,0,1-2.681-6.322c.21-1.138.571-2.249.915-3.57-2.2,0-4.343,0-6.491,0-2.928-.007-4.171-1.237-4.181-4.149-.009-2.487-.018-4.974,0-7.461.016-1.747.778-2.284,2.42-1.721a28.772,28.772,0,0,0,4.214,1.277,3.992,3.992,0,0,0,3.981-6.211,3.72,3.72,0,0,0-4.111-1.632c-1.421.358-2.8.867-4.208,1.3-1.484.456-2.273-.073-2.291-1.616-.032-2.741-.042-5.483,0-8.223a3.335,3.335,0,0,1,3.552-3.526q12.411-.033,24.821,0a3.273,3.273,0,0,1,3.524,3.243c.092,5.683.046,11.369.052,17.054a1.326,1.326,0,0,1-1.093,1.436c-1.14-.159-1.241-.955-1.238-1.9.019-5.109.011-10.218.007-15.326,0-2.105-.218-2.29-2.418-2.112q-11.714-.04-23.429-.084c-1.108,0-1.534.547-1.522,1.607.024,1.978.05,3.958-.011,5.935-.031,1,.385.927,1.092.7a19.05,19.05,0,0,1,3.078-.818,6.3,6.3,0,0,1,6.024,9.892,6.041,6.041,0,0,1-6.549,2.5,18,18,0,0,1-2.623-.771c-.847-.31-1.038-.025-1.018.8q.069,2.89,0,5.782c-.029,1.253.529,1.721,1.748,1.689,1.926-.05,3.857.046,5.782-.027,3.1-.117,4.5.061,2.9,3.952-.577,1.4-1.245,2.941-.4,4.534a3.908,3.908,0,0,0,4.938,2.339,3.957,3.957,0,0,0,2.6-4.72c-.258-1.182-.685-2.329-1.061-3.483-.593-1.818-.073-2.585,1.844-2.6q3.724-.033,7.449,0c1.082.012,1.609-.441,1.571-1.538-.019-.557.026-1.116-.008-1.672A1.361,1.361,0,0,1,1464.7,314.544Z" transform="translate(-104.38 -0.019)" fill="#0b0a08"/>
      <path id="Trazado_582632" data-name="Trazado 582632" d="M1293.91,290.893a1.576,1.576,0,0,1-1.748,1.139c-1.521-.031-3.044.019-4.565-.014-1.171-.025-1.624.51-1.621,1.661q.03,12.023,0,24.046c0,1.055.385,1.619,1.51,1.606,2.029-.024,4.059-.027,6.088.006.759.013,1-.152.691-.943a18.38,18.38,0,0,1-.745-2.629,6.2,6.2,0,0,1,2.563-6.655,6.313,6.313,0,0,1,9.759,6.5q-.116.6-.235,1.194a11.129,11.129,0,0,1-.411,1.142c-.546,1.133-.206,1.47,1.024,1.4,1.772-.1,3.555-.072,5.33-.01,1.311.046,1.838-.483,1.811-1.793-.051-2.436-.029-4.875-.008-7.312.015-1.774.737-2.283,2.407-1.763,1.162.362,2.311.782,3.494,1.055a3.9,3.9,0,0,0,4.85-2.572c.71-2.092-.234-4-2.472-5.007a2.95,2.95,0,0,0-2.216-.141q-1.886.568-3.77,1.142c-1.5.455-2.267-.053-2.29-1.6-.035-2.428,0-4.857-.013-7.286-.007-1.8-.22-2.027-1.995-2.032q-6.223-.015-12.447,0c-.915,0-1.745-.056-2.02-1.144.185-.9.748-1.207,1.645-1.2,4.52.025,9.041-.01,13.561.021a3.356,3.356,0,0,1,3.527,3.558c.044,2.031.052,4.064,0,6.094-.027.979.262,1.139,1.132.779a12.286,12.286,0,0,1,2.192-.621,6.306,6.306,0,0,1,6.643,2.67,6.39,6.39,0,0,1-.1,7.159,6.294,6.294,0,0,1-6.717,2.471c-.2-.046-.393-.1-.59-.152-2.538-.656-2.538-.656-2.538,1.924,0,1.473.025,2.946-.008,4.419a3.407,3.407,0,0,1-3.6,3.656c-2.691.04-5.384.034-8.075,0-1.635-.02-2.139-.808-1.631-2.392.418-1.3.893-2.592,1.225-3.917a3.833,3.833,0,0,0-1.554-4.294,4.012,4.012,0,0,0-4.571-.049,3.808,3.808,0,0,0-1.643,4.257c.295,1.28.751,2.524,1.169,3.773.64,1.914.138,2.623-1.925,2.631q-3.657.015-7.314,0c-2.7-.013-4.026-1.314-4.032-4.023-.018-7.212-.007-14.424-.007-21.636,0-.965-.042-1.933.02-2.894a3.415,3.415,0,0,1,3.544-3.412c1.675-.033,3.353.029,5.027-.021A1.461,1.461,0,0,1,1293.91,290.893Z" transform="translate(-0.015)" fill="#0a0b09"/>
      <path id="Trazado_582633" data-name="Trazado 582633" d="M1425.4,471.521c-.187.909-.772,1.189-1.66,1.183-3.809-.027-7.619.012-11.428-.022a3.361,3.361,0,0,1-3.525-3.559c-.042-1.98-.07-3.964.01-5.941.046-1.147-.31-1.309-1.286-.885a10.617,10.617,0,0,1-1.9.548,6.327,6.327,0,1,1,.035-12.272c.149.034.293.082.441.119,2.685.681,2.685.681,2.686-2.2,0-1.422-.032-2.845.012-4.266a3.361,3.361,0,0,1,3.444-3.5c2.792-.056,5.587-.046,8.38,0,1.445.024,1.97.847,1.535,2.246-.406,1.306-.895,2.59-1.245,3.91a3.927,3.927,0,0,0,1.516,4.445,4.07,4.07,0,0,0,4.575.048,3.916,3.916,0,0,0,1.613-4.41c-.291-1.178-.708-2.327-1.1-3.477-.716-2.089-.227-2.771,2.039-2.776,2.387-.005,4.774-.01,7.161,0,2.7.013,4.025,1.311,4.032,4.024.019,6.958.007,13.916.007,20.875,0,1.168.037,2.338-.015,3.5a3.443,3.443,0,0,1-3.705,3.566c-2.184.023-4.368-.024-6.552.019-.93.019-1.593-.216-1.816-1.2a1.532,1.532,0,0,1,1.73-1.15c1.981.025,3.962.013,5.943.005,1.918-.007,2.09-.175,2.091-2.09q.006-11.352,0-22.7c0-2.548-.078-2.617-2.72-2.448-1.622-.021-3.246,0-4.865-.079-.988-.047-.921.343-.664,1.064a21.248,21.248,0,0,1,.766,2.781,6.306,6.306,0,1,1-12.4.062c.26-1.271.648-2.516,1.01-3.892-2.338,0-4.566.036-6.793-.014-1.25-.028-1.733.5-1.711,1.725.042,2.384.018,4.769.009,7.154-.008,2.078-.678,2.549-2.618,1.922-1.2-.389-2.413-.784-3.646-1.055a3.811,3.811,0,0,0-4.07,1.723,3.911,3.911,0,0,0,.06,4.443,3.729,3.729,0,0,0,4.1,1.644c1.229-.3,2.436-.692,3.641-1.079,1.786-.573,2.5-.1,2.527,1.739.031,2.18.043,4.36.063,6.54-.148,2.412-.016,2.563,2.295,2.564,3.383,0,6.765.011,10.148-.005C1424.445,470.357,1425.175,470.516,1425.4,471.521Z" transform="translate(-79.34 -104.961)" fill="#090a0c"/>
      <path id="Trazado_582634" data-name="Trazado 582634" d="M1492.774,319.926a1.361,1.361,0,0,0-1.245,1.6c.034.555-.011,1.115.008,1.672.038,1.1-.489,1.549-1.57,1.538q-3.725-.039-7.449,0c-1.917.016-2.437.783-1.844,2.6.376,1.154.8,2.3,1.061,3.483a3.957,3.957,0,0,1-2.6,4.72,3.908,3.908,0,0,1-4.937-2.339c3.035.152,6.168-3.543,4.9-6.613-.378-.918-.486-1.951-.918-2.873-.483-1.029-.339-1.567,1.005-1.51,2.073.09,4.154.024,6.231.023,2.779,0,3.694-.923,3.7-3.749q.008-10.489.007-20.977c2.2-.177,2.417.007,2.418,2.112,0,5.109.012,10.218-.007,15.326,0,.942.1,1.738,1.238,1.9Q1492.768,318.382,1492.774,319.926Z" transform="translate(-132.451 -5.401)" fill="#e9bc69"/>
      <path id="Trazado_582635" data-name="Trazado 582635" d="M1466.006,448.539c2.641-.17,2.72-.1,2.72,2.448q0,11.352,0,22.7c0,1.915-.172,2.083-2.091,2.09-1.981.007-3.962.02-5.943-.005a1.532,1.532,0,0,0-1.73,1.15l-3.255.011c-.224-1.005-.954-1.164-1.84-1.16-3.383.017-6.765.008-10.148.005-2.311,0-2.443-.152-2.295-2.564,7.309,0,14.619-.018,21.927.03a2.394,2.394,0,0,0,2.585-1.65,8.771,8.771,0,0,0,.348-2.843C1466.156,462.016,1466.647,455.269,1466.006,448.539Z" transform="translate(-109.646 -110.375)" fill="#7fb2f7"/>
      <path id="Trazado_582636" data-name="Trazado 582636" d="M1370.169,329.9c2.238,1,3.182,2.915,2.472,5.007a3.9,3.9,0,0,1-4.85,2.572c-1.183-.273-2.332-.693-3.494-1.055-1.67-.52-2.391-.011-2.407,1.763-.021,2.438-.042,4.876.008,7.312.027,1.31-.5,1.839-1.811,1.793-1.775-.062-3.558-.087-5.33.01-1.23.067-1.57-.27-1.024-1.4a11.129,11.129,0,0,0,.411-1.142c4.619.171,5.278-.068,5.063-4.866-.072-1.618.032-3.244-.025-4.863-.042-1.194.479-1.41,1.493-1.084,1.058.34,2.112.7,3.192.958A4.94,4.94,0,0,0,1370.169,329.9Z" transform="translate(-48.552 -27.956)" fill="#7ec78b"/>
      <path id="Trazado_582637" data-name="Trazado 582637" d="M1291.342,448.119q-.027-11.642-.058-23.284c0-1.143.6-1.479,1.642-1.467,2.435.028,4.871.021,7.306,0,2.019-.014,2.52-.757,1.883-2.678-.367-1.106-.758-2.21-1.019-3.342a3.906,3.906,0,0,1,1.721-4.362,4.052,4.052,0,0,1,4.447.1,3.829,3.829,0,0,1,1.585,4.279c-.3,1.228-.747,2.419-1.123,3.628-.483,1.554.05,2.332,1.694,2.372,2.179.052,4.36.049,6.54.07q0,3.8-.005,7.591a9.012,9.012,0,0,0-3.762-.192,6.378,6.378,0,0,0-4.794,7.4,6.292,6.292,0,0,0,6.911,5.06c.6-.066,1.2-.2,1.793-.309-.047.856-.117,1.712-.137,2.569-.04,1.75-.839,2.567-2.606,2.568Q1302.351,448.131,1291.342,448.119Z" transform="translate(-5.322 -85.277)" fill="#caaee8"/>
      <path id="Trazado_582638" data-name="Trazado 582638" d="M1291.4,516.449q11.009,0,22.018,0c1.768,0,2.567-.818,2.606-2.568.02-.857.09-1.713.137-2.569l1.992-.633.5.291c.017,2.126.014,4.252.06,6.377.024,1.14-.442,1.672-1.614,1.67-8.051-.016-16.1,0-24.153-.019C1291.455,519,1291.283,518.654,1291.4,516.449Z" transform="translate(-5.383 -153.607)" fill="#ba95df"/>
      <path id="Trazado_582639" data-name="Trazado 582639" d="M1372.184,456.118q0-3.8.005-7.591c2.585-.174,2.692-.079,2.693,2.432,0,1.608-.046,3.218.017,4.824.038.958-.185,1.328-1.16.9C1373.237,456.457,1372.7,456.3,1372.184,456.118Z" transform="translate(-61.551 -110.367)" fill="#b691da"/>
      <path id="Trazado_582640" data-name="Trazado 582640" d="M1379.7,510.761l-.5-.291C1379.516,510.314,1379.739,510.316,1379.7,510.761Z" transform="translate(-66.429 -153.393)" fill="#b691da"/>
      <path id="Trazado_582641" data-name="Trazado 582641" d="M1466.232,297.429q0,10.489-.007,20.977c0,2.826-.917,3.748-3.7,3.749-2.077,0-4.158.066-6.231-.023-1.344-.058-1.488.481-1.005,1.51.432.922.54,1.954.919,2.873,1.266,3.07-1.867,6.765-4.9,6.613-.85-1.593-.182-3.13.4-4.534,1.6-3.891.208-4.068-2.9-3.952-1.925.072-3.856-.024-5.782.027-1.22.032-1.777-.436-1.748-1.689q.066-2.89,0-5.782c-.02-.824.171-1.109,1.018-.8a17.992,17.992,0,0,0,2.623.771,6.041,6.041,0,0,0,6.549-2.5,6.3,6.3,0,0,0-6.024-9.892,19.053,19.053,0,0,0-3.078.818c-.707.224-1.122.292-1.092-.7.062-1.977.035-3.956.012-5.935-.012-1.06.413-1.612,1.522-1.607Q1454.518,297.4,1466.232,297.429Z" transform="translate(-109.568 -5.327)" fill="#fcce63"/>
      <path id="Trazado_582642" data-name="Trazado 582642" d="M1440.9,448.476c.641,6.73.15,13.477.278,20.216a8.767,8.767,0,0,1-.348,2.843,2.394,2.394,0,0,1-2.585,1.65c-7.309-.048-14.618-.027-21.928-.03-.02-2.18-.032-4.36-.063-6.54-.026-1.838-.741-2.312-2.527-1.739-1.205.387-2.412.783-3.641,1.079a3.729,3.729,0,0,1-4.1-1.644,3.912,3.912,0,0,1-.06-4.443,3.811,3.811,0,0,1,4.07-1.723c1.234.271,2.443.665,3.646,1.055,1.94.627,2.61.156,2.618-1.922.009-2.384.033-4.77-.009-7.154-.022-1.226.461-1.754,1.711-1.725,2.226.05,4.454.014,6.793.014-.361,1.376-.75,2.62-1.01,3.892a6.305,6.305,0,1,0,12.4-.062,21.213,21.213,0,0,0-.766-2.781c-.257-.721-.324-1.112.664-1.064C1437.651,448.473,1439.275,448.454,1440.9,448.476Z" transform="translate(-84.537 -110.312)" fill="#9cc4f9"/>
    </g>
  </g>
</svg>
