<svg xmlns="http://www.w3.org/2000/svg" width="85.215" height="78.055" viewBox="0 0 85.215 78.055">
  <g id="Grupo_845559" data-name="Grupo 845559" transform="translate(-7099.235 412.835)">
    <path id="Trazado_583491" data-name="Trazado 583491" d="M7141.941-412.78q20.207,0,40.413.012c.921,0,2.058-.523,2.088,1.36.031,2-1.191,1.448-2.173,1.455-4.077.028-8.154.042-12.23-.01-.979-.012-1.321.231-1.292,1.259.072,2.6.054,5.2.006,7.8a1.333,1.333,0,0,0,.932,1.426,7.1,7.1,0,0,1,3.25,8.383c-.407,1.071-1.545,1.413-2.4,2-.7.479-1.029.757-.3,1.555,2.908,3.184,5.752,6.427,8.609,9.657a2.748,2.748,0,0,0,1.15.783,4.23,4.23,0,0,1,2.968,4.345c0,.345-.016.937.139,1,1.89.746,1.248,2.373,1.253,3.68.041,10.221.023,20.442.021,30.663,0,2.462-.171,2.636-2.61,2.636q-39.97,0-79.939,0c-2.322,0-2.541-.217-2.541-2.525,0-13.943.021-27.886-.034-41.829a2.469,2.469,0,0,1,1.869-2.733c6.975-2.559,13.923-5.192,20.877-7.81a6.669,6.669,0,0,1,2.416-.421q11.079.027,22.156,0a5.836,5.836,0,0,1,2.4.494c3.732,1.618,7.49,3.179,11.2,4.842.958.429,1.643.489,2.231-.463a5.21,5.21,0,0,1,.463-.535c.71-.857,1.922-1.684,1.979-2.583.054-.842-1.545-1.194-2.336-1.866a2.5,2.5,0,0,1-.7-.775c-1.192-2.65.3-7.023,2.977-8.335a1.811,1.811,0,0,0,1.18-2c-.062-2.3-.1-4.612.012-6.91.071-1.375-.311-1.746-1.718-1.742-16.721.054-33.441.035-50.162.034-4.49,0-8.981-.06-13.47.037-1.335.029-1.313-.569-1.372-1.557-.069-1.149.351-1.344,1.4-1.341Q7121.291-412.752,7141.941-412.78Zm15.85,32.624c1.834-1.77,1.834-1.769-.418-2.739-1.353-.582-2.7-1.181-4.058-1.752-2.062-.866-4.09-2.3-6.209-2.453-4.933-.367-9.912-.117-14.871-.117a2.137,2.137,0,0,0,1.046.725q6.2,2.335,12.411,4.659c.846.316,1.679.622,1.871,1.662-.15,2.84-.15,2.84,2.67,2.84a10.343,10.343,0,0,1,1.937.018C7154.8-376.8,7156.519-378.019,7157.791-380.156Zm-34.386,8.505c-6.618,0-13.236.029-19.854-.028-1.177-.01-1.463.338-1.459,1.481q.064,15.509.013,31.02c0,.975-.021,1.631,1.341,1.612,1.282-.018,1.538-.411,1.531-1.613-.053-8.153-.032-16.307-.025-24.461,0-2.061.284-2.339,2.375-2.34q16.043-.009,32.084,0c2.162,0,2.413.264,2.414,2.484q.007,12.053-.008,24.107c0,1.061-.112,1.863,1.48,1.836,1.508-.026,1.371-.782,1.37-1.767-.015-10.221-.044-20.444.03-30.665.011-1.481-.49-1.7-1.793-1.693C7136.4-371.619,7129.9-371.651,7123.405-371.651Zm.095,8.51c-4.723,0-9.446.023-14.169-.017-1.043-.009-1.579.115-1.569,1.4q.092,11.423,0,22.847c-.009,1.2.5,1.294,1.475,1.322,1.077.031,1.458-.281,1.4-1.392-.087-1.826-.035-3.659-.021-5.489.032-4.438-.635-4.648,4.3-4.474,1.1.039,1.418-.315,1.389-1.4-.072-2.655.005-5.313-.034-7.969-.022-1.435.62-2.023,2.033-2.008,3.365.035,6.731.043,10.1,0,1.529-.021,2.13.65,2.085,2.141-.056,1.828-.014,3.66-.014,5.49,0,3.613,0,3.657,3.62,3.707,1.539.021,2.1.688,2.067,2.166-.052,2.6.027,5.2-.035,7.792-.024,1.033.2,1.465,1.354,1.447,1.105-.017,1.531-.247,1.522-1.461q-.081-11.334,0-22.67c.008-1.208-.406-1.463-1.52-1.451C7132.829-363.109,7128.164-363.141,7123.5-363.141Zm-.112-11.351c6.5,0,13-.031,19.5.026,1.3.011,2.049-.2,1.785-1.7a3.743,3.743,0,0,1,0-1.237c.22-1.328-.329-1.959-1.607-2.42-6.16-2.226-12.283-4.556-18.411-6.87a2.855,2.855,0,0,0-2.2-.14q-9.6,3.656-19.227,7.219a1.409,1.409,0,0,0-1.12,1.681,6.225,6.225,0,0,1,0,1.592c-.212,1.429.257,1.906,1.789,1.884C7110.391-374.545,7116.89-374.492,7123.388-374.492Zm36.828,36.872c3.837,0,7.674-.029,11.51.019.971.012,1.335-.221,1.319-1.265q-.086-5.842,0-11.686c.016-1.042-.347-1.27-1.318-1.265q-11.421.052-22.844,0c-1.048-.006-1.434.219-1.413,1.356q.11,5.753,0,11.509c-.022,1.135.36,1.374,1.412,1.358C7152.66-337.655,7156.438-337.62,7160.216-337.62Zm2.878-17.018c2.833,0,5.668-.032,8.5.018.98.017,1.483-.1,1.458-1.3-.081-3.894-.053-7.791-.013-11.687.01-.9-.209-1.231-1.173-1.225q-8.766.062-17.532,0c-.957-.007-1.19.314-1.181,1.218.042,3.9.068,7.792-.012,11.687-.025,1.2.462,1.33,1.451,1.311C7157.426-354.672,7160.261-354.638,7163.094-354.638Zm12.771-7.266v3.18c0,4.188,0,4.15,4.291,4.111,1.06-.01,1.432-.254,1.4-1.372-.079-2.884-.026-5.771-.026-8.657,0-4.321,0-4.29-4.379-4.2-.978.021-1.349.253-1.308,1.282C7175.918-365.675,7175.865-363.788,7175.864-361.9Zm0,17.2v2.826c0,4.366,0,4.327,4.3,4.284,1.071-.011,1.424-.278,1.4-1.382-.075-2.882-.025-5.768-.025-8.652,0-4.326,0-4.293-4.385-4.193-.986.023-1.339.276-1.3,1.292C7175.916-348.589,7175.865-346.645,7175.864-344.7Zm-11.409-38.431c1.219,1.125,3.527.86,4.1,2.459.528,1.474.206,3.262.212,4.912.016,4.163.005,4.119,4.25,4.138,1.143,0,1.574-.273,1.452-1.452a2.988,2.988,0,0,1,.928-2.586c.93-.809.5-1.29-.116-1.964-1.759-1.912-3.463-3.875-5.187-5.819C7167.2-386.7,7167.2-386.7,7164.455-383.134Zm-45.32,29.839c0,1.062.062,2.129-.019,3.185-.074.977.333,1.188,1.222,1.164,2-.056,4.014-.065,6.018,0,.978.033,1.354-.219,1.309-1.263-.083-1.884-.036-3.775-.021-5.663.007-.907.152-1.7-1.293-1.649-1.213.044-1.768.31-1.541,1.567.208,1.145-.34,1.393-1.383,1.345-.906-.042-1.68.006-1.466-1.264.19-1.128-.118-1.626-1.456-1.652-1.51-.029-1.414.763-1.376,1.75C7119.161-354.948,7119.136-354.121,7119.135-353.3Zm2.83,11.4c0-.944-.058-1.893.017-2.831.081-1.023-.158-1.486-1.33-1.431-1.029.048-1.741.117-1.517,1.4.192,1.1-.2,1.523-1.408,1.512-1.165-.011-1.563-.337-1.464-1.491.04-.471.389-1.187-.57-1.4-1.655-.36-2.218.038-2.228,1.73,0,.826,0,1.652,0,2.478,0,4.3,0,4.3,4.241,4.3C7121.969-337.619,7121.969-337.619,7121.964-341.9Zm11.343.027c0-.942-.046-1.886.013-2.825.06-.973-.091-1.528-1.3-1.455-1,.06-1.752.08-1.534,1.386.181,1.082-.177,1.54-1.4,1.519-1.144-.02-1.644-.319-1.447-1.476.208-1.225-.406-1.409-1.488-1.434-1.136-.026-1.435.368-1.348,1.416.077.935.008,1.882.008,2.824,0,4.3,0,4.3,4.232,4.3C7133.315-337.618,7133.315-337.618,7133.307-341.87Zm14.208-22.735h-.016c0,2.827.044,5.656-.022,8.482-.025,1.1.211,1.537,1.432,1.533,1.2,0,1.46-.4,1.445-1.519-.058-4.3-.016-8.6-.028-12.9,0-1.011-.04-1.948.947-2.668.83-.6.585-1.68.4-2.468-.148-.64-1.019-.233-1.564-.3-.405-.052-.831.04-1.234-.02-1.118-.168-1.405.324-1.382,1.383C7147.556-370.261,7147.515-367.432,7147.515-364.605Zm22.671-29c.011-2.219-1-3.522-2.771-3.562-1.794-.04-2.885,1.252-2.9,3.431-.007,1.291,1.726,3.243,2.857,3.219C7168.453-390.54,7170.18-392.438,7170.186-393.605Zm-7.133,21.95a5.324,5.324,0,0,0,.878-.008c.823-.14,2,.593,2.052-1.225s-.987-1.6-2.1-1.574c-.7.015-1.408.029-2.11,0-.94-.044-1.616-.092-1.565,1.313.046,1.285.427,1.668,1.611,1.506A9.172,9.172,0,0,1,7163.053-371.655Zm-3.85-5.676c2.07,0,3.77.016,5.468-.01.477-.007,1.157.228,1.226-.6.052-.627.12-1.183-.671-1.607-2.752-1.472-2.729-1.519-4.749.734C7160.132-378.425,7159.8-378.025,7159.2-377.331Zm-3.12,5.662c.7.034,1.417.142,1.35-1-.06-1.02-.358-1.8-1.485-1.773-1.018.026-1.3.768-1.37,1.712C7154.483-371.458,7155.313-371.655,7156.083-371.669Zm22.732-.018c.772.16,1.4.055,1.307-1.111-.077-.957-.417-1.652-1.432-1.649s-1.336.71-1.42,1.662C7177.164-371.573,7177.885-371.6,7178.816-371.687Z" fill="#040302"/>
    <path id="Trazado_583492" data-name="Trazado 583492" d="M7313.9-378.062a10.354,10.354,0,0,0,.011,1.409c.16,1.158-.154,1.6-1.468,1.625-1.46.029-1.458-.675-1.391-1.7a9.052,9.052,0,0,0-.014-2.288c-.356-1.839.733-1.807,2.012-1.767.735.023.895.324.857.959C7313.877-379.239,7313.9-378.65,7313.9-378.062Z" transform="translate(-136.624 -20.674)" fill="#040302"/>
    <path id="Trazado_583493" data-name="Trazado 583493" d="M7313.945-395.214c.369,1.41-.6,1.194-1.5,1.3-1.387.166-1.239-.635-1.339-1.564-.15-1.389.638-1.246,1.568-1.337C7314.034-396.948,7314.113-396.239,7313.945-395.214Z" transform="translate(-136.695 -10.327)" fill="#040302"/>
    <path id="Trazado_583494" data-name="Trazado 583494" d="M7128.6-296.794c6.5,0,13,.032,19.5-.027,1.3-.012,1.8.211,1.794,1.693-.075,10.221-.045,20.443-.03,30.665,0,.985.138,1.74-1.37,1.767-1.592.027-1.483-.775-1.48-1.836q.028-12.053.008-24.107c0-2.22-.252-2.483-2.414-2.484q-16.042-.007-32.084,0c-2.092,0-2.374.279-2.376,2.34-.006,8.154-.028,16.308.025,24.461.007,1.2-.249,1.6-1.531,1.613-1.362.019-1.342-.637-1.341-1.612q.03-15.51-.013-31.02c0-1.143.282-1.492,1.459-1.481C7115.367-296.764,7121.985-296.794,7128.6-296.794Z" transform="translate(-5.198 -74.857)" fill="#f4b85f"/>
    <path id="Trazado_583495" data-name="Trazado 583495" d="M7139.009-272.8c4.664,0,9.329.031,13.992-.023,1.113-.013,1.527.242,1.519,1.451q-.081,11.334,0,22.67c.009,1.214-.417,1.443-1.522,1.461-1.151.018-1.377-.414-1.354-1.447.062-2.6-.018-5.2.035-7.792.03-1.478-.528-2.145-2.067-2.166-3.621-.05-3.62-.094-3.62-3.707,0-1.83-.042-3.662.014-5.49.045-1.491-.556-2.163-2.085-2.141-3.365.047-6.73.039-10.1,0-1.413-.015-2.055.573-2.033,2.008.04,2.656-.038,5.315.034,7.969.029,1.083-.285,1.437-1.389,1.4-4.939-.174-4.273.036-4.3,4.474-.013,1.83-.066,3.663.021,5.489.054,1.111-.327,1.423-1.4,1.392-.971-.028-1.483-.119-1.475-1.322q.081-11.423,0-22.847c-.01-1.284.526-1.407,1.569-1.4C7129.563-272.773,7134.286-272.8,7139.009-272.8Z" transform="translate(-15.509 -90.345)" fill="#c18124"/>
    <path id="Trazado_583496" data-name="Trazado 583496" d="M7128.521-327.488c-6.5,0-13-.053-19.494.039-1.532.022-2-.455-1.789-1.884a6.247,6.247,0,0,0,0-1.592,1.409,1.409,0,0,1,1.119-1.681q9.636-3.553,19.227-7.219a2.855,2.855,0,0,1,2.2.14c6.129,2.314,12.251,4.643,18.411,6.87,1.278.462,1.827,1.092,1.607,2.42a3.73,3.73,0,0,0,0,1.237c.265,1.5-.487,1.707-1.784,1.7C7141.52-327.519,7135.021-327.488,7128.521-327.488Zm.006-9.927c-4.6-.04-4.263-.234-4.271,4.337-.008,4.423-.239,4.184,4.256,4.185,4.595,0,4.266.221,4.272-4.347C7132.793-337.672,7133.012-337.452,7128.527-337.415Z" transform="translate(-5.133 -47.004)" fill="#dc645f"/>
    <path id="Trazado_583497" data-name="Trazado 583497" d="M7247.95-226.641c-3.777,0-7.556-.035-11.333.023-1.051.016-1.433-.222-1.411-1.358q.108-5.753,0-11.509c-.022-1.137.363-1.362,1.413-1.356q11.42.061,22.842,0c.972,0,1.335.223,1.319,1.265q-.088,5.842,0,11.686c.016,1.044-.349,1.277-1.319,1.265C7255.625-226.67,7251.787-226.641,7247.95-226.641Zm-7.044-7.121c0-1.062-.063-2.128.018-3.184.085-1.117-.589-1.091-1.337-1.039-.7.049-1.593-.321-1.541,1.012.076,1.944.058,3.893,0,5.839-.028,1.05-.018,1.724,1.423,1.718,1.4-.005,1.527-.6,1.446-1.693C7240.854-231.989,7240.906-232.878,7240.906-233.762Zm5.673.046c0-1.062-.063-2.129.018-3.184s-.489-1.179-1.291-1.083c-.664.079-1.615-.387-1.581.966.055,2.181.04,4.365,0,6.547-.015.775.276.949,1.018,1.027,1.434.151,2.078-.26,1.856-1.8A17.56,17.56,0,0,1,7246.579-233.716Zm5.673.066c0-1-.078-2.013.021-3.006.114-1.143-.356-1.4-1.405-1.359-.932.034-1.561.035-1.484,1.286.111,1.822.057,3.656.019,5.483-.022,1.067-.1,1.863,1.483,1.836,1.5-.026,1.418-.769,1.374-1.763C7252.224-232,7252.252-232.824,7252.252-233.65Zm5.672-.05c0-1.121-.041-2.243.011-3.361.057-1.214-.8-.9-1.444-.915-.66-.012-1.454-.251-1.422.943.059,2.181.04,4.365,0,6.546-.013.757.238.972,1,1.043,1.4.13,2.108-.211,1.873-1.782A16.85,16.85,0,0,1,7257.924-233.7Z" transform="translate(-87.735 -110.978)" fill="#f99025"/>
    <path id="Trazado_583498" data-name="Trazado 583498" d="M7261.144-274.609c-2.834,0-5.667-.034-8.5.018-.99.018-1.477-.116-1.452-1.312.08-3.894.055-7.791.013-11.687-.01-.9.224-1.225,1.18-1.218q8.766.061,17.532,0c.964-.007,1.183.33,1.173,1.225-.041,3.9-.068,7.793.013,11.687.025,1.2-.478,1.322-1.458,1.3C7266.811-274.642,7263.977-274.609,7261.144-274.609Zm-4.25-7.081c0-1.062-.064-2.13.018-3.186s-.5-1.166-1.3-1.074c-.666.077-1.614-.388-1.578.968.059,2.183.043,4.368,0,6.552-.015.784.292.939,1.024,1.019,1.443.156,2.071-.272,1.851-1.8A17.6,17.6,0,0,1,7256.894-281.69Zm5.673-.054c0-1.062-.064-2.13.018-3.186.087-1.139-.623-1.059-1.351-1.023-.707.035-1.577-.3-1.528,1.026.079,2.122.051,4.25.006,6.374-.017.819.213,1.105,1.081,1.143,1.271.055,2.02-.157,1.8-1.681A18.48,18.48,0,0,1,7262.566-281.744Zm5.673.115c0-1.062-.075-2.132.02-3.186.108-1.2-.585-1.174-1.415-1.149-.77.023-1.521-.154-1.469,1.1.088,2.121.042,4.25.014,6.374-.01.707.143,1.027.961,1.079,1.333.085,2.17-.1,1.912-1.742A16.159,16.159,0,0,1,7268.239-281.629Z" transform="translate(-98.048 -80.028)" fill="#8dc2b9"/>
    <path id="Trazado_583499" data-name="Trazado 583499" d="M7207.585-333.727c-.192-1.04-1.025-1.347-1.871-1.662q-6.21-2.319-12.411-4.659a2.137,2.137,0,0,1-1.045-.725c4.959,0,9.938-.25,14.871.117,2.119.158,4.146,1.587,6.209,2.453,1.358.57,2.7,1.169,4.057,1.752,2.252.97,2.252.968.418,2.739Z" transform="translate(-60.023 -46.444)" fill="#b2514d"/>
    <path id="Trazado_583500" data-name="Trazado 583500" d="M7315.2-281.923c0-1.885.054-3.772-.021-5.653-.041-1.028.331-1.261,1.308-1.282,4.38-.093,4.379-.124,4.379,4.2,0,2.886-.053,5.773.026,8.657.031,1.119-.341,1.363-1.4,1.372-4.291.039-4.29.077-4.29-4.111Q7315.2-280.333,7315.2-281.923Z" transform="translate(-139.335 -79.98)" fill="#7eaea6"/>
    <path id="Trazado_583501" data-name="Trazado 583501" d="M7315.2-233.776c0-1.942.051-3.886-.02-5.826-.038-1.016.316-1.269,1.3-1.292,4.385-.1,4.385-.133,4.385,4.193,0,2.884-.05,5.77.025,8.652.029,1.1-.324,1.372-1.4,1.382-4.3.043-4.3.082-4.3-4.284Z" transform="translate(-139.337 -110.927)" fill="#dd7f21"/>
    <path id="Trazado_583502" data-name="Trazado 583502" d="M7283.082-334.055c2.747-3.57,2.746-3.57,5.638-.312,1.725,1.944,3.429,3.907,5.188,5.819.62.674,1.046,1.155.116,1.964a2.986,2.986,0,0,0-.929,2.586c.122,1.178-.31,1.457-1.452,1.452-4.244-.019-4.234.025-4.25-4.138-.006-1.65.317-3.438-.212-4.912C7286.608-333.2,7284.3-332.931,7283.082-334.055Z" transform="translate(-118.627 -49.079)" fill="#f7f9fa"/>
    <path id="Trazado_583503" data-name="Trazado 583503" d="M7155.282-252.692c0-.826.025-1.653-.006-2.478-.038-.987-.134-1.779,1.376-1.75,1.338.026,1.646.524,1.457,1.652-.214,1.27.56,1.222,1.465,1.264,1.043.049,1.591-.2,1.383-1.345-.228-1.256.328-1.523,1.541-1.567,1.445-.052,1.3.742,1.293,1.649-.015,1.888-.062,3.779.021,5.663.046,1.044-.331,1.3-1.309,1.263-2-.068-4.013-.059-6.018,0-.889.025-1.3-.186-1.222-1.164C7155.343-250.564,7155.281-251.63,7155.282-252.692Z" transform="translate(-36.146 -100.603)" fill="#f1b78f"/>
    <path id="Trazado_583504" data-name="Trazado 583504" d="M7147.842-220.793c0,4.278,0,4.278-4.265,4.278-4.241,0-4.241,0-4.241-4.3,0-.826,0-1.652,0-2.478.009-1.692.573-2.09,2.227-1.73.959.209.61.925.57,1.4-.1,1.154.3,1.48,1.465,1.491,1.209.011,1.6-.408,1.408-1.512-.224-1.287.488-1.355,1.517-1.4,1.172-.055,1.41.408,1.33,1.431C7147.782-222.686,7147.84-221.737,7147.842-220.793Z" transform="translate(-25.876 -121.104)" fill="#f1b78f"/>
    <path id="Trazado_583505" data-name="Trazado 583505" d="M7179.779-220.59c.008,4.252.008,4.252-4.269,4.252-4.232,0-4.233,0-4.231-4.3,0-.942.068-1.889-.009-2.824-.086-1.048.213-1.441,1.349-1.415,1.082.024,1.7.209,1.488,1.434-.2,1.157.3,1.456,1.446,1.476,1.225.021,1.583-.437,1.4-1.519-.219-1.307.531-1.326,1.534-1.386,1.212-.073,1.363.482,1.3,1.455C7179.733-222.477,7179.779-221.532,7179.779-220.59Z" transform="translate(-46.472 -121.28)" fill="#e8b18a"/>
    <path id="Trazado_583506" data-name="Trazado 583506" d="M7235.259-294.9c0-2.827.041-5.655-.021-8.481-.023-1.06.264-1.551,1.382-1.383.4.061.829-.032,1.234.02.545.071,1.416-.337,1.564.3.184.788.428,1.865-.4,2.468-.987.719-.95,1.657-.947,2.668.012,4.3-.029,8.6.028,12.9.015,1.115-.247,1.514-1.446,1.519-1.221,0-1.457-.436-1.432-1.533.066-2.826.022-5.654.022-8.482Z" transform="translate(-87.744 -69.702)" fill="#cf9c51"/>
    <path id="Trazado_583507" data-name="Trazado 583507" d="M7288.928-365.109c-.006,1.167-1.732,3.065-2.811,3.088-1.132.024-2.864-1.928-2.857-3.219.013-2.179,1.1-3.471,2.9-3.431C7287.925-368.631,7288.938-367.328,7288.928-365.109Z" transform="translate(-118.742 -28.496)" fill="#bf4338"/>
    <path id="Trazado_583508" data-name="Trazado 583508" d="M7235.369-320.76l10.229.015c-1.271,2.137-2.988,3.352-5.62,2.843a10.348,10.348,0,0,0-1.937-.018C7235.219-317.92,7235.219-317.92,7235.369-320.76Z" transform="translate(-87.807 -59.411)" fill="#9f4945"/>
    <path id="Trazado_583509" data-name="Trazado 583509" d="M7273.958-301.9a9.172,9.172,0,0,0-1.23.009c-1.184.162-1.565-.221-1.611-1.506-.051-1.405.624-1.357,1.565-1.313.7.033,1.407.018,2.11,0,1.109-.024,2.148-.248,2.1,1.574s-1.229,1.086-2.052,1.225A5.333,5.333,0,0,1,7273.958-301.9Z" transform="translate(-110.905 -69.756)" fill="#cf9c51"/>
    <path id="Trazado_583510" data-name="Trazado 583510" d="M7268.279-318.678c.6-.694.928-1.094,1.274-1.48,2.02-2.253,2-2.206,4.749-.734.792.424.724.98.671,1.607-.069.826-.75.59-1.226.6C7272.049-318.662,7270.349-318.678,7268.279-318.678Z" transform="translate(-109.076 -58.653)" fill="#9f4945"/>
    <path id="Trazado_583511" data-name="Trazado 583511" d="M7256.734-301.844c-.772.013-1.6.211-1.505-1.064.071-.944.353-1.686,1.37-1.712,1.127-.029,1.425.754,1.485,1.773C7258.149-301.7,7257.436-301.81,7256.734-301.844Z" transform="translate(-100.649 -69.825)" fill="#4390c6"/>
    <path id="Trazado_583512" data-name="Trazado 583512" d="M7320.733-301.864c-.931.091-1.652.113-1.546-1.1.083-.952.4-1.658,1.42-1.662s1.355.692,1.433,1.649C7322.134-301.809,7321.5-301.7,7320.733-301.864Z" transform="translate(-141.917 -69.823)" fill="#4390c6"/>
    <path id="Trazado_583513" data-name="Trazado 583513" d="M7159.562-332.758c4.485-.038,4.266-.257,4.259,4.175-.008,4.569.321,4.349-4.273,4.347-4.5,0-4.263.238-4.255-4.185C7155.3-332.993,7154.959-332.8,7159.562-332.758Zm1.384,4.169c.338-1.38-.547-1.3-1.509-1.367-1.184-.086-1.3.448-1.341,1.442-.045,1.181.358,1.463,1.493,1.479C7160.819-327.017,7161.185-327.461,7160.946-328.589Z" transform="translate(-36.168 -51.661)" fill="#040302"/>
    <path id="Trazado_583514" data-name="Trazado 583514" d="M7246.07-228.6c0,.885-.053,1.774.013,2.654.082,1.088-.047,1.688-1.446,1.693-1.44.006-1.451-.669-1.423-1.718.053-1.945.072-3.895,0-5.839-.051-1.333.846-.964,1.541-1.012.748-.052,1.422-.078,1.336,1.039C7246.007-230.731,7246.07-229.664,7246.07-228.6Z" transform="translate(-92.898 -116.138)" fill="#040302"/>
    <path id="Trazado_583515" data-name="Trazado 583515" d="M7262.074-228.565a17.486,17.486,0,0,0,.021,2.474c.221,1.537-.423,1.948-1.856,1.8-.741-.078-1.032-.252-1.018-1.027.04-2.182.054-4.366,0-6.547-.034-1.353.917-.887,1.582-.966.8-.1,1.372.028,1.291,1.083S7262.074-229.627,7262.074-228.565Z" transform="translate(-103.229 -116.129)" fill="#040302"/>
    <path id="Trazado_583516" data-name="Trazado 583516" d="M7278.028-228.518c0,.826-.028,1.653.007,2.477.043.994.121,1.738-1.374,1.763-1.583.027-1.506-.769-1.483-1.836.038-1.828.092-3.662-.019-5.483-.076-1.252.553-1.252,1.484-1.286,1.05-.039,1.52.216,1.406,1.359C7277.951-230.531,7278.029-229.52,7278.028-228.518Z" transform="translate(-113.511 -116.111)" fill="#040302"/>
    <path id="Trazado_583517" data-name="Trazado 583517" d="M7294.051-228.54a16.851,16.851,0,0,0,.022,2.474c.236,1.571-.47,1.912-1.873,1.782-.764-.071-1.015-.287-1-1.043.038-2.182.055-4.366,0-6.546-.032-1.194.762-.955,1.422-.943.64.011,1.5-.3,1.445.915C7294.01-230.783,7294.051-229.661,7294.051-228.54Z" transform="translate(-123.861 -116.139)" fill="#040302"/>
    <path id="Trazado_583518" data-name="Trazado 583518" d="M7262.071-276.543a17.6,17.6,0,0,0,.021,2.477c.22,1.53-.408,1.958-1.851,1.8-.732-.079-1.04-.234-1.024-1.019.041-2.184.057-4.369,0-6.552-.036-1.357.912-.891,1.578-.968.792-.092,1.38.006,1.3,1.074S7262.071-277.605,7262.071-276.543Z" transform="translate(-103.226 -85.176)" fill="#040302"/>
    <path id="Trazado_583519" data-name="Trazado 583519" d="M7278.049-276.583a18.48,18.48,0,0,0,.024,2.653c.222,1.524-.527,1.736-1.8,1.681-.867-.038-1.1-.324-1.081-1.143.044-2.124.073-4.252-.006-6.374-.049-1.323.821-.99,1.528-1.026.729-.036,1.438-.117,1.351,1.023C7277.986-278.713,7278.049-277.646,7278.049-276.583Z" transform="translate(-113.532 -85.189)" fill="#040302"/>
    <path id="Trazado_583520" data-name="Trazado 583520" d="M7294.034-276.469a16.222,16.222,0,0,0,.021,2.476c.258,1.643-.579,1.827-1.911,1.742-.819-.052-.971-.372-.962-1.079.029-2.125.074-4.253-.014-6.374-.052-1.253.7-1.075,1.47-1.1.829-.025,1.522-.046,1.415,1.149C7293.959-278.6,7294.034-277.532,7294.034-276.469Z" transform="translate(-123.843 -85.188)" fill="#040302"/>
    <path id="Trazado_583521" data-name="Trazado 583521" d="M7166.048-323.483c.238,1.128-.127,1.572-1.357,1.554-1.136-.016-1.538-.3-1.494-1.479.037-.994.157-1.528,1.341-1.442C7165.5-324.78,7166.386-324.863,7166.048-323.483Z" transform="translate(-41.269 -56.766)" fill="#7eaea6"/>
  </g>
</svg>
