<svg xmlns="http://www.w3.org/2000/svg" width="107" height="107" viewBox="0 0 107 107">
  <g id="Grupo_845468" data-name="Grupo 845468" transform="translate(-240 -1286.742)">
    <rect id="Rectángulo_38178" data-name="Rectángulo 38178" width="107" height="107" transform="translate(240 1286.742)" fill="none"/>
    <g id="Grupo_845642" data-name="Grupo 845642" transform="translate(-8368.117 1856.157)">
      <path id="Trazado_584295" data-name="Trazado 584295" d="M8624.653-534.483l0-2.246c.961-.351,1.167-1.085,1.154-2.032-.039-2.72-.016-5.44-.013-8.16,0-2.3.121-2.423,2.447-2.424q18.161,0,36.319,0c.476,0,.95.067,1.424.1l.269.354c.018,3.328.084,6.657.029,9.984a4.911,4.911,0,0,0,1.339,3.741c-.029,1.621.852,2.306,2.385,2.308,3.087,0,6.175-.005,9.261.007a3.663,3.663,0,0,0,1.856-.344c.037,1.7.052,3.41.12,5.113.035.857-.271.962-1.026.7a24.648,24.648,0,0,0-8.215-1.036c-7.9.035-15.8.012-23.706.013-.373,0-.747,0-1.121,0-.811.016-1.365.385-1.349,1.236.015.761.532,1.124,1.274,1.147.533.017,1.067.006,1.6.01l13.117.111a.785.785,0,0,0,.383.752,8.015,8.015,0,0,1-7.1,2.62c-2.432-.24-4.906-.042-7.361-.053-.9,0-1.87.025-1.9,1.176-.033,1.276,1.007,1.292,1.953,1.29,1.5,0,2.989,0,4.484,0h4.554a21.036,21.036,0,0,0-3.676,7.733c-.172.775-.607.872-1.263.86-1.387-.027-2.774,0-4.163-.009-.888-.005-1.866-.011-1.893,1.171s.911,1.25,1.825,1.238c1.28-.016,2.565.048,3.843-.022.863-.047,1.152.244,1.023,1.083a4.277,4.277,0,0,0-.007,1.278c.141.943-.266,1.182-1.148,1.138-1.332-.066-2.668-.007-4-.02-.851-.008-1.546.254-1.543,1.205s.706,1.2,1.556,1.192c1.493-.015,2.988,0,4.482,0,.484,0,.98-.063,1.12.594a22.4,22.4,0,0,0,3.83,8.343c-3.232,0-6.209,0-9.187,0-.922,0-1.831.13-1.793,1.293.033,1.04.878,1.179,1.75,1.175,2.508-.014,5.036.187,7.521-.055a8.018,8.018,0,0,1,7.1,2.619.766.766,0,0,0-.387.739c-2.933.038-5.864.082-8.8.109-1.762.016-3.523.008-5.286,0-.889,0-1.869-.011-1.9,1.17s.908,1.266,1.823,1.236c.319-.01.641,0,.96,0,7.425,0,14.85-.039,22.272.018a31.65,31.65,0,0,0,9.815-1.115c.14.149.276.3.415.449q.283,6.571,0,13.141a3.874,3.874,0,0,0-2.021-.339q-25.594.006-51.188,0a3.776,3.776,0,0,0-2.021.327c-.033-2.345-.094-4.69-.095-7.035q-.013-25.776,0-51.552C8625.8-533.128,8625.879-534.117,8624.653-534.483Zm6.969,10.095c0,5.346.087,5.434,5.32,5.434,5.143,0,5.33-.186,5.33-5.288,0-5.173-.2-5.371-5.424-5.371C8631.847-529.613,8631.622-529.389,8631.622-524.388Zm10.65,34.188c0-5.068-.205-5.205-5.178-5.3-5.062-.092-5.6.328-5.5,5.46.1,4.984.256,5.219,5.259,5.219C8642.071-484.816,8642.272-485.016,8642.272-490.2Zm-5.429-11.859h1.281c3.468,0,4.146-.668,4.147-4.073v-1.442c0-4.875-.26-5.133-5.162-5.133-5.391,0-5.488.1-5.488,5.427C8631.622-502.272,8631.836-502.059,8636.844-502.06Z" transform="translate(-2.771 -5.167)" fill="#f6f3f3"/>
      <path id="Trazado_584296" data-name="Trazado 584296" d="M8678.355-478.715q.283-6.57,0-13.141c.051-.324.069-.619-.414-.449a31.65,31.65,0,0,1-9.816,1.115c-7.423-.056-14.848-.017-22.271-.018-.321,0-.643-.009-.962,0-.915.03-1.854-.058-1.823-1.236s1.012-1.173,1.9-1.17c1.762.007,3.524.015,5.286,0,2.933-.027,5.864-.072,8.8-.109a1.616,1.616,0,0,0,1.314-.055c-.039-.1-.046-.234-.106-.269-.266-.153-.546-.279-.821-.415a8.018,8.018,0,0,0-7.1-2.619c-2.484.242-5.012.041-7.521.055-.872,0-1.716-.135-1.75-1.175-.038-1.163.871-1.294,1.794-1.293,2.977.005,5.954,0,9.188,0a22.374,22.374,0,0,1-3.83-8.343c-.141-.656-.637-.595-1.12-.594-1.5,0-2.99-.011-4.484,0-.848.008-1.55-.238-1.555-1.192s.693-1.213,1.543-1.205c1.334.012,2.671-.046,4,.02.883.044,1.29-.2,1.148-1.138a4.276,4.276,0,0,1,.007-1.277c.129-.839-.161-1.13-1.023-1.083-1.277.07-2.562.006-3.843.021-.914.012-1.852-.065-1.825-1.238s1-1.176,1.894-1.171c1.388.008,2.775-.018,4.163.009.654.013,1.09-.085,1.262-.86a21.021,21.021,0,0,1,3.676-7.733h-4.554c-1.5,0-2.988,0-4.483,0-.945,0-1.988-.014-1.954-1.29.031-1.151,1-1.18,1.9-1.176,2.456.012,4.93-.187,7.361.053a8.015,8.015,0,0,0,7.1-2.62c.368-.145.785-.222.955-.683a1.6,1.6,0,0,0-1.338-.069l-13.117-.111c-.534,0-1.068.006-1.6-.01-.741-.023-1.26-.386-1.274-1.147-.016-.85.538-1.219,1.35-1.235.373-.008.747,0,1.12,0,7.9,0,15.8.022,23.706-.013a24.655,24.655,0,0,1,8.215,1.036c.757.259,1.062.155,1.026-.7-.068-1.7-.083-3.408-.12-5.113l0-.614-.029-.341c-.387-.58-.972-.268-1.45-.273-2.937-.033-5.874-.045-8.81,0a5.832,5.832,0,0,1-3.216-.741,4.91,4.91,0,0,1-1.338-3.741c.056-3.327-.012-6.656-.03-9.984.039-.215.025-.39-.267-.354-.476-.036-.95-.1-1.426-.1q-18.158-.009-36.318,0c-2.328,0-2.445.119-2.449,2.424,0,2.72-.025,5.44.013,8.16.014.947-.191,1.682-1.154,2.032a1.628,1.628,0,0,1-1.309-1.878c.055-3.095,0-6.192.026-9.288a3.612,3.612,0,0,1,3.916-3.867c13.184-.013,26.366,0,39.552-.024a2.722,2.722,0,0,1,2.095.908q6.882,6.931,13.818,13.809a2.835,2.835,0,0,1,.908,2.259c-.047,2.508.036,5.019-.042,7.525a1.987,1.987,0,0,0,1.122,2.011,20.883,20.883,0,0,1,9.648,13.379c.246,1.012.321,1.914-.844,2.408-1.252-.141-1.368-1.126-1.591-2.078-1.857-7.911-8.985-14.007-16.658-14.268a6.781,6.781,0,0,0-3.224,0,17.674,17.674,0,0,0-15.28,10.555,17.717,17.717,0,0,0,1.5,18.638,11.013,11.013,0,0,0,2.513,3.058c8.326,7.916,22.569,6.374,28.282-3.05a16.707,16.707,0,0,0,3.233-8.447c.1-.917.166-1.816,1.236-2.161,1.145.227,1.368.985,1.252,2.026a20.211,20.211,0,0,1-2.725,8.453,1.282,1.282,0,0,0,.31,1.989c.958.8,1.574,2.155,3.236,1.708.251-.068.7.422.993.716,2.313,2.294,4.625,4.588,6.909,6.91a5.691,5.691,0,0,1,.2,8.285c-2.314,2.295-5.79,2.2-8.292-.268-2.244-2.211-4.459-4.452-6.686-6.679a2.584,2.584,0,0,1-.92-2.184c.052-1.31-1.52-1.867-2.312-2.815-.453-.541-.843.1-1.253.244-.73.261-.636.872-.635,1.459q.007,6.729,0,13.457c-.007,2.847-1.375,4.22-4.211,4.221q-25.951.007-51.9,0c-2.733,0-4.157-1.409-4.158-4.116q-.009-29.317-.016-58.635c0-1.009.139-1.812,1.3-2.017,1.226.367,1.147,1.356,1.147,2.338q-.01,25.776,0,51.551c0,2.345.061,4.69.095,7.035-.06,1.729,1.225,1.413,2.226,1.413q25.383.019,50.766.008a9.1,9.1,0,0,0,1.119-.026C8678.036-477.43,8678.521-477.818,8678.355-478.715Zm7.61-18.628c-.6.638-2.081.924-.615,2.262,1.827,1.665,1.755,1.743,2.941.363,1.706-1.472,1.625-1.4-.026-3.223C8686.932-499.417,8686.607-498,8685.966-497.343Zm-19.9-54.448a67.8,67.8,0,0,0,.052,8.964c.2.829.875.833,1.515.836q4,.019,8.008,0c.267,0,.737.219.745-.263,0-.209-.4-.425-.623-.637l-9.3-9.3c-.1-.074-.248-.232-.29-.208C8665.913-552.251,8665.994-552.014,8666.064-551.791Zm23.083,59.891c-1.231.665-1.174,1.314-.166,2.249,1.916,1.778,3.7,3.7,5.581,5.516,1.461,1.409,3.094,1.377,4.679.01a3.174,3.174,0,0,0-.106-4.672c-1.138-1.194-2.315-2.35-3.494-3.5-1.022-1-2.206-2.871-3.079-2.742C8691.188-494.839,8690.179-493.113,8689.147-491.9Z" fill="#0b0a0b"/>
      <path id="Trazado_584297" data-name="Trazado 584297" d="M8739.231-476.016c7.673.261,14.8,6.357,16.658,14.268.223.951.339,1.936,1.591,2.078q.009,1.125.017,2.248c-1.07.345-1.134,1.244-1.236,2.161a16.7,16.7,0,0,1-3.233,8.447,1.312,1.312,0,0,0-1.1.473,19.754,19.754,0,0,1-11.3,5.732,19.706,19.706,0,0,1-14.385-3.276c-1.379-.933-2.33-2.438-4.014-2.937a17.717,17.717,0,0,1-1.5-18.638,17.674,17.674,0,0,1,15.281-10.555A3.467,3.467,0,0,0,8739.231-476.016Zm-14.858,24.181.912,2.149c-.846,1.021-.182,1.747.466,2.5a15.647,15.647,0,0,0,18.642,3.926A15.675,15.675,0,0,0,8753-460.543a15.713,15.713,0,0,0-18.989-12.108A15.682,15.682,0,0,0,8722.5-453.3C8722.79-452.28,8723.222-451.651,8724.373-451.835Z" transform="translate(-66.706 -54.983)" fill="#dcc6dc"/>
      <path id="Trazado_584298" data-name="Trazado 584298" d="M8683.754-313.684c.166.9-.317,1.285-1.12,1.385a9.086,9.086,0,0,1-1.118.026q-25.384,0-50.766-.008c-1,0-2.285.316-2.225-1.413a3.773,3.773,0,0,1,2.021-.327q25.594,0,51.188,0A3.867,3.867,0,0,1,8683.754-313.684Z" transform="translate(-5.401 -165.031)" fill="#ead8ea"/>
      <path id="Trazado_584299" data-name="Trazado 584299" d="M8646.387-482.582c0-5,.225-5.225,5.228-5.225,5.223,0,5.423.2,5.423,5.371,0,5.1-.187,5.288-5.33,5.288C8646.473-477.148,8646.387-477.236,8646.387-482.582Zm8.133,1.475a19.829,19.829,0,0,1,.089-2.212c.245-1.641-.359-2.135-2.037-2.082-4.025.128-4.028.039-3.734,4.267-.272,1.118,0,1.732,1.317,1.616a16.849,16.849,0,0,1,3.036,0C8654.5-479.391,8654.788-479.983,8654.52-481.107Z" transform="translate(-17.536 -46.973)" fill="#070806"/>
      <path id="Trazado_584300" data-name="Trazado 584300" d="M8656.968-376.135c0,5.184-.2,5.384-5.415,5.384-5,0-5.157-.235-5.258-5.219-.1-5.132.432-5.551,5.5-5.46C8656.763-381.34,8656.968-381.2,8656.968-376.135Zm-8.206,1.234c-.323,1.287.088,1.875,1.493,1.721a12.753,12.753,0,0,1,2.685,0c1.36.141,1.851-.377,1.514-1.694.024-.69.065-1.379.068-2.069.008-2.074,0-2.074-2.015-2.076C8648.5-379.022,8648.5-379.022,8648.762-374.9Z" transform="translate(-17.466 -119.232)" fill="#070806"/>
      <path id="Trazado_584301" data-name="Trazado 584301" d="M8651.607-424.438c-5.008,0-5.221-.213-5.221-5.221,0-5.33.1-5.427,5.489-5.427,4.9,0,5.161.258,5.161,5.133v1.442c0,3.4-.68,4.072-4.147,4.073Zm2.921-4.2c.021-.636.061-1.272.063-1.908.008-2.15,0-2.15-2.1-2.152-3.908,0-3.908,0-3.657,4.05-.371,1.478.209,2.025,1.7,1.849a11.288,11.288,0,0,1,2.519,0C8654.564-426.636,8654.905-427.325,8654.528-428.64Z" transform="translate(-17.536 -82.788)" fill="#070806"/>
      <path id="Trazado_584302" data-name="Trazado 584302" d="M8772.164-503.746l0,.614a3.656,3.656,0,0,1-1.855.344c-3.088-.012-6.174,0-9.262-.007-1.531,0-2.412-.687-2.385-2.308a5.836,5.836,0,0,0,3.217.741c2.936-.043,5.873-.031,8.809,0,.48.005,1.064-.307,1.451.273C8771.887-503.952,8771.932-503.841,8772.164-503.746Z" transform="translate(-93.805 -35.223)" fill="#ead8ea"/>
      <path id="Trazado_584303" data-name="Trazado 584303" d="M8740.568-476.43a1.594,1.594,0,0,1,1.337.069c-.17.46-.587.538-.954.683A.781.781,0,0,1,8740.568-476.43Z" transform="translate(-81.517 -54.625)" fill="#fefefe"/>
      <path id="Trazado_584304" data-name="Trazado 584304" d="M8740.957-362.074c.275.136.556.261.821.415.061.035.067.165.106.269a1.615,1.615,0,0,1-1.314.055A.766.766,0,0,1,8740.957-362.074Z" transform="translate(-81.518 -132.388)" fill="#fefefe"/>
      <path id="Trazado_584305" data-name="Trazado 584305" d="M8753.559-549.019c.294-.036.306.139.267.354Z" transform="translate(-90.341 -5.386)" fill="#fefefe"/>
      <path id="Trazado_584306" data-name="Trazado 584306" d="M8799.478-355.453c.484-.17.464.125.413.449C8799.754-355.154,8799.615-355.3,8799.478-355.453Z" transform="translate(-121.536 -136.852)" fill="#fefefe"/>
      <path id="Trazado_584307" data-name="Trazado 584307" d="M8834.419-360.754c1.033-1.213,2.042-2.938,3.414-3.142.873-.129,2.058,1.743,3.081,2.742,1.179,1.152,2.355,2.309,3.492,3.5a3.173,3.173,0,0,1,.108,4.672,5.08,5.08,0,0,1-3.936-1.76C8838.563-356.782,8836.477-358.753,8834.419-360.754Z" transform="translate(-145.273 -131.146)" fill="#fb4653"/>
      <path id="Trazado_584308" data-name="Trazado 584308" d="M8762.228-532.739a67.631,67.631,0,0,1-.052-8.964l.394-.4,9.3,9.3A26.127,26.127,0,0,1,8762.228-532.739Z" transform="translate(-96.112 -10.087)" fill="#e0c9e0"/>
      <path id="Trazado_584309" data-name="Trazado 584309" d="M8729.574-384.97c1.684.5,2.635,2,4.014,2.937a19.709,19.709,0,0,0,14.386,3.276,19.751,19.751,0,0,0,11.3-5.732,1.312,1.312,0,0,1,1.1-.473c-5.713,9.424-19.955,10.966-28.281,3.05A11.016,11.016,0,0,1,8729.574-384.97Z" transform="translate(-74.048 -116.834)" fill="#d5b5d3"/>
      <path id="Trazado_584310" data-name="Trazado 584310" d="M8832.466-354.085c2.057,2,4.144,3.972,6.159,6.015a5.08,5.08,0,0,0,3.936,1.76c-1.585,1.367-3.218,1.4-4.68-.01-1.884-1.815-3.664-3.738-5.581-5.516C8831.291-352.771,8831.235-353.42,8832.466-354.085Z" transform="translate(-143.319 -137.815)" fill="#f42938"/>
      <path id="Trazado_584311" data-name="Trazado 584311" d="M8824.5-373.7c.642-.655.966-2.074,2.3-.6,1.651,1.825,1.732,1.751.025,3.223Z" transform="translate(-138.535 -123.646)" fill="#ead8ea"/>
      <path id="Trazado_584312" data-name="Trazado 584312" d="M8762.6-513.045a26.122,26.122,0,0,0,9.644-.067c.221.213.626.428.623.637-.006.482-.479.261-.744.263q-4,.024-8.007,0C8763.474-512.211,8762.8-512.216,8762.6-513.045Z" transform="translate(-96.483 -29.782)" fill="#d5b5d3"/>
      <path id="Trazado_584313" data-name="Trazado 584313" d="M8821.866-371.058l2.325,2.625c-1.187,1.38-1.115,1.3-2.94-.363C8819.785-370.134,8821.262-370.42,8821.866-371.058Z" transform="translate(-135.9 -126.285)" fill="#e0c9e0"/>
      <path id="Trazado_584314" data-name="Trazado 584314" d="M8775.761-476.426a3.467,3.467,0,0,1-3.223,0A6.777,6.777,0,0,1,8775.761-476.426Z" transform="translate(-103.235 -54.573)" fill="#d5b5d3"/>
      <path id="Trazado_584315" data-name="Trazado 584315" d="M8762.682-542.549c-.133.133-.264.266-.4.4-.069-.223-.15-.46.1-.607C8762.434-542.781,8762.582-542.622,8762.682-542.549Z" transform="translate(-96.223 -9.642)" fill="#ead8ea"/>
      <path id="Trazado_584316" data-name="Trazado 584316" d="M8800.361-501.593c-.231-.1-.276-.206-.028-.341Z" transform="translate(-122.004 -37.376)" fill="#f6f3f3"/>
      <path id="Trazado_584317" data-name="Trazado 584317" d="M8731.049-445.619c-1.15.184-1.582-.445-1.874-1.463a15.682,15.682,0,0,1,11.513-19.354,15.713,15.713,0,0,1,18.989,12.108,15.675,15.675,0,0,1-8.607,17.286,15.646,15.646,0,0,1-18.642-3.926c-.648-.755-1.312-1.481-.467-2.5,1.17-.58,1.716.263,2.36.99,6.035,6.8,17.183,5.779,21.294-1.942l.2-.367a.657.657,0,0,0,.33-.637,12.433,12.433,0,0,0-1.184-13.582,12.477,12.477,0,0,0-13.1-5.165c-5.346.988-8.789,4.341-10.36,9.557-.831,2.76-.36,5.5.263,8.219C8731.528-446.138,8731.287-445.879,8731.049-445.619Z" transform="translate(-73.381 -61.199)" fill="#0a0907"/>
      <path id="Trazado_584318" data-name="Trazado 584318" d="M8760.816-401.056c-4.11,7.721-15.258,8.743-21.293,1.942-.646-.728-1.191-1.57-2.36-.99q-.457-1.076-.912-2.149l.718-.778a4.811,4.811,0,0,1,.828.732,14.324,14.324,0,0,0,21.79,1.864C8759.931-400.777,8760.263-401.134,8760.816-401.056Z" transform="translate(-78.584 -104.564)" fill="#f0c956"/>
      <path id="Trazado_584319" data-name="Trazado 584319" d="M8653.792-476.044c-.293-4.228-.29-4.14,3.735-4.267,1.677-.053,2.282.44,2.037,2.082a19.83,19.83,0,0,0-.09,2.212Z" transform="translate(-22.49 -52.063)" fill="#94d678"/>
      <path id="Trazado_584320" data-name="Trazado 584320" d="M8653.826-466.995l5.682.027c.268,1.124-.02,1.716-1.329,1.592a16.846,16.846,0,0,0-3.036,0C8653.824-465.263,8653.554-465.878,8653.826-466.995Z" transform="translate(-22.525 -61.111)" fill="#7bc65d"/>
      <path id="Trazado_584321" data-name="Trazado 584321" d="M8653.811-369.772c-.261-4.121-.261-4.121,3.744-4.118,2.018,0,2.022,0,2.016,2.076,0,.69-.045,1.379-.069,2.069Z" transform="translate(-22.514 -124.361)" fill="#94d678"/>
      <path id="Trazado_584322" data-name="Trazado 584322" d="M8653.79-361.048l5.691.027c.338,1.317-.153,1.835-1.514,1.694a12.747,12.747,0,0,0-2.684,0C8653.878-359.173,8653.466-359.761,8653.79-361.048Z" transform="translate(-22.494 -133.085)" fill="#7bc65d"/>
      <path id="Trazado_584323" data-name="Trazado 584323" d="M8653.813-423.593c-.251-4.053-.251-4.053,3.656-4.05,2.107,0,2.112,0,2.1,2.152,0,.636-.041,1.272-.063,1.908Z" transform="translate(-22.519 -87.844)" fill="#94d678"/>
      <path id="Trazado_584324" data-name="Trazado 584324" d="M8653.776-415.013l5.7.01c.377,1.315.037,2-1.483,1.838a11.271,11.271,0,0,0-2.517,0C8653.985-412.988,8653.4-413.535,8653.776-415.013Z" transform="translate(-22.482 -96.425)" fill="#7bc65d"/>
      <path id="Trazado_584325" data-name="Trazado 584325" d="M8760.834-439.283c-.555-.078-.887.279-1.23.62a14.322,14.322,0,0,1-21.789-1.864,4.811,4.811,0,0,0-.828-.732c-.622-2.723-1.095-5.459-.264-8.219,1.571-5.215,5.015-8.568,10.36-9.557a12.479,12.479,0,0,1,13.1,5.165,12.435,12.435,0,0,1,1.183,13.582.627.627,0,0,0-.33.637Zm-2.587-9.816a3.542,3.542,0,0,0-2.237-3.391,3.49,3.49,0,0,0-4.006.689c-1.054.979-2.068,2.009-3.027,3.083-.577.648-.924.681-1.629.086a3.622,3.622,0,0,0-5.172.247,3.712,3.712,0,0,0,.245,5.307c1,1.032,2.035,2.043,3.1,3.017a3.686,3.686,0,0,0,5.547-.124c2.046-2.029,4.035-4.117,6.046-6.181A3.667,3.667,0,0,0,8758.247-449.1Z" transform="translate(-78.601 -66.337)" fill="#fbdf78"/>
      <path id="Trazado_584326" data-name="Trazado 584326" d="M8813.494-399.366a.63.63,0,0,1,.329-.637A.654.654,0,0,1,8813.494-399.366Z" transform="translate(-131.056 -106.621)" fill="#f0c956"/>
      <path id="Trazado_584327" data-name="Trazado 584327" d="M8768.623-435.4a3.666,3.666,0,0,1-1.136,2.732c-2.012,2.064-4,4.152-6.047,6.181a3.686,3.686,0,0,1-5.547.124c-1.062-.974-2.092-1.985-3.1-3.017a3.712,3.712,0,0,1-.246-5.307,3.623,3.623,0,0,1,5.173-.247c.705.6,1.052.562,1.629-.086.957-1.074,1.973-2.1,3.027-3.083a3.49,3.49,0,0,1,4.006-.689A3.54,3.54,0,0,1,8768.623-435.4Zm-14.523,3.05c-.234.693.226,1.092.644,1.5.872.857,1.769,1.692,2.62,2.57.913.943,1.711.812,2.574-.094,1.836-1.924,3.719-3.8,5.566-5.716.391-.4.9-.8.622-1.5-.465-1.41-1.35-1.388-2.285-.552-1.025.916-1.943,1.954-2.907,2.94-2.139,2.187-2.124,2.17-4.573.262C8755.415-433.677,8754.517-433.841,8754.1-432.352Z" transform="translate(-88.978 -80.034)" fill="#070806"/>
      <path id="Trazado_584328" data-name="Trazado 584328" d="M8759.5-427.225c.417-1.489,1.315-1.325,2.261-.588,2.449,1.908,2.435,1.925,4.573-.262.964-.986,1.881-2.024,2.907-2.94.936-.835,1.82-.857,2.284.552-2.085,1.5-3.665,3.537-5.525,5.276a2.625,2.625,0,0,1-3.918.07C8761.253-425.854,8760.364-426.525,8759.5-427.225Z" transform="translate(-94.379 -85.161)" fill="#94d678"/>
      <path id="Trazado_584329" data-name="Trazado 584329" d="M8759.365-424.831c.863.7,1.753,1.371,2.582,2.109a2.626,2.626,0,0,0,3.919-.07c1.859-1.739,3.44-3.772,5.524-5.276.279.7-.23,1.1-.621,1.5-1.848,1.913-3.73,3.791-5.565,5.716-.864.906-1.661,1.036-2.576.094-.851-.878-1.746-1.713-2.618-2.57C8759.59-423.74,8759.131-424.138,8759.365-424.831Z" transform="translate(-94.243 -87.555)" fill="#7bc65d"/>
    </g>
  </g>
</svg>
