<svg xmlns="http://www.w3.org/2000/svg" width="107" height="107" viewBox="0 0 107 107">
  <g id="Grupo_845470" data-name="Grupo 845470" transform="translate(-240 -1286.742)">
    <rect id="Rectángulo_38178" data-name="Rectángulo 38178" width="107" height="107" transform="translate(240 1286.742)" fill="none"/>
    <g id="Grupo_845643" data-name="Grupo 845643" transform="translate(-7641.521 2158.915)">
      <path id="Trazado_584330" data-name="Trazado 584330" d="M7893.421-818.678c0-7.508.039-15.016-.034-22.523a2.64,2.64,0,0,1,1.743-2.779q19.265-9.224,38.477-18.561a2.963,2.963,0,0,1,2.906.034q19.136,9.292,38.321,18.483a2.763,2.763,0,0,1,1.823,2.9q-.081,22.437,0,44.874a2.766,2.766,0,0,1-1.814,2.909q-19.269,9.218-38.476,18.562a2.813,2.813,0,0,1-2.749-.044q-19.218-9.325-38.48-18.558a2.642,2.642,0,0,1-1.749-2.776C7893.459-803.662,7893.421-811.171,7893.421-818.678Zm65.53-14.172a13.787,13.787,0,0,1-1.891.809c-3.9,1.04-5.4,3.406-4.807,7.493.389,2.662.073,5.427.073,8.405,2.481-1.343,4.893-2.086,6.931-3.584l.053-.345v-12.468C7959.325-832.8,7959.246-832.951,7958.951-832.851Zm-9.713,3.067q-18.952-9.2-37.9-18.408a1.3,1.3,0,0,0-1.288-.056c-4,1.955-8.009,3.878-12.234,5.915.7.359,1.141.6,1.595.82q12.753,6.173,25.511,12.333c.909.438,1.831.81,1.684,2.078a1.631,1.631,0,0,1-2.388.5c-1.79-.917-3.615-1.765-5.429-2.633q-11.12-5.318-22.241-10.631c-.915.207-.457.94-.458,1.4q-.042,20.6-.009,41.194c0,.514-.308,1.189.453,1.5a8.967,8.967,0,0,0,.866.54q17.53,8.465,35.067,16.913a1.613,1.613,0,0,0,1.224.32v-1.858c0-13.054-.061-26.108.058-39.16.021-2.257-.4-3.716-2.72-4.335-1-.266-1.8-.892-1.353-2.172,1-1.169,2.042-.51,2.914.074a4.123,4.123,0,0,0,4.89.008c1.97-1.162,4.129-2,6.172-3.04a1.7,1.7,0,0,1,2.413.458c.131,1.052-.495,1.557-1.345,1.959-2.347,1.108-4.65,2.309-7.027,3.345a2.025,2.025,0,0,0-1.363,2.222c.042,13.738.028,27.476.028,41.214v1.518c.754-.339,1.324-.579,1.88-.848q9.108-4.4,18.212-8.812,8.542-4.152,17.067-8.338c.7-.254.455-.863.455-1.332q.021-20.775-.009-41.551c0-.406.368-1.075-.463-1.213-3.542,1.674-7.072,3.375-10.636,5-.83.379-.823.964-.82,1.675.012,4.447-.051,8.9.038,13.34a2.59,2.59,0,0,1-1.769,2.775c-2.685,1.2-5.3,2.54-7.958,3.806-1.945.927-2.672.481-2.68-1.667-.017-4.389.011-8.779-.025-13.168C7949.642-828.655,7950.022-829.381,7949.238-829.783Zm23.056-12.517-1.5-.725q-14.858-7.181-29.717-14.357c-2.018-.973-4.065-2.634-6.094-2.626s-4.061,1.7-6.084,2.666c-1.455.7-2.9,1.413-4.608,2.247,12.387,5.984,24.417,11.791,36.439,17.614a1.663,1.663,0,0,0,1.61.015C7965.542-839.04,7968.754-840.585,7972.294-842.3Zm-58.318-7.768c.151.214.173.282.217.3q17.973,8.7,35.946,17.4a1.4,1.4,0,0,0,1.311.131c2.254-1.1,4.514-2.182,6.794-3.283-.15-.233-.187-.367-.27-.407q-17.9-8.651-35.8-17.3a1.813,1.813,0,0,0-1.776.036C7918.288-852.129,7916.152-851.12,7913.976-850.068Z" fill="#0c0a06"/>
      <path id="Trazado_584331" data-name="Trazado 584331" d="M7935.6-782.13c-.444,1.279.355,1.906,1.353,2.172,2.319.619,2.74,2.078,2.719,4.335-.118,13.053-.058,26.107-.058,39.16v1.858a1.612,1.612,0,0,1-1.224-.32q-17.537-8.448-35.067-16.913a9.07,9.07,0,0,1-.866-.54q.009-22.048.016-44.095,11.121,5.315,22.241,10.631c1.814.868,3.64,1.716,5.429,2.633a1.631,1.631,0,0,0,2.388-.5A7.521,7.521,0,0,0,7935.6-782.13ZM7918.8-759.687a1.282,1.282,0,0,0-.677-1.365q-5.654-2.754-11.324-5.473a1.236,1.236,0,0,0-1.753.61,1.129,1.129,0,0,0,.507,1.629c3.808,1.889,7.622,3.767,11.48,5.548A1.164,1.164,0,0,0,7918.8-759.687Zm-12.335-.785c-.893-.01-1.33.329-1.514.936a1.166,1.166,0,0,0,.644,1.45c1.946.982,3.9,1.948,5.883,2.859a1.23,1.23,0,0,0,1.761-.577c.41-.85,0-1.438-.758-1.817q-2.08-1.036-4.179-2.032C7907.639-759.972,7906.955-760.256,7906.47-760.472Z" transform="translate(-5.921 -43.39)" fill="#fdc24f"/>
      <path id="Trazado_584332" data-name="Trazado 584332" d="M8054.375-752.358q-8.534,4.171-17.068,8.338-9.1,4.423-18.211,8.812c-.557.269-1.127.509-1.88.848v-1.518c0-13.738.015-27.476-.027-41.213a2.024,2.024,0,0,1,1.363-2.222c2.376-1.037,4.681-2.238,7.026-3.345.851-.4,1.477-.907,1.345-1.959l3.176-1.763c.783.4.4,1.128.408,1.692.036,4.389.008,8.779.025,13.168.008,2.148.735,2.594,2.68,1.667,2.654-1.266,5.274-2.609,7.958-3.806a2.59,2.59,0,0,0,1.769-2.775c-.088-4.445-.026-8.893-.039-13.34,0-.711-.009-1.3.821-1.675,3.564-1.628,7.094-3.329,10.636-5Q8054.366-774.406,8054.375-752.358Z" transform="translate(-80.861 -43.403)" fill="#fdd063"/>
      <path id="Trazado_584333" data-name="Trazado 584333" d="M7957.576-802.453l-3.176,1.763a1.7,1.7,0,0,0-2.413-.458c-2.044,1.042-4.2,1.878-6.172,3.04a4.123,4.123,0,0,1-4.891-.008c-.871-.584-1.917-1.243-2.913-.074a7.517,7.517,0,0,1-3.069-1.58c.147-1.268-.775-1.64-1.684-2.078Q7920.5-808,7907.747-814.181c-.454-.22-.9-.461-1.595-.82,4.226-2.037,8.238-3.96,12.234-5.915a1.305,1.305,0,0,1,1.288.055Q7938.621-811.648,7957.576-802.453Z" transform="translate(-8.338 -27.331)" fill="#fbde7b"/>
      <path id="Trazado_584334" data-name="Trazado 584334" d="M8030.5-836.844c-3.54,1.716-6.751,3.26-9.949,4.833a1.663,1.663,0,0,1-1.61-.015c-12.022-5.823-24.052-11.63-36.439-17.614,1.708-.834,3.152-1.552,4.608-2.247,2.023-.967,4.052-2.659,6.084-2.666s4.076,1.654,6.094,2.626q14.864,7.167,29.716,14.357Z" transform="translate(-58.203 -5.456)" fill="#fade7b"/>
      <path id="Trazado_584335" data-name="Trazado 584335" d="M7952.748-832.241c2.176-1.052,4.312-2.061,6.421-3.12a1.814,1.814,0,0,1,1.776-.036q17.893,8.663,35.8,17.3c.082.04.119.174.269.407-2.28,1.1-4.54,2.187-6.794,3.283a1.4,1.4,0,0,1-1.312-.131q-17.971-8.7-35.946-17.4C7952.92-831.958,7952.9-832.026,7952.748-832.241Z" transform="translate(-38.772 -17.828)" fill="#f97d84"/>
      <path id="Trazado_584336" data-name="Trazado 584336" d="M8069.867-763.131c-2.038,1.5-4.449,2.241-6.931,3.584,0-2.978.316-5.743-.073-8.405-.6-4.087.9-6.454,4.808-7.493a13.822,13.822,0,0,0,1.891-.809l.359.309v12.468c-.048.028-.14.063-.137.084A1.4,1.4,0,0,0,8069.867-763.131Z" transform="translate(-110.61 -56.597)" fill="#e3626c"/>
      <path id="Trazado_584337" data-name="Trazado 584337" d="M7901.419-796.474q-.008,22.048-.015,44.095c-.76-.313-.452-.989-.453-1.5q-.026-20.6.009-41.194C7900.962-795.534,7900.5-796.267,7901.419-796.474Z" transform="translate(-4.873 -43.39)" fill="#fdd155"/>
      <path id="Trazado_584338" data-name="Trazado 584338" d="M8124.367-752.358q-.01-22.048-.018-44.1c.831.138.462.807.462,1.213q.036,20.776.01,41.551C8124.821-753.221,8125.065-752.612,8124.367-752.358Z" transform="translate(-150.852 -43.403)" fill="#fde06a"/>
      <path id="Trazado_584339" data-name="Trazado 584339" d="M8082.77-776l-.359-.309C8082.707-776.414,8082.786-776.264,8082.77-776Z" transform="translate(-123.46 -56.537)" fill="#f16974"/>
      <path id="Trazado_584340" data-name="Trazado 584340" d="M8083.136-739.07a1.4,1.4,0,0,1-.083-.261c0-.021.088-.056.137-.084Z" transform="translate(-123.879 -80.658)" fill="#f16974"/>
      <path id="Trazado_584341" data-name="Trazado 584341" d="M7923.39-703.586a1.165,1.165,0,0,1-1.768.948c-3.858-1.781-7.673-3.659-11.479-5.548a1.129,1.129,0,0,1-.507-1.628,1.235,1.235,0,0,1,1.752-.61q5.678,2.706,11.325,5.473A1.283,1.283,0,0,1,7923.39-703.586Z" transform="translate(-10.506 -99.491)" fill="#0b0803"/>
      <path id="Trazado_584342" data-name="Trazado 584342" d="M7911.069-692.678c.485.215,1.169.5,1.837.819q2.1,1,4.178,2.032c.761.379,1.168.966.757,1.817a1.23,1.23,0,0,1-1.76.577c-1.98-.911-3.936-1.877-5.882-2.859a1.166,1.166,0,0,1-.644-1.45C7909.739-692.349,7910.177-692.689,7911.069-692.678Z" transform="translate(-10.522 -111.183)" fill="#0b0803"/>
    </g>
  </g>
</svg>
