<svg xmlns="http://www.w3.org/2000/svg" width="77.223" height="78.066" viewBox="0 0 77.223 78.066">
  <g id="Grupo_845560" data-name="Grupo 845560" transform="translate(-6768.371 516.038)">
    <path id="Trazado_583522" data-name="Trazado 583522" d="M6773.56-484.218c-.989.092-1.331-.277-1.314-1.339.067-4.441.006-8.885.045-13.328.008-.973-.049-1.452-1.265-1.142-2.295.586-2.6.278-2.607-2.1a27.248,27.248,0,0,0-.02-2.888c-.172-1.57.435-2.281,2-2.65,10.822-2.546,21.641-5.109,32.419-7.832a16.3,16.3,0,0,1,8.3-.01c10.78,2.718,21.6,5.278,32.423,7.828,1.545.364,2.183,1.053,2.027,2.642-.119,1.22-.018,2.46-.027,3.691-.009,1.346-.689,1.8-1.981,1.526-1.868-.395-1.872-.376-1.872,1.562v55.079c0,2.569,0,2.624,2.555,2.577,1.04-.019,1.34.257,1.343,1.316s-.319,1.314-1.348,1.308q-11.561-.064-23.122,0c-1.05.007-1.441-.308-1.343-1.307-.084-.974.251-1.376,1.332-1.325,2.081.1,4.174-.047,6.254.058,1.194.06,1.509-.264,1.5-1.481q-.089-12.595,0-25.19c.011-1.316-.284-1.675-1.641-1.667-10.161.057-20.323.02-30.483.012-.113-2.554-.113-2.554,2.413-2.554q14.132,0,28.265.01c.871,0,1.492.048,1.464-1.2-.025-1.137-.333-1.4-1.444-1.4-9.8.045-19.593.014-29.389.044-.966,0-1.388-.138-1.4-1.272-.015-1.224.466-1.346,1.5-1.342,9.742.035,19.485.009,29.228.039,1,0,1.5-.074,1.516-1.325.011-1.331-.633-1.3-1.564-1.272-1.5.044-3,.012-4.5.012-8.243,0-16.487-.022-24.731.026-1.1.006-1.43-.248-1.449-1.394-.02-1.225.559-1.221,1.451-1.219,9.8.019,19.592,0,29.388.031.976,0,1.412-.15,1.39-1.281-.02-1.047-.295-1.341-1.346-1.329-4.924.055-9.849.019-14.774.026q-14.451.021-28.9.053a1.611,1.611,0,0,1-1.309-1.9c.043-1.229,0-2.461.012-3.691.011-1.948.248-2.184,2.258-2.185q22.151,0,44.3,0c2.071,0,2.295.227,2.3,2.31q0,15.57,0,31.14c0,5.884.033,11.769.05,17.653q-.054.316.262.263h7.074q.316.055.263-.262c.017-.64.05-1.28.05-1.92q0-26.441,0-52.883c0-1.334-.037-2.668-.057-4,.347-1.125-.4-1.349-1.239-1.55q-14.95-3.586-29.9-7.189a2.861,2.861,0,0,0-1.41-.133q-15.329,3.723-30.667,7.406c-.887.212-1.148.642-.93,1.466-.02,4.7-.071,9.4-.035,14.1C6774.884-484.57,6774.588-484.119,6773.56-484.218Zm69.292-18.442c.261-2.413.263-2.42-1.9-2.943q-16.293-3.947-32.586-7.9a5.744,5.744,0,0,0-2.824.025q-16.288,3.968-32.585,7.9c-2.159.523-2.159.526-1.824,2.907.624-.145,1.248-.286,1.868-.435q16.455-3.962,32.906-7.941a4.431,4.431,0,0,1,2.2.008c5.662,1.388,11.332,2.742,17,4.107Zm-35.869,15.809q10.122,0,20.244.008c.952,0,1.693.12,1.666-1.334-.025-1.351-.682-1.252-1.587-1.251q-20.324.02-40.648,0c-.908,0-1.56-.1-1.585,1.253-.028,1.456.719,1.334,1.667,1.332Q6796.862-486.866,6806.983-486.852Z" fill="#030404"/>
    <path id="Trazado_583523" data-name="Trazado 583523" d="M6849.744-422.033h-7.073l-.262-.263c-.017-5.884-.045-11.769-.05-17.653q-.012-15.57,0-31.14c0-2.084-.224-2.31-2.3-2.31q-22.15,0-44.3,0c-2.011,0-2.248.237-2.259,2.185-.007,1.23.032,2.462-.011,3.691a1.611,1.611,0,0,0,1.309,1.9q0,1.227,0,2.454H6784.5q0-1.226,0-2.452c1.028.1,1.325-.351,1.317-1.38-.036-4.7.015-9.4.035-14.1,2.283-.506,4.574-.978,6.846-1.526q12.032-2.9,24.053-5.847a4.454,4.454,0,0,1,2.188-.035q8.993,2.213,18,4.361c4.346,1.037,8.7,2.032,13.054,3.046.02,1.334.057,2.668.058,4q.005,26.441,0,52.883c0,.64-.032,1.28-.05,1.92Zm-31.794-55.231v.005c.909,0,1.822.046,2.728-.009a3.838,3.838,0,0,0,3.672-3.9,3.8,3.8,0,0,0-3.635-3.771c-1.87-.08-3.749-.084-5.617,0a3.8,3.8,0,0,0-3.593,3.811,3.835,3.835,0,0,0,3.556,3.852C6816.019-477.2,6816.986-477.264,6817.95-477.264Z" transform="translate(-10.945 -18.596)" fill="#0092b8"/>
    <path id="Trazado_583524" data-name="Trazado 583524" d="M6773.631-409.462h10.293q4.08.029,8.158.059c1.861.015,2.107.263,2.119,2.146q.034,5.359.06,10.719c-.019,2.082.037,4.169-.086,6.245-.073,1.216.3,1.5,1.491,1.486,6.465-.064,12.93-.032,19.4-.029,2.082,0,2.274.2,2.28,2.308q.028,9.777.053,19.553c-.234,1.019-.918,1.292-1.9,1.291q-22.551-.026-45.1,0c-1.367,0-1.917-.526-1.915-1.9q.035-19.983,0-39.967c0-1.406.607-1.92,1.948-1.865C6771.492-409.373,6772.563-409.443,6773.631-409.462Zm20.627,39.265c-.352,1.483.118,2,1.741,1.968,5.816-.1,11.636-.066,17.454-.017,1.042.009,1.349-.272,1.337-1.328-.054-4.964-.1-9.93.016-14.892.037-1.623-.483-2.094-1.968-1.742l-2.9.006c-.209-.041-.293.043-.253.252-.02,1.818-.085,3.638-.045,5.454.03,1.339-.465,1.989-1.868,1.959q-3.29-.071-6.583,0c-1.4.031-1.9-.618-1.869-1.958.041-1.817-.025-3.636-.044-5.454q.062-.314-.252-.253h-4.511q-.314-.062-.253.252Zm-4.557-36.579-2.9.006c-.21-.041-.293.043-.253.252-.021,1.818-.085,3.638-.046,5.454.03,1.339-.465,1.989-1.868,1.959q-3.29-.071-6.583,0c-1.4.031-1.9-.618-1.869-1.958.041-1.817-.025-3.636-.044-5.454q.062-.314-.252-.253h-4.511q-.313-.062-.253.252,0,7.876-.006,15.753c-.352,1.483.118,2,1.741,1.968,5.816-.1,11.636-.066,17.454-.017,1.042.009,1.349-.272,1.338-1.328-.055-4.964-.1-9.93.016-14.892C6791.705-406.657,6791.186-407.128,6789.7-406.776ZM6771.12-370.2c-.352,1.483.118,2,1.741,1.968,5.816-.1,11.636-.066,17.454-.017,1.042.009,1.349-.272,1.338-1.328-.055-4.964-.1-9.93.016-14.892.036-1.623-.483-2.094-1.968-1.742l-2.9.006c-.21-.041-.293.043-.253.252-.021,1.818-.085,3.638-.046,5.454.03,1.339-.465,1.989-1.868,1.959q-3.29-.071-6.583,0c-1.4.031-1.9-.618-1.869-1.958.041-1.817-.025-3.636-.044-5.454q.062-.314-.252-.253h-4.511q-.313-.062-.253.252Q6771.123-378.073,6771.12-370.2Zm10.293-36.635c-2.637,0-2.637,0-2.637,2.544,0,2.6,0,2.6,2.583,2.6,2.556,0,2.556,0,2.556-2.624C6783.917-406.832,6783.917-406.832,6781.414-406.832Zm-2.637,23.058c0,2.65,0,2.65,2.53,2.65,2.609,0,2.609,0,2.609-2.571s0-2.57-2.61-2.57C6778.777-386.264,6778.777-386.264,6778.777-383.773Zm25.777-2.49c-2.639,0-2.639,0-2.639,2.541,0,2.6,0,2.6,2.581,2.6,2.559,0,2.559,0,2.559-2.621C6807.055-386.264,6807.055-386.264,6804.554-386.264Z" transform="translate(-0.073 -72.304)" fill="#030301"/>
    <path id="Trazado_583525" data-name="Trazado 583525" d="M6871.59-339.8q-.027-9.776-.054-19.553c-.005-2.107-.2-2.307-2.279-2.308-6.466,0-12.931-.035-19.4.029-1.194.012-1.563-.27-1.491-1.486.124-2.076.067-4.163.087-6.245l2.553-.03c10.161.008,20.322.045,30.483-.012,1.355-.008,1.65.351,1.64,1.667q-.1,12.595,0,25.19c.009,1.216-.305,1.541-1.5,1.481-2.081-.1-4.173.041-6.255-.058-1.08-.051-1.417.35-1.332,1.325Z" transform="translate(-54.268 -99.484)" fill="#e1e2e0"/>
    <path id="Trazado_583526" data-name="Trazado 583526" d="M6829.4-401.914l-2.552.03q-.03-5.36-.061-10.719c-.011-1.882-.257-2.13-2.119-2.146q-4.08-.033-8.158-.059v-2.454q14.451-.027,28.9-.053c4.925-.007,9.85.029,14.774-.026,1.051-.012,1.326.282,1.346,1.329.021,1.13-.414,1.284-1.39,1.28-9.8-.031-19.592-.012-29.388-.031-.892,0-1.471-.006-1.451,1.219.019,1.146.344,1.4,1.449,1.394,8.244-.048,16.488-.026,24.731-.026,1.5,0,3,.033,4.5-.012.932-.027,1.576-.059,1.564,1.272-.011,1.251-.514,1.328-1.516,1.325-9.743-.031-19.485,0-29.228-.039-1.03,0-1.511.119-1.5,1.342.013,1.134.435,1.275,1.4,1.272,9.8-.03,19.592,0,29.389-.044,1.111-.005,1.419.261,1.444,1.4.028,1.252-.593,1.206-1.464,1.2q-14.133-.024-28.265-.01C6829.29-404.468,6829.29-404.468,6829.4-401.914Z" transform="translate(-32.662 -66.958)" fill="#c6c6c5"/>
    <path id="Trazado_583527" data-name="Trazado 583527" d="M6848.343-497.667l-17.746-4.272c-5.667-1.365-11.337-2.719-17-4.107a4.433,4.433,0,0,0-2.2-.008q-16.446,4-32.906,7.941c-.621.149-1.243.29-1.868.435-.333-2.381-.334-2.384,1.825-2.907q16.293-3.949,32.585-7.9a5.742,5.742,0,0,1,2.823-.025q16.287,3.982,32.587,7.9C6848.606-500.087,6848.6-500.08,6848.343-497.667Z" transform="translate(-5.492 -4.993)" fill="#dbdcda"/>
    <path id="Trazado_583528" data-name="Trazado 583528" d="M6842.219-430.714q-10.122,0-20.244.008c-.949,0-1.7.124-1.667-1.332.026-1.348.678-1.253,1.585-1.253q20.324.021,40.648,0c.905,0,1.562-.1,1.587,1.251.027,1.453-.714,1.336-1.666,1.334Q6852.341-430.73,6842.219-430.714Z" transform="translate(-35.235 -56.137)" fill="#c6c6c5"/>
    <path id="Trazado_583529" data-name="Trazado 583529" d="M6852.7-484.035c-4.352-1.014-8.708-2.009-13.054-3.046q-9.009-2.149-18-4.361a4.452,4.452,0,0,0-2.187.035q-12.026,2.928-24.054,5.847c-2.272.548-4.563,1.019-6.846,1.526-.218-.824.043-1.254.929-1.466q15.341-3.67,30.667-7.406a2.864,2.864,0,0,1,1.41.133q14.947,3.6,29.9,7.189C6852.3-485.384,6853.048-485.16,6852.7-484.035Z" transform="translate(-13.647 -15.661)" fill="#0582a5"/>
    <path id="Trazado_583530" data-name="Trazado 583530" d="M6964.559-282.349l.262.263C6964.61-282.05,6964.522-282.138,6964.559-282.349Z" transform="translate(-133.095 -158.543)" fill="#0582a5"/>
    <path id="Trazado_583531" data-name="Trazado 583531" d="M6987.388-282.085l.263-.262Q6987.7-282.031,6987.388-282.085Z" transform="translate(-148.589 -158.544)" fill="#0582a5"/>
    <path id="Trazado_583532" data-name="Trazado 583532" d="M6874.917-469.616c-.963,0-1.931.059-2.889-.012a3.835,3.835,0,0,1-3.556-3.852,3.8,3.8,0,0,1,3.593-3.811c1.869-.087,3.748-.083,5.617,0a3.8,3.8,0,0,1,3.635,3.771,3.838,3.838,0,0,1-3.672,3.9c-.906.055-1.819.009-2.729.009Zm-.015-2.57c.853,0,1.707.029,2.558-.009a1.192,1.192,0,0,0,1.253-1.2,1.188,1.188,0,0,0-1.268-1.336c-1.7-.04-3.412-.033-5.117,0a1.179,1.179,0,0,0-1.253,1.193,1.2,1.2,0,0,0,1.269,1.339C6873.194-472.148,6874.049-472.184,6874.9-472.186Z" transform="translate(-67.912 -26.244)" fill="#000304"/>
    <path id="Trazado_583533" data-name="Trazado 583533" d="M6792.379-337.138l2.9-.006c-.889,1.7-.572,3.54-.65,5.34a10.068,10.068,0,0,1-4.226,8.039,10.721,10.721,0,0,1-6.6,2.019c-2.375.021-4.817-.479-7.107.613q0-7.876.006-15.753l.253-.252h4.511l.252.253c.02,1.818.085,3.638.045,5.454-.03,1.34.465,1.989,1.869,1.958q3.289-.072,6.583,0c1.4.031,1.9-.62,1.868-1.959-.04-1.817.025-3.636.045-5.454Z" transform="translate(-5.647 -121.368)" fill="#f7bb1e"/>
    <path id="Trazado_583534" data-name="Trazado 583534" d="M6792.379-401.1l2.9-.006c-.889,1.7-.572,3.54-.65,5.34a10.068,10.068,0,0,1-4.226,8.039,10.723,10.723,0,0,1-6.6,2.019c-2.375.021-4.817-.479-7.107.613q0-7.876.006-15.753l.253-.252h4.511l.252.253c.02,1.818.085,3.638.045,5.454-.03,1.34.465,1.989,1.869,1.958q3.289-.072,6.583,0c1.4.031,1.9-.62,1.868-1.959-.04-1.817.025-3.636.045-5.454Z" transform="translate(-5.647 -77.974)" fill="#f7bb1e"/>
    <path id="Trazado_583535" data-name="Trazado 583535" d="M6864.333-337.138l2.9-.006c-.888,1.7-.571,3.54-.649,5.34a10.071,10.071,0,0,1-4.226,8.039,10.722,10.722,0,0,1-6.6,2.019c-2.375.021-4.817-.479-7.107.613l.006-15.753.253-.252h4.511l.252.253c.02,1.818.085,3.638.044,5.454-.03,1.34.466,1.989,1.869,1.958q3.29-.072,6.583,0c1.4.031,1.9-.62,1.868-1.959-.039-1.817.025-3.636.046-5.454Z" transform="translate(-54.464 -121.368)" fill="#f7bb1e"/>
    <path id="Trazado_583536" data-name="Trazado 583536" d="M6776.463-321.366c2.29-1.092,4.732-.591,7.107-.613a10.722,10.722,0,0,0,6.6-2.019,10.071,10.071,0,0,0,4.226-8.039c.078-1.8-.239-3.641.649-5.34,1.486-.353,2,.119,1.968,1.742-.111,4.962-.071,9.928-.016,14.892.011,1.056-.3,1.337-1.337,1.328-5.818-.048-11.638-.086-17.454.017C6776.581-319.368,6776.112-319.882,6776.463-321.366Zm17.911-1.956c.288-1.176-.369-1.264-1.322-1.292-1-.03-1.266.284-1.26,1.266s.2,1.407,1.311,1.384C6794.139-321.986,6794.627-322.23,6794.375-323.322Z" transform="translate(-5.416 -121.135)" fill="#f1a821"/>
    <path id="Trazado_583537" data-name="Trazado 583537" d="M6776.463-385.328c2.29-1.092,4.732-.592,7.107-.613a10.723,10.723,0,0,0,6.6-2.019,10.071,10.071,0,0,0,4.226-8.039c.078-1.8-.239-3.641.649-5.34,1.486-.353,2,.119,1.968,1.741-.111,4.962-.071,9.929-.016,14.892.011,1.056-.3,1.337-1.337,1.328-5.818-.048-11.638-.086-17.454.017C6776.581-383.331,6776.112-383.844,6776.463-385.328Zm17.912-1.982c.3-1.219-.436-1.214-1.344-1.264-1.042-.058-1.222.346-1.238,1.286-.018,1.034.262,1.365,1.333,1.362S6794.611-386.253,6794.375-387.31Z" transform="translate(-5.416 -77.741)" fill="#f1a821"/>
    <path id="Trazado_583538" data-name="Trazado 583538" d="M6848.418-321.366c2.29-1.092,4.731-.591,7.107-.613a10.72,10.72,0,0,0,6.6-2.019,10.071,10.071,0,0,0,4.226-8.039c.078-1.8-.239-3.641.649-5.34,1.485-.353,2,.119,1.968,1.742-.111,4.962-.07,9.928-.016,14.892.011,1.056-.3,1.337-1.338,1.328-5.818-.048-11.638-.086-17.454.017C6848.536-319.368,6848.066-319.882,6848.418-321.366Zm16.591-3.185c-1.229-.306-1.2.455-1.257,1.351-.066,1.054.365,1.208,1.292,1.23,1.045.024,1.354-.279,1.356-1.338C6866.4-324.4,6866.055-324.781,6865.009-324.551Z" transform="translate(-54.233 -121.135)" fill="#f1a821"/>
    <path id="Trazado_583539" data-name="Trazado 583539" d="M6803.142-401.28c2.5,0,2.5,0,2.5,2.516,0,2.624,0,2.624-2.556,2.624-2.584,0-2.584,0-2.584-2.6C6800.5-401.28,6800.5-401.28,6803.142-401.28Z" transform="translate(-21.801 -77.856)" fill="#f5d660"/>
    <path id="Trazado_583540" data-name="Trazado 583540" d="M6800.5-334.828c0-2.49,0-2.49,2.53-2.49,2.61,0,2.61,0,2.61,2.57s0,2.571-2.61,2.571C6800.5-332.178,6800.5-332.178,6800.5-334.828Z" transform="translate(-21.801 -121.25)" fill="#f5d660"/>
    <path id="Trazado_583541" data-name="Trazado 583541" d="M6875.1-337.318c2.5,0,2.5,0,2.5,2.519,0,2.621,0,2.621-2.559,2.621-2.581,0-2.581,0-2.581-2.6C6872.459-337.318,6872.459-337.318,6875.1-337.318Z" transform="translate(-70.617 -121.25)" fill="#f5d660"/>
    <path id="Trazado_583542" data-name="Trazado 583542" d="M6848.9-337.146l-.252.252Q6848.584-337.208,6848.9-337.146Z" transform="translate(-54.454 -121.359)" fill="#f1a821"/>
    <path id="Trazado_583543" data-name="Trazado 583543" d="M6863.733-336.892l-.251-.253C6863.69-337.186,6863.775-337.1,6863.733-336.892Z" transform="translate(-64.527 -121.36)" fill="#f1a821"/>
    <path id="Trazado_583544" data-name="Trazado 583544" d="M6791.779-336.892l-.251-.253Q6791.842-337.206,6791.779-336.892Z" transform="translate(-15.711 -121.36)" fill="#f1a821"/>
    <path id="Trazado_583545" data-name="Trazado 583545" d="M6896.869-337.146l-.252.252Q6896.555-337.208,6896.869-337.146Z" transform="translate(-87 -121.359)" fill="#f1a821"/>
    <path id="Trazado_583546" data-name="Trazado 583546" d="M6824.915-401.108l-.253.252C6824.622-401.066,6824.706-401.15,6824.915-401.108Z" transform="translate(-38.183 -77.965)" fill="#f1a821"/>
    <path id="Trazado_583547" data-name="Trazado 583547" d="M6824.915-337.146l-.253.252C6824.622-337.1,6824.706-337.188,6824.915-337.146Z" transform="translate(-38.183 -121.359)" fill="#f1a821"/>
    <path id="Trazado_583548" data-name="Trazado 583548" d="M6791.779-400.855l-.251-.253Q6791.842-401.169,6791.779-400.855Z" transform="translate(-15.711 -77.966)" fill="#f1a821"/>
    <path id="Trazado_583549" data-name="Trazado 583549" d="M6776.945-401.108l-.252.252Q6776.631-401.17,6776.945-401.108Z" transform="translate(-5.639 -77.965)" fill="#f1a821"/>
    <path id="Trazado_583550" data-name="Trazado 583550" d="M6776.945-337.146l-.252.252Q6776.631-337.208,6776.945-337.146Z" transform="translate(-5.639 -121.359)" fill="#f1a821"/>
    <path id="Trazado_583551" data-name="Trazado 583551" d="M6880.39-466.7c-.853,0-1.708.036-2.558-.01a1.2,1.2,0,0,1-1.269-1.339,1.179,1.179,0,0,1,1.252-1.193c1.706-.032,3.413-.039,5.117,0a1.188,1.188,0,0,1,1.268,1.336,1.193,1.193,0,0,1-1.253,1.2C6882.1-466.667,6881.243-466.7,6880.39-466.7Z" transform="translate(-73.4 -31.733)" fill="#54bdbb"/>
    <path id="Trazado_583552" data-name="Trazado 583552" d="M6826.948-296.167c.252,1.091-.235,1.335-1.272,1.358-1.111.024-1.3-.389-1.311-1.384s.258-1.3,1.261-1.266C6826.579-297.431,6827.235-297.343,6826.948-296.167Z" transform="translate(-37.989 -148.29)" fill="#060400"/>
    <path id="Trazado_583553" data-name="Trazado 583553" d="M6826.948-360.158c.236,1.057-.172,1.381-1.25,1.384s-1.35-.329-1.332-1.362c.016-.94.2-1.344,1.238-1.286C6826.513-361.372,6827.251-361.377,6826.948-360.158Z" transform="translate(-37.988 -104.893)" fill="#060400"/>
    <path id="Trazado_583554" data-name="Trazado 583554" d="M6897.579-297.4c1.046-.231,1.394.153,1.392,1.243,0,1.059-.312,1.362-1.356,1.338-.927-.022-1.357-.176-1.292-1.23C6896.378-296.948,6896.349-297.709,6897.579-297.4Z" transform="translate(-86.803 -148.283)" fill="#060400"/>
  </g>
</svg>
