<svg xmlns="http://www.w3.org/2000/svg" xmlns:xlink="http://www.w3.org/1999/xlink" width="139" height="140" viewBox="0 0 139 140">
  <defs>
    <clipPath id="clip-path">
      <ellipse id="Elipse_154" data-name="Elipse 154" cx="69.5" cy="70" rx="69.5" ry="70" transform="translate(-0.304 -0.327)" fill="#fff" stroke="#707070" stroke-width="1"/>
    </clipPath>
  </defs>
  <g id="Grupo_4585" data-name="Grupo 4585" transform="translate(0.304 0.327)">
    <g id="Enmascarar_grupo_17" data-name="Enmascarar grupo 17" transform="translate(0 0)" clip-path="url(#clip-path)">
      <g id="Elipse_7362" data-name="Elipse 7362" transform="translate(-7.304 -6.327)" fill="#fff" stroke="#707070" stroke-width="1">
        <circle cx="76.5" cy="76.5" r="76.5" stroke="none"/>
        <circle cx="76.5" cy="76.5" r="76" fill="none"/>
      </g>
      <g id="Grupo_845645" data-name="Grupo 845645" transform="translate(-8554.648 1043.42)">
        <path id="Trazado_584369" data-name="Trazado 584369" d="M8623.766-937.761q18.832,0,37.665,0c2.426,0,2.7.274,2.7,2.729q0,20.775-.012,41.549c0,1.148-.1,2.157,1.57,1.945a1.248,1.248,0,0,1,1.245.971c1.55,4.207-1.461,9.555-5.867,10.388a10.945,10.945,0,0,1-2.019.117q-35.3.009-70.6.008c-6.412,0-8.618-4.782-7.892-10.368a1.272,1.272,0,0,1,1.457-1.135c1.337.146,1.392-.573,1.387-1.608-.031-7.938-.017-15.876-.017-23.815q0-9.12,0-18.241c0-2.216.329-2.54,2.548-2.54Q8604.848-937.765,8623.766-937.761Zm-12.172,49.243a2.328,2.328,0,0,0-.624-.181c-8.771-.005-17.542.023-26.312-.015-1.669-.007-1.267.959-1.115,1.895a3.858,3.858,0,0,0,4.045,3.744c.446.033.893.1,1.339.1q34.83.007,69.659,0c.445,0,.892-.063,1.338-.1a3.858,3.858,0,0,0,4.044-3.744c.487-1.511-.1-1.925-1.62-1.915-8.434.058-16.867.024-25.3.028-.382,0-.793-.106-1.13.188a5.537,5.537,0,0,0-1.018.836,4.909,4.909,0,0,1-4.558,1.909c-3.485-.143-6.984-.148-10.471-.009C8616.722-885.655,8613.7-885.626,8611.594-888.518Zm-25.01-46.257c-.248-.035-.327.079-.275.31-.016,13.733-.009,27.467-.084,41.2-.007,1.457.446,1.724,1.8,1.711,7.43-.068,14.86.02,22.29-.071,1.773-.022,3.205.308,4.254,1.78a2.989,2.989,0,0,0,2.793,1.143c4.164-.06,8.331-.082,12.5.009a3.63,3.63,0,0,0,3.36-1.416,3.883,3.883,0,0,1,3.517-1.51c7.6.07,15.2-.006,22.8.067,1.4.013,1.761-.354,1.755-1.753q-.083-19.926,0-39.853c.007-1.437-.385-1.72-1.757-1.718q-35.041.068-70.082.035C8588.494-934.839,8587.539-934.8,8586.584-934.775Z" transform="translate(0 -56.427)" fill="#050506"/>
        <path id="Trazado_584370" data-name="Trazado 584370" d="M8646.231-1018.295a4.387,4.387,0,0,1,2.376,1.38c1.831,1.8,3.721,2.116,5.934.713.516-.327.881-.546.964-1.2.163-1.282.45-2.549.627-3.83a1.761,1.761,0,0,1,2-1.783c1.632.042,3.266.034,4.9,0a1.7,1.7,0,0,1,1.915,1.678,7.482,7.482,0,0,1,.268,1.661c-.28,2.9,1.7,3.756,3.895,4.529.629.222.942-.079,1.341-.362,1.056-.748,2.127-1.477,3.157-2.258a1.7,1.7,0,0,1,2.537.179q1.709,1.753,3.465,3.462a1.691,1.691,0,0,1,.241,2.532,15.778,15.778,0,0,1-1.086,1.5c-1.489,1.518-1.889,3.043-.729,5.042.529.91.89,1.609,2,1.617a2.348,2.348,0,0,1,.335.04c5,.767,5.258,1.112,4.7,6.121-.105.957-.485,1.671-1.544,1.616-.947-.049-1.289-.72-1.366-1.618-.254-2.969-.26-3.037-3.314-3.4-1.748-.209-3.048-.7-3.223-2.706a2.117,2.117,0,0,0-.415-1.095c-2.07-2.553-1.182-4.729.825-6.762.949-.961.779-1.641-.173-2.6-.981-.993-1.671-1.059-2.594-.112-.231.238-.572.366-.815.6-1.6,1.516-3.055,1.394-5.24.67-3.373-1.118-4.852-2.949-4.838-6.316,0-1.479-1.127-1.039-1.941-1.088-.85-.052-1.751-.174-1.737,1.141.032,3.289-1.462,4.964-4.691,6.253-2.689,1.073-4.143.351-5.964-1.083-1.517-1.193-2.725-.842-3.646.863-.391.722.2,1.086.522,1.432,2.054,2.212,2.376,4.2,1.071,7.3-1.2,2.844-2.8,3.6-5.3,3.738-1.448.078-1.953.6-1.8,2.058.116,1.117.359,2.68-1.386,2.706s-1.473-1.508-1.485-2.658c-.054-4.991-.155-4.145,4.09-4.955a4.672,4.672,0,0,0,3.878-3.991c.08-.538-.271-.835-.515-1.189-.737-1.063-1.5-2.112-2.255-3.159-.472-.65-.713-1.377-.123-2,1.389-1.474,2.844-2.886,4.3-4.293A2.509,2.509,0,0,1,8646.231-1018.295Z" transform="translate(-36.789)" fill="#050506"/>
        <path id="Trazado_584371" data-name="Trazado 584371" d="M8686.1-984.631a11.6,11.6,0,0,1,11.421,10.55c.07,1.049.135,2.212-1.221,2.383-1.379.174-1.548-.932-1.682-2.009-.6-4.8-4.115-8.03-8.663-8-4.458.028-7.931,3.263-8.519,7.977-.133,1.069-.274,2.191-1.66,2.036-1.358-.151-1.312-1.306-1.244-2.361A11.6,11.6,0,0,1,8686.1-984.631Z" transform="translate(-62.272 -25.405)" fill="#050506"/>
        <path id="Trazado_584372" data-name="Trazado 584372" d="M8691.573-962.039a5.785,5.785,0,0,1,5.681-5.456,5.8,5.8,0,0,1,5.8,5.263c.061.977-.229,1.743-1.235,1.884-1.038.146-1.511-.564-1.638-1.517a2.81,2.81,0,0,0-2.555-2.708,2.616,2.616,0,0,0-2.8,1.476,5.463,5.463,0,0,0-.42,1.445c-.191.9-.716,1.456-1.645,1.3A1.393,1.393,0,0,1,8691.573-962.039Z" transform="translate(-73.56 -36.747)" fill="#050506"/>
        <path id="Trazado_584373" data-name="Trazado 584373" d="M8597.945-929.124c.955-.023,1.91-.065,2.865-.065q35.041-.006,70.081-.035c1.372,0,1.765.281,1.758,1.718q-.1,19.926,0,39.853c.006,1.4-.353,1.767-1.755,1.753-7.6-.073-15.2,0-22.8-.067a3.884,3.884,0,0,0-3.518,1.51,3.628,3.628,0,0,1-3.36,1.416c-4.163-.091-8.331-.069-12.5-.009a2.987,2.987,0,0,1-2.792-1.143c-1.05-1.471-2.48-1.8-4.254-1.78-7.43.091-14.861,0-22.291.071-1.351.012-1.8-.255-1.8-1.711.074-13.733.067-27.467.084-41.2Zm35.592,25,.095-.009h.095q-.059,6.588-.119,13.177c-.524.039-.33.314-.188.572-2.646.276-2.642.276-2.646-2.32,0-1.9-.018-3.8-.026-5.7a1.882,1.882,0,0,0-2.79-.02q-.066,3.736-.131,7.473c-.479.073-.273.33-.152.564-2.66.3-2.66.3-2.661-2.281a16.382,16.382,0,0,1,.016-2.008c.14-1.12-.313-1.384-1.388-1.392-1.12-.008-1.611.21-1.516,1.451a33.857,33.857,0,0,1-.089,3.666c-.466.1-.207.344-.108.556-.272.042-.547.075-.817.126-1.547.29-2.01-.357-1.9-1.88.137-1.837-.046-3.7.06-5.536.066-1.148-.432-1.288-1.369-1.243-.87.042-1.617-.1-1.564,1.25.088,2.229-.039,4.467-.076,6.7-.262.118-.275.242-.008.372-2.253.877-2.768.578-2.77-1.605,0-1.337.063-2.678-.017-4.01-.081-1.353.348-2.745-.284-4.058l-.416-.009h-1.592c-.419-.065-.5.18-.477.52l-.205,8.8c-.248.115-.258.235-.007.359-2.251.887-2.76.583-2.761-1.647a10.681,10.681,0,0,1,.017-1.855c.308-1.733-.5-2.184-2.035-1.912l-.657.115c-.3.129-.207.341-.115.552-.037,1.283-.049,2.567-.127,3.848-.026.432.316,1.147-.477,1.2-.761.053-2.143.3-2.2-.158-.258-1.97-1.571-1.032-2.5-1.148l-.319.051c-.55,1.2-.185,2.454-.184,3.685,0,.318.171.444.476.414.445.032.892.093,1.338.093q34.178.007,68.357,0c.445,0,.892-.061,1.338-.093.3.026.473-.1.472-.418.112-7.8.149-15.6-.019-23.395l-.041-.327c-2.437-.763-2.775-.549-2.775,1.753,0,5.961-.008,11.922.008,17.883,0,.985.139,1.747-1.39,1.769-1.61.024-1.493-.775-1.5-1.844-.007-4.494-.059-8.987-.095-13.481.011-.038.039-.08.03-.114a1.5,1.5,0,0,0-.08-.206c-2.438-.747-2.745-.548-2.745,1.782q0,5.9,0,11.808c0,2.225-.512,2.529-2.761,1.642.251-.125.242-.244-.007-.359l-.214-10.148c.111-.369.1-.654-.409-.607-2.367-.136-2.367-.136-2.367,2.127v7.374c0,2.2-.508,2.494-2.77,1.619.238-.117.282-.229-.008-.333-.039-.607-.106-1.214-.112-1.822q-.057-5.682-.092-11.364c.06-.3-.049-.466-.365-.472a3.219,3.219,0,0,0-1.729.019c-.214-.087-.434-.2-.564.115-.04,4.1-.188,8.2-.067,12.294.052,1.749-.566,2.162-2.079,1.9-.219-.038-.436-.083-.652-.124.1-.212.355-.455-.109-.556-.039-.665-.107-1.329-.113-1.994q-.06-7.115-.1-14.23c.034-.282-.118-.348-.359-.31-2.406-.15-2.406-.15-2.406,2.283,0,4.447-.062,8.895.037,13.339.03,1.4-.445,1.8-1.7,1.6-.33-.052-.663-.08-.994-.119.122-.235.325-.491-.151-.565-.035-.667-.1-1.333-.1-2q-.05-8.465-.082-16.93c.056-.284.053-.528-.347-.495a3.719,3.719,0,0,0-2.485.188l-.317.188.3.084q.218,9.482,0,18.965c-.53.027-.363.307-.21.582a5.541,5.541,0,0,1-2.353-.01c.142-.258.336-.533-.187-.572q-.06-6.6-.118-13.2c-.86-1.161-1.907-.562-2.917-.31l-.3.2Zm-34.4-23.007c-.029,6.559-.076,13.117-.082,19.676,0,3.922.059,7.844.091,11.766-.054.293-.259.691.09.83.312.125.56-.217.737-.493,4.188-3.219,8.389-6.419,12.547-9.676a1.392,1.392,0,0,1,2.028-.05c2.614,1.95,5.335,3.759,7.922,5.743.99.759,1.531.608,2.378-.182,4.9-4.567,9.885-9.037,14.761-13.625,1.065-1,1.786-1.2,3.113-.393,4.8,2.929,9.7,5.69,14.544,8.539.676.4,1.151.655,1.861-.071,3.779-3.86,7.619-7.661,11.443-11.475a1.716,1.716,0,0,0,.624-1.312c-.05-3.091-.069-6.183-.1-9.275.105-.421-.023-.639-.489-.567-.392-.022-.783-.064-1.175-.064q-34.315,0-68.63,0c-.392,0-.783.042-1.175.064C8599.161-927.773,8599.031-927.556,8599.137-927.135Z" transform="translate(-11.361 -62.077)" fill="#e6e0d8"/>
        <path id="Trazado_584374" data-name="Trazado 584374" d="M8593.7-786.683a3.858,3.858,0,0,1-4.045-3.744c.338-1.107,1.063-1.389,2.217-1.381,7.973.058,15.947.037,23.921.019.644,0,1.362.252,1.913-.337,2.108,2.892,5.128,2.863,8.277,2.737,3.486-.14,6.985-.135,10.471.009a4.909,4.909,0,0,0,4.558-1.909,5.537,5.537,0,0,1,1.018-.836c.552.589,1.271.336,1.913.337,7.974.018,15.948.039,23.922-.019,1.154-.008,1.878.274,2.216,1.381a3.858,3.858,0,0,1-4.044,3.744c-.486-.574-1.15-.353-1.74-.353q-34.427-.016-68.855,0C8594.85-787.036,8594.186-787.257,8593.7-786.683Z" transform="translate(-6.111 -152.82)" fill="#fdd843"/>
        <path id="Trazado_584375" data-name="Trazado 584375" d="M8601.617-776.8c.485-.574,1.149-.353,1.74-.353q34.427-.016,68.855,0c.59,0,1.254-.22,1.74.353-.447.033-.893.1-1.339.1q-34.83.007-69.659,0C8602.51-776.708,8602.063-776.77,8601.617-776.8Z" transform="translate(-14.029 -162.699)" fill="#fee646"/>
        <path id="Trazado_584376" data-name="Trazado 584376" d="M8772.6-790.851c-.338-1.107-1.062-1.389-2.216-1.381-7.974.058-15.948.037-23.922.019-.643,0-1.361.252-1.913-.337.337-.294.748-.188,1.13-.188,8.434,0,16.867.029,25.3-.028C8772.5-792.776,8773.086-792.361,8772.6-790.851Z" transform="translate(-108.631 -152.396)" fill="#fee646"/>
        <path id="Trazado_584377" data-name="Trazado 584377" d="M8617.4-792.51c-.552.589-1.271.336-1.913.337-7.975.018-15.948.039-23.922-.019-1.154-.008-1.878.274-2.216,1.381-.152-.936-.554-1.9,1.114-1.895,8.771.038,17.541.01,26.312.015A2.345,2.345,0,0,1,8617.4-792.51Z" transform="translate(-5.809 -152.435)" fill="#fee646"/>
        <path id="Trazado_584378" data-name="Trazado 584378" d="M8598.08-928.941l-.275.31C8597.752-928.862,8597.832-928.976,8598.08-928.941Z" transform="translate(-11.496 -62.26)" fill="#cfc9c2"/>
        <path id="Trazado_584379" data-name="Trazado 584379" d="M8668.079-871.831c.036,4.494.088,8.987.1,13.481,0,1.069-.116,1.867,1.5,1.844,1.527-.022,1.391-.784,1.389-1.769q-.022-8.941-.008-17.883c0-2.3.338-2.516,2.775-1.753-.276.146-.287.258.041.327.169,7.8.131,15.6.019,23.395l-.472.418c-.446.032-.892.093-1.338.093q-34.178.007-68.357,0c-.445,0-.892-.061-1.338-.093l-.476-.414c0-1.231-.366-2.481.184-3.685.134.154.237.116.319-.051.932.116,2.246-.822,2.5,1.148.061.46,1.441.211,2.2.158.793-.055.451-.77.478-1.2.077-1.281.089-2.565.126-3.848.466-.1.223-.338.116-.552l.656-.115c1.532-.272,2.343.179,2.036,1.912a10.68,10.68,0,0,0-.018,1.855c0,2.23.511,2.534,2.762,1.647l.007-.359.205-8.8.476-.52h1.592c.132.336.271.361.417.009.631,1.313.2,2.705.283,4.058.079,1.332.018,2.673.018,4.01,0,2.184.516,2.482,2.769,1.605l.009-.372c.036-2.234.163-4.472.075-6.7-.053-1.347.694-1.208,1.565-1.25.937-.045,1.436.095,1.369,1.243-.106,1.841.076,3.7-.061,5.536-.113,1.524.35,2.17,1.9,1.88.271-.051.544-.085.816-.126.3-.134.2-.346.109-.556a33.857,33.857,0,0,0,.089-3.666c-.1-1.241.395-1.459,1.515-1.451,1.075.008,1.528.272,1.389,1.392a16.19,16.19,0,0,0-.016,2.008c0,2.578,0,2.578,2.661,2.281.345-.109.217-.345.151-.564l.132-7.473,2.789.02c.01,1.9.023,3.8.027,5.7,0,2.6,0,2.6,2.646,2.32.368-.091.233-.346.188-.572l.12-13.177,2.78-.027q.059,6.6.118,13.2c-.046.226-.18.482.188.572a5.536,5.536,0,0,0,2.352.01c.391-.078.249-.348.211-.582q.2-9.482,0-18.965l.084-.026.063.062c.045-.029.127-.061.125-.088a1.379,1.379,0,0,0-.062-.268l-.075.1-.113-.049a3.721,3.721,0,0,1,2.486-.188l.347.495q.038,8.466.081,16.93c0,.667.065,1.333.1,2-.064.219-.193.455.152.565.331.039.664.067.993.119,1.259.2,1.735-.2,1.7-1.6-.1-4.444-.037-8.892-.037-13.339,0-2.433,0-2.433,2.406-2.283l.359.31q.047,7.115.1,14.23c.006.665.074,1.329.113,1.994-.09.21-.188.422.109.556.218.041.435.086.652.124,1.514.264,2.132-.149,2.08-1.9-.122-4.094.026-8.2.066-12.294.217.1.463.349.565-.115a3.216,3.216,0,0,1,1.729-.019l.366.472q.042,5.682.091,11.364c.007.608.073,1.215.112,1.822l.009.333c2.261.875,2.769.578,2.769-1.619v-7.374c0-2.263,0-2.263,2.367-2.127a.581.581,0,0,0,.41.607q.107,5.074.213,10.148l.008.359c2.249.887,2.761.583,2.761-1.642q0-5.9,0-11.808c0-2.33.307-2.529,2.744-1.782C8667.77-872,8667.8-871.9,8668.079-871.831Z" transform="translate(-14.14 -95.778)" fill="#050506"/>
        <path id="Trazado_584380" data-name="Trazado 584380" d="M8602.5-924.849c.392-.022.783-.064,1.175-.064q34.315,0,68.63,0c.392,0,.783.042,1.176.064a.507.507,0,0,0,.488.567c.03,3.092.05,6.184.1,9.275a1.712,1.712,0,0,1-.623,1.312c-3.825,3.814-7.665,7.615-11.443,11.475-.711.726-1.186.468-1.861.071-4.848-2.848-9.747-5.61-14.545-8.539-1.326-.81-2.048-.609-3.113.393-4.876,4.589-9.863,9.058-14.76,13.625-.848.79-1.389.941-2.379.182-2.586-1.984-5.307-3.792-7.922-5.743a1.392,1.392,0,0,0-2.028.05c-4.157,3.257-8.359,6.457-12.546,9.676-.177-.356-.51-.329-.828-.337-.032-3.922-.094-7.844-.091-11.766.006-6.559.054-13.117.083-19.676A.506.506,0,0,0,8602.5-924.849Zm2.345,27.233c3.632-2.82,6.941-5.331,10.176-7.937a1.739,1.739,0,0,1,2.584-.107c2.406,1.854,4.972,3.5,7.379,5.354,1.083.833,1.709.672,2.66-.218,4.891-4.58,9.891-9.045,14.773-13.633a1.775,1.775,0,0,1,2.567-.213c4.789,2.848,9.645,5.582,14.415,8.461a1.692,1.692,0,0,0,2.545-.366,56.135,56.135,0,0,1,5.752-5.706,8.65,8.65,0,0,0,3.511-8.462c-.163-1.379-.542-1.617-1.771-1.608-6.814.049-13.629.023-20.443.023-14.19,0-28.383.015-42.573-.026-1.233,0-1.666.272-1.607,1.576.112,2.473.032,4.954.032,7.432Z" transform="translate(-14.235 -64.93)" fill="#050506"/>
        <path id="Trazado_584381" data-name="Trazado 584381" d="M8706.881-856.458l-2.781.027H8704l-.095.009c.018-.115.035-.23.054-.345C8704.974-857.019,8706.021-857.618,8706.881-856.458Z" transform="translate(-81.734 -109.783)" fill="#534e4d"/>
        <path id="Trazado_584382" data-name="Trazado 584382" d="M8690.194-839.326l-2.79-.02A1.882,1.882,0,0,1,8690.194-839.326Z" transform="translate(-70.809 -121.163)" fill="#534e4d"/>
        <path id="Trazado_584383" data-name="Trazado 584383" d="M8601.984-830.056c.318.008.651-.019.828.337-.179.276-.426.618-.738.493C8601.727-829.365,8601.932-829.763,8601.984-830.056Z" transform="translate(-14.201 -127.714)" fill="#1a1617"/>
        <path id="Trazado_584384" data-name="Trazado 584384" d="M8602.6-924.746a.507.507,0,0,1-.49.566C8602-924.6,8602.13-924.818,8602.6-924.746Z" transform="translate(-14.33 -65.032)" fill="#1a1617"/>
        <path id="Trazado_584385" data-name="Trazado 584385" d="M8814.031-924.179a.507.507,0,0,1-.489-.567C8814.008-924.818,8814.137-924.6,8814.031-924.179Z" transform="translate(-154.296 -65.032)" fill="#1a1617"/>
        <path id="Trazado_584386" data-name="Trazado 584386" d="M8713.111-815.484c-.368-.09-.233-.346-.187-.572C8713.447-816.017,8713.253-815.742,8713.111-815.484Z" transform="translate(-87.659 -136.98)" fill="#f5efe6"/>
        <path id="Trazado_584387" data-name="Trazado 584387" d="M8730.145-815.49c-.346-.109-.217-.346-.152-.565C8730.47-815.982,8730.266-815.725,8730.145-815.49Z" transform="translate(-98.945 -136.981)" fill="#f5efe6"/>
        <path id="Trazado_584388" data-name="Trazado 584388" d="M8747.2-815.5c-.3-.134-.2-.346-.109-.556C8747.555-815.954,8747.3-815.711,8747.2-815.5Z" transform="translate(-110.253 -136.981)" fill="#f5efe6"/>
        <path id="Trazado_584389" data-name="Trazado 584389" d="M8756.432-856.54c-.1.464-.35.214-.565.115C8756-856.741,8756.218-856.627,8756.432-856.54Z" transform="translate(-116.122 -110.123)" fill="#1a1617"/>
        <path id="Trazado_584390" data-name="Trazado 584390" d="M8720.471-816.057c.038.233.18.5-.211.582C8720.106-815.75,8719.939-816.03,8720.471-816.057Z" transform="translate(-92.455 -136.98)" fill="#f5efe6"/>
        <path id="Trazado_584391" data-name="Trazado 584391" d="M8619.268-830.724c.106.215.35.457-.115.552C8619.061-830.383,8618.967-830.595,8619.268-830.724Z" transform="translate(-25.576 -127.272)" fill="#1a1617"/>
        <path id="Trazado_584392" data-name="Trazado 584392" d="M8669.366-816.053c.09.21.189.422-.108.556C8669.159-815.709,8668.9-815.953,8669.366-816.053Z" transform="translate(-58.692 -136.982)" fill="#f5efe6"/>
        <path id="Trazado_584393" data-name="Trazado 584393" d="M8686.427-816.054c.065.219.193.456-.151.564C8686.154-815.724,8685.949-815.981,8686.427-816.054Z" transform="translate(-69.963 -136.981)" fill="#f5efe6"/>
        <path id="Trazado_584394" data-name="Trazado 584394" d="M8703.444-816.056c.046.226.181.481-.188.572C8703.115-815.742,8702.92-816.017,8703.444-816.056Z" transform="translate(-81.198 -136.98)" fill="#f5efe6"/>
        <path id="Trazado_584395" data-name="Trazado 584395" d="M8728.931-873.016l-.347-.5C8728.982-873.545,8728.986-873.3,8728.931-873.016Z" transform="translate(-98.065 -98.95)" fill="#1a1617"/>
        <path id="Trazado_584396" data-name="Trazado 584396" d="M8703.48-856.023l-.053.345-.247-.142Z" transform="translate(-81.251 -110.527)" fill="#f5efe6"/>
        <path id="Trazado_584397" data-name="Trazado 584397" d="M8779.96-847.324a.581.581,0,0,1-.409-.607C8780.058-847.978,8780.071-847.693,8779.96-847.324Z" transform="translate(-131.799 -115.88)" fill="#1a1617"/>
        <path id="Trazado_584398" data-name="Trazado 584398" d="M8720.59-872.77l-.3-.084.317-.188.113.049.075-.1-.063.355-.062-.062Z" transform="translate(-92.578 -99.231)" fill="#f5efe6"/>
        <path id="Trazado_584399" data-name="Trazado 584399" d="M8814.48-876.808c-.328-.069-.317-.181-.041-.327Z" transform="translate(-154.754 -96.554)" fill="#1a1617"/>
        <path id="Trazado_584400" data-name="Trazado 584400" d="M8652.43-816.133l-.009.372C8652.153-815.891,8652.167-816.015,8652.43-816.133Z" transform="translate(-47.526 -136.929)" fill="#f5efe6"/>
        <path id="Trazado_584401" data-name="Trazado 584401" d="M8642.907-843.66c-.146.352-.285.327-.417-.009Z" transform="translate(-41.082 -118.704)" fill="#1a1617"/>
        <path id="Trazado_584402" data-name="Trazado 584402" d="M8763.018-855.94l-.366-.472C8762.968-856.405,8763.076-856.237,8763.018-855.94Z" transform="translate(-120.613 -110.27)" fill="#1a1617"/>
        <path id="Trazado_584403" data-name="Trazado 584403" d="M8636.842-843.692l-.476.52C8636.342-843.513,8636.424-843.757,8636.842-843.692Z" transform="translate(-37.026 -118.682)" fill="#1a1617"/>
        <path id="Trazado_584404" data-name="Trazado 584404" d="M8797.4-859.778c-.28-.065-.31-.17-.05-.32a1.492,1.492,0,0,1,.081.206C8797.438-859.859,8797.41-859.816,8797.4-859.778Z" transform="translate(-143.46 -107.83)" fill="#1a1617"/>
        <path id="Trazado_584405" data-name="Trazado 584405" d="M8603-818.019c-.082.167-.186.206-.319.051Z" transform="translate(-14.734 -135.681)" fill="#1a1617"/>
        <path id="Trazado_584406" data-name="Trazado 584406" d="M8635.395-816.114l-.008.359C8635.136-815.879,8635.146-816,8635.395-816.114Z" transform="translate(-36.259 -136.942)" fill="#f5efe6"/>
        <path id="Trazado_584407" data-name="Trazado 584407" d="M8764.344-815.686l-.009-.333C8764.626-815.915,8764.582-815.8,8764.344-815.686Z" transform="translate(-121.728 -137.005)" fill="#f5efe6"/>
        <path id="Trazado_584408" data-name="Trazado 584408" d="M8781.4-815.755l-.007-.359C8781.643-816,8781.652-815.879,8781.4-815.755Z" transform="translate(-133.018 -136.942)" fill="#f5efe6"/>
        <path id="Trazado_584409" data-name="Trazado 584409" d="M8813.624-806.561l.472-.418C8814.1-806.661,8813.928-806.534,8813.624-806.561Z" transform="translate(-154.351 -142.988)" fill="#1a1617"/>
        <path id="Trazado_584410" data-name="Trazado 584410" d="M8745.938-864.664l-.359-.31C8745.82-865.012,8745.974-864.947,8745.938-864.664Z" transform="translate(-109.314 -104.596)" fill="#1a1617"/>
        <path id="Trazado_584411" data-name="Trazado 584411" d="M8602.14-806.968l.476.414C8602.312-806.524,8602.143-806.651,8602.14-806.968Z" transform="translate(-14.375 -142.995)" fill="#1a1617"/>
        <path id="Trazado_584412" data-name="Trazado 584412" d="M8721.6-872.735l.063-.355a1.454,1.454,0,0,1,.062.268C8721.729-872.8,8721.646-872.764,8721.6-872.735Z" transform="translate(-93.444 -99.231)" fill="#1a1617"/>
        <path id="Trazado_584413" data-name="Trazado 584413" d="M8610.481-892.017v-15.431c0-2.478.08-4.959-.032-7.432-.059-1.3.375-1.58,1.607-1.576,14.191.041,28.383.026,42.574.026,6.814,0,13.629.026,20.442-.023,1.229-.009,1.607.23,1.771,1.609a8.648,8.648,0,0,1-3.511,8.462,56.133,56.133,0,0,0-5.751,5.706,1.692,1.692,0,0,1-2.545.366c-4.771-2.878-9.627-5.613-14.415-8.461a1.776,1.776,0,0,0-2.568.213c-4.883,4.588-9.882,9.053-14.772,13.633-.951.89-1.577,1.052-2.66.218-2.407-1.853-4.973-3.5-7.38-5.354a1.738,1.738,0,0,0-2.583.107C8617.424-897.349,8614.114-894.837,8610.481-892.017Z" transform="translate(-19.872 -70.528)" fill="#2487fd"/>
      </g>
    </g>
  </g>
</svg>
