<svg xmlns="http://www.w3.org/2000/svg" xmlns:xlink="http://www.w3.org/1999/xlink" width="139" height="140" viewBox="0 0 139 140">
  <defs>
    <clipPath id="clip-path">
      <ellipse id="Elipse_154" data-name="Elipse 154" cx="69.5" cy="70" rx="69.5" ry="70" transform="translate(0.108 -0.327)" fill="#fff" stroke="#707070" stroke-width="1"/>
    </clipPath>
  </defs>
  <g id="Grupo_845316" data-name="Grupo 845316" transform="translate(-0.108 0.327)">
    <g id="Enmascarar_grupo_17" data-name="Enmascarar grupo 17" transform="translate(0 0)" clip-path="url(#clip-path)">
      <g id="Elipse_7362" data-name="Elipse 7362" transform="translate(-7.892 -6.327)" fill="#fff" stroke="#707070" stroke-width="1">
        <ellipse cx="77" cy="76.5" rx="77" ry="76.5" stroke="none"/>
        <ellipse cx="77" cy="76.5" rx="76.5" ry="76" fill="none"/>
      </g>
      <g id="Grupo_845644" data-name="Grupo 845644" transform="translate(-8182.931 1040.721)">
        <path id="Trazado_584343" data-name="Trazado 584343" d="M8273.806-970.576c-4.74,0-9.3.005-13.868,0-3.533,0-5.03-1.519-5.031-5.1q-.009-15.812,0-31.624c0-3.457,1.532-5.006,4.949-5.007q21.458-.008,42.915,0c3.446,0,4.988,1.533,4.99,4.965q.012,15.9,0,31.8c0,3.431-1.544,4.961-4.99,4.967-4.571.008-9.142,0-13.909,0,.556,1.715,1.069,3.293,1.58,4.873.375,1.165,1.368.7,2.058.651,1.234-.1,1.382.439,1.392,1.487s-.219,1.373-1.33,1.364q-11.206-.081-22.412.005c-1.259.011-1.34-.485-1.371-1.5-.031-1.072.271-1.523,1.347-1.315,1.478.286,2.191-.363,2.5-1.8C8272.884-968.036,8273.367-969.214,8273.806-970.576Zm7.531-8.349c7.3,0,14.6-.027,21.9.026,1.278.009,1.793-.206,1.78-1.668-.075-8.864-.034-17.729-.042-26.593,0-2.115-.261-2.362-2.442-2.363q-21.2-.005-42.406,0c-2.177,0-2.432.245-2.434,2.37-.007,8.865.035,17.729-.041,26.593-.014,1.476.524,1.668,1.787,1.66C8266.738-978.951,8274.038-978.925,8281.337-978.925Zm-.018,2.787q-11.12,0-22.237.012c-.557,0-1.362-.312-1.39.766-.024.95.146,1.76,1.248,1.957a6.967,6.967,0,0,0,1.213.041q21.193,0,42.388,0c.291,0,.58,0,.87-.009,1.185-.05,1.561-.756,1.573-1.845.016-1.328-.963-.905-1.6-.907C8296.028-976.147,8288.674-976.138,8281.319-976.138Zm6.2,11.121c-.726-5.2-1.117-5.557-5.953-5.557h-.521c-4.353,0-4.353,0-5.645,4.151a5.1,5.1,0,0,1-.173.491c-.294.693-.032.925.677.922C8279.767-965.025,8283.632-965.017,8287.515-965.017Z" transform="translate(-28.794 0)" fill="#020303"/>
        <path id="Trazado_584344" data-name="Trazado 584344" d="M8227.444-824.588c-4,0-7.989.015-11.984-.005-2.976-.015-4.6-1.652-4.648-4.608-.007-.463.04-.931-.01-1.388-.169-1.526-.113-2.757,2.031-2.372,1.125.2.738-.791.742-1.315.027-4.342.012-8.685.019-13.027,0-3.589,1.489-5.1,5.021-5.106q8.943-.01,17.889,0c3.327.005,4.9,1.564,4.905,4.872.013,4.4.043,8.8-.022,13.2-.019,1.134.289,1.607,1.426,1.4,1.169-.213,1.362.329,1.417,1.417.273,5.512-1.139,7.239-6.887,6.961C8234.05-824.719,8230.743-824.588,8227.444-824.588Zm.056-8.352c3.242,0,6.485-.03,9.727.018.986.015,1.444-.151,1.427-1.3-.068-4.458-.056-8.917-.015-13.376.014-1.5-.644-2.047-2.1-2.038q-9.032.056-18.064,0c-1.456-.009-2.12.524-2.1,2.033.04,4.458.053,8.918-.014,13.375-.019,1.148.43,1.325,1.421,1.31C8221.015-832.971,8224.258-832.94,8227.5-832.94Zm-.006,2.789c-4.168,0-8.334-.01-12.5.012-.554,0-1.364-.323-1.395.757-.027.948.138,1.757,1.237,1.966a5.65,5.65,0,0,0,1.039.04q11.634,0,23.269,0a5.332,5.332,0,0,0,1.039-.041c1.094-.221,1.258-1.034,1.224-1.979-.039-1.083-.86-.737-1.408-.741C8235.829-830.162,8231.663-830.151,8227.494-830.151Z" transform="translate(-0.001 -104.253)" fill="#020303"/>
        <path id="Trazado_584345" data-name="Trazado 584345" d="M8371.345-824.59c-4,0-7.989.016-11.984-.006-2.965-.016-4.588-1.661-4.628-4.628a15.337,15.337,0,0,0-.015-1.735c-.19-1.464.176-2.316,1.879-1.986,1.016.2.919-.529.919-1.181q-.01-6.687,0-13.374c.008-3.329,1.565-4.9,4.867-4.91q9.029-.015,18.063,0c3.312.005,4.877,1.575,4.885,4.893.011,4.342.037,8.685-.021,13.026-.014,1.108.112,1.817,1.445,1.555,1.2-.238,1.338.384,1.393,1.436.28,5.5-1.143,7.221-6.9,6.94C8377.95-824.721,8374.644-824.59,8371.345-824.59Zm-.026-8.352c3.3,0,6.6-.045,9.9.025,1.1.024,1.361-.339,1.35-1.384-.054-4.458-.044-8.917-.014-13.375.009-1.408-.608-1.969-2-1.962q-9.119.043-18.237,0c-1.511-.009-2.049.649-2.035,2.1.042,4.4.058,8.8-.014,13.2-.019,1.2.41,1.436,1.494,1.415C8364.949-832.981,8368.135-832.942,8371.318-832.942Zm.188,2.789c-4.226,0-8.451-.009-12.677.012-.5,0-1.244-.283-1.3.668-.052.852.014,1.678.978,1.988a4.608,4.608,0,0,0,1.374.105q11.547.008,23.1,0c.289,0,.58.01.867-.011,1.2-.089,1.5-.861,1.492-1.92-.011-1.2-.9-.827-1.5-.831C8379.725-830.165,8375.615-830.152,8371.506-830.152Z" transform="translate(-93.843 -104.252)" fill="#020303"/>
        <path id="Trazado_584346" data-name="Trazado 584346" d="M8222.808-934.644a4.173,4.173,0,0,1-3.729-2.907,3.791,3.791,0,0,1,1.4-4.47,2.47,2.47,0,0,0,1.2-2.544c-.034-7.814.021-15.629-.054-23.443a3.906,3.906,0,0,1,1.459-3.445,11.739,11.739,0,0,0,2.077-2.088c.867-1.161,1.434-.758,2.266.071.747.743.68,1.226-.093,1.74-2.605,1.736-3.029,4.208-2.946,7.174.191,6.767.074,13.544.045,20.316a2.06,2.06,0,0,0,1.049,2.086,3.9,3.9,0,0,1,1.494,4.744A4.141,4.141,0,0,1,8222.808-934.644Zm-1.158-4.066a1.388,1.388,0,0,0,1.366,1.265,1.287,1.287,0,0,0,1.407-1.415,1.263,1.263,0,0,0-1.326-1.321C8222.2-940.2,8221.756-939.631,8221.649-938.71Z" transform="translate(-5.293 -24.808)" fill="#050506"/>
        <path id="Trazado_584347" data-name="Trazado 584347" d="M8423.024-956.243c0,4.11.024,8.22-.02,12.329a1.816,1.816,0,0,0,.936,1.8,3.978,3.978,0,0,1,1.666,4.7,4.162,4.162,0,0,1-3.9,2.909,4.166,4.166,0,0,1-4.059-2.936,3.968,3.968,0,0,1,1.7-4.682,1.811,1.811,0,0,0,.906-1.812c-.025-7.583-.053-15.166.017-22.749a3.758,3.758,0,0,0-1.442-3.446c-.552-.409-.939-1.038-1.489-1.449-.941-.7-.644-1.185.057-1.877.729-.72,1.074-.847,2.025-.1a8.85,8.85,0,0,1,3.669,8.648A78.088,78.088,0,0,0,8423.024-956.243Zm0,17.568a1.359,1.359,0,0,0-1.316-1.377,1.285,1.285,0,0,0-1.448,1.372,1.262,1.262,0,0,0,1.285,1.361A1.359,1.359,0,0,0,8423.029-938.675Z" transform="translate(-134.314 -24.936)" fill="#050506"/>
        <path id="Trazado_584348" data-name="Trazado 584348" d="M8334.48-860.4a4.292,4.292,0,0,1,4.338,2.838,3.829,3.829,0,0,1-1.449,4.606,2.271,2.271,0,0,0-1.113,2.406,27.33,27.33,0,0,1-.01,3.3c-.152,1.862.021,3.523,1.742,4.712,1.137.785-.027,1.211-.42,1.695-.428.531-.773,1.016-1.617.264-1.719-1.534-2.979-3.125-2.506-5.63a15.138,15.138,0,0,0,.027-2.947c-.018-1.609.275-3.138-1.59-4.3-1.451-.9-1.557-2.776-.836-4.421A3.927,3.927,0,0,1,8334.48-860.4Zm1.783,4.249a1.36,1.36,0,0,0-1.254-1.439,1.286,1.286,0,0,0-1.508,1.305,1.265,1.265,0,0,0,1.225,1.418A1.361,1.361,0,0,0,8336.264-856.15Z" transform="translate(-78.156 -99.048)" fill="#060607"/>
        <path id="Trazado_584349" data-name="Trazado 584349" d="M8312.373-850.939c0,.811.043,1.624-.009,2.431a2.9,2.9,0,0,0,1.328,3.01,3.942,3.942,0,0,1,.28,5.973,4.151,4.151,0,0,1-6.156-.189,4,4,0,0,1,.628-5.964,2.347,2.347,0,0,0,1.155-2.387,28.017,28.017,0,0,1,0-3.472c.117-1.792.01-3.441-1.711-4.543-.99-.634-.282-1.148.233-1.58.481-.4.674-1.246,1.748-.469C8312.454-856.256,8312.721-853.744,8312.373-850.939Zm0,8.5c-.109-.8-.531-1.338-1.33-1.362a1.284,1.284,0,0,0-1.435,1.385,1.264,1.264,0,0,0,1.3,1.348C8311.8-841.032,8312.259-841.591,8312.375-842.439Z" transform="translate(-62.612 -100.321)" fill="#060607"/>
        <path id="Trazado_584350" data-name="Trazado 584350" d="M8286.484-973.705c-7.3,0-14.6-.026-21.9.025-1.265.009-1.8-.184-1.789-1.66.078-8.864.035-17.728.042-26.593,0-2.125.257-2.37,2.435-2.37q21.2-.006,42.406,0c2.182,0,2.44.247,2.442,2.363.007,8.864-.034,17.729.042,26.593.013,1.462-.5,1.678-1.781,1.668C8301.085-973.732,8293.784-973.705,8286.484-973.705Zm-4.373-6.234c1.026.036,1.244.7,1.3,1.427.12,1.654.929,2.348,2.6,2.046a5.172,5.172,0,0,1,1.561,0c1.145.149,1.6-.317,1.841-1.455.518-2.452.718-2.523,2.923-1.113.914.584,1.531.591,2.2-.26a5.987,5.987,0,0,1,1.229-1.224c1.337-.935,1.284-1.883.382-3.161-1.043-1.477-.841-1.943,1-2.264,1.484-.259,2.115-.891,1.875-2.4a6.181,6.181,0,0,1,0-1.735c.139-1.13-.285-1.608-1.438-1.851-2.5-.526-2.548-.689-1.136-2.906.575-.9.631-1.536-.243-2.2a4.7,4.7,0,0,1-.98-.982c-1.007-1.407-2.077-1.766-3.543-.547-1.125.938-2,.56-2.107-.909-.139-1.834-1.139-2.307-2.767-2.058a3.224,3.224,0,0,1-1.041,0c-1.435-.261-2.041.347-2.3,1.766-.377,2.021-.775,2.178-2.5.985-1.128-.778-1.924-.8-2.739.329a5.1,5.1,0,0,1-1.1,1.1c-1.155.845-1.255,1.66-.383,2.878,1.179,1.647.952,1.96-1.058,2.522-.572.16-1.54-.022-1.614.733a15.963,15.963,0,0,0,.048,4.49c.147.791,1.39.6,2.141.814,1.106.31,1.621.953.812,1.843-1.613,1.772-.757,2.933.723,4.075a3.924,3.924,0,0,1,.734.737,1.244,1.244,0,0,0,2.047.26A13.084,13.084,0,0,1,8282.111-979.94Zm-13.721-9.028a16.992,16.992,0,0,0,.671,4.788c.171.614.265,1.367,1.21.91.727-.351,1.905-.192,1.484-1.73a14.629,14.629,0,0,1,2.69-13.392c.96-1.242-.229-1.424-.678-1.982-.683-.852-1.125-.3-1.587.306A18.2,18.2,0,0,0,8268.391-988.968Zm36.176.065a16.026,16.026,0,0,0-.638-4.789c-.177-.617-.15-1.54-1.264-1.02-.748.35-1.874.206-1.454,1.735a14.527,14.527,0,0,1-2.625,13.238c-.978,1.275.093,1.523.628,2.127.75.844,1.145.217,1.584-.363A18.14,18.14,0,0,0,8304.566-988.9Zm-31.429,11.827c.615-.657,1.863-1.072,1.645-1.832-.235-.827-.744-2.127-1.888-2.112-.643.008-1.947.408-1.729,1.426A4.181,4.181,0,0,0,8273.138-977.075Zm26.891-19.718c.648-.6,1.972-.591,1.775-1.606-.181-.932-.835-2.143-1.825-2.255-.658-.075-1.9.836-1.723,1.709A3.279,3.279,0,0,0,8300.028-996.793Z" transform="translate(-33.941 -5.22)" fill="#328abb"/>
        <path id="Trazado_584351" data-name="Trazado 584351" d="M8286.541-908.45c7.354,0,14.708-.009,22.063.015.639,0,1.618-.421,1.6.907-.012,1.089-.388,1.8-1.573,1.845-.289.012-.579.009-.87.009q-21.192,0-42.388,0a6.967,6.967,0,0,1-1.213-.041c-1.1-.2-1.272-1.007-1.248-1.957.027-1.077.833-.764,1.391-.766Q8275.423-908.465,8286.541-908.45Z" transform="translate(-34.015 -67.687)" fill="#006fac"/>
        <path id="Trazado_584352" data-name="Trazado 584352" d="M8325.365-886.816c-3.883,0-7.748-.008-11.613.007-.709,0-.973-.229-.678-.922.068-.159.121-.325.174-.491,1.293-4.152,1.293-4.152,5.643-4.152h.521C8324.25-892.373,8324.641-892.016,8325.365-886.816Z" transform="translate(-66.644 -78.201)" fill="#328abb"/>
        <path id="Trazado_584353" data-name="Trazado 584353" d="M8238.009-827.74c-3.242,0-6.484-.031-9.727.019-.991.015-1.439-.161-1.421-1.309.066-4.458.056-8.917.014-13.375-.014-1.51.648-2.042,2.105-2.033q9.032.056,18.065,0c1.46-.009,2.116.533,2.1,2.037-.041,4.459-.053,8.918.014,13.376.018,1.154-.44,1.32-1.426,1.305C8244.5-827.77,8241.252-827.74,8238.009-827.74Z" transform="translate(-10.51 -109.454)" fill="#30c091"/>
        <path id="Trazado_584354" data-name="Trazado 584354" d="M8232.839-788.5c4.166,0,8.334-.012,12.5.014.546,0,1.368-.343,1.407.74.034.945-.13,1.759-1.225,1.979a5.31,5.31,0,0,1-1.038.041q-11.634,0-23.269,0a5.639,5.639,0,0,1-1.039-.04c-1.1-.209-1.265-1.018-1.237-1.966.03-1.081.842-.754,1.395-.757C8224.5-788.514,8228.672-788.5,8232.839-788.5Z" transform="translate(-5.345 -145.9)" fill="#00af75"/>
        <path id="Trazado_584355" data-name="Trazado 584355" d="M8381.808-827.739c-3.184,0-6.37-.04-9.554.022-1.084.021-1.513-.219-1.493-1.415.07-4.4.056-8.8.014-13.2-.014-1.456.524-2.114,2.034-2.1q9.119.056,18.237,0c1.391-.007,2.008.554,2,1.962-.03,4.458-.04,8.918.014,13.376.013,1.045-.251,1.407-1.35,1.384C8388.409-827.784,8385.108-827.739,8381.808-827.739Z" transform="translate(-104.333 -109.454)" fill="#30c091"/>
        <path id="Trazado_584356" data-name="Trazado 584356" d="M8376.831-788.507c4.109,0,8.219-.012,12.328.014.6,0,1.488-.368,1.5.831.01,1.059-.289,1.831-1.492,1.92-.287.021-.578.011-.867.011q-11.547,0-23.1,0a4.6,4.6,0,0,1-1.373-.105c-.965-.31-1.03-1.135-.979-1.988.059-.951.8-.665,1.3-.668C8368.38-788.516,8372.605-788.507,8376.831-788.507Z" transform="translate(-99.168 -145.897)" fill="#00af75"/>
        <path id="Trazado_584357" data-name="Trazado 584357" d="M8226.877-874.853c.107-.921.555-1.487,1.447-1.47A1.262,1.262,0,0,1,8229.65-875a1.286,1.286,0,0,1-1.406,1.415A1.389,1.389,0,0,1,8226.877-874.853Z" transform="translate(-10.521 -88.665)" fill="#e2e5e7"/>
        <path id="Trazado_584358" data-name="Trazado 584358" d="M8429.624-874.947c-.122.849-.587,1.4-1.479,1.356a1.263,1.263,0,0,1-1.286-1.361,1.285,1.285,0,0,1,1.448-1.372A1.358,1.358,0,0,1,8429.624-874.947Z" transform="translate(-140.91 -88.663)" fill="#e2e5e7"/>
        <path id="Trazado_584359" data-name="Trazado 584359" d="M8341.671-850.9a1.361,1.361,0,0,1-1.537,1.285,1.265,1.265,0,0,1-1.224-1.418,1.286,1.286,0,0,1,1.508-1.305A1.359,1.359,0,0,1,8341.671-850.9Z" transform="translate(-83.565 -104.297)" fill="#e2e5e7"/>
        <path id="Trazado_584360" data-name="Trazado 584360" d="M8317.7-815c-.117.848-.575,1.407-1.467,1.371a1.263,1.263,0,0,1-1.3-1.349,1.283,1.283,0,0,1,1.434-1.385C8317.166-816.338,8317.588-815.8,8317.7-815Z" transform="translate(-67.935 -127.76)" fill="#e2e5e7"/>
        <path id="Trazado_584361" data-name="Trazado 584361" d="M8302.95-974.867a12.906,12.906,0,0,0-1.552.938,1.244,1.244,0,0,1-2.047-.26,3.909,3.909,0,0,0-.736-.737c-1.479-1.142-2.335-2.3-.722-4.075.811-.89.3-1.533-.811-1.843-.751-.21-1.994-.024-2.143-.814a15.963,15.963,0,0,1-.048-4.49c.076-.755,1.043-.573,1.615-.733,2.009-.562,2.235-.875,1.057-2.522-.872-1.218-.772-2.033.384-2.878a5.078,5.078,0,0,0,1.1-1.1c.816-1.127,1.613-1.107,2.739-.329,1.729,1.193,2.128,1.036,2.5-.985.265-1.419.87-2.027,2.307-1.766a3.227,3.227,0,0,0,1.041,0c1.626-.249,2.626.224,2.765,2.058.112,1.469.982,1.846,2.109.909,1.465-1.219,2.536-.861,3.541.547a4.77,4.77,0,0,0,.98.982c.874.667.818,1.3.244,2.2-1.412,2.217-1.36,2.38,1.135,2.906,1.154.243,1.578.722,1.438,1.851a6.293,6.293,0,0,0,0,1.735c.241,1.511-.391,2.143-1.875,2.4-1.843.321-2.046.787-1,2.264.9,1.277.956,2.225-.382,3.161a6.032,6.032,0,0,0-1.229,1.224c-.669.851-1.286.843-2.2.26-2.207-1.409-2.407-1.339-2.925,1.113-.24,1.138-.7,1.6-1.841,1.455a5.162,5.162,0,0,0-1.56,0c-1.667.3-2.476-.391-2.6-2.046C8304.2-974.169,8303.977-974.831,8302.95-974.867Zm-1.571-4.457a6.378,6.378,0,0,0-.519.912c-.176.437-.88.839-.347,1.347.43.411.838-.15,1.213-.355a3.774,3.774,0,0,1,4.939,2.024c.12.418.039,1.067.594,1.132.651.076.565-.614.686-1.01a3.689,3.689,0,0,1,5.159-2.034c.334.177.675.618,1.065.221s-.053-.734-.229-1.067a3.674,3.674,0,0,1,2.046-5.15c.4-.12,1.06-.038,1.008-.7-.039-.49-.607-.449-.971-.559a3.684,3.684,0,0,1-2.1-5.122c.18-.335.617-.671.277-1.074-.373-.441-.727,0-1.061.176a3.686,3.686,0,0,1-5.222-2.143c-.111-.347-.047-.9-.619-.9-.457,0-.439.469-.545.772a3.638,3.638,0,0,1-5.286,2.236c-.3-.154-.607-.485-.937-.229-.461.359-.052.715.123,1.055a3.662,3.662,0,0,1-2.078,5.246c-.354.109-.912.047-.936.586-.026.57.548.5.895.616A5.18,5.18,0,0,1,8301.379-979.324Z" transform="translate(-54.779 -10.292)" fill="#040405"/>
        <path id="Trazado_584362" data-name="Trazado 584362" d="M8278.871-982.421a18.175,18.175,0,0,1,3.789-11.1c.463-.609.9-1.157,1.588-.306.449.558,1.639.74.678,1.982a14.627,14.627,0,0,0-2.691,13.392c.422,1.538-.756,1.379-1.484,1.73-.945.457-1.037-.3-1.209-.91A16.957,16.957,0,0,1,8278.871-982.421Z" transform="translate(-44.421 -11.767)" fill="#030607"/>
        <path id="Trazado_584363" data-name="Trazado 584363" d="M8370.877-971.214a18.146,18.146,0,0,1-3.769,10.928c-.44.58-.835,1.207-1.584.363-.536-.6-1.605-.852-.628-2.127a14.527,14.527,0,0,0,2.625-13.238c-.42-1.529.706-1.385,1.453-1.735,1.113-.521,1.087.4,1.265,1.02A16.089,16.089,0,0,1,8370.877-971.214Z" transform="translate(-100.251 -22.909)" fill="#030607"/>
        <path id="Trazado_584364" data-name="Trazado 584364" d="M8288.771-933.446a4.183,4.183,0,0,1-1.973-2.518c-.217-1.019,1.086-1.418,1.73-1.426,1.142-.014,1.65,1.285,1.887,2.112C8290.633-934.518,8289.386-934.1,8288.771-933.446Z" transform="translate(-49.574 -48.849)" fill="#04090c"/>
        <path id="Trazado_584365" data-name="Trazado 584365" d="M8366.433-989.96a3.28,3.28,0,0,1-1.771-2.153c-.172-.873,1.065-1.784,1.724-1.709.989.112,1.645,1.323,1.824,2.255C8368.406-990.551,8367.083-990.56,8366.433-989.96Z" transform="translate(-100.346 -12.053)" fill="#04090c"/>
        <path id="Trazado_584366" data-name="Trazado 584366" d="M8306.774-973.878a5.182,5.182,0,0,0-2.846-4.014c-.347-.114-.92-.045-.895-.616.024-.54.582-.477.935-.586a3.66,3.66,0,0,0,2.078-5.246c-.174-.34-.584-.7-.121-1.055.329-.256.636.076.937.229a3.638,3.638,0,0,0,5.286-2.236c.106-.3.088-.768.544-.772.573-.005.51.551.62.9a3.687,3.687,0,0,0,5.223,2.143c.333-.174.686-.617,1.06-.176.341.4-.1.74-.277,1.074a3.684,3.684,0,0,0,2.1,5.122c.363.11.932.069.971.559.054.658-.61.576-1.008.7a3.676,3.676,0,0,0-2.047,5.15c.178.334.619.674.23,1.067s-.731-.044-1.064-.221a3.69,3.69,0,0,0-5.16,2.034c-.118.4-.034,1.086-.684,1.01-.555-.065-.476-.714-.6-1.132a3.773,3.773,0,0,0-4.939-2.024c-.376.2-.783.766-1.213.355-.534-.508.171-.91.346-1.347A6.464,6.464,0,0,1,8306.774-973.878Zm10.105-4.7a4.192,4.192,0,0,0-4.294-4.072,4.2,4.2,0,0,0-4.034,4.165,4.194,4.194,0,0,0,4.21,4.16A4.2,4.2,0,0,0,8316.88-978.579Z" transform="translate(-60.175 -15.738)" fill="#d98bb2"/>
        <path id="Trazado_584367" data-name="Trazado 584367" d="M8327.217-968.236a4.2,4.2,0,0,1-4.117,4.253,4.194,4.194,0,0,1-4.211-4.16,4.2,4.2,0,0,1,4.034-4.165A4.191,4.191,0,0,1,8327.217-968.236Zm-4.206,1.478c.859-.092,1.411-.534,1.4-1.427a1.254,1.254,0,0,0-1.307-1.318,1.257,1.257,0,0,0-1.4,1.226C8321.622-967.393,8322.146-966.908,8323.011-966.758Z" transform="translate(-70.513 -26.081)" fill="#050305"/>
        <path id="Trazado_584368" data-name="Trazado 584368" d="M8328.265-961.5c-.863-.15-1.388-.634-1.309-1.519a1.258,1.258,0,0,1,1.4-1.226,1.254,1.254,0,0,1,1.307,1.318C8329.677-962.035,8329.123-961.593,8328.265-961.5Z" transform="translate(-75.768 -31.338)" fill="#2f83b2"/>
      </g>
    </g>
  </g>
</svg>
