<svg id="Grupo_845530" data-name="Grupo 845530" xmlns="http://www.w3.org/2000/svg" width="98.795" height="98.795" viewBox="0 0 98.795 98.795">
  <rect id="Rectángulo_38178" data-name="Rectángulo 38178" width="98.795" height="98.795" transform="translate(0 0)" fill="none"/>
  <g id="Grupo_846159" data-name="Grupo 846159" transform="translate(9.659 9.706)">
    <path id="Trazado_585398" data-name="Trazado 585398" d="M1853.833-857.73a10.526,10.526,0,0,1-4.195-11.075c-2.055,0-4.073.01-6.09,0-2.218-.014-3.118-.9-3.148-3.073-.007-.532-.009-1.066,0-1.6.037-2.077.948-2.97,3.056-3,2.06-.033,2.06-.033,2.06-2.117,0-7.246.033-14.493-.03-21.739-.011-1.316.188-1.785,1.682-1.772,9.966.083,19.932.07,29.9.012,1.335-.008,1.781.215,1.763,1.691-.092,7.512-.019,15.025-.069,22.538-.007,1.093.229,1.421,1.376,1.437,1.2.016,1.223-.518,1.22-1.421-.024-7.619.013-15.239-.042-22.858-.008-1.145.316-1.386,1.414-1.381q15.269.066,30.537,0c1.157-.006,1.38.338,1.373,1.423-.049,7.512,0,15.025-.055,22.538-.01,1.254.176,1.867,1.6,1.673,1.4-.19,2.872.034,3.285,1.579.458,1.715.763,3.584-.42,5.205-.673.923-1.74.879-2.773.878q-22.463-.014-44.927-.006h-1.8a10.532,10.532,0,0,1-4.161,11.05c.605.256,1.125.456,1.63.69,7.467,3.462,11.478,9.3,11.736,17.528.162,5.163,0,10.336.059,15.5.012,1.065-.3,1.306-1.327,1.3q-15.988-.056-31.976,0c-1.08,0-1.319-.323-1.294-1.336.066-2.769,0-5.541.04-8.311a1.645,1.645,0,0,0-.873-1.653,6.236,6.236,0,0,1-2.982-5.655,19.3,19.3,0,0,1,12.039-17.518C1852.832-857.361,1853.233-857.5,1853.833-857.73Zm-5.816,17.069c-.093-.991.288-1.457,1.343-1.3.469.072.964-.039,1.435.023.942.123,1.162-.287,1.138-1.169-.058-2.128.04-4.262-.043-6.389-.042-1.081.206-1.464,1.374-1.437,3.62.081,7.243.057,10.864.01a2.436,2.436,0,0,1,1.943.831c1.742,1.8,3.495,3.586,5.317,5.3a3.074,3.074,0,0,1,1.023,2.5c-.047,5.218-.031,10.437,0,15.655,0,.443-.371,1.215.469,1.275a6.991,6.991,0,0,0,3.123-.161c.605-.263.185-1.464.213-2.242.045-1.223.043-2.45.006-3.674-.112-3.72.349-7.462-.321-11.159a16.638,16.638,0,0,0-17.521-13.387,16.573,16.573,0,0,0-15.31,15.313c-.34,3.483,1.1,5.1,4.546,5.111,3.611.006,7.221.012,10.831,0,1.562-.007,2.416-.713,2.411-1.918s-.848-1.9-2.424-1.905c-3.026-.017-6.054-.056-9.078.022C1848.3-839.328,1847.924-839.672,1848.017-840.661Zm28.205-47.256v-7.669c0-3.917,0-3.917-3.971-3.917-3.658,0-3.658,0-3.7,3.712a1,1,0,0,0,0,.16c.152.956-.194,1.3-1.212,1.269-2.5-.074-5.008.01-7.51-.038-1.313-.025-2.986.579-3.842-.26-.787-.771-.158-2.428-.241-3.691a.794.794,0,0,1,0-.16c.1-.757-.216-1.027-.985-1.006-1.7.046-3.413.088-5.112-.011-1.217-.071-1.622.245-1.605,1.55.078,5.858.034,11.717.034,17.575,0,3.917,0,3.917,3.971,3.917,3.658,0,3.658,0,3.7-3.712a.942.942,0,0,0,0-.16c-.151-.955.193-1.3,1.212-1.27,2.5.075,5.007-.01,7.51.038,1.313.025,2.986-.579,3.842.26.786.771.158,2.428.241,3.692a.828.828,0,0,1,0,.159c-.1.758.216,1.026.985,1.006,1.757-.045,3.519-.078,5.272.01,1.093.055,1.467-.233,1.439-1.389C1876.171-881.2,1876.222-884.562,1876.223-887.917Zm35.826.083v-8.149c0-3.521,0-3.547-3.569-3.507-1.315.014-2.983-.571-3.848.25-.8.762-.267,2.427-.22,3.683.04,1.08-.426,1.2-1.319,1.186-2.556-.047-5.114-.017-7.671-.017-3.8,0-3.8,0-3.845-3.722a2.08,2.08,0,0,1,0-.319c.118-.828-.212-1.123-1.064-1.092a46.585,46.585,0,0,1-4.951-.01c-1.3-.092-1.709.258-1.691,1.63.082,5.964.035,11.929.035,17.894,0,3.521,0,3.547,3.568,3.508,1.315-.014,2.983.571,3.848-.25.8-.762.267-2.427.22-3.684-.04-1.08.426-1.2,1.319-1.186,2.556.046,5.114.016,7.671.016,3.8,0,3.8,0,3.845,3.723a2.044,2.044,0,0,1,0,.319c-.117.828.212,1.122,1.064,1.092,1.7-.059,3.413-.089,5.112.008,1.16.067,1.563-.222,1.527-1.468C1911.985-881.228,1912.049-884.532,1912.049-887.834Zm-42.222,54.2c0-2.4-.042-4.793.021-7.187.024-.922-.274-1.186-1.166-1.139-1.327.069-2.668-.062-3.991.043-1.11.087-1.337-.355-1.281-1.349.077-1.38-.008-2.768.031-4.151.019-.661-.144-.948-.876-.935q-3.594.06-7.189,0c-.69-.01-.934.193-.912.9.047,1.49.066,2.984-.005,4.471-.042.876.279,1.094,1.093,1.049,1.115-.062,2.236-.041,3.354-.008a4.48,4.48,0,0,1,4.523,4.42,4.488,4.488,0,0,1-4.581,4.525c-1.117.029-2.238.04-3.354-.006-.712-.029-1.059.114-1.033.943.057,1.915.068,3.835,0,5.749-.035.931.385,1.009,1.135,1,4.367-.026,8.734-.037,13.1.007.9.009,1.179-.24,1.156-1.15C1869.787-828.84,1869.827-831.237,1869.827-833.633Zm-10.293-40.281a7.68,7.68,0,0,0-7.607,7.644,7.681,7.681,0,0,0,7.726,7.687,7.678,7.678,0,0,0,7.607-7.646A7.675,7.675,0,0,0,1859.534-873.914Zm7.205-.007c.959,2.329,2.592,2.623,4.7,2.6,11.127-.107,22.256-.051,33.385-.051,3.674,0,7.349-.035,11.021.022,1.034.016,1.322-.276,1.365-1.327.054-1.35-.679-1.257-1.585-1.256q-23.8.018-47.6.009Zm-14.824,44.786c0-3.924,0-3.894-3.859-3.874-.923,0-1.337.152-1.28,1.206a52.214,52.214,0,0,1,0,5.271c-.048,1,.264,1.239,1.244,1.243C1851.914-825.272,1851.914-825.235,1851.914-829.135Zm.556-44.786c-2.914,0-5.671.042-8.426-.022-1-.023-1.109.427-1.1,1.239s0,1.44,1.142,1.359a19.38,19.38,0,0,1,4.129.015C1850.334-871.021,1851.561-871.972,1852.47-873.921Zm9.733-23.03c.959,0,1.923-.056,2.877.014,1.217.089.86-.764.906-1.383.05-.669.09-1.246-.929-1.207-1.917.072-3.837.05-5.755.006-.754-.018-.979.212-1.017.983-.057,1.161.162,1.806,1.523,1.608A16.923,16.923,0,0,1,1862.2-896.95Zm35.7,0c.8,0,1.6-.03,2.4.008.908.043,1.594.1,1.57-1.249-.022-1.21-.463-1.385-1.495-1.335-1.6.077-3.2.079-4.795,0-1.038-.052-1.494.132-1.487,1.341.007,1.154.467,1.319,1.411,1.248C1896.3-897,1897.1-896.95,1897.9-896.95Zm-35.781,20.466c1.013,0,2.028-.042,3.037.011,1.108.058.816-.723.822-1.3s.26-1.316-.836-1.286c-1.971.055-3.945.038-5.916,0-.68-.012-.881.2-.94.9-.107,1.252.163,1.914,1.6,1.693A14.852,14.852,0,0,1,1862.119-876.484Zm35.931-2.556a26.48,26.48,0,0,1-2.717-.019c-1.04-.108-1.256.323-1.219,1.266.032.835.016,1.408,1.155,1.336,1.646-.1,3.3-.052,4.955-.017.959.02,1.677.1,1.651-1.337-.024-1.354-.693-1.274-1.587-1.236C1899.543-879.014,1898.8-879.039,1898.05-879.039Zm-30.455,34.468-1.471-1.64C1865.665-844.7,1866.182-844.188,1867.595-844.571Z" transform="translate(-1840.396 902.111)" fill="#040403"/>
    <path id="Trazado_585399" data-name="Trazado 585399" d="M1987.321-719.431c-5.914,0-11.828-.027-17.742.025-1.054.01-1.313-.285-1.309-1.32q.06-14.062,0-28.125c-.005-1.057.292-1.309,1.323-1.306q17.9.054,35.8,0c1.053,0,1.313.284,1.309,1.319q-.06,14.062,0,28.125c0,1.057-.291,1.315-1.323,1.307C1999.363-719.456,1993.342-719.431,1987.321-719.431Zm.132-2.563c5.118,0,10.235-.013,15.353.013.858,0,1.344-.05,1.338-1.159q-.075-11.671-.005-23.343c0-.987-.4-1.13-1.23-1.1-1.6.051-3.2-.025-4.8.027-1.366.044-3.084-.583-4,.283-.774.735-.233,2.43-.2,3.694.023.941-.316,1.163-1.2,1.145-2.5-.051-5.011.012-7.516-.03-1.317-.022-2.983.564-3.856-.243-.818-.755-.267-2.424-.228-3.681.034-1.064-.4-1.217-1.309-1.2-2.558.05-5.119.074-7.675-.009-1.1-.036-1.3.372-1.3,1.368q.055,11.431-.007,22.863c-.007,1.145.331,1.411,1.432,1.4C1977.325-722.026,1982.389-721.994,1987.453-721.994Zm-.048-23.023c.853,0,1.709-.048,2.558.013.946.068,1.4-.1,1.411-1.249.008-1.209-.448-1.394-1.487-1.342-1.6.079-3.2.078-4.8,0-1.032-.05-1.473.126-1.495,1.336-.025,1.347.66,1.3,1.57,1.25C1985.911-745.046,1986.659-745.017,1987.405-745.017Z" transform="translate(-1927.346 798.788)" fill="#030302"/>
    <path id="Trazado_585400" data-name="Trazado 585400" d="M1892.482-882.449c0,3.355-.052,6.712.028,10.065.027,1.157-.346,1.444-1.439,1.389-1.754-.088-3.516-.055-5.272-.01-.769.02-1.086-.248-.985-1.006a.827.827,0,0,0,0-.159c-.083-1.264.545-2.92-.241-3.692-.855-.839-2.528-.235-3.841-.26-2.5-.048-5.009.036-7.51-.038-1.018-.03-1.362.315-1.212,1.27a.942.942,0,0,1,0,.16c-.039,3.712-.039,3.712-3.7,3.712-3.971,0-3.972,0-3.971-3.918,0-5.858.044-11.718-.034-17.575-.017-1.3.388-1.621,1.605-1.55,1.7.1,3.409.057,5.112.011.769-.021,1.086.249.985,1.006a.83.83,0,0,0,0,.16c.084,1.263-.545,2.92.241,3.691.856.839,2.528.235,3.842.26,2.5.048,5.009-.036,7.51.038,1.017.03,1.363-.313,1.211-1.269a.968.968,0,0,1,0-.16c.039-3.712.039-3.712,3.7-3.712,3.972,0,3.972,0,3.972,3.917Z" transform="translate(-1856.655 896.643)" fill="#d19f6b"/>
    <path id="Trazado_585401" data-name="Trazado 585401" d="M2004.424-882.666c0,3.3-.063,6.606.032,9.905.036,1.245-.366,1.534-1.527,1.468-1.7-.1-3.409-.067-5.112-.008-.852.03-1.181-.264-1.063-1.092a2.075,2.075,0,0,0,0-.319c-.043-3.723-.043-3.723-3.846-3.723-2.557,0-5.114.03-7.671-.016-.892-.016-1.359.106-1.319,1.186.047,1.256.583,2.922-.22,3.684-.865.821-2.533.236-3.848.25-3.568.039-3.568.013-3.568-3.508,0-5.965.047-11.93-.035-17.894-.019-1.372.389-1.722,1.69-1.63a46.654,46.654,0,0,0,4.952.011c.852-.031,1.181.264,1.063,1.092a2.142,2.142,0,0,0,0,.319c.043,3.722.043,3.722,3.845,3.722,2.557,0,5.115-.03,7.671.017.893.016,1.359-.106,1.319-1.186-.046-1.256-.583-2.921.22-3.683.865-.821,2.533-.236,3.848-.25,3.568-.039,3.569-.014,3.569,3.507Q2004.424-886.741,2004.424-882.666Z" transform="translate(-1932.771 896.943)" fill="#d19f6b"/>
    <path id="Trazado_585402" data-name="Trazado 585402" d="M1848.743-742.716a16.573,16.573,0,0,1,15.311-15.313,16.638,16.638,0,0,1,17.521,13.387c.67,3.7.208,7.439.321,11.159.037,1.224.039,2.451-.006,3.674-.029.778.392,1.98-.213,2.242a6.991,6.991,0,0,1-3.123.161c-.84-.059-.467-.831-.469-1.275-.028-5.218-.043-10.437,0-15.655a3.074,3.074,0,0,0-1.023-2.5c-1.822-1.714-3.575-3.5-5.317-5.3a2.435,2.435,0,0,0-1.943-.831c-3.621.047-7.244.071-10.864-.01-1.167-.026-1.416.357-1.374,1.438.084,2.127-.015,4.26.044,6.388.024.882-.2,1.292-1.139,1.169-.472-.061-.967.049-1.435-.023-1.054-.162-1.435.3-1.342,1.3Z" transform="translate(-1846.072 804.165)" fill="#f7d36e"/>
    <path id="Trazado_585403" data-name="Trazado 585403" d="M1899.7-719.412c0,2.4-.04,4.793.021,7.187.023.91-.256,1.159-1.156,1.15-4.366-.044-8.734-.033-13.1-.007-.75,0-1.17-.074-1.135-1,.071-1.914.061-3.834,0-5.749-.025-.828.322-.972,1.033-.943,1.116.046,2.237.035,3.354.006a4.488,4.488,0,0,0,4.581-4.525,4.48,4.48,0,0,0-4.523-4.42c-1.117-.033-2.24-.054-3.354.008-.814.045-1.135-.173-1.093-1.049.072-1.487.052-2.981.006-4.471-.022-.708.221-.911.912-.9,2.4.035,4.793.039,7.189,0,.733-.012.9.275.876.936-.039,1.383.046,2.771-.031,4.151-.055.994.171,1.436,1.281,1.349,1.323-.1,2.664.027,3.991-.043.891-.047,1.189.217,1.166,1.139C1899.656-724.205,1899.7-721.808,1899.7-719.412Z" transform="translate(-1870.266 787.89)" fill="#e3e6ea"/>
    <path id="Trazado_585404" data-name="Trazado 585404" d="M1884.033-814a7.675,7.675,0,0,1,7.726,7.685,7.678,7.678,0,0,1-7.607,7.646,7.681,7.681,0,0,1-7.726-7.686A7.68,7.68,0,0,1,1884.033-814Z" transform="translate(-1864.895 842.201)" fill="#edcdb2"/>
    <path id="Trazado_585405" data-name="Trazado 585405" d="M1922.711-814.045H1924q23.8,0,47.6-.009c.905,0,1.639-.093,1.585,1.256-.043,1.051-.331,1.343-1.365,1.327-3.673-.057-7.347-.022-11.021-.022-11.129,0-22.258-.057-33.385.051C1925.3-811.423,1923.67-811.717,1922.711-814.045Z" transform="translate(-1896.368 842.236)" fill="#808c98"/>
    <path id="Trazado_585406" data-name="Trazado 585406" d="M1848.64-710.1h4.95c-.093.989.287,1.333,1.337,1.305,3.024-.078,6.052-.039,9.078-.022,1.575.009,2.419.7,2.424,1.905s-.849,1.911-2.411,1.918c-3.611.016-7.221.01-10.831,0C1849.738-705,1848.3-706.619,1848.64-710.1Z" transform="translate(-1845.969 771.551)" fill="#eccdb1"/>
    <path id="Trazado_585407" data-name="Trazado 585407" d="M1865.458-682.319c0,3.9,0,3.862-3.893,3.845-.98,0-1.292-.245-1.244-1.243a52.071,52.071,0,0,0,0-5.271c-.056-1.053.357-1.2,1.281-1.206C1865.458-686.214,1865.458-686.244,1865.458-682.319Z" transform="translate(-1853.939 755.295)" fill="#f8d46e"/>
    <path id="Trazado_585408" data-name="Trazado 585408" d="M1857.884-814.074c-.91,1.949-2.136,2.9-4.257,2.591a19.38,19.38,0,0,0-4.129-.014c-1.142.081-1.134-.535-1.142-1.359s.1-1.262,1.1-1.239C1852.212-814.032,1854.97-814.074,1857.884-814.074Z" transform="translate(-1845.808 842.264)" fill="#808c97"/>
    <path id="Trazado_585409" data-name="Trazado 585409" d="M1900.2-891.464a16.851,16.851,0,0,0-2.4.021c-1.36.2-1.58-.447-1.522-1.609.039-.77.263-1,1.017-.983,1.918.044,3.839.066,5.756-.006,1.019-.039.978.538.929,1.207-.046.62.311,1.472-.907,1.384C1902.12-891.52,1901.157-891.465,1900.2-891.464Z" transform="translate(-1878.39 896.625)" fill="#e7bd99"/>
    <path id="Trazado_585410" data-name="Trazado 585410" d="M2011.99-891.477c-.8,0-1.6-.047-2.4.012-.945.071-1.4-.094-1.411-1.248-.008-1.21.449-1.393,1.487-1.342,1.595.079,3.2.078,4.794,0,1.031-.05,1.473.125,1.5,1.335.025,1.347-.661,1.292-1.57,1.249C2013.59-891.507,2012.789-891.477,2011.99-891.477Z" transform="translate(-1954.485 896.638)" fill="#e7bd99"/>
    <path id="Trazado_585411" data-name="Trazado 585411" d="M1900.088-827.5a14.833,14.833,0,0,0-2.235.02c-1.435.221-1.7-.442-1.6-1.693.06-.7.26-.907.941-.9,1.971.036,3.945.053,5.916,0,1.1-.031.843.7.836,1.286s.286,1.354-.822,1.3C1902.116-827.539,1901.1-827.5,1900.088-827.5Z" transform="translate(-1878.364 853.124)" fill="#e7bd99"/>
    <path id="Trazado_585412" data-name="Trazado 585412" d="M2012.18-830.094c.746,0,1.493.025,2.238-.007.895-.038,1.563-.119,1.588,1.236.026,1.435-.691,1.357-1.651,1.337-1.652-.034-3.309-.087-4.955.017-1.139.072-1.122-.5-1.155-1.336-.037-.944.18-1.374,1.219-1.266A26.484,26.484,0,0,0,2012.18-830.094Z" transform="translate(-1954.525 853.166)" fill="#e7bd99"/>
    <path id="Trazado_585413" data-name="Trazado 585413" d="M1921.915-725.8c-1.412.383-1.93-.13-1.47-1.64Z" transform="translate(-1894.715 783.34)" fill="#e46449"/>
    <path id="Trazado_585414" data-name="Trazado 585414" d="M1992.9-716.851c-5.064,0-10.129-.032-15.192.026-1.1.012-1.439-.254-1.431-1.4q.079-11.431.007-22.863c0-1,.192-1.4,1.3-1.368,2.556.083,5.117.06,7.675.009.91-.018,1.343.134,1.309,1.2-.04,1.256-.59,2.925.228,3.681.873.806,2.539.221,3.856.243,2.5.042,5.011-.021,7.516.03.88.018,1.218-.2,1.2-1.145-.031-1.264-.572-2.959.2-3.694.911-.866,2.629-.24,4-.283,1.6-.051,3.2.024,4.8-.027.831-.026,1.234.116,1.23,1.1q-.058,11.671,0,23.343c.007,1.109-.48,1.163-1.338,1.159C2003.13-716.864,1998.013-716.851,1992.9-716.851Zm7.867-10.233c-1.811,0-3.625.072-5.43-.026-1.141-.063-1.152.517-1.146,1.351,0,.777.027,1.281,1.071,1.263q5.35-.093,10.7,0c1.05.019,1.054-.5,1.065-1.268.012-.843-.019-1.411-1.152-1.345C2004.175-727.011,2002.467-727.084,2000.763-727.084Zm-4.032,6.5c.178-.866.1-1.55-1.138-1.4-.724.088-1.56-.165-1.4,1.077.094.746-.257,1.7,1.115,1.521C1996.065-719.484,1997.07-719.143,1996.731-720.585Zm4.036,1.136c1.342.478,1.046-.546,1.141-1.343.127-1.07-.394-1.175-1.29-1.209-1.066-.041-1.32.321-1.334,1.347C1999.267-719.543,1999.667-719.216,2000.767-719.449Zm6.191-1.26c.353-1.058-.177-1.314-1.221-1.286-.864.023-1.41.075-1.325,1.179.066.856-.026,1.554,1.222,1.447C2006.525-719.445,2007.277-719.408,2006.958-720.709Z" transform="translate(-1932.787 793.645)" fill="#d19f6b"/>
    <path id="Trazado_585415" data-name="Trazado 585415" d="M2019.971-739.587c-.746,0-1.494-.029-2.239.008-.909.045-1.594.1-1.57-1.25.022-1.21.463-1.386,1.5-1.336,1.6.077,3.2.079,4.8,0,1.039-.052,1.494.133,1.487,1.342-.008,1.154-.466,1.318-1.412,1.249C2021.681-739.635,2020.824-739.587,2019.971-739.587Z" transform="translate(-1959.912 793.358)" fill="#e7bd99"/>
    <path id="Trazado_585416" data-name="Trazado 585416" d="M2038.826-694.194c1.7,0,3.412.073,5.111-.026,1.133-.066,1.164.5,1.152,1.345-.011.769-.015,1.287-1.065,1.268q-5.35-.093-10.7,0c-1.043.018-1.065-.486-1.071-1.263-.006-.834,0-1.414,1.146-1.351C2035.2-694.121,2037.016-694.194,2038.826-694.194Z" transform="translate(-1970.851 760.754)" fill="#030201"/>
    <path id="Trazado_585417" data-name="Trazado 585417" d="M2034.761-676.841c.339,1.442-.666,1.1-1.426,1.2-1.372.174-1.02-.775-1.115-1.521-.157-1.241.679-.989,1.4-1.076C2034.858-678.391,2034.94-677.707,2034.761-676.841Z" transform="translate(-1970.818 749.9)" fill="#050402"/>
    <path id="Trazado_585418" data-name="Trazado 585418" d="M2049.657-675.7c-1.1.233-1.5-.094-1.484-1.206.015-1.026.269-1.388,1.334-1.347.9.034,1.417.139,1.29,1.209C2050.7-676.248,2051-675.224,2049.657-675.7Z" transform="translate(-1981.678 749.897)" fill="#050402"/>
    <path id="Trazado_585419" data-name="Trazado 585419" d="M2066.729-676.946c.319,1.3-.433,1.264-1.324,1.34-1.248.107-1.155-.591-1.221-1.447-.086-1.1.46-1.156,1.325-1.179C2066.551-678.26,2067.082-678,2066.729-676.946Z" transform="translate(-1992.559 749.881)" fill="#050402"/>
  </g>
</svg>
