<svg id="Grupo_845533" data-name="Grupo 845533" xmlns="http://www.w3.org/2000/svg" width="98.795" height="98.795" viewBox="0 0 98.795 98.795">
  <rect id="Rectángulo_38178" data-name="Rectángulo 38178" width="98.795" height="98.795" transform="translate(0 0)" fill="none"/>
  <g id="Grupo_846157" data-name="Grupo 846157" transform="translate(11.63 11.634)">
    <path id="Trazado_585356" data-name="Trazado 585356" d="M1580.927-824.185c1,.226,1.268.9,1.266,1.862-.019,9.854.011,19.708-.025,29.562a6.19,6.19,0,0,1-6.375,6.367c-12.788.032-25.578.008-38.366.025-.959,0-1.638-.261-1.859-1.269a1.531,1.531,0,0,1,1.823-1.268c.721.038,1.446.007,2.169.007,2.44,0,2.44,0,2.292-2.52.019-3.714-.062-7.433.1-11.141.084-1.953-1.157-1.332-2.123-1.445-1.167-.137-1.776.057-1.732,1.522.106,3.516.02,3.533-3.453,3.515-4.087-.022-4.193.568-4.04-3.89.036-1.047-.356-1.3-1.273-1.082a11.884,11.884,0,0,1-1.25-.065c-1.068-.164-1.3.326-1.289,1.317q.072,6.276,0,12.554c-.01.932.2,1.334,1.211,1.254,1.092-.086,2.2.013,3.294-.028.96-.036,1.635.264,1.855,1.27-.223,1-.9,1.271-1.857,1.269q-11.383-.03-22.768,0c-1.341.005-1.873-.533-1.867-1.873q.043-11.384,0-22.768c0-.963.268-1.632,1.271-1.853,1.007.222,1.309.9,1.269,1.859-.041.993.083,2-.031,2.982-.152,1.3.4,1.531,1.58,1.526,9.739-.044,19.479-.025,29.218-.025,1.984,0,1.985,0,1.935-2.053,0-.156-.033-.312-.051-.467.019-3.714-.062-7.433.1-11.141.084-1.953-1.157-1.332-2.123-1.445-1.167-.137-1.776.057-1.732,1.522.106,3.516.02,3.533-3.453,3.515-4.087-.022-4.193.567-4.04-3.89.036-1.047-.356-1.3-1.273-1.083-2.519-.147-2.519-.147-2.52,2.331,0,2.813.02,5.626-.008,8.438-.016,1.6-.6,1.957-2.184,1.432a3.17,3.17,0,0,1-.329-1.822q.007-4.561-.006-9.121c0-.4.2-1.028-.2-1.161a6.152,6.152,0,0,0-3.245-.054c-.645.146-.3,1.012-.307,1.543-.039,3.389-.025,3.4-3.493,3.386-4.156-.018-4.2.529-4.055-3.887.033-1.045-.352-1.305-1.273-1.086-2.519-.148-2.519-.148-2.519,2.29,0,.723-.031,1.447.007,2.168a1.537,1.537,0,0,1-1.268,1.825c-1.006-.222-1.272-.9-1.27-1.859q.031-11.4,0-22.808c-.005-1.381.61-1.834,1.917-1.827,5.4.033,10.8.044,16.2-.006,1.477-.014,2.073.508,2.055,2.019-.056,4.771,0,9.543-.041,14.313-.009.977.184,1.359,1.267,1.349,1.044-.01,1.293-.317,1.289-1.328-.037-9.752-.024-19.5-.021-29.256,0-4.725,2.456-7.21,7.131-7.211q19.347-.006,38.694,0c4.494,0,7.026,2.521,7.03,7,.008,8.7,0,17.407.011,26.111,0,1.008-.041,1.916-1.264,2.179-1.223-.254-1.274-1.156-1.273-2.166q.025-13.189,0-26.379c0-2.589-1.423-4.206-3.833-4.209-12.351-.015-24.7.017-37.052.033-.731-.016-1.462-.046-2.193-.046-3.424,0-4.732,1.308-4.734,4.738q-.006,13.5,0,26.991c0,3.666,0,3.666,3.768,3.446,1.357.019,2.714.05,4.072.048.331,0,.9.159.907-.326.018-.989.916-1.843.225-2.976a1.031,1.031,0,0,1,.979-1.625c1.188.23,1.832-.435,2.653-.9,1.526-.491,3.189-.884,4.577-.044,1.8,1.089,3.276,1.346,4.895-.218.5-.486,1.211-.2,1.611.411a1.14,1.14,0,0,1-.324,1.655c-.533.418-1.107.786-1.678,1.153a1.009,1.009,0,0,0-.581,1.121c.574,4.61-.832,6.781-5.134,8.051a9.8,9.8,0,0,1-2.171-.187c-1.026-.319-1.335-.032-1.222.977a9.251,9.251,0,0,1,.009,1.409c-.024.576.234.771.759.58,1.693-.615,3.287-.054,4.893.389l-.016-.013c.021.217.168.278.356.288l-.013-.007a.684.684,0,0,0,.6.4l-.036-.03a.366.366,0,0,0,.424.309c.955-.18,1.57-.95,2.386-1.375a1.2,1.2,0,0,1,1.75.389,1.152,1.152,0,0,1-.315,1.644c-.349.3-.72.573-1.081.858-.971.338-1.471.859-1.042,1.994a3.411,3.411,0,0,1,0,2.326c-.417,1.154-.049,1.4,1.091,1.39,4.925-.051,9.851-.015,14.778-.026.906,0,1.807.1,1.836,1.21.031,1.223-.921,1.326-1.884,1.319-1.939-.015-3.879.03-5.817-.02-.831-.021-1.084.263-1.071,1.081.041,2.62.048,5.241,0,7.86-.017.893.265,1.17,1.157,1.157,3.143-.046,6.288,0,9.432-.023,2.295-.014,2,.307,2.005-1.993q.014-24.29,0-48.58c0-1.029-.065-2.05,1.271-2.328,1.225.264,1.263,1.176,1.262,2.182q-.019,25.553-.011,51.106c0,1.912-.235,2.134-2.21,2.136-3.931.005-7.863.046-11.793-.026-1.141-.021-1.1.546-1.115,1.346s.092,1.231,1.08,1.219c4.245-.053,8.492.009,12.737-.039a3.678,3.678,0,0,0,3.8-3.772c.045-1.465-.018-2.933-.033-4.4.016-.574.047-1.148.047-1.722q.005-11.608-.007-23.215C1579.652-823.032,1579.7-823.933,1580.927-824.185Zm-33.978,20.245c-2.52-.146-2.52-.146-2.52,2.356,0,3.824.031,7.648-.021,11.471-.014.969.267,1.249,1.236,1.236,3.98-.052,7.961-.021,11.942-.022,1.985,0,1.985,0,1.936-2.053,0-.156-.033-.312-.051-.468.019-3.714-.062-7.432.1-11.141.085-1.953-1.157-1.332-2.123-1.445-1.167-.137-1.776.057-1.732,1.522.106,3.516.02,3.533-3.452,3.515-4.088-.022-4.193.568-4.04-3.889C1548.257-803.9,1547.866-804.158,1546.949-803.94Zm-22.716,12.521c.02-3.714-.062-7.432.1-11.141.084-1.954-1.157-1.332-2.123-1.445-1.167-.137-1.776.057-1.732,1.522.106,3.516.021,3.533-3.453,3.515-4.088-.022-4.193.568-4.04-3.889.036-1.046-.355-1.3-1.272-1.083-2.52-.146-2.52-.146-2.52,2.356,0,3.824.031,7.648-.021,11.471-.014.969.267,1.249,1.236,1.236,3.98-.052,7.961-.021,11.942-.022,1.984,0,1.986,0,1.936-2.053C1524.28-791.108,1524.25-791.264,1524.233-791.419Zm0-35.237c.02-3.714-.062-7.432.1-11.14.084-1.954-1.157-1.332-2.123-1.445-1.167-.137-1.776.057-1.732,1.522.106,3.516.021,3.533-3.453,3.514-4.088-.022-4.193.568-4.04-3.889.036-1.046-.355-1.3-1.272-1.083-2.52-.146-2.52-.146-2.52,2.357,0,3.824.031,7.648-.021,11.471-.014.969.267,1.248,1.236,1.236,3.98-.051,7.961-.021,11.942-.021,1.984,0,1.986,0,1.936-2.053C1524.28-826.345,1524.25-826.5,1524.233-826.657Zm22.68,6.3a3.75,3.75,0,0,0,3.755-3.119c.057-.4.1-.977-.116-1.19-.359-.346-.8.1-1.068.361-1.757,1.722-3.431,1.6-5.083-.133a2.012,2.012,0,0,0-.378-.276c-.2-.13-.417-.427-.658-.169a.453.453,0,0,0,.162.767,1.633,1.633,0,0,1,.928,1.5C1544.557-821.011,1545.275-820.386,1546.913-820.361Zm-2.164,11.327c.043.906-1.166,2.21.446,2.471a19.123,19.123,0,0,0,4.063.02c.982-.054,1.142-.956,1.37-1.685.136-.436.288-1.121-.093-1.319-.655-.341-1.066.451-1.608.7a3.787,3.787,0,0,0-.785.513,1.6,1.6,0,0,1-2.372-.026A7.112,7.112,0,0,0,1544.749-809.034Zm-27.923-12.557c-.989-.2-1.4.094-1.383,1.2.019.993.243,1.377,1.3,1.329.866-.039,1.366-.12,1.283-1.179C1517.961-821.087,1518.058-821.89,1516.826-821.591Zm18.765,1.316c.2-.989-.094-1.4-1.195-1.383-.993.019-1.377.243-1.328,1.3.039.866.119,1.366,1.179,1.283C1535.087-819.14,1535.89-819.043,1535.59-820.275Zm-17.62,17.576c.233-1.043-.193-1.369-1.233-1.332-.868.031-1.354.119-1.286,1.177.055.865.024,1.492,1.216,1.407C1517.57-801.511,1518.253-801.534,1517.971-802.7Zm-1.172-36.51c-1.021-.221-1.4.153-1.348,1.219.041.845.08,1.381,1.161,1.3.84-.064,1.522.022,1.421-1.2C1517.959-838.765,1517.99-839.5,1516.8-839.209Zm35.117,35.238c-1.2-.292-1.176.445-1.227,1.322-.061,1.025.358,1.182,1.263,1.2,1.019.024,1.323-.276,1.324-1.308C1553.278-803.816,1552.938-804.193,1551.917-803.971Zm-16.327,1.289c.221-1.021-.152-1.4-1.219-1.349-.845.041-1.381.081-1.3,1.161.064.84-.023,1.523,1.2,1.421C1535.146-801.522,1535.879-801.491,1535.59-802.682Zm13.472-9.35a3.208,3.208,0,0,0-3.236-.6c-.839.231-.755.518-.176,1.113C1547.073-810.051,1547.969-811.209,1549.062-812.033Zm.011-15.142a3.435,3.435,0,0,0-3.477-.486c-.575.2-.588.425-.152.865C1546.718-825.515,1546.988-825.518,1549.073-827.175Z" transform="translate(-1506.658 861.893)" fill="#020202"/>
    <path id="Trazado_585357" data-name="Trazado 585357" d="M1544.622-721.362c.018.156.047.311.051.467.05,2.052.049,2.052-1.935,2.053-9.739,0-19.479-.019-29.218.025-1.182.005-1.732-.223-1.581-1.526.114-.982-.01-1.989.031-2.982.04-.962-.262-1.637-1.269-1.859q0-1.208,0-2.417a1.536,1.536,0,0,0,1.267-1.825c-.038-.721-.007-1.445-.007-2.168,0-2.438,0-2.438,2.519-2.29-.193,3.187.095,6.236,2.238,8.848,2.2,2.676,6.738,4.579,10.669,3.354,1.581.524,2.168.164,2.184-1.432.028-2.812.008-5.625.008-8.438,0-2.478,0-2.478,2.52-2.331,0,.939-.047,1.88,0,2.816a9.744,9.744,0,0,0,4.975,8.3C1539.453-721.339,1542-721.263,1544.622-721.362Z" transform="translate(-1509.429 774.217)" fill="#fdb500"/>
    <path id="Trazado_585358" data-name="Trazado 585358" d="M1650.827-818.672c-1.223.252-1.275,1.152-1.272,2.161q.026,11.608.008,23.215c0,.574-.031,1.148-.048,1.722-1.374-.392-1.208-1.526-1.208-2.557q-.007-27.358,0-54.715c0-3.153-.6-3.753-3.743-3.753q-16.666,0-33.332,0c-1.03,0-2.165.167-2.556-1.208,12.35-.016,24.7-.047,37.052-.033,2.41,0,3.829,1.62,3.833,4.209q.019,13.19,0,26.379c0,1.01.049,1.912,1.272,2.166Z" transform="translate(-1576.558 856.38)" fill="#e5edee"/>
    <path id="Trazado_585359" data-name="Trazado 585359" d="M1585.669-665.488c.148,2.52.148,2.52-2.292,2.52-.723,0-1.448.031-2.169-.007a1.531,1.531,0,0,0-1.823,1.268h-2.417c-.22-1.006-.894-1.306-1.855-1.27-1.1.041-2.2-.058-3.294.028-1.008.079-1.221-.323-1.211-1.254q.066-6.277,0-12.554c-.012-.991.221-1.481,1.289-1.317a11.833,11.833,0,0,0,1.25.064c0,.939-.047,1.88,0,2.816a9.744,9.744,0,0,0,4.975,8.3C1580.5-665.465,1583.05-665.389,1585.669-665.488Z" transform="translate(-1550.476 735.962)" fill="#fdb500"/>
    <path id="Trazado_585360" data-name="Trazado 585360" d="M1636.315-790.206c.361-.285.731-.559,1.08-.858a1.152,1.152,0,0,0,.315-1.643,1.2,1.2,0,0,0-1.75-.389c-.816.425-1.431,1.195-2.386,1.374l-.423-.308.036.03a.538.538,0,0,0-.6-.4l.012.008-.357-.288.016.013c-.62-1.153-1.836-1.881-2.267-3.169,4.3-1.27,5.708-3.441,5.134-8.052a1.008,1.008,0,0,1,.581-1.121c.571-.367,1.145-.735,1.677-1.153a1.14,1.14,0,0,0,.324-1.656c-.4-.61-1.108-.9-1.611-.411-1.619,1.564-3.1,1.307-4.895.218-1.388-.84-3.05-.448-4.576.044q0-1.694,0-3.388c5.143,1.655,8.657-1.96,8.67-5.184.009-2.113-.133-3.905,2.206-4.867.538-.221.582-.968.2-1.525a1.147,1.147,0,0,0-1.635-.414,17.158,17.158,0,0,0-1.835,1.192.871.871,0,0,1-1.237-.023,6.384,6.384,0,0,0-6.365-.894,7.63,7.63,0,0,1,.636-4.292c1.295.02,2.589.033,3.884.063a1.517,1.517,0,0,0,1.592-.718c.4-.766-.076-1.266-.545-1.766h3.913c-.474.5-.947,1.009-.536,1.779.352.658.959.707,1.612.706,4.278-.008,8.556-.017,12.835,0,1.149.005,1.795-.426,1.751-1.643,1.97.844,2.51,2.515,2.512,4.452.011,10.194-.017,20.387.024,30.58a5.421,5.421,0,0,1-2.6,5.009,2.22,2.22,0,0,0-1.831-.667q-4.383.042-8.766,0a2.258,2.258,0,0,0-1.843.645Zm8.447-6.893c2.2,0,4.4-.009,6.594,0,.891.005,1.627-.256,1.635-1.254s-.717-1.275-1.614-1.273q-6.515.013-13.03,0c-.891,0-1.627.253-1.634,1.253s.716,1.28,1.614,1.275C1640.471-797.107,1642.617-797.1,1644.762-797.1Zm.14-15.1c2.093,0,4.187-.013,6.28.006.916.008,1.784-.133,1.806-1.24s-.818-1.294-1.751-1.292q-6.358.019-12.716,0c-.915,0-1.784.129-1.8,1.239s.817,1.3,1.75,1.293C1640.611-812.212,1642.757-812.2,1644.9-812.2Zm.556-5.034c1.936,0,3.872-.012,5.808.005.942.008,1.754-.219,1.722-1.321-.028-1-.8-1.212-1.678-1.209q-5.808.019-11.615,0c-.941,0-1.755.215-1.722,1.32.03,1,.8,1.218,1.678,1.21C1641.586-817.246,1643.522-817.234,1645.458-817.234Zm.652,12.582c-1.779,0-3.557.007-5.336,0-.836,0-1.505.287-1.547,1.184-.046.991.631,1.341,1.544,1.34q5.336-.006,10.672,0c.913,0,1.592-.347,1.547-1.338-.041-.9-.708-1.19-1.545-1.186C1649.668-804.644,1647.889-804.651,1646.11-804.651Z" transform="translate(-1588.835 839.891)" fill="#abe6f1"/>
    <path id="Trazado_585361" data-name="Trazado 585361" d="M1632.548-794.468a5.421,5.421,0,0,0,2.6-5.009c-.04-10.193-.012-20.387-.023-30.58,0-1.937-.542-3.607-2.512-4.451a1.777,1.777,0,0,0-1.692-.9c-4.657.038-9.313.038-13.97.051h-3.913c-1.256-.013-2.511-.016-3.766-.043-.715-.015-1.382.052-1.717.8-.315.708.127,1.187.552,1.661a7.634,7.634,0,0,0-.636,4.292c-.352.222-.705.638-1.055.635-2.339-.023-2.452,1.065-2.578,3.235-.216,3.719.32,5.8,3.632,7.845q0,1.694,0,3.388c-.821.461-1.465,1.126-2.653.9a1.031,1.031,0,0,0-.979,1.625c.69,1.133-.207,1.987-.225,2.976-.009.485-.576.326-.907.326-1.357,0-2.714-.029-4.071-.048q0-1.2,0-2.407c1.224-.259,1.276-1.166,1.274-2.176q-.025-11.719,0-23.438c0-2.442-.319-2.114,2.039-2.117q16.281-.019,32.561-.006c3.1,0,3.119,0,3.132,3.066,0,.988.164,1.779,1.278,2.018q0,1.206,0,2.413c-1.337.279-1.272,1.3-1.271,2.329q.012,24.29,0,48.58c0,2.3.29,1.979-2.005,1.993-3.144.019-6.289-.024-9.432.023-.892.013-1.174-.265-1.157-1.157.051-2.62.044-5.241,0-7.86-.013-.817.241-1.1,1.071-1.081,1.938.05,3.878,0,5.816.02.963.008,1.916-.1,1.884-1.319-.028-1.11-.929-1.212-1.836-1.21-4.926.011-9.852-.025-14.777.026-1.141.012-1.509-.237-1.091-1.391a3.414,3.414,0,0,0,0-2.326c-.429-1.135.071-1.656,1.042-1.994l2.95,1.29c-.245,1.391.418,1.9,1.742,1.894q4.464-.037,8.929,0C1632.091-792.581,1632.78-793.067,1632.548-794.468Z" transform="translate(-1569.679 845.463)" fill="#47c8e2"/>
    <path id="Trazado_585362" data-name="Trazado 585362" d="M1630.712-841.347q0-1.206,0-2.413c1-.229,1.3-.906,1.265-1.867-.042-1.256-.058-2.517,0-3.772.068-1.4-.485-1.984-1.924-1.981q-19.492.042-38.984,0c-1.317,0-1.91.469-1.906,1.837q.04,13.283,0,26.567c0,.96.262,1.638,1.265,1.865q0,1.2,0,2.407c-3.769.22-3.769.22-3.769-3.446q0-13.5,0-26.991c0-3.431,1.31-4.736,4.734-4.738.731,0,1.462.03,2.193.046.391,1.376,1.526,1.208,2.556,1.208q16.666.009,33.332,0c3.145,0,3.743.6,3.743,3.753q0,27.357,0,54.715c0,1.03-.166,2.164,1.208,2.557.014,1.466.078,2.934.033,4.4a3.678,3.678,0,0,1-3.8,3.772c-4.245.048-8.492-.014-12.736.039-.988.012-1.1-.415-1.08-1.219s-.026-1.368,1.115-1.346c3.93.072,7.862.031,11.793.026,1.975,0,2.209-.224,2.21-2.136q.005-25.553.011-51.106C1631.974-840.17,1631.937-841.083,1630.712-841.347Z" transform="translate(-1561.475 856.4)" fill="#cdd5d7"/>
    <path id="Trazado_585363" data-name="Trazado 585363" d="M1535.507-721.887c-3.931,1.225-8.472-.678-10.669-3.354-2.143-2.612-2.431-5.661-2.238-8.847.922-.219,1.307.041,1.274,1.086-.141,4.417-.1,3.869,4.055,3.887,3.468.015,3.453,0,3.493-3.386.006-.532-.338-1.4.307-1.543a6.153,6.153,0,0,1,3.245.054c.4.133.2.76.2,1.161q.02,4.56.005,9.121A3.17,3.17,0,0,0,1535.507-721.887Z" transform="translate(-1517.547 774.422)" fill="#fdce00"/>
    <path id="Trazado_585364" data-name="Trazado 585364" d="M1591.154-721.467c-2.62.1-5.17.023-7.542-1.41a9.743,9.743,0,0,1-4.975-8.3c-.051-.936-.005-1.877,0-2.816.917-.217,1.309.036,1.273,1.083-.153,4.457-.047,3.868,4.04,3.89,3.473.018,3.559,0,3.453-3.515-.044-1.466.565-1.659,1.732-1.522.966.113,2.207-.508,2.122,1.445C1591.092-728.9,1591.173-725.181,1591.154-721.467Z" transform="translate(-1555.961 774.322)" fill="#fdce00"/>
    <path id="Trazado_585365" data-name="Trazado 585365" d="M1522.651-789.956c.917-.218,1.308.037,1.272,1.083-.152,4.457-.047,3.867,4.04,3.889,3.473.019,3.558,0,3.453-3.514-.044-1.465.564-1.659,1.732-1.522.965.113,2.207-.509,2.123,1.445-.161,3.708-.08,7.427-.1,11.141-.835,0-1.67.028-2.5,0a10.18,10.18,0,0,1-8.224-4.324C1522.583-784.247,1522.562-787.074,1522.651-789.956Z" transform="translate(-1517.598 812.671)" fill="#fdce00"/>
    <path id="Trazado_585366" data-name="Trazado 585366" d="M1522.651-678.021c.917-.218,1.308.037,1.272,1.083-.152,4.457-.047,3.867,4.04,3.889,3.473.019,3.558,0,3.453-3.514-.044-1.465.564-1.659,1.732-1.523.965.113,2.207-.509,2.123,1.445-.161,3.708-.08,7.426-.1,11.141-.835,0-1.67.027-2.5,0a10.181,10.181,0,0,1-8.224-4.325C1522.583-672.312,1522.562-675.139,1522.651-678.021Z" transform="translate(-1517.598 735.973)" fill="#fdce00"/>
    <path id="Trazado_585367" data-name="Trazado 585367" d="M1591.154-665.5c-2.62.1-5.17.023-7.542-1.41a9.744,9.744,0,0,1-4.975-8.3c-.051-.935-.005-1.877,0-2.816.917-.217,1.309.036,1.273,1.083-.153,4.457-.047,3.868,4.04,3.89,3.473.018,3.559,0,3.453-3.514-.044-1.466.565-1.659,1.732-1.522.966.113,2.207-.508,2.122,1.445C1591.092-672.932,1591.173-669.214,1591.154-665.5Z" transform="translate(-1555.961 735.973)" fill="#fdce00"/>
    <path id="Trazado_585368" data-name="Trazado 585368" d="M1634.585-678.021c.917-.218,1.308.037,1.272,1.083-.153,4.457-.048,3.867,4.04,3.889,3.473.019,3.559,0,3.452-3.514-.044-1.465.565-1.659,1.732-1.523.966.113,2.208-.508,2.123,1.445-.161,3.708-.08,7.426-.1,11.141-.834,0-1.67.027-2.5,0a10.18,10.18,0,0,1-8.223-4.325C1634.517-672.312,1634.5-675.139,1634.585-678.021Z" transform="translate(-1594.295 735.973)" fill="#fdce00"/>
    <path id="Trazado_585369" data-name="Trazado 585369" d="M1517.178-789.848c-.089,2.882-.068,5.709,1.795,8.2a10.179,10.179,0,0,0,8.223,4.324c.834.027,1.669,0,2.5,0,.017.156.047.311.051.467.05,2.052.049,2.052-1.936,2.053-3.981,0-7.962-.03-11.942.021-.969.013-1.249-.267-1.236-1.236.053-3.823.022-7.647.022-11.471C1514.659-789.994,1514.659-789.994,1517.178-789.848Z" transform="translate(-1512.125 812.563)" fill="#fdb500"/>
    <path id="Trazado_585370" data-name="Trazado 585370" d="M1517.179-677.912c-.09,2.882-.068,5.709,1.794,8.2a10.18,10.18,0,0,0,8.223,4.324c.834.026,1.669,0,2.5,0,.017.156.047.311.051.468.05,2.052.049,2.053-1.936,2.053-3.98,0-7.962-.03-11.941.022-.969.013-1.249-.267-1.236-1.236.052-3.823.021-7.647.021-11.471C1514.658-678.058,1514.658-678.058,1517.179-677.912Z" transform="translate(-1512.125 735.865)" fill="#fdb500"/>
    <path id="Trazado_585371" data-name="Trazado 585371" d="M1629.112-677.912c-.089,2.882-.068,5.709,1.794,8.2a10.182,10.182,0,0,0,8.224,4.324c.834.026,1.669,0,2.5,0,.017.156.047.311.051.468.05,2.052.049,2.053-1.935,2.053-3.981,0-7.962-.03-11.942.022-.969.013-1.25-.267-1.236-1.236.053-3.823.021-7.647.021-11.471C1626.592-678.058,1626.592-678.058,1629.112-677.912Z" transform="translate(-1588.822 735.865)" fill="#fdb500"/>
    <path id="Trazado_585372" data-name="Trazado 585372" d="M1626.481-740.036c-1.638-.026-2.355-.651-2.458-2.26a1.632,1.632,0,0,0-.927-1.5.453.453,0,0,1-.162-.767c.24-.258.455.039.657.169a2.01,2.01,0,0,1,.379.276c1.652,1.728,3.326,1.855,5.083.133.267-.262.708-.707,1.067-.361.221.213.173.793.116,1.19A3.75,3.75,0,0,1,1626.481-740.036Z" transform="translate(-1586.226 781.568)" fill="#f16868"/>
    <path id="Trazado_585373" data-name="Trazado 585373" d="M1626.8-695.282a7.155,7.155,0,0,1,1.021.677,1.6,1.6,0,0,0,2.372.026,3.783,3.783,0,0,1,.784-.513c.543-.252.954-1.044,1.609-.7.381.2.229.883.093,1.319-.228.729-.388,1.632-1.37,1.685a19.131,19.131,0,0,1-4.063-.02C1625.631-693.072,1626.84-694.376,1626.8-695.282Z" transform="translate(-1588.706 748.141)" fill="#e6514e"/>
    <path id="Trazado_585374" data-name="Trazado 585374" d="M1629.96-722.626c.432,1.288,1.647,2.016,2.268,3.169-1.605-.444-3.2-1-4.893-.389-.524.191-.783,0-.759-.581a9.234,9.234,0,0,0-.009-1.409c-.113-1.009.2-1.3,1.222-.977A9.79,9.79,0,0,0,1629.96-722.626Z" transform="translate(-1588.805 766.68)" fill="#47c8e2"/>
    <path id="Trazado_585375" data-name="Trazado 585375" d="M1535.945-734.009c1.232-.3,1.135.5,1.2,1.344.083,1.059-.416,1.14-1.283,1.179-1.058.048-1.281-.336-1.3-1.329C1534.541-733.915,1534.956-734.214,1535.945-734.009Z" transform="translate(-1525.777 774.311)" fill="#f8e401"/>
    <path id="Trazado_585376" data-name="Trazado 585376" d="M1593.065-732.7c.3,1.232-.5,1.135-1.345,1.2-1.059.083-1.14-.417-1.179-1.283-.048-1.058.335-1.282,1.328-1.3C1592.971-734.105,1593.269-733.689,1593.065-732.7Z" transform="translate(-1564.132 774.319)" fill="#f8e401"/>
    <path id="Trazado_585377" data-name="Trazado 585377" d="M1537.1-676.765c.282,1.165-.4,1.188-1.3,1.252-1.192.084-1.161-.542-1.216-1.407-.067-1.058.418-1.146,1.287-1.177C1536.905-678.134,1537.331-677.808,1537.1-676.765Z" transform="translate(-1525.785 735.958)" fill="#f8e401"/>
    <path id="Trazado_585378" data-name="Trazado 585378" d="M1535.928-789.976c1.191-.29,1.16.444,1.233,1.32.1,1.221-.58,1.135-1.421,1.2-1.081.082-1.12-.455-1.161-1.3C1534.528-789.823,1534.907-790.2,1535.928-789.976Z" transform="translate(-1525.787 812.659)" fill="#f8e401"/>
    <path id="Trazado_585379" data-name="Trazado 585379" d="M1647.743-678.041c1.02-.221,1.361.156,1.359,1.216,0,1.031-.306,1.331-1.324,1.308-.905-.02-1.324-.177-1.263-1.2C1646.567-677.6,1646.548-678.333,1647.743-678.041Z" transform="translate(-1602.484 735.963)" fill="#f8e401"/>
    <path id="Trazado_585380" data-name="Trazado 585380" d="M1593.066-676.751c.29,1.191-.444,1.16-1.319,1.233-1.221.1-1.135-.581-1.2-1.421-.082-1.08.454-1.12,1.3-1.161C1592.913-678.151,1593.287-677.772,1593.066-676.751Z" transform="translate(-1564.134 735.961)" fill="#f8e401"/>
    <path id="Trazado_585381" data-name="Trazado 585381" d="M1632.963-705.209c-1.093.823-1.989,1.981-3.412.516-.579-.6-.663-.882.176-1.113A3.207,3.207,0,0,1,1632.963-705.209Z" transform="translate(-1590.56 755.069)" fill="#e6514e"/>
    <path id="Trazado_585382" data-name="Trazado 585382" d="M1632.83-753.233c-2.085,1.657-2.356,1.66-3.629.379-.436-.439-.423-.662.152-.864A3.435,3.435,0,0,1,1632.83-753.233Z" transform="translate(-1590.415 787.951)" fill="#ec6d6d"/>
    <path id="Trazado_585383" data-name="Trazado 585383" d="M1645.639-711.035a.538.538,0,0,1,.6.4A.684.684,0,0,1,1645.639-711.035Z" transform="translate(-1601.888 758.526)" fill="#47c8e2"/>
    <path id="Trazado_585384" data-name="Trazado 585384" d="M1647.431-709.857l.423.308A.365.365,0,0,1,1647.431-709.857Z" transform="translate(-1603.116 757.718)" fill="#47c8e2"/>
    <path id="Trazado_585385" data-name="Trazado 585385" d="M1644.546-711.924l.356.288C1644.714-711.646,1644.568-711.707,1644.546-711.924Z" transform="translate(-1601.139 759.134)" fill="#47c8e2"/>
    <path id="Trazado_585386" data-name="Trazado 585386" d="M1618.718-797.746c-3.312-2.04-3.848-4.126-3.632-7.845.126-2.17.239-3.259,2.578-3.235.35,0,.7-.413,1.055-.635a6.385,6.385,0,0,1,6.365.894.871.871,0,0,0,1.237.023,17.149,17.149,0,0,1,1.835-1.192,1.147,1.147,0,0,1,1.635.414c.384.557.34,1.3-.2,1.525-2.339.962-2.2,2.754-2.206,4.867C1627.376-799.706,1623.861-796.091,1618.718-797.746Zm.274-5.892c-.409-.343-.815-1.044-1.339-.723-.462.283-.244,1.046-.128,1.582a2.81,2.81,0,0,0,1.108,1.787,3.7,3.7,0,0,0,6.248-1.74c.115-.483.343-1.13-.119-1.446-.437-.3-.88.227-1.191.517C1622.031-802.226,1620.527-802.093,1618.992-803.638Zm4.282-3.063a3.33,3.33,0,0,0-3.383-.458c-.521.179-.66.379-.2.859C1620.965-804.983,1621.477-805.017,1623.275-806.7Z" transform="translate(-1580.924 826.282)" fill="#020202"/>
    <path id="Trazado_585387" data-name="Trazado 585387" d="M1655.324-829.894c4.657-.013,9.314-.014,13.97-.051a1.777,1.777,0,0,1,1.692.9c.044,1.216-.6,1.648-1.75,1.643-4.279-.021-8.557-.012-12.835,0-.653,0-1.261-.048-1.612-.706C1654.377-828.884,1654.85-829.39,1655.324-829.894Z" transform="translate(-1608.049 840.003)" fill="#020202"/>
    <path id="Trazado_585388" data-name="Trazado 585388" d="M1666.793-731.45c-2.146,0-4.292-.009-6.437,0-.9.005-1.62-.278-1.613-1.274s.744-1.255,1.634-1.253q6.515.015,13.031,0c.9,0,1.622.276,1.614,1.273s-.744,1.26-1.635,1.254C1671.189-731.459,1668.991-731.45,1666.793-731.45Z" transform="translate(-1610.866 774.243)" fill="#020202"/>
    <path id="Trazado_585389" data-name="Trazado 585389" d="M1666.94-779.426c-2.146,0-4.292-.012-6.437.006-.933.008-1.771-.188-1.75-1.293s.889-1.241,1.8-1.239q6.358.019,12.716,0c.933,0,1.773.186,1.751,1.292s-.889,1.248-1.805,1.24C1671.126-779.438,1669.033-779.426,1666.94-779.426Z" transform="translate(-1610.873 807.118)" fill="#020202"/>
    <path id="Trazado_585390" data-name="Trazado 585390" d="M1670.231-795.416c-1.936,0-3.872-.012-5.808.005-.88.008-1.649-.213-1.678-1.21-.033-1.105.781-1.323,1.722-1.32q5.807.018,11.616,0c.879,0,1.65.212,1.678,1.209.032,1.1-.781,1.329-1.723,1.321C1674.1-795.427,1672.167-795.416,1670.231-795.416Z" transform="translate(-1613.608 818.073)" fill="#020202"/>
    <path id="Trazado_585391" data-name="Trazado 585391" d="M1673.614-749.957c1.779,0,3.557.007,5.336,0,.837,0,1.5.291,1.545,1.186.045.991-.634,1.339-1.547,1.338q-5.336-.006-10.672,0c-.914,0-1.59-.349-1.545-1.34.041-.9.711-1.188,1.547-1.184C1670.056-749.95,1671.835-749.957,1673.614-749.957Z" transform="translate(-1616.338 785.197)" fill="#020202"/>
    <path id="Trazado_585392" data-name="Trazado 585392" d="M1679.182-701.351c.231,1.4-.457,1.886-1.769,1.874q-4.464-.04-8.928,0c-1.323.011-1.987-.5-1.742-1.893a2.258,2.258,0,0,1,1.843-.646q4.382.038,8.766,0A2.219,2.219,0,0,1,1679.182-701.351Z" transform="translate(-1616.313 752.347)" fill="#020202"/>
    <path id="Trazado_585393" data-name="Trazado 585393" d="M1627.3-827.459c-.425-.474-.867-.954-.552-1.661.335-.752,1-.819,1.717-.8,1.255.027,2.511.03,3.766.043.469.5.946,1,.545,1.766a1.517,1.517,0,0,1-1.592.718C1629.893-827.427,1628.6-827.44,1627.3-827.459Z" transform="translate(-1588.873 839.989)" fill="#020202"/>
    <path id="Trazado_585394" data-name="Trazado 585394" d="M1595.878-815.673c-1-.228-1.268-.905-1.265-1.866q.029-13.283,0-26.566c0-1.368.59-1.839,1.906-1.837q19.492.034,38.985,0c1.439,0,1.992.583,1.924,1.981-.061,1.255-.045,2.516,0,3.772.032.961-.261,1.638-1.265,1.867-1.115-.238-1.274-1.03-1.278-2.018-.013-3.067-.036-3.067-3.132-3.067q-16.28,0-32.561.006c-2.358,0-2.035-.325-2.039,2.117q-.022,11.719,0,23.438C1597.154-816.839,1597.1-815.932,1595.878-815.673Z" transform="translate(-1566.922 850.965)" fill="#020202"/>
    <path id="Trazado_585395" data-name="Trazado 585395" d="M1626.8-791.33c1.534,1.545,3.039,1.412,4.579-.023.311-.29.755-.816,1.191-.518.462.317.234.963.119,1.446a3.7,3.7,0,0,1-6.248,1.74C1626.676-789.551,1626.181-790.517,1626.8-791.33Z" transform="translate(-1588.734 813.975)" fill="#f67070"/>
    <path id="Trazado_585396" data-name="Trazado 585396" d="M1632.785-801.249c-1.8,1.685-2.309,1.718-3.58.4-.462-.48-.324-.68.2-.859A3.331,3.331,0,0,1,1632.785-801.249Z" transform="translate(-1590.435 820.83)" fill="#ec6d6d"/>
    <path id="Trazado_585397" data-name="Trazado 585397" d="M1624.057-791.714c-.621.814-.126,1.779-.359,2.646a2.808,2.808,0,0,1-1.108-1.787c-.116-.536-.334-1.3.128-1.582C1623.242-792.758,1623.648-792.057,1624.057-791.714Z" transform="translate(-1585.989 814.358)" fill="#e6514e"/>
  </g>
</svg>
