<svg id="Grupo_845522" data-name="Grupo 845522" xmlns="http://www.w3.org/2000/svg" width="98.795" height="98.795" viewBox="0 0 98.795 98.795">
  <rect id="Rectángulo_38178" data-name="Rectángulo 38178" width="98.795" height="98.795" transform="translate(0 0)" fill="none"/>
  <g id="Grupo_846150" data-name="Grupo 846150" transform="translate(11.003 11.002)">
    <path id="Trazado_585135" data-name="Trazado 585135" d="M1490.44-399.745q-18.026,0-36.053,0c-2.054,0-2.237-.177-2.237-2.185q0-17.639,0-35.278c0-1.95.2-2.153,2.1-2.162,1.393-.006,2.79-.073,4.176.023,1.007.07,1.172-.308,1.168-1.219q-.051-12.456,0-24.911c0-.8-.091-1.231-1.052-1.159-1.035.078-1.45-.57-1.443-1.566.014-2.166.042-4.333-.01-6.5-.032-1.331.527-1.846,1.844-1.833,3.971.04,7.943.014,11.915.014q14.313,0,28.626,0c2.023,0,2.205.187,2.209,2.213,0,2.011-.015,4.023.007,6.034.012,1.067-.415,1.735-1.532,1.638-.923-.079-.967.386-.96,1.089.026,2.527.058,5.056-.013,7.581-.028,1,.24,1.288,1.265,1.281,6.962-.047,13.926-.025,20.889-.024,2.6,0,2.636.035,2.637,2.561,0,6.137.031,12.275-.028,18.412-.01,1.1.292,1.371,1.364,1.34,3.872-.112,3.624-.192,3.621,3.568q-.015,14.39,0,28.779c0,2.152-.147,2.3-2.278,2.3Q1508.545-399.743,1490.44-399.745Zm26.407-43.4h4.345q.3.057.242-.241v-1.869q.057-.3-.241-.242h-4.346q-.3-.057-.242.241v1.869Q1516.548-443.092,1516.847-443.148Zm-20.137-26c2.491.129,2.491.129,2.492-2.345v-.463c0-2.141,0-2.141-2.186-2.072-.1,0-.2.024-.306.036-2.468-.017-4.937-.043-7.4-.049-3.975-.008-3.946,0-3.738,3.937.044.846.364,1.025,1.115,1.016C1490.025-469.126,1493.367-469.129,1496.71-469.145ZM1519-434.473c2.492.135,2.492.135,2.492-2.273v-1.536c0-2.408,0-2.408-2.493-2.273-1.078-.018-2.157-.066-3.234-.046-1.146.021-1.729-.454-1.707-1.643q.038-2.081,0-4.163c-.022-1.189.561-1.663,1.707-1.641,1.078.02,2.156-.028,3.235-.046,2.492.135,2.492.135,2.492-2.273V-451.9c0-2.408,0-2.408-2.493-2.273-6.286-.018-12.573-.013-18.859-.076-1.11-.011-.935.633-.935,1.289,0,4.741-.021,9.483.015,14.224.01,1.309-.491,1.9-1.824,1.856-1.545-.05-3.1.054-4.637-.033-1.057-.06-1.01.527-.99,1.241.019.666-.148,1.285.951,1.278C1501.481-434.455,1510.241-434.455,1519-434.473Zm-24.769-4.954c2.491.133,2.492.133,2.492-2.319q0-11.4,0-22.8c0-2.119,0-2.12-2.187-2.051-.1,0-.2.026-.305.04-3.351-.018-6.7,0-10.052-.073-.946-.02-1.086.37-1.083,1.184q.035,12.454,0,24.908c0,.814.138,1.2,1.084,1.184C1487.53-439.423,1490.882-439.41,1494.233-439.427Zm29.721,37.149c2.492.134,2.492.134,2.492-2.32q0-12.636,0-25.273c0-2.121,0-2.121-2.187-2.052a3,3,0,0,0-.305.04c-2.886-.018-5.774.014-8.658-.078-1.09-.035-1.268.4-1.244,1.343.057,2.215-.024,4.434.033,6.65.035,1.372-.48,1.994-1.9,1.953-2.06-.058-4.125-.049-6.186,0-1.307.029-1.886-.5-1.859-1.831.046-2.319-.021-4.64.03-6.959.019-.863-.228-1.159-1.122-1.147q-5.1.071-10.208,0c-.953-.015-1.078.383-1.077,1.19q.032,13.688,0,27.376c0,.811.131,1.2,1.08,1.187q5.1-.08,10.208,0c.9.012,1.137-.292,1.119-1.15-.05-2.319.017-4.64-.03-6.959-.027-1.334.555-1.857,1.86-1.827,2.062.046,4.126.056,6.186,0,1.418-.041,1.931.582,1.9,1.954-.057,2.267.013,4.537-.03,6.8-.016.818.141,1.206,1.086,1.182C1518.078-402.278,1521.016-402.261,1523.954-402.279Zm-37.15-34.56c-2.938-.018-5.877,0-8.814-.074-.921-.023-1.1.318-1.089,1.152.042,3.145-.013,6.291.031,9.436.018,1.333-.546,1.859-1.856,1.828-2.062-.049-4.127-.058-6.187,0-1.416.042-1.922-.566-1.9-1.945.054-3.144.005-6.291.027-9.436,0-.652-.048-1.045-.886-1.035-3.558.042-7.116.035-10.675,0-.722-.006-.838.3-.838.924q.019,16.4,0,32.8c0,.719.181.981.943.978q15.623-.059,31.246-.069c2.493.135,2.493.135,2.493-2.3v-30.117c0-2.263,0-2.263-2.341-2.168A1.351,1.351,0,0,0,1486.8-436.839ZM1475.674-453c0-4.069-.029-8.138.021-12.206.012-1.007-.155-1.452-1.316-1.429-3.707.076-7.417.059-11.125.007-.95-.013-1.22.257-1.216,1.212q.054,12.438,0,24.877c0,.99.326,1.2,1.24,1.187,3.708-.045,7.417-.053,11.125,0,1.01.016,1.308-.275,1.294-1.291C1475.642-444.762,1475.674-448.883,1475.674-453Zm-9.29-16.091h3.242c3.642,0,3.593,0,3.6-3.624,0-1.133-.4-1.364-1.427-1.342-2.829.061-5.66.021-8.49.021-3.978,0-3.949,0-3.747,3.934.043.841.352,1.036,1.11,1.022C1462.575-469.119,1464.479-469.1,1466.384-469.094Zm14.247,16.182c0-4.176-.032-8.352.023-12.528.013-.975-.283-1.243-1.221-1.2-.8.039-1.31.017-1.3,1.115q.073,12.528,0,25.056c-.007,1.091.489,1.087,1.3,1.121.929.039,1.24-.21,1.226-1.193C1480.6-444.663,1480.63-448.788,1480.63-452.912Zm-6.192,21.023q0-.618,0-1.236c0-4.022,0-4-4.008-3.788-.741.039-.973.253-.956.982.042,1.75.013,3.5.013,5.252,0,3.781,0,3.781,3.775,3.691a2.064,2.064,0,0,1,.309,0c.683.088.9-.225.877-.885C1474.41-429.211,1474.437-430.551,1474.438-431.889Zm5.013-37.2c3.764,0,3.764,0,3.655-3.808a1.017,1.017,0,0,1,0-.154c.086-.693-.13-1.024-.916-1-1.852.049-3.707.044-5.558,0-.739-.017-.935.233-.973.964C1475.454-469.09,1475.432-469.092,1479.451-469.092Zm32.138,40.91c0-4.019,0-3.995-4.015-3.778-.748.04-.965.268-.948.988.04,1.8.064,3.6-.007,5.4-.038.949.371,1.062,1.177,1.075C1511.589-424.435,1511.589-424.412,1511.589-428.182Zm0,22.194c0-3.767,0-3.767-3.8-3.663a1.976,1.976,0,0,1-.309,0c-.708-.09-.86.28-.851.909.028,1.852.037,3.706,0,5.558-.016.728.216.942.956.981C1511.59-401.992,1511.589-401.969,1511.589-405.988Z" transform="translate(-1452.147 476.535)" fill="#030202"/>
    <path id="Trazado_585136" data-name="Trazado 585136" d="M1492.3-313.991q-15.623.027-31.246.068c-.763,0-.945-.259-.944-.978q.028-16.4,0-32.8c0-.621.116-.93.838-.924,3.558.03,7.117.038,10.674,0,.839-.01.891.383.886,1.035-.021,3.145.028,6.292-.027,9.436-.024,1.379.482,1.987,1.9,1.945,2.061-.061,4.126-.051,6.188,0,1.31.031,1.874-.495,1.856-1.828-.044-3.145.011-6.291-.031-9.436-.011-.834.169-1.175,1.089-1.152,2.936.073,5.875.056,8.814.074Q1492.3-331.272,1492.3-313.991Zm-14.711-4.9c-2.985,0-5.971.054-8.953-.028-1.1-.03-1.085.488-1.111,1.292-.029.887.139,1.252,1.158,1.243q8.8-.079,17.6,0c1.1.011,1.084-.488,1.11-1.292.029-.887-.137-1.27-1.159-1.243C1483.353-318.842,1480.47-318.891,1477.589-318.891Zm-5.082-10.263a.886.886,0,0,1,.853.5c.688.946,1.13.331,1.671-.176s.894-.9.133-1.569c-.967-.845-1.852-1.786-2.74-2.717a1.413,1.413,0,0,0-2.363.049c-.849.9-1.7,1.8-2.626,2.612-.672.594-.646.995.012,1.573.6.525,1.06,1.2,1.787.169.149-.213.328-.558.792-.4,0,2.085.025,4.19-.012,6.292-.016.892-.064,1.526,1.221,1.5,1.164-.02,1.326-.438,1.293-1.438C1472.459-324.884,1472.507-327.021,1472.507-329.154Zm9.9.012c0,2.131.053,4.271-.023,6.406-.036,1.024.164,1.423,1.311,1.42,1.115,0,1.231-.449,1.209-1.36-.051-2.167-.016-4.336-.016-6.375.972-.172,1.029,1.693,2.271.515.925-.878,1.049-1.435,0-2.245a23.012,23.012,0,0,1-1.979-1.948c-1.42-1.405-1.655-1.4-3.119.053a23.781,23.781,0,0,1-1.979,1.948c-.989.776-.809,1.292,0,2.138C1481.309-327.316,1481.495-329.219,1482.409-329.142Z" transform="translate(-1457.643 388.248)" fill="#f6cf89"/>
    <path id="Trazado_585137" data-name="Trazado 585137" d="M1612.236-302.963c-2.937.018-5.876,0-8.812.073-.944.023-1.1-.365-1.086-1.182.043-2.267-.027-4.537.03-6.8.034-1.371-.478-1.994-1.9-1.954-2.061.059-4.125.049-6.186,0-1.306-.029-1.887.493-1.86,1.827.047,2.319-.02,4.641.03,6.959.019.859-.22,1.163-1.119,1.15q-5.1-.072-10.208,0c-.949.015-1.082-.376-1.08-1.187q.033-13.687,0-27.376c0-.807.123-1.205,1.077-1.19q5.1.08,10.208,0c.894-.012,1.141.284,1.122,1.147-.051,2.319.016,4.64-.03,6.959-.027,1.332.552,1.86,1.859,1.831,2.062-.046,4.126-.056,6.186,0,1.417.04,1.933-.581,1.9-1.953-.057-2.215.024-4.434-.034-6.65-.024-.945.154-1.378,1.244-1.343,2.884.092,5.771.06,8.658.078Z" transform="translate(-1540.429 377.22)" fill="#c08d58"/>
    <path id="Trazado_585138" data-name="Trazado 585138" d="M1497.709-430.953c0,4.12-.032,8.241.022,12.361.013,1.016-.285,1.306-1.295,1.291-3.708-.057-7.417-.049-11.125,0-.913.011-1.244-.2-1.24-1.187q.059-12.438,0-24.877c0-.955.266-1.225,1.216-1.212,3.708.052,7.417.069,11.125-.007,1.161-.024,1.328.422,1.316,1.429C1497.68-439.091,1497.709-435.022,1497.709-430.953Z" transform="translate(-1474.183 454.485)" fill="#c08d58"/>
    <path id="Trazado_585139" data-name="Trazado 585139" d="M1563.2-417.359c-3.351.017-6.7,0-10.052.073-.946.02-1.086-.37-1.084-1.184q.035-12.454,0-24.908c0-.814.138-1.2,1.083-1.184,3.35.069,6.7.055,10.053.073l.016,2.44c-1.739-.008-3.481.036-5.217-.042-1.05-.047-.983.562-.983,1.26s-.067,1.307.983,1.26c1.736-.078,3.478-.034,5.217-.042v2.517c-1.739-.008-3.481.036-5.217-.042-1.05-.047-.983.562-.983,1.26s-.067,1.307.983,1.26c1.736-.078,3.478-.034,5.217-.042Q1563.206-426.009,1563.2-417.359Z" transform="translate(-1521.112 454.466)" fill="#bf8d58"/>
    <path id="Trazado_585140" data-name="Trazado 585140" d="M1607.277-398.44c-1.078.018-2.157.067-3.234.046-1.146-.021-1.729.452-1.707,1.641q.039,2.081,0,4.163c-.022,1.188.561,1.664,1.707,1.643,1.078-.02,2.156.029,3.234.046v6.081c-8.76.018-17.521.018-26.281.076-1.1.007-.932-.612-.951-1.278-.02-.713-.066-1.3.99-1.241,1.541.087,3.092-.016,4.637.033,1.333.043,1.834-.547,1.824-1.856-.036-4.741-.014-9.482-.015-14.224,0-.656-.174-1.3.936-1.289,6.286.063,12.573.058,18.859.076Q1607.277-401.48,1607.277-398.44ZM1594.9-402.1c-1.082,0-2.165.022-3.247-.006-1.156-.03-1.73.466-1.7,1.654.027,1.133-.023,2.268.016,3.4a4.425,4.425,0,0,0,2.642,4.214c1.369.58,1.1,1.56,1.036,2.507-.072,1.132-1.038.583-1.559.574-.992-.018-.936.554-.888,1.19.045.593-.316,1.39.867,1.348,1.9-.068,3.814-.06,5.72,0,1.2.036.776-.795.84-1.37.074-.666.044-1.181-.913-1.165-.516.009-1.505.56-1.53-.6-.019-.872-.456-1.895.927-2.411a4.065,4.065,0,0,0,2.624-3.4,30.642,30.642,0,0,0,.1-4.78c-.027-.884-.707-1.169-1.529-1.161C1597.166-402.092,1596.032-402.1,1594.9-402.1Z" transform="translate(-1540.422 426.88)" fill="#f6ce89"/>
    <path id="Trazado_585141" data-name="Trazado 585141" d="M1564.027-313.942q0-17.28,0-34.561a1.373,1.373,0,0,1,.153-.023c2.34-.1,2.341-.1,2.341,2.168v30.117C1566.52-313.807,1566.52-313.807,1564.027-313.942Z" transform="translate(-1529.371 388.199)" fill="#b99b67"/>
    <path id="Trazado_585142" data-name="Trazado 585142" d="M1683.959-302.917v-29.606a3,3,0,0,1,.306-.04c2.186-.069,2.187-.069,2.187,2.052q0,12.636,0,25.273C1686.451-302.783,1686.451-302.783,1683.959-302.917Z" transform="translate(-1612.152 377.173)" fill="#8f6a42"/>
    <path id="Trazado_585143" data-name="Trazado 585143" d="M1482.748-463.584c-1.9,0-3.809-.024-5.712.011-.758.015-1.067-.181-1.11-1.022-.2-3.935-.231-3.934,3.747-3.934,2.83,0,5.661.04,8.49-.021,1.03-.022,1.428.209,1.427,1.342-.007,3.624.042,3.624-3.6,3.624Z" transform="translate(-1468.512 471.024)" fill="#8f6a42"/>
    <path id="Trazado_585144" data-name="Trazado 585144" d="M1538.523-430.871c0,4.125-.033,8.25.024,12.373.014.983-.3,1.233-1.226,1.193-.81-.034-1.305-.03-1.3-1.121q.073-12.528,0-25.056c-.006-1.1.5-1.077,1.3-1.115.938-.045,1.234.223,1.221,1.2C1538.492-439.223,1538.523-435.047,1538.523-430.871Z" transform="translate(-1510.041 454.493)" fill="#a5adb8"/>
    <path id="Trazado_585145" data-name="Trazado 585145" d="M1588.028-442.015l-.016-2.44c.1-.014.2-.036.306-.04,2.186-.069,2.187-.069,2.187,2.051q0,11.4,0,22.8c0,2.453,0,2.453-2.492,2.319q.008-8.65.016-17.3v-7.389Z" transform="translate(-1545.926 454.433)" fill="#8f6a42"/>
    <path id="Trazado_585146" data-name="Trazado 585146" d="M1571.017-463.581c-3.343.017-6.686.019-10.028.061-.751.009-1.071-.169-1.115-1.016-.208-3.941-.237-3.945,3.738-3.937,2.468.005,4.937.032,7.4.049Z" transform="translate(-1526.454 470.97)" fill="#8f6a42"/>
    <path id="Trazado_585147" data-name="Trazado 585147" d="M1513.044-343.766c0,1.339-.027,2.678.011,4.016.018.66-.194.973-.877.885a2.053,2.053,0,0,0-.309,0c-3.776.09-3.776.09-3.776-3.691,0-1.751.029-3.5-.013-5.252-.017-.728.215-.943.955-.982,4.009-.212,4.008-.234,4.008,3.788Q1513.044-344.383,1513.044-343.766Z" transform="translate(-1490.754 388.411)" fill="#a5adb9"/>
    <path id="Trazado_585148" data-name="Trazado 585148" d="M1531.685-463.573c-4.019,0-4,0-3.792-4,.038-.731.234-.981.972-.964,1.852.042,3.707.047,5.559,0,.786-.021,1,.31.916,1a1.032,1.032,0,0,0,0,.154C1535.449-463.573,1535.449-463.573,1531.685-463.573Z" transform="translate(-1504.381 471.016)" fill="#a5adb9"/>
    <path id="Trazado_585149" data-name="Trazado 585149" d="M1632.959-329.027c0,3.769,0,3.747-3.794,3.687-.806-.013-1.215-.126-1.177-1.075.071-1.8.048-3.6.007-5.4-.016-.72.2-.948.948-.988C1632.96-333.022,1632.959-333.046,1632.959-329.027Z" transform="translate(-1573.517 377.38)" fill="#a5adb9"/>
    <path id="Trazado_585150" data-name="Trazado 585150" d="M1632.978-257.012c0,4.019,0,4-4.008,3.785-.74-.039-.972-.252-.956-.981.041-1.852.031-3.706,0-5.558-.01-.63.143-1,.851-.909a1.975,1.975,0,0,0,.308,0C1632.978-260.779,1632.978-260.779,1632.978-257.012Z" transform="translate(-1573.537 327.559)" fill="#a5adb9"/>
    <path id="Trazado_585151" data-name="Trazado 585151" d="M1667.971-354.4v-6.081c2.493-.135,2.493-.135,2.493,2.273v1.535C1670.464-354.267,1670.464-354.267,1667.971-354.4Z" transform="translate(-1601.117 396.464)" fill="#b99b67"/>
    <path id="Trazado_585152" data-name="Trazado 585152" d="M1667.971-398.375q0-3.04,0-6.081c2.493-.135,2.493-.135,2.493,2.273v1.535C1670.464-398.24,1670.464-398.24,1667.971-398.375Z" transform="translate(-1601.117 426.816)" fill="#b99b67"/>
    <path id="Trazado_585153" data-name="Trazado 585153" d="M1596.008-463.595v-4.843c.1-.012.2-.033.306-.036,2.185-.069,2.185-.069,2.186,2.072v.463C1598.5-463.466,1598.5-463.466,1596.008-463.595Z" transform="translate(-1551.445 470.985)" fill="#6b4e31"/>
    <path id="Trazado_585154" data-name="Trazado 585154" d="M1660.238-374.236v-1.869l.242-.241h4.345l.241.242v1.869l-.242.241h-4.346Z" transform="translate(-1595.78 407.381)" fill="#a5adb9"/>
    <path id="Trazado_585155" data-name="Trazado 585155" d="M1675.289-376.124l-.241-.242Q1675.346-376.422,1675.289-376.124Z" transform="translate(-1606.002 407.401)" fill="#a3aab6"/>
    <path id="Trazado_585156" data-name="Trazado 585156" d="M1660.217-369.534l.241.242Q1660.16-369.236,1660.217-369.534Z" transform="translate(-1595.759 402.679)" fill="#a3aab6"/>
    <path id="Trazado_585157" data-name="Trazado 585157" d="M1675.045-369.291l.241-.241Q1675.343-369.233,1675.045-369.291Z" transform="translate(-1606 402.677)" fill="#a3aab6"/>
    <path id="Trazado_585158" data-name="Trazado 585158" d="M1660.46-376.367l-.242.241Q1660.162-376.424,1660.46-376.367Z" transform="translate(-1595.76 407.401)" fill="#a3aab6"/>
    <path id="Trazado_585159" data-name="Trazado 585159" d="M1494.1-252.695c2.882,0,5.765.049,8.644-.026,1.022-.027,1.188.356,1.159,1.243-.026.8-.015,1.3-1.11,1.292q-8.8-.089-17.6,0c-1.019.009-1.187-.356-1.158-1.243.026-.8.013-1.322,1.111-1.292C1488.134-252.64,1491.12-252.695,1494.1-252.695Z" transform="translate(-1474.159 322.052)" fill="#040302"/>
    <path id="Trazado_585160" data-name="Trazado 585160" d="M1487.729-295.95c0,2.133-.048,4.27.021,6.4.033,1-.129,1.418-1.293,1.438-1.284.023-1.237-.611-1.221-1.5.037-2.1.012-4.207.012-6.293-.464-.159-.643.186-.792.4-.727,1.035-1.188.357-1.787-.169-.658-.578-.685-.979-.012-1.573.924-.816,1.778-1.716,2.627-2.612a1.413,1.413,0,0,1,2.363-.049c.888.93,1.773,1.872,2.74,2.717.761.665.418,1.054-.133,1.569s-.983,1.122-1.672.176A.885.885,0,0,0,1487.729-295.95Z" transform="translate(-1472.865 355.044)" fill="#040302"/>
    <path id="Trazado_585161" data-name="Trazado 585161" d="M1525.417-296.043c-.915-.077-1.1,1.826-2.321.553-.811-.846-.991-1.363,0-2.138a23.813,23.813,0,0,0,1.979-1.948c1.464-1.454,1.7-1.458,3.119-.053a23.086,23.086,0,0,0,1.979,1.948c1.048.81.924,1.367,0,2.245-1.242,1.178-1.3-.688-2.271-.515,0,2.039-.035,4.208.016,6.375.022.911-.095,1.357-1.209,1.36-1.147,0-1.347-.4-1.311-1.42C1525.469-291.772,1525.417-293.912,1525.417-296.043Z" transform="translate(-1500.651 355.149)" fill="#040302"/>
    <path id="Trazado_585162" data-name="Trazado 585162" d="M1574.246-420.555v2.436c-1.74.008-3.481-.036-5.218.042-1.05.047-.983-.562-.983-1.26s-.067-1.307.983-1.26C1570.765-420.518,1572.507-420.562,1574.246-420.555Z" transform="translate(-1532.144 437.926)" fill="#030202"/>
    <path id="Trazado_585163" data-name="Trazado 585163" d="M1574.246-436.545v2.436c-1.74.008-3.481-.036-5.218.042-1.05.047-.983-.561-.983-1.26s-.067-1.307.983-1.26C1570.765-436.509,1572.507-436.552,1574.246-436.545Z" transform="translate(-1532.144 448.963)" fill="#030202"/>
    <path id="Trazado_585164" data-name="Trazado 585164" d="M1616.983-396.557c1.134,0,2.268.008,3.4,0,.821-.008,1.5.277,1.529,1.161a30.671,30.671,0,0,1-.1,4.78,4.065,4.065,0,0,1-2.624,3.4c-1.383.516-.946,1.539-.927,2.411.025,1.159,1.015.608,1.53.6.958-.017.987.5.913,1.165-.064.576.355,1.406-.84,1.37-1.9-.056-3.815-.064-5.719,0-1.184.042-.822-.754-.867-1.347-.048-.636-.1-1.208.888-1.19.521.009,1.487.559,1.559-.574.061-.947.333-1.927-1.036-2.507a4.424,4.424,0,0,1-2.642-4.214c-.038-1.132.012-2.268-.016-3.4-.029-1.187.545-1.684,1.7-1.653C1614.818-396.534,1615.9-396.557,1616.983-396.557Zm0,2.53c-.811.073-1.866-.517-2.387.306-.857,1.353.207,3.777,1.758,4.411,1.589.268,2.693-.349,3.049-1.7C1620.052-393.5,1619.52-394.161,1616.979-394.027Z" transform="translate(-1562.507 421.336)" fill="#040403"/>
    <path id="Trazado_585165" data-name="Trazado 585165" d="M1626.6-388.409c2.541-.135,3.073.528,2.42,3.014-.356,1.355-1.46,1.971-3.049,1.7C1626.893-385.169,1626.592-386.809,1626.6-388.409Z" transform="translate(-1572.124 415.718)" fill="#7a7f88"/>
    <path id="Trazado_585166" data-name="Trazado 585166" d="M1622-388.677c0,1.6.3,3.24-.629,4.717-1.55-.634-2.614-3.058-1.758-4.411C1620.134-389.193,1621.188-388.6,1622-388.677Z" transform="translate(-1567.528 415.986)" fill="#a3aab6"/>
  </g>
</svg>
