<svg xmlns="http://www.w3.org/2000/svg" width="347.929" height="312.882" viewBox="0 0 347.929 312.882">
  <g id="Grupo_846328" data-name="Grupo 846328" transform="translate(-839.5 -7022.395)">
    <g id="Grupo_846327" data-name="Grupo 846327" transform="translate(463.561 5182.984)">
      <path id="Trazado_582986" data-name="Trazado 582986" d="M299.623,38.991a28.035,28.035,0,1,0,28.035-28.035A28.029,28.029,0,0,0,299.623,38.991Z" transform="translate(361.515 1898.481)" fill="none" stroke="#00e7bf" stroke-linecap="round" stroke-linejoin="round" stroke-width="13.32" opacity="0.35"/>
      <path id="Trazado_587269" data-name="Trazado 587269" d="M299.623,27.255a16.3,16.3,0,1,0,16.3-16.3A16.3,16.3,0,0,0,299.623,27.255Z" transform="translate(373.251 1846.481)" fill="#ffd400"/>
      <g id="Grupo_845305" data-name="Grupo 845305" transform="translate(100.91 2111.037)" style="isolation: isolate">
        <path id="Trazado_582519" data-name="Trazado 582519" d="M239.153,0a3.289,3.289,0,1,0,3.292,3.286A3.287,3.287,0,0,0,239.153,0" transform="translate(208.295)" fill="#f27b58"/>
        <path id="Trazado_582520" data-name="Trazado 582520" d="M221.888,0a3.289,3.289,0,1,0,3.292,3.286A3.287,3.287,0,0,0,221.888,0" transform="translate(193.048)" fill="#f27b58"/>
        <path id="Trazado_582521" data-name="Trazado 582521" d="M204.62,0a3.289,3.289,0,1,0,3.292,3.286A3.289,3.289,0,0,0,204.62,0" transform="translate(177.8)" fill="#f27b58"/>
        <path id="Trazado_582522" data-name="Trazado 582522" d="M187.352,0a3.289,3.289,0,1,0,3.292,3.286A3.285,3.285,0,0,0,187.352,0" transform="translate(162.554)" fill="#f27b58"/>
        <path id="Trazado_582523" data-name="Trazado 582523" d="M170.093,0a3.289,3.289,0,1,0,3.286,3.286A3.287,3.287,0,0,0,170.093,0" transform="translate(147.307)" fill="#f27b58"/>
        <path id="Trazado_582524" data-name="Trazado 582524" d="M152.827,0a3.289,3.289,0,1,0,3.292,3.286A3.287,3.287,0,0,0,152.827,0" transform="translate(132.059)" fill="#f27b58"/>
        <path id="Trazado_582525" data-name="Trazado 582525" d="M230.521,8.478a3.292,3.292,0,1,0,3.29,3.292,3.287,3.287,0,0,0-3.29-3.292" transform="translate(200.672 7.487)" fill="#f27b58"/>
        <path id="Trazado_582526" data-name="Trazado 582526" d="M213.255,8.478a3.292,3.292,0,1,0,3.29,3.292,3.288,3.288,0,0,0-3.29-3.292" transform="translate(185.424 7.487)" fill="#f27b58"/>
        <path id="Trazado_582527" data-name="Trazado 582527" d="M195.985,8.478a3.292,3.292,0,1,0,3.292,3.292,3.287,3.287,0,0,0-3.292-3.292" transform="translate(170.178 7.487)" fill="#f27b58"/>
        <path id="Trazado_582528" data-name="Trazado 582528" d="M178.726,8.478a3.292,3.292,0,1,0,3.284,3.292,3.287,3.287,0,0,0-3.284-3.292" transform="translate(154.931 7.487)" fill="#f27b58"/>
        <path id="Trazado_582529" data-name="Trazado 582529" d="M161.46,8.478a3.292,3.292,0,1,0,3.286,3.292,3.288,3.288,0,0,0-3.286-3.292" transform="translate(139.683 7.487)" fill="#f27b58"/>
        <path id="Trazado_582530" data-name="Trazado 582530" d="M239.153,18.415a3.289,3.289,0,1,0,3.292,3.292,3.288,3.288,0,0,0-3.292-3.292" transform="translate(208.295 16.263)" fill="#f27b58"/>
        <path id="Trazado_582531" data-name="Trazado 582531" d="M221.888,18.415a3.289,3.289,0,1,0,3.292,3.292,3.288,3.288,0,0,0-3.292-3.292" transform="translate(193.048 16.263)" fill="#f27b58"/>
        <path id="Trazado_582532" data-name="Trazado 582532" d="M204.62,18.415a3.289,3.289,0,1,0,3.292,3.292,3.29,3.29,0,0,0-3.292-3.292" transform="translate(177.8 16.263)" fill="#f27b58"/>
        <path id="Trazado_582533" data-name="Trazado 582533" d="M187.352,18.415a3.289,3.289,0,1,0,3.292,3.292,3.287,3.287,0,0,0-3.292-3.292" transform="translate(162.554 16.263)" fill="#f27b58"/>
        <path id="Trazado_582534" data-name="Trazado 582534" d="M170.093,18.415a3.289,3.289,0,1,0,3.286,3.292,3.288,3.288,0,0,0-3.286-3.292" transform="translate(147.307 16.263)" fill="#f27b58"/>
        <path id="Trazado_582535" data-name="Trazado 582535" d="M152.827,18.415a3.289,3.289,0,1,0,3.292,3.292,3.288,3.288,0,0,0-3.292-3.292" transform="translate(132.059 16.263)" fill="#f27b58"/>
      </g>
    </g>
    <g id="Grupo_846303" data-name="Grupo 846303" transform="translate(318.283 6899.382)">
      <g id="Grupo_846260" data-name="Grupo 846260" transform="translate(521.217 225.038)">
        <g id="Grupo_846253" data-name="Grupo 846253" transform="translate(38.944)">
          <path id="Trazado_585917" data-name="Trazado 585917" d="M550.773,214.591c2.1-2.044,3.665-3.752,3.665-3.752l9.551-.4v3.156a3.975,3.975,0,0,1-1.776,2.247,40.745,40.745,0,0,1-5.977,3.116,35.916,35.916,0,0,1-7.988,1.726c-2,.079-2.872-.864-1.821-1.892C548.23,217.029,548.832,216.483,550.773,214.591Z" transform="translate(-519.863 -82.759)" fill="#4d4d4d"/>
          <path id="Trazado_585918" data-name="Trazado 585918" d="M559.09,212.685l8.613-.97a22.424,22.424,0,0,1-.814,11.12c-2.013,5.644-5.549,5.7-6.792,5.252s-1.818-4.036-1.595-8.1S559.09,212.685,559.09,212.685Z" transform="translate(-499.558 -80.674)" fill="#4d4d4d"/>
          <path id="Trazado_585919" data-name="Trazado 585919" d="M555.558,187.086s20.831-6.356,20.321-2.451c0,0,4.63,5.809,3.889,17.392-.342,5.321.116,18.571.562,27.7,5.347,12.029,6.4,25.923,6.4,25.923s.817,2.323-3.34,4.4-10.231-.089-10.231-.089,0-17.917-4.819-28.086c-2.638-5.557-3.348-24.82-3.348-24.82L560.828,227.7l-.37,26.173s-2.961,2.919-6.55,2.935C549.23,256.828,549,254.1,549,254.1s-.817-22.418,1.046-34.975C551.679,208.072,555.558,187.086,555.558,187.086Z" transform="translate(-515.241 -126.812)" fill="#5d588d"/>
          <path id="Trazado_585920" data-name="Trazado 585920" d="M569.2,170.716a29.646,29.646,0,0,0-5.815,6.658c-.638,1.1-3.342,6.4-5.113,10.04-2.346-.018-10.4-.854-12.486-.854H542.85s.6,2.764,0,3.715a13.528,13.528,0,0,0-1.125,2.677,15.062,15.062,0,0,0,6.653,3.024c4.4.951,11.117,2.591,14.425,1.127,3.127-1.387,4.02-9.317,4.335-10.489.56-4.853,3.481-12.938,6.874-16.073C574.013,170.542,571.357,168.961,569.2,170.716Z" transform="translate(-526.783 -148.748)" fill="#c1c1c1"/>
          <g id="Grupo_846250" data-name="Grupo 846250" transform="translate(38.007 3.562)">
            <path id="Trazado_585921" data-name="Trazado 585921" d="M558.042,170.995s-6.212,5.019-6.953,12.108c-.179,1.713.15,8.248-.229,13.558-.4,5.6-.66,9.238.31,11.086,1.154,2.207,5.281,4.375,9.33,5.095,4.588.817,9.8-.568,13.256-1.083,3.789-2.4,1.461-6.232,1.787-8.752,1.025-7.877,2.559-20.61,2.281-22.694-.465-3.487-8.369-7.262-8.369-7.262S563.852,168.709,558.042,170.995Z" transform="translate(-550.504 -151.591)" fill="#ddd"/>
            <path id="Trazado_585922" data-name="Trazado 585922" d="M556.258,173.6l-.439,3.453a73.905,73.905,0,0,0-2.378,7.806c-.436,2.409-1.308,12.835-1.308,12.835l1.479,4.112,2.9-2.268,1.34-21.569,2.155-2.58-2.055-2.4Z" transform="translate(-547.853 -147.263)" fill="#5d588d"/>
            <g id="Grupo_846249" data-name="Grupo 846249" transform="translate(4.28 1.923)">
              <path id="Trazado_585923" data-name="Trazado 585923" d="M554.45,173.747l-.376,5.463a14.736,14.736,0,0,0,2.564,2.641c1.973-.615,6.553-4.866,6.553-4.866l-1.526-8.479Z" transform="translate(-548.974 -156.484)" fill="#ffad97"/>
              <path id="Trazado_585924" data-name="Trazado 585924" d="M565.67,166.631a7.18,7.18,0,0,0-11.805.87c-4.033,5.97-.221,15.728,3.313,15.161,1.979-.321,6.432-2.123,8.385-5.31C567.761,173.762,567.265,168.665,565.67,166.631Z" transform="translate(-552.133 -163.93)" fill="#ffc5b3"/>
            </g>
            <path id="Trazado_585925" data-name="Trazado 585925" d="M556.136,171.068l.447,5.047-3.6,1.469S552.615,172.235,556.136,171.068Z" transform="translate(-546.483 -150.39)" fill="#fff"/>
            <path id="Trazado_585926" data-name="Trazado 585926" d="M562.2,170.583a26.5,26.5,0,0,1-3.342,3.9,12.54,12.54,0,0,1-4.511,2.425l1.353,4.062s4.969-2.275,6.792-4.262C562.493,176.705,564.65,172.982,562.2,170.583Z" transform="translate(-544.248 -151.179)" fill="#fff"/>
            <path id="Trazado_585927" data-name="Trazado 585927" d="M557.039,168.674c5.329,1.908,6.671,6.141,7.339,6.716.754.652.644,3.153.644,3.153a9.217,9.217,0,0,0,2.838-6.577c-.008-2.564-2.249-8.122-6.95-8.7s-10.053,2.827-7.988,6.085A4.4,4.4,0,0,1,557.039,168.674Z" transform="translate(-547.312 -163.198)" fill="#4d4d4d"/>
          </g>
          <path id="Trazado_585928" data-name="Trazado 585928" d="M575.951,192.007c1.2-8.419.694-15.82-3.884-18.834-3.326-2.189-4.367,8.193-5.271,14.846-.218,1.6-1.729,8.949-2.094,10.691-2.231.533-9.724,5.208-11.12,7a11.156,11.156,0,0,1,2.785,6.143c5.016-1.111,10.925-2.252,14.162-5.794C573.747,202.541,575.389,195.951,575.951,192.007Z" transform="translate(-507.486 -143.886)" fill="#c1c1c1"/>
          <g id="Grupo_846251" data-name="Grupo 846251" transform="translate(20.194 48.9)">
            <path id="Trazado_585929" data-name="Trazado 585929" d="M553.86,197.9l11.947,7-10.136-17.186-11.947-7Z" transform="translate(-543.724 -180.032)" fill="#cc8c46"/>
            <path id="Trazado_585930" data-name="Trazado 585930" d="M558.407,200.982l1.108-.68L549.38,183.116l-1.109.68Z" transform="translate(-536.324 -176.119)" fill="#d89c55"/>
            <path id="Trazado_585931" data-name="Trazado 585931" d="M543.724,181.133l1.108-.68,11.947,7-1.109.68Z" transform="translate(-543.724 -180.453)" fill="#e8b470"/>
          </g>
          <path id="Trazado_585932" data-name="Trazado 585932" d="M564.139,189.5a17.346,17.346,0,0,1-2.585,2.233,10.288,10.288,0,0,1-6.96,1.655,10.4,10.4,0,0,1-5.872-3.7,1.5,1.5,0,0,1,.51-2.346c1.232-.822,3.752.328,5.268.2a7.9,7.9,0,0,1-.856-1.456c1.329-.491,5.373.079,5.373.079S563.9,184.635,564.139,189.5Z" transform="translate(-515.982 -122.711)" fill="#ffc5b3"/>
          <path id="Trazado_585933" data-name="Trazado 585933" d="M562.188,179.127l-6.2-2.591s-1.895,6.151,2.1,7.785C562.269,186.035,562.188,179.127,562.188,179.127Z" transform="translate(-504.309 -137.928)" fill="#fff"/>
          <path id="Trazado_585934" data-name="Trazado 585934" d="M555.713,176.751l-4.367-2.141s-1.513,6.154,1.287,7.136C554.864,182.527,555.713,176.751,555.713,176.751Z" transform="translate(-511.791 -141.063)" fill="#fff"/>
          <path id="Trazado_585935" data-name="Trazado 585935" d="M555.481,185.373a5.506,5.506,0,0,1,2.4,3c.9,2.294.384,3.143.384,3.143l-3.271,1.335a16.894,16.894,0,0,0-.907-3.792,4.94,4.94,0,0,0-1.671-2.06Z" transform="translate(-509.383 -123.546)" fill="#fff"/>
          <g id="Grupo_846252" data-name="Grupo 846252" transform="translate(40.021)">
            <path id="Trazado_585936" data-name="Trazado 585936" d="M566,165c3.947,1.566,4.808,4.685,1.926,6.966s-8.418,2.864-12.362,1.3-4.808-4.682-1.926-6.966S562.055,163.435,566,165Z" transform="translate(-550.188 -158.134)" fill="#97a9dd"/>
            <path id="Trazado_585937" data-name="Trazado 585937" d="M552.027,173.4s-1.674-10.14,7.1-11.43c10.224-1.5,10.552,10.5,10.552,10.5Z" transform="translate(-550.247 -161.842)" fill="#97a9dd"/>
            <path id="Trazado_585938" data-name="Trazado 585938" d="M552.922,165.672s-4.262,3.989.907,6.219c8.763,3.781,15.933-3.169,15.933-3.169s-9.309,2.22-14.036.147C552.525,167.464,552.922,165.672,552.922,165.672Z" transform="translate(-551.27 -155.61)" fill="#8a9ad0"/>
            <path id="Trazado_585939" data-name="Trazado 585939" d="M557.029,162.51c-1.327.778-1.926,1.7-2.7,3.592a3.651,3.651,0,0,0,1.745,4.793,11.462,11.462,0,0,1,3.179,2.98,4.19,4.19,0,0,0-1.353-3.5c-1.629-1.361-3.148-2.063-2.212-4.275,1.153-2.722,4.911-3.728,4.911-3.728S559.312,161.178,557.029,162.51Z" transform="translate(-546.825 -161.781)" fill="#8a9ad0"/>
            <path id="Trazado_585940" data-name="Trazado 585940" d="M559.294,161.892a8.5,8.5,0,0,0-3.518,2.57c-.481.762-.454,3.368-.906,4.018a26.428,26.428,0,0,1-2.8,2.528s-.707-.662.174-1.855,1.949-1.293,2.047-3.069C554.351,164.89,553.742,162.239,559.294,161.892Z" transform="translate(-550.414 -161.762)" fill="#8a9ad0"/>
          </g>
          <path id="Trazado_585941" data-name="Trazado 585941" d="M551.526,177.372a59.749,59.749,0,0,0-6.839-1.427c-2.719-.31-3.187-.231-3.731.079s.234.778,1.012.933.7.854.231,1.009a15.223,15.223,0,0,0-5.05,1.477c-2.176,1.243-.815,2.536,1.2,3.537s6.839-.465,8.7-.972a5.761,5.761,0,0,1,3.652.544A6.914,6.914,0,0,0,551.526,177.372Z" transform="translate(-536.039 -139.211)" fill="#ffc5b3"/>
          <path id="Trazado_585942" data-name="Trazado 585942" d="M545.149,176.446a13.832,13.832,0,0,1,0,3.458,12.186,12.186,0,0,1-1.563,3.466L541,181.63a22.132,22.132,0,0,0,1.035-2.672,5.067,5.067,0,0,0,.087-2.856Z" transform="translate(-527.96 -138.635)" fill="#ddd"/>
        </g>
        <g id="Grupo_846259" data-name="Grupo 846259" transform="translate(0 33.657)">
          <g id="Grupo_846255" data-name="Grupo 846255" transform="translate(9.456 23.952)">
            <path id="Trazado_585943" data-name="Trazado 585943" d="M532.828,215.05l-.007-14.5,21.031-12.158v14.467Z" transform="translate(-511.789 -176.238)" fill="#dba763"/>
            <path id="Trazado_585944" data-name="Trazado 585944" d="M545.855,215.05l-.007-14.5-21.032-12.158v14.467Z" transform="translate(-524.816 -176.238)" fill="#e8b679"/>
            <path id="Trazado_585945" data-name="Trazado 585945" d="M524.816,195.924l21.032,12.158,21.031-12.158-21.024-12.156Z" transform="translate(-524.816 -183.768)" fill="#ffe1c0"/>
            <g id="Grupo_846254" data-name="Grupo 846254" transform="translate(0.861 4.505)">
              <path id="Trazado_585946" data-name="Trazado 585946" d="M540.754,197.788l-4.69,2.723v-7.682l4.69-2.725Z" transform="translate(-507.371 -177.962)" fill="#4d4d4d"/>
              <path id="Trazado_585947" data-name="Trazado 585947" d="M553.769,197.625l-21-12.142-4.7,2.716,21.012,12.161Z" transform="translate(-520.386 -185.483)" fill="#6d6d6d"/>
              <path id="Trazado_585948" data-name="Trazado 585948" d="M533.881,200.48v-1.353l7.061-4.095v1.373Z" transform="translate(-510.924 -169.94)" fill="#4d4d4d"/>
              <path id="Trazado_585949" data-name="Trazado 585949" d="M533.881,199.559v-1.353l7.061-4.095v1.373Z" transform="translate(-510.924 -171.439)" fill="#4d4d4d"/>
              <path id="Trazado_585950" data-name="Trazado 585950" d="M538.981,193.646v4.695l3.377-1.955v-4.7Z" transform="translate(-502.624 -175.381)" fill="#4d4d4d"/>
              <path id="Trazado_585951" data-name="Trazado 585951" d="M528.521,193.755v4.893l-3.377-1.951V191.8Z" transform="translate(-525.144 -175.194)" fill="#4d4d4d"/>
              <path id="Trazado_585952" data-name="Trazado 585952" d="M530.274,194.772v4.892l-3.377-1.951v-4.892Z" transform="translate(-522.29 -173.539)" fill="#4d4d4d"/>
              <path id="Trazado_585953" data-name="Trazado 585953" d="M536.771,195.74v7.03l-6.94-4.01v-7.039Z" transform="translate(-517.514 -175.329)" fill="#fff"/>
              <path id="Trazado_585954" data-name="Trazado 585954" d="M535.531,196.457v-1.145l-5.46-3.148v1.126Z" transform="translate(-517.124 -174.609)" fill="#4d4d4d"/>
            </g>
          </g>
          <g id="Grupo_846257" data-name="Grupo 846257" transform="translate(14.632 19.349)">
            <path id="Trazado_585955" data-name="Trazado 585955" d="M532.935,202.182l-.005-8.624,13.824-7.992v8.63Z" transform="translate(-516.788 -176.238)" fill="#dba763"/>
            <path id="Trazado_585956" data-name="Trazado 585956" d="M542.933,203.011l-.005-8.624-16.142-9.331v8.624Z" transform="translate(-526.786 -177.067)" fill="#e8b679"/>
            <path id="Trazado_585957" data-name="Trazado 585957" d="M526.786,190.005l16.142,9.331,13.824-7.992-16.132-9.328Z" transform="translate(-526.786 -182.016)" fill="#ffe1c0"/>
            <g id="Grupo_846256" data-name="Grupo 846256" transform="translate(0.691 9.891)">
              <path id="Trazado_585958" data-name="Trazado 585958" d="M533.324,193.508v-.889l4.641-2.692v.9Z" transform="translate(-516.837 -179.032)" fill="#4d4d4d"/>
              <path id="Trazado_585959" data-name="Trazado 585959" d="M533.324,192.9v-.889l4.641-2.692v.9Z" transform="translate(-516.837 -180.017)" fill="#4d4d4d"/>
              <path id="Trazado_585960" data-name="Trazado 585960" d="M529.818,187.38v4.011l-2.769-1.6V185.78Z" transform="translate(-527.049 -185.78)" fill="#4d4d4d"/>
            </g>
            <path id="Trazado_585961" data-name="Trazado 585961" d="M536.893,191.484v4.788l-7.065-4.082v-4.8Z" transform="translate(-521.834 -173.265)" fill="#fff"/>
            <path id="Trazado_585962" data-name="Trazado 585962" d="M535.631,192.214v-1.165l-5.558-3.2v1.146Z" transform="translate(-521.437 -172.531)" fill="#4d4d4d"/>
            <path id="Trazado_585963" data-name="Trazado 585963" d="M539.819,190.873l-4.774,2.772V189.1l4.774-2.774Z" transform="translate(-513.346 -174.997)" fill="#4d4d4d"/>
            <path id="Trazado_585964" data-name="Trazado 585964" d="M549.812,192.1l-16.12-9.321-4.787,2.765,16.133,9.34Z" transform="translate(-523.339 -180.771)" fill="#6d6d6d"/>
          </g>
          <g id="Grupo_846258" data-name="Grupo 846258">
            <path id="Trazado_585965" data-name="Trazado 585965" d="M530.8,203.236c1.642-5.581,2.483-11.724-.292-16.241l-6.035.142a44.611,44.611,0,0,0-3.061,9.252c-.625,3.954.289,5.838,1.863,7.712s7.181-.625,7.389-.765Z" transform="translate(-521.217 -154.563)" fill="#ffc5b3"/>
            <path id="Trazado_585966" data-name="Trazado 585966" d="M535.106,228.023s6.479-2.89,9.685-3.027,3.516,3.626,0,6.545-6.209,3.311-9.086,4.493c-2.593,1.067-3.523,1.148-5.594-.192-2.759-1.792-.547-6.524-.547-6.524Z" transform="translate(-508.998 -92.722)" fill="#4d4d4d"/>
            <path id="Trazado_585967" data-name="Trazado 585967" d="M528.008,223.342s5.147-2.152,8.353-2.291,4.356,2.633.841,5.552-5.718,3.568-8.595,4.751c-2.593,1.064-3.51,1.127-5.594-.194-2.838-1.8-.62-6.532-.549-6.522Z" transform="translate(-520.639 -99.144)" fill="#4d4d4d"/>
            <path id="Trazado_585968" data-name="Trazado 585968" d="M547.155,199.043s5.657,30.555,5.657,40.154c0,16.919-.15,34.738-.15,34.738s-2.8,2.943-5.534,2.951c-6.143.016-6.763-3.074-6.763-3.074s-.084-20.166-.62-29.326c-.373-6.372-.744-15.35-3.305-22.757-.074,7.607-.055,10.045-.678,18.327-.46,6.109-3.006,22.51-3.145,23.579-1.947,2.352-7.985,3.975-11.043.533.239-2.7,1.939-21.646,1.716-31.467-.2-9.023-2.5-30.4,2.656-34.56C530.4,194.545,547.155,199.043,547.155,199.043Z" transform="translate(-520.639 -138.691)" fill="#5d588d"/>
            <path id="Trazado_585969" data-name="Trazado 585969" d="M531.734,200.964a40.364,40.364,0,0,0-.972-7.131l3.006-9.567s-4.214-2.136-7.065,1.261c-1.185,1.411-3.361,5.657-5.255,9.617C522.905,197.683,526.875,201.125,531.734,200.964Z" transform="translate(-520.844 -160.083)" fill="#d1406b"/>
            <path id="Trazado_585970" data-name="Trazado 585970" d="M534.032,177.231c-2.252-1.563-6.587-1.075-8.466,2.9-1.043,2.2.428,8.111.662,12.265a10.126,10.126,0,0,1-.935,5.284l2.872,1.182a8.666,8.666,0,0,0,5.867,0l-.092-5.108s3.093-.46,3.634-.956c1.3-1.193,1.994-4.745,1.39-9.328C538.065,176.645,534.862,177.809,534.032,177.231Z" transform="translate(-514.742 -171.8)" fill="#ffc5b3"/>
            <path id="Trazado_585971" data-name="Trazado 585971" d="M546.056,202.17c1.695-3.618-2.149-10.187-3.227-12.549s-4.53-3.8-4.53-3.8a58.09,58.09,0,0,0-6.364-1.958c-.715-.108-3.2-.263-3.2-.263s-5.489,8.631-6.1,13.387c-.428,3.329,1.387,14.215.042,24.933-.712,5.673,20.692,4.075,22.578,1.76C544.161,218.321,542.59,209.567,546.056,202.17Z" transform="translate(-519.012 -160.082)" fill="#fc6181"/>
            <path id="Trazado_585972" data-name="Trazado 585972" d="M523.561,200.43a69.422,69.422,0,0,1-.31,11.417c-.681,4.275-1.1,10.883-1.1,10.883s6.088,4.737,13.116,3.915a24.667,24.667,0,0,0,11.9-4.916s-2.336-12.029-2.2-13.505l.131-1.477s-2.7,1.277-4.4.562a8.089,8.089,0,0,1-5.421-6.377c-.612-3.1-.21-10.289-.066-12.21-.344-.05-9.075-2.617-9.075-2.617S523.458,194.626,523.561,200.43Z" transform="translate(-519.691 -156.012)" fill="#5d588d"/>
            <path id="Trazado_585973" data-name="Trazado 585973" d="M539.044,186.9c.342-1.143,1.125-3.8,1.319-4.874a5.21,5.21,0,0,0-1.4-4.856c-1.7-1.768-7.591-2.336-9.722-1.1s-6.663,3.484-5.082,10.833c1.28,5.938,2.522,6.6,4.314,8a10.227,10.227,0,0,0,4.33,1.521,5.1,5.1,0,0,0,1.816-3.361c.087-.709,0-2.856,0-2.856s-1.571-3.108-.355-4.215c1.3-1.18,2.62.7,2.924,1.453C538.248,190.1,539.3,191.341,539.044,186.9Z" transform="translate(-516.969 -173.426)" fill="#4d4d4d"/>
            <path id="Trazado_585974" data-name="Trazado 585974" d="M559.378,200.489a43.555,43.555,0,0,1-12.462-1.3,34.956,34.956,0,0,1-7.822-3.221,53.356,53.356,0,0,1-2.265-5.852l-7.859,3.206s1.981,5.3,3.143,7.725c.935,1.944,2.1,2.336,3.965,3.022,2.722,1,10.7,1.28,13.879,1.69a17.593,17.593,0,0,0,7.005-.376C560.808,204.454,559.531,201.556,559.378,200.489Z" transform="translate(-508.6 -149.484)" fill="#ffc5b3"/>
            <path id="Trazado_585975" data-name="Trazado 585975" d="M530.133,203.824c3.731.8,7.762-.36,9.848-3.206-1.519-6.874-3.936-14.346-7.249-15.442-1.781-.591-4.966,5.578-4.427,9.953C528.457,196.362,529.2,199.8,530.133,203.824Z" transform="translate(-509.782 -157.587)" fill="#d1406b"/>
            <path id="Trazado_585976" data-name="Trazado 585976" d="M522.514,197.794l-.278,3.019s4.083,3.513,12.9,3.713,11.7-2.814,11.7-2.814l-.52-3.106a23.749,23.749,0,0,1-11.425,2.972A23.184,23.184,0,0,1,522.514,197.794Z" transform="translate(-519.56 -136.988)" fill="#7c76ac"/>
            <path id="Trazado_585977" data-name="Trazado 585977" d="M526.136,192.342s.978-3.928,2.812-5.82a7.112,7.112,0,0,1,3.552-2.073s1.8.5,1.779,1.014c-.985.589-2.788,1.251-3.852,3.061a24.734,24.734,0,0,0-1.858,5.61Z" transform="translate(-513.212 -158.707)" fill="#5d588d"/>
            <path id="Trazado_585978" data-name="Trazado 585978" d="M527.238,183.6a21.716,21.716,0,0,0-2.869,6.3,55.981,55.981,0,0,0-1.085,5.61l1.7.213s1.634-6.322,2.559-8.6a27.032,27.032,0,0,1,1.6-3.405Z" transform="translate(-517.854 -160.082)" fill="#5d588d"/>
            <path id="Trazado_585979" data-name="Trazado 585979" d="M538.858,196.478a29.538,29.538,0,0,0,2.959-2.8c.741-.862,1.356-.644,1.111.326a10.668,10.668,0,0,1-1.542,2.635s-1.881-.16-2.2-.16Z" transform="translate(-492.507 -144.566)" fill="#ffc5b3"/>
            <path id="Trazado_585980" data-name="Trazado 585980" d="M536.427,176.181c4.3.452,6.007,3.274,3.8,6.306s-7.475,5.124-11.779,4.672-6-3.274-3.8-6.306S532.123,175.729,536.427,176.181Z" transform="translate(-517.197 -172.263)" fill="#fc6181"/>
            <path id="Trazado_585981" data-name="Trazado 585981" d="M523.989,186.678s-2.559-8.729,5.2-11.364c5.573-1.892,9.764.315,12.026,6.038C542.589,184.839,523.989,186.678,523.989,186.678Z" transform="translate(-517.366 -174.652)" fill="#fc6181"/>
            <path id="Trazado_585982" data-name="Trazado 585982" d="M529.134,184.845c.568-.318,3.2-3.618,2.467-6.619a18.48,18.48,0,0,0-1.08-2.131s.778-.41,3.97.265,3.789,3.539,1.311,5.549A14.14,14.14,0,0,1,529.134,184.845Z" transform="translate(-508.333 -172.503)" fill="#d1406b"/>
          </g>
        </g>
      </g>
      <g id="Grupo_846302" data-name="Grupo 846302" transform="translate(653.976 123.013)">
        <g id="Grupo_846263" data-name="Grupo 846263" transform="translate(0 21.58)">
          <g id="Grupo_846261" data-name="Grupo 846261" transform="translate(0 38.153)">
            <path id="Trazado_585983" data-name="Trazado 585983" d="M574.716,329.233l0-181.631-2.975-1.719V327.519Z" transform="translate(-571.743 -145.526)" fill="#3a3a3a"/>
            <path id="Trazado_585984" data-name="Trazado 585984" d="M572.875,329.453l3.6-2.045V145.746l-3.6,2.075Z" transform="translate(-569.902 -145.746)" fill="#4d4d4d"/>
          </g>
          <g id="Grupo_846262" data-name="Grupo 846262">
            <path id="Trazado_585985" data-name="Trazado 585985" d="M598.806,315.362l0-181.631-2.975-1.719V313.648Z" transform="translate(-532.537 -129.946)" fill="#3a3a3a"/>
            <path id="Trazado_585986" data-name="Trazado 585986" d="M596.964,315.583l3.6-2.045V131.876l-3.6,2.076Z" transform="translate(-530.696 -130.167)" fill="#4d4d4d"/>
            <path id="Trazado_585987" data-name="Trazado 585987" d="M571.743,147.161l2.973,1.719,3.6-2.075-2.979-1.709Z" transform="translate(-571.743 -108.652)" fill="#a3a3a3"/>
            <path id="Trazado_585988" data-name="Trazado 585988" d="M595.833,133.291l2.973,1.719,3.6-2.076-2.979-1.709Z" transform="translate(-532.537 -131.226)" fill="#a3a3a3"/>
          </g>
          <path id="Trazado_585989" data-name="Trazado 585989" d="M637.623,230.364l-2.43,2.43-61.718-49.047,1.13-3.6Z" transform="translate(-568.925 -51.607)" fill="#4d4d4d"/>
          <path id="Trazado_585990" data-name="Trazado 585990" d="M573.663,286.483l.572,3.472,62.091-120.7-1.435-2.107Z" transform="translate(-568.62 -72.763)" fill="#4d4d4d"/>
          <path id="Trazado_585991" data-name="Trazado 585991" d="M637.623,197.78l-2.43,2.43-61.718-49.047,1.13-3.6Z" transform="translate(-568.925 -104.639)" fill="#4d4d4d"/>
          <path id="Trazado_585992" data-name="Trazado 585992" d="M573.663,253.9l.572,3.472,62.091-120.7-1.435-2.107Z" transform="translate(-568.62 -125.794)" fill="#4d4d4d"/>
        </g>
        <g id="Grupo_846264" data-name="Grupo 846264" transform="translate(3.958 194.402)">
          <path id="Trazado_585993" data-name="Trazado 585993" d="M636.424,197,573.25,233.653l113.7,65.717,63.3-36.6Z" transform="translate(-573.25 -197)" fill="#ed8e2f"/>
          <path id="Trazado_585994" data-name="Trazado 585994" d="M616.524,263.3V258.63l63.3-36.6V226.7Z" transform="translate(-502.82 -156.259)" fill="#c96a1c"/>
          <path id="Trazado_585995" data-name="Trazado 585995" d="M573.25,210.95v4.69l113.7,65.7v-4.675Z" transform="translate(-573.25 -174.296)" fill="#d87923"/>
        </g>
        <g id="Grupo_846267" data-name="Grupo 846267" transform="translate(51.826 174.93)">
          <path id="Trazado_585996" data-name="Trazado 585996" d="M600.45,237.919l-.008-29.512,23.58-13.632v29.478Z" transform="translate(-576.862 -181.147)" fill="#dba763"/>
          <path id="Trazado_585997" data-name="Trazado 585997" d="M615.056,237.919l-.008-29.512-23.58-13.632v29.478Z" transform="translate(-591.468 -181.147)" fill="#e8b679"/>
          <path id="Trazado_585998" data-name="Trazado 585998" d="M593.06,219.531v-22.66l-.691-.4v23.56l18.853,10.922v-.9Z" transform="translate(-590.001 -178.387)" fill="#cc8c46"/>
          <path id="Trazado_585999" data-name="Trazado 585999" d="M610.794,229.8l-.006-22.685-18.156-10.5v22.66Z" transform="translate(-589.573 -178.14)" fill="#dba763"/>
          <path id="Trazado_586000" data-name="Trazado 586000" d="M596.932,211.789l5.062,2.933,0-7.621-5.06-2.925Z" transform="translate(-582.575 -165.848)" fill="#fff"/>
          <g id="Grupo_846265" data-name="Grupo 846265" transform="translate(25.944 18.084)">
            <path id="Trazado_586001" data-name="Trazado 586001" d="M619.5,219.531v-22.66l.691-.4v23.56l-18.853,10.922v-.9Z" transform="translate(-601.342 -196.471)" fill="#bf7e3d"/>
            <path id="Trazado_586002" data-name="Trazado 586002" d="M601.342,229.8l.006-22.685,18.156-10.5v22.66Z" transform="translate(-601.341 -196.224)" fill="#cc8c46"/>
          </g>
          <path id="Trazado_586003" data-name="Trazado 586003" d="M591.468,203.218l23.58,13.632,23.58-13.632-23.572-13.629Z" transform="translate(-591.468 -189.589)" fill="#ffe1c0"/>
          <g id="Grupo_846266" data-name="Grupo 846266" transform="translate(4.129 2.206)">
            <path id="Trazado_586004" data-name="Trazado 586004" d="M631.178,202.127l.781-.451-19.453-11.247-19.467,11.247.781.452,18.686-10.8Z" transform="translate(-593.039 -190.428)" fill="#dba763"/>
            <path id="Trazado_586005" data-name="Trazado 586005" d="M630.694,201.568l-18.672-10.8-18.686,10.8,18.679,10.8Z" transform="translate(-592.555 -189.869)" fill="#e8b679"/>
          </g>
          <path id="Trazado_586006" data-name="Trazado 586006" d="M606.386,199.995v7.618l3.891-2.254v-7.613Z" transform="translate(-567.188 -176.313)" fill="#4d4d4d"/>
          <path id="Trazado_586007" data-name="Trazado 586007" d="M604.189,201.24v7.618l3.89-2.254v-7.613Z" transform="translate(-570.764 -174.287)" fill="#4d4d4d"/>
        </g>
        <g id="Grupo_846270" data-name="Grupo 846270" transform="translate(22.634 191.694)">
          <path id="Trazado_586008" data-name="Trazado 586008" d="M589.34,244.3l-.008-29.512,23.58-13.632v29.478Z" transform="translate(-565.752 -187.527)" fill="#dba763"/>
          <path id="Trazado_586009" data-name="Trazado 586009" d="M603.946,244.3l-.008-29.512-23.58-13.632v29.478Z" transform="translate(-580.358 -187.527)" fill="#e8b679"/>
          <path id="Trazado_586010" data-name="Trazado 586010" d="M581.949,225.911v-22.66l-.691-.4v23.56l18.853,10.922v-.9Z" transform="translate(-578.891 -184.768)" fill="#cc8c46"/>
          <path id="Trazado_586011" data-name="Trazado 586011" d="M599.684,236.185l-.006-22.686L581.522,203v22.66Z" transform="translate(-578.463 -184.52)" fill="#dba763"/>
          <path id="Trazado_586012" data-name="Trazado 586012" d="M585.822,218.169l5.062,2.933,0-7.621-5.06-2.925Z" transform="translate(-571.465 -172.228)" fill="#fff"/>
          <g id="Grupo_846268" data-name="Grupo 846268" transform="translate(25.944 18.084)">
            <path id="Trazado_586013" data-name="Trazado 586013" d="M608.394,225.911v-22.66l.691-.4v23.56l-18.853,10.922v-.9Z" transform="translate(-590.231 -202.851)" fill="#bf7e3d"/>
            <path id="Trazado_586014" data-name="Trazado 586014" d="M590.232,236.185l.006-22.686L608.393,203v22.66Z" transform="translate(-590.231 -202.604)" fill="#cc8c46"/>
          </g>
          <path id="Trazado_586015" data-name="Trazado 586015" d="M580.358,209.6l23.58,13.632,23.58-13.632-23.572-13.629Z" transform="translate(-580.358 -195.969)" fill="#ffe1c0"/>
          <g id="Grupo_846269" data-name="Grupo 846269" transform="translate(4.129 2.206)">
            <path id="Trazado_586016" data-name="Trazado 586016" d="M620.068,208.508l.781-.452L601.4,196.809l-19.467,11.247.781.452,18.685-10.8Z" transform="translate(-581.929 -196.809)" fill="#dba763"/>
            <path id="Trazado_586017" data-name="Trazado 586017" d="M619.584,207.948l-18.672-10.8-18.685,10.8,18.678,10.8Z" transform="translate(-581.445 -196.249)" fill="#e8b679"/>
          </g>
          <path id="Trazado_586018" data-name="Trazado 586018" d="M595.275,206.375v7.618l3.891-2.254v-7.613Z" transform="translate(-556.078 -182.694)" fill="#4d4d4d"/>
          <path id="Trazado_586019" data-name="Trazado 586019" d="M593.079,207.62v7.618l3.891-2.254v-7.613Z" transform="translate(-559.654 -180.667)" fill="#4d4d4d"/>
        </g>
        <g id="Grupo_846273" data-name="Grupo 846273" transform="translate(84.839 192.852)">
          <path id="Trazado_586020" data-name="Trazado 586020" d="M613.015,244.74l-.008-29.512,23.58-13.632v29.478Z" transform="translate(-589.426 -187.968)" fill="#dba763"/>
          <path id="Trazado_586021" data-name="Trazado 586021" d="M627.621,244.74l-.008-29.512L604.032,201.6v29.478Z" transform="translate(-604.032 -187.968)" fill="#e8b679"/>
          <path id="Trazado_586022" data-name="Trazado 586022" d="M605.624,226.352v-22.66l-.691-.4v23.56l18.853,10.922v-.9Z" transform="translate(-602.565 -185.208)" fill="#cc8c46"/>
          <path id="Trazado_586023" data-name="Trazado 586023" d="M623.358,236.626l-.006-22.685-18.156-10.5V226.1Z" transform="translate(-602.137 -184.961)" fill="#dba763"/>
          <path id="Trazado_586024" data-name="Trazado 586024" d="M609.5,218.61l5.062,2.933,0-7.621L609.5,211Z" transform="translate(-595.139 -172.669)" fill="#fff"/>
          <g id="Grupo_846271" data-name="Grupo 846271" transform="translate(25.944 18.084)">
            <path id="Trazado_586025" data-name="Trazado 586025" d="M632.068,226.352v-22.66l.691-.4v23.56l-18.853,10.922v-.9Z" transform="translate(-613.906 -203.292)" fill="#bf7e3d"/>
            <path id="Trazado_586026" data-name="Trazado 586026" d="M613.906,236.626l.006-22.685,18.156-10.5V226.1Z" transform="translate(-613.906 -203.045)" fill="#cc8c46"/>
          </g>
          <path id="Trazado_586027" data-name="Trazado 586027" d="M604.032,210.039l23.58,13.632,23.58-13.632L627.621,196.41Z" transform="translate(-604.032 -196.41)" fill="#ffe1c0"/>
          <g id="Grupo_846272" data-name="Grupo 846272" transform="translate(4.129 2.206)">
            <path id="Trazado_586028" data-name="Trazado 586028" d="M643.742,208.948l.781-.451L625.07,197.249,605.6,208.5l.781.452,18.685-10.8Z" transform="translate(-605.603 -197.249)" fill="#dba763"/>
            <path id="Trazado_586029" data-name="Trazado 586029" d="M643.258,208.389l-18.672-10.8-18.685,10.8,18.679,10.8Z" transform="translate(-605.119 -196.69)" fill="#e8b679"/>
          </g>
          <path id="Trazado_586030" data-name="Trazado 586030" d="M618.95,206.816v7.618l3.89-2.254v-7.613Z" transform="translate(-579.753 -183.134)" fill="#4d4d4d"/>
          <path id="Trazado_586031" data-name="Trazado 586031" d="M616.753,208.06v7.618l3.891-2.254v-7.613Z" transform="translate(-583.328 -181.108)" fill="#4d4d4d"/>
        </g>
        <g id="Grupo_846276" data-name="Grupo 846276" transform="translate(55.647 209.616)">
          <path id="Trazado_586032" data-name="Trazado 586032" d="M601.9,251.12l-.008-29.512,23.58-13.632v29.478Z" transform="translate(-578.316 -194.348)" fill="#dba763"/>
          <path id="Trazado_586033" data-name="Trazado 586033" d="M616.511,251.12l-.008-29.512-23.58-13.632v29.478Z" transform="translate(-592.922 -194.348)" fill="#e8b679"/>
          <path id="Trazado_586034" data-name="Trazado 586034" d="M594.514,232.732v-22.66l-.691-.4v23.56l18.853,10.922v-.9Z" transform="translate(-591.455 -191.588)" fill="#cc8c46"/>
          <path id="Trazado_586035" data-name="Trazado 586035" d="M612.248,243.006l-.006-22.686-18.156-10.5v22.66Z" transform="translate(-591.027 -191.341)" fill="#dba763"/>
          <path id="Trazado_586036" data-name="Trazado 586036" d="M598.386,224.99l5.062,2.933,0-7.621-5.06-2.925Z" transform="translate(-584.029 -179.049)" fill="#fff"/>
          <g id="Grupo_846274" data-name="Grupo 846274" transform="translate(25.944 18.084)">
            <path id="Trazado_586037" data-name="Trazado 586037" d="M620.958,232.732v-22.66l.691-.4v23.56L602.8,244.155v-.9Z" transform="translate(-602.796 -209.672)" fill="#bf7e3d"/>
            <path id="Trazado_586038" data-name="Trazado 586038" d="M602.8,243.006l.006-22.686,18.156-10.5v22.66Z" transform="translate(-602.796 -209.425)" fill="#cc8c46"/>
          </g>
          <path id="Trazado_586039" data-name="Trazado 586039" d="M592.922,216.419l23.58,13.632,23.58-13.632L616.511,202.79Z" transform="translate(-592.922 -202.79)" fill="#ffe1c0"/>
          <g id="Grupo_846275" data-name="Grupo 846275" transform="translate(4.129 2.206)">
            <path id="Trazado_586040" data-name="Trazado 586040" d="M632.632,215.329l.781-.452L613.96,203.63l-19.466,11.247.781.452,18.685-10.8Z" transform="translate(-594.493 -203.63)" fill="#dba763"/>
            <path id="Trazado_586041" data-name="Trazado 586041" d="M632.148,214.769l-18.672-10.8-18.685,10.8,18.679,10.8Z" transform="translate(-594.01 -203.07)" fill="#e8b679"/>
          </g>
          <path id="Trazado_586042" data-name="Trazado 586042" d="M607.84,213.2v7.618l3.891-2.254v-7.613Z" transform="translate(-568.643 -189.515)" fill="#4d4d4d"/>
          <path id="Trazado_586043" data-name="Trazado 586043" d="M605.643,214.441v7.618l3.891-2.254v-7.613Z" transform="translate(-572.218 -187.488)" fill="#4d4d4d"/>
        </g>
        <g id="Grupo_846279" data-name="Grupo 846279" transform="translate(119.584 212.856)">
          <path id="Trazado_586044" data-name="Trazado 586044" d="M626.238,252.353l-.008-29.512,23.58-13.632v29.478Z" transform="translate(-602.65 -195.581)" fill="#dba763"/>
          <path id="Trazado_586045" data-name="Trazado 586045" d="M640.844,252.353l-.008-29.512-23.58-13.632v29.478Z" transform="translate(-617.255 -195.581)" fill="#e8b679"/>
          <path id="Trazado_586046" data-name="Trazado 586046" d="M618.847,233.965V211.3l-.691-.4v23.56l18.853,10.922v-.9Z" transform="translate(-615.789 -192.822)" fill="#cc8c46"/>
          <path id="Trazado_586047" data-name="Trazado 586047" d="M636.581,244.239l-.006-22.685-18.156-10.5v22.66Z" transform="translate(-615.361 -192.574)" fill="#dba763"/>
          <path id="Trazado_586048" data-name="Trazado 586048" d="M622.719,226.223l5.062,2.933,0-7.621-5.06-2.925Z" transform="translate(-608.363 -180.282)" fill="#fff"/>
          <g id="Grupo_846277" data-name="Grupo 846277" transform="translate(25.944 18.084)">
            <path id="Trazado_586049" data-name="Trazado 586049" d="M645.292,233.965V211.3l.691-.4v23.56l-18.853,10.922v-.9Z" transform="translate(-627.129 -210.906)" fill="#bf7e3d"/>
            <path id="Trazado_586050" data-name="Trazado 586050" d="M627.13,244.239l.006-22.685,18.156-10.5v22.66Z" transform="translate(-627.129 -210.658)" fill="#cc8c46"/>
          </g>
          <path id="Trazado_586051" data-name="Trazado 586051" d="M617.255,217.652l23.58,13.632,23.58-13.632-23.572-13.629Z" transform="translate(-617.255 -204.023)" fill="#ffe1c0"/>
          <g id="Grupo_846278" data-name="Grupo 846278" transform="translate(4.129 2.206)">
            <path id="Trazado_586052" data-name="Trazado 586052" d="M656.966,216.562l.781-.452-19.453-11.247L618.827,216.11l.781.452,18.685-10.8Z" transform="translate(-618.827 -204.863)" fill="#dba763"/>
            <path id="Trazado_586053" data-name="Trazado 586053" d="M656.482,216l-18.672-10.8L619.124,216,637.8,226.8Z" transform="translate(-618.343 -204.303)" fill="#e8b679"/>
          </g>
          <path id="Trazado_586054" data-name="Trazado 586054" d="M632.173,214.429v7.618l3.891-2.254V212.18Z" transform="translate(-592.977 -190.748)" fill="#4d4d4d"/>
          <path id="Trazado_586055" data-name="Trazado 586055" d="M629.977,215.674v7.618l3.891-2.254v-7.613Z" transform="translate(-596.552 -188.722)" fill="#4d4d4d"/>
        </g>
        <g id="Grupo_846282" data-name="Grupo 846282" transform="translate(90.392 229.62)">
          <path id="Trazado_586056" data-name="Trazado 586056" d="M615.128,258.734l-.008-29.512L638.7,215.59v29.478Z" transform="translate(-591.54 -201.961)" fill="#dba763"/>
          <path id="Trazado_586057" data-name="Trazado 586057" d="M629.734,258.734l-.008-29.512-23.58-13.632v29.478Z" transform="translate(-606.145 -201.961)" fill="#e8b679"/>
          <path id="Trazado_586058" data-name="Trazado 586058" d="M607.738,240.345v-22.66l-.691-.4v23.56L625.9,251.768v-.9Z" transform="translate(-604.679 -199.202)" fill="#cc8c46"/>
          <path id="Trazado_586059" data-name="Trazado 586059" d="M625.471,250.619l-.006-22.685-18.156-10.5V240.1Z" transform="translate(-604.251 -198.954)" fill="#dba763"/>
          <path id="Trazado_586060" data-name="Trazado 586060" d="M611.609,232.6l5.062,2.932,0-7.621-5.06-2.925Z" transform="translate(-597.253 -186.663)" fill="#fff"/>
          <g id="Grupo_846280" data-name="Grupo 846280" transform="translate(25.944 18.084)">
            <path id="Trazado_586061" data-name="Trazado 586061" d="M634.181,240.345v-22.66l.691-.4v23.56l-18.853,10.922v-.9Z" transform="translate(-616.019 -217.286)" fill="#bf7e3d"/>
            <path id="Trazado_586062" data-name="Trazado 586062" d="M616.019,250.619l.006-22.685,18.155-10.5V240.1Z" transform="translate(-616.019 -217.038)" fill="#cc8c46"/>
          </g>
          <path id="Trazado_586063" data-name="Trazado 586063" d="M606.145,224.032l23.58,13.632,23.58-13.632L629.734,210.4Z" transform="translate(-606.145 -210.403)" fill="#ffe1c0"/>
          <g id="Grupo_846281" data-name="Grupo 846281" transform="translate(4.129 2.206)">
            <path id="Trazado_586064" data-name="Trazado 586064" d="M645.855,222.942l.781-.452-19.453-11.247L607.717,222.49l.781.452,18.686-10.8Z" transform="translate(-607.717 -211.243)" fill="#dba763"/>
            <path id="Trazado_586065" data-name="Trazado 586065" d="M645.371,222.383l-18.672-10.8-18.686,10.8,18.679,10.8Z" transform="translate(-607.233 -210.683)" fill="#e8b679"/>
          </g>
          <path id="Trazado_586066" data-name="Trazado 586066" d="M621.063,220.809v7.618l3.89-2.254V218.56Z" transform="translate(-581.866 -197.128)" fill="#4d4d4d"/>
          <path id="Trazado_586067" data-name="Trazado 586067" d="M618.867,222.054v7.618l3.891-2.254V219.8Z" transform="translate(-585.442 -195.102)" fill="#4d4d4d"/>
        </g>
        <g id="Grupo_846283" data-name="Grupo 846283" transform="translate(3.958 112.649)">
          <path id="Trazado_586068" data-name="Trazado 586068" d="M636.424,165.886,573.25,202.539l113.7,65.717,63.3-36.6Z" transform="translate(-573.25 -165.886)" fill="#ed8e2f"/>
          <path id="Trazado_586069" data-name="Trazado 586069" d="M616.524,232.19v-4.675l63.3-36.6v4.665Z" transform="translate(-502.82 -125.144)" fill="#c96a1c"/>
          <path id="Trazado_586070" data-name="Trazado 586070" d="M573.25,179.836v4.69l113.7,65.7v-4.675Z" transform="translate(-573.25 -143.182)" fill="#d87923"/>
        </g>
        <g id="Grupo_846285" data-name="Grupo 846285" transform="translate(21.27 101.149)">
          <path id="Trazado_586071" data-name="Trazado 586071" d="M600.493,221.188l-.014-25.974,37.682-21.783v25.92Z" transform="translate(-546.245 -142.105)" fill="#dba763"/>
          <path id="Trazado_586072" data-name="Trazado 586072" d="M634.086,227.105l-.014-25.974L579.838,169.8v25.921Z" transform="translate(-579.838 -148.022)" fill="#e8b679"/>
          <path id="Trazado_586073" data-name="Trazado 586073" d="M579.838,183.281l54.235,31.335,37.682-21.784L617.5,161.509Z" transform="translate(-579.838 -161.509)" fill="#ffe1c0"/>
          <g id="Grupo_846284" data-name="Grupo 846284" transform="translate(1.566 8.068)">
            <path id="Trazado_586074" data-name="Trazado 586074" d="M614.694,190.26l-8.4,4.878V181.375l8.4-4.882Z" transform="translate(-538.352 -145.19)" fill="#4d4d4d"/>
            <path id="Trazado_586075" data-name="Trazado 586075" d="M648.278,195.883l-54.2-31.3-8.423,4.869,54.22,31.333Z" transform="translate(-571.937 -164.579)" fill="#6d6d6d"/>
            <path id="Trazado_586076" data-name="Trazado 586076" d="M601.554,196.016v-2.424l12.65-7.336v2.459Z" transform="translate(-546.062 -129.302)" fill="#4d4d4d"/>
            <path id="Trazado_586077" data-name="Trazado 586077" d="M601.554,194.366v-2.424l12.65-7.336v2.459Z" transform="translate(-546.062 -131.987)" fill="#4d4d4d"/>
            <path id="Trazado_586078" data-name="Trazado 586078" d="M586.484,179.015v8.766l-6.05-3.5V175.52Z" transform="translate(-580.434 -146.773)" fill="#4d4d4d"/>
            <path id="Trazado_586079" data-name="Trazado 586079" d="M589.626,180.837V189.6l-6.05-3.5v-8.765Z" transform="translate(-575.32 -143.808)" fill="#4d4d4d"/>
            <path id="Trazado_586080" data-name="Trazado 586080" d="M592.809,182.665v8.766l-6.05-3.5V179.17Z" transform="translate(-570.139 -140.832)" fill="#4d4d4d"/>
            <path id="Trazado_586081" data-name="Trazado 586081" d="M607.558,186.591v12.6L595.124,192V179.391Z" transform="translate(-556.526 -140.473)" fill="#fff"/>
            <path id="Trazado_586082" data-name="Trazado 586082" d="M605.336,187.875v-2.051l-9.783-5.641V182.2Z" transform="translate(-555.827 -139.182)" fill="#4d4d4d"/>
          </g>
        </g>
        <g id="Grupo_846287" data-name="Grupo 846287" transform="translate(35.93 94.558)">
          <path id="Trazado_586083" data-name="Trazado 586083" d="M598.754,195.959l-.008-15.205,24.331-14.066v15.171Z" transform="translate(-563.726 -146.489)" fill="#dba763"/>
          <path id="Trazado_586084" data-name="Trazado 586084" d="M620.445,199.78l-.008-15.205L585.418,164.34v15.171Z" transform="translate(-585.418 -150.309)" fill="#e8b679"/>
          <path id="Trazado_586085" data-name="Trazado 586085" d="M585.418,173.059l35.019,20.233,24.331-14.066L609.738,159Z" transform="translate(-585.418 -159)" fill="#ffe1c0"/>
          <g id="Grupo_846286" data-name="Grupo 846286" transform="translate(1.176 17.36)">
            <path id="Trazado_586086" data-name="Trazado 586086" d="M599.439,180.675V179.11l8.168-4.737v1.588Z" transform="translate(-563.773 -151.342)" fill="#4d4d4d"/>
            <path id="Trazado_586087" data-name="Trazado 586087" d="M599.439,179.61v-1.565l8.168-4.737V174.9Z" transform="translate(-563.773 -153.076)" fill="#4d4d4d"/>
            <path id="Trazado_586088" data-name="Trazado 586088" d="M590.738,168.422v7.061l-4.873-2.816v-7.06Z" transform="translate(-585.865 -165.607)" fill="#4d4d4d"/>
            <path id="Trazado_586089" data-name="Trazado 586089" d="M593.269,169.89v7.06l-4.873-2.816v-7.06Z" transform="translate(-581.746 -163.219)" fill="#4d4d4d"/>
          </g>
          <path id="Trazado_586090" data-name="Trazado 586090" d="M605.722,177.113v8.427l-12.434-7.185v-8.442Z" transform="translate(-572.608 -141.239)" fill="#fff"/>
          <path id="Trazado_586091" data-name="Trazado 586091" d="M603.5,178.4v-2.051l-9.783-5.641v2.017Z" transform="translate(-571.909 -139.948)" fill="#4d4d4d"/>
          <path id="Trazado_586092" data-name="Trazado 586092" d="M610.871,176.039l-8.4,4.878v-8l8.4-4.882Z" transform="translate(-557.669 -144.288)" fill="#4d4d4d"/>
          <path id="Trazado_586093" data-name="Trazado 586093" d="M632.564,180.57l-34.976-20.229-8.45,4.885,35.023,20.243Z" transform="translate(-579.363 -156.818)" fill="#6d6d6d"/>
        </g>
        <g id="Grupo_846289" data-name="Grupo 846289" transform="translate(116.817 153.686)">
          <path id="Trazado_586094" data-name="Trazado 586094" d="M623.593,207.159l-.007-11.724,16.752-9.656v11.731Z" transform="translate(-604.186 -174.544)" fill="#dba763"/>
          <path id="Trazado_586095" data-name="Trazado 586095" d="M635.609,208.132l-.007-11.724-19.4-11.226v11.724Z" transform="translate(-616.203 -175.517)" fill="#e8b679"/>
          <path id="Trazado_586096" data-name="Trazado 586096" d="M616.2,191.169,635.6,202.4l16.752-9.656L632.918,181.5Z" transform="translate(-616.203 -181.504)" fill="#ffe1c0"/>
          <g id="Grupo_846288" data-name="Grupo 846288" transform="translate(1.849 13.265)">
            <path id="Trazado_586097" data-name="Trazado 586097" d="M624.122,196.115v-1.209l6.309-3.659v1.227Z" transform="translate(-605.162 -178.909)" fill="#4d4d4d"/>
            <path id="Trazado_586098" data-name="Trazado 586098" d="M624.122,195.292v-1.209l6.309-3.659v1.226Z" transform="translate(-605.162 -180.248)" fill="#4d4d4d"/>
            <path id="Trazado_586099" data-name="Trazado 586099" d="M620.67,188.726v5.453L616.906,192v-5.453Z" transform="translate(-616.906 -186.552)" fill="#4d4d4d"/>
          </g>
          <path id="Trazado_586100" data-name="Trazado 586100" d="M624.548,190.718v6.453l-7.822-4.52v-6.435Z" transform="translate(-615.351 -173.834)" fill="#fff"/>
          <path id="Trazado_586101" data-name="Trazado 586101" d="M622.824,191.33v-1.209l-5.767-3.325v1.189Z" transform="translate(-614.811 -172.89)" fill="#4d4d4d"/>
          <path id="Trazado_586102" data-name="Trazado 586102" d="M630.774,186.838l-4.313,2.506v6.175l4.313-2.5Z" transform="translate(-599.507 -172.822)" fill="#4d4d4d"/>
          <path id="Trazado_586103" data-name="Trazado 586103" d="M642.8,193.777l-19.392-11.2-4.334,2.491,19.413,11.23Z" transform="translate(-611.532 -179.76)" fill="#6d6d6d"/>
        </g>
        <g id="Grupo_846291" data-name="Grupo 846291" transform="translate(91.578 168.191)">
          <path id="Trazado_586104" data-name="Trazado 586104" d="M613.987,212.68l-.007-11.724,16.752-9.656v11.731Z" transform="translate(-594.58 -180.065)" fill="#dba763"/>
          <path id="Trazado_586105" data-name="Trazado 586105" d="M626,213.653,626,201.929,606.6,190.7v11.724Z" transform="translate(-606.597 -181.037)" fill="#e8b679"/>
          <path id="Trazado_586106" data-name="Trazado 586106" d="M606.6,196.69,626,207.916l16.752-9.656-19.436-11.236Z" transform="translate(-606.597 -187.024)" fill="#ffe1c0"/>
          <g id="Grupo_846290" data-name="Grupo 846290" transform="translate(1.849 13.264)">
            <path id="Trazado_586107" data-name="Trazado 586107" d="M614.516,201.636v-1.209l6.309-3.659v1.226Z" transform="translate(-595.557 -184.43)" fill="#4d4d4d"/>
            <path id="Trazado_586108" data-name="Trazado 586108" d="M614.516,200.813V199.6l6.309-3.659v1.227Z" transform="translate(-595.557 -185.769)" fill="#4d4d4d"/>
            <path id="Trazado_586109" data-name="Trazado 586109" d="M611.064,194.247V199.7l-3.764-2.175v-5.453Z" transform="translate(-607.3 -192.072)" fill="#4d4d4d"/>
          </g>
          <path id="Trazado_586110" data-name="Trazado 586110" d="M614.942,196.238v6.453l-7.822-4.52v-6.435Z" transform="translate(-605.745 -179.355)" fill="#fff"/>
          <path id="Trazado_586111" data-name="Trazado 586111" d="M613.219,196.851v-1.209l-5.767-3.325v1.189Z" transform="translate(-605.205 -178.411)" fill="#4d4d4d"/>
          <path id="Trazado_586112" data-name="Trazado 586112" d="M621.168,192.359l-4.313,2.506v6.175l4.313-2.5Z" transform="translate(-589.901 -178.342)" fill="#4d4d4d"/>
          <path id="Trazado_586113" data-name="Trazado 586113" d="M633.192,199.3,613.8,188.1l-4.333,2.491,19.413,11.23Z" transform="translate(-601.926 -185.281)" fill="#6d6d6d"/>
        </g>
        <g id="Grupo_846292" data-name="Grupo 846292" transform="translate(3.958 30.349)">
          <path id="Trazado_586114" data-name="Trazado 586114" d="M636.424,134.563,573.25,171.217l113.7,65.717,63.3-36.6Z" transform="translate(-573.25 -134.563)" fill="#ed8e2f"/>
          <path id="Trazado_586115" data-name="Trazado 586115" d="M616.524,200.868v-4.675l63.3-36.6v4.665Z" transform="translate(-502.82 -93.822)" fill="#c96a1c"/>
          <path id="Trazado_586116" data-name="Trazado 586116" d="M573.25,148.513v4.69l113.7,65.7v-4.675Z" transform="translate(-573.25 -111.859)" fill="#d87923"/>
        </g>
        <g id="Grupo_846294" data-name="Grupo 846294" transform="translate(27.923)">
          <path id="Trazado_586117" data-name="Trazado 586117" d="M596.725,200.245l-.013-47.16L634.393,131.3v47.106Z" transform="translate(-559.03 -109.523)" fill="#dba763"/>
          <path id="Trazado_586118" data-name="Trazado 586118" d="M620.065,200.245l-.013-47.16L582.371,131.3v47.106Z" transform="translate(-582.371 -109.523)" fill="#e8b679"/>
          <path id="Trazado_586119" data-name="Trazado 586119" d="M582.371,144.792l37.681,21.784,37.682-21.784-37.668-21.779Z" transform="translate(-582.371 -123.013)" fill="#ffe1c0"/>
          <g id="Grupo_846293" data-name="Grupo 846293" transform="translate(2.24 8.072)">
            <path id="Trazado_586120" data-name="Trazado 586120" d="M610.926,148.132l-8.4,4.878V139.247l8.4-4.882Z" transform="translate(-551.812 -112.61)" fill="#4d4d4d"/>
            <path id="Trazado_586121" data-name="Trazado 586121" d="M634.245,147.84l-37.629-21.755-8.421,4.866,37.646,21.788Z" transform="translate(-575.13 -126.085)" fill="#6d6d6d"/>
            <path id="Trazado_586122" data-name="Trazado 586122" d="M598.612,161.018v-2.424l12.65-7.337v2.46Z" transform="translate(-558.178 -85.116)" fill="#4d4d4d"/>
            <path id="Trazado_586123" data-name="Trazado 586123" d="M598.612,159.368v-2.424l12.65-7.337v2.459Z" transform="translate(-558.178 -87.801)" fill="#4d4d4d"/>
            <path id="Trazado_586124" data-name="Trazado 586124" d="M607.748,148.773v8.411l6.05-3.5v-8.414Z" transform="translate(-543.307 -94.865)" fill="#4d4d4d"/>
            <path id="Trazado_586125" data-name="Trazado 586125" d="M589.273,148.432V157.2l-6.05-3.5v-8.765Z" transform="translate(-583.223 -95.403)" fill="#4d4d4d"/>
            <path id="Trazado_586126" data-name="Trazado 586126" d="M592.415,150.254v8.766l-6.05-3.5v-8.765Z" transform="translate(-578.109 -92.438)" fill="#4d4d4d"/>
            <path id="Trazado_586127" data-name="Trazado 586127" d="M595.657,140.976v12.6l-12.434-7.185V133.776Z" transform="translate(-583.223 -113.568)" fill="#fff"/>
            <path id="Trazado_586128" data-name="Trazado 586128" d="M593.435,142.26V140.21l-9.783-5.641v2.017Z" transform="translate(-582.524 -112.277)" fill="#4d4d4d"/>
          </g>
        </g>
        <g id="Grupo_846296" data-name="Grupo 846296" transform="translate(79.57 51.174)">
          <path id="Trazado_586129" data-name="Trazado 586129" d="M616.381,198.536l-.013-25.974,37.682-21.784V176.7Z" transform="translate(-578.686 -128.998)" fill="#dba763"/>
          <path id="Trazado_586130" data-name="Trazado 586130" d="M639.721,198.536l-.013-25.974-37.681-21.784V176.7Z" transform="translate(-602.027 -128.998)" fill="#e8b679"/>
          <path id="Trazado_586131" data-name="Trazado 586131" d="M602.027,164.268l37.681,21.783,37.682-21.783-37.668-21.779Z" transform="translate(-602.027 -142.489)" fill="#ffe1c0"/>
          <g id="Grupo_846295" data-name="Grupo 846295" transform="translate(1.543 8.072)">
            <path id="Trazado_586132" data-name="Trazado 586132" d="M630.582,167.608l-8.4,4.878V158.723l8.4-4.882Z" transform="translate(-570.771 -132.086)" fill="#4d4d4d"/>
            <path id="Trazado_586133" data-name="Trazado 586133" d="M653.9,167.316l-37.629-21.755-8.421,4.866L645.5,172.215Z" transform="translate(-594.089 -145.561)" fill="#6d6d6d"/>
            <path id="Trazado_586134" data-name="Trazado 586134" d="M618.267,172.432v-2.424l12.65-7.337v2.459Z" transform="translate(-577.137 -117.714)" fill="#4d4d4d"/>
            <path id="Trazado_586135" data-name="Trazado 586135" d="M618.267,170.782v-2.424l12.65-7.337v2.46Z" transform="translate(-577.137 -120.399)" fill="#4d4d4d"/>
            <path id="Trazado_586136" data-name="Trazado 586136" d="M627.4,160.187V168.6l6.05-3.5v-8.414Z" transform="translate(-562.266 -127.463)" fill="#4d4d4d"/>
            <path id="Trazado_586137" data-name="Trazado 586137" d="M608.664,160.382v8.766l-6.05-3.5v-8.765Z" transform="translate(-602.614 -127.126)" fill="#4d4d4d"/>
            <path id="Trazado_586138" data-name="Trazado 586138" d="M611.806,162.2v8.766l-6.05-3.5V158.71Z" transform="translate(-597.5 -124.161)" fill="#4d4d4d"/>
            <path id="Trazado_586139" data-name="Trazado 586139" d="M623.447,163.939v12.6l-12.434-7.185V156.738Z" transform="translate(-588.944 -127.369)" fill="#fff"/>
            <path id="Trazado_586140" data-name="Trazado 586140" d="M621.224,165.223v-2.051l-9.782-5.641v2.017Z" transform="translate(-588.245 -126.078)" fill="#4d4d4d"/>
          </g>
        </g>
        <g id="Grupo_846298" data-name="Grupo 846298" transform="translate(89.244 41.823)">
          <path id="Trazado_586141" data-name="Trazado 586141" d="M616.529,174.423l-.008-15.179,24.331-14.066v15.188Z" transform="translate(-588.111 -128.761)" fill="#dba763"/>
          <path id="Trazado_586142" data-name="Trazado 586142" d="M634.127,175.882l-.008-15.179-28.41-16.422v15.179Z" transform="translate(-605.709 -130.221)" fill="#e8b679"/>
          <path id="Trazado_586143" data-name="Trazado 586143" d="M605.709,152.991l28.41,16.422,24.331-14.066L630.056,138.93Z" transform="translate(-605.709 -138.93)" fill="#ffe1c0"/>
          <g id="Grupo_846297" data-name="Grupo 846297" transform="translate(1.216 17.408)">
            <path id="Trazado_586144" data-name="Trazado 586144" d="M617.214,159.155V157.59l8.168-4.737v1.588Z" transform="translate(-588.198 -133.678)" fill="#4d4d4d"/>
            <path id="Trazado_586145" data-name="Trazado 586145" d="M617.214,158.09v-1.565l8.168-4.737v1.588Z" transform="translate(-588.198 -135.412)" fill="#4d4d4d"/>
            <path id="Trazado_586146" data-name="Trazado 586146" d="M611.044,148.37v7.06l-4.873-2.816v-7.059Z" transform="translate(-606.171 -145.555)" fill="#4d4d4d"/>
          </g>
          <path id="Trazado_586147" data-name="Trazado 586147" d="M623.5,155.594v8.427l-12.434-7.185v-8.442Z" transform="translate(-596.993 -123.529)" fill="#fff"/>
          <path id="Trazado_586148" data-name="Trazado 586148" d="M621.276,156.878v-2.051l-9.783-5.641V151.2Z" transform="translate(-596.294 -122.237)" fill="#4d4d4d"/>
          <path id="Trazado_586149" data-name="Trazado 586149" d="M628.646,154.519l-8.4,4.878V151.4l8.4-4.882Z" transform="translate(-582.054 -126.577)" fill="#4d4d4d"/>
          <path id="Trazado_586150" data-name="Trazado 586150" d="M646.234,156.682l-28.371-16.405-8.427,4.866,28.394,16.438Z" transform="translate(-599.642 -136.739)" fill="#6d6d6d"/>
        </g>
        <g id="Grupo_846301" data-name="Grupo 846301" transform="translate(114.378 87.727)">
          <g id="Grupo_846299" data-name="Grupo 846299" transform="translate(0 38.153)">
            <path id="Trazado_586151" data-name="Trazado 586151" d="M618.247,354.408l0-181.631-2.975-1.719V352.693Z" transform="translate(-615.274 -170.7)" fill="#3a3a3a"/>
            <path id="Trazado_586152" data-name="Trazado 586152" d="M616.405,354.628l3.6-2.045V170.921l-3.6,2.076Z" transform="translate(-613.432 -170.921)" fill="#4d4d4d"/>
          </g>
          <g id="Grupo_846300" data-name="Grupo 846300">
            <path id="Trazado_586153" data-name="Trazado 586153" d="M642.337,340.537l0-181.631-2.975-1.719V338.823Z" transform="translate(-576.068 -155.122)" fill="#3a3a3a"/>
            <path id="Trazado_586154" data-name="Trazado 586154" d="M640.5,340.758l3.6-2.045V157.051l-3.6,2.075Z" transform="translate(-574.226 -155.342)" fill="#4d4d4d"/>
            <path id="Trazado_586155" data-name="Trazado 586155" d="M615.274,172.336l2.973,1.719,3.6-2.076-2.979-1.709Z" transform="translate(-615.274 -133.827)" fill="#a3a3a3"/>
            <path id="Trazado_586156" data-name="Trazado 586156" d="M639.364,158.466l2.973,1.719,3.6-2.075-2.979-1.709Z" transform="translate(-576.068 -156.401)" fill="#a3a3a3"/>
          </g>
          <path id="Trazado_586157" data-name="Trazado 586157" d="M681.154,255.539l-2.43,2.43-61.718-49.047,1.13-3.6Z" transform="translate(-612.455 -76.782)" fill="#4d4d4d"/>
          <path id="Trazado_586158" data-name="Trazado 586158" d="M617.193,311.658l.572,3.472,62.091-120.7-1.435-2.107Z" transform="translate(-612.151 -97.938)" fill="#4d4d4d"/>
          <path id="Trazado_586159" data-name="Trazado 586159" d="M681.154,222.955l-2.43,2.43-61.718-49.047,1.13-3.6Z" transform="translate(-612.455 -129.814)" fill="#4d4d4d"/>
          <path id="Trazado_586160" data-name="Trazado 586160" d="M617.193,279.074l.572,3.471,62.091-120.7-1.435-2.107Z" transform="translate(-612.151 -150.969)" fill="#4d4d4d"/>
        </g>
      </g>
    </g>
  </g>
</svg>
