<svg xmlns="http://www.w3.org/2000/svg" xmlns:xlink="http://www.w3.org/1999/xlink" width="85" height="85" viewBox="0 0 85 85">
  <defs>
    <clipPath id="clip-path">
      <rect id="Rectángulo_280680" data-name="Rectángulo 280680" width="85" height="85" transform="translate(492 1857)" fill="#fff" stroke="#707070" stroke-width="1"/>
    </clipPath>
  </defs>
  <g id="Enmascarar_grupo_700228" data-name="Enmascarar grupo 700228" transform="translate(-492 -1857)" clip-path="url(#clip-path)">
    <g id="Grupo_845279" data-name="Grupo 845279" transform="translate(-1536.16 1520.988)">
      <path id="Trazado_582664" data-name="Trazado 582664" d="M2097.654,385.466l1.065,1.731c-.966.793-.691,1.636-.161,2.55,3.613,6.241,7.092,12.564,10.859,18.711,1.844,3.01.312,5.774-3.236,5.75q-28.244-.193-56.489,0c-3.538.022-4.846-2.82-3.234-5.58,9.528-16.318,18.914-32.72,28.352-49.091,1.84-3.192,4.5-3.185,6.352.015q5.613,9.725,11.208,19.46c.54.941,1.1,1.716,2.354,1.291l1.556,2.729a1.406,1.406,0,0,0-.422,1.933A1.357,1.357,0,0,0,2097.654,385.466Zm-15.273,6.776c.451-.243.4-.674.4-1.08q0-5.807,0-11.613c0-.392.106-.849-.419-1.039-.754-2.414-2.213-3.666-4.308-3.7-2.155-.032-3.675,1.233-4.445,3.7-.586.232-.414.751-.416,1.176q-.017,5.67,0,11.339c0,.44-.114.934.395,1.216a5.069,5.069,0,0,0,1.849,2.926A4.445,4.445,0,0,0,2082.38,392.242Zm-4.34,7.061a4.389,4.389,0,1,0,4.316,4.407A4.384,4.384,0,0,0,2078.041,399.3Z" transform="translate(-7.388 -7.181)" fill="#fdb853"/>
      <path id="Trazado_582665" data-name="Trazado 582665" d="M2087.332,373.119c-1.255.425-1.813-.35-2.353-1.291q-5.585-9.741-11.208-19.46c-1.847-3.2-4.512-3.208-6.352-.015-9.437,16.372-18.824,32.773-28.352,49.091-1.612,2.76-.3,5.6,3.234,5.58q28.244-.178,56.49,0c3.548.024,5.08-2.74,3.236-5.75-3.767-6.147-7.246-12.47-10.859-18.711-.529-.915-.805-1.757.161-2.55a1.535,1.535,0,0,1,2.047.839c3.864,6.718,7.8,13.394,11.567,20.168,2.288,4.119-.693,8.686-5.557,8.691q-26.863.028-53.725.008a32.826,32.826,0,0,0-3.288.015c-5.391.545-8.67-4.857-5.606-9.811,3.165-5.115,6.045-10.406,9.05-15.62q9.7-16.826,19.4-33.65c1.591-2.756,3.941-3.871,6.728-3.238a5.6,5.6,0,0,1,3.736,2.772q5.958,10.3,11.9,20.607A1.652,1.652,0,0,1,2087.332,373.119Z" transform="translate(0 0)" fill="#070604"/>
      <path id="Trazado_582666" data-name="Trazado 582666" d="M2229.466,453.529a1.357,1.357,0,0,1-1.8-.5,1.344,1.344,0,1,1,2.3-1.378C2230.422,452.416,2230.07,453.017,2229.466,453.529Z" transform="translate(-139.2 -75.243)" fill="#100f0c"/>
      <path id="Trazado_582667" data-name="Trazado 582667" d="M2147.128,425.235c.769-2.463,2.29-3.728,4.444-3.7,2.1.031,3.554,1.283,4.308,3.7l.025,13.732a4.445,4.445,0,0,1-6.953,2.925,5.072,5.072,0,0,1-1.85-2.926Q2147.115,432.1,2147.128,425.235Zm5.987,6.984v-5.891c0-1.083-.354-1.95-1.583-1.969s-1.635.816-1.636,1.913c0,3.881,0,7.763,0,11.644,0,1.105.4,1.9,1.587,2,1,.083,1.615-.712,1.632-2.079C2153.133,435.963,2153.116,434.091,2153.115,432.218Z" transform="translate(-80.913 -53.905)" fill="#110906"/>
      <path id="Trazado_582668" data-name="Trazado 582668" d="M2151.63,510.786a4.389,4.389,0,1,1-4.437,4.285A4.386,4.386,0,0,1,2151.63,510.786Zm1.536,4.392a1.523,1.523,0,0,0-1.622-1.612,1.457,1.457,0,0,0-1.55,1.557,1.48,1.48,0,0,0,1.6,1.65A1.529,1.529,0,0,0,2153.166,515.178Z" transform="translate(-80.978 -118.663)" fill="#070402"/>
      <path id="Trazado_582669" data-name="Trazado 582669" d="M2146.034,435.01l-.025,13.73c-.508-.282-.393-.775-.394-1.216q-.009-5.669,0-11.339C2145.619,435.761,2145.448,435.242,2146.034,435.01Z" transform="translate(-79.819 -63.68)" fill="#fec759"/>
      <path id="Trazado_582670" data-name="Trazado 582670" d="M2179.115,448.742q-.012-6.866-.025-13.732c.525.19.418.647.419,1.039q.009,5.806,0,11.613C2179.512,448.067,2179.566,448.5,2179.115,448.742Z" transform="translate(-104.123 -63.68)" fill="#fec759"/>
      <path id="Trazado_582671" data-name="Trazado 582671" d="M2160.485,439.678c0,1.872.018,3.744-.005,5.616-.017,1.368-.629,2.163-1.632,2.079-1.187-.1-1.59-.893-1.588-2,.009-3.881,0-7.763.005-11.644,0-1.1.413-1.931,1.636-1.913s1.584.886,1.584,1.969Z" transform="translate(-88.283 -61.364)" fill="#fc5d5d"/>
      <path id="Trazado_582672" data-name="Trazado 582672" d="M2160.574,522.531a1.529,1.529,0,0,1-1.572,1.594,1.48,1.48,0,0,1-1.6-1.65,1.458,1.458,0,0,1,1.55-1.557A1.523,1.523,0,0,1,2160.574,522.531Z" transform="translate(-88.386 -126.016)" fill="#f75a5a"/>
    </g>
  </g>
</svg>
