<svg xmlns="http://www.w3.org/2000/svg" xmlns:xlink="http://www.w3.org/1999/xlink" width="85" height="85" viewBox="0 0 85 85">
  <defs>
    <clipPath id="clip-path">
      <rect id="Rectángulo_280683" data-name="Rectángulo 280683" width="85" height="85" transform="translate(492 1857)" fill="#fff" stroke="#707070" stroke-width="1"/>
    </clipPath>
  </defs>
  <g id="Enmascarar_grupo_700231" data-name="Enmascarar grupo 700231" transform="translate(-492 -1857)" clip-path="url(#clip-path)">
    <g id="Grupo_845284" data-name="Grupo 845284" transform="translate(-2314.857 1323.148)">
      <path id="Trazado_582706" data-name="Trazado 582706" d="M2844.577,548.116c7.2.214,14.438.873,21.276,3.8a28.973,28.973,0,0,1,12.264,9.205,21.456,21.456,0,0,1,3.714,18.647c-1.725,7.046-4.843,13.461-10.225,18.532-4.339,4.088-9.41,6.5-15.51,6.275a18.284,18.284,0,0,1-16.6-12.8,46.727,46.727,0,0,0-1.959-5.741c-1.919-4.251-5.345-6.866-9.472-8.735-2.039-.924-4.072-1.866-6.067-2.879-6.663-3.385-7.487-11.676-3.092-17.017a23.533,23.533,0,0,1,14.359-8.281A62.975,62.975,0,0,1,2844.577,548.116Zm2.24,44.319a7.156,7.156,0,0,0,2.969,2.811c6.172,3.177,12.517,3.838,18.657.221,8.165-4.81,11.939-12.31,11.983-21.668a18.517,18.517,0,0,0-5.723-13.557,25.3,25.3,0,0,0-10.148-6.7c-9.936-3.749-20.185-4.21-30.572-2.492a22.059,22.059,0,0,0-9.535,3.76c-4.9,3.55-3.959,11.668,1.057,14.2a32.577,32.577,0,0,0,4.72,2.09c8.038,2.566,12.949,7.859,14.511,16.231A11.8,11.8,0,0,0,2846.816,592.435Zm21.961,5.392c-.379-.175-.663.106-.958.236a20.949,20.949,0,0,1-13.8,1.006c-5.907-1.433-9.812-4.82-11.146-10.9-.231-1.051-.561-2.081-.842-3.121a15.507,15.507,0,0,0-9.415-10.8c-2.148-.9-4.316-1.75-6.449-2.683-3.772-1.65-6.3-4.317-6.814-8.57-.079-.659-.1-1.326-.163-2.18a4.223,4.223,0,0,0-.381.551,8.831,8.831,0,0,0,3.313,10.815,54.958,54.958,0,0,0,6.732,3.3,22.3,22.3,0,0,1,8.093,5.878c2.288,2.778,3.343,6.092,4.333,9.452.688,2.334,1.493,4.65,3.313,6.353,7.372,6.895,15.963,7.193,23.816,1.265C2868.6,598.287,2868.872,598.165,2868.777,597.828Zm.322-.231-.091.081.084.082.081-.127Z" transform="translate(0 0)" fill="#090707"/>
      <path id="Trazado_582707" data-name="Trazado 582707" d="M2861.248,598.086a11.791,11.791,0,0,1-2.081-5.1c-1.562-8.371-6.473-13.665-14.511-16.231a32.574,32.574,0,0,1-4.72-2.09c-5.015-2.534-5.958-10.651-1.057-14.2a22.061,22.061,0,0,1,9.535-3.76c10.387-1.718,20.636-1.257,30.572,2.492a25.3,25.3,0,0,1,10.148,6.7,4.974,4.974,0,0,0,.3,1.86c.378,1.427,1.049,2.81.726,4.355a22.244,22.244,0,0,0-7.781-8.109c-4.809-2.931-10.125-4.264-15.63-4.982-6.446-.841-12.888-1.118-19.251.614-2.665.726-5.306,1.56-7.381,3.525a5.124,5.124,0,0,0-1.249,6.342c1.131,2.232,3.147,3.345,5.375,4.164.573.211.988-.117,1.328-.55l2.359.869c-.2,1.091.6,1.384,1.358,1.732,5.5,2.536,9.5,6.439,11.287,12.362.471,1.564.942,3.129,1.348,4.711a9.606,9.606,0,0,0,3.685,5.722,1.735,1.735,0,0,1-1.348.077C2863.261,598.405,2862.317,597.839,2861.248,598.086Z" transform="translate(-14.431 -5.651)" fill="#ede2d2"/>
      <path id="Trazado_582708" data-name="Trazado 582708" d="M2874.346,634.14c.094.337-.178.46-.366.6-7.853,5.928-16.444,5.63-23.815-1.265-1.82-1.7-2.625-4.019-3.313-6.353-.99-3.359-2.045-6.674-4.333-9.452a22.3,22.3,0,0,0-8.093-5.877,54.921,54.921,0,0,1-6.731-3.3,8.831,8.831,0,0,1-3.312-10.815,4.247,4.247,0,0,1,.382-.551c.062.854.083,1.52.162,2.18.509,4.253,3.042,6.92,6.814,8.57,2.133.933,4.3,1.785,6.448,2.683a15.5,15.5,0,0,1,9.415,10.8c.281,1.04.611,2.07.842,3.121,1.333,6.077,5.239,9.464,11.146,10.9a20.95,20.95,0,0,0,13.8-1.006C2873.683,634.246,2873.967,633.965,2874.346,634.14Z" transform="translate(-5.569 -36.312)" fill="#e43740"/>
      <path id="Trazado_582709" data-name="Trazado 582709" d="M2934.43,627.1c1.069-.247,2.013.319,3.014.5a1.736,1.736,0,0,0,1.348-.077,15.136,15.136,0,0,0,8.638,2.162c10.348-.5,16.946-9.737,17.77-18.331a1.247,1.247,0,0,0-.855-1.407q-.075-1.285-.15-2.57c.793-.326.868-.934.724-1.685a25.333,25.333,0,0,0-1.575-4.569c.322-1.545-.347-2.927-.726-4.355a4.98,4.98,0,0,1-.3-1.86,18.516,18.516,0,0,1,5.723,13.557c-.044,9.359-3.818,16.858-11.983,21.668-6.14,3.617-12.484,2.956-18.657-.221A7.153,7.153,0,0,1,2934.43,627.1Z" transform="translate(-87.614 -34.669)" fill="#e0d1bc"/>
      <path id="Trazado_582710" data-name="Trazado 582710" d="M3020.159,739.061l.075.036-.081.127-.085-.082Z" transform="translate(-151.06 -141.464)" fill="#e43740"/>
      <path id="Trazado_582711" data-name="Trazado 582711" d="M2897.639,579.571a25.3,25.3,0,0,1,1.575,4.569c.144.751.069,1.359-.724,1.685-.948-.06-1.146-.781-1.3-1.512a17.775,17.775,0,0,0-2.165-5.2,1.872,1.872,0,0,0-2.3-1.086,27.385,27.385,0,0,0-14.065,3.113,2.186,2.186,0,0,0,.957.981,19.989,19.989,0,0,1,7.024,9.074c.531,1.407,1.076,2.809,1.614,4.213a21.725,21.725,0,0,0,2.181,5.912c.46.746.854.889,1.548.151a20.092,20.092,0,0,0,5.425-11.078c.125-.848.089-1.784,1.234-2a1.247,1.247,0,0,1,.855,1.407c-.824,8.594-7.422,17.835-17.77,18.331a15.135,15.135,0,0,1-8.638-2.162,9.605,9.605,0,0,1-3.685-5.722c-.406-1.581-.877-3.147-1.348-4.711-1.784-5.923-5.79-9.826-11.287-12.362-.754-.348-1.56-.641-1.358-1.732a1.25,1.25,0,0,1,1.6-.354c6.021,2.722,10.585,6.8,12.74,13.261.774,2.322,1.206,4.746,2.182,7a5.274,5.274,0,0,0,2.894,3.3c4.85,2.478,9.557,1.831,14.136-.786.275-.157.709-.338.327-.766-1.46-1.632-1.852-3.75-2.627-5.695-.316-1.028-.6-2.066-.952-3.083-1.261-3.669-2.946-7.062-6.032-9.6a45.5,45.5,0,0,0-9.5-5.943.834.834,0,0,0-1.2.208,4.735,4.735,0,0,1-5.364,1.53,4.821,4.821,0,0,1-3.449-4.264c-.071-.562-.235-.8-.817-.91a70.326,70.326,0,0,0-10.646-1.2c-.93-.027-1.144.3-.89,1.136a4.661,4.661,0,0,0,.833,1.586,7.443,7.443,0,0,0,3.277,2.217c.689.268,1.236.636,1.133,1.5-.341.433-.755.76-1.328.55-2.227-.819-4.244-1.932-5.375-4.164a5.125,5.125,0,0,1,1.249-6.342c2.074-1.965,4.716-2.8,7.381-3.525,6.363-1.732,12.8-1.455,19.251-.614,5.5.718,10.821,2.051,15.63,4.982A22.245,22.245,0,0,1,2897.639,579.571Zm-5.332-3.683a18.381,18.381,0,0,0-4.919-3.559c-6.583-3.353-13.7-4.237-20.948-4.466a33.754,33.754,0,0,0-14.566,2.38,7.545,7.545,0,0,0-2.786,1.76,3.744,3.744,0,0,0,.6.159,71.229,71.229,0,0,1,10.136,1.237c.638.126.906-.143,1.251-.592a5.009,5.009,0,0,1,9.083,2.933,1.185,1.185,0,0,0,.825,1.246,34.322,34.322,0,0,1,4.912,2.6,1.243,1.243,0,0,0,1.523-.007,22.936,22.936,0,0,1,5.7-2.394A37.9,37.9,0,0,1,2892.307,575.888Zm-24.116-.145a3.035,3.035,0,1,0-3.011,3.044A3.059,3.059,0,0,0,2868.191,575.743Z" transform="translate(-21.909 -13.115)" fill="#090404"/>
      <path id="Trazado_582712" data-name="Trazado 582712" d="M2858.67,604.354c.1-.863-.443-1.231-1.133-1.5a7.447,7.447,0,0,1-3.277-2.217,4.661,4.661,0,0,1-.833-1.586c-.254-.839-.04-1.163.89-1.136a70.314,70.314,0,0,1,10.646,1.2c.581.107.746.348.817.91a4.821,4.821,0,0,0,3.449,4.264,4.735,4.735,0,0,0,5.364-1.53.834.834,0,0,1,1.2-.208,45.5,45.5,0,0,1,9.5,5.942c3.086,2.542,4.771,5.935,6.032,9.6.349,1.017.636,2.054.952,3.083a8.894,8.894,0,0,0-1.091.659,16.409,16.409,0,0,1-7.773,3.417,20.634,20.634,0,0,1-5.866-.124c-.976-2.255-1.408-4.68-2.182-7-2.155-6.462-6.719-10.539-12.74-13.261a1.25,1.25,0,0,0-1.6.354Z" transform="translate(-27.529 -36.894)" fill="#f94d50"/>
      <path id="Trazado_582713" data-name="Trazado 582713" d="M3020.173,623.055c-1.145.213-1.109,1.149-1.234,2a20.091,20.091,0,0,1-5.425,11.078c-.694.738-1.088.595-1.548-.151a21.724,21.724,0,0,1-2.18-5.912,19.038,19.038,0,0,0,4.739-12.365,28.174,28.174,0,0,0-.268-5.015,1.872,1.872,0,0,1,2.3,1.086,17.774,17.774,0,0,1,2.166,5.2c.157.731.355,1.451,1.3,1.512Q3020.1,621.771,3020.173,623.055Z" transform="translate(-143.442 -47.775)" fill="#e73841"/>
      <path id="Trazado_582714" data-name="Trazado 582714" d="M2901.864,581.663a37.913,37.913,0,0,0-9.181,1.294,22.938,22.938,0,0,0-5.7,2.394,1.244,1.244,0,0,1-1.523.007,34.285,34.285,0,0,0-4.911-2.6,1.185,1.185,0,0,1-.826-1.246,5.009,5.009,0,0,0-9.083-2.933c-.344.45-.614.718-1.251.592a71.236,71.236,0,0,0-10.137-1.237,3.762,3.762,0,0,1-.6-.159,7.546,7.546,0,0,1,2.787-1.76,33.754,33.754,0,0,1,14.565-2.38c7.247.229,14.365,1.113,20.949,4.466A18.389,18.389,0,0,1,2901.864,581.663Z" transform="translate(-31.466 -18.889)" fill="#f74d4f"/>
      <path id="Trazado_582715" data-name="Trazado 582715" d="M2986.824,612.86a28.218,28.218,0,0,1,.268,5.015,19.039,19.039,0,0,1-4.739,12.365c-.539-1.4-1.082-2.806-1.615-4.213a19.985,19.985,0,0,0-7.024-9.074,2.188,2.188,0,0,1-.957-.981A27.387,27.387,0,0,1,2986.824,612.86Z" transform="translate(-116.01 -47.949)" fill="#f94d50"/>
      <path id="Trazado_582716" data-name="Trazado 582716" d="M2946.81,691.646a20.638,20.638,0,0,0,5.866.124,16.409,16.409,0,0,0,7.773-3.417,8.894,8.894,0,0,1,1.091-.659c.775,1.944,1.167,4.062,2.627,5.695.382.428-.052.609-.327.766-4.579,2.618-9.287,3.264-14.136.786A5.272,5.272,0,0,1,2946.81,691.646Z" transform="translate(-96.786 -103.408)" fill="#e63841"/>
      <path id="Trazado_582717" data-name="Trazado 582717" d="M2915.013,595.328a3.035,3.035,0,1,1-2.992-3.075A3.047,3.047,0,0,1,2915.013,595.328Z" transform="translate(-68.732 -32.699)" fill="#eee3d2"/>
    </g>
  </g>
</svg>
