<svg xmlns="http://www.w3.org/2000/svg" width="107" height="107" viewBox="0 0 107 107">
  <g id="Grupo_845472" data-name="Grupo 845472" transform="translate(-240 -1286.742)">
    <rect id="Rectángulo_38178" data-name="Rectángulo 38178" width="107" height="107" transform="translate(240 1286.742)" fill="none"/>
    <g id="Grupo_845638" data-name="Grupo 845638" transform="translate(-7273.233 1838.637)">
      <path id="Trazado_584230" data-name="Trazado 584230" d="M7583.616-527.038c1.6-.635,2.386.29,3.028,1.542,6.021,11.741,5.837,23.349-.834,34.766-.621,1.064-.681,1.677.306,2.431a18.326,18.326,0,0,1,1.875,1.844c1.031,1.06,1.871,2.3,3.772,1.41.977-.456,2,.281,2.791,1.073,5.289,5.3,10.6,10.582,15.881,15.9,1.754,1.766,1.714,3.392-.064,5.2q-4.068,4.124-8.19,8.193c-1.774,1.744-3.413,1.733-5.2-.042-5.271-5.24-10.506-10.514-15.775-15.754a3.255,3.255,0,0,1-.967-3.8,1.257,1.257,0,0,0-.382-1.653c-1.31-1.253-2.375-3.083-3.922-3.672s-2.99,1.282-4.5,2.012c-23.891,11.519-51.489-7.191-49.6-33.661,1.8-25.329,30.057-40.285,51.847-27.459,1.237.728,2.092,1.516,1.438,3.073-1.045,1.006-2.035.685-3.161.035a30.793,30.793,0,0,0-19.753-3.928c-17.163,2.165-29.214,18.393-26.521,35.777a31.162,31.162,0,0,0,36.33,25.552,31.058,31.058,0,0,0,21.547-45.533C7582.921-524.912,7582.451-525.959,7583.616-527.038Zm8.438,45.648a6.167,6.167,0,0,0-.595.457c-2.443,2.434-4.873,4.882-7.325,7.305-.581.575-.178.9.2,1.286q7.255,7.252,14.5,14.517c.6.6.963.594,1.544,0q3.429-3.512,6.943-6.942c.647-.629.484-.991-.07-1.542q-7.216-7.167-14.394-14.372C7592.62-480.92,7592.352-481.129,7592.055-481.389Zm-8.861-5.132a7.729,7.729,0,0,0-.721.55c-1.223,1.244-3.082,2.335-3.448,3.8-.289,1.154,1.918,2.17,2.9,3.352.075.089.178.156.243.25.687.988,1.289.809,1.991-.038,1-1.2,3.021-2.12,2.98-3.429-.035-1.114-1.908-2.162-2.949-3.257C7583.831-485.676,7583.527-486.11,7583.193-486.522Z" transform="translate(0)" fill="#060707"/>
      <path id="Trazado_584231" data-name="Trazado 584231" d="M7590.194-520.412c-1.166,1.079-.7,2.125-.062,3.294a31.058,31.058,0,0,1-21.548,45.533,31.16,31.16,0,0,1-36.328-25.552c-2.693-17.383,9.358-33.612,26.521-35.777a30.789,30.789,0,0,1,19.751,3.928c1.127.65,2.117.971,3.162-.035l3.473,2.519c-.592.823-.884,1.669-.093,2.533s1.665.639,2.547.161Q7588.9-522.11,7590.194-520.412Zm-54.823,18.175a27.606,27.606,0,0,0,27.5,27.667,27.607,27.607,0,0,0,27.622-27.37,27.6,27.6,0,0,0-27.413-27.752A27.6,27.6,0,0,0,7535.372-502.237Z" transform="translate(-6.578 -6.626)" fill="#8dd8ef"/>
      <path id="Trazado_584232" data-name="Trazado 584232" d="M7684.892-512.2c-.883.478-1.761.7-2.548-.161s-.5-1.709.094-2.533a1.8,1.8,0,0,1,2.47.2A1.881,1.881,0,0,1,7684.892-512.2Z" transform="translate(-103.851 -18.238)" fill="#0c0e0f"/>
      <path id="Trazado_584233" data-name="Trazado 584233" d="M7706.668-366.947c.3.26.565.469.8.708q7.2,7.188,14.394,14.372c.555.551.718.913.07,1.542q-3.521,3.42-6.943,6.942c-.582.6-.946.606-1.544,0q-7.221-7.286-14.5-14.517c-.382-.382-.786-.712-.2-1.286,2.452-2.423,4.881-4.871,7.324-7.305A6.281,6.281,0,0,1,7706.668-366.947Z" transform="translate(-114.614 -114.442)" fill="#949daf"/>
      <path id="Trazado_584234" data-name="Trazado 584234" d="M7688.867-381.551c.333.412.638.846,1,1.225,1.041,1.1,2.914,2.143,2.949,3.257.041,1.309-1.983,2.226-2.98,3.429-.7.848-1.3,1.026-1.991.038-.065-.094-.168-.161-.243-.25-.984-1.182-3.191-2.2-2.9-3.352.365-1.463,2.226-2.554,3.448-3.8A7.724,7.724,0,0,1,7688.867-381.551Z" transform="translate(-105.674 -104.971)" fill="#dddfe5"/>
      <path id="Trazado_584235" data-name="Trazado 584235" d="M7541.815-495.79a27.6,27.6,0,0,1,27.711-27.455,27.6,27.6,0,0,1,27.411,27.752,27.606,27.606,0,0,1-27.621,27.37A27.607,27.607,0,0,1,7541.815-495.79Zm51.6.158a24.072,24.072,0,0,0-23.9-24.1,24.072,24.072,0,0,0-24.183,23.989,24.08,24.08,0,0,0,23.9,24.1A24.078,24.078,0,0,0,7593.42-495.631Z" transform="translate(-13.021 -13.073)" fill="#050606"/>
      <path id="Trazado_584236" data-name="Trazado 584236" d="M7599.913-489.141a24.078,24.078,0,0,1-24.186,23.992,24.079,24.079,0,0,1-23.9-24.1,24.072,24.072,0,0,1,24.183-23.989A24.071,24.071,0,0,1,7599.913-489.141Zm-17.9,7c0-2.985-.012-5.969.005-8.954.007-1.434-.629-2.189-2.1-2.187q-4.914.009-9.831,0a1.87,1.87,0,0,0-2.124,2.162c.016,2.048.024,4.1,0,6.145-.021,1.552.742,2.343,2.247,2.206,1.189-.109,1.313.407,1.291,1.4-.06,2.691,0,5.384-.028,8.076-.015,1.542.7,2.257,2.236,2.236,1.93-.026,3.862,0,5.792-.009,2-.014,2.5-.5,2.512-2.467C7582.027-476.4,7582.016-479.27,7582.016-482.138Zm0-19.961c0-.525,0-1.05,0-1.575-.024-2.57-1.056-3.622-3.594-3.647-1.284-.013-2.57-.038-3.851.008a2.94,2.94,0,0,0-3.082,3.089c-.048,1.4-.041,2.8,0,4.2a3.011,3.011,0,0,0,3.148,3.227c1.339.053,2.684.037,4.026,0,2.2-.053,3.3-1.179,3.354-3.383C7582.031-500.815,7582.017-501.457,7582.017-502.1Z" transform="translate(-19.515 -19.563)" fill="#fcfcfc"/>
      <path id="Trazado_584237" data-name="Trazado 584237" d="M7611.792-445.3c0,2.868.011,5.735,0,8.6-.01,1.963-.514,2.453-2.512,2.467-1.93.014-3.862-.017-5.793.009-1.539.021-2.25-.694-2.235-2.236.027-2.692-.032-5.385.027-8.076.022-.989-.1-1.505-1.291-1.4-1.505.138-2.268-.654-2.248-2.206.028-2.048.019-4.1,0-6.145a1.87,1.87,0,0,1,2.124-2.162q4.916.014,9.832,0c1.472,0,2.108.752,2.1,2.187C7611.78-451.274,7611.792-448.289,7611.792-445.3Zm-3.515.063c0-2.164-.037-4.329.018-6.492.022-.888-.2-1.261-1.162-1.214a39.55,39.55,0,0,1-4.559-.006c-1.137-.077-1.516.373-1.3,1.4.173.835-.738,2.3,1.248,2.15,1.654-.128,2.288.784,2.262,2.373-.042,2.69.079,5.385-.045,8.07-.069,1.515.853,1.255,1.681,1.2.791-.052,1.97.541,1.886-1.163C7608.2-441.026,7608.276-443.136,7608.276-445.241Z" transform="translate(-49.29 -56.396)" fill="#030303"/>
      <path id="Trazado_584238" data-name="Trazado 584238" d="M7618.243-491.215c0,.642.013,1.284,0,1.926-.054,2.2-1.157,3.329-3.354,3.383-1.342.032-2.686.048-4.026,0a3.011,3.011,0,0,1-3.147-3.227c-.038-1.4-.045-2.8,0-4.2a2.939,2.939,0,0,1,3.081-3.089c1.282-.046,2.567-.021,3.851-.008,2.538.025,3.569,1.077,3.594,3.647C7618.247-492.265,7618.243-491.74,7618.243-491.215Zm-5.11-1.67c-1.3-.241-2.054-.038-1.968,1.61.068,1.3.136,2.054,1.753,1.906,1.142-.105,2.043,0,1.845-1.618C7614.626-492.089,7614.976-493.37,7613.132-492.885Z" transform="translate(-55.74 -30.448)" fill="#050404"/>
      <path id="Trazado_584239" data-name="Trazado 584239" d="M7614.683-438.81c0,2.105-.079,4.215.025,6.315.084,1.7-1.095,1.111-1.886,1.163-.828.055-1.75.314-1.681-1.2.125-2.685,0-5.38.046-8.07.025-1.589-.608-2.5-2.263-2.373-1.985.153-1.074-1.316-1.248-2.15-.213-1.023.166-1.473,1.3-1.4a39.535,39.535,0,0,0,4.559.006c.961-.046,1.184.326,1.162,1.214C7614.646-443.14,7614.683-440.975,7614.683-438.81Z" transform="translate(-55.697 -62.827)" fill="#f2818b"/>
      <path id="Trazado_584240" data-name="Trazado 584240" d="M7619.548-486.491c1.843-.485,1.494.8,1.629,1.9.2,1.618-.7,1.513-1.844,1.618-1.618.149-1.685-.6-1.754-1.906C7617.494-486.529,7618.251-486.732,7619.548-486.491Z" transform="translate(-62.155 -36.842)" fill="#ee7e88"/>
    </g>
  </g>
</svg>
