<svg xmlns="http://www.w3.org/2000/svg" width="107" height="107" viewBox="0 0 107 107">
  <g id="Grupo_845640" data-name="Grupo 845640" transform="translate(-240 -1286.742)">
    <rect id="Rectángulo_38178" data-name="Rectángulo 38178" width="107" height="107" transform="translate(240 1286.742)" fill="none"/>
    <g id="Grupo_845639" data-name="Grupo 845639" transform="translate(-7653.245 1813.271)">
      <path id="Trazado_584241" data-name="Trazado 584241" d="M7920.162-463.319q0-1.617,0-3.235c1.454-.269,1.534-1.323,1.53-2.522-.022-8.086.021-16.172-.041-24.257-.011-1.391.261-1.876,1.793-1.871,17.905.061,35.81.035,53.715.057.557,0,1.238-.345,1.69.321-.3.159-.244.292.029.41.04.671.113,1.342.113,2.013q.012,11.706,0,23.412c0,1.209.144,2.238,1.615,2.43q0,1.624-.011,3.249a1.8,1.8,0,0,0-1.589,2.1c.02,1.781-.051,3.563-.083,5.344a.525.525,0,0,0-.222.055l-.281.331-2.7.019a1.932,1.932,0,0,0-2.058-1.467q-10.6.032-21.21,0a1.847,1.847,0,0,0-2.057,1.438,2.2,2.2,0,0,1-1.952-.81,12.79,12.79,0,0,0-16.844-1.264c-.668.488-1.187,1.3-2.156,1.339a3.063,3.063,0,0,0-1.587-.781,7.324,7.324,0,0,0-.017-3.183c2.534-.028,5.066-.075,7.6-.073,1.108,0,2.1-.235,2.071-1.526s-1.051-1.507-2.138-1.469c-.494.017-.989,0-1.483,0Zm28.564-3.306c.77,0,1.206-.548,1.683-1.023q6.548-6.539,13.093-13.083c.175-.174.351-.349.509-.537a1.419,1.419,0,0,0,.009-2.14,1.448,1.448,0,0,0-2.148.112c-.318.29-.619.6-.924.906-3.753,3.751-7.524,7.483-11.239,11.271-.725.738-1.142.809-1.882.024-1.821-1.928-3.743-3.76-5.614-5.64-.739-.743-1.574-1.131-2.408-.29s-.422,1.659.323,2.4c2.409,2.389,4.8,4.8,7.2,7.2A2.012,2.012,0,0,0,7948.727-466.625Z" transform="translate(-13.147 -4.928)" fill="#b2e46d"/>
      <path id="Trazado_584242" data-name="Trazado 584242" d="M7965.769-460.795c.032-1.781.1-3.563.084-5.344a1.8,1.8,0,0,1,1.589-2.1,2.013,2.013,0,0,1,1.428,2.294c-.023,1.6.037,3.209.063,4.814v5.6c.91-.212.915-.8,1.14-1.195a9.158,9.158,0,0,1,8.415-5.085,9.135,9.135,0,0,1,8.366,5.158c.192.354.2.865.7,1.01a8.5,8.5,0,0,0,2.955.042c.607.156.738-.173.731-.688-.011-.919,0-1.838,0-2.758,0-2.613,0-2.612-2.591-3.087-.361-.066-.72-.146-1.081-.219a7.063,7.063,0,0,1-2.205-8.709,10.33,10.33,0,0,1,2.886-.294c.855-.091,2.275.513,2.439-.341.194-1.011-.986-1.852-1.965-2.388a7.821,7.821,0,0,0-1.546-.479,1.626,1.626,0,0,0-.513-.19q-8.432-.026-16.864-.027c-.419,0-.915-.06-.9.606a3.216,3.216,0,0,1-.782,2.515l.013-.028a.243.243,0,0,0-.26.14l-.417.055c-1.471-.193-1.616-1.221-1.614-2.431q.028-11.706,0-23.412c0-.671-.073-1.342-.113-2.013l-.029-.41c-.452-.666-1.133-.32-1.69-.321-17.9-.022-35.81,0-53.715-.057-1.532-.005-1.8.479-1.793,1.871.062,8.085.02,16.171.042,24.257,0,1.2-.077,2.252-1.531,2.522-1.188-.271-1.481-1.084-1.479-2.208.024-8.592,0-17.185.021-25.777.006-2.486,1.145-3.6,3.666-3.6q28.009-.014,56.02,0c2.47,0,3.548,1.139,3.614,3.67.07,2.659.07,2.658,2.746,2.659,2.782,0,5.565-.048,8.348.015,4.178.094,7.6,3.926,6.2,7.791-1.458,4.04,1,7.148,1.285,10.713.051.641.587.658,1.057.825,3.879,1.382,5.717,3.994,5.727,8.12.01,4.822-.042,9.644.025,14.464.024,1.684-.617,2.43-2.289,2.281-.122-.011-.247,0-.371,0-1.111.013-2.38-.3-3.29.131s-.528,1.871-.842,2.84a9.554,9.554,0,0,1-9.514,6.558,9.08,9.08,0,0,1-8.592-7.389c-.325-1.957-1.1-2.2-2.832-2.185-9.769.09-19.539.067-29.308.013-1.211-.007-1.642.266-1.85,1.529a9.3,9.3,0,0,1-9.4,8.043,9.37,9.37,0,0,1-9.2-8.285c-.157-1.057-.486-1.307-1.471-1.276-2.1.067-4.205.046-6.307.013-2.284-.036-3.373-1.147-3.436-3.435a8.728,8.728,0,0,1,.007-1.482c.161-1.146-.272-1.552-1.429-1.435-.979.1-1.978.009-2.966.022-1.044.014-1.924-.28-1.915-1.482s.889-1.5,1.927-1.5q6.12,0,12.243,0c.431,0,.86-.056,1.29-.087a3.065,3.065,0,0,1,1.586.781c.367,1.6-.271,2.336-1.916,2.293-1.545-.04-3.095.068-4.634-.03-1.432-.091-1.232.827-1.211,1.68.02.813-.3,1.785,1.17,1.723,2.035-.086,4.08-.086,6.115.005a1.844,1.844,0,0,0,1.951-1.243,8.939,8.939,0,0,1,8.231-5.082,8.9,8.9,0,0,1,8.407,5.093,2.017,2.017,0,0,0,2.147,1.224c8.158-.03,16.316-.017,24.474-.017C7966.253-455.506,7966.253-455.506,7965.769-460.795Zm16.345-26.017c-.029-.3-.135-.524-.484-.525a.326.326,0,0,0-.354,0c-3.77-.03-7.539-.036-11.307-.108-.914-.017-1.178.311-1.157,1.177.046,1.916.012,3.833.014,5.75,0,3.04,0,3.04,3.137,2.724,3.753.03,7.506.037,11.258.1.906.016,1.24-.218.971-1.149-.511-1.765-.975-3.544-1.458-5.316A8.427,8.427,0,0,0,7982.113-486.812Zm-55.958,40.844a6.574,6.574,0,0,0,6.4-6.409,6.65,6.65,0,0,0-6.525-6.49,6.565,6.565,0,0,0-6.379,6.426A6.544,6.544,0,0,0,7926.155-445.968Zm58.74-6.438a6.634,6.634,0,0,0-6.357-6.461,6.644,6.644,0,0,0-6.544,6.461,6.572,6.572,0,0,0,6.359,6.437A6.556,6.556,0,0,0,7984.9-452.406Zm-8.921-37.993c1.792,0,3.586.04,5.376-.023.614-.022,1.537.437,1.8-.375.256-.792-.327-1.524-.94-2.084a3.181,3.181,0,0,0-2.189-.864c-3.337-.007-6.676.052-10.012-.03-1.5-.037-1.126.939-1.146,1.73-.022.824-.277,1.752,1.183,1.672C7972.016-490.481,7974-490.4,7975.975-490.4Zm13.875,22.046c-1.051.072-2.105-.367-1.993,1.25.1,1.477.763,2.023,2.173,2.142,1.46.123,1.14-.808,1.216-1.631C7991.358-467.821,7991.2-468.712,7989.85-468.353Z" transform="translate(0 0)" fill="#060705"/>
      <path id="Trazado_584243" data-name="Trazado 584243" d="M7912.444-409.284l13.723.065c.5,0,.99.015,1.484,0,1.086-.038,2.111.182,2.139,1.469s-.965,1.527-2.072,1.526c-2.532,0-5.065.046-7.6.073-3.369-.029-6.735-.073-10.1-.081-1.059,0-2.1-.1-2.134-1.417-.04-1.435,1.043-1.586,2.178-1.57C7910.855-409.211,7911.65-409.261,7912.444-409.284Z" transform="translate(-5.43 -58.963)" fill="#060703"/>
      <path id="Trazado_584244" data-name="Trazado 584244" d="M7981.455-396.463c.484,5.288.484,5.288-4.742,5.288-8.157,0-16.315-.014-24.474.017a2.017,2.017,0,0,1-2.147-1.224,8.9,8.9,0,0,0-8.406-5.093,8.94,8.94,0,0,0-8.232,5.082,1.843,1.843,0,0,1-1.95,1.243c-2.036-.092-4.081-.091-6.116-.005-1.471.062-1.15-.91-1.17-1.723-.021-.853-.221-1.77,1.212-1.68,1.538.1,3.089-.011,4.633.03,1.646.043,2.283-.688,1.916-2.293.969-.034,1.488-.851,2.156-1.339a12.789,12.789,0,0,1,16.844,1.264,2.2,2.2,0,0,0,1.952.81c.205,1.193.949,1.567,2.107,1.563q10.532-.042,21.063,0a1.887,1.887,0,0,0,2.153-1.54l2.7-.019.281-.331A.526.526,0,0,1,7981.455-396.463Z" transform="translate(-15.685 -64.332)" fill="#9cd253"/>
      <path id="Trazado_584245" data-name="Trazado 584245" d="M8100.821-417.91a7.063,7.063,0,0,0,2.206,8.709q-.022.421-.042.843c-.457-.307-.928-.6-1.37-.924a12.519,12.519,0,0,0-10-2.469c-2.863.492-5.039,2.091-7.227,3.766-.025-1.6-.086-3.21-.062-4.814a2.013,2.013,0,0,0-1.428-2.294q0-1.624.01-3.249l.415-.055.227.137.034-.276-.013.028c5.063.039,10.127.067,15.189.127C8099.467-418.372,8100.272-418.66,8100.821-417.91Z" transform="translate(-115.459 -53.147)" fill="#fcc64f"/>
      <path id="Trazado_584246" data-name="Trazado 584246" d="M7981.2-447.327a2.01,2.01,0,0,1-1.4-.8c-2.4-2.4-4.789-4.808-7.2-7.2-.745-.738-1.16-1.553-.323-2.4s1.669-.453,2.408.29c1.871,1.88,3.793,3.713,5.614,5.64.74.784,1.157.714,1.882-.024,3.715-3.788,7.486-7.52,11.239-11.271.306-.305.606-.616.924-.906a1.448,1.448,0,0,1,2.148-.112,1.418,1.418,0,0,1-.009,2.14c-.158.188-.334.363-.509.537q-6.545,6.542-13.092,13.083C7982.411-447.875,7981.974-447.324,7981.2-447.327Z" transform="translate(-45.625 -24.226)" fill="#020301"/>
      <path id="Trazado_584247" data-name="Trazado 584247" d="M8026.9-390.607a1.887,1.887,0,0,1-2.153,1.54q-10.532-.055-21.064,0c-1.157,0-1.9-.37-2.106-1.563a1.848,1.848,0,0,1,2.057-1.438q10.605.027,21.211,0A1.931,1.931,0,0,1,8026.9-390.607Z" transform="translate(-64.333 -69.782)" fill="#060703"/>
      <path id="Trazado_584248" data-name="Trazado 584248" d="M8077.864-494.13l.029.41C8077.62-493.838,8077.563-493.971,8077.864-494.13Z" transform="translate(-112.166 -5.622)" fill="#bff575"/>
      <path id="Trazado_584249" data-name="Trazado 584249" d="M8077.324-389.067l-.281.331Z" transform="translate(-111.776 -71.673)" fill="#bff575"/>
      <path id="Trazado_584250" data-name="Trazado 584250" d="M7960.7-371.126a6.545,6.545,0,0,1-6.506-6.473,6.566,6.566,0,0,1,6.379-6.426,6.649,6.649,0,0,1,6.524,6.49A6.572,6.572,0,0,1,7960.7-371.126Zm-.065-3.35a3.22,3.22,0,0,0,3.094-3.088,3.212,3.212,0,0,0-3.094-3.094,3.218,3.218,0,0,0-3.09,3.092A3.24,3.24,0,0,0,7960.634-374.477Z" transform="translate(-34.544 -74.841)" fill="#585a6a"/>
      <path id="Trazado_584251" data-name="Trazado 584251" d="M8108.063-377.566a6.556,6.556,0,0,1-6.543,6.438,6.573,6.573,0,0,1-6.359-6.437,6.645,6.645,0,0,1,6.544-6.461A6.635,6.635,0,0,1,8108.063-377.566Zm-3.351-.077a3.236,3.236,0,0,0-3.165-3.02,3.239,3.239,0,0,0-3.036,3.164,3.24,3.24,0,0,0,3.173,3.019A3.239,3.239,0,0,0,8104.712-377.642Z" transform="translate(-123.166 -74.84)" fill="#585a6a"/>
      <path id="Trazado_584252" data-name="Trazado 584252" d="M8086.913-396.842c2.188-1.675,4.364-3.274,7.228-3.766a12.52,12.52,0,0,1,10,2.469c.442.327.913.617,1.37.923q.013.175.035.349c-.26,1.839.359,3.679-.008,5.518-.5-.146-.508-.657-.7-1.01a9.134,9.134,0,0,0-8.366-5.158,9.159,9.159,0,0,0-8.415,5.085c-.224.4-.228.983-1.14,1.195Z" transform="translate(-117.981 -64.289)" fill="#dea345"/>
      <path id="Trazado_584253" data-name="Trazado 584253" d="M8105.775-452.134c.483,1.773.946,3.551,1.457,5.316.27.931-.063,1.166-.971,1.149-3.751-.066-7.5-.074-11.258-.1-.013-.133-.026-.266-.04-.4.01-1.166.029-2.332.029-3.5a2.179,2.179,0,0,1,2.493-2.465C8100.249-452.124,8103.012-452.133,8105.775-452.134Z" transform="translate(-123.042 -32.024)" fill="#b1e3fc"/>
      <path id="Trazado_584254" data-name="Trazado 584254" d="M8101.959-422.78c-.547-.75-1.354-.462-2.057-.47-5.063-.06-10.127-.088-15.19-.127a3.217,3.217,0,0,0,.782-2.515q8.18-.013,16.359-.034c.65,0,1.363.2,1.92-.355a7.8,7.8,0,0,1,1.546.479c.979.535,2.159,1.377,1.966,2.388-.164.853-1.585.249-2.439.341A10.337,10.337,0,0,0,8101.959-422.78Z" transform="translate(-116.598 -48.277)" fill="#f9d661"/>
      <path id="Trazado_584255" data-name="Trazado 584255" d="M8101.307-457.606c-2.763,0-5.526.01-8.289,0a2.179,2.179,0,0,0-2.493,2.465c0,1.166-.019,2.332-.029,3.5-2.579-.032-2.58-.032-2.58-2.606a35.872,35.872,0,0,0-.025-3.7c-.182-1.733.361-2.412,2.207-2.3,2.643.154,5.3.052,7.952.03.64-.006,1.4.24,1.8-.566a.326.326,0,0,1,.354,0,.59.59,0,0,0,.485.525A8.481,8.481,0,0,1,8101.307-457.606Z" transform="translate(-118.574 -26.552)" fill="#99d4fc"/>
      <path id="Trazado_584256" data-name="Trazado 584256" d="M8093.783-474.66c-1.978,0-3.959-.081-5.932.026-1.46.079-1.2-.848-1.183-1.672.021-.79-.355-1.767,1.147-1.73,3.335.082,6.674.023,10.011.03a3.183,3.183,0,0,1,2.19.864c.612.56,1.2,1.292.94,2.084-.262.813-1.185.354-1.8.375C8097.37-474.619,8095.576-474.66,8093.783-474.66Z" transform="translate(-117.808 -15.739)" fill="#f9d661"/>
      <path id="Trazado_584257" data-name="Trazado 584257" d="M8099.05-460.884c-.4.806-1.16.561-1.8.566-2.651.023-5.31.124-7.952-.03-1.845-.107-2.389.572-2.206,2.3a36.15,36.15,0,0,1,.024,3.7c0,2.575,0,2.575,2.581,2.606.014.133.026.266.04.4-3.137.316-3.137.316-3.137-2.724,0-1.916.031-3.834-.014-5.75-.021-.866.243-1.195,1.156-1.177C8091.511-460.92,8095.28-460.914,8099.05-460.884Z" transform="translate(-117.775 -26.455)" fill="#90c7e4"/>
      <path id="Trazado_584258" data-name="Trazado 584258" d="M8105.1-426.65c-.558.559-1.269.353-1.921.355q-8.178.035-16.358.034c-.012-.667.483-.606.9-.606q8.433,0,16.865.027A1.629,1.629,0,0,1,8105.1-426.65Z" transform="translate(-117.922 -47.908)" fill="#c6b351"/>
      <path id="Trazado_584259" data-name="Trazado 584259" d="M8137.023-392.206c-.015-.116-.026-.232-.034-.349l.041-.843c.36.073.719.153,1.08.219,2.591.475,2.592.475,2.592,3.087,0,.919-.011,1.838,0,2.757.007.514-.123.844-.73.688A8.442,8.442,0,0,0,8137.023-392.206Z" transform="translate(-149.463 -68.95)" fill="#f9d661"/>
      <path id="Trazado_584260" data-name="Trazado 584260" d="M8139.859-409.707c1.354-.358,1.509.532,1.4,1.76-.076.823.244,1.754-1.216,1.631-1.41-.119-2.068-.665-2.173-2.142C8137.754-410.074,8138.809-409.635,8139.859-409.707Z" transform="translate(-150.009 -58.646)" fill="#f6f8f9"/>
      <path id="Trazado_584261" data-name="Trazado 584261" d="M8136.971-390.189a8.442,8.442,0,0,1,2.948,5.56,8.5,8.5,0,0,1-2.956-.042C8137.332-386.51,8136.712-388.35,8136.971-390.189Z" transform="translate(-149.41 -70.967)" fill="#fcc64f"/>
      <path id="Trazado_584262" data-name="Trazado 584262" d="M8121.592-460.17a.591.591,0,0,1-.485-.525C8121.458-460.694,8121.563-460.467,8121.592-460.17Z" transform="translate(-139.478 -26.642)" fill="#90c7e4"/>
      <path id="Trazado_584263" data-name="Trazado 584263" d="M8084.307-418.538l-.034.276-.226-.137A.242.242,0,0,1,8084.307-418.538Z" transform="translate(-116.179 -53.143)" fill="#f9d661"/>
      <path id="Trazado_584264" data-name="Trazado 584264" d="M7966.306-368.776a3.24,3.24,0,0,1-3.09-3.09,3.22,3.22,0,0,1,3.09-3.092,3.213,3.213,0,0,1,3.095,3.094A3.221,3.221,0,0,1,7966.306-368.776Z" transform="translate(-40.216 -80.542)" fill="#020301"/>
      <path id="Trazado_584265" data-name="Trazado 584265" d="M8110.384-371.949a3.24,3.24,0,0,1-3.028,3.163,3.24,3.24,0,0,1-3.173-3.018,3.239,3.239,0,0,1,3.035-3.164A3.237,3.237,0,0,1,8110.384-371.949Z" transform="translate(-128.838 -80.533)" fill="#020301"/>
    </g>
  </g>
</svg>
