<svg xmlns="http://www.w3.org/2000/svg" width="107" height="107" viewBox="0 0 107 107">
  <g id="Grupo_845474" data-name="Grupo 845474" transform="translate(-240 -1286.742)">
    <rect id="Rectángulo_38178" data-name="Rectángulo 38178" width="107" height="107" transform="translate(240 1286.742)" fill="none"/>
    <g id="Grupo_845641" data-name="Grupo 845641" transform="translate(-7968.681 1885.489)">
      <path id="Trazado_584266" data-name="Trazado 584266" d="M8276.013-502.346a1.976,1.976,0,0,1-2.228,1.38c-14.108-.044-28.216-.025-42.324-.031-2.46,0-3.506-1.023-3.477-3.437a42.909,42.909,0,0,1,3.472-16.44,10.207,10.207,0,0,1,5.978-5.64c4.551-1.776,9.079-3.607,13.65-5.328,1.166-.439,1.69-1.055,1.51-2.28a3.946,3.946,0,0,1,0-1.035,4.251,4.251,0,0,0-1.7-4.128,19.029,19.029,0,0,1-6.006-10.63,1.844,1.844,0,0,0-1.519-1.712,5.968,5.968,0,0,1-4.413-6.714,2,2,0,0,0-.547-1.833,3.755,3.755,0,0,1-.66-4.338,3.421,3.421,0,0,1,3.393-2.224c1.022.034,1.407-.212,1.363-1.327-.3-7.3,2.476-13.1,8.585-17.209.569-.382.611-.9.807-1.431a3.744,3.744,0,0,1,5.483-2.084,4.568,4.568,0,0,0,2.9.671,33.511,33.511,0,0,1,3.625-.014,4.64,4.64,0,0,0,3.023-.8,3.722,3.722,0,0,1,5.518,1.966,2.564,2.564,0,0,0,.963,1.525c6.1,3.873,9.021,9.479,8.874,16.675-.026,1.291.059,1.975,1.707,2.134,2.8.269,4.075,3.851,2.289,6.175a2.856,2.856,0,0,0-.62,2.3,5.97,5.97,0,0,1-4.621,6.573c-1.1.243-1.348.77-1.548,1.666a19.729,19.729,0,0,1-6.895,11.449c-1.05.846-.81,1.814-.8,2.79.037,3.926-.58,2.913,2.957,4.341,3.994,1.614,8,3.213,12.024,4.751a10.7,10.7,0,0,1,6.415,6.341,44.162,44.162,0,0,1,3.189,15.638c.041,2.573-.958,3.6-3.484,3.6-4.146.01-8.294-.012-12.438.013-1.028.006-1.82-.212-2.032-1.364a1.929,1.929,0,0,1,2.083-1.349c.3.046.479-.064.472-.391.026-2.127,0-4.258.095-6.382a4.608,4.608,0,0,0-1.582-4,9.722,9.722,0,0,1-3.428-8.622c.085-1.029-.093-2.085.039-3.1.21-1.634-.5-2.334-2.227-2.409,0,1.826.051,3.648-.012,5.467a5.132,5.132,0,0,1-5.169,5.158c-1.033.038-2.07.009-3.105.009-3.076,0-3.076,0-2.934,3.121.933,1.208,2.248.283,3.342.595,1.474.97,2.133,3.651,1.417,5.875-.568,1.762-2.062,1.641-3.426,1.513-1.4-.131-1.387.616-1.414,1.645-.029,1.114.153,1.647,1.468,1.608,3.271-.1,6.548-.008,9.822-.045A1.913,1.913,0,0,1,8276.013-502.346Zm-24.952-79.592,0,0a15.245,15.245,0,0,0-5.954,12.384c-.059,2.8-.05,2.8,2.784,2.8,3.791,0,3.8,0,3.8-3.848,0-1.05-.1-2.109,1.183-2.55a1.668,1.668,0,0,1,1.415,2c-.067,1.029.036,2.07-.027,3.1-.057.908.128,1.342,1.19,1.334,1.028-.008,1.384-.258,1.374-1.343-.052-5.57-.026-11.141-.022-16.712,0-.912-.066-1.88-1.23-1.88-1.263,0-1.308,1.018-1.3,1.992.014,2.355-.026,4.71.018,7.063.02,1.067-.284,1.793-1.419,1.981a1.985,1.985,0,0,1-1.2-1.082l-.069-5.2C8251.457-582.477,8251.26-582.218,8251.061-581.938Zm15.63,51.235c1.921-1.187,2.937-2.78,2.27-5.186l-3.686,1.263a16.6,16.6,0,0,1-9.914-1.4c-.231,2.6-.217,2.72.355,3.5A7.832,7.832,0,0,0,8266.69-530.7Zm7.253-28.065q-11.473-.045-22.944-.088c-4.882-.013-4.882,0-4.028,4.968.407,6.445,3.154,11.57,8.69,15.006a11.146,11.146,0,0,0,8.921,1.517,9.485,9.485,0,0,0,4.581-1.779c5.768-3.8,8.146-9.439,8.416-16.079C8277.756-559.545,8278.275-558.884,8273.943-558.768Zm-9.329-26.671a13.024,13.024,0,0,0-4.861.031c-.627.416-.3,1.049-.308,1.57-.03,4.377-.017,8.753-.018,13.13,0,3.965,0,3.915,3.895,3.97,1.233.017,1.678-.218,1.655-1.579-.091-5.239-.028-10.481-.052-15.721C8264.923-584.5,8265.218-585.087,8264.614-585.438Zm14.193,60.94c-.116,2.629-.559,5.381,1.786,7.361a8.744,8.744,0,0,1,3.1,7.947c-.14,1.8-.839,4.418.295,5.247,1.389,1.015,3.85.358,5.847.214.8.03,1.608,0,2.4.1,1.2.151,1.553-.271,1.5-1.505a41.418,41.418,0,0,0-3.184-14.547,6.575,6.575,0,0,0-1.942-2.8c-2.9-2.221-6.462-2.894-9.811-4.394Zm-7.665-3.114c-.041-.858.581-2.017-.42-2.473-1.027-.466-1.331.89-2.008,1.362-5.53,3.235-9.163,2.952-14.137-1.109-.256-.209-.422-.547-.854-.362-.524.222-.577.642-.575,1.129.013,1.954-.032,3.909.021,5.861a2.369,2.369,0,0,0,2.6,2.559q6.466.058,12.928,0a2.314,2.314,0,0,0,2.5-2.489C8271.238-524.626,8271.164-526.12,8271.143-527.612Zm-13.47,13.213c.82,0,1.918.716,2.343-.459.786-2.183-.065-3.209-2.333-3.057-.4-.016-.8-.043-1.206-.047-4.06-.039-5.976-1.988-5.987-6.095,0-1.094.041-2.19-.021-3.281-.023-.433.337-1.281-.383-1.223-.667.053-1.723.1-1.783,1.223a16.85,16.85,0,0,0,0,2.589c.425,4.323-.523,8.113-4.052,10.977a2.691,2.691,0,0,0-.906,2.165c-.018,2.3.016,4.606-.029,6.909-.019.835.286,1.083,1.1,1.074,4.43-.05,8.861-.056,13.292-.077,2.413.247,2.351.247,2.366-1.876.015-2.157-1.49-1.028-2.4-1.206-1.034-.017-2.072,0-3.106-.059-1.575-.082-2.246-.86-2.315-2.6-.144-3.611.233-4.544,1.978-4.824a9.879,9.879,0,0,1,1.207-.054C8256.18-514.351,8256.928-514.374,8257.673-514.4Zm-21.766,10.763c1.37-.144,3.543.721,4.526-.323.967-1.027.391-3.194.243-4.828-.313-3.458.564-6.319,3.312-8.587a4.768,4.768,0,0,0,1.639-3.85c-.008-1.5-.055-2.995.019-4.487.055-1.116-.392-1.084-1.2-.75-2.178.9-4.377,1.738-6.558,2.623a7.208,7.208,0,0,0-4.032,4.038,39.654,39.654,0,0,0-3.109,12.667c-.257,3.494-.227,3.5,3.337,3.5Zm26.452-60.543q-9.92,0-19.842,0a9.554,9.554,0,0,0-1.377.034,1.188,1.188,0,0,0-1.1,1.307,1.184,1.184,0,0,0,1.086,1.316,8.285,8.285,0,0,0,1.206.029q19.928,0,39.856,0a8.473,8.473,0,0,0,1.205-.04,1.129,1.129,0,0,0,1.007-1.2,1.179,1.179,0,0,0-1-1.388,7.8,7.8,0,0,0-1.374-.056Q8272.195-564.182,8262.359-564.18Zm10.313-18.681v12.333c0,3.769,0,3.769,3.735,3.769,3.49,0,3.507,0,3.289-3.5A16.084,16.084,0,0,0,8272.673-582.861Zm-2.582,6.5c0-2.876-.009-5.752,0-8.628,0-.915-.264-1.676-1.281-1.678-1.051,0-1.243.813-1.242,1.7,0,5.694.029,11.389-.023,17.082-.012,1.142.563,1.115,1.386,1.145.9.032,1.2-.245,1.177-1.168C8270.054-570.724,8270.091-573.543,8270.091-576.362Zm-10.157,64.654c-1.26,0-2.52.049-3.777-.016-.938-.049-1.312.215-1.3,1.229.012.973.436,1.126,1.255,1.116,2.518-.032,5.035-.044,7.553.005.938.018,1.31-.233,1.3-1.247-.008-.99-.448-1.125-1.258-1.1C8262.453-511.677,8261.191-511.708,8259.934-511.707Zm20.2-44.9c.438.785-.592,2.171.509,2.312,1.129.145,1.9-1.062,2.292-2.211a3.731,3.731,0,0,0,.107-.5c.241-1.33-.109-1.952-1.663-1.913C8279.251-558.864,8280.666-557.317,8280.134-556.6Zm-35.986,2.478a25.978,25.978,0,0,1,.025-3.176c.168-1.314-.293-1.679-1.574-1.6-1.417.091-1.188,1.047-1.075,1.83A3.414,3.414,0,0,0,8244.147-554.126Z" fill="#080808"/>
      <path id="Trazado_584267" data-name="Trazado 584267" d="M8328.075-399.617c-.143-3.121-.143-3.121,2.934-3.121,1.034,0,2.071.029,3.106-.009a5.131,5.131,0,0,0,5.167-5.158c.064-1.818.013-3.641.013-5.467,1.723.076,2.437.776,2.227,2.409-.132,1.019.046,2.075-.036,3.1a9.712,9.712,0,0,0,3.424,8.622,4.6,4.6,0,0,1,1.583,4c-.1,2.124-.068,4.254-.094,6.382l-.474.391a1.926,1.926,0,0,0-2.081,1.349l-2.412,0a1.913,1.913,0,0,0-2.148-1.306c-3.273.037-6.551-.051-9.824.045-1.312.038-1.5-.494-1.465-1.608.026-1.029.015-1.776,1.415-1.645,1.362.128,2.855.249,3.424-1.513.717-2.224.056-4.905-1.417-5.875C8330.479-400.214,8329.161-399.262,8328.075-399.617Z" transform="translate(-65.417 -115.228)" fill="#f3d657"/>
      <path id="Trazado_584268" data-name="Trazado 584268" d="M8300.492-478.538a11.141,11.141,0,0,1-8.919-1.517c-5.537-3.436-8.283-8.562-8.692-15.007.661-.75.378-1.668.313-2.478-.119-1.541.337-2.074,1.987-2.057,8.221.087,16.444.04,24.666.04a38.291,38.291,0,0,1-.33,6.321c-.926,5.242-2.99,9.786-7.4,13.06C8301.525-479.735,8300.59-479.518,8300.492-478.538Z" transform="translate(-35.909 -58.826)" fill="#fdcbbd"/>
      <path id="Trazado_584269" data-name="Trazado 584269" d="M8240.949-384.752h-1.826c-3.564,0-3.595,0-3.339-3.5a39.68,39.68,0,0,1,3.11-12.667,7.206,7.206,0,0,1,4.031-4.038c2.183-.885,4.382-1.727,6.559-2.623.813-.334,1.26-.367,1.2.75-.072,1.492-.024,2.991-.017,4.487a4.787,4.787,0,0,1-1.64,3.85c-2.747,2.268-3.624,5.13-3.312,8.587.146,1.634.725,3.8-.244,4.828C8244.493-384.031,8242.32-384.9,8240.949-384.752Z" transform="translate(-5.041 -118.885)" fill="#bbd6f9"/>
      <path id="Trazado_584270" data-name="Trazado 584270" d="M8286.7-388.41c-4.432.021-8.862.027-13.293.077-.811.009-1.115-.238-1.1-1.074.046-2.3.013-4.606.029-6.908a2.694,2.694,0,0,1,.906-2.165c3.527-2.864,4.477-6.654,4.052-10.977a16.85,16.85,0,0,1,0-2.589c.062-1.119,1.116-1.169,1.783-1.223.72-.058.358.791.383,1.223.063,1.09.02,2.187.021,3.281.011,4.107,1.927,6.055,5.987,6.095.4,0,.8.031,1.205.047q0,1.759-.008,3.517-1.122.037-2.241.075a9.836,9.836,0,0,0-1.205.054c-1.745.279-2.122,1.212-1.979,4.824.07,1.743.741,2.521,2.316,2.6,1.033.054,2.071.041,3.107.058Q8286.68-389.952,8286.7-388.41Z" transform="translate(-28.993 -115.293)" fill="#f4dd74"/>
      <path id="Trazado_584271" data-name="Trazado 584271" d="M8318.726-415.5c.022,1.492.1,2.986.055,4.476a2.312,2.312,0,0,1-2.5,2.489q-6.464.062-12.93,0a2.367,2.367,0,0,1-2.6-2.559c-.054-1.952-.011-3.907-.021-5.861,0-.487.052-.907.574-1.129.435-.185.6.154.856.362,4.973,4.061,8.6,4.344,14.134,1.109C8316.918-415.827,8317.876-415.782,8318.726-415.5Z" transform="translate(-47.583 -112.111)" fill="#bbd6f9"/>
      <path id="Trazado_584272" data-name="Trazado 584272" d="M8285.165-516.256q9.836,0,19.67,0a7.814,7.814,0,0,1,1.375.056,1.18,1.18,0,0,1,1,1.388,1.129,1.129,0,0,1-1.006,1.2,8.464,8.464,0,0,1-1.205.041q-19.929,0-39.858,0a8.274,8.274,0,0,1-1.2-.029,1.183,1.183,0,0,1-1.086-1.316,1.186,1.186,0,0,1,1.1-1.307,9.579,9.579,0,0,1,1.378-.034Q8275.243-516.257,8285.165-516.256Z" transform="translate(-22.804 -47.924)" fill="#9cc5f8"/>
      <path id="Trazado_584273" data-name="Trazado 584273" d="M8385.754-380.744c-2,.144-4.46.8-5.848-.214-1.135-.829-.435-3.452-.3-5.247a8.739,8.739,0,0,0-3.1-7.947c-2.343-1.98-1.9-4.732-1.784-7.361,3.111,1.012,6.094,2.337,7.514,5.505A41.744,41.744,0,0,1,8385.754-380.744Z" transform="translate(-95.914 -122.985)" fill="#bbd6f9"/>
      <path id="Trazado_584274" data-name="Trazado 584274" d="M8323.965-577.705c.6.351.31.935.312,1.4.023,5.24-.038,10.482.051,15.721.023,1.361-.42,1.6-1.653,1.579-3.894-.055-3.895,0-3.895-3.97,0-4.377-.012-8.753.016-13.13,0-.521-.318-1.154.31-1.569A7,7,0,0,0,8323.965-577.705Z" transform="translate(-59.35 -7.733)" fill="#bbd6f9"/>
      <path id="Trazado_584275" data-name="Trazado 584275" d="M8385.96-385.231a41.721,41.721,0,0,0-3.514-15.264c-1.42-3.168-4.4-4.494-7.514-5.505v-2.373c3.346,1.5,6.906,2.173,9.808,4.394a6.567,6.567,0,0,1,1.942,2.8,41.421,41.421,0,0,1,3.186,14.546c.047,1.234-.3,1.656-1.506,1.505C8387.569-385.227,8386.762-385.2,8385.96-385.231Z" transform="translate(-96.123 -118.498)" fill="#9cc5f8"/>
      <path id="Trazado_584276" data-name="Trazado 584276" d="M8357.193-570.253a16.093,16.093,0,0,1,7.025,12.606c.218,3.5.2,3.5-3.289,3.5-3.736,0-3.736,0-3.736-3.769Z" transform="translate(-84.52 -12.608)" fill="#b5cff0"/>
      <path id="Trazado_584277" data-name="Trazado 584277" d="M8285.239-558.812c-1.278.441-1.184,1.5-1.183,2.55,0,3.848-.009,3.848-3.8,3.848-2.838,0-2.845,0-2.785-2.8a15.249,15.249,0,0,1,5.955-12.384c.018,1.089-.018,2.183.074,3.265.057.671-.444,1.535.528,1.972a1.988,1.988,0,0,0,1.2,1.082Q8285.239-560.044,8285.239-558.812Z" transform="translate(-32.364 -14.346)" fill="#b7d1f3"/>
      <path id="Trazado_584278" data-name="Trazado 584278" d="M8333.8-479.388c.1-.98,1.034-1.2,1.628-1.638,4.405-3.274,6.471-7.818,7.4-13.06a38.722,38.722,0,0,0,.33-6.321c0-.128,0-.257,0-.385,4.333-.117,3.813-.777,3.636,3.545-.271,6.64-2.646,12.281-8.416,16.079A9.486,9.486,0,0,1,8333.8-479.388Z" transform="translate(-69.217 -57.975)" fill="#e6aa9a"/>
      <path id="Trazado_584279" data-name="Trazado 584279" d="M8299.939-567.734q0-1.232,0-2.464c1.134-.188,1.439-.914,1.421-1.981-.044-2.354,0-4.709-.019-7.063-.007-.975.041-1.993,1.3-1.993,1.163,0,1.23.967,1.229,1.88,0,5.571-.028,11.141.023,16.712.012,1.085-.346,1.335-1.372,1.343-1.063.009-1.249-.426-1.191-1.334.064-1.03-.039-2.07.027-3.1A1.669,1.669,0,0,0,8299.939-567.734Z" transform="translate(-47.065 -5.423)" fill="#f2f2f3"/>
      <path id="Trazado_584280" data-name="Trazado 584280" d="M8318.2-429.521a7.834,7.834,0,0,1-10.977-1.82c-.571-.783-.586-.9-.354-3.5a16.6,16.6,0,0,0,9.911,1.4A4.262,4.262,0,0,0,8318.2-429.521Z" transform="translate(-51.51 -101.182)" fill="#f9c9ba"/>
      <path id="Trazado_584281" data-name="Trazado 584281" d="M8344.92-570.953c0,2.818-.035,5.637.022,8.455.019.923-.28,1.2-1.179,1.168-.821-.029-1.395,0-1.385-1.145.054-5.693.028-11.388.022-17.082,0-.889.192-1.7,1.242-1.7,1.019,0,1.286.763,1.282,1.678C8344.912-576.7,8344.92-573.828,8344.92-570.953Z" transform="translate(-74.829 -5.409)" fill="#f2f2f3"/>
      <path id="Trazado_584282" data-name="Trazado 584282" d="M8310.762-364.575c1.258,0,2.518.031,3.775-.011.807-.027,1.25.109,1.256,1.1.008,1.014-.361,1.265-1.3,1.247-2.516-.049-5.037-.038-7.555-.006-.818.01-1.242-.142-1.254-1.116-.012-1.014.361-1.278,1.3-1.229C8308.238-364.525,8309.5-364.574,8310.762-364.575Z" transform="translate(-50.826 -147.133)" fill="#c69810"/>
      <path id="Trazado_584283" data-name="Trazado 584283" d="M8337.107-429.261a4.255,4.255,0,0,1-1.419-3.923l3.689-1.263C8340.042-432.041,8339.026-430.448,8337.107-429.261Z" transform="translate(-70.415 -101.442)" fill="#e6aa9a"/>
      <path id="Trazado_584284" data-name="Trazado 584284" d="M8309.042-500.762c0,.128,0,.257,0,.385-8.223,0-16.447.047-24.668-.04-1.648-.017-2.1.516-1.985,2.057.063.81.347,1.728-.313,2.478-.853-4.97-.853-4.981,4.027-4.967Q8297.57-500.818,8309.042-500.762Z" transform="translate(-35.1 -58.006)" fill="#f9c9ba"/>
      <path id="Trazado_584285" data-name="Trazado 584285" d="M8378.725-498.718c.533-.713-.883-2.26,1.245-2.313,1.554-.039,1.9.583,1.664,1.913a3.589,3.589,0,0,1-.109.5c-.389,1.148-1.162,2.355-2.291,2.211C8378.133-496.547,8379.163-497.933,8378.725-498.718Z" transform="translate(-98.59 -57.886)" fill="#edc2b3"/>
      <path id="Trazado_584286" data-name="Trazado 584286" d="M8269.594-496.22a3.414,3.414,0,0,1-2.625-2.942c-.112-.783-.341-1.739,1.075-1.83,1.283-.083,1.742.282,1.575,1.6A25.782,25.782,0,0,0,8269.594-496.22Z" transform="translate(-25.445 -57.906)" fill="#edc2b3"/>
      <path id="Trazado_584287" data-name="Trazado 584287" d="M8313.826-378.995q.006-1.758.008-3.517c2.268-.152,3.121.875,2.332,3.058C8315.742-378.279,8314.646-378.992,8313.826-378.995Z" transform="translate(-56.152 -135.404)" fill="#d6be4f"/>
      <path id="Trazado_584288" data-name="Trazado 584288" d="M8313.854-347.482q-.018-1.541-.031-3.082c.905.178,2.412-.95,2.4,1.206C8316.2-347.236,8316.267-347.235,8313.854-347.482Z" transform="translate(-56.149 -156.22)" fill="#d6be4f"/>
      <path id="Trazado_584289" data-name="Trazado 584289" d="M8348.174-415.374c-.849-.282-1.808-.326-2.427-1.111.68-.472.982-1.828,2.008-1.362C8348.757-417.391,8348.137-416.232,8348.174-415.374Z" transform="translate(-77.032 -112.238)" fill="#9cc5f8"/>
      <path id="Trazado_584290" data-name="Trazado 584290" d="M8324.7-578.109a7,7,0,0,1-4.86.031A13.021,13.021,0,0,1,8324.7-578.109Z" transform="translate(-60.085 -7.33)" fill="#8bafd8"/>
      <path id="Trazado_584291" data-name="Trazado 584291" d="M8295.311-562.359c-.971-.437-.469-1.3-.527-1.972-.092-1.083-.057-2.176-.074-3.265l0,0,.539.037Z" transform="translate(-43.645 -14.346)" fill="#bbd6f9"/>
      <path id="Trazado_584292" data-name="Trazado 584292" d="M8328.231-373.655c1.086.355,2.405-.6,3.342.595C8330.479-373.372,8329.165-372.447,8328.231-373.655Z" transform="translate(-65.575 -141.189)" fill="#d6be4f"/>
      <path id="Trazado_584293" data-name="Trazado 584293" d="M8295.242-568.13l-.538-.037C8294.9-568.447,8295.1-568.706,8295.242-568.13Z" transform="translate(-43.643 -13.771)" fill="#b7d1f3"/>
      <path id="Trazado_584294" data-name="Trazado 584294" d="M8379.844-342.112l.472-.391C8380.321-342.176,8380.146-342.066,8379.844-342.112Z" transform="translate(-99.336 -161.585)" fill="#d6be4f"/>
    </g>
  </g>
</svg>
