<svg xmlns="http://www.w3.org/2000/svg" xmlns:xlink="http://www.w3.org/1999/xlink" width="295" height="272" viewBox="0 0 295 272">
  <defs>
    <linearGradient id="linear-gradient" x1="-0.221" y1="0.5" x2="0.779" y2="0.5" gradientUnits="objectBoundingBox">
      <stop offset="0" stop-color="#42e8e0"/>
      <stop offset="0.102" stop-color="#3cc9cd"/>
      <stop offset="0.344" stop-color="#2f87a5"/>
      <stop offset="0.564" stop-color="#255285"/>
      <stop offset="0.753" stop-color="#1e2c6e"/>
      <stop offset="0.905" stop-color="#191560"/>
      <stop offset="1" stop-color="#180d5b"/>
    </linearGradient>
    <linearGradient id="linear-gradient-2" y1="0.5" x2="1" y2="0.5" gradientUnits="objectBoundingBox">
      <stop offset="0" stop-color="#2b237c"/>
      <stop offset="1" stop-color="#180d5b"/>
    </linearGradient>
    <linearGradient id="linear-gradient-3" x1="0" y1="0.5" x2="1" y2="0.5" xlink:href="#linear-gradient"/>
    <linearGradient id="linear-gradient-5" x1="0.136" y1="0.839" x2="0.973" y2="-0.924" xlink:href="#linear-gradient"/>
    <radialGradient id="radial-gradient" cx="0.5" cy="0.5" r="0.5" gradientTransform="translate(0)" gradientUnits="objectBoundingBox">
      <stop offset="0" stop-color="#42e8e0"/>
      <stop offset="0.023" stop-color="#3fd8d6"/>
      <stop offset="0.098" stop-color="#35a9b9"/>
      <stop offset="0.179" stop-color="#2d7fa0"/>
      <stop offset="0.262" stop-color="#275b8a"/>
      <stop offset="0.35" stop-color="#213f79"/>
      <stop offset="0.443" stop-color="#1d286b"/>
      <stop offset="0.545" stop-color="#1a1962"/>
      <stop offset="0.661" stop-color="#180f5c"/>
      <stop offset="0.823" stop-color="#180d5b"/>
    </radialGradient>
    <radialGradient id="radial-gradient-2" cx="0.5" cy="0.5" r="0.5" gradientTransform="matrix(1, 0, 0, 1, 0, 0)" xlink:href="#radial-gradient"/>
    <radialGradient id="radial-gradient-3" cx="0.5" cy="0.5" r="0.5" xlink:href="#radial-gradient"/>
  </defs>
  <g id="Grupo_846366" data-name="Grupo 846366" transform="translate(-180 -2076)">
    <g id="Grupo_845454" data-name="Grupo 845454" transform="translate(87.34 2021.266)">
      <g id="Grupo_845449" data-name="Grupo 845449" transform="translate(165.937 122.246)">
        <g id="Grupo_845446" data-name="Grupo 845446" transform="translate(0 49.612)">
          <path id="Trazado_583448" data-name="Trazado 583448" d="M209.383,244.791l-62.329-35.985c-4.737-2.735-4.142-7.51,1.326-10.668l59.674-34.453c5.468-3.157,13.742-3.5,18.477-.765L288.86,198.9c4.737,2.735,4.142,7.511-1.326,10.668L227.86,244.026C222.392,247.183,214.118,247.526,209.383,244.791Z" transform="translate(-135.884 -106.761)" fill="#e8e8e8" opacity="0.5"/>
          <path id="Trazado_583449" data-name="Trazado 583449" d="M302.985,178.876V165.989H269.739l-39.3-22.692c-5.246-3.029-14.409-2.649-20.466.848l-37.835,21.844H138.866V179.6h.027c-.149,2.05.994,4.029,3.514,5.484l69.034,39.856c5.246,3.029,14.408,2.649,20.466-.848L298,185.939C301.494,183.921,303.18,181.308,302.985,178.876Z" transform="translate(-138.866 -118.604)" fill="#312a91"/>
          <path id="Trazado_583450" data-name="Trazado 583450" d="M302.985,178.876V165.989H269.739l-39.3-22.692c-5.246-3.029-14.409-2.649-20.466.848l-37.835,21.844H138.866V179.6h.027c-.149,2.05.994,4.029,3.514,5.484l69.034,39.856c5.246,3.029,14.408,2.649,20.466-.848L298,185.939C301.494,183.921,303.18,181.308,302.985,178.876Z" transform="translate(-138.866 -118.604)" opacity="0.5" fill="url(#linear-gradient)"/>
          <path id="Trazado_583451" data-name="Trazado 583451" d="M199.741,143.294a18.513,18.513,0,0,0-9.5-2.029v85.706a23.586,23.586,0,0,0,10.975-2.877l66.093-38.158c3.494-2.018,5.179-4.631,4.984-7.063V165.986H239.045Z" transform="translate(-108.171 -118.601)" fill="url(#linear-gradient-2)"/>
          <path id="Trazado_583452" data-name="Trazado 583452" d="M211.442,219.8l-69.034-39.858c-5.246-3.029-4.588-8.318,1.47-11.815l66.093-38.159c6.056-3.5,15.219-3.877,20.466-.848l69.034,39.857c5.245,3.027,4.588,8.318-1.47,11.815l-66.093,38.159C225.85,222.449,216.688,222.827,211.442,219.8Z" transform="translate(-138.866 -127.075)" fill="#312a91"/>
          <path id="Trazado_583453" data-name="Trazado 583453" d="M211.442,219.8l-69.034-39.858c-5.246-3.029-4.588-8.318,1.47-11.815l66.093-38.159c6.056-3.5,15.219-3.877,20.466-.848l69.034,39.857c5.245,3.027,4.588,8.318-1.47,11.815l-66.093,38.159C225.85,222.449,216.688,222.827,211.442,219.8Z" transform="translate(-138.866 -127.075)" opacity="0.5" fill="url(#linear-gradient-3)"/>
          <path id="Trazado_583454" data-name="Trazado 583454" d="M207.322,207.546,151.7,175.434c-4.225-2.439-3.7-6.7,1.185-9.519l53.251-30.745c4.88-2.818,12.262-3.123,16.489-.684l55.62,32.113c4.227,2.441,3.7,6.7-1.184,9.521l-53.251,30.744C218.931,209.681,211.549,209.987,207.322,207.546Z" transform="translate(-132.901 -123.632)" fill="#5cfff3"/>
          <path id="Trazado_583455" data-name="Trazado 583455" d="M152.886,170.079l53.251-30.744c4.88-2.818,12.262-3.125,16.489-.684l55.62,32.113a6.183,6.183,0,0,1,2.265,2.093c1.227-2.256.519-4.652-2.265-6.259l-55.62-32.113c-4.227-2.439-11.609-2.134-16.489.684l-53.251,30.745c-3.676,2.121-4.882,5.062-3.449,7.427A8.83,8.83,0,0,1,152.886,170.079Z" transform="translate(-132.901 -123.632)" fill="#42e8e0"/>
          <path id="Trazado_583456" data-name="Trazado 583456" d="M213.76,219.8l-69.034-39.858c-5.246-3.029-6.5-7.476,1.47-11.815l66.093-38.159a23.4,23.4,0,0,1,10.353-2.86,24.012,24.012,0,0,0-12.671,2.86l-66.093,38.159c-6.058,3.5-6.716,8.786-1.47,11.815L211.442,219.8a18.914,18.914,0,0,0,10.112,2.01A17.385,17.385,0,0,1,213.76,219.8Z" transform="translate(-138.866 -127.072)" opacity="0.5" fill="url(#linear-gradient-3)"/>
          <path id="Trazado_583457" data-name="Trazado 583457" d="M298,166.946,231.907,205.1c-6.058,3.5-15.219,3.877-20.466.85L142.408,166.1c-2.521-1.455-3.663-3.433-3.514-5.483h-.027v2.821h.027c-.149,2.05.994,4.027,3.514,5.483l69.034,39.858c5.246,3.029,14.408,2.649,20.466-.848L298,169.767c3.494-2.018,5.179-4.63,4.984-7.063v-2.821C303.18,162.314,301.494,164.928,298,166.946Z" transform="translate(-138.866 -107.472)" opacity="0.5" fill="url(#linear-gradient-5)"/>
          <g id="Grupo_845445" data-name="Grupo 845445" transform="translate(143.856 50.482)">
            <path id="Trazado_583458" data-name="Trazado 583458" d="M232.21,162.073a.831.831,0,0,1,0,1.575,3.018,3.018,0,0,1-2.729,0,.832.832,0,0,1,0-1.575A3.018,3.018,0,0,1,232.21,162.073Z" transform="translate(-228.917 -156.841)" fill="#fccc6b"/>
            <path id="Trazado_583459" data-name="Trazado 583459" d="M234.87,160.538a.832.832,0,0,1,0,1.575,3.019,3.019,0,0,1-2.729,0,.831.831,0,0,1,0-1.575A3.009,3.009,0,0,1,234.87,160.538Z" transform="translate(-227.328 -157.759)" fill="#fccc6b"/>
            <path id="Trazado_583460" data-name="Trazado 583460" d="M237.53,159a.832.832,0,0,1,0,1.575,3.019,3.019,0,0,1-2.729,0,.831.831,0,0,1,0-1.575A3.019,3.019,0,0,1,237.53,159Z" transform="translate(-225.739 -158.676)" fill="#fccc6b"/>
          </g>
        </g>
        <g id="Grupo_845447" data-name="Grupo 845447">
          <path id="Trazado_583461" data-name="Trazado 583461" d="M203.641,196.653,160.01,171.464c-3.315-1.914-2.9-5.257.928-7.467l41.773-24.117c3.828-2.211,9.619-2.451,12.933-.537l43.631,25.191c3.315,1.914,2.9,5.257-.928,7.467l-41.773,24.117C212.747,198.328,206.956,198.569,203.641,196.653Z" transform="translate(-127.57 -70.905)" fill="#0b0244" opacity="0.5"/>
          <path id="Trazado_583462" data-name="Trazado 583462" d="M220.933,127.092a23.583,23.583,0,0,0-10.962,2.866L195.692,138.2l-56.826.252v36h.027c-.149,2.05.994,4.027,3.514,5.483l69.034,39.858a18.532,18.532,0,0,0,9.491,2.016Z" transform="translate(-138.866 -77.453)" fill="#5cfff3" opacity="0.5"/>
          <path id="Trazado_583463" data-name="Trazado 583463" d="M302.985,174.46a4.838,4.838,0,0,0,0-.73v-36l-57.187.256-15.362-8.869c-5.246-3.029-14.409-2.649-20.466.848l-14.278,8.243-56.826.252v36h.027c-.149,2.05.994,4.027,3.514,5.483L211.442,219.8c5.246,3.029,14.408,2.65,20.466-.847L298,180.792c3.147-1.816,4.821-4.117,4.984-6.332Z" transform="translate(-138.866 -77.463)" fill="#5cfff3" opacity="0.5"/>
          <path id="Trazado_583464" data-name="Trazado 583464" d="M302.985,147.819V134.932H269.739l-39.3-22.692c-5.246-3.027-14.409-2.649-20.466.848l-37.835,21.844H138.866v13.617h.027c-.149,2.05.994,4.027,3.514,5.483l69.034,39.857c5.246,3.029,14.408,2.649,20.466-.848L298,154.881C301.494,152.864,303.18,150.252,302.985,147.819Z" transform="translate(-138.866 -87.548)" fill="#312a91"/>
          <path id="Trazado_583465" data-name="Trazado 583465" d="M302.985,147.819V134.932H269.739l-39.3-22.692c-5.246-3.027-14.409-2.649-20.466.848l-37.835,21.844H138.866v13.617h.027c-.149,2.05.994,4.027,3.514,5.483l69.034,39.857c5.246,3.029,14.408,2.649,20.466-.848L298,154.881C301.494,152.864,303.18,150.252,302.985,147.819Z" transform="translate(-138.866 -87.548)" opacity="0.5" fill="url(#linear-gradient)"/>
          <path id="Trazado_583466" data-name="Trazado 583466" d="M199.741,112.237a18.546,18.546,0,0,0-9.5-2.029v85.707a23.605,23.605,0,0,0,10.975-2.877l66.093-38.159c3.494-2.018,5.179-4.63,4.984-7.063V134.929H239.045Z" transform="translate(-108.171 -87.546)" fill="url(#linear-gradient-2)"/>
          <path id="Trazado_583467" data-name="Trazado 583467" d="M211.442,188.742l-69.034-39.856c-5.246-3.029-4.588-8.32,1.47-11.817l66.093-38.158c6.056-3.5,15.219-3.877,20.466-.85L299.47,137.92c5.245,3.029,4.588,8.32-1.47,11.817l-66.093,38.158C225.85,191.391,216.688,191.771,211.442,188.742Z" transform="translate(-138.866 -96.019)" fill="#312a91"/>
          <path id="Trazado_583468" data-name="Trazado 583468" d="M211.442,188.742l-69.034-39.856c-5.246-3.029-4.588-8.32,1.47-11.817l66.093-38.158c6.056-3.5,15.219-3.877,20.466-.85L299.47,137.92c5.245,3.029,4.588,8.32-1.47,11.817l-66.093,38.158C225.85,191.391,216.688,191.771,211.442,188.742Z" transform="translate(-138.866 -96.019)" opacity="0.5" fill="url(#linear-gradient-3)"/>
          <path id="Trazado_583469" data-name="Trazado 583469" d="M213.76,188.739l-69.034-39.856c-5.246-3.029-6.5-7.478,1.47-11.817l66.093-38.158a23.4,23.4,0,0,1,10.353-2.86,24.012,24.012,0,0,0-12.671,2.86l-66.093,38.158c-6.058,3.5-6.716,8.788-1.47,11.817l69.034,39.856a18.914,18.914,0,0,0,10.112,2.011A17.385,17.385,0,0,1,213.76,188.739Z" transform="translate(-138.866 -96.016)" opacity="0.5" fill="url(#linear-gradient-3)"/>
          <path id="Trazado_583470" data-name="Trazado 583470" d="M298,135.89l-66.093,38.158c-6.058,3.5-15.219,3.877-20.466.848L142.408,135.04c-2.521-1.455-3.663-3.435-3.514-5.484h-.027v2.823h.027c-.149,2.05.994,4.027,3.514,5.483l69.034,39.858c5.246,3.029,14.408,2.649,20.466-.848L298,138.711c3.494-2.018,5.179-4.63,4.984-7.063v-2.821C303.18,131.258,301.494,133.872,298,135.89Z" transform="translate(-138.866 -76.416)" opacity="0.5" fill="url(#linear-gradient-5)"/>
        </g>
        <g id="Grupo_845448" data-name="Grupo 845448" transform="translate(70.316 40.312)">
          <path id="Trazado_583471" data-name="Trazado 583471" d="M189.15,127.718c1.433.827,1.433,2.171,0,3a5.74,5.74,0,0,1-5.192,0c-1.435-.828-1.435-2.171,0-3A5.739,5.739,0,0,1,189.15,127.718Z" transform="translate(-182.883 -117.762)" fill="#5cfff3" opacity="0.2"/>
          <path id="Trazado_583472" data-name="Trazado 583472" d="M194.211,124.8c1.433.827,1.433,2.169,0,3a5.729,5.729,0,0,1-5.192,0c-1.433-.827-1.433-2.169,0-3A5.739,5.739,0,0,1,194.211,124.8Z" transform="translate(-179.858 -119.508)" fill="#5cfff3" opacity="0.6"/>
          <path id="Trazado_583473" data-name="Trazado 583473" d="M199.272,121.874c1.435.828,1.435,2.169,0,3a5.73,5.73,0,0,1-5.192,0c-1.433-.827-1.433-2.169,0-3A5.739,5.739,0,0,1,199.272,121.874Z" transform="translate(-176.834 -121.253)" fill="#5cfff3"/>
        </g>
        <path id="Trazado_583474" data-name="Trazado 583474" d="M212.682,174.521a13.928,13.928,0,0,1-6.831-1.57l-51.043-29.469a5.016,5.016,0,0,1-2.879-4.246c0-1.973,1.444-3.938,3.965-5.393l48.869-28.215c4.617-2.666,11.638-2.947,15.654-.626L271.46,134.47a5.016,5.016,0,0,1,2.879,4.246c0,1.973-1.446,3.938-3.965,5.392L221.5,172.323A18.11,18.11,0,0,1,212.682,174.521Zm.9-70.066a17.055,17.055,0,0,0-8.3,2.075l-48.869,28.213c-2.19,1.264-3.444,2.9-3.444,4.492a4.031,4.031,0,0,0,2.358,3.344l51.043,29.471c3.73,2.152,10.286,1.871,14.612-.628l48.869-28.215c2.189-1.264,3.444-2.9,3.444-4.491a4.029,4.029,0,0,0-2.358-3.344L219.9,105.9A12.881,12.881,0,0,0,213.584,104.455Z" transform="translate(-131.061 -91.592)" fill="#0b0244" opacity="0.5"/>
      </g>
      <g id="Grupo_845453" data-name="Grupo 845453" transform="translate(93.558 52.124)">
        <path id="Trazado_583475" data-name="Trazado 583475" d="M230.251,198.08a16.637,16.637,0,0,1-8.155-1.874L127.5,141.595c-2.15-1.244-3.336-2.973-3.336-4.876,0-2.278,1.7-4.564,4.66-6.277l91.941-53.08c5.531-3.192,13.937-3.535,18.737-.765L334.1,131.211c2.152,1.243,3.336,2.973,3.336,4.876,0,2.276-1.7,4.564-4.66,6.275l-91.941,53.082A21.746,21.746,0,0,1,230.251,198.08Zm1.1-122.79a21.15,21.15,0,0,0-10.294,2.57l-91.941,53.082c-2.78,1.6-4.372,3.709-4.372,5.777,0,1.687,1.083,3.241,3.048,4.376l94.592,54.614c4.642,2.682,12.788,2.339,18.164-.765l91.939-53.08c2.78-1.6,4.374-3.709,4.374-5.777,0-1.687-1.083-3.243-3.05-4.377L239.218,77.1A16.04,16.04,0,0,0,231.35,75.291Z" transform="translate(-75.269 -38.62)" fill="#6ee8fc"/>
        <g id="Grupo_845450" data-name="Grupo 845450" transform="translate(120.908 35.566)">
          <circle id="Elipse_7384" data-name="Elipse 7384" cx="11.209" cy="11.209" r="11.209" fill="url(#radial-gradient)" style="mix-blend-mode: lighten;isolation: isolate"/>
          <path id="Trazado_583476" data-name="Trazado 583476" d="M180.652,82.6a3.2,3.2,0,1,1-3.2-3.195A3.2,3.2,0,0,1,180.652,82.6Z" transform="translate(-166.247 -71.39)" fill="#6ee8fc"/>
        </g>
        <g id="Grupo_845451" data-name="Grupo 845451" transform="translate(48.922 77.21)">
          <circle id="Elipse_7385" data-name="Elipse 7385" cx="11.209" cy="11.209" r="11.209" fill="url(#radial-gradient-2)" style="mix-blend-mode: lighten;isolation: isolate"/>
          <path id="Trazado_583477" data-name="Trazado 583477" d="M135.59,108.667a3.2,3.2,0,1,1-3.2-3.195A3.2,3.2,0,0,1,135.59,108.667Z" transform="translate(-121.185 -97.459)" fill="#6ee8fc"/>
        </g>
        <g id="Grupo_845452" data-name="Grupo 845452" transform="translate(197.629 120.354)">
          <path id="Trazado_583478" data-name="Trazado 583478" d="M239.688,138.673a11.209,11.209,0,1,1-11.208-11.21A11.208,11.208,0,0,1,239.688,138.673Z" transform="translate(-217.27 -127.463)" fill="url(#radial-gradient-3)" style="mix-blend-mode: lighten;isolation: isolate"/>
          <path id="Trazado_583479" data-name="Trazado 583479" d="M228.678,135.676a3.2,3.2,0,1,1-3.2-3.2A3.2,3.2,0,0,1,228.678,135.676Z" transform="translate(-214.273 -124.466)" fill="#6ee8fc"/>
        </g>
      </g>
    </g>
    <rect id="Rectángulo_281106" data-name="Rectángulo 281106" width="295" height="272" transform="translate(180 2076)" fill="none"/>
  </g>
</svg>
