<svg xmlns="http://www.w3.org/2000/svg" width="334.485" height="328.894" viewBox="0 0 334.485 328.894">
  <g id="Grupo_846353" data-name="Grupo 846353" transform="translate(-1115.872 -3823.788)">
    <g id="Grupo_846352" data-name="Grupo 846352" transform="translate(1122.532 3823.788)">
      <g id="Grupo_846351" data-name="Grupo 846351" transform="translate(0)">
        <path id="Trazado_582986" data-name="Trazado 582986" d="M299.623,44.749a33.793,33.793,0,1,0,33.793-33.793A33.786,33.786,0,0,0,299.623,44.749Z" transform="translate(-299.623 51.724)" fill="none" stroke="#00e7bf" stroke-linecap="round" stroke-linejoin="round" stroke-width="13.32" opacity="0.35"/>
        <path id="Trazado_587269" data-name="Trazado 587269" d="M299.623,30.6A19.647,19.647,0,1,0,319.27,10.956,19.643,19.643,0,0,0,299.623,30.6Z" transform="translate(-285.477 -10.956)" fill="#ffd400"/>
        <g id="Grupo_845305" data-name="Grupo 845305" transform="translate(93.379 279.166)" style="isolation: isolate">
          <path id="Trazado_582519" data-name="Trazado 582519" d="M239.829,0A3.964,3.964,0,1,0,243.8,3.961,3.962,3.962,0,0,0,239.829,0" transform="translate(-39.912)" fill="#f27b58"/>
          <path id="Trazado_582520" data-name="Trazado 582520" d="M222.564,0a3.964,3.964,0,1,0,3.968,3.961A3.962,3.962,0,0,0,222.564,0" transform="translate(-61.836)" fill="#f27b58"/>
          <path id="Trazado_582521" data-name="Trazado 582521" d="M205.3,0a3.964,3.964,0,1,0,3.968,3.961A3.964,3.964,0,0,0,205.3,0" transform="translate(-83.762)" fill="#f27b58"/>
          <path id="Trazado_582522" data-name="Trazado 582522" d="M188.027,0a3.964,3.964,0,1,0,3.968,3.961A3.96,3.96,0,0,0,188.027,0" transform="translate(-105.685)" fill="#f27b58"/>
          <path id="Trazado_582523" data-name="Trazado 582523" d="M170.769,0a3.964,3.964,0,1,0,3.961,3.961A3.962,3.962,0,0,0,170.769,0" transform="translate(-127.609)" fill="#f27b58"/>
          <path id="Trazado_582524" data-name="Trazado 582524" d="M153.5,0a3.964,3.964,0,1,0,3.968,3.961A3.962,3.962,0,0,0,153.5,0" transform="translate(-149.535)" fill="#f27b58"/>
          <path id="Trazado_582525" data-name="Trazado 582525" d="M231.2,8.478a3.968,3.968,0,1,0,3.965,3.968A3.962,3.962,0,0,0,231.2,8.478" transform="translate(-50.873 10.766)" fill="#f27b58"/>
          <path id="Trazado_582526" data-name="Trazado 582526" d="M213.931,8.478a3.968,3.968,0,1,0,3.965,3.968,3.963,3.963,0,0,0-3.965-3.968" transform="translate(-72.799 10.766)" fill="#f27b58"/>
          <path id="Trazado_582527" data-name="Trazado 582527" d="M196.66,8.478a3.968,3.968,0,1,0,3.968,3.968,3.962,3.962,0,0,0-3.968-3.968" transform="translate(-94.722 10.766)" fill="#f27b58"/>
          <path id="Trazado_582528" data-name="Trazado 582528" d="M179.4,8.478a3.968,3.968,0,1,0,3.959,3.968A3.962,3.962,0,0,0,179.4,8.478" transform="translate(-116.646 10.766)" fill="#f27b58"/>
          <path id="Trazado_582529" data-name="Trazado 582529" d="M162.136,8.478a3.968,3.968,0,1,0,3.961,3.968,3.963,3.963,0,0,0-3.961-3.968" transform="translate(-138.572 10.766)" fill="#f27b58"/>
          <path id="Trazado_582530" data-name="Trazado 582530" d="M239.829,18.415a3.964,3.964,0,1,0,3.968,3.968,3.963,3.963,0,0,0-3.968-3.968" transform="translate(-39.912 23.385)" fill="#f27b58"/>
          <path id="Trazado_582531" data-name="Trazado 582531" d="M222.564,18.415a3.964,3.964,0,1,0,3.968,3.968,3.963,3.963,0,0,0-3.968-3.968" transform="translate(-61.836 23.385)" fill="#f27b58"/>
          <path id="Trazado_582532" data-name="Trazado 582532" d="M205.3,18.415a3.964,3.964,0,1,0,3.968,3.968,3.966,3.966,0,0,0-3.968-3.968" transform="translate(-83.762 23.385)" fill="#f27b58"/>
          <path id="Trazado_582533" data-name="Trazado 582533" d="M188.027,18.415a3.964,3.964,0,1,0,3.968,3.968,3.962,3.962,0,0,0-3.968-3.968" transform="translate(-105.685 23.385)" fill="#f27b58"/>
          <path id="Trazado_582534" data-name="Trazado 582534" d="M170.769,18.415a3.964,3.964,0,1,0,3.961,3.968,3.963,3.963,0,0,0-3.961-3.968" transform="translate(-127.609 23.385)" fill="#f27b58"/>
          <path id="Trazado_582535" data-name="Trazado 582535" d="M153.5,18.415a3.964,3.964,0,1,0,3.968,3.968,3.963,3.963,0,0,0-3.968-3.968" transform="translate(-149.535 23.385)" fill="#f27b58"/>
        </g>
      </g>
      <g id="Grupo_846160" data-name="Grupo 846160" transform="translate(32.507 18.013)">
        <g id="Grupo_846216" data-name="Grupo 846216" transform="translate(0 0)">
          <g id="Grupo_846214" data-name="Grupo 846214">
            <g id="Grupo_846207" data-name="Grupo 846207">
              <g id="Grupo_846193" data-name="Grupo 846193">
                <path id="Trazado_585420" data-name="Trazado 585420" d="M781.723,172.143l220.724,127.468-74.594,43.067L707.129,215.209Z" transform="translate(-707.129 -65.555)" fill="#dbdbdb" style="mix-blend-mode: multiply;isolation: isolate"/>
                <path id="Trazado_585421" data-name="Trazado 585421" d="M732.783,215.428l10-7.719,35.488,24.955,85.317,58.285,11.109-6.676,29.608,18.8L890.6,265.022,733.209,186.874Z" transform="translate(-689.674 -55.531)" fill="#0f0e1b"/>
                <path id="Trazado_585422" data-name="Trazado 585422" d="M852.123,267.223c0-9.676-6.834-21.464-15.266-26.332-4.2-2.427-8.007-2.675-10.768-1.116h0l0,0-.062.037-9.64,5.571v7.468l21.65,29.723,9.042-5.253a7.221,7.221,0,0,0,1.213-.7l0,0h0C850.677,274.9,852.123,271.674,852.123,267.223Z" transform="translate(-632.792 -20.204)" fill="#23222d"/>
                <path id="Trazado_585423" data-name="Trazado 585423" d="M773.757,221.9c0-9.674-6.836-21.464-15.266-26.332-4.458-2.573-8.469-2.7-11.26-.81l-9.545,5.524,6.463,10.538a35.917,35.917,0,0,0,10.341,16.863l5.686,9.272,8.385-4.89a7.252,7.252,0,0,0,1.517-.886h0C772.37,229.438,773.757,226.255,773.757,221.9Z" transform="translate(-686.339 -51.042)" fill="#23222d"/>
                <g id="Grupo_846172" data-name="Grupo 846172" transform="translate(67.475)">
                  <path id="Trazado_585424" data-name="Trazado 585424" d="M962.772,294.262v26.964l-11.514-6.648c-3.016-9.773-9.975-18.656-18.08-23.336-10.869-6.275-12.359,1.028-18.473,11.917a24.823,24.823,0,0,0-1.2,3.04l-91.545-52.852q.03-1.759.03-3.714c0-12.472-8.812-34.42-19.681-40.694s-19.679-1.25-19.679,11.22q0,1.976.067,3.771l-29.189-16.851V110.133L931.873,213.11l10.514,56.384Z" transform="translate(-743.044 -107.746)" fill="#e4dfd9"/>
                  <path id="Trazado_585425" data-name="Trazado 585425" d="M882.5,248.466c0,9.674-6.834,13.571-15.265,8.7s-15.266-16.656-15.266-26.33,6.834-13.573,15.266-8.7S882.5,238.79,882.5,248.466Z" transform="translate(-676.053 -32.967)" fill="#2d2c37"/>
                  <path id="Trazado_585426" data-name="Trazado 585426" d="M804,205.875c0,9.674-6.834,13.571-15.266,8.7s-15.266-23.4-15.266-33.079,6.836-13.571,15.266-8.7S804,196.2,804,205.875Z" transform="translate(-729.466 -66.537)" fill="#2d2c37"/>
                  <path id="Trazado_585427" data-name="Trazado 585427" d="M797.456,200.761c0,6.722-4.749,9.429-10.607,6.048s-10.607-18.321-10.607-25.043,4.749-9.429,10.607-6.048S797.456,194.039,797.456,200.761Z" transform="translate(-727.579 -64.113)" fill="#504f58"/>
                  <path id="Trazado_585428" data-name="Trazado 585428" d="M796.055,199.668c0,6.09-4.3,8.543-9.61,5.478s-9.61-17.233-9.61-23.324,4.3-8.543,9.61-5.478S796.055,193.576,796.055,199.668Z" transform="translate(-727.176 -63.595)" fill="#c2c7d6"/>
                  <path id="Trazado_585429" data-name="Trazado 585429" d="M794.7,198.607c0,5.478-3.872,7.684-8.646,4.929s-8.644-16.181-8.644-21.659,3.87-7.684,8.644-4.929S794.7,193.129,794.7,198.607Z" transform="translate(-726.784 -63.092)" fill="#a5acc2"/>
                  <path id="Trazado_585430" data-name="Trazado 585430" d="M790,188.192c0,3.361-2.374,11.464-5.3,9.772s-5.3-12.534-5.3-15.895,2.374-4.715,5.3-3.023A11.683,11.683,0,0,1,790,188.192Z" transform="translate(-725.432 -61.354)" fill="#cfd9e7"/>
                  <path id="Trazado_585431" data-name="Trazado 585431" d="M875.957,243.352c0,6.722-4.749,9.429-10.607,6.046s-10.607-11.571-10.607-18.295,4.749-9.429,10.607-6.046S875.957,236.63,875.957,243.352Z" transform="translate(-674.166 -30.543)" fill="#504f58"/>
                  <ellipse id="Elipse_7425" data-name="Elipse 7425" cx="7.822" cy="13.549" rx="7.822" ry="13.549" transform="translate(177.593 198.936) rotate(-30.31)" fill="#b5bbcd"/>
                  <path id="Trazado_585432" data-name="Trazado 585432" d="M871.409,239.8c0,4.67-3.3,6.552-7.369,4.2a16.234,16.234,0,0,1-7.37-12.712c0-4.67,3.3-6.55,7.37-4.2A16.237,16.237,0,0,1,871.409,239.8Z" transform="translate(-672.855 -28.859)" fill="#cfd9e7"/>
                  <path id="Trazado_585433" data-name="Trazado 585433" d="M866.7,236.123c0,2.547-1.8,3.574-4.02,2.292a8.856,8.856,0,0,1-4.021-6.935c0-2.547,1.8-3.574,4.021-2.292A8.861,8.861,0,0,1,866.7,236.123Z" transform="translate(-671.499 -27.117)" fill="#e1e7ef"/>
                  <path id="Trazado_585434" data-name="Trazado 585434" d="M864.123,234.107c0,1.385-.978,1.943-2.183,1.245a4.811,4.811,0,0,1-2.185-3.767c0-1.385.978-1.941,2.185-1.245A4.816,4.816,0,0,1,864.123,234.107Z" transform="translate(-670.756 -26.161)" fill="#c2c7d6"/>
                  <path id="Trazado_585435" data-name="Trazado 585435" d="M913.008,249.674l-64.315,28.2-10.754-3.688-6.721-3.88,68.571-39.59,10.544,6.088,2.675,3.938Z" transform="translate(-690.173 -25.7)" fill="#6b6164"/>
                  <path id="Trazado_585436" data-name="Trazado 585436" d="M930.688,210.155l-175.7-101.443-1.472,2.387,178.36,102.976Z" transform="translate(-743.044 -108.713)" fill="#f3f1ee"/>
                  <path id="Trazado_585437" data-name="Trazado 585437" d="M882.518,223.517,755.136,149.973V146.28l127.382,73.544Z" transform="translate(-741.94 -83.152)" fill="#98979d"/>
                  <g id="Grupo_846160-2" data-name="Grupo 846160" transform="translate(142.295 89.472)">
                    <path id="Trazado_585438" data-name="Trazado 585438" d="M831.962,250.944V161.957l36.724,21.2V242.39l-12.078,22.783Z" transform="translate(-831.962 -161.957)" fill="#cdc6bc"/>
                  </g>
                  <path id="Trazado_585439" data-name="Trazado 585439" d="M863.479,180.154l-8.277-4.779v46.849l12.262,7.079,3.466-5.644Z" transform="translate(-673.854 -63.355)" fill="#2d2c37"/>
                  <path id="Trazado_585440" data-name="Trazado 585440" d="M855.86,220.824V176.508l6.323,3.651,7.125,41.9-2.959,4.82Z" transform="translate(-673.407 -62.585)" fill="#7572a4"/>
                  <g id="Grupo_846161" data-name="Grupo 846161" transform="translate(140.578 178.596)">
                    <path id="Trazado_585441" data-name="Trazado 585441" d="M860.827,232.249,830.94,214.994v2.6l29.887,17.255Z" transform="translate(-830.94 -214.994)" fill="#9b897f"/>
                  </g>
                  <g id="Grupo_846162" data-name="Grupo 846162" transform="translate(0 90.685)">
                    <path id="Trazado_585442" data-name="Trazado 585442" d="M757.751,168.723l-10.468-6.044v2.6l10.468,6.044Z" transform="translate(-747.283 -162.679)" fill="#9b897f"/>
                  </g>
                  <path id="Trazado_585443" data-name="Trazado 585443" d="M877.856,228.606l-4.384-2.531v-5.03l4.384,2.531Z" transform="translate(-661.423 -32.281)" fill="#504f58"/>
                  <path id="Trazado_585444" data-name="Trazado 585444" d="M877.334,227.7l-3.64-2.1v-4.176l3.64,2.1Z" transform="translate(-661.272 -32.021)" fill="#ff9a2e"/>
                  <path id="Trazado_585445" data-name="Trazado 585445" d="M761.107,157.972c0,1.556-1.1,2.181-2.453,1.4a5.409,5.409,0,0,1-2.453-4.231c0-1.554,1.1-2.181,2.453-1.4A5.4,5.4,0,0,1,761.107,157.972Z" transform="translate(-741.216 -78.304)" fill="#504f58"/>
                  <path id="Trazado_585446" data-name="Trazado 585446" d="M760.389,157.413c0,1.232-.869,1.727-1.943,1.107a4.28,4.28,0,0,1-1.942-3.351c0-1.23.87-1.727,1.942-1.107A4.281,4.281,0,0,1,760.389,157.413Z" transform="translate(-741.009 -78.038)" fill="#ff512e"/>
                  <path id="Trazado_585447" data-name="Trazado 585447" d="M759.838,162.691c0,1.057-.746,1.482-1.667.951a3.676,3.676,0,0,1-1.667-2.875c0-1.057.746-1.482,1.667-.951A3.67,3.67,0,0,1,759.838,162.691Z" transform="translate(-741.009 -74.098)" fill="#f9f1ec"/>
                  <path id="Trazado_585448" data-name="Trazado 585448" d="M759.481,162.413c0,.9-.632,1.257-1.413.807a3.112,3.112,0,0,1-1.413-2.438c0-.9.632-1.257,1.413-.807A3.112,3.112,0,0,1,759.481,162.413Z" transform="translate(-740.906 -73.966)" fill="#ff9a2e"/>
                  <path id="Trazado_585449" data-name="Trazado 585449" d="M800.3,192.715c0,1.057-.746,1.482-1.667.951a3.676,3.676,0,0,1-1.667-2.875c0-1.057.746-8.231,1.667-7.7S800.3,191.66,800.3,192.715Z" transform="translate(-713.481 -58.123)" fill="#f9f1ec"/>
                  <path id="Trazado_585450" data-name="Trazado 585450" d="M799.94,189.787c0,.9-.632,1.257-1.413.807a3.114,3.114,0,0,1-1.415-2.438c0-.9.633-1.257,1.415-.807A3.112,3.112,0,0,1,799.94,189.787Z" transform="translate(-713.379 -55.341)" fill="#ff9a2e"/>
                  <path id="Trazado_585451" data-name="Trazado 585451" d="M830.032,203.219c0,1.055-.746,1.48-1.665.949a3.67,3.67,0,0,1-1.667-2.875c0-1.055.746-1.482,1.667-.949A3.673,3.673,0,0,1,830.032,203.219Z" transform="translate(-693.247 -46.522)" fill="#f9f1ec"/>
                  <path id="Trazado_585452" data-name="Trazado 585452" d="M829.678,202.941c0,.9-.633,1.257-1.413.8a3.114,3.114,0,0,1-1.415-2.438c0-.9.634-1.257,1.415-.807A3.12,3.12,0,0,1,829.678,202.941Z" transform="translate(-693.145 -46.391)" fill="#ff9a2e"/>
                  <g id="Grupo_846163" data-name="Grupo 846163" transform="translate(15.495 6.836)">
                    <path id="Trazado_585453" data-name="Trazado 585453" d="M762.206,118.606l-5.7-3.292v-2.533l5.7,3.292Z" transform="translate(-756.504 -112.781)" fill="#cdc6bc"/>
                  </g>
                  <path id="Trazado_585454" data-name="Trazado 585454" d="M761.5,117.662l-4.692-2.709V113.08l4.692,2.709Z" transform="translate(-740.804 -105.741)" fill="#ff9a2e"/>
                  <g id="Grupo_846164" data-name="Grupo 846164" transform="translate(86.562 47.867)">
                    <path id="Trazado_585455" data-name="Trazado 585455" d="M804.5,143.023l-5.7-3.292V137.2l5.7,3.292Z" transform="translate(-798.795 -137.198)" fill="#cdc6bc"/>
                  </g>
                  <path id="Trazado_585456" data-name="Trazado 585456" d="M803.788,142.079,799.1,139.37V137.5l4.692,2.709Z" transform="translate(-712.029 -89.128)" fill="#ff9a2e"/>
                  <g id="Grupo_846165" data-name="Grupo 846165" transform="translate(176.168 99.601)">
                    <path id="Trazado_585457" data-name="Trazado 585457" d="M857.822,173.809l-5.7-3.292v-2.533l5.7,3.292Z" transform="translate(-852.12 -167.985)" fill="#cdc6bc"/>
                  </g>
                  <path id="Trazado_585458" data-name="Trazado 585458" d="M857.112,172.866l-4.692-2.709v-1.873l4.692,2.709Z" transform="translate(-675.747 -68.18)" fill="#ff9a2e"/>
                  <g id="Grupo_846167" data-name="Grupo 846167" transform="translate(15.157 18.734)">
                    <g id="Grupo_846166" data-name="Grupo 846166">
                      <path id="Trazado_585459" data-name="Trazado 585459" d="M801.723,180.811a5.722,5.722,0,0,1-2.83-.844l-35.919-20.74c-3.678-2.124-6.671-7.817-6.671-12.694v-20.5c0-2.685.909-4.751,2.5-5.668a4.668,4.668,0,0,1,4.766.336l35.917,20.738c3.68,2.124,6.673,7.819,6.673,12.7v20.494c0,2.687-.909,4.752-2.5,5.668A3.816,3.816,0,0,1,801.723,180.811Zm-2.24-1.867a3.544,3.544,0,0,0,3.583.334c1.212-.7,1.909-2.393,1.909-4.645V154.139c0-4.5-2.727-9.736-6.082-11.672l-35.919-20.738a3.544,3.544,0,0,0-3.581-.334c-1.215.7-1.909,2.391-1.909,4.643v20.5c0,4.5,2.727,9.735,6.082,11.67Z" transform="translate(-756.303 -119.862)" fill="#cdc6bc"/>
                    </g>
                  </g>
                  <g id="Grupo_846169" data-name="Grupo 846169" transform="translate(71.049 51.005)">
                    <g id="Grupo_846168" data-name="Grupo 846168">
                      <path id="Trazado_585460" data-name="Trazado 585460" d="M834.985,200.013a5.706,5.706,0,0,1-2.83-.845l-35.92-20.738c-3.68-2.124-6.671-7.819-6.671-12.694v-20.5c0-2.684.911-4.752,2.5-5.668a4.669,4.669,0,0,1,4.762.336l35.92,20.74c3.678,2.122,6.669,7.817,6.669,12.694v20.494c0,2.687-.909,4.752-2.5,5.67A3.832,3.832,0,0,1,834.985,200.013ZM794,140.249a2.65,2.65,0,0,0-1.341.346c-1.215.7-1.912,2.393-1.912,4.645v20.5c0,4.5,2.727,9.735,6.081,11.67l35.92,20.738a3.554,3.554,0,0,0,3.581.338c1.212-.7,1.909-2.395,1.909-4.646V173.342c0-4.5-2.727-9.736-6.08-11.67l-35.92-20.738A4.547,4.547,0,0,0,794,140.249Z" transform="translate(-789.564 -139.065)" fill="#cdc6bc"/>
                    </g>
                  </g>
                  <path id="Trazado_585461" data-name="Trazado 585461" d="M857.806,221.758l-19.741-18.145c-2.092-1.208-3.786-4.446-3.786-7.234V169.5c0-2.788,1.694-4.068,3.786-2.862l19.741,11.4c2.09,1.207,3.786,4.446,3.786,7.234V218.9C861.592,221.684,859.9,222.966,857.806,221.758Z" transform="translate(-688.09 -69.606)" fill="#2d2c37"/>
                  <path id="Trazado_585462" data-name="Trazado 585462" d="M834.935,196.654V169.369c0-1.974,1.2-2.882,2.684-2.027l19.741,11.4a6.422,6.422,0,0,1,2.682,5.124V217.9c0,1.974-1.2,2.884-2.682,2.028l-19.741-18.147A6.422,6.422,0,0,1,834.935,196.654Z" transform="translate(-687.644 -69.04)" fill="#7572a4"/>
                  <path id="Trazado_585463" data-name="Trazado 585463" d="M844.15,228.253l-6.085-3.512c-2.092-1.208-3.786-11.195-3.786-13.983V193.645c0-2.788,1.694-4.068,3.786-2.862l6.085,3.514c2.09,1.207,3.786,4.446,3.786,7.234v23.86C847.936,228.179,846.24,229.461,844.15,228.253Z" transform="translate(-688.09 -53.181)" fill="#2d2c37"/>
                  <path id="Trazado_585464" data-name="Trazado 585464" d="M834.935,211.033V193.512c0-1.976,1.2-2.884,2.684-2.028L843.7,195a6.428,6.428,0,0,1,2.682,5.125v24.272c0,1.974-1.2,2.884-2.682,2.028l-6.085-3.514C836.137,222.052,834.935,213.009,834.935,211.033Z" transform="translate(-687.644 -52.614)" fill="#7572a4"/>
                  <path id="Trazado_585465" data-name="Trazado 585465" d="M859.085,232.2a8.389,8.389,0,0,0,1.855,3.289,1.633,1.633,0,0,1,.461,1.314h0c-.109.345-.61.244-1.07-.3a13.286,13.286,0,0,1-2.464-4.364c-.22-.665-.035-1.128.323-1.028h0A1.7,1.7,0,0,1,859.085,232.2Z" transform="translate(-672.106 -25.44)" fill="#504f58"/>
                  <path id="Trazado_585466" data-name="Trazado 585466" d="M864.507,233.609a8.37,8.37,0,0,0-1.855-3.287,1.644,1.644,0,0,1-.46-1.316h0c.109-.344.61-.244,1.07.3a13.291,13.291,0,0,1,2.464,4.364c.22.667.035,1.128-.323,1.028h0A1.693,1.693,0,0,1,864.507,233.609Z" transform="translate(-669.118 -27.001)" fill="#504f58"/>
                  <path id="Trazado_585467" data-name="Trazado 585467" d="M862.563,235.836a1.784,1.784,0,0,0,1.933-1.013c.18-.294.559-.329.914,0h0a1.24,1.24,0,0,1,.281,1.39,2.746,2.746,0,0,1-2.564,1.346,1.3,1.3,0,0,1-1.059-.981h0C861.972,236.112,862.21,235.823,862.563,235.836Z" transform="translate(-669.197 -23.066)" fill="#504f58"/>
                  <path id="Trazado_585468" data-name="Trazado 585468" d="M861.068,228.789a1.785,1.785,0,0,0-1.932,1.013c-.18.294-.56.331-.914,0h0a1.236,1.236,0,0,1-.279-1.39,2.747,2.747,0,0,1,2.564-1.346,1.3,1.3,0,0,1,1.059.981h0C861.66,228.515,861.421,228.8,861.068,228.789Z" transform="translate(-672.066 -28.19)" fill="#504f58"/>
                  <g id="Grupo_846170" data-name="Grupo 846170" transform="translate(195.45 161.639)">
                    <path id="Trazado_585469" data-name="Trazado 585469" d="M864.185,230.868h-.59l.021-16.937,3.6-9.028.547.219-3.575,8.976Z" transform="translate(-863.594 -204.903)" fill="#c9c3b9"/>
                  </g>
                  <g id="Grupo_846171" data-name="Grupo 846171" transform="translate(197.326 166.065)">
                    <path id="Trazado_585470" data-name="Trazado 585470" d="M886.892,232.634l-22.182-24.7.438-.4,22.182,24.7Z" transform="translate(-864.711 -207.537)" fill="#c9c3b9"/>
                  </g>
                </g>
                <path id="Trazado_585471" data-name="Trazado 585471" d="M719.651,198.076l-10.468-6.044,12.437-7.18,10.468,6.044Z" transform="translate(-705.732 -56.907)" fill="#6b6164"/>
                <g id="Grupo_846187" data-name="Grupo 846187" transform="translate(3.451 36.964)">
                  <path id="Trazado_585472" data-name="Trazado 585472" d="M924.673,316.258v26.964l-11.514-6.648c-3.016-9.772-9.975-18.656-18.079-23.336-10.869-6.275-12.359,1.028-18.473,11.917a24.922,24.922,0,0,0-1.2,3.042l-91.543-52.854q.03-1.757.03-3.714c0-12.472-8.812-27.671-19.681-33.946s-19.681-1.25-19.681,11.22q0,1.976.069,3.771l-29.19-16.853V132.131l178.36,102.975,10.516,56.386Z" transform="translate(-704.945 -129.743)" fill="#ded8d1"/>
                  <g id="Grupo_846173" data-name="Grupo 846173" transform="translate(15.045 84.388)">
                    <path id="Trazado_585473" data-name="Trazado 585473" d="M722.023,184.546c0,1.232-.87,1.727-1.944,1.107a4.28,4.28,0,0,1-1.943-3.351c0-1.23.87-1.726,1.943-1.107A4.282,4.282,0,0,1,722.023,184.546Z" transform="translate(-718.136 -180.929)" fill="#cdc6bc"/>
                  </g>
                  <g id="Grupo_846174" data-name="Grupo 846174" transform="translate(11.562 69.875)">
                    <path id="Trazado_585474" data-name="Trazado 585474" d="M843.446,251.4,716.063,177.858v-3.694l1.634-1.872,125.748,75.416,1.634,1.822Z" transform="translate(-716.063 -172.292)" fill="#cdc6bc"/>
                  </g>
                  <g id="Grupo_846175" data-name="Grupo 846175" transform="translate(211.571 189.406)">
                    <path id="Trazado_585475" data-name="Trazado 585475" d="M838.015,251.114l-2.927-1.69v-3.359l.851-2.641,3.639,6.277Z" transform="translate(-835.088 -243.424)" fill="#b5aa9c"/>
                  </g>
                  <ellipse id="Elipse_7426" data-name="Elipse 7426" cx="12.425" cy="21.522" rx="12.425" ry="21.522" transform="matrix(0.863, -0.505, 0.505, 0.863, 169.595, 194.375)" fill="#2d2c37"/>
                  <ellipse id="Elipse_7427" data-name="Elipse 7427" cx="12.425" cy="21.522" rx="12.425" ry="21.522" transform="matrix(0.863, -0.505, 0.505, 0.863, 169.595, 194.375)" fill="#393843"/>
                  <path id="Trazado_585476" data-name="Trazado 585476" d="M843.365,269.92c0,9.306-6.574,13.055-14.685,8.373S814,262.269,814,252.963s6.575-13.055,14.685-8.373S843.365,260.614,843.365,269.92Z" transform="translate(-637.868 -54.597)" fill="#2d2c37"/>
                  <path id="Trazado_585477" data-name="Trazado 585477" d="M765.9,225.14c0,9.674-6.836,13.571-15.266,8.7s-15.266-16.658-15.266-26.332,6.836-13.571,15.266-8.7S765.9,215.466,765.9,225.14Z" transform="translate(-691.366 -85.802)" fill="#393843"/>
                  <path id="Trazado_585478" data-name="Trazado 585478" d="M764.518,224.6c0,9.308-6.574,13.055-14.685,8.373s-14.685-16.023-14.685-25.33,6.575-13.055,14.685-8.372S764.518,215.29,764.518,224.6Z" transform="translate(-691.516 -85.435)" fill="#2d2c37"/>
                  <ellipse id="Elipse_7428" data-name="Elipse 7428" cx="8.633" cy="14.953" rx="8.633" ry="14.953" transform="translate(43.987 122.184) rotate(-30.311)" fill="#504f58"/>
                  <path id="Trazado_585479" data-name="Trazado 585479" d="M757.956,218.932c0,6.09-4.3,8.543-9.61,5.478s-9.61-10.486-9.61-16.576,4.3-8.543,9.61-5.48S757.956,212.841,757.956,218.932Z" transform="translate(-689.076 -82.86)" fill="#c4c2bb"/>
                  <path id="Trazado_585480" data-name="Trazado 585480" d="M756.6,217.872c0,5.478-3.872,7.685-8.646,4.929s-8.644-9.432-8.644-14.91,3.868-7.686,8.644-4.929a12.757,12.757,0,0,1,1.284.85,19.764,19.764,0,0,1,7.258,12.464A12.944,12.944,0,0,1,756.6,217.872Z" transform="translate(-688.684 -82.358)" fill="#b0ac9e"/>
                  <path id="Trazado_585481" data-name="Trazado 585481" d="M751.074,220.572c-4.52-2.608-8.184-8.93-8.184-14.115a6.334,6.334,0,0,1,1.61-4.665c-3.055-.234-5.191,2.028-5.191,6.1,0,5.478,3.868,12.154,8.644,14.91,3.478,2.008,6.475,1.38,7.847-1.227A6.562,6.562,0,0,1,751.074,220.572Z" transform="translate(-688.684 -82.357)" fill="#b7b4a9"/>
                  <g id="Grupo_846176" data-name="Grupo 846176" transform="translate(56.803 124.675)" style="mix-blend-mode: multiply;isolation: isolate">
                    <path id="Trazado_585482" data-name="Trazado 585482" d="M753.593,214.779c0,3.361-2.374,4.715-5.3,3.025a11.689,11.689,0,0,1-5.3-9.148c0-3.361,2.374-4.715,5.3-3.023A11.684,11.684,0,0,1,753.593,214.779Z" transform="translate(-742.986 -204.903)" fill="#cdc6bc"/>
                  </g>
                  <path id="Trazado_585483" data-name="Trazado 585483" d="M753.553,215.451c-.909,1.319-2.637,1.568-4.616.425a11.694,11.694,0,0,1-5.3-9.148c0-2.257,1.07-3.609,2.66-3.741A19.764,19.764,0,0,1,753.553,215.451Z" transform="translate(-685.742 -81.532)" fill="#9d9783"/>
                  <path id="Trazado_585484" data-name="Trazado 585484" d="M746.064,203.252l-3.977,2.3,7.835,12.721,3.922-2.264-2.678-6.4Z" transform="translate(-686.794 -81.352)" fill="#9d9783"/>
                  <path id="Trazado_585485" data-name="Trazado 585485" d="M751.9,214.2c0,3.361-2.374,4.715-5.3,3.023a11.683,11.683,0,0,1-5.3-9.146c0-3.361,2.374-4.715,5.3-3.023A11.683,11.683,0,0,1,751.9,214.2Z" transform="translate(-687.332 -80.619)" fill="#b7b4a9"/>
                  <path id="Trazado_585486" data-name="Trazado 585486" d="M751.409,213.979c0,3.213-2.27,4.509-5.07,2.89a11.17,11.17,0,0,1-5.072-8.745c0-3.215,2.27-4.509,5.072-2.892A11.176,11.176,0,0,1,751.409,213.979Z" transform="translate(-687.352 -80.478)" fill="#d5d2c9"/>
                  <path id="Trazado_585487" data-name="Trazado 585487" d="M837.688,265.474c0,6.722-4.749,9.43-10.607,6.048s-10.607-11.573-10.607-18.295,4.749-9.429,10.607-6.048S837.688,258.753,837.688,265.474Z" transform="translate(-636.181 -52.454)" fill="#504f58"/>
                  <path id="Trazado_585488" data-name="Trazado 585488" d="M836.456,264.255c0,6.09-4.3,8.543-9.608,5.478s-9.612-10.486-9.612-16.576,4.3-8.543,9.612-5.48S836.456,258.164,836.456,264.255Z" transform="translate(-635.663 -52.022)" fill="#c4c2bb"/>
                  <path id="Trazado_585489" data-name="Trazado 585489" d="M834.768,262.936c0,5.329-3.764,7.474-8.407,4.794s-8.409-9.175-8.409-14.5,3.764-7.476,8.409-4.794S834.768,257.608,834.768,262.936Z" transform="translate(-635.176 -51.397)" fill="#b7b4a9"/>
                  <path id="Trazado_585490" data-name="Trazado 585490" d="M833.309,261.8c0,4.67-3.3,6.552-7.369,4.2a16.234,16.234,0,0,1-7.37-12.711c0-4.672,3.3-6.552,7.37-4.2A16.24,16.24,0,0,1,833.309,261.8Z" transform="translate(-634.755 -50.856)" fill="#d5d2c9"/>
                  <path id="Trazado_585491" data-name="Trazado 585491" d="M828.778,258.871c0,2.793-1.971,3.917-4.4,2.512a9.706,9.706,0,0,1-4.406-7.6c0-2.793,1.973-3.917,4.406-2.512A9.7,9.7,0,0,1,828.778,258.871Z" transform="translate(-633.804 -49.089)" fill="#cac6bc"/>
                  <path id="Trazado_585492" data-name="Trazado 585492" d="M820.985,254.2a8.377,8.377,0,0,0,1.855,3.289,1.642,1.642,0,0,1,.46,1.316h0c-.109.343-.61.242-1.07-.3a13.3,13.3,0,0,1-2.463-4.366c-.22-.665-.035-1.126.323-1.028h0A1.7,1.7,0,0,1,820.985,254.2Z" transform="translate(-634.006 -47.437)" fill="#504f58"/>
                  <path id="Trazado_585493" data-name="Trazado 585493" d="M827.727,258.312c0,2.458-1.738,3.448-3.88,2.211a8.549,8.549,0,0,1-3.88-6.691c0-2.458,1.738-3.45,3.88-2.211A8.549,8.549,0,0,1,827.727,258.312Z" transform="translate(-633.805 -48.804)" fill="#dddddb"/>
                  <path id="Trazado_585494" data-name="Trazado 585494" d="M825.236,256.367c0,1.336-.944,1.874-2.107,1.2a4.641,4.641,0,0,1-2.107-3.635c0-1.336.943-1.874,2.107-1.2A4.646,4.646,0,0,1,825.236,256.367Z" transform="translate(-633.087 -47.882)" fill="#b7b4a9"/>
                  <path id="Trazado_585495" data-name="Trazado 585495" d="M848.693,270.777l-11.129-1.228-5.15-2.973-1.2-12.3,6.721,3.88,10.754,3.688Z" transform="translate(-626.149 -46.634)" fill="#493f41"/>
                  <path id="Trazado_585496" data-name="Trazado 585496" d="M892.588,232.152,716.884,130.71l-1.472,2.387,178.36,102.976Z" transform="translate(-704.944 -130.71)" fill="#f3f1ee"/>
                  <path id="Trazado_585497" data-name="Trazado 585497" d="M843.706,246.527,716.324,172.983l1.2-.69L844.9,245.837Z" transform="translate(-704.324 -102.417)" fill="#6b6164"/>
                  <path id="Trazado_585498" data-name="Trazado 585498" d="M792.128,216.749v3.694l1.2-.69v-3.693Z" transform="translate(-652.746 -72.639)" fill="#554d4e"/>
                  <g id="Grupo_846177" data-name="Grupo 846177" transform="translate(142.295 96.22)">
                    <path id="Trazado_585499" data-name="Trazado 585499" d="M793.862,270.209V187.97l36.724,21.2v52.483l-12.078,22.783Z" transform="translate(-793.862 -187.97)" fill="#cdc6bc"/>
                  </g>
                  <path id="Trazado_585500" data-name="Trazado 585500" d="M825.379,202.151l-8.277-4.779v46.849l12.262,7.079,3.465-5.644Z" transform="translate(-635.754 -85.353)" fill="#2d2c37"/>
                  <path id="Trazado_585501" data-name="Trazado 585501" d="M817.759,242.821V198.5l6.323,3.65,7.125,41.9-2.959,4.82Z" transform="translate(-635.307 -84.582)" fill="#573f3f"/>
                  <path id="Trazado_585502" data-name="Trazado 585502" d="M719.651,195.169l-10.468-6.044V191l10.468,6.044Z" transform="translate(-709.183 -90.964)" fill="#493f41"/>
                  <path id="Trazado_585503" data-name="Trazado 585503" d="M839.756,250.6l-4.384-2.531v-5.03l4.384,2.531Z" transform="translate(-623.323 -54.278)" fill="#504f58"/>
                  <path id="Trazado_585504" data-name="Trazado 585504" d="M839.709,249.7l-4.815-4.779,1.175-1.5,3.639,2.1Z" transform="translate(-623.648 -54.018)" fill="#ff9a2e"/>
                  <path id="Trazado_585505" data-name="Trazado 585505" d="M837.822,249.365l-2.927-1.69v-3.359l2.927,1.69Z" transform="translate(-623.648 -53.412)" fill="#e06f2e"/>
                  <path id="Trazado_585506" data-name="Trazado 585506" d="M723.007,183.985c0,1.554-1.1,2.181-2.453,1.4a5.408,5.408,0,0,1-2.453-4.231c0-1.554,1.1-2.181,2.453-1.4A5.4,5.4,0,0,1,723.007,183.985Z" transform="translate(-703.116 -97.569)" fill="#504f58"/>
                  <path id="Trazado_585507" data-name="Trazado 585507" d="M722.289,183.426c0,1.232-.87,1.727-1.943,1.107a4.28,4.28,0,0,1-1.943-3.351c0-1.232.87-1.727,1.943-1.107A4.283,4.283,0,0,1,722.289,183.426Z" transform="translate(-702.909 -97.303)" fill="#d83b2e"/>
                  <path id="Trazado_585508" data-name="Trazado 585508" d="M719.092,179.943a6.982,6.982,0,0,0-1.062,1.351c-.181.45,2.072,3.608,2.072,3.608a4.972,4.972,0,0,0,1.854-.308C722.663,184.258,719.092,179.943,719.092,179.943Z" transform="translate(-703.17 -97.211)" fill="#d83b2e"/>
                  <g id="Grupo_846178" data-name="Grupo 846178" transform="translate(15.677 92.921)">
                    <path id="Trazado_585509" data-name="Trazado 585509" d="M721.846,189.111c0,1.055-.746,1.482-1.667.949a3.671,3.671,0,0,1-1.667-2.875c0-1.055.746-1.48,1.667-.949A3.67,3.67,0,0,1,721.846,189.111Z" transform="translate(-718.512 -186.007)" fill="#b5aa9c"/>
                  </g>
                  <g id="Grupo_846179" data-name="Grupo 846179" transform="translate(83.662 132.172)">
                    <path id="Trazado_585510" data-name="Trazado 585510" d="M762.3,212.469c0,1.057-.746,1.482-1.667.951a3.676,3.676,0,0,1-1.667-2.875c0-1.057.746-1.482,1.667-.951A3.675,3.675,0,0,1,762.3,212.469Z" transform="translate(-758.97 -209.365)" fill="#b5aa9c"/>
                  </g>
                  <g id="Grupo_846180" data-name="Grupo 846180" transform="translate(133.634 161.023)">
                    <path id="Trazado_585511" data-name="Trazado 585511" d="M792.042,229.638c0,1.057-.746,1.482-1.667.951a3.676,3.676,0,0,1-1.667-2.875c0-1.057.746-1.482,1.667-.951A3.676,3.676,0,0,1,792.042,229.638Z" transform="translate(-788.708 -226.534)" fill="#b5aa9c"/>
                  </g>
                  <path id="Trazado_585512" data-name="Trazado 585512" d="M720.955,183.4c0,.968-.684,1.358-1.527.87a3.362,3.362,0,0,1-1.526-2.633c0-.968.682-1.358,1.526-.87A3.361,3.361,0,0,1,720.955,183.4Z" transform="translate(-703.25 -96.792)" fill="#ff512e"/>
                  <path id="Trazado_585513" data-name="Trazado 585513" d="M721.954,188.609c0,1.057-.746,1.482-1.667.951a3.676,3.676,0,0,1-1.667-2.875c0-1.057.746-1.482,1.667-.951A3.676,3.676,0,0,1,721.954,188.609Z" transform="translate(-702.762 -93.427)" fill="#9da1bf"/>
                  <path id="Trazado_585514" data-name="Trazado 585514" d="M762.412,211.968c0,1.055-.746,1.48-1.667.949a3.67,3.67,0,0,1-1.667-2.875c0-1.055.746-1.482,1.667-.949A3.671,3.671,0,0,1,762.412,211.968Z" transform="translate(-675.234 -77.534)" fill="#9da1bf"/>
                  <path id="Trazado_585515" data-name="Trazado 585515" d="M792.149,229.137c0,1.055-.746,1.48-1.667.949a3.675,3.675,0,0,1-1.667-2.875c0-1.055.748-1.482,1.667-.949A3.671,3.671,0,0,1,792.149,229.137Z" transform="translate(-655.001 -65.852)" fill="#9da1bf"/>
                  <path id="Trazado_585516" data-name="Trazado 585516" d="M721.738,188.7c0,1.057-.746,1.482-1.667.949a3.67,3.67,0,0,1-1.667-2.874c0-1.057.746-1.482,1.667-.951A3.671,3.671,0,0,1,721.738,188.7Z" transform="translate(-702.909 -93.362)" fill="#f9f1ec"/>
                  <path id="Trazado_585517" data-name="Trazado 585517" d="M721.382,188.426c0,.9-.633,1.257-1.413.807a3.117,3.117,0,0,1-1.415-2.44c0-.9.634-1.257,1.415-.8A3.117,3.117,0,0,1,721.382,188.426Z" transform="translate(-702.807 -93.231)" fill="#e06f2e"/>
                  <path id="Trazado_585518" data-name="Trazado 585518" d="M762.2,212.062c0,1.057-.746,1.482-1.667.951a3.671,3.671,0,0,1-1.667-2.875c0-1.057.746-1.482,1.667-.951A3.676,3.676,0,0,1,762.2,212.062Z" transform="translate(-675.381 -77.47)" fill="#f9f1ec"/>
                  <path id="Trazado_585519" data-name="Trazado 585519" d="M761.84,211.784c0,.9-.633,1.259-1.413.807a3.114,3.114,0,0,1-1.415-2.438c0-.9.633-1.257,1.415-.807A3.117,3.117,0,0,1,761.84,211.784Z" transform="translate(-675.279 -77.338)" fill="#e06f2e"/>
                  <path id="Trazado_585520" data-name="Trazado 585520" d="M791.933,229.231c0,1.057-.746,1.482-1.667.951a3.671,3.671,0,0,1-1.667-2.875c0-1.057.746-1.482,1.667-.951A3.676,3.676,0,0,1,791.933,229.231Z" transform="translate(-655.148 -65.788)" fill="#f9f1ec"/>
                  <path id="Trazado_585521" data-name="Trazado 585521" d="M791.578,228.953c0,.9-.633,1.259-1.415.807a3.117,3.117,0,0,1-1.413-2.438c0-.9.633-1.257,1.413-.807A3.114,3.114,0,0,1,791.578,228.953Z" transform="translate(-655.045 -65.656)" fill="#e06f2e"/>
                  <g id="Grupo_846181" data-name="Grupo 846181" transform="translate(15.495 6.836)">
                    <path id="Trazado_585522" data-name="Trazado 585522" d="M724.106,140.6l-5.7-3.292v-2.533l5.7,3.292Z" transform="translate(-718.404 -134.778)" fill="#cdc6bc"/>
                  </g>
                  <path id="Trazado_585523" data-name="Trazado 585523" d="M723.4,139.659,718.7,136.95v-1.873l4.692,2.709Z" transform="translate(-702.704 -127.738)" fill="#e06f2e"/>
                  <g id="Grupo_846182" data-name="Grupo 846182" transform="translate(86.562 47.867)">
                    <path id="Trazado_585524" data-name="Trazado 585524" d="M766.4,165.02l-5.7-3.292V159.2l5.7,3.292Z" transform="translate(-760.695 -159.195)" fill="#cdc6bc"/>
                  </g>
                  <path id="Trazado_585525" data-name="Trazado 585525" d="M765.688,164.076,761,161.367v-1.873l4.692,2.709Z" transform="translate(-673.929 -111.125)" fill="#e06f2e"/>
                  <g id="Grupo_846183" data-name="Grupo 846183" transform="translate(176.168 99.601)">
                    <path id="Trazado_585526" data-name="Trazado 585526" d="M819.721,195.807l-5.7-3.292v-2.533l5.7,3.292Z" transform="translate(-814.02 -189.982)" fill="#cdc6bc"/>
                  </g>
                  <path id="Trazado_585527" data-name="Trazado 585527" d="M819.012,194.863l-4.692-2.709v-1.873l4.692,2.709Z" transform="translate(-637.647 -90.177)" fill="#e06f2e"/>
                  <path id="Trazado_585528" data-name="Trazado 585528" d="M819.706,241.022l-19.743-11.4c-2.091-1.208-3.784-4.446-3.784-7.234V195.517c0-2.788,1.694-4.068,3.784-2.862l19.743,11.4c2.09,1.207,3.784,4.445,3.784,7.232V238.16C823.491,240.948,821.8,242.23,819.706,241.022Z" transform="translate(-649.99 -88.871)" fill="#2d2c37"/>
                  <path id="Trazado_585529" data-name="Trazado 585529" d="M796.835,222.667V195.382c0-1.974,1.2-2.882,2.682-2.027l19.743,11.4a6.428,6.428,0,0,1,2.682,5.125v27.285c0,1.976-1.2,2.884-2.682,2.028l-19.743-11.4A6.425,6.425,0,0,1,796.835,222.667Z" transform="translate(-649.544 -88.305)" fill="#573f3f"/>
                  <path id="Trazado_585530" data-name="Trazado 585530" d="M806.05,247.517l-6.086-3.512c-2.091-1.208-3.784-4.446-3.784-7.234V219.658c0-2.788,1.694-4.068,3.784-2.862l6.086,3.514c2.09,1.207,3.784,4.445,3.784,7.232v17.113C809.834,247.443,808.14,248.725,806.05,247.517Z" transform="translate(-649.99 -72.446)" fill="#2d2c37"/>
                  <path id="Trazado_585531" data-name="Trazado 585531" d="M796.835,237.046V219.523c0-1.974,1.2-2.882,2.682-2.027l6.086,3.512a6.428,6.428,0,0,1,2.682,5.125v17.523c0,1.976-1.2,2.884-2.682,2.028l-6.086-3.514A6.425,6.425,0,0,1,796.835,237.046Z" transform="translate(-649.544 -71.879)" fill="#573f3f"/>
                  <path id="Trazado_585532" data-name="Trazado 585532" d="M826.407,255.606a8.391,8.391,0,0,0-1.855-3.287,1.637,1.637,0,0,1-.46-1.316h0c.109-.344.61-.244,1.07.3a13.291,13.291,0,0,1,2.464,4.364c.22.667.035,1.128-.323,1.028h0A1.692,1.692,0,0,1,826.407,255.606Z" transform="translate(-631.017 -48.998)" fill="#504f58"/>
                  <path id="Trazado_585533" data-name="Trazado 585533" d="M824.463,257.833a1.785,1.785,0,0,0,1.932-1.013c.18-.294.56-.329.914,0h0a1.236,1.236,0,0,1,.279,1.39,2.743,2.743,0,0,1-2.564,1.346,1.3,1.3,0,0,1-1.057-.981h0C823.872,258.109,824.11,257.82,824.463,257.833Z" transform="translate(-631.097 -45.063)" fill="#504f58"/>
                  <path id="Trazado_585534" data-name="Trazado 585534" d="M822.969,250.786a1.784,1.784,0,0,0-1.932,1.015c-.18.294-.56.329-.914,0h0a1.242,1.242,0,0,1-.281-1.391,2.748,2.748,0,0,1,2.564-1.346,1.3,1.3,0,0,1,1.059.981h0C823.56,250.512,823.322,250.8,822.969,250.786Z" transform="translate(-633.967 -50.187)" fill="#504f58"/>
                  <path id="Trazado_585535" data-name="Trazado 585535" d="M822.565,258.047a13.261,13.261,0,0,1-2.463-4.364,1.526,1.526,0,0,1-.081-.573c-.307-.018-.46.4-.255,1.02a13.3,13.3,0,0,0,2.463,4.366c.46.539.961.64,1.07.3a.956.956,0,0,0-.025-.267A1.29,1.29,0,0,1,822.565,258.047Z" transform="translate(-634.005 -47.428)" fill="#b7b4a9"/>
                  <path id="Trazado_585536" data-name="Trazado 585536" d="M827.639,256.241a1.7,1.7,0,0,1-.9-1.087,8.4,8.4,0,0,0-1.855-3.289,1.81,1.81,0,0,1-.435-1.049.287.287,0,0,0-.361.181,1.637,1.637,0,0,0,.46,1.316,8.37,8.37,0,0,1,1.855,3.287,1.692,1.692,0,0,0,.9,1.087c.239.066.386-.129.4-.455C827.681,256.233,827.664,256.248,827.639,256.241Z" transform="translate(-631.017 -48.993)" fill="#b7b4a9"/>
                  <path id="Trazado_585537" data-name="Trazado 585537" d="M825.36,258.58a1.3,1.3,0,0,1-1.059-.981c-.02-.1.027-.153.035-.235a.517.517,0,0,0-.37.682,1.3,1.3,0,0,0,1.057.981,2.744,2.744,0,0,0,2.564-1.346c.005-.008.005-.02.01-.029A2.761,2.761,0,0,1,825.36,258.58Z" transform="translate(-631.096 -44.534)" fill="#b7b4a9"/>
                  <g id="Grupo_846184" data-name="Grupo 846184" transform="translate(185.763 199.804)">
                    <path id="Trazado_585538" data-name="Trazado 585538" d="M820.458,250.973a1.244,1.244,0,0,1-.289-1.361,2.427,2.427,0,0,0-.326.418,1.239,1.239,0,0,0,.279,1.391c.354.329.734.292.914,0a3.381,3.381,0,0,1,.306-.418C821.154,251.262,820.8,251.287,820.458,250.973Z" transform="translate(-819.73 -249.612)" fill="#b7b4a9"/>
                    <path id="Trazado_585539" data-name="Trazado 585539" d="M822.616,249.843a1.762,1.762,0,0,0-1.874.934,1.769,1.769,0,0,1,1.537-.487c.277.012.432-.2.462-.506C822.695,249.8,822.669,249.845,822.616,249.843Z" transform="translate(-819.041 -249.495)" fill="#b7b4a9"/>
                  </g>
                  <g id="Grupo_846185" data-name="Grupo 846185" transform="translate(195.45 161.639)">
                    <path id="Trazado_585540" data-name="Trazado 585540" d="M826.084,252.866h-.59l.021-16.937,3.6-9.028.548.219-3.578,8.976Z" transform="translate(-825.494 -226.901)" fill="#c9c3b9"/>
                  </g>
                  <g id="Grupo_846186" data-name="Grupo 846186" transform="translate(197.326 166.065)">
                    <path id="Trazado_585541" data-name="Trazado 585541" d="M848.794,254.63l-22.184-24.7.438-.4,22.184,24.7Z" transform="translate(-826.61 -229.535)" fill="#c9c3b9"/>
                  </g>
                </g>
                <path id="Trazado_585542" data-name="Trazado 585542" d="M903.965,219.707l-64.024,36.964v26.964l64.024-36.964Z" transform="translate(-616.762 -33.192)" fill="#e4dfd9"/>
                <path id="Trazado_585543" data-name="Trazado 585543" d="M884.513,225.288l-36.331,20.976v26.613L884.513,251.9Z" transform="translate(-611.156 -29.394)" fill="#ebe7e3"/>
                <path id="Trazado_585544" data-name="Trazado 585544" d="M881.927,227.893l-32.65,18.85v6.63l32.65-18.85Z" transform="translate(-610.411 -27.622)" fill="#554d4e"/>
                <path id="Trazado_585545" data-name="Trazado 585545" d="M881.927,234.9l-32.65,18.85v9.766l32.65-18.85Z" transform="translate(-610.411 -22.853)" fill="#554d4e"/>
                <path id="Trazado_585546" data-name="Trazado 585546" d="M880.029,233.428l-30.752,17.755v2.191l32.65-18.85v-6.63l-1.9,1.1Z" transform="translate(-610.411 -27.622)" fill="#cdc6bc"/>
                <path id="Trazado_585547" data-name="Trazado 585547" d="M880.029,236v7.574l-30.752,17.755v2.191l32.65-18.85V234.9Z" transform="translate(-610.411 -22.853)" fill="#cdc6bc"/>
                <path id="Trazado_585548" data-name="Trazado 585548" d="M848.2,266.7l64.024-36.964-20.385-24.766-64.024,36.964Z" transform="translate(-625.016 -43.22)" fill="#f3f1ee"/>
                <path id="Trazado_585549" data-name="Trazado 585549" d="M827.811,241.933l20.542,23.55,12.028-6.516,50.96-29.58-19.507-24.418,20.385,24.766L848.2,266.7Z" transform="translate(-625.016 -43.22)" fill="#faf8f5"/>
                <path id="Trazado_585550" data-name="Trazado 585550" d="M853.4,252.366l36.331-20.976L876.85,216.319l-36.331,20.976Z" transform="translate(-616.37 -35.497)" fill="#f3f1ee"/>
                <path id="Trazado_585551" data-name="Trazado 585551" d="M821.553,208.378l64.024-36.964L896.092,227.8l-64.024,36.964Z" transform="translate(-629.274 -66.051)" fill="#ebe7e3"/>
                <path id="Trazado_585552" data-name="Trazado 585552" d="M863.118,230.739l.231,1.092-31.937,18.44-7.533-43.3,31.751-18.332.231,1.094Z" transform="translate(-627.691 -54.329)" fill="#554d4e"/>
                <path id="Trazado_585553" data-name="Trazado 585553" d="M861.666,230.627l-11.609,6.7-18.386,10.617L830,238.256l-5.214-30.264-.2-1.151,17.751-10.25,12.068-6.966,4.674,26.4.951,5.38Z" transform="translate(-627.207 -53.66)" fill="#b08480"/>
                <path id="Trazado_585554" data-name="Trazado 585554" d="M879.373,221.786,851.2,238.051l-.231-1.092-7.257-41-.232-1.094,28.361-16.373Z" transform="translate(-614.354 -61.236)" fill="#554d4e"/>
                <path id="Trazado_585555" data-name="Trazado 585555" d="M877.692,220.579l-9.619,5.554L855,233.681l-3.549,2.049-1.372-7.762-.251-1.412-4.812-27.191-.822-4.638,16.358-9.443,10.06-5.809,3.766,21.861,2.946,17.105Z" transform="translate(-613.869 -60.566)" fill="#b08480"/>
                <path id="Trazado_585556" data-name="Trazado 585556" d="M869.307,219.983l-.758,1.236-4.205,2.428-8.485-4.9v-35.4l6.573-3.8Z" transform="translate(-605.932 -60.509)" fill="#d6b6b2"/>
                <path id="Trazado_585557" data-name="Trazado 585557" d="M822.033,209.965,886.057,173l-1.184-3.921-64.024,36.964Z" transform="translate(-629.753 -67.638)" fill="#f3f1ee"/>
                <path id="Trazado_585558" data-name="Trazado 585558" d="M956.016,210.155l-175.7-101.443-64.024,36.964,175.7,101.442Z" transform="translate(-700.897 -108.713)" fill="#fcfbfa"/>
                <path id="Trazado_585559" data-name="Trazado 585559" d="M905.933,236.683l-64.315,37.132v8.932l64.315-37.132Z" transform="translate(-615.622 -21.641)" fill="#554d4e"/>
                <path id="Trazado_585560" data-name="Trazado 585560" d="M838.524,244.675l-1.887,1.087v3.359l1.887-.27Z" transform="translate(-619.011 -16.203)" fill="#e07427"/>
                <path id="Trazado_585561" data-name="Trazado 585561" d="M847.424,237.383v26.964l1.272.3V238.033Z" transform="translate(-611.671 -21.164)" fill="#ded8d1"/>
                <path id="Trazado_585562" data-name="Trazado 585562" d="M843.706,249.941,716.324,176.4V172.7l127.382,73.544Z" transform="translate(-700.873 -65.173)" fill="#493f41"/>
                <g id="Grupo_846189" data-name="Grupo 846189" transform="translate(273.773 191.494)">
                  <path id="Trazado_585563" data-name="Trazado 585563" d="M870.411,240.581l8.759-5.057-8.013,1.206-.746,1.206Z" transform="translate(-869.805 -213.923)" fill="#b5aa9c"/>
                  <path id="Trazado_585564" data-name="Trazado 585564" d="M871.252,226.808l6.759-3.194c.664-.381,1.2-.076,1.2.686v14.1a2.646,2.646,0,0,1-1.2,2.072l-6.759,3.9c-.664.383-1.2.077-1.2-.684v-14.1A4.166,4.166,0,0,1,871.252,226.808Z" transform="translate(-870.05 -222.139)" fill="#b5aa9c"/>
                  <path id="Trazado_585565" data-name="Trazado 585565" d="M879.865,223.154l-.686-.4-.015-.008-.005,0h0a.861.861,0,0,0-.837.092l-6.76,3.9a2.646,2.646,0,0,0-1.2,2.07v14.1a.856.856,0,0,0,.311.743h0l0,0a.642.642,0,0,0,.081.047l.666.38.213-.528,6.688-3.862a2.644,2.644,0,0,0,1.2-2.07V224Z" transform="translate(-869.838 -222.67)" fill="#393843"/>
                  <g id="Grupo_846188" data-name="Grupo 846188" transform="translate(1.151 0.362)">
                    <path id="Trazado_585566" data-name="Trazado 585566" d="M871.936,226.953l6.759-3.9c.664-.383,1.2-.076,1.2.684v14.1a2.641,2.641,0,0,1-1.2,2.07l-6.759,3.9c-.664.383-1.2.076-1.2-.684v-14.1A2.641,2.641,0,0,1,871.936,226.953Z" transform="translate(-870.735 -222.885)" fill="#5c5b64"/>
                    <path id="Trazado_585567" data-name="Trazado 585567" d="M871.982,227.261l6.08-3.51c.45-.26.815-.055.815.459V237.17a1.786,1.786,0,0,1-.815,1.4l-6.08,3.51c-.45.26-.815.055-.815-.459V228.661A1.786,1.786,0,0,1,871.982,227.261Z" transform="translate(-870.441 -222.373)" fill="#cfcedf"/>
                    <path id="Trazado_585568" data-name="Trazado 585568" d="M879.979,224.838l-1.41-1.149-7.224,18.445,1.713.357Z" transform="translate(-870.32 -222.338)" fill="#cfcedf"/>
                    <path id="Trazado_585569" data-name="Trazado 585569" d="M872.966,227.783l5.824-3.361c.43-.249.78-.052.78.439v12.415a1.715,1.715,0,0,1-.78,1.339l-5.824,3.362c-.43.249-.78.052-.78-.439V229.124A1.718,1.718,0,0,1,872.966,227.783Z" transform="translate(-869.748 -221.912)" fill="#f3f1ee"/>
                    <path id="Trazado_585570" data-name="Trazado 585570" d="M872.147,227.466l5.823-3.362c.432-.249.781-.052.781.44v12.413a1.712,1.712,0,0,1-.781,1.341l-5.823,3.361c-.432.25-.781.052-.781-.439V228.805A1.712,1.712,0,0,1,872.147,227.466Z" transform="translate(-870.306 -222.129)" fill="#eefaf9" style="mix-blend-mode: multiply;isolation: isolate"/>
                  </g>
                  <path id="Trazado_585571" data-name="Trazado 585571" d="M871.5,241.308l8.759-5.057v-2.645l-8.759,5.057Z" transform="translate(-869.063 -215.229)" fill="#e07427"/>
                  <path id="Trazado_585572" data-name="Trazado 585572" d="M871.941,238.917l-1.087-.627,8.759-5.057,1.087.627Z" transform="translate(-869.502 -215.483)" fill="#ff9a2e"/>
                  <path id="Trazado_585573" data-name="Trazado 585573" d="M871.941,236.869l-1.087-.627v2.645l1.087.627Z" transform="translate(-869.502 -213.435)" fill="#e06f2e"/>
                </g>
                <g id="Grupo_846191" data-name="Grupo 846191" transform="translate(224.556 209.375)">
                  <path id="Trazado_585574" data-name="Trazado 585574" d="M841.121,257.522l8.759-5.057-8.013,1.206-.746,1.206Z" transform="translate(-840.516 -220.278)" fill="#b5aa9c"/>
                  <path id="Trazado_585575" data-name="Trazado 585575" d="M841.961,243.748l6.76-3.193c.662-.383,1.2-.077,1.2.684v14.1a2.648,2.648,0,0,1-1.2,2.07l-6.76,3.9c-.662.383-1.2.077-1.2-.684v-14.1A4.176,4.176,0,0,1,841.961,243.748Z" transform="translate(-840.761 -228.494)" fill="#b5aa9c"/>
                  <path id="Trazado_585576" data-name="Trazado 585576" d="M850.575,240.094l-.686-.4-.013-.008-.007,0h0a.853.853,0,0,0-.837.092l-6.759,3.9a2.646,2.646,0,0,0-1.2,2.07v14.1a.866.866,0,0,0,.311.744h0a.5.5,0,0,0,.082.047l.664.38.213-.528,6.688-3.862a2.644,2.644,0,0,0,1.2-2.07V240.943Z" transform="translate(-840.549 -229.025)" fill="#393843"/>
                  <g id="Grupo_846190" data-name="Grupo 846190" transform="translate(1.151 10.947)">
                    <path id="Trazado_585577" data-name="Trazado 585577" d="M842.646,243.893l6.76-3.9c.662-.381,1.2-.076,1.2.686v14.1a2.649,2.649,0,0,1-1.2,2.07l-6.76,3.9c-.662.383-1.2.077-1.2-.684v-14.1A2.646,2.646,0,0,1,842.646,243.893Z" transform="translate(-841.446 -239.825)" fill="#5c5b64"/>
                    <path id="Trazado_585578" data-name="Trazado 585578" d="M842.692,244.2l6.082-3.51c.449-.26.815-.054.815.459v12.963a1.8,1.8,0,0,1-.815,1.4l-6.082,3.51c-.449.259-.815.054-.815-.459V245.6A1.8,1.8,0,0,1,842.692,244.2Z" transform="translate(-841.153 -239.313)" fill="#cfcedf"/>
                    <path id="Trazado_585579" data-name="Trazado 585579" d="M850.689,241.778l-1.41-1.149-7.224,18.445,1.713.357Z" transform="translate(-841.031 -239.278)" fill="#cfcedf"/>
                    <path id="Trazado_585580" data-name="Trazado 585580" d="M843.677,244.725l5.823-3.363c.432-.249.78-.052.78.439v12.415a1.713,1.713,0,0,1-.78,1.341l-5.823,3.361c-.432.249-.781.052-.781-.439V246.064A1.712,1.712,0,0,1,843.677,244.725Z" transform="translate(-840.459 -238.853)" fill="#f3f1ee"/>
                  </g>
                  <path id="Trazado_585581" data-name="Trazado 585581" d="M842.212,258.248l8.76-5.057v-2.645l-8.76,5.057Z" transform="translate(-839.774 -221.584)" fill="#e07427"/>
                  <path id="Trazado_585582" data-name="Trazado 585582" d="M870.964,241.013l8.76-5.057v-2.645l-8.76,5.057Z" transform="translate(-820.211 -233.311)" fill="#f5ec73" style="mix-blend-mode: multiply;isolation: isolate"/>
                  <path id="Trazado_585583" data-name="Trazado 585583" d="M841.675,257.953l8.759-5.057v-2.645l-8.759,5.057Z" transform="translate(-840.139 -221.784)" fill="#f5ec73" style="mix-blend-mode: multiply;isolation: isolate"/>
                  <path id="Trazado_585584" data-name="Trazado 585584" d="M842.652,255.857l-1.086-.627,8.759-5.057,1.087.627Z" transform="translate(-840.214 -221.838)" fill="#ff9a2e"/>
                  <path id="Trazado_585585" data-name="Trazado 585585" d="M842.652,253.809l-1.086-.627v2.645l1.086.627Z" transform="translate(-840.214 -219.79)" fill="#e06f2e"/>
                </g>
                <path id="Trazado_585586" data-name="Trazado 585586" d="M795.774,269.1V189.074l-1.912-1.1v82.239l24.646,14.229.9-1.691Z" transform="translate(-648.115 -54.786)" fill="#9b897f"/>
                <path id="Trazado_585587" data-name="Trazado 585587" d="M857.844,208.538l1.631,9.22-29.995,17.32-1.669-9.691Z" transform="translate(-625.016 -40.791)" fill="#997a77"/>
                <path id="Trazado_585588" data-name="Trazado 585588" d="M875.41,205.668,849.17,220.82l-1.623-9.175,18.282-10.256,9.213,2.141Z" transform="translate(-611.587 -45.656)" fill="#997a77"/>
                <path id="Trazado_585589" data-name="Trazado 585589" d="M795.774,236.253l-1.912,1.1,24.646,14.229.9-1.691Z" transform="translate(-648.115 -21.934)" fill="#f3f1ee"/>
                <g id="Grupo_846192" data-name="Grupo 846192" transform="translate(139.304 216.288)">
                  <path id="Trazado_585590" data-name="Trazado 585590" d="M819.915,256.3l-29.887-17.255v1.875l29.887,17.255Z" transform="translate(-790.028 -236.32)" fill="#493f41"/>
                  <path id="Trazado_585591" data-name="Trazado 585591" d="M807.813,250.421l4.725-2.728v1.875l-4.725,2.728Z" transform="translate(-777.927 -230.438)" fill="#554d4e"/>
                  <path id="Trazado_585592" data-name="Trazado 585592" d="M819.915,257.407l4.725-2.728-29.886-17.255-4.725,2.728Z" transform="translate(-790.028 -237.424)" fill="#6b6164"/>
                </g>
                <path id="Trazado_585593" data-name="Trazado 585593" d="M842.836,244.28l5.823-3.361c.43-.249.78-.052.78.439v12.415a1.715,1.715,0,0,1-.78,1.339l-5.823,3.363c-.432.249-.781.052-.781-.439V245.621A1.715,1.715,0,0,1,842.836,244.28Z" transform="translate(-615.325 -18.832)" fill="#eefaf9" style="mix-blend-mode: multiply;isolation: isolate"/>
                <path id="Trazado_585594" data-name="Trazado 585594" d="M795,188.627V190.3l32.466,19.109v51.611l-10.425,20.359,1.589.918,11.182-21.092V208.725Z" transform="translate(-647.341 -54.339)" fill="#f2f1f0" style="mix-blend-mode: multiply;isolation: isolate"/>
              </g>
              <path id="Trazado_585595" data-name="Trazado 585595" d="M854.365,245.824l-17.14-20.845,18.413,21.495Z" transform="translate(-618.611 -29.605)" fill="#ded8d1"/>
              <path id="Trazado_585596" data-name="Trazado 585596" d="M880.029,231.187l1.9,1.1-32.65,18.85v-2.191Z" transform="translate(-610.411 -25.381)" fill="#f3f1ee"/>
              <path id="Trazado_585597" data-name="Trazado 585597" d="M880.029,240.061l1.9,1.1-32.65,18.85v-2.191Z" transform="translate(-610.411 -19.343)" fill="#f3f1ee"/>
              <path id="Trazado_585598" data-name="Trazado 585598" d="M843.888,189.625l1.213,6.854-5.046-4.64Z" transform="translate(-616.686 -53.66)" fill="#cbcadd"/>
              <path id="Trazado_585599" data-name="Trazado 585599" d="M853.741,185.271v20.21c0,1.974-1.2,2.882-2.682,2.025l-4.663-4.285-2.2-12.44Z" transform="translate(-613.868 -56.622)" fill="#cbcadd"/>
              <path id="Trazado_585600" data-name="Trazado 585600" d="M845.1,196.478l-5.046-4.64,3.833-2.213Z" transform="translate(-616.686 -53.66)" fill="#d6b6b2"/>
              <path id="Trazado_585601" data-name="Trazado 585601" d="M844.195,190.781l9.546-5.51v20.21c0,1.974-1.2,2.882-2.682,2.025l-4.663-4.285Z" transform="translate(-613.868 -56.622)" fill="#d6b6b2"/>
              <g id="Grupo_846202" data-name="Grupo 846202" transform="translate(19.603 3.181)">
                <g id="Grupo_846194" data-name="Grupo 846194" transform="translate(0 31.767)">
                  <path id="Trazado_585602" data-name="Trazado 585602" d="M889.6,229.19,718.795,130.434l1.2-.691L890.016,229.19Z" transform="translate(-718.795 -129.351)" fill="#ebe7e3"/>
                  <path id="Trazado_585603" data-name="Trazado 585603" d="M889.848,228.956,719.042,130.2l1.2-.691,170.806,98.756Z" transform="translate(-718.627 -129.51)" fill="#fcfbfa"/>
                  <path id="Trazado_585604" data-name="Trazado 585604" d="M820.688,188.969v.392l1.2-.691v-.392Z" transform="translate(-649.466 -89.523)" fill="#ebe7e3"/>
                  <path id="Trazado_585605" data-name="Trazado 585605" d="M889.848,229.069,719.042,130.313v-.392l170.806,98.756Z" transform="translate(-718.627 -129.23)" fill="#cdc6bc"/>
                </g>
                <g id="Grupo_846195" data-name="Grupo 846195" transform="translate(7.86 27.228)">
                  <path id="Trazado_585606" data-name="Trazado 585606" d="M894.279,226.489,723.472,127.733l1.2-.691,170.025,99.447Z" transform="translate(-723.472 -126.65)" fill="#ebe7e3"/>
                  <path id="Trazado_585607" data-name="Trazado 585607" d="M894.526,226.256,723.719,127.5l1.2-.691,170.806,98.756Z" transform="translate(-723.304 -126.809)" fill="#fcfbfa"/>
                  <path id="Trazado_585608" data-name="Trazado 585608" d="M825.365,186.269v.392l1.2-.691v-.392Z" transform="translate(-654.144 -86.822)" fill="#ebe7e3"/>
                  <path id="Trazado_585609" data-name="Trazado 585609" d="M894.526,226.369,723.719,127.612v-.392l170.806,98.756Z" transform="translate(-723.304 -126.529)" fill="#cdc6bc"/>
                </g>
                <g id="Grupo_846196" data-name="Grupo 846196" transform="translate(15.72 22.69)">
                  <path id="Trazado_585610" data-name="Trazado 585610" d="M898.956,223.789,728.15,125.032l1.2-.691,170.025,99.447Z" transform="translate(-728.15 -123.95)" fill="#ebe7e3"/>
                  <path id="Trazado_585611" data-name="Trazado 585611" d="M899.2,223.555,728.4,124.8l1.2-.691L900.4,222.865Z" transform="translate(-727.982 -124.108)" fill="#fcfbfa"/>
                  <path id="Trazado_585612" data-name="Trazado 585612" d="M830.043,183.568v.392l1.2-.691v-.392Z" transform="translate(-658.821 -84.122)" fill="#ebe7e3"/>
                  <path id="Trazado_585613" data-name="Trazado 585613" d="M899.2,223.668,728.4,124.912v-.392L899.2,223.276Z" transform="translate(-727.982 -123.829)" fill="#cdc6bc"/>
                </g>
                <g id="Grupo_846197" data-name="Grupo 846197" transform="translate(23.581 18.152)">
                  <path id="Trazado_585614" data-name="Trazado 585614" d="M903.634,221.088,732.827,122.332l1.2-.691,170.025,99.447Z" transform="translate(-732.827 -121.249)" fill="#ebe7e3"/>
                  <path id="Trazado_585615" data-name="Trazado 585615" d="M903.881,220.855,733.074,122.1l1.2-.691,170.806,98.756Z" transform="translate(-732.659 -121.408)" fill="#fcfbfa"/>
                  <path id="Trazado_585616" data-name="Trazado 585616" d="M834.72,180.868v.392l1.2-.691v-.392Z" transform="translate(-663.499 -81.421)" fill="#ebe7e3"/>
                  <path id="Trazado_585617" data-name="Trazado 585617" d="M903.881,220.967,733.074,122.211v-.392l170.806,98.756Z" transform="translate(-732.659 -121.128)" fill="#cdc6bc"/>
                </g>
                <g id="Grupo_846198" data-name="Grupo 846198" transform="translate(31.441 13.614)">
                  <path id="Trazado_585618" data-name="Trazado 585618" d="M908.311,218.388,737.505,119.631l1.2-.691,170.025,99.447Z" transform="translate(-737.505 -118.548)" fill="#ebe7e3"/>
                  <path id="Trazado_585619" data-name="Trazado 585619" d="M908.558,218.154,737.752,119.4l1.2-.691,170.806,98.756Z" transform="translate(-737.337 -118.707)" fill="#fcfbfa"/>
                  <path id="Trazado_585620" data-name="Trazado 585620" d="M839.4,178.167v.392l1.2-.691v-.392Z" transform="translate(-668.177 -78.72)" fill="#ebe7e3"/>
                  <path id="Trazado_585621" data-name="Trazado 585621" d="M908.558,218.267,737.752,119.511v-.392l170.806,98.756Z" transform="translate(-737.337 -118.428)" fill="#cdc6bc"/>
                </g>
                <g id="Grupo_846199" data-name="Grupo 846199" transform="translate(39.301 9.076)">
                  <path id="Trazado_585622" data-name="Trazado 585622" d="M912.989,215.687,742.182,116.931l1.2-.691L913.4,215.687Z" transform="translate(-742.182 -115.848)" fill="#ebe7e3"/>
                  <path id="Trazado_585623" data-name="Trazado 585623" d="M913.236,215.453,742.429,116.7l1.2-.691,170.806,98.756Z" transform="translate(-742.015 -116.007)" fill="#fcfbfa"/>
                  <path id="Trazado_585624" data-name="Trazado 585624" d="M844.075,175.466v.392l1.2-.691v-.392Z" transform="translate(-672.854 -76.02)" fill="#ebe7e3"/>
                  <path id="Trazado_585625" data-name="Trazado 585625" d="M913.236,215.566,742.429,116.81v-.392l170.806,98.756Z" transform="translate(-742.015 -115.727)" fill="#cdc6bc"/>
                </g>
                <g id="Grupo_846200" data-name="Grupo 846200" transform="translate(47.161 4.538)">
                  <path id="Trazado_585626" data-name="Trazado 585626" d="M917.666,212.986,746.86,114.23l1.2-.691,170.025,99.447Z" transform="translate(-746.86 -113.147)" fill="#ebe7e3"/>
                  <path id="Trazado_585627" data-name="Trazado 585627" d="M917.913,212.753,747.107,114l1.2-.691,170.806,98.756Z" transform="translate(-746.692 -113.306)" fill="#fcfbfa"/>
                  <path id="Trazado_585628" data-name="Trazado 585628" d="M848.753,172.766v.392l1.2-.691v-.392Z" transform="translate(-677.532 -73.319)" fill="#ebe7e3"/>
                  <path id="Trazado_585629" data-name="Trazado 585629" d="M917.913,212.866,747.107,114.109v-.392l170.806,98.756Z" transform="translate(-746.692 -113.027)" fill="#cdc6bc"/>
                </g>
                <g id="Grupo_846201" data-name="Grupo 846201" transform="translate(55.022)">
                  <path id="Trazado_585630" data-name="Trazado 585630" d="M922.344,210.286,751.538,111.53l1.2-.691,170.025,99.447Z" transform="translate(-751.538 -110.447)" fill="#ebe7e3"/>
                  <path id="Trazado_585631" data-name="Trazado 585631" d="M922.591,210.052,751.785,111.3l1.2-.69,170.806,98.756Z" transform="translate(-751.37 -110.606)" fill="#fcfbfa"/>
                  <path id="Trazado_585632" data-name="Trazado 585632" d="M853.43,170.065v.392l1.2-.691v-.392Z" transform="translate(-682.209 -70.619)" fill="#ebe7e3"/>
                  <path id="Trazado_585633" data-name="Trazado 585633" d="M922.591,210.165,751.785,111.409v-.392l170.806,98.756Z" transform="translate(-751.37 -110.326)" fill="#cdc6bc"/>
                </g>
              </g>
              <g id="Grupo_846206" data-name="Grupo 846206" transform="translate(204.241 110.024)">
                <g id="Grupo_846203" data-name="Grupo 846203" transform="translate(0 13.253)">
                  <path id="Trazado_585634" data-name="Trazado 585634" d="M831.489,185.668l-2.817-1.612,2.227-1.325,2.19,2.937Z" transform="translate(-828.672 -181.627)" fill="#ebe7e3"/>
                  <path id="Trazado_585635" data-name="Trazado 585635" d="M831.3,185.462l2.227-1.325v-1.1l-2.227,1.325Z" transform="translate(-826.883 -181.421)" fill="#e07427"/>
                  <path id="Trazado_585636" data-name="Trazado 585636" d="M832.441,185.012l-2.817-1.612,2.227-1.325,2.817,1.612Z" transform="translate(-828.024 -182.074)" fill="#ff9a2e"/>
                  <path id="Trazado_585637" data-name="Trazado 585637" d="M832.441,184.475l-2.817-1.612v1.1l2.817,1.612Z" transform="translate(-828.024 -181.537)" fill="#e06f2e"/>
                </g>
                <g id="Grupo_846204" data-name="Grupo 846204" transform="translate(11.135 6.626)">
                  <path id="Trazado_585638" data-name="Trazado 585638" d="M838.115,181.725l-2.817-1.612,2.227-1.325,2.19,2.937Z" transform="translate(-835.298 -177.684)" fill="#ebe7e3"/>
                  <path id="Trazado_585639" data-name="Trazado 585639" d="M837.927,181.519l2.227-1.325v-1.1l-2.227,1.325Z" transform="translate(-833.51 -177.478)" fill="#e07427"/>
                  <path id="Trazado_585640" data-name="Trazado 585640" d="M839.068,181.068l-2.817-1.612,2.227-1.325,2.817,1.612Z" transform="translate(-834.65 -178.131)" fill="#ff9a2e"/>
                  <path id="Trazado_585641" data-name="Trazado 585641" d="M839.068,180.532l-2.817-1.612v1.1l2.817,1.612Z" transform="translate(-834.65 -177.594)" fill="#e06f2e"/>
                </g>
                <g id="Grupo_846205" data-name="Grupo 846205" transform="translate(22.271)">
                  <path id="Trazado_585642" data-name="Trazado 585642" d="M844.742,177.782l-2.817-1.612,2.227-1.325,2.19,2.937Z" transform="translate(-841.925 -173.741)" fill="#ebe7e3"/>
                  <path id="Trazado_585643" data-name="Trazado 585643" d="M844.553,177.576l2.227-1.325v-1.1l-2.227,1.325Z" transform="translate(-840.136 -173.535)" fill="#e07427"/>
                  <path id="Trazado_585644" data-name="Trazado 585644" d="M845.694,177.125l-2.817-1.612,2.227-1.325,2.817,1.612Z" transform="translate(-841.277 -174.188)" fill="#ff9a2e"/>
                  <path id="Trazado_585645" data-name="Trazado 585645" d="M845.694,176.588l-2.817-1.612v1.1l2.817,1.612Z" transform="translate(-841.277 -173.651)" fill="#e06f2e"/>
                </g>
              </g>
              <path id="Trazado_585646" data-name="Trazado 585646" d="M841.527,228.439l14.607-8.433L853.3,216.54l-14.607,8.433Z" transform="translate(-617.611 -35.347)" fill="#cdc6bc"/>
              <path id="Trazado_585647" data-name="Trazado 585647" d="M853.665,221.386l14.607-8.433-2.833-3.467-14.607,8.433Z" transform="translate(-609.353 -40.146)" fill="#cdc6bc"/>
              <path id="Trazado_585648" data-name="Trazado 585648" d="M844.173,217.835a.657.657,0,0,0,1.052-.126,1.073,1.073,0,0,0-.094-1.3.657.657,0,0,0-1.052.126A1.074,1.074,0,0,0,844.173,217.835Z" transform="translate(-614.065 -35.575)" fill="#493f41"/>
              <path id="Trazado_585649" data-name="Trazado 585649" d="M844.2,217.7a.573.573,0,0,0,.917-.113.933.933,0,0,0-.082-1.131.562.562,0,0,0-.859.037.7.7,0,0,0-.059.076A.937.937,0,0,0,844.2,217.7Z" transform="translate(-614.027 -35.528)" fill="#493f41"/>
              <path id="Trazado_585650" data-name="Trazado 585650" d="M844.4,216.274a3.566,3.566,0,0,1,.669.109c.163.069.1,1.213.1,1.213a2.666,2.666,0,0,1-.709.279C844.136,217.931,844.4,216.274,844.4,216.274Z" transform="translate(-613.799 -35.527)" fill="#493f41"/>
              <path id="Trazado_585651" data-name="Trazado 585651" d="M844.585,217.454a.451.451,0,0,0,.721-.087.736.736,0,0,0-.064-.889.451.451,0,0,0-.723.087A.736.736,0,0,0,844.585,217.454Z" transform="translate(-613.729 -35.486)" fill="#5c504e"/>
              <path id="Trazado_585652" data-name="Trazado 585652" d="M860.035,218.587l1.631,9.22-11.609,6.7-25.269-29.338-.2-1.151,17.751-10.25,16.742,19.437Z" transform="translate(-627.207 -50.839)" fill="#383838" style="mix-blend-mode: screen;isolation: isolate"/>
              <path id="Trazado_585653" data-name="Trazado 585653" d="M852.618,214.045l-3.549,2.049-1.372-7.762Z" transform="translate(-611.486 -40.931)" fill="#383838" style="mix-blend-mode: screen;isolation: isolate"/>
              <path id="Trazado_585654" data-name="Trazado 585654" d="M877.692,218.227l-9.619,5.554-23.056-26.769-.822-4.638,16.358-9.443,13.826,16.052,2.946,17.105Z" transform="translate(-613.869 -58.214)" fill="#383838" style="mix-blend-mode: screen;isolation: isolate"/>
              <path id="Trazado_585655" data-name="Trazado 585655" d="M854.618,255.366l-4.077,2.354v-1.811l4.077-2.354Z" transform="translate(-609.551 -10.161)" fill="#493f41"/>
              <path id="Trazado_585656" data-name="Trazado 585656" d="M854.111,255.108l-3.355,1.937v-1.339l3.355-1.937Z" transform="translate(-609.404 -10.016)" fill="#e06f2e"/>
              <path id="Trazado_585657" data-name="Trazado 585657" d="M871.594,244.745l-3.355,1.937v-1.339l3.355-1.937Z" transform="translate(-597.508 -17.067)" fill="#e06f2e"/>
              <path id="Trazado_585658" data-name="Trazado 585658" d="M840.636,217.4l-.922.872,7.755-.787-.084-1.1Z" transform="translate(-616.917 -35.452)" fill="#493f41"/>
              <path id="Trazado_585659" data-name="Trazado 585659" d="M853.667,215.419c-.079.008-21.983,11.371-21.983,11.371l-.235-.692,21.344-11.543Z" transform="translate(-622.541 -36.697)" fill="#5c504e"/>
            </g>
            <g id="Grupo_846210" data-name="Grupo 846210" transform="translate(73.815 94.03)">
              <g id="Grupo_846208" data-name="Grupo 846208" transform="translate(0.025 1.172)">
                <path id="Trazado_585660" data-name="Trazado 585660" d="M797.176,227.686a6.4,6.4,0,0,1-3.176-.938l-35.917-20.738c-3.932-2.27-7.012-8.106-7.012-13.287V172.23c0-2.936,1.035-5.219,2.84-6.259a5.317,5.317,0,0,1,5.448.334l35.917,20.738c3.934,2.272,7.012,8.108,7.012,13.287v20.5c0,2.936-1.035,5.218-2.838,6.258A4.483,4.483,0,0,1,797.176,227.686Zm-1.9-3.144a2.967,2.967,0,0,0,2.9.334c.98-.566,1.566-2.08,1.566-4.051v-20.5c0-4.209-2.63-9.283-5.742-11.079l-35.917-20.74a2.971,2.971,0,0,0-2.9-.334c-.98.566-1.566,2.08-1.566,4.053v20.494c0,4.211,2.631,9.284,5.742,11.081Z" transform="translate(-751.071 -165.367)" fill="#e9e5e1"/>
              </g>
              <g id="Grupo_846209" data-name="Grupo 846209">
                <path id="Trazado_585661" data-name="Trazado 585661" d="M797.163,226.988a6.355,6.355,0,0,1-3.173-.938l-35.922-20.738c-3.932-2.27-7.012-8.106-7.012-13.287V171.531c0-2.936,1.037-5.218,2.843-6.261a5.319,5.319,0,0,1,5.446.338l35.92,20.74c3.932,2.27,7.012,8.1,7.012,13.285v20.494c0,2.936-1.035,5.218-2.84,6.261A4.525,4.525,0,0,1,797.163,226.988Zm-40.984-59.77a1.988,1.988,0,0,0-1.007.26c-.981.566-1.569,2.082-1.569,4.053v20.494c0,4.209,2.63,9.284,5.742,11.081l35.92,20.738a2.955,2.955,0,0,0,2.9.336c.98-.566,1.568-2.082,1.568-4.053V199.633c0-4.209-2.63-9.283-5.74-11.079l-35.922-20.74A3.947,3.947,0,0,0,756.18,167.218Z" transform="translate(-751.056 -164.67)" fill="#d9d3cc"/>
              </g>
            </g>
            <g id="Grupo_846213" data-name="Grupo 846213" transform="translate(17.925 61.762)">
              <g id="Grupo_846211" data-name="Grupo 846211" transform="translate(0.023 1.171)">
                <path id="Trazado_585662" data-name="Trazado 585662" d="M763.915,208.484a6.4,6.4,0,0,1-3.174-.938l-35.919-20.74c-3.932-2.269-7.012-8.1-7.012-13.285V153.027c0-2.937,1.035-5.218,2.84-6.261a5.314,5.314,0,0,1,5.448.338l35.919,20.738c3.932,2.27,7.012,8.1,7.012,13.285v20.5c0,2.936-1.035,5.218-2.84,6.259A4.5,4.5,0,0,1,763.915,208.484Zm-1.9-3.146a2.952,2.952,0,0,0,2.9.338c.983-.566,1.568-2.082,1.568-4.053v-20.5c0-4.209-2.63-9.283-5.74-11.079L724.822,149.31a2.964,2.964,0,0,0-2.9-.338c-.983.568-1.568,2.082-1.568,4.055v20.494c0,4.209,2.63,9.284,5.74,11.079Z" transform="translate(-717.81 -146.164)" fill="#e9e5e1"/>
              </g>
              <g id="Grupo_846212" data-name="Grupo 846212">
                <path id="Trazado_585663" data-name="Trazado 585663" d="M763.9,207.786a6.379,6.379,0,0,1-3.173-.939l-35.92-20.738c-3.932-2.272-7.012-8.106-7.012-13.285v-20.5c0-2.936,1.035-5.218,2.84-6.26a5.321,5.321,0,0,1,5.448.336L762,167.143c3.932,2.272,7.012,8.108,7.012,13.287v20.494c0,2.936-1.035,5.218-2.842,6.26A4.479,4.479,0,0,1,763.9,207.786Zm-40.983-59.772a1.973,1.973,0,0,0-1.007.262c-.98.566-1.568,2.08-1.568,4.051v20.5c0,4.208,2.63,9.281,5.74,11.079L762,204.641a2.956,2.956,0,0,0,2.9.336c.981-.566,1.57-2.082,1.57-4.053V180.429c0-4.209-2.63-9.283-5.742-11.081l-35.92-20.738A3.971,3.971,0,0,0,722.918,148.014Z" transform="translate(-717.796 -145.467)" fill="#d9d3cc"/>
              </g>
            </g>
            <path id="Trazado_585664" data-name="Trazado 585664" d="M842.795,244.539,715.412,170.995V167.3l127.382,73.544Z" transform="translate(-701.493 -68.849)" fill="#f5b53d"/>
            <path id="Trazado_585665" data-name="Trazado 585665" d="M861.538,207.777a.656.656,0,0,0,1.052-.128,1.074,1.074,0,0,0-.094-1.3.656.656,0,0,0-1.052.128A1.073,1.073,0,0,0,861.538,207.777Z" transform="translate(-602.25 -42.42)" fill="#493f41"/>
            <path id="Trazado_585666" data-name="Trazado 585666" d="M861.562,207.639a.572.572,0,0,0,.917-.111.937.937,0,0,0-.082-1.131.565.565,0,0,0-.86.035.9.9,0,0,0,.025,1.207Z" transform="translate(-602.212 -42.372)" fill="#493f41"/>
            <path id="Trazado_585667" data-name="Trazado 585667" d="M861.764,206.215a3.542,3.542,0,0,1,.669.109c.163.069.1,1.213.1,1.213a2.692,2.692,0,0,1-.707.277C861.5,207.87,861.764,206.215,861.764,206.215Z" transform="translate(-601.983 -42.372)" fill="#493f41"/>
            <path id="Trazado_585668" data-name="Trazado 585668" d="M861.949,207.394a.449.449,0,0,0,.721-.087.736.736,0,0,0-.064-.889.45.45,0,0,0-.721.087A.735.735,0,0,0,861.949,207.394Z" transform="translate(-601.913 -42.331)" fill="#5c504e"/>
            <path id="Trazado_585669" data-name="Trazado 585669" d="M858,207.337l-.922.872,7.755-.787-.084-1.1Z" transform="translate(-605.102 -42.296)" fill="#493f41"/>
            <path id="Trazado_585670" data-name="Trazado 585670" d="M871.032,205.36c-.079.008-21.983,11.371-21.983,11.371l-.235-.694,21.344-11.543Z" transform="translate(-610.726 -43.542)" fill="#5c504e"/>
            <path id="Trazado_585671" data-name="Trazado 585671" d="M879.092,216.318l11.913,14.862-35.182,20.343-18.6-20.653,18.413,21.495,36.331-20.975Z" transform="translate(-618.611 -35.497)" fill="#faf8f5"/>
          </g>
          <path id="Trazado_585672" data-name="Trazado 585672" d="M856.324,265.075l10.365-5.984a4.405,4.405,0,0,0,1.84-3.515v-5.913c0-1.356-.823-1.978-1.84-1.391l-10.365,5.984a4.405,4.405,0,0,0-1.84,3.515v5.915C854.484,265.04,855.307,265.664,856.324,265.075Z" transform="translate(-606.868 -13.906)" fill="#faf8f5"/>
          <path id="Trazado_585673" data-name="Trazado 585673" d="M868.869,249.805v5.923a4.413,4.413,0,0,1-1.855,3.509l-10.371,5.974c-1.017.585-1.83-.027-1.83-1.373v-5.923a4.388,4.388,0,0,1,1.83-3.507l10.371-6C868.031,247.822,868.869,248.459,868.869,249.805Z" transform="translate(-606.644 -13.812)" fill="#ebe7e3"/>
          <path id="Trazado_585674" data-name="Trazado 585674" d="M868.869,249.805v.66l-14.057,8.11v-.66a4.388,4.388,0,0,1,1.83-3.507l10.371-6C868.031,247.822,868.869,248.459,868.869,249.805Z" transform="translate(-606.644 -13.812)" fill="#ff8e8c" style="mix-blend-mode: multiply;isolation: isolate"/>
          <g id="Grupo_846215" data-name="Grupo 846215" transform="translate(3.534 109.913)">
            <path id="Trazado_585675" data-name="Trazado 585675" d="M713.431,199c0-.155-.044-11.985-.032-19.068-1.3-.627-2.675-1.3-3.448-1.711l-.719-.385.2-.963c.38-1.084,3.8-2.934,4.937-2.736a1.14,1.14,0,0,1,.965,1.158c-.012.649-.022,1.872-.027,3.436,1.284.612,2.314,1.094,2.337,1.1a2.4,2.4,0,0,0,2.635.079l1.307-.835,1.029,1.606-1.307.835a4.222,4.222,0,0,1-4.589-.025c-.03-.01-.6-.274-1.413-.657-.01,7.122.029,18.006.029,18.153Zm-1.554-21.933c.462.23.988.489,1.529.751,0-.6.005-1.131.01-1.578A11.792,11.792,0,0,0,711.877,177.065Z" transform="translate(-709.232 -174.121)" fill="#898184"/>
          </g>
          <path id="Trazado_585676" data-name="Trazado 585676" d="M713.357,188.758a1.491,1.491,0,0,0-1.349,0,.41.41,0,0,0,.005.778,1.488,1.488,0,0,0,1.348,0A.412.412,0,0,0,713.357,188.758Z" transform="translate(-703.999 -54.36)" fill="#898184"/>
          <path id="Trazado_585677" data-name="Trazado 585677" d="M716.487,177.524a1.486,1.486,0,0,0,.694,1.154c.375.208.672.027.664-.4a1.5,1.5,0,0,0-.694-1.156C716.776,176.911,716.479,177.092,716.487,177.524Z" transform="translate(-700.762 -62.228)" fill="#898184"/>
        </g>
        <g id="Grupo_846222" data-name="Grupo 846222" transform="translate(70.008 189.61)">
          <g id="Grupo_846218" data-name="Grupo 846218">
            <g id="Grupo_846217" data-name="Grupo 846217">
              <path id="Trazado_585678" data-name="Trazado 585678" d="M775.658,277.122,748.79,261.61V230.78l26.868,15.512Z" transform="translate(-748.79 -215.268)" fill="#eac87c"/>
              <path id="Trazado_585679" data-name="Trazado 585679" d="M748.79,230.78l26.868,15.512-14.5-7.756Z" transform="translate(-748.79 -215.268)" fill="#a88b4e"/>
              <path id="Trazado_585680" data-name="Trazado 585680" d="M764.779,277.122l26.868-15.512V230.78l-26.868,15.512Z" transform="translate(-737.911 -215.268)" fill="#cfaf6c"/>
              <path id="Trazado_585681" data-name="Trazado 585681" d="M775.658,252.573l26.868-15.512-26.868-15.512L748.79,237.061Z" transform="translate(-748.79 -221.549)" fill="#fddb93"/>
              <path id="Trazado_585682" data-name="Trazado 585682" d="M759.322,249.04,755,246.547V234.368l4.317,2.492Z" transform="translate(-744.562 -212.826)" fill="#f4d795"/>
              <path id="Trazado_585683" data-name="Trazado 585683" d="M759.322,243.141l26.868-15.512-4.317-2.492L755,240.649Z" transform="translate(-744.562 -219.107)" fill="#ffeaba"/>
              <path id="Trazado_585684" data-name="Trazado 585684" d="M791.647,230.78l-26.868,15.512,14.5-7.756Z" transform="translate(-737.911 -215.268)" fill="#a88b4e"/>
              <path id="Trazado_585685" data-name="Trazado 585685" d="M771.714,249.2l4.317-2.492V234.523l-4.317,2.492Z" transform="translate(-733.193 -212.72)" fill="#bd9f5e"/>
              <path id="Trazado_585686" data-name="Trazado 585686" d="M782.593,243.3l-26.868-15.512,4.317-2.492L786.91,240.8Z" transform="translate(-744.071 -219.001)" fill="#756b56" style="mix-blend-mode: screen;isolation: isolate"/>
              <path id="Trazado_585687" data-name="Trazado 585687" d="M783.782,241.671l-26.868-15.512.3-.172L784.079,241.5Z" transform="translate(-743.263 -218.528)" fill="#ecd097"/>
              <path id="Trazado_585688" data-name="Trazado 585688" d="M771.714,237.016v.5l2.632-1.408,1.685-1.057v-.53Z" transform="translate(-733.193 -212.72)" fill="#cfaf6c"/>
            </g>
            <path id="Trazado_585689" data-name="Trazado 585689" d="M756.932,236.095l2.39,1.279v-.513L755,234.368v.519Z" transform="translate(-744.562 -212.826)" fill="#cfaf6c"/>
          </g>
          <g id="Grupo_846221" data-name="Grupo 846221" transform="translate(28.508 28.413)">
            <g id="Grupo_846219" data-name="Grupo 846219">
              <path id="Trazado_585690" data-name="Trazado 585690" d="M765.755,241.73l5.67-3.273v6.508l-5.67,3.273Zm5.3-2.628-4.924,2.843v5.648l4.924-2.843Z" transform="translate(-765.755 -238.457)" fill="#a88b4e"/>
            </g>
            <g id="Grupo_846220" data-name="Grupo 846220" transform="translate(0.98 2.445)">
              <path id="Trazado_585691" data-name="Trazado 585691" d="M767.07,244.657l1.251-.722v-3.278l-1.251.722Z" transform="translate(-765.84 -239.405)" fill="#a88b4e"/>
              <path id="Trazado_585692" data-name="Trazado 585692" d="M766.338,243.221l3.71-2.142-1.855-1.167Z" transform="translate(-766.338 -239.912)" fill="#a88b4e"/>
            </g>
          </g>
        </g>
        <g id="Grupo_846228" data-name="Grupo 846228" transform="translate(8.863 183.154)">
          <g id="Grupo_846224" data-name="Grupo 846224">
            <g id="Grupo_846223" data-name="Grupo 846223">
              <path id="Trazado_585693" data-name="Trazado 585693" d="M739.271,273.28,712.4,257.768V226.938l26.867,15.512Z" transform="translate(-712.404 -211.426)" fill="#eac87c"/>
              <path id="Trazado_585694" data-name="Trazado 585694" d="M712.4,226.938l26.867,15.512-14.5-7.756Z" transform="translate(-712.404 -211.426)" fill="#a88b4e"/>
              <path id="Trazado_585695" data-name="Trazado 585695" d="M728.392,273.28l26.868-15.512V226.938L728.392,242.45Z" transform="translate(-701.525 -211.426)" fill="#cfaf6c"/>
              <path id="Trazado_585696" data-name="Trazado 585696" d="M739.271,248.731l26.868-15.512-26.868-15.512L712.4,233.219Z" transform="translate(-712.404 -217.707)" fill="#fddb93"/>
              <path id="Trazado_585697" data-name="Trazado 585697" d="M722.935,245.2l-4.317-2.492V230.526l4.317,2.492Z" transform="translate(-708.175 -208.984)" fill="#f4d795"/>
              <path id="Trazado_585698" data-name="Trazado 585698" d="M722.935,239.3,749.8,223.787l-4.317-2.492-26.868,15.512Z" transform="translate(-708.175 -215.265)" fill="#ffeaba"/>
              <path id="Trazado_585699" data-name="Trazado 585699" d="M755.26,226.938,728.392,242.45l14.5-7.756Z" transform="translate(-701.525 -211.426)" fill="#a88b4e"/>
              <path id="Trazado_585700" data-name="Trazado 585700" d="M735.328,245.353l4.317-2.492v-12.18l-4.317,2.492Z" transform="translate(-696.806 -208.878)" fill="#bd9f5e"/>
              <path id="Trazado_585701" data-name="Trazado 585701" d="M746.207,239.455l-26.868-15.512,4.317-2.492,26.868,15.512Z" transform="translate(-707.685 -215.159)" fill="#756b56" style="mix-blend-mode: screen;isolation: isolate"/>
              <path id="Trazado_585702" data-name="Trazado 585702" d="M747.395,237.829l-26.868-15.512.3-.172,26.868,15.512Z" transform="translate(-706.876 -214.686)" fill="#ecd097"/>
              <path id="Trazado_585703" data-name="Trazado 585703" d="M735.328,233.174v.5l2.632-1.408,1.685-1.057v-.53Z" transform="translate(-696.806 -208.878)" fill="#cfaf6c"/>
            </g>
            <path id="Trazado_585704" data-name="Trazado 585704" d="M720.545,232.253l2.39,1.279v-.513l-4.317-2.492v.519Z" transform="translate(-708.175 -208.984)" fill="#cfaf6c"/>
          </g>
          <g id="Grupo_846227" data-name="Grupo 846227" transform="translate(28.507 28.411)">
            <g id="Grupo_846225" data-name="Grupo 846225">
              <path id="Trazado_585705" data-name="Trazado 585705" d="M729.368,237.889l5.67-3.275v6.51l-5.67,3.273Zm5.3-2.628-4.924,2.843v5.648l4.924-2.843Z" transform="translate(-729.368 -234.614)" fill="#a88b4e"/>
            </g>
            <g id="Grupo_846226" data-name="Grupo 846226" transform="translate(0.98 2.447)">
              <path id="Trazado_585706" data-name="Trazado 585706" d="M730.683,240.815l1.251-.722v-3.278l-1.251.722Z" transform="translate(-729.453 -235.563)" fill="#a88b4e"/>
              <path id="Trazado_585707" data-name="Trazado 585707" d="M729.951,239.379l3.71-2.142-1.855-1.167Z" transform="translate(-729.951 -236.07)" fill="#a88b4e"/>
            </g>
          </g>
        </g>
        <g id="Grupo_846234" data-name="Grupo 846234" transform="translate(30.098 216.722)">
          <g id="Grupo_846230" data-name="Grupo 846230">
            <g id="Grupo_846229" data-name="Grupo 846229">
              <path id="Trazado_585708" data-name="Trazado 585708" d="M751.908,293.256,725.04,277.744V246.914l26.868,15.512Z" transform="translate(-725.04 -231.402)" fill="#eac87c"/>
              <path id="Trazado_585709" data-name="Trazado 585709" d="M725.04,246.914l26.868,15.512-14.5-7.756Z" transform="translate(-725.04 -231.402)" fill="#a88b4e"/>
              <path id="Trazado_585710" data-name="Trazado 585710" d="M741.029,293.256,767.9,277.744V246.914l-26.868,15.512Z" transform="translate(-714.161 -231.402)" fill="#cfaf6c"/>
              <path id="Trazado_585711" data-name="Trazado 585711" d="M751.908,268.707l26.868-15.512-26.868-15.512L725.04,253.195Z" transform="translate(-725.04 -237.683)" fill="#fddb93"/>
              <path id="Trazado_585712" data-name="Trazado 585712" d="M735.572,265.174l-4.317-2.492V250.5l4.317,2.492Z" transform="translate(-720.812 -228.961)" fill="#f4d795"/>
              <path id="Trazado_585713" data-name="Trazado 585713" d="M735.572,259.275l26.868-15.512-4.317-2.492-26.868,15.512Z" transform="translate(-720.812 -235.242)" fill="#ffeaba"/>
              <path id="Trazado_585714" data-name="Trazado 585714" d="M767.9,246.914l-26.868,15.512,14.5-7.756Z" transform="translate(-714.161 -231.402)" fill="#a88b4e"/>
              <path id="Trazado_585715" data-name="Trazado 585715" d="M747.965,265.33l4.317-2.492V250.658l-4.317,2.492Z" transform="translate(-709.443 -228.855)" fill="#bd9f5e"/>
              <path id="Trazado_585716" data-name="Trazado 585716" d="M758.843,259.431l-26.868-15.512,4.317-2.492,26.868,15.512Z" transform="translate(-720.321 -235.136)" fill="#756b56" style="mix-blend-mode: screen;isolation: isolate"/>
              <path id="Trazado_585717" data-name="Trazado 585717" d="M760.032,257.805l-26.868-15.512.3-.172,26.868,15.512Z" transform="translate(-719.513 -234.662)" fill="#ecd097"/>
              <path id="Trazado_585718" data-name="Trazado 585718" d="M747.965,253.15v.5l2.632-1.408,1.685-1.057v-.53Z" transform="translate(-709.443 -228.855)" fill="#cfaf6c"/>
            </g>
            <path id="Trazado_585719" data-name="Trazado 585719" d="M733.182,252.229l2.39,1.279v-.513l-4.317-2.492v.519Z" transform="translate(-720.812 -228.961)" fill="#cfaf6c"/>
          </g>
          <g id="Grupo_846233" data-name="Grupo 846233" transform="translate(28.508 28.413)">
            <g id="Grupo_846231" data-name="Grupo 846231">
              <path id="Trazado_585720" data-name="Trazado 585720" d="M742.005,257.864l5.67-3.273v6.51l-5.67,3.272Zm5.3-2.628-4.923,2.843v5.648l4.923-2.843Z" transform="translate(-742.005 -254.591)" fill="#a88b4e"/>
            </g>
            <g id="Grupo_846232" data-name="Grupo 846232" transform="translate(0.98 2.445)">
              <path id="Trazado_585721" data-name="Trazado 585721" d="M743.32,260.791l1.251-.722v-3.278l-1.251.722Z" transform="translate(-742.09 -255.539)" fill="#a88b4e"/>
              <path id="Trazado_585722" data-name="Trazado 585722" d="M742.588,259.355l3.71-2.142-1.855-1.167Z" transform="translate(-742.588 -256.046)" fill="#a88b4e"/>
            </g>
          </g>
        </g>
      </g>
    </g>
  </g>
</svg>
