<svg xmlns="http://www.w3.org/2000/svg" xmlns:xlink="http://www.w3.org/1999/xlink" width="327.356" height="447.787" viewBox="0 0 327.356 447.787">
  <defs>
    <clipPath id="clip-path">
      <rect id="Rectángulo_281047" data-name="Rectángulo 281047" width="316.421" height="413.787" fill="none"/>
    </clipPath>
  </defs>
  <g id="Grupo_846369" data-name="Grupo 846369" transform="translate(-1051.065 -2611.506)">
    <g id="Grupo_846326" data-name="Grupo 846326" transform="translate(668.561 907)">
      <path id="Trazado_582986" data-name="Trazado 582986" d="M299.623,38.991a28.035,28.035,0,1,0,28.035-28.035A28.029,28.029,0,0,0,299.623,38.991Z" transform="translate(284.515 1772.481)" fill="none" stroke="#00e7bf" stroke-linecap="round" stroke-linejoin="round" stroke-width="13.32" opacity="0.35"/>
      <path id="Trazado_587269" data-name="Trazado 587269" d="M299.623,27.255a16.3,16.3,0,1,0,16.3-16.3A16.3,16.3,0,0,0,299.623,27.255Z" transform="translate(279.951 1728.481)" fill="#f27b58"/>
      <g id="Grupo_845305" data-name="Grupo 845305" transform="translate(100.91 2111.037)" style="isolation: isolate">
        <path id="Trazado_582519" data-name="Trazado 582519" d="M239.153,0a3.289,3.289,0,1,0,3.292,3.286A3.287,3.287,0,0,0,239.153,0" transform="translate(208.295)" fill="#ffd400"/>
        <path id="Trazado_582520" data-name="Trazado 582520" d="M221.888,0a3.289,3.289,0,1,0,3.292,3.286A3.287,3.287,0,0,0,221.888,0" transform="translate(193.048)" fill="#ffd400"/>
        <path id="Trazado_582521" data-name="Trazado 582521" d="M204.62,0a3.289,3.289,0,1,0,3.292,3.286A3.289,3.289,0,0,0,204.62,0" transform="translate(177.8)" fill="#ffd400"/>
        <path id="Trazado_582522" data-name="Trazado 582522" d="M187.352,0a3.289,3.289,0,1,0,3.292,3.286A3.285,3.285,0,0,0,187.352,0" transform="translate(162.554)" fill="#ffd400"/>
        <path id="Trazado_582523" data-name="Trazado 582523" d="M170.093,0a3.289,3.289,0,1,0,3.286,3.286A3.287,3.287,0,0,0,170.093,0" transform="translate(147.307)" fill="#ffd400"/>
        <path id="Trazado_582524" data-name="Trazado 582524" d="M152.827,0a3.289,3.289,0,1,0,3.292,3.286A3.287,3.287,0,0,0,152.827,0" transform="translate(132.059)" fill="#ffd400"/>
        <path id="Trazado_582525" data-name="Trazado 582525" d="M230.521,8.478a3.292,3.292,0,1,0,3.29,3.292,3.287,3.287,0,0,0-3.29-3.292" transform="translate(200.672 7.487)" fill="#ffd400"/>
        <path id="Trazado_582526" data-name="Trazado 582526" d="M213.255,8.478a3.292,3.292,0,1,0,3.29,3.292,3.288,3.288,0,0,0-3.29-3.292" transform="translate(185.424 7.487)" fill="#ffd400"/>
        <path id="Trazado_582527" data-name="Trazado 582527" d="M195.985,8.478a3.292,3.292,0,1,0,3.292,3.292,3.287,3.287,0,0,0-3.292-3.292" transform="translate(170.178 7.487)" fill="#ffd400"/>
        <path id="Trazado_582528" data-name="Trazado 582528" d="M178.726,8.478a3.292,3.292,0,1,0,3.284,3.292,3.287,3.287,0,0,0-3.284-3.292" transform="translate(154.931 7.487)" fill="#ffd400"/>
        <path id="Trazado_582529" data-name="Trazado 582529" d="M161.46,8.478a3.292,3.292,0,1,0,3.286,3.292,3.288,3.288,0,0,0-3.286-3.292" transform="translate(139.683 7.487)" fill="#ffd400"/>
        <path id="Trazado_582530" data-name="Trazado 582530" d="M239.153,18.415a3.289,3.289,0,1,0,3.292,3.292,3.288,3.288,0,0,0-3.292-3.292" transform="translate(208.295 16.263)" fill="#ffd400"/>
        <path id="Trazado_582531" data-name="Trazado 582531" d="M221.888,18.415a3.289,3.289,0,1,0,3.292,3.292,3.288,3.288,0,0,0-3.292-3.292" transform="translate(193.048 16.263)" fill="#ffd400"/>
        <path id="Trazado_582532" data-name="Trazado 582532" d="M204.62,18.415a3.289,3.289,0,1,0,3.292,3.292,3.29,3.29,0,0,0-3.292-3.292" transform="translate(177.8 16.263)" fill="#ffd400"/>
        <path id="Trazado_582533" data-name="Trazado 582533" d="M187.352,18.415a3.289,3.289,0,1,0,3.292,3.292,3.287,3.287,0,0,0-3.292-3.292" transform="translate(162.554 16.263)" fill="#ffd400"/>
        <path id="Trazado_582534" data-name="Trazado 582534" d="M170.093,18.415a3.289,3.289,0,1,0,3.286,3.292,3.288,3.288,0,0,0-3.286-3.292" transform="translate(147.307 16.263)" fill="#ffd400"/>
        <path id="Trazado_582535" data-name="Trazado 582535" d="M152.827,18.415a3.289,3.289,0,1,0,3.292,3.292,3.288,3.288,0,0,0-3.292-3.292" transform="translate(132.059 16.263)" fill="#ffd400"/>
      </g>
    </g>
    <g id="Grupo_846324" data-name="Grupo 846324" transform="translate(1062 2611.506)">
      <path id="Trazado_586906" data-name="Trazado 586906" d="M17.322,209.753l0-178.415L14.4,29.648V208.07Z" transform="translate(22.766 46.873)" fill="#3a3a3a"/>
      <path id="Trazado_586907" data-name="Trazado 586907" d="M15.532,209.966l3.531-2.008V29.513l-3.531,2.039Z" transform="translate(24.556 46.66)" fill="#4d4d4d"/>
      <path id="Trazado_586908" data-name="Trazado 586908" d="M41.411,195.883l0-178.415-2.924-1.691V194.2Z" transform="translate(60.852 24.944)" fill="#3a3a3a"/>
      <path id="Trazado_586909" data-name="Trazado 586909" d="M39.621,196.1l3.531-2.008V15.642l-3.531,2.042Z" transform="translate(62.642 24.729)" fill="#4d4d4d"/>
      <path id="Trazado_586910" data-name="Trazado 586910" d="M14.4,30.89l2.922,1.688,3.531-2.039-2.927-1.678Z" transform="translate(22.767 45.631)" fill="#a3a3a3"/>
      <path id="Trazado_586911" data-name="Trazado 586911" d="M38.49,17.02l2.922,1.688,3.531-2.039-2.927-1.678Z" transform="translate(60.853 23.702)" fill="#a3a3a3"/>
      <path id="Trazado_586912" data-name="Trazado 586912" d="M79.145,113.24l-2.387,2.387L16.132,67.448l1.11-3.536Z" transform="translate(25.505 101.045)" fill="#4d4d4d"/>
      <path id="Trazado_586913" data-name="Trazado 586913" d="M16.319,168.137l.563,3.41L77.874,52.983l-1.409-2.07Z" transform="translate(25.801 80.494)" fill="#4d4d4d"/>
      <path id="Trazado_586914" data-name="Trazado 586914" d="M79.145,80.656l-2.387,2.387L16.132,34.864l1.11-3.536Z" transform="translate(25.505 49.53)" fill="#4d4d4d"/>
      <path id="Trazado_586915" data-name="Trazado 586915" d="M16.319,135.553l.563,3.41L77.874,20.4l-1.409-2.07Z" transform="translate(25.801 28.978)" fill="#4d4d4d"/>
      <path id="Trazado_586916" data-name="Trazado 586916" d="M77.962,80.766,15.907,116.771,127.6,181.324l62.174-35.948Z" transform="translate(25.149 127.691)" fill="#ed8e2f"/>
      <path id="Trazado_586917" data-name="Trazado 586917" d="M59.181,146.34v-4.592L121.355,105.8v4.584Z" transform="translate(93.565 167.267)" fill="#c96a1c"/>
      <path id="Trazado_586918" data-name="Trazado 586918" d="M15.907,94.715v4.607L127.6,163.861v-4.592Z" transform="translate(25.149 149.746)" fill="#d87923"/>
      <path id="Trazado_586919" data-name="Trazado 586919" d="M43.107,120.921,43.1,91.932l23.162-13.39V107.5Z" transform="translate(68.14 124.174)" fill="#dba763"/>
      <path id="Trazado_586920" data-name="Trazado 586920" d="M57.3,120.921l-.008-28.99L34.124,78.541V107.5Z" transform="translate(53.95 124.174)" fill="#e8b679"/>
      <path id="Trazado_586921" data-name="Trazado 586921" d="M35.7,102.888V80.63l-.679-.392v23.144l18.519,10.727v-.885Z" transform="translate(55.376 126.856)" fill="#cc8c46"/>
      <path id="Trazado_586922" data-name="Trazado 586922" d="M53.129,112.982,53.124,90.7,35.289,80.39v22.259Z" transform="translate(55.792 127.096)" fill="#dba763"/>
      <path id="Trazado_586923" data-name="Trazado 586923" d="M39.589,95.421,44.56,98.3V90.816l-4.971-2.875Z" transform="translate(62.59 139.036)" fill="#fff"/>
      <path id="Trazado_586924" data-name="Trazado 586924" d="M61.839,102.888V80.63l.679-.392v23.144L44,114.108v-.885Z" transform="translate(69.562 126.856)" fill="#bf7e3d"/>
      <path id="Trazado_586925" data-name="Trazado 586925" d="M44,112.982,44,90.7,61.839,80.39v22.259Z" transform="translate(69.562 127.096)" fill="#cc8c46"/>
      <path id="Trazado_586926" data-name="Trazado 586926" d="M34.125,86.742l23.162,13.39,23.165-13.39L57.3,73.355Z" transform="translate(53.951 115.974)" fill="#ffe1c0"/>
      <path id="Trazado_586927" data-name="Trazado 586927" d="M73.159,85.685l.767-.444L54.819,74.195,35.7,85.241l.767.444L54.819,75.08Z" transform="translate(56.435 117.302)" fill="#dba763"/>
      <path id="Trazado_586928" data-name="Trazado 586928" d="M72.69,85.143,54.349,74.538,35.993,85.143,54.341,95.751Z" transform="translate(56.905 117.845)" fill="#e8b679"/>
      <path id="Trazado_586929" data-name="Trazado 586929" d="M49.043,83.721V91.2l3.822-2.212v-7.48Z" transform="translate(77.537 128.87)" fill="#4d4d4d"/>
      <path id="Trazado_586930" data-name="Trazado 586930" d="M46.846,84.966v7.482l3.822-2.212v-7.48Z" transform="translate(74.063 130.838)" fill="#4d4d4d"/>
      <path id="Trazado_586931" data-name="Trazado 586931" d="M32,127.3l-.008-28.99,23.162-13.39v28.956Z" transform="translate(50.575 134.261)" fill="#dba763"/>
      <path id="Trazado_586932" data-name="Trazado 586932" d="M46.185,127.3l-.008-28.99L23.015,84.922v28.956Z" transform="translate(36.387 134.261)" fill="#e8b679"/>
      <path id="Trazado_586933" data-name="Trazado 586933" d="M24.594,109.268V87.01l-.679-.392v23.144l18.519,10.727V119.6Z" transform="translate(37.811 136.943)" fill="#cc8c46"/>
      <path id="Trazado_586934" data-name="Trazado 586934" d="M42.019,119.363l-.005-22.284L24.179,86.77v22.259Z" transform="translate(38.227 137.184)" fill="#dba763"/>
      <path id="Trazado_586935" data-name="Trazado 586935" d="M28.479,101.8l4.971,2.88V97.2l-4.971-2.875Z" transform="translate(45.025 149.123)" fill="#fff"/>
      <path id="Trazado_586936" data-name="Trazado 586936" d="M50.729,109.268V87.01l.679-.392v23.144L32.889,120.488V119.6Z" transform="translate(51.997 136.943)" fill="#bf7e3d"/>
      <path id="Trazado_586937" data-name="Trazado 586937" d="M32.889,119.363l.005-22.284L50.728,86.77v22.259Z" transform="translate(51.997 137.184)" fill="#cc8c46"/>
      <path id="Trazado_586938" data-name="Trazado 586938" d="M23.014,93.122l23.162,13.39,23.165-13.39L46.184,79.735Z" transform="translate(36.386 126.061)" fill="#ffe1c0"/>
      <path id="Trazado_586939" data-name="Trazado 586939" d="M62.049,92.066l.767-.444L43.709,80.575,24.586,91.622l.767.444L43.709,81.46Z" transform="translate(38.871 127.39)" fill="#dba763"/>
      <path id="Trazado_586940" data-name="Trazado 586940" d="M61.58,91.523,43.239,80.918,24.883,91.523l18.348,10.608Z" transform="translate(39.34 127.932)" fill="#e8b679"/>
      <path id="Trazado_586941" data-name="Trazado 586941" d="M37.932,90.1v7.482l3.822-2.212v-7.48Z" transform="translate(59.971 138.957)" fill="#4d4d4d"/>
      <path id="Trazado_586942" data-name="Trazado 586942" d="M35.736,91.346v7.482l3.822-2.212v-7.48Z" transform="translate(56.498 140.925)" fill="#4d4d4d"/>
      <path id="Trazado_586943" data-name="Trazado 586943" d="M55.671,127.742l-.008-28.99,23.162-13.39v28.956Z" transform="translate(88.004 134.958)" fill="#dba763"/>
      <path id="Trazado_586944" data-name="Trazado 586944" d="M69.861,127.742l-.008-28.99L46.688,85.362v28.956Z" transform="translate(73.815 134.958)" fill="#e8b679"/>
      <path id="Trazado_586945" data-name="Trazado 586945" d="M48.269,109.709V87.451l-.679-.392V110.2l18.519,10.727v-.885Z" transform="translate(75.24 137.64)" fill="#cc8c46"/>
      <path id="Trazado_586946" data-name="Trazado 586946" d="M65.693,119.8l-.005-22.284L47.853,87.211v22.259Z" transform="translate(75.657 137.88)" fill="#dba763"/>
      <path id="Trazado_586947" data-name="Trazado 586947" d="M52.153,102.242l4.974,2.88,0-7.485-4.971-2.875Z" transform="translate(82.454 149.82)" fill="#fff"/>
      <path id="Trazado_586948" data-name="Trazado 586948" d="M74.4,109.709V87.451l.679-.392V110.2L56.563,120.929v-.885Z" transform="translate(89.427 137.64)" fill="#bf7e3d"/>
      <path id="Trazado_586949" data-name="Trazado 586949" d="M56.563,119.8l.005-22.284L74.4,87.211v22.259Z" transform="translate(89.427 137.88)" fill="#cc8c46"/>
      <path id="Trazado_586950" data-name="Trazado 586950" d="M46.689,93.563l23.162,13.39,23.165-13.39L69.861,80.176Z" transform="translate(73.816 126.758)" fill="#ffe1c0"/>
      <path id="Trazado_586951" data-name="Trazado 586951" d="M85.724,92.506l.767-.444L67.383,81.016,48.261,92.062l.767.444L67.383,81.9Z" transform="translate(76.3 128.086)" fill="#dba763"/>
      <path id="Trazado_586952" data-name="Trazado 586952" d="M85.254,91.964,66.914,81.359,48.558,91.964l18.348,10.608Z" transform="translate(76.77 128.629)" fill="#e8b679"/>
      <path id="Trazado_586953" data-name="Trazado 586953" d="M61.607,90.542v7.482l3.822-2.212v-7.48Z" transform="translate(97.401 139.654)" fill="#4d4d4d"/>
      <path id="Trazado_586954" data-name="Trazado 586954" d="M59.41,91.787v7.482l3.822-2.212v-7.48Z" transform="translate(93.928 141.622)" fill="#4d4d4d"/>
      <path id="Trazado_586955" data-name="Trazado 586955" d="M44.561,134.123l-.008-28.99,23.162-13.39V120.7Z" transform="translate(70.439 145.046)" fill="#dba763"/>
      <path id="Trazado_586956" data-name="Trazado 586956" d="M58.751,134.123l-.008-28.99L35.578,91.743V120.7Z" transform="translate(56.25 145.046)" fill="#e8b679"/>
      <path id="Trazado_586957" data-name="Trazado 586957" d="M37.159,116.089V93.831l-.679-.392v23.144L55,127.309v-.885Z" transform="translate(57.675 147.727)" fill="#cc8c46"/>
      <path id="Trazado_586958" data-name="Trazado 586958" d="M54.583,126.184,54.578,103.9,36.743,93.591v22.259Z" transform="translate(58.091 147.968)" fill="#dba763"/>
      <path id="Trazado_586959" data-name="Trazado 586959" d="M41.043,108.622l4.974,2.88,0-7.485-4.971-2.875Z" transform="translate(64.889 159.907)" fill="#fff"/>
      <path id="Trazado_586960" data-name="Trazado 586960" d="M63.293,116.089V93.831l.679-.392v23.144L45.453,127.309v-.885Z" transform="translate(71.862 147.727)" fill="#bf7e3d"/>
      <path id="Trazado_586961" data-name="Trazado 586961" d="M45.453,126.184l.005-22.284L63.293,93.591v22.259Z" transform="translate(71.861 147.968)" fill="#cc8c46"/>
      <path id="Trazado_586962" data-name="Trazado 586962" d="M35.579,99.943l23.162,13.39,23.165-13.39L58.751,86.556Z" transform="translate(56.25 136.845)" fill="#ffe1c0"/>
      <path id="Trazado_586963" data-name="Trazado 586963" d="M74.614,98.887l.767-.444L56.273,87.4,37.151,98.443l.767.444L56.273,88.281Z" transform="translate(58.735 138.174)" fill="#dba763"/>
      <path id="Trazado_586964" data-name="Trazado 586964" d="M74.144,98.344,55.8,87.739,37.448,98.344,55.8,108.952Z" transform="translate(59.205 138.716)" fill="#e8b679"/>
      <path id="Trazado_586965" data-name="Trazado 586965" d="M50.5,96.922V104.4l3.822-2.212v-7.48Z" transform="translate(79.836 149.741)" fill="#4d4d4d"/>
      <path id="Trazado_586966" data-name="Trazado 586966" d="M48.3,98.167v7.482l3.822-2.214V95.958Z" transform="translate(76.363 151.71)" fill="#4d4d4d"/>
      <path id="Trazado_586967" data-name="Trazado 586967" d="M68.895,135.356l-.008-28.99,23.162-13.39v28.956Z" transform="translate(108.91 146.995)" fill="#dba763"/>
      <path id="Trazado_586968" data-name="Trazado 586968" d="M83.083,135.356l-.008-28.99L59.913,92.976v28.956Z" transform="translate(94.723 146.995)" fill="#e8b679"/>
      <path id="Trazado_586969" data-name="Trazado 586969" d="M61.492,117.322V95.064l-.679-.392v23.144l18.519,10.727v-.885Z" transform="translate(96.146 149.676)" fill="#cc8c46"/>
      <path id="Trazado_586970" data-name="Trazado 586970" d="M78.917,127.417l-.005-22.284L61.077,94.824v22.259Z" transform="translate(96.563 149.917)" fill="#dba763"/>
      <path id="Trazado_586971" data-name="Trazado 586971" d="M65.376,109.854l4.971,2.88v-7.485l-4.971-2.873Z" transform="translate(103.36 161.858)" fill="#fff"/>
      <path id="Trazado_586972" data-name="Trazado 586972" d="M87.626,117.322V95.064l.679-.392v23.144L69.787,128.542v-.885Z" transform="translate(110.333 149.676)" fill="#bf7e3d"/>
      <path id="Trazado_586973" data-name="Trazado 586973" d="M69.786,127.417l.005-22.284L87.626,94.824v22.259Z" transform="translate(110.333 149.917)" fill="#cc8c46"/>
      <path id="Trazado_586974" data-name="Trazado 586974" d="M59.913,101.176l23.162,13.39,23.165-13.39L83.082,87.789Z" transform="translate(94.722 138.795)" fill="#ffe1c0"/>
      <path id="Trazado_586975" data-name="Trazado 586975" d="M98.947,100.12l.767-.444L80.606,88.629,61.484,99.676l.767.444L80.606,89.514Z" transform="translate(97.206 140.123)" fill="#dba763"/>
      <path id="Trazado_586976" data-name="Trazado 586976" d="M98.478,99.577,80.137,88.972,61.781,99.577l18.348,10.608Z" transform="translate(97.676 140.665)" fill="#e8b679"/>
      <path id="Trazado_586977" data-name="Trazado 586977" d="M74.83,98.155v7.482l3.822-2.212v-7.48Z" transform="translate(118.307 151.691)" fill="#4d4d4d"/>
      <path id="Trazado_586978" data-name="Trazado 586978" d="M72.633,99.4v7.482l3.822-2.212v-7.48Z" transform="translate(114.834 153.659)" fill="#4d4d4d"/>
      <path id="Trazado_586979" data-name="Trazado 586979" d="M57.785,141.736l-.008-28.99,23.162-13.39v28.956Z" transform="translate(91.346 157.082)" fill="#dba763"/>
      <path id="Trazado_586980" data-name="Trazado 586980" d="M71.974,141.736l-.008-28.99L48.8,99.356v28.956Z" transform="translate(77.156 157.082)" fill="#e8b679"/>
      <path id="Trazado_586981" data-name="Trazado 586981" d="M50.382,123.7V101.444l-.679-.392V124.2l18.519,10.727v-.885Z" transform="translate(78.581 159.763)" fill="#cc8c46"/>
      <path id="Trazado_586982" data-name="Trazado 586982" d="M67.807,133.8,67.8,111.512,49.967,101.2v22.259Z" transform="translate(78.998 160.004)" fill="#dba763"/>
      <path id="Trazado_586983" data-name="Trazado 586983" d="M54.266,116.235l4.974,2.88,0-7.485-4.971-2.875Z" transform="translate(85.795 171.944)" fill="#fff"/>
      <path id="Trazado_586984" data-name="Trazado 586984" d="M76.516,123.7V101.444l.679-.392V124.2L58.676,134.922v-.885Z" transform="translate(92.768 159.763)" fill="#bf7e3d"/>
      <path id="Trazado_586985" data-name="Trazado 586985" d="M58.676,133.8l.005-22.284L76.516,101.2v22.259Z" transform="translate(92.768 160.004)" fill="#cc8c46"/>
      <path id="Trazado_586986" data-name="Trazado 586986" d="M48.8,107.557l23.162,13.39,23.165-13.39L71.975,94.169Z" transform="translate(77.157 148.882)" fill="#ffe1c0"/>
      <path id="Trazado_586987" data-name="Trazado 586987" d="M87.837,106.5l.767-.444L69.5,95.009,50.374,106.056l.767.444L69.5,95.895Z" transform="translate(79.641 150.21)" fill="#dba763"/>
      <path id="Trazado_586988" data-name="Trazado 586988" d="M87.367,105.958,69.027,95.352,50.671,105.958l18.348,10.608Z" transform="translate(80.111 150.753)" fill="#e8b679"/>
      <path id="Trazado_586989" data-name="Trazado 586989" d="M63.72,104.535v7.482l3.822-2.214v-7.477Z" transform="translate(100.742 161.778)" fill="#4d4d4d"/>
      <path id="Trazado_586990" data-name="Trazado 586990" d="M61.524,105.78v7.482l3.822-2.212v-7.48Z" transform="translate(97.269 163.746)" fill="#4d4d4d"/>
      <path id="Trazado_586991" data-name="Trazado 586991" d="M77.962,49.651,15.907,85.656,127.6,150.21l62.174-35.948Z" transform="translate(25.149 78.499)" fill="#ed8e2f"/>
      <path id="Trazado_586992" data-name="Trazado 586992" d="M59.181,115.226v-4.592l62.174-35.951v4.584Z" transform="translate(93.565 118.075)" fill="#c96a1c"/>
      <path id="Trazado_586993" data-name="Trazado 586993" d="M15.907,63.6v4.607L127.6,132.747v-4.592Z" transform="translate(25.149 100.554)" fill="#d87923"/>
      <path id="Trazado_586994" data-name="Trazado 586994" d="M43.149,104.109,43.136,78.6,80.151,57.2V82.658Z" transform="translate(68.199 90.428)" fill="#dba763"/>
      <path id="Trazado_586995" data-name="Trazado 586995" d="M75.783,109.857,75.77,84.344,22.5,53.561V79.025Z" transform="translate(35.565 84.68)" fill="#e8b679"/>
      <path id="Trazado_586996" data-name="Trazado 586996" d="M22.5,66.661,75.77,97.442l37.014-21.4L59.494,45.275Z" transform="translate(35.565 71.58)" fill="#ffe1c0"/>
      <path id="Trazado_586997" data-name="Trazado 586997" d="M57.2,73.783l-8.254,4.793V65.057l8.254-4.8Z" transform="translate(77.387 95.269)" fill="#4d4d4d"/>
      <path id="Trazado_586998" data-name="Trazado 586998" d="M89.826,79.1,36.585,48.345l-8.272,4.783L81.572,83.909Z" transform="translate(44.763 76.434)" fill="#6d6d6d"/>
      <path id="Trazado_586999" data-name="Trazado 586999" d="M44.211,79.609V77.227l12.425-7.206v2.416Z" transform="translate(69.897 110.703)" fill="#4d4d4d"/>
      <path id="Trazado_587000" data-name="Trazado 587000" d="M44.211,77.959V75.577l12.425-7.206v2.416Z" transform="translate(69.897 108.094)" fill="#4d4d4d"/>
      <path id="Trazado_587001" data-name="Trazado 587001" d="M29.035,62.719v8.61L23.091,67.9v-8.61Z" transform="translate(36.506 93.731)" fill="#4d4d4d"/>
      <path id="Trazado_587002" data-name="Trazado 587002" d="M32.177,64.541v8.61l-5.944-3.433v-8.61Z" transform="translate(41.474 96.612)" fill="#4d4d4d"/>
      <path id="Trazado_587003" data-name="Trazado 587003" d="M35.358,66.369v8.61l-5.941-3.433v-8.61Z" transform="translate(46.508 99.503)" fill="#4d4d4d"/>
      <path id="Trazado_587004" data-name="Trazado 587004" d="M49.995,70.229V82.6L37.781,75.543V63.157Z" transform="translate(59.733 99.852)" fill="#fff"/>
      <path id="Trazado_587005" data-name="Trazado 587005" d="M47.82,71.5V69.492L38.211,63.95v1.98Z" transform="translate(60.411 101.106)" fill="#4d4d4d"/>
      <path id="Trazado_587006" data-name="Trazado 587006" d="M41.41,79.206,41.4,64.27,65.3,50.454v14.9Z" transform="translate(65.458 79.768)" fill="#dba763"/>
      <path id="Trazado_587007" data-name="Trazado 587007" d="M62.482,82.919l-.008-14.936-34.4-19.876v14.9Z" transform="translate(44.386 76.056)" fill="#e8b679"/>
      <path id="Trazado_587008" data-name="Trazado 587008" d="M28.075,56.577l34.4,19.874,23.9-13.816L51.964,42.766Z" transform="translate(44.386 67.613)" fill="#ffe1c0"/>
      <path id="Trazado_587009" data-name="Trazado 587009" d="M42.1,64.33V62.792l8.024-4.654V59.7Z" transform="translate(66.554 91.917)" fill="#4d4d4d"/>
      <path id="Trazado_587010" data-name="Trazado 587010" d="M42.1,63.265V61.726l8.024-4.654v1.561Z" transform="translate(66.554 90.232)" fill="#4d4d4d"/>
      <path id="Trazado_587011" data-name="Trazado 587011" d="M33.309,52.138v6.935l-4.788-2.767V49.374Z" transform="translate(45.093 78.06)" fill="#4d4d4d"/>
      <path id="Trazado_587012" data-name="Trazado 587012" d="M35.84,53.605v6.935l-4.788-2.767V50.841Z" transform="translate(49.094 80.38)" fill="#4d4d4d"/>
      <path id="Trazado_587013" data-name="Trazado 587013" d="M48.159,60.751v8.277L35.945,61.972V53.679Z" transform="translate(56.83 84.868)" fill="#fff"/>
      <path id="Trazado_587014" data-name="Trazado 587014" d="M45.984,62.027V60.011l-9.609-5.539v1.98Z" transform="translate(57.509 86.122)" fill="#4d4d4d"/>
      <path id="Trazado_587015" data-name="Trazado 587015" d="M53.378,59.663l-8.254,4.79V56.6l8.254-4.8Z" transform="translate(71.342 81.906)" fill="#4d4d4d"/>
      <path id="Trazado_587016" data-name="Trazado 587016" d="M74.452,63.978,40.1,44.107l-8.3,4.8L66.2,68.792Z" transform="translate(50.269 69.733)" fill="#6d6d6d"/>
      <path id="Trazado_587017" data-name="Trazado 587017" d="M66.25,90.547l-.008-11.516L82.7,69.545V81.07Z" transform="translate(104.73 109.952)" fill="#dba763"/>
      <path id="Trazado_587018" data-name="Trazado 587018" d="M77.923,91.491l-.008-11.516L58.86,68.948V80.462Z" transform="translate(93.057 109.008)" fill="#e8b679"/>
      <path id="Trazado_587019" data-name="Trazado 587019" d="M58.859,74.765,77.915,85.793l16.456-9.485L75.28,65.269Z" transform="translate(93.057 103.191)" fill="#ffe1c0"/>
      <path id="Trazado_587020" data-name="Trazado 587020" d="M66.779,79.8V78.608l6.2-3.6v1.205Z" transform="translate(105.578 118.596)" fill="#4d4d4d"/>
      <path id="Trazado_587021" data-name="Trazado 587021" d="M66.779,78.971V77.784l6.2-3.593v1.2Z" transform="translate(105.578 117.297)" fill="#4d4d4d"/>
      <path id="Trazado_587022" data-name="Trazado 587022" d="M63.26,72.453v5.358l-3.7-2.137V70.318Z" transform="translate(94.17 111.173)" fill="#4d4d4d"/>
      <path id="Trazado_587023" data-name="Trazado 587023" d="M67.066,74.4v6.339L59.383,76.3V69.982Z" transform="translate(93.884 110.642)" fill="#fff"/>
      <path id="Trazado_587024" data-name="Trazado 587024" d="M65.379,75.016V73.829l-5.665-3.268v1.169Z" transform="translate(94.408 111.558)" fill="#4d4d4d"/>
      <path id="Trazado_587025" data-name="Trazado 587025" d="M73.355,70.6l-4.238,2.462v6.065l4.238-2.46Z" transform="translate(109.274 111.625)" fill="#4d4d4d"/>
      <path id="Trazado_587026" data-name="Trazado 587026" d="M85.036,77.344l-19.048-11-4.259,2.447L80.8,79.819Z" transform="translate(97.594 104.885)" fill="#6d6d6d"/>
      <path id="Trazado_587027" data-name="Trazado 587027" d="M56.644,96.068l-.008-11.516,16.457-9.485V86.59Z" transform="translate(89.543 118.68)" fill="#dba763"/>
      <path id="Trazado_587028" data-name="Trazado 587028" d="M68.317,97.012,68.309,85.5,49.254,74.469V85.983Z" transform="translate(77.87 117.736)" fill="#e8b679"/>
      <path id="Trazado_587029" data-name="Trazado 587029" d="M49.254,80.285,68.309,91.314l16.456-9.485L65.674,70.79Z" transform="translate(77.87 111.919)" fill="#ffe1c0"/>
      <path id="Trazado_587030" data-name="Trazado 587030" d="M57.173,85.315V84.127l6.2-3.593v1.2Z" transform="translate(90.391 127.326)" fill="#4d4d4d"/>
      <path id="Trazado_587031" data-name="Trazado 587031" d="M57.173,84.493V83.306l6.2-3.6v1.205Z" transform="translate(90.391 126.023)" fill="#4d4d4d"/>
      <path id="Trazado_587032" data-name="Trazado 587032" d="M53.654,77.973v5.356l-3.7-2.134V75.839Z" transform="translate(78.983 119.902)" fill="#4d4d4d"/>
      <path id="Trazado_587033" data-name="Trazado 587033" d="M57.46,79.924v6.339l-7.684-4.439V75.5Z" transform="translate(78.697 119.37)" fill="#fff"/>
      <path id="Trazado_587034" data-name="Trazado 587034" d="M55.774,80.537V79.35l-5.665-3.268v1.169Z" transform="translate(79.221 120.286)" fill="#4d4d4d"/>
      <path id="Trazado_587035" data-name="Trazado 587035" d="M63.748,76.125l-4.235,2.462v6.065l4.235-2.46Z" transform="translate(94.089 120.353)" fill="#4d4d4d"/>
      <path id="Trazado_587036" data-name="Trazado 587036" d="M75.43,82.864l-19.048-11-4.259,2.447L71.194,85.337Z" transform="translate(82.407 113.614)" fill="#6d6d6d"/>
      <path id="Trazado_587037" data-name="Trazado 587037" d="M77.962,18.329,15.907,54.334,127.6,118.888l62.174-35.948Z" transform="translate(25.149 28.978)" fill="#ed8e2f"/>
      <path id="Trazado_587038" data-name="Trazado 587038" d="M59.181,83.9V79.312l62.174-35.951v4.584Z" transform="translate(93.565 68.555)" fill="#c96a1c"/>
      <path id="Trazado_587039" data-name="Trazado 587039" d="M15.907,32.279v4.607L127.6,101.424V96.833Z" transform="translate(25.149 51.033)" fill="#d87923"/>
      <path id="Trazado_587040" data-name="Trazado 587040" d="M39.382,82.791l-.013-46.324,37.014-21.4V61.34Z" transform="translate(62.242 23.822)" fill="#dba763"/>
      <path id="Trazado_587041" data-name="Trazado 587041" d="M62.055,82.791l-.013-46.324-37.014-21.4V61.34Z" transform="translate(39.569 23.822)" fill="#e8b679"/>
      <path id="Trazado_587042" data-name="Trazado 587042" d="M25.028,28.172l37.014,21.4,37.014-21.4-37-21.394Z" transform="translate(39.569 10.717)" fill="#ffe1c0"/>
      <path id="Trazado_587043" data-name="Trazado 587043" d="M53.434,31.654l-8.254,4.79V22.926l8.254-4.8Z" transform="translate(71.43 28.664)" fill="#4d4d4d"/>
      <path id="Trazado_587044" data-name="Trazado 587044" d="M76.087,31.221,39.124,9.85l-8.272,4.78,36.981,21.4Z" transform="translate(48.777 15.574)" fill="#6d6d6d"/>
      <path id="Trazado_587045" data-name="Trazado 587045" d="M41.268,44.612V42.229l12.425-7.206v2.416Z" transform="translate(65.246 55.372)" fill="#4d4d4d"/>
      <path id="Trazado_587046" data-name="Trazado 587046" d="M41.268,42.962V40.58l12.425-7.206v2.416Z" transform="translate(65.246 52.764)" fill="#4d4d4d"/>
      <path id="Trazado_587047" data-name="Trazado 587047" d="M50.405,32.477v8.262l5.944-3.44V29.034Z" transform="translate(79.691 45.902)" fill="#4d4d4d"/>
      <path id="Trazado_587048" data-name="Trazado 587048" d="M31.823,32.135v8.61l-5.944-3.433V28.7Z" transform="translate(40.916 45.379)" fill="#4d4d4d"/>
      <path id="Trazado_587049" data-name="Trazado 587049" d="M34.966,33.958v8.61l-5.944-3.433v-8.61Z" transform="translate(45.883 48.26)" fill="#4d4d4d"/>
      <path id="Trazado_587050" data-name="Trazado 587050" d="M38.093,24.614V36.987L25.88,29.931V17.542Z" transform="translate(40.917 27.734)" fill="#fff"/>
      <path id="Trazado_587051" data-name="Trazado 587051" d="M35.919,25.89V23.874l-9.609-5.539v1.98Z" transform="translate(41.596 28.988)" fill="#4d4d4d"/>
      <path id="Trazado_587052" data-name="Trazado 587052" d="M59.038,81.456l-.013-25.513,37.014-21.4V60.006Z" transform="translate(93.318 54.614)" fill="#dba763"/>
      <path id="Trazado_587053" data-name="Trazado 587053" d="M81.711,81.456,81.7,55.943l-37.014-21.4V60.006Z" transform="translate(70.645 54.614)" fill="#e8b679"/>
      <path id="Trazado_587054" data-name="Trazado 587054" d="M44.684,47.649,81.7,69.048l37.014-21.4-37-21.394Z" transform="translate(70.645 41.509)" fill="#ffe1c0"/>
      <path id="Trazado_587055" data-name="Trazado 587055" d="M73.09,51.129l-8.254,4.793V42.4l8.254-4.793Z" transform="translate(102.506 59.457)" fill="#4d4d4d"/>
      <path id="Trazado_587056" data-name="Trazado 587056" d="M95.743,50.7,58.78,29.327l-8.272,4.78,36.981,21.4Z" transform="translate(79.854 46.365)" fill="#6d6d6d"/>
      <path id="Trazado_587057" data-name="Trazado 587057" d="M60.925,56.025V53.643l12.425-7.206v2.416Z" transform="translate(96.322 73.417)" fill="#4d4d4d"/>
      <path id="Trazado_587058" data-name="Trazado 587058" d="M60.925,54.375V51.993l12.425-7.206V47.2Z" transform="translate(96.322 70.808)" fill="#4d4d4d"/>
      <path id="Trazado_587059" data-name="Trazado 587059" d="M70.061,43.89v8.262l5.944-3.44V40.447Z" transform="translate(110.767 63.947)" fill="#4d4d4d"/>
      <path id="Trazado_587060" data-name="Trazado 587060" d="M51.214,44.086V52.7L45.27,49.264v-8.61Z" transform="translate(71.572 64.274)" fill="#4d4d4d"/>
      <path id="Trazado_587061" data-name="Trazado 587061" d="M54.355,45.909v8.61l-5.941-3.433v-8.61Z" transform="translate(76.542 67.155)" fill="#4d4d4d"/>
      <path id="Trazado_587062" data-name="Trazado 587062" d="M65.883,47.576V59.95L53.67,52.893V40.5Z" transform="translate(84.852 64.038)" fill="#fff"/>
      <path id="Trazado_587063" data-name="Trazado 587063" d="M63.708,48.852V46.839L54.1,41.3v1.98Z" transform="translate(85.531 65.292)" fill="#4d4d4d"/>
      <path id="Trazado_587064" data-name="Trazado 587064" d="M59.186,57.671l-.008-14.91,23.9-13.816V43.863Z" transform="translate(93.561 45.761)" fill="#dba763"/>
      <path id="Trazado_587065" data-name="Trazado 587065" d="M76.281,59.089l-.008-14.91L48.365,28.047v14.91Z" transform="translate(76.465 44.343)" fill="#e8b679"/>
      <path id="Trazado_587066" data-name="Trazado 587066" d="M48.366,36.507,76.271,52.639l23.9-13.816L72.281,22.7Z" transform="translate(76.466 35.883)" fill="#ffe1c0"/>
      <path id="Trazado_587067" data-name="Trazado 587067" d="M59.871,42.809V41.27L67.9,36.619v1.559Z" transform="translate(94.657 57.895)" fill="#4d4d4d"/>
      <path id="Trazado_587068" data-name="Trazado 587068" d="M59.871,41.745V40.207L67.9,35.553v1.562Z" transform="translate(94.657 56.21)" fill="#4d4d4d"/>
      <path id="Trazado_587069" data-name="Trazado 587069" d="M53.616,32.086v6.935l-4.788-2.767V29.322Z" transform="translate(77.197 46.357)" fill="#4d4d4d"/>
      <path id="Trazado_587070" data-name="Trazado 587070" d="M65.934,39.232v8.277L53.721,40.452V32.16Z" transform="translate(84.933 50.845)" fill="#fff"/>
      <path id="Trazado_587071" data-name="Trazado 587071" d="M63.759,40.508V38.494L54.15,32.953v1.98Z" transform="translate(85.612 52.099)" fill="#4d4d4d"/>
      <path id="Trazado_587072" data-name="Trazado 587072" d="M71.154,38.143,62.9,42.933V35.082l8.254-4.8Z" transform="translate(99.445 47.883)" fill="#4d4d4d"/>
      <path id="Trazado_587073" data-name="Trazado 587073" d="M88.24,40.158,60.37,24.042l-8.277,4.78L79.986,44.969Z" transform="translate(82.359 38.011)" fill="#6d6d6d"/>
      <path id="Trazado_587074" data-name="Trazado 587074" d="M60.852,234.928l0-178.417L57.93,54.823V233.245Z" transform="translate(91.589 86.675)" fill="#3a3a3a"/>
      <path id="Trazado_587075" data-name="Trazado 587075" d="M59.063,235.143l3.531-2.008V54.687l-3.531,2.039Z" transform="translate(93.378 86.46)" fill="#4d4d4d"/>
      <path id="Trazado_587076" data-name="Trazado 587076" d="M84.94,221.058l0-178.415-2.922-1.691V219.375Z" transform="translate(129.676 64.746)" fill="#3a3a3a"/>
      <path id="Trazado_587077" data-name="Trazado 587077" d="M83.152,221.271l3.531-2.008V40.817l-3.531,2.039Z" transform="translate(131.464 64.533)" fill="#4d4d4d"/>
      <path id="Trazado_587078" data-name="Trazado 587078" d="M57.931,56.065l2.922,1.688,3.531-2.039-2.927-1.678Z" transform="translate(91.589 85.433)" fill="#a3a3a3"/>
      <path id="Trazado_587079" data-name="Trazado 587079" d="M82.02,42.2l2.919,1.688,3.533-2.039-2.927-1.678Z" transform="translate(129.675 63.504)" fill="#a3a3a3"/>
      <path id="Trazado_587080" data-name="Trazado 587080" d="M122.676,138.415l-2.387,2.387L59.663,92.623l1.11-3.536Z" transform="translate(94.327 140.847)" fill="#4d4d4d"/>
      <path id="Trazado_587081" data-name="Trazado 587081" d="M59.85,193.312l.563,3.41L121.4,78.158,120,76.088Z" transform="translate(94.623 120.295)" fill="#4d4d4d"/>
      <path id="Trazado_587082" data-name="Trazado 587082" d="M122.676,105.831l-2.387,2.387L59.663,60.039l1.11-3.536Z" transform="translate(94.327 89.331)" fill="#4d4d4d"/>
      <path id="Trazado_587083" data-name="Trazado 587083" d="M59.85,160.728l.563,3.41L121.4,45.574,120,43.5Z" transform="translate(94.623 68.78)" fill="#4d4d4d"/>
      <g id="Grupo_846323" data-name="Grupo 846323">
        <g id="Grupo_846322" data-name="Grupo 846322" clip-path="url(#clip-path)">
          <path id="Trazado_587084" data-name="Trazado 587084" d="M29.751,143.46s-1.541,1.678-3.6,3.686c-1.907,1.858-2.5,2.393-4.266,4.119-1.032,1.007-.181,1.933,1.786,1.858a35.424,35.424,0,0,0,7.841-1.7,40.024,40.024,0,0,0,5.872-3.061,3.9,3.9,0,0,0,1.745-2.2v-3.1Z" transform="translate(33.901 226.184)" fill="#4d4d4d"/>
          <path id="Trazado_587085" data-name="Trazado 587085" d="M40.145,143.255A25.77,25.77,0,0,1,37.1,146.7a33.721,33.721,0,0,0-4.155,4.811c-.385.506-.609,1.954,1.36,1.876a25.935,25.935,0,0,0,6.561-1.585c2.5-.89,4.617-3.415,6.078-4.339a6.121,6.121,0,0,0,2.1-2.96l-1.009-3.053Z" transform="translate(51.677 223.638)" fill="#4d4d4d"/>
          <path id="Trazado_587086" data-name="Trazado 587086" d="M53.213,134.143c.73-11.374-5.541-17.352-5.541-17.352.5-3.833-17.28,1.531-17.28,1.531s-3.8,20.6-5.415,31.455c-1.827,12.329-.72,37.445-.72,37.445s.23,2.679,4.824,2.661c3.526-.013,6.125-3.1,6.125-3.1l.364-28.579,4.083-20.269s3.931,16.472,5.177,22.383c1.324,6.287,6.406,24.894,6.406,24.894s3.288,3.781,7.371,1.74,3.283-4.323,3.283-4.323-.8-13.2-6.052-25.007c-.436-8.969-2.96-18.253-2.625-23.477" transform="translate(37.824 182.464)" fill="#5d588d"/>
          <path id="Trazado_587087" data-name="Trazado 587087" d="M33.682,104.968s-2.542-.126-5.167,4.806-5.134,10.182-5.134,10.182a16.55,16.55,0,0,1,7.978,4.375c5.686-5.141,6.615-16.962,2.323-19.363" transform="translate(36.966 165.955)" fill="#d1406b"/>
          <path id="Trazado_587088" data-name="Trazado 587088" d="M29.618,106.028a40.53,40.53,0,0,0-2.744,7.771c-1.311,5.03-.841,28.422-.841,28.422s5.42,3.833,14.495,3.082a12.308,12.308,0,0,0,8.148-3.789s3.226-22.906,2.787-26.187-7.3-10.987-7.3-10.987-9.077-.462-14.544,1.688" transform="translate(41.029 164.896)" fill="#ef4f77"/>
          <path id="Trazado_587089" data-name="Trazado 587089" d="M32.1,118.034s3.954-5.949,7.08-7.617a17.945,17.945,0,0,1,5.26-1.98s-1.138-2.354-1.9-2.625a16.107,16.107,0,0,0-5.441,2.023,21.2,21.2,0,0,0-7.129,7.173c-2.478,4.375.317,5.549,2.132,3.025" transform="translate(45.835 167.291)" fill="#5d588d"/>
          <path id="Trazado_587090" data-name="Trazado 587090" d="M29.558,105.332s-2.578,6.143-2.888,9.1.279,3.861,1.469,3.967,1.252-2,1.6-4.354c.333-2.22,2.5-9.514,2.5-9.514Z" transform="translate(42.036 165.258)" fill="#5d588d"/>
          <path id="Trazado_587091" data-name="Trazado 587091" d="M49.8,132.979a11.258,11.258,0,0,1-5.918,1.5c-2.5-.274-6.109-2.71-5.918-10.634a75.235,75.235,0,0,1,.927-11.573l-9.576-4.2s-2.6,6.019-3.115,17.824-.728,15.878-.728,15.878,10.216.625,16.263,0,8.721-2.341,8.721-2.341Z" transform="translate(40.264 170.863)" fill="#5d588d"/>
          <path id="Trazado_587092" data-name="Trazado 587092" d="M30.426,106.9l-1.056,6.143s3.131,3.513,6.192.888,3.5-3.833,3.5-3.833l-1.507-8.375Z" transform="translate(46.434 160.825)" fill="#ffad97"/>
          <path id="Trazado_587093" data-name="Trazado 587093" d="M38.562,98.994a7.093,7.093,0,0,0-11.07,3.768c-2.369,6.711,3.7,15.094,6.94,13.669,1.812-.8,5.621-3.629,6.7-7.162,1.208-3.977-.534-8.726-2.566-10.275" transform="translate(42.619 154.332)" fill="#ffc5b3"/>
          <path id="Trazado_587094" data-name="Trazado 587094" d="M27.46,106.08a5.993,5.993,0,0,0,5.9,1.786,13.033,13.033,0,0,0,4.558-1.678l.542,3.557a3.117,3.117,0,0,0,.934-.343c.054-1.407.557-1.845,1.329-1.427.875.475.911,2.48.911,2.48a7.279,7.279,0,0,0,1.75-6.561c-.555-2.5-3.928-7.438-8.636-7s-7.444,3.546-8.024,6.241a3.3,3.3,0,0,0,.741,2.945" transform="translate(42.114 153.146)" fill="#4d4d4d"/>
          <path id="Trazado_587095" data-name="Trazado 587095" d="M28.108,109.452c0,.485-.271.88-.607.88s-.607-.395-.607-.88.274-.88.607-.88.607.395.607.88" transform="translate(42.521 171.653)" fill="#fff"/>
          <path id="Trazado_587096" data-name="Trazado 587096" d="M29.722,110.221c-.284.395-.294.872-.021,1.069s.723.034,1-.361.294-.872.023-1.069-.723-.034-1.007.361" transform="translate(46.644 173.559)" fill="#fff"/>
          <path id="Trazado_587097" data-name="Trazado 587097" d="M26.726,110.4c-.392,1.982-.194,8.213,3.337,9.152,3.2.849,4.032-2.924,4.77-5.843a32.078,32.078,0,0,1-8.107-3.309" transform="translate(42.027 174.535)" fill="#7c76ac"/>
          <path id="Trazado_587098" data-name="Trazado 587098" d="M16.259,159.1a27.563,27.563,0,0,0,1.069,3.234,1.743,1.743,0,0,0,2.909.625c.927-.952.983-2.093,1.125-4.264.178-2.713.085-2.547.085-2.547Z" transform="translate(25.706 246.868)" fill="#afafaf"/>
          <path id="Trazado_587099" data-name="Trazado 587099" d="M22.27,159.722a3.73,3.73,0,0,1-2.465,3.859,2.371,2.371,0,0,1-3.3-1.861,3.731,3.731,0,0,1,2.462-3.859,2.372,2.372,0,0,1,3.306,1.861" transform="translate(26.041 249.31)" fill="#3a3a3a"/>
          <path id="Trazado_587100" data-name="Trazado 587100" d="M18.266,164.043l-1.376-.792,3.314-5.469,1.487.774Z" transform="translate(26.703 249.454)" fill="#3a3a3a"/>
          <path id="Trazado_587101" data-name="Trazado 587101" d="M22.76,160a3.73,3.73,0,0,1-2.465,3.859,2.371,2.371,0,0,1-3.3-1.861,3.731,3.731,0,0,1,2.462-3.859A2.372,2.372,0,0,1,22.76,160" transform="translate(26.815 249.755)" fill="#4d4d4d"/>
          <path id="Trazado_587102" data-name="Trazado 587102" d="M16.96,159.617a41.832,41.832,0,0,0,1.234,4.589,1.363,1.363,0,0,0,2.434.552c.841-.929.973-2.917,1.1-5.038a19.394,19.394,0,0,0,.021-3.51Z" transform="translate(26.814 246.969)" fill="#afafaf"/>
          <path id="Trazado_587103" data-name="Trazado 587103" d="M18.957,159.426a.716.716,0,0,1-.472.738.453.453,0,0,1-.632-.356.71.71,0,0,1,.472-.738.454.454,0,0,1,.632.356" transform="translate(28.214 251.439)" fill="#fff"/>
          <path id="Trazado_587104" data-name="Trazado 587104" d="M1.779,150.781a27.56,27.56,0,0,0,1.069,3.234,1.745,1.745,0,0,0,2.911.625c.924-.952.981-2.093,1.123-4.264.178-2.713.085-2.547.085-2.547Z" transform="translate(2.813 233.714)" fill="#afafaf"/>
          <path id="Trazado_587105" data-name="Trazado 587105" d="M7.79,151.4a3.73,3.73,0,0,1-2.465,3.859,2.371,2.371,0,0,1-3.3-1.861,3.731,3.731,0,0,1,2.462-3.859A2.372,2.372,0,0,1,7.79,151.4" transform="translate(3.148 236.156)" fill="#3a3a3a"/>
          <path id="Trazado_587106" data-name="Trazado 587106" d="M3.785,155.723l-1.376-.792,3.314-5.469,1.487.774Z" transform="translate(3.81 236.3)" fill="#3a3a3a"/>
          <path id="Trazado_587107" data-name="Trazado 587107" d="M8.279,151.683a3.73,3.73,0,0,1-2.465,3.859,2.371,2.371,0,0,1-3.3-1.861,3.731,3.731,0,0,1,2.462-3.859,2.372,2.372,0,0,1,3.306,1.861" transform="translate(3.921 236.601)" fill="#4d4d4d"/>
          <path id="Trazado_587108" data-name="Trazado 587108" d="M2.48,151.3a41.831,41.831,0,0,0,1.234,4.589,1.364,1.364,0,0,0,2.434.555c.841-.932.973-2.919,1.1-5.041a19.394,19.394,0,0,0,.021-3.51Z" transform="translate(3.921 233.815)" fill="#afafaf"/>
          <path id="Trazado_587109" data-name="Trazado 587109" d="M4.477,151.106a.716.716,0,0,1-.472.738.453.453,0,0,1-.632-.356.71.71,0,0,1,.472-.738.454.454,0,0,1,.632.356" transform="translate(5.321 238.285)" fill="#fff"/>
          <path id="Trazado_587110" data-name="Trazado 587110" d="M24.526,154.326a27.562,27.562,0,0,0,1.069,3.234,1.745,1.745,0,0,0,2.911.625c.924-.952.981-2.093,1.123-4.264.178-2.713.085-2.547.085-2.547Z" transform="translate(38.776 239.319)" fill="#afafaf"/>
          <path id="Trazado_587111" data-name="Trazado 587111" d="M30.537,154.947a3.733,3.733,0,0,1-2.465,3.859,2.371,2.371,0,0,1-3.3-1.861,3.731,3.731,0,0,1,2.462-3.859,2.372,2.372,0,0,1,3.306,1.861" transform="translate(39.111 241.761)" fill="#3a3a3a"/>
          <path id="Trazado_587112" data-name="Trazado 587112" d="M26.533,159.269l-1.376-.792,3.314-5.469,1.487.774Z" transform="translate(39.773 241.905)" fill="#3a3a3a"/>
          <path id="Trazado_587113" data-name="Trazado 587113" d="M31.028,155.229a3.735,3.735,0,0,1-2.467,3.859,2.369,2.369,0,0,1-3.3-1.861,3.725,3.725,0,0,1,2.462-3.859,2.372,2.372,0,0,1,3.306,1.861" transform="translate(39.885 242.207)" fill="#4d4d4d"/>
          <path id="Trazado_587114" data-name="Trazado 587114" d="M25.227,154.843a41.831,41.831,0,0,0,1.234,4.589,1.363,1.363,0,0,0,2.434.552c.841-.929.973-2.917,1.1-5.038a19.056,19.056,0,0,0,.021-3.51Z" transform="translate(39.884 239.421)" fill="#afafaf"/>
          <path id="Trazado_587115" data-name="Trazado 587115" d="M27.224,154.652a.716.716,0,0,1-.472.738.453.453,0,0,1-.632-.356.71.71,0,0,1,.472-.738.454.454,0,0,1,.632.356" transform="translate(41.284 243.891)" fill="#fff"/>
          <path id="Trazado_587116" data-name="Trazado 587116" d="M17.239,138.525l6.628-19.466L21.7,118.024l-6.891,19.21v48.415l2.429-1.156Z" transform="translate(23.415 186.597)" fill="#afafaf"/>
          <path id="Trazado_587117" data-name="Trazado 587117" d="M31.777,123.472l-7.235,20.163V192.05l2.429-1.159V144.926l7.038-20.669Z" transform="translate(38.802 195.21)" fill="#afafaf"/>
          <path id="Trazado_587118" data-name="Trazado 587118" d="M72.811,164.009,39.66,183.17,0,160.251,33.154,141.09Z" transform="translate(0.001 223.064)" fill="#d3d3d3"/>
          <path id="Trazado_587119" data-name="Trazado 587119" d="M15.367,169.131V172l33.15-19.151V149.97Z" transform="translate(24.295 237.103)" fill="#7c7c7c"/>
          <path id="Trazado_587120" data-name="Trazado 587120" d="M39.662,174.3v-2.867L0,148.513v2.87Z" transform="translate(-0.001 234.801)" fill="#afafaf"/>
          <path id="Trazado_587121" data-name="Trazado 587121" d="M40.008,147.291,15.367,133.085v2.754l24.641,14.206Z" transform="translate(24.295 210.408)" fill="#afafaf"/>
          <path id="Trazado_587122" data-name="Trazado 587122" d="M40.008,144.342,15.367,130.136v2.754L40.008,147.1Z" transform="translate(24.295 205.746)" fill="#afafaf"/>
          <path id="Trazado_587123" data-name="Trazado 587123" d="M51.294,136.056,23.662,120.1l-.01,0-5.707-3.3a1.224,1.224,0,0,0-1.226,2.119l27.632,15.953.01.005,5.709,3.3a1.225,1.225,0,1,0,1.223-2.122" transform="translate(25.467 184.41)" fill="#7c7c7c"/>
          <path id="Trazado_587124" data-name="Trazado 587124" d="M43.807,113.259s-3.714,7.81-5.252,9.988a58.622,58.622,0,0,1-8.951,8.6,8.675,8.675,0,0,1-3.244.821c-1.107.01-2.258-.359-3.046-.235-.2,1.056,2.576,1.838,2.576,1.838a4.56,4.56,0,0,0-1.512,2.5c-.093.867,1.7,2.328,3.737,3.42,1.422.767,3.766-.87,4.46-2.013.808-1.327.413-2.029,1.657-3.18,2.462-2.284,7.555-5.549,8.8-7.16,1.755-2.271,7.66-10.432,7.66-10.432s-2.042-5.18-6.886-4.153" transform="translate(36.842 178.849)" fill="#ffc5b3"/>
          <path id="Trazado_587125" data-name="Trazado 587125" d="M31.785,110.9s-1.1,1.649-2.14,3.518-6.1,12.015-6.933,13.163-1.58,1.272-3.048,3.234-.684,3.206.261,4.155a5.015,5.015,0,0,0,2.764,1.6,2.627,2.627,0,0,0,2.323-1.275s-.916-.418-.083-1.461a1.821,1.821,0,0,1,1.523-.539,23.9,23.9,0,0,1-.219-2.589c-.005-2.093,2.318-4.589,3.464-6.362s3.748-5.283,4.847-7.142c.7-1.177,2.14-3.755,2.14-3.755a9.677,9.677,0,0,0-4.9-2.55" transform="translate(29.803 175.329)" fill="#ffc5b3"/>
          <path id="Trazado_587126" data-name="Trazado 587126" d="M42.839,107.647c-1.925-1.551-6.047,3.7-8.233,6.984a44.926,44.926,0,0,0-3.939,8.19s2.633,1.915,4.992,3.4a38.181,38.181,0,0,0,4.068,2.191s9.72-15.445,3.113-20.767" transform="translate(48.485 169.749)" fill="#d1406b"/>
          <path id="Trazado_587127" data-name="Trazado 587127" d="M14.062,174.536l-.008-17.4,25.24-14.593v17.362Z" transform="translate(22.22 225.363)" fill="#dba763"/>
          <path id="Trazado_587128" data-name="Trazado 587128" d="M29.524,174.536l-.008-17.4L4.274,142.544v17.362Z" transform="translate(6.758 225.363)" fill="#e8b679"/>
          <path id="Trazado_587129" data-name="Trazado 587129" d="M4.274,151.481l25.242,14.593,25.242-14.593L29.524,136.89Z" transform="translate(6.757 216.425)" fill="#ffe1c0"/>
          <path id="Trazado_587130" data-name="Trazado 587130" d="M23.646,153.854l-5.629,3.268V147.9l5.629-3.27Z" transform="translate(28.485 228.665)" fill="#4d4d4d"/>
          <path id="Trazado_587131" data-name="Trazado 587131" d="M39.094,153.559,13.888,138.986l-5.642,3.26,25.219,14.593Z" transform="translate(13.037 219.738)" fill="#6d6d6d"/>
          <path id="Trazado_587132" data-name="Trazado 587132" d="M15.35,157.192v-1.623l8.473-4.914V152.3Z" transform="translate(24.268 238.186)" fill="#4d4d4d"/>
          <path id="Trazado_587133" data-name="Trazado 587133" d="M15.35,156.067v-1.623l8.473-4.914v1.647Z" transform="translate(24.268 236.407)" fill="#4d4d4d"/>
          <path id="Trazado_587134" data-name="Trazado 587134" d="M21.581,148.918v5.634l4.052-2.346v-5.637Z" transform="translate(34.119 231.727)" fill="#4d4d4d"/>
          <path id="Trazado_587135" data-name="Trazado 587135" d="M8.727,149.051v5.872l-4.052-2.341V146.71Z" transform="translate(7.391 231.95)" fill="#4d4d4d"/>
          <path id="Trazado_587136" data-name="Trazado 587136" d="M10.87,150.294v5.872l-4.052-2.341v-5.872Z" transform="translate(10.778 233.914)" fill="#4d4d4d"/>
          <path id="Trazado_587137" data-name="Trazado 587137" d="M18.731,151.432v8.437L10.4,155.056v-8.448Z" transform="translate(16.446 231.788)" fill="#fff"/>
          <path id="Trazado_587138" data-name="Trazado 587138" d="M17.248,152.3v-1.373l-6.553-3.779v1.35Z" transform="translate(16.909 232.644)" fill="#4d4d4d"/>
          <path id="Trazado_587139" data-name="Trazado 587139" d="M14.23,170.228,14.222,144.3l20.713-11.973v25.893Z" transform="translate(22.485 209.216)" fill="#dba763"/>
          <path id="Trazado_587140" data-name="Trazado 587140" d="M26.917,170.228,26.91,144.3,6.2,132.331v25.893Z" transform="translate(9.798 209.216)" fill="#e8b679"/>
          <path id="Trazado_587141" data-name="Trazado 587141" d="M6.2,139.664,26.91,151.637l20.713-11.973-20.7-11.971Z" transform="translate(9.798 201.883)" fill="#ffe1c0"/>
          <path id="Trazado_587142" data-name="Trazado 587142" d="M22.094,141.612l-4.62,2.682v-7.565l4.62-2.684Z" transform="translate(27.626 211.926)" fill="#4d4d4d"/>
          <path id="Trazado_587143" data-name="Trazado 587143" d="M34.769,141.37,14.084,129.412l-4.628,2.674,20.692,11.976Z" transform="translate(14.951 204.601)" fill="#6d6d6d"/>
          <path id="Trazado_587144" data-name="Trazado 587144" d="M15.285,148.864v-1.332l6.953-4.034v1.352Z" transform="translate(24.166 226.871)" fill="#4d4d4d"/>
          <path id="Trazado_587145" data-name="Trazado 587145" d="M15.285,147.94v-1.332l6.953-4.034v1.352Z" transform="translate(24.166 225.411)" fill="#4d4d4d"/>
          <path id="Trazado_587146" data-name="Trazado 587146" d="M20.4,142.074V146.7l3.324-1.925v-4.625Z" transform="translate(32.25 221.571)" fill="#4d4d4d"/>
          <path id="Trazado_587147" data-name="Trazado 587147" d="M10,141.881V146.7l-3.324-1.923v-4.816Z" transform="translate(10.552 221.28)" fill="#4d4d4d"/>
          <path id="Trazado_587148" data-name="Trazado 587148" d="M11.757,142.9v4.819L8.433,145.8v-4.816Z" transform="translate(13.332 222.892)" fill="#4d4d4d"/>
          <path id="Trazado_587149" data-name="Trazado 587149" d="M13.509,137.673V144.6l-6.835-3.952v-6.93Z" transform="translate(10.552 211.406)" fill="#fff"/>
          <path id="Trazado_587150" data-name="Trazado 587150" d="M12.291,138.387v-1.128l-5.376-3.1v1.11Z" transform="translate(10.932 212.107)" fill="#4d4d4d"/>
          <path id="Trazado_587151" data-name="Trazado 587151" d="M14.562,147.413l-.005-9.666,15.494-8.956v9.671Z" transform="translate(23.015 203.619)" fill="#dba763"/>
          <path id="Trazado_587152" data-name="Trazado 587152" d="M25.644,148.331l-.005-9.666L7.548,128.21v9.666Z" transform="translate(11.934 202.701)" fill="#e8b679"/>
          <path id="Trazado_587153" data-name="Trazado 587153" d="M7.548,133.694l18.09,10.456,15.491-8.956L23.052,124.741Z" transform="translate(11.934 197.216)" fill="#ffe1c0"/>
          <path id="Trazado_587154" data-name="Trazado 587154" d="M15.007,137.779v-1l5.2-3.017v1.012Z" transform="translate(23.726 211.484)" fill="#4d4d4d"/>
          <path id="Trazado_587155" data-name="Trazado 587155" d="M15.007,137.088v-1l5.2-3.017v1.012Z" transform="translate(23.726 210.393)" fill="#4d4d4d"/>
          <path id="Trazado_587156" data-name="Trazado 587156" d="M10.951,130.827v4.5l-3.1-1.794v-4.494Z" transform="translate(12.408 204.006)" fill="#4d4d4d"/>
          <path id="Trazado_587157" data-name="Trazado 587157" d="M18.938,135.459v5.366l-7.919-4.576v-5.374Z" transform="translate(17.421 206.915)" fill="#fff"/>
          <path id="Trazado_587158" data-name="Trazado 587158" d="M17.526,136.286V134.98L11.3,131.39v1.283Z" transform="translate(17.863 207.728)" fill="#4d4d4d"/>
          <path id="Trazado_587159" data-name="Trazado 587159" d="M22.32,134.754l-5.35,3.1v-5.09l5.35-3.108Z" transform="translate(26.83 204.995)" fill="#4d4d4d"/>
          <path id="Trazado_587160" data-name="Trazado 587160" d="M33.4,136.059,15.331,125.614l-5.366,3.1,18.08,10.469Z" transform="translate(15.755 198.596)" fill="#6d6d6d"/>
          <rect id="Rectángulo_281045" data-name="Rectángulo 281045" width="1.838" height="47.333" transform="translate(304.022 17.453)" fill="#4d4d4d"/>
          <rect id="Rectángulo_281046" data-name="Rectángulo 281046" width="3.12" height="47.333" transform="translate(300.904 17.453)" fill="#3a3a3a"/>
          <path id="Trazado_587161" data-name="Trazado 587161" d="M123.227,18.66c-.145-.036-.289-.077-.436-.129a4.862,4.862,0,0,1-2.676-2.46L115.063,5.783a4.234,4.234,0,0,1,.387-4.695,3.39,3.39,0,0,1,4.284-.594l11.06,5.929a5.007,5.007,0,0,1,2.542,3.619,3.751,3.751,0,0,1-1.363,3.745l-6.006,4.362a3.32,3.32,0,0,1-2.741.511m-1.12-3.5a1.989,1.989,0,0,0,1.1,1.009,1.385,1.385,0,0,0,1.3-.155l6.006-4.362a1.534,1.534,0,0,0,.56-1.536,2.054,2.054,0,0,0-1.043-1.489L118.973,2.7a1.365,1.365,0,0,0-1.76.243,1.685,1.685,0,0,0-.16,1.928Z" transform="translate(181.089 0.001)" fill="#4d4d4d"/>
          <path id="Trazado_587162" data-name="Trazado 587162" d="M118.492,8.481l1.985-1.112v-.5l-2.545,1.218Z" transform="translate(186.451 10.867)" fill="#4d4d4d"/>
          <path id="Trazado_587163" data-name="Trazado 587163" d="M114.658,1,116.2.14l.333.367-1.337,1.332Z" transform="translate(181.274 0.222)" fill="#4d4d4d"/>
          <path id="Trazado_587164" data-name="Trazado 587164" d="M122.617,19a4.135,4.135,0,0,1-.436-.126,4.871,4.871,0,0,1-2.676-2.46L114.453,6.126a4.234,4.234,0,0,1,.387-4.695,3.391,3.391,0,0,1,4.284-.594l11.06,5.926a5.017,5.017,0,0,1,2.542,3.621,3.751,3.751,0,0,1-1.363,3.745l-6.006,4.362a3.328,3.328,0,0,1-2.741.508m-1.12-3.5a2,2,0,0,0,1.1,1.009,1.385,1.385,0,0,0,1.306-.157l6-4.359a1.536,1.536,0,0,0,.56-1.538,2.055,2.055,0,0,0-1.043-1.487l-11.06-5.926a1.361,1.361,0,0,0-1.76.243,1.683,1.683,0,0,0-.16,1.928Z" transform="translate(180.125 0.543)" fill="#3a3a3a"/>
          <path id="Trazado_587165" data-name="Trazado 587165" d="M161.644,35.909,109.054,66.4c-2.8,1.623-7.082,1.807-9.514.41s-2.127-3.869.674-5.492l52.614-30.5Z" transform="translate(154.777 48.717)" fill="#4d4d4d"/>
          <path id="Trazado_587166" data-name="Trazado 587166" d="M125.436,32.306V34.6l-3.864.748-.772-3.706Z" transform="translate(190.986 50.027)" fill="#4d4d4d"/>
          <path id="Trazado_587167" data-name="Trazado 587167" d="M97.9,42.942v2.32l.87,1.017.426-2.762Z" transform="translate(154.777 67.891)" fill="#4d4d4d"/>
          <path id="Trazado_587168" data-name="Trazado 587168" d="M161.644,35.021,109.054,65.51c-2.8,1.623-7.082,1.807-9.514.41s-2.127-3.869.674-5.495l52.614-30.5Z" transform="translate(154.777 47.313)" fill="#707070"/>
          <path id="Trazado_587169" data-name="Trazado 587169" d="M105.229,42.992c.145.9-.991,1.83-2.54,2.08s-2.919-.276-3.064-1.177.991-1.827,2.54-2.078,2.919.276,3.064,1.174" transform="translate(157.489 66.015)" fill="#ffba76"/>
          <path id="Trazado_587170" data-name="Trazado 587170" d="M104.706,42.753c.129.8-.888,1.636-2.271,1.861s-2.609-.248-2.741-1.053.888-1.636,2.271-1.858,2.612.248,2.741,1.05" transform="translate(157.599 65.843)" fill="#ffa543"/>
          <path id="Trazado_587171" data-name="Trazado 587171" d="M153.1,30.979,100.511,61.468c-2.8,1.623-7.082,1.807-9.514.41s-2.127-3.869.674-5.492l52.614-30.5Z" transform="translate(141.27 40.923)" fill="#4d4d4d"/>
          <path id="Trazado_587172" data-name="Trazado 587172" d="M116.893,27.376V29.67l-3.864.751-.772-3.709Z" transform="translate(177.48 42.232)" fill="#4d4d4d"/>
          <path id="Trazado_587173" data-name="Trazado 587173" d="M89.355,38.012v2.32l.87,1.017.426-2.762Z" transform="translate(141.271 60.096)" fill="#4d4d4d"/>
          <path id="Trazado_587174" data-name="Trazado 587174" d="M153.1,30.09,100.511,60.579c-2.8,1.623-7.082,1.809-9.514.41s-2.127-3.869.674-5.492L144.284,25Z" transform="translate(141.27 39.517)" fill="#707070"/>
          <path id="Trazado_587175" data-name="Trazado 587175" d="M96.687,38.062c.145.9-.991,1.83-2.54,2.08s-2.919-.276-3.064-1.174.991-1.83,2.54-2.08,2.919.276,3.064,1.174" transform="translate(143.984 58.22)" fill="#ffba76"/>
          <path id="Trazado_587176" data-name="Trazado 587176" d="M96.164,37.823c.129.8-.888,1.636-2.271,1.861s-2.612-.248-2.741-1.053.888-1.636,2.271-1.858,2.612.245,2.741,1.05" transform="translate(144.094 58.049)" fill="#ffa543"/>
          <path id="Trazado_587177" data-name="Trazado 587177" d="M109.325,36.386l6.589-17.352,22.7,13.117,1.564,22.062Z" transform="translate(172.843 30.092)" fill="#ffba76"/>
          <path id="Trazado_587178" data-name="Trazado 587178" d="M122.236,47.353l3.4-1.972L124,23.373l-3.327,1.918Z" transform="translate(190.783 36.952)" fill="#ffa543"/>
          <path id="Trazado_587179" data-name="Trazado 587179" d="M111.878,20.208l22.7,13.112L137.9,31.4,115.235,18.293Z" transform="translate(176.879 28.922)" fill="#ffcea1"/>
          <path id="Trazado_587180" data-name="Trazado 587180" d="M108.879,66.044l-.01-20.147L138.1,29V49.1Z" transform="translate(172.121 45.843)" fill="#dba763"/>
          <path id="Trazado_587181" data-name="Trazado 587181" d="M134.649,70.582l-.01-20.147L92.568,26.126V46.232Z" transform="translate(146.351 41.306)" fill="#e8b679"/>
          <path id="Trazado_587182" data-name="Trazado 587182" d="M92.568,36.472l42.07,24.308,29.23-16.9-42.083-24.3Z" transform="translate(146.351 30.959)" fill="#ffe1c0"/>
          <path id="Trazado_587183" data-name="Trazado 587183" d="M119.977,42.095l-6.52,3.784V35.2l6.52-3.789Z" transform="translate(179.376 49.667)" fill="#4d4d4d"/>
          <path id="Trazado_587184" data-name="Trazado 587184" d="M145.739,46.289,103.694,22.007l-6.533,3.776,42.058,24.305Z" transform="translate(153.614 34.794)" fill="#6d6d6d"/>
          <path id="Trazado_587185" data-name="Trazado 587185" d="M109.717,46.7V44.815l9.813-5.691v1.91Z" transform="translate(173.463 61.855)" fill="#4d4d4d"/>
          <path id="Trazado_587186" data-name="Trazado 587186" d="M109.717,45.393V43.512l9.813-5.691v1.91Z" transform="translate(173.463 59.795)" fill="#4d4d4d"/>
          <path id="Trazado_587187" data-name="Trazado 587187" d="M97.731,33.357v6.8l-4.692-2.71v-6.8Z" transform="translate(147.095 48.453)" fill="#4d4d4d"/>
          <path id="Trazado_587188" data-name="Trazado 587188" d="M100.212,34.8v6.8L95.52,38.884v-6.8Z" transform="translate(151.018 50.728)" fill="#4d4d4d"/>
          <path id="Trazado_587189" data-name="Trazado 587189" d="M102.726,36.24v6.8l-4.692-2.713v-6.8Z" transform="translate(154.992 53.011)" fill="#4d4d4d"/>
          <path id="Trazado_587190" data-name="Trazado 587190" d="M114.285,39.289v9.772l-9.645-5.575V33.7Z" transform="translate(165.435 53.285)" fill="#fff"/>
          <path id="Trazado_587191" data-name="Trazado 587191" d="M112.567,40.3v-1.59l-7.588-4.377V35.9Z" transform="translate(165.972 54.275)" fill="#4d4d4d"/>
          <path id="Trazado_587192" data-name="Trazado 587192" d="M107.506,46.378l-.008-11.8,18.875-10.91V35.439Z" transform="translate(169.956 37.426)" fill="#dba763"/>
          <path id="Trazado_587193" data-name="Trazado 587193" d="M124.145,49.309l-.008-11.8-27.162-15.7V33.588Z" transform="translate(153.318 34.495)" fill="#e8b679"/>
          <path id="Trazado_587194" data-name="Trazado 587194" d="M96.974,28.506l27.165,15.7,18.872-10.91L115.839,17.6Z" transform="translate(153.317 27.828)" fill="#ffe1c0"/>
          <path id="Trazado_587195" data-name="Trazado 587195" d="M108.047,34.629V33.416l6.336-3.675v1.231Z" transform="translate(170.823 47.02)" fill="#4d4d4d"/>
          <path id="Trazado_587196" data-name="Trazado 587196" d="M108.047,33.788V32.572l6.336-3.673v1.231Z" transform="translate(170.823 45.69)" fill="#4d4d4d"/>
          <path id="Trazado_587197" data-name="Trazado 587197" d="M101.108,25v5.477L97.327,28.3V22.819Z" transform="translate(153.875 36.077)" fill="#4d4d4d"/>
          <path id="Trazado_587198" data-name="Trazado 587198" d="M103.105,26.161v5.477l-3.779-2.184V23.978Z" transform="translate(157.036 37.909)" fill="#4d4d4d"/>
          <path id="Trazado_587199" data-name="Trazado 587199" d="M112.835,31.8v6.538l-9.645-5.575V26.219Z" transform="translate(163.143 41.453)" fill="#fff"/>
          <path id="Trazado_587200" data-name="Trazado 587200" d="M111.117,32.813v-1.59l-7.588-4.377v1.567Z" transform="translate(163.68 42.442)" fill="#4d4d4d"/>
          <path id="Trazado_587201" data-name="Trazado 587201" d="M116.956,30.945l-6.517,3.784v-6.2l6.517-3.786Z" transform="translate(174.604 39.114)" fill="#4d4d4d"/>
          <path id="Trazado_587202" data-name="Trazado 587202" d="M133.6,34.352,106.466,18.66l-6.553,3.789,27.168,15.7Z" transform="translate(157.963 29.501)" fill="#6d6d6d"/>
          <path id="Trazado_587203" data-name="Trazado 587203" d="M105.1,141.736c2.06-2.008,3.6-3.686,3.6-3.686l9.379-.4v3.1a3.883,3.883,0,0,1-1.742,2.2,39.824,39.824,0,0,1-5.874,3.064,35.433,35.433,0,0,1-7.846,1.7c-1.969.077-2.818-.852-1.786-1.858,1.771-1.727,2.359-2.264,4.266-4.122" transform="translate(158.714 217.626)" fill="#4d4d4d"/>
          <path id="Trazado_587204" data-name="Trazado 587204" d="M113.487,139.884l8.461-.952a22.045,22.045,0,0,1-.8,10.923c-1.977,5.544-5.454,5.6-6.674,5.159s-1.786-3.964-1.564-7.957.576-7.173.576-7.173" transform="translate(178.438 219.652)" fill="#4d4d4d"/>
          <path id="Trazado_587205" data-name="Trazado 587205" d="M109.847,114.238s20.462-6.243,19.962-2.411c0,0,4.55,5.709,3.82,17.086-.336,5.227.114,18.24.552,27.212,5.252,11.816,6.285,25.464,6.285,25.464s.8,2.282-3.283,4.323-10.05-.085-10.05-.085,0-17.6-4.734-27.588c-2.589-5.461-3.288-24.38-3.288-24.38l-4.086,20.276-.364,25.707s-2.906,2.87-6.434,2.883c-4.594.018-4.824-2.664-4.824-2.664s-.8-22.021,1.027-34.358c1.611-10.853,5.418-31.465,5.418-31.465" transform="translate(163.203 174.832)" fill="#5d588d"/>
          <path id="Trazado_587206" data-name="Trazado 587206" d="M123.122,97.916a29.178,29.178,0,0,0-5.712,6.54c-.627,1.076-3.283,6.287-5.023,9.862-2.3-.018-10.213-.836-12.262-.836H97.24s.594,2.715,0,3.65a13.394,13.394,0,0,0-1.1,2.63,14.777,14.777,0,0,0,6.535,2.968c4.326.934,10.92,2.547,14.17,1.107,3.071-1.36,3.949-9.152,4.259-10.3.55-4.767,3.42-12.709,6.752-15.791,0,0-2.609-1.551-4.728.17" transform="translate(151.99 153.523)" fill="#c1c1c1"/>
          <path id="Trazado_587207" data-name="Trazado 587207" d="M112.319,98.2s-6.1,4.93-6.829,11.893c-.176,1.683.147,8.1-.225,13.318-.39,5.5-.648,9.075.3,10.889,1.133,2.168,5.185,4.3,9.163,5,4.509.8,9.63-.557,13.024-1.063,3.722-2.362,1.435-6.122,1.755-8.6,1.007-7.738,2.514-20.245,2.24-22.292-.457-3.425-8.221-7.134-8.221-7.134s-5.505-4.264-11.212-2.018" transform="translate(165.87 154.222)" fill="#ddd"/>
          <path id="Trazado_587208" data-name="Trazado 587208" d="M110.6,100.8l-.431,3.391a72.678,72.678,0,0,0-2.336,7.666c-.428,2.367-1.285,12.611-1.285,12.611L108,128.509l2.849-2.225,1.316-21.187,2.116-2.535-2.018-2.356Z" transform="translate(168.445 158.426)" fill="#5d588d"/>
          <path id="Trazado_587209" data-name="Trazado 587209" d="M108.853,100.871l-.369,5.366A14.468,14.468,0,0,0,111,108.831c1.938-.607,6.437-4.78,6.437-4.78l-1.5-8.329Z" transform="translate(171.514 151.337)" fill="#ffad97"/>
          <path id="Trazado_587210" data-name="Trazado 587210" d="M119.84,93.8a7.053,7.053,0,0,0-11.6.854c-3.962,5.864-.217,15.452,3.255,14.892,1.944-.315,6.318-2.085,8.236-5.216,2.16-3.526,1.673-8.533.106-10.531" transform="translate(168.445 144.104)" fill="#ffc5b3"/>
          <path id="Trazado_587211" data-name="Trazado 587211" d="M110.49,98.284l.439,4.961-3.533,1.44s-.364-5.255,3.095-6.4" transform="translate(169.776 155.388)" fill="#fff"/>
          <path id="Trazado_587212" data-name="Trazado 587212" d="M116.473,97.8a26.037,26.037,0,0,1-3.283,3.828,12.339,12.339,0,0,1-4.432,2.382l1.329,3.99s4.878-2.235,6.672-4.186c0,0,2.116-3.657-.286-6.014" transform="translate(171.947 154.622)" fill="#fff"/>
          <path id="Trazado_587213" data-name="Trazado 587213" d="M111.368,95.793c5.234,1.876,6.553,6.032,7.209,6.6.741.64.632,3.1.632,3.1A9.047,9.047,0,0,0,122,99.027c-.008-2.519-2.209-7.978-6.827-8.548s-9.875,2.777-7.846,5.978a4.319,4.319,0,0,1,4.044-.663" transform="translate(168.971 142.945)" fill="#4d4d4d"/>
          <path id="Trazado_587214" data-name="Trazado 587214" d="M129.965,118.886c1.174-8.27.681-15.54-3.815-18.5-3.27-2.15-4.292,8.048-5.18,14.583-.214,1.572-1.7,8.791-2.057,10.5-2.191.521-9.552,5.116-10.92,6.878a10.944,10.944,0,0,1,2.733,6.034c4.927-1.092,10.734-2.212,13.912-5.691,3.159-3.459,4.772-9.932,5.327-13.806" transform="translate(170.738 158.247)" fill="#c1c1c1"/>
          <path id="Trazado_587215" data-name="Trazado 587215" d="M108.09,124.811l11.736,6.873L109.868,114.8l-11.733-6.873Z" transform="translate(155.151 170.636)" fill="#cc8c46"/>
          <path id="Trazado_587216" data-name="Trazado 587216" d="M112.636,127.881l1.089-.669-9.958-16.88-1.087.666Z" transform="translate(162.34 174.437)" fill="#d89c55"/>
          <path id="Trazado_587217" data-name="Trazado 587217" d="M98.134,108.338l1.089-.668,11.736,6.873-1.089.668Z" transform="translate(155.151 170.226)" fill="#e8b470"/>
          <path id="Trazado_587218" data-name="Trazado 587218" d="M118.268,116.658a16.97,16.97,0,0,1-2.537,2.194,8.938,8.938,0,0,1-12.608-2.013,1.475,1.475,0,0,1,.5-2.3c1.21-.808,3.688.323,5.175.194a7.758,7.758,0,0,1-.841-1.43c1.306-.485,5.278.077,5.278.077s4.8-1.5,5.033,3.28" transform="translate(162.484 178.816)" fill="#ffc5b3"/>
          <path id="Trazado_587219" data-name="Trazado 587219" d="M116.48,106.3l-6.094-2.545s-1.861,6.042,2.062,7.648c4.112,1.683,4.032-5.1,4.032-5.1" transform="translate(173.824 164.034)" fill="#fff"/>
          <path id="Trazado_587220" data-name="Trazado 587220" d="M110.036,103.931l-4.287-2.1s-1.489,6.045,1.265,7.01c2.191.767,3.022-4.906,3.022-4.906" transform="translate(166.555 160.989)" fill="#fff"/>
          <path id="Trazado_587221" data-name="Trazado 587221" d="M109.836,112.59a5.409,5.409,0,0,1,2.359,2.95c.88,2.251.374,3.084.374,3.084l-3.213,1.311a16.444,16.444,0,0,0-.89-3.724,4.838,4.838,0,0,0-1.639-2.023Z" transform="translate(168.894 178.006)" fill="#fff"/>
          <path id="Trazado_587222" data-name="Trazado 587222" d="M120.163,92.2c3.877,1.538,4.723,4.6,1.892,6.842s-8.27,2.811-12.146,1.275-4.721-4.6-1.889-6.842,8.267-2.813,12.144-1.275" transform="translate(168.133 144.405)" fill="#97a9dd"/>
          <path id="Trazado_587223" data-name="Trazado 587223" d="M106.435,100.412s-1.644-9.958,6.974-11.225C123.454,87.709,123.774,99.5,123.774,99.5Z" transform="translate(168.076 140.803)" fill="#97a9dd"/>
          <path id="Trazado_587224" data-name="Trazado 587224" d="M107.3,92.889s-4.189,3.918.89,6.109c8.608,3.714,15.651-3.113,15.651-3.113s-9.147,2.181-13.79.145c-3.144-1.381-2.751-3.141-2.751-3.141" transform="translate(167.081 146.858)" fill="#8a9ad0"/>
          <path id="Trazado_587225" data-name="Trazado 587225" d="M111.386,89.717c-1.3.761-1.892,1.673-2.656,3.526a3.588,3.588,0,0,0,1.714,4.71,11.229,11.229,0,0,1,3.12,2.927,4.114,4.114,0,0,0-1.327-3.438c-1.6-1.334-3.092-2.026-2.173-4.2,1.133-2.671,4.824-3.66,4.824-3.66s-1.26-1.177-3.5.134" transform="translate(171.4 140.863)" fill="#8a9ad0"/>
          <path id="Trazado_587226" data-name="Trazado 587226" d="M113.571,89.109a8.35,8.35,0,0,0-3.456,2.524c-.472.746-.447,3.309-.89,3.946a25.886,25.886,0,0,1-2.754,2.48s-.694-.648.17-1.82,1.915-1.272,2.011-3.017c.065-1.172-.534-3.773,4.919-4.114" transform="translate(167.914 140.882)" fill="#8a9ad0"/>
          <path id="Trazado_587227" data-name="Trazado 587227" d="M105.66,104.559a58.311,58.311,0,0,0-6.718-1.4c-2.671-.307-3.128-.23-3.662.075s.227.764.991.916.687.839.23.994a14.872,14.872,0,0,0-4.961,1.451c-2.14,1.221-.8,2.488,1.182,3.471s6.718-.457,8.548-.952a5.634,5.634,0,0,1,3.588.534,6.787,6.787,0,0,0,.8-5.09" transform="translate(142.999 162.787)" fill="#ffc5b3"/>
          <path id="Trazado_587228" data-name="Trazado 587228" d="M99.486,103.657a13.558,13.558,0,0,1,0,3.394,11.932,11.932,0,0,1-1.536,3.4l-2.537-1.706a21.968,21.968,0,0,0,1.017-2.625,4.975,4.975,0,0,0,.085-2.806Z" transform="translate(150.849 163.348)" fill="#ddd"/>
          <path id="Trazado_587229" data-name="Trazado 587229" d="M87.238,141.8l-.008-14.239,20.658-11.945v14.211Z" transform="translate(137.911 182.782)" fill="#dba763"/>
          <path id="Trazado_587230" data-name="Trazado 587230" d="M99.892,141.8l-.008-14.239L79.226,115.611v14.211Z" transform="translate(125.257 182.782)" fill="#e8b679"/>
          <path id="Trazado_587231" data-name="Trazado 587231" d="M79.226,122.925l20.658,11.942,20.661-11.942-20.653-11.94Z" transform="translate(125.257 175.468)" fill="#ffe1c0"/>
          <path id="Trazado_587232" data-name="Trazado 587232" d="M95.081,124.868l-4.607,2.674V120l4.607-2.677Z" transform="translate(143.04 185.485)" fill="#4d4d4d"/>
          <path id="Trazado_587233" data-name="Trazado 587233" d="M107.724,124.626,87.094,112.7l-4.617,2.666,20.64,11.947Z" transform="translate(130.396 178.179)" fill="#6d6d6d"/>
          <path id="Trazado_587234" data-name="Trazado 587234" d="M88.291,127.6v-1.329l6.935-4.021V123.6Z" transform="translate(139.588 193.277)" fill="#4d4d4d"/>
          <path id="Trazado_587235" data-name="Trazado 587235" d="M88.291,126.679V125.35l6.935-4.021v1.347Z" transform="translate(139.588 191.821)" fill="#4d4d4d"/>
          <path id="Trazado_587236" data-name="Trazado 587236" d="M93.39,120.828v4.612l3.317-1.92v-4.615Z" transform="translate(147.651 187.991)" fill="#4d4d4d"/>
          <path id="Trazado_587237" data-name="Trazado 587237" d="M82.87,120.937v4.806l-3.317-1.915v-4.806Z" transform="translate(125.775 188.174)" fill="#4d4d4d"/>
          <path id="Trazado_587238" data-name="Trazado 587238" d="M84.624,121.954v4.806l-3.317-1.918v-4.8Z" transform="translate(128.548 189.782)" fill="#4d4d4d"/>
          <path id="Trazado_587239" data-name="Trazado 587239" d="M91.058,122.885v6.907l-6.816-3.939v-6.915Z" transform="translate(133.187 188.042)" fill="#fff"/>
          <path id="Trazado_587240" data-name="Trazado 587240" d="M89.844,123.6v-1.125l-5.363-3.092v1.107Z" transform="translate(133.565 188.741)" fill="#4d4d4d"/>
          <path id="Trazado_587241" data-name="Trazado 587241" d="M87.344,129.1l-.005-8.471,13.579-7.851v8.479Z" transform="translate(138.084 178.31)" fill="#dba763"/>
          <path id="Trazado_587242" data-name="Trazado 587242" d="M97.056,129.91l-.005-8.471L81.2,112.274v8.471Z" transform="translate(128.372 177.505)" fill="#e8b679"/>
          <path id="Trazado_587243" data-name="Trazado 587243" d="M81.2,117.081l15.855,9.165,13.581-7.851-15.847-9.163Z" transform="translate(128.371 172.697)" fill="#ffe1c0"/>
          <path id="Trazado_587244" data-name="Trazado 587244" d="M87.733,120.661v-.875l4.558-2.643v.885Z" transform="translate(138.707 185.204)" fill="#4d4d4d"/>
          <path id="Trazado_587245" data-name="Trazado 587245" d="M87.733,120.056v-.872l4.558-2.646v.888Z" transform="translate(138.707 184.247)" fill="#4d4d4d"/>
          <path id="Trazado_587246" data-name="Trazado 587246" d="M84.179,114.568v3.941l-2.72-1.572V113Z" transform="translate(128.786 178.648)" fill="#4d4d4d"/>
          <path id="Trazado_587247" data-name="Trazado 587247" d="M91.179,118.628v4.7l-6.94-4.008V114.61Z" transform="translate(133.181 181.198)" fill="#fff"/>
          <path id="Trazado_587248" data-name="Trazado 587248" d="M89.942,119.353v-1.143l-5.459-3.149v1.125Z" transform="translate(133.568 181.911)" fill="#4d4d4d"/>
          <path id="Trazado_587249" data-name="Trazado 587249" d="M94.144,118.01l-4.69,2.723V116.27l4.69-2.726Z" transform="translate(141.427 179.515)" fill="#4d4d4d"/>
          <path id="Trazado_587250" data-name="Trazado 587250" d="M103.851,119.155,88.017,110l-4.7,2.718,15.847,9.173Z" transform="translate(131.72 173.907)" fill="#6d6d6d"/>
          <path id="Trazado_587251" data-name="Trazado 587251" d="M85.045,130.165c1.613-5.482,2.439-11.516-.286-15.953l-5.929.139a43.824,43.824,0,0,0-3.007,9.088c-.614,3.884.281,5.735,1.83,7.575s7.051-.614,7.258-.751l.134-.1" transform="translate(119.567 180.57)" fill="#ffc5b3"/>
          <path id="Trazado_587252" data-name="Trazado 587252" d="M89.4,155.186s6.365-2.837,9.514-2.973,3.453,3.562,0,6.429-6.1,3.252-8.923,4.413c-2.547,1.048-3.464,1.13-5.5-.188-2.71-1.758-.537-6.409-.537-6.409Z" transform="translate(131.438 240.643)" fill="#4d4d4d"/>
          <path id="Trazado_587253" data-name="Trazado 587253" d="M82.3,150.516s5.056-2.111,8.205-2.248,4.279,2.586.826,5.454-5.616,3.5-8.442,4.664c-2.547,1.048-3.448,1.11-5.492-.188-2.787-1.768-.609-6.416-.539-6.409Z" transform="translate(120.129 234.405)" fill="#4d4d4d"/>
          <path id="Trazado_587254" data-name="Trazado 587254" d="M101.112,126.219s5.557,30.017,5.557,39.443c0,16.622-.147,34.124-.147,34.124s-2.754,2.893-5.436,2.9c-6.034.015-6.644-3.02-6.644-3.02s-.085-19.809-.609-28.807c-.367-6.259-.733-15.078-3.247-22.354-.072,7.472-.054,9.867-.666,18-.454,6-2.953,22.111-3.089,23.162-1.913,2.31-7.844,3.905-10.848.524.235-2.651,1.9-21.262,1.685-30.91-.2-8.863-2.462-29.857,2.607-33.945,4.383-3.536,20.836.883,20.836.883" transform="translate(120.13 195.989)" fill="#5d588d"/>
          <path id="Trazado_587255" data-name="Trazado 587255" d="M85.963,127.874a39.77,39.77,0,0,0-.958-7l2.955-9.4s-4.14-2.1-6.94,1.239c-1.167,1.386-3.3,5.557-5.165,9.446,1.435,2.493,5.335,5.874,10.107,5.717" transform="translate(119.929 175.208)" fill="#d1406b"/>
          <path id="Trazado_587256" data-name="Trazado 587256" d="M88.286,104.434c-2.215-1.536-6.471-1.058-8.319,2.844-1.022,2.16.423,7.97.65,12.051a9.917,9.917,0,0,1-.916,5.188l2.821,1.164a8.514,8.514,0,0,0,5.763,0l-.09-5.017s3.038-.452,3.57-.939c1.28-1.172,1.956-4.664,1.363-9.165-.883-6.7-4.026-5.56-4.842-6.125" transform="translate(125.857 163.826)" fill="#ffc5b3"/>
          <path id="Trazado_587257" data-name="Trazado 587257" d="M100.049,129.058c1.665-3.554-2.111-10.007-3.169-12.327S92.43,113,92.43,113a56.594,56.594,0,0,0-6.249-1.923c-.7-.106-3.146-.258-3.146-.258s-5.389,8.479-5.988,13.15c-.418,3.27,1.365,13.961.044,24.491-.7,5.572,20.325,4,22.176,1.729-1.079-5.268-2.62-13.868.782-21.133" transform="translate(121.709 175.209)" fill="#fc6181"/>
          <path id="Trazado_587258" data-name="Trazado 587258" d="M77.943,127.394a68.07,68.07,0,0,1-.3,11.214c-.671,4.2-1.076,10.691-1.076,10.691s5.978,4.651,12.882,3.846a24.248,24.248,0,0,0,11.689-4.829s-2.3-11.816-2.165-13.266L99.1,133.6s-2.651,1.254-4.326.55a7.939,7.939,0,0,1-5.327-6.264c-.6-3.038-.206-10.1-.065-11.991-.338-.049-8.915-2.571-8.915-2.571s-2.625,8.368-2.524,14.072" transform="translate(121.05 179.163)" fill="#5d588d"/>
          <path id="Trazado_587259" data-name="Trazado 587259" d="M93.185,113.911c.336-1.123,1.1-3.735,1.3-4.785a5.121,5.121,0,0,0-1.378-4.772c-1.67-1.737-7.457-2.295-9.55-1.084s-6.545,3.425-4.992,10.642c1.257,5.833,2.478,6.489,4.241,7.857a10.029,10.029,0,0,0,4.251,1.494,5.014,5.014,0,0,0,1.783-3.3c.085-.7,0-2.806,0-2.806s-1.543-3.053-.348-4.14c1.272-1.159,2.573.684,2.873,1.427,1.043,2.609,2.078,3.835,1.825-.532" transform="translate(123.695 162.246)" fill="#4d4d4d"/>
          <path id="Trazado_587260" data-name="Trazado 587260" d="M113.247,127.523a42.82,42.82,0,0,1-12.239-1.28,34.1,34.1,0,0,1-7.684-3.164,51.881,51.881,0,0,1-2.225-5.745l-7.72,3.149s1.946,5.211,3.087,7.588c.916,1.91,2.065,2.292,3.895,2.966,2.674.986,10.51,1.257,13.63,1.662a17.393,17.393,0,0,0,6.884-.369c3.776-.914,2.522-3.758,2.372-4.806" transform="translate(131.824 185.504)" fill="#ffc5b3"/>
          <path id="Trazado_587261" data-name="Trazado 587261" d="M84.51,130.709c3.665.785,7.624-.354,9.674-3.149-1.494-6.752-3.869-14.092-7.121-15.169-1.75-.581-4.878,5.482-4.349,9.777.15,1.213.883,4.592,1.8,8.541" transform="translate(130.677 177.631)" fill="#d1406b"/>
          <path id="Trazado_587262" data-name="Trazado 587262" d="M76.92,125.011l-.274,2.966s4.011,3.451,12.675,3.647,11.491-2.767,11.491-2.767l-.514-3.051a23.311,23.311,0,0,1-11.22,2.919,22.759,22.759,0,0,1-12.159-3.714" transform="translate(121.178 197.643)" fill="#7c76ac"/>
          <path id="Trazado_587263" data-name="Trazado 587263" d="M80.546,119.419s.958-3.859,2.759-5.717a7,7,0,0,1,3.49-2.036s1.773.493,1.747,1c-.965.578-2.736,1.229-3.781,3.007a24.16,24.16,0,0,0-1.825,5.51Z" transform="translate(127.344 176.545)" fill="#5d588d"/>
          <path id="Trazado_587264" data-name="Trazado 587264" d="M81.577,110.82a21.491,21.491,0,0,0-2.816,6.187,54.429,54.429,0,0,0-1.069,5.508l1.673.209s1.605-6.21,2.514-8.45a26.266,26.266,0,0,1,1.574-3.345Z" transform="translate(122.833 175.207)" fill="#5d588d"/>
          <path id="Trazado_587265" data-name="Trazado 587265" d="M93.267,123.636a29,29,0,0,0,2.909-2.751c.725-.847,1.332-.632,1.089.32a10.48,10.48,0,0,1-1.515,2.589s-1.848-.157-2.165-.157Z" transform="translate(147.456 190.282)" fill="#ffc5b3"/>
          <path id="Trazado_587266" data-name="Trazado 587266" d="M90.611,103.4c4.225.444,5.9,3.219,3.737,6.194s-7.343,5.033-11.571,4.589-5.9-3.216-3.735-6.194,7.34-5.033,11.568-4.589" transform="translate(123.473 163.376)" fill="#fc6181"/>
          <path id="Trazado_587267" data-name="Trazado 587267" d="M78.39,113.682s-2.514-8.574,5.105-11.163c5.477-1.858,9.591.31,11.813,5.931,1.355,3.425-16.919,5.232-16.919,5.232" transform="translate(123.308 161.056)" fill="#fc6181"/>
          <path id="Trazado_587268" data-name="Trazado 587268" d="M83.544,111.905c.555-.312,3.139-3.554,2.424-6.5a18.175,18.175,0,0,0-1.061-2.093s.764-.4,3.9.258,3.719,3.479,1.285,5.454a13.908,13.908,0,0,1-6.548,2.883" transform="translate(132.084 163.142)" fill="#d1406b"/>
        </g>
      </g>
    </g>
  </g>
</svg>
