<svg xmlns="http://www.w3.org/2000/svg" xmlns:xlink="http://www.w3.org/1999/xlink" width="139" height="140" viewBox="0 0 139 140">
  <defs>
    <clipPath id="clip-path">
      <ellipse id="Elipse_154" data-name="Elipse 154" cx="69.5" cy="70" rx="69.5" ry="70" transform="translate(-0.304 -0.327)" fill="#fff" stroke="#707070" stroke-width="1"/>
    </clipPath>
  </defs>
  <g id="Grupo_4585" data-name="Grupo 4585" transform="translate(0.304 0.327)">
    <g id="Enmascarar_grupo_17" data-name="Enmascarar grupo 17" transform="translate(0 0)" clip-path="url(#clip-path)">
      <g id="Elipse_7362" data-name="Elipse 7362" transform="translate(-7.304 -6.327)" fill="#fff" stroke="#707070" stroke-width="1">
        <circle cx="76.5" cy="76.5" r="76.5" stroke="none"/>
        <circle cx="76.5" cy="76.5" r="76" fill="none"/>
      </g>
      <g id="Grupo_846248" data-name="Grupo 846248" transform="translate(-2494.394 562.96)">
        <path id="Trazado_585870" data-name="Trazado 585870" d="M2562.314-456h-43.55c-2.9,0-2.9,0-2.9-2.99,0-8.375.042-16.75-.034-25.123-.016-1.733.542-2.273,2.249-2.225,3.781.105,7.569-.026,11.351.064,1.331.032,1.64-.389,1.631-1.666-.057-7.878-.029-15.756-.029-23.635,0-2.916,0-2.916,3.008-2.916,3.536,0,7.073-.055,10.607.03,1.24.029,1.535-.359,1.528-1.555-.051-8.064-.028-16.129-.025-24.193,0-2.325.068-2.391,2.416-2.392q13.865,0,27.731,0c2.33,0,2.4.068,2.4,2.41,0,8,.039,16.005-.035,24.007-.013,1.408.36,1.765,1.743,1.727,3.72-.1,7.446.031,11.165-.064,1.678-.043,2.3.471,2.278,2.222-.076,8.064.005,16.129-.069,24.193-.013,1.469.383,1.876,1.844,1.835,3.781-.1,7.568.021,11.351-.061,1.552-.033,2.044.52,2.034,2.054-.055,8.746-.068,17.494.009,26.24.015,1.737-.7,2.064-2.217,2.06Q2584.554-456.03,2562.314-456Zm-16.265-2.727c.038-5.01.088-10.019.112-15.029.018-3.9,0-3.914-3.974-3.895-1.475.007-3.358-.45-4.314.279-1.043.8-.213,2.777-.359,4.232-.012.122,0,.248,0,.371-.091,1.637-.989,2.215-2.065,1.1-2.367-2.459-4.387-2.364-6.725.026-1.02,1.043-1.958.508-2.03-.973-.064-1.3-.062-2.6,0-3.9.043-.914-.324-1.172-1.187-1.153-1.98.045-3.966.089-5.942-.013-1.227-.064-1.571.328-1.553,1.54.067,4.457.051,8.915.011,13.372a10.8,10.8,0,0,1-.21,3.845l-.142.266.248-.166a.39.39,0,0,1,.224.092c.154.871.866.549,1.333.55q12.608.027,25.216-.02C2545.157-458.2,2545.86-457.876,2546.049-458.724Zm32.739,0c.188.848.891.521,1.36.523q12.607.047,25.216.02c.467,0,1.179.322,1.333-.55a.391.391,0,0,1,.222-.084l.251.157-.153-.263a2.947,2.947,0,0,1-.206-1.806c-.017-4.4-.009-8.791-.009-13.187,0-3.741,0-3.777-3.755-3.724-1.584.022-3.632-.7-4.615.356-.756.812-.229,2.819-.271,4.295,0,.124.008.248,0,.371-.127,1.477-1.029,2.017-2.042.971-2.34-2.414-4.36-2.456-6.725-.023-1.084,1.114-2,.539-2.057-1.1-.043-1.237-.051-2.478,0-3.714.039-.876-.262-1.208-1.16-1.188q-3.156.072-6.314,0c-.852-.019-1.216.208-1.205,1.13C2578.726-470.6,2578.749-464.662,2578.788-458.724Zm-21.63-69.62a19.421,19.421,0,0,1-.14-4.438c-.008-.879-.271-1.191-1.172-1.167-2.107.056-4.218.07-6.324,0-1.058-.038-1.209.427-1.2,1.326.03,5.642.039,11.284-.007,16.927-.008,1,.329,1.243,1.274,1.239q12.835-.044,25.67,0c.945,0,1.281-.236,1.273-1.239-.045-5.642-.037-11.285-.007-16.927,0-.9-.148-1.363-1.2-1.326-2.105.075-4.216.061-6.323,0-.9-.024-1.165.288-1.173,1.168a19.377,19.377,0,0,1-.141,4.438c-.054.025-.151.045-.155.077a1.258,1.258,0,0,0,.023.288c-.96,1.141-1.641.14-2.32-.352-2.814-2.039-2.8-2.054-5.607.013a8.736,8.736,0,0,1-.747.546c-.571.334-1.141.517-1.582-.207.032-.049.1-.125.089-.141A2.039,2.039,0,0,0,2557.157-528.344Zm20.256,42.042c4.217,0,8.436-.055,12.651.032,1.347.028,1.651-.422,1.631-1.687-.072-4.4-.027-8.806-.027-13.209,0-4.638,0-4.638-4.6-4.638-4.085,0-4.085,0-4.093,4,0,.372.026.747-.01,1.116-.133,1.374-1.021,1.909-1.94.94-2.4-2.528-4.5-2.453-6.9,0-.931.955-1.865.431-1.967-.935a20.335,20.335,0,0,1,0-3.346c.122-1.321-.205-1.921-1.691-1.807a45.787,45.787,0,0,1-5.392.013c-1.154-.048-1.612.224-1.592,1.522.079,5.518.063,11.039.009,16.558-.011,1.136.3,1.487,1.456,1.468C2569.1-486.343,2573.258-486.3,2577.413-486.3Zm-15.051,28.15c4.214,0,8.428-.006,12.642,0,.845,0,1.54.074,1.526-1.2-.062-5.7-.049-11.4-.006-17.1.008-1.036-.414-1.242-1.323-1.221-2.044.047-4.092.066-6.134-.006-1.012-.036-1.289.346-1.243,1.286a36.921,36.921,0,0,1,0,3.716c-.081,1.526-1.006,2.088-1.993,1.043-2.422-2.567-4.509-2.333-6.88.047-.946.95-1.843.424-1.933-.978a32.367,32.367,0,0,1-.005-3.716c.05-.993-.191-1.453-1.318-1.4-1.979.091-3.968.092-5.947,0-1.183-.055-1.448.385-1.438,1.491.05,5.453.082,10.907-.017,16.358-.026,1.477.488,1.73,1.8,1.707C2554.181-458.2,2558.273-458.151,2562.362-458.152ZM2547.215-486.3c4.213,0,8.426-.012,12.638.01.879,0,1.507.028,1.493-1.216-.063-5.7-.042-11.4-.012-17.1,0-.85-.2-1.227-1.126-1.2-2.1.053-4.214.069-6.317-.006-1.054-.038-1.253.408-1.208,1.322a35.587,35.587,0,0,1,0,3.716c-.083,1.476-1.032,2.015-2.037.98-2.333-2.4-4.356-2.483-6.727-.035-1.087,1.123-1.986.561-2.045-1.086-.045-1.237-.062-2.48.006-3.715.049-.906-.286-1.193-1.167-1.174-2.043.045-4.092.085-6.131-.011-1.209-.057-1.432.422-1.423,1.507.045,5.513.06,11.027-.01,16.54-.017,1.3.472,1.511,1.617,1.494C2538.913-486.339,2543.064-486.3,2547.215-486.3Zm18.483-44.124v-5.033c0-5.325,0-5.325-5.319-5.011-.123.007-.247.009-.371,0-.627-.02-.875.29-.873.906.012,2.82.005,5.639.005,9.078C2561.389-533.173,2563.436-533.287,2565.7-530.426Zm-15.2,27.449v-4.4c0-5.011,0-5.011-5-4.908a5.257,5.257,0,0,1-.556,0c-.6-.051-.933.181-.931.824,0,2.821,0,5.642,0,9.067C2546.257-504.961,2548.248-505.149,2550.5-502.977Zm30.089.315a17.073,17.073,0,0,0,.26-4.71c.029-5.331.012-5.331-5.365-4.916-.123.01-.247.01-.37.009-.541,0-.766.282-.765.805,0,2.853,0,5.706,0,9.168C2576.576-505.077,2578.567-505.031,2580.585-502.663Zm-14.892,27.905V-479.2c0-5.02,0-5.02-5.033-4.9-.247.006-.494.01-.74.01-.544,0-.769.3-.769.812,0,2.811,0,5.622,0,8.7,1.229-.754,2.138-1.659,3.186-1.864C2563.564-476.688,2564.241-475.058,2565.694-474.757Zm-30.395.512v-4.971c0-5.259,0-5.259-5.24-4.87a1.322,1.322,0,0,1-.185,0c-.7-.049-1,.258-.992.97.018,2.747.008,5.494.008,8.825C2531.073-476.775,2533.063-477.012,2535.3-474.246Zm60.654-.461v-4.661c0-4.842,0-4.842-4.877-4.721-.248.006-.5.012-.744.012a.7.7,0,0,0-.783.8c0,2.805,0,5.61,0,8.558C2592.752-476.483,2592.752-476.483,2595.953-474.707Zm-8.716-37.59a20.37,20.37,0,0,1-2.586-.02c-1.444-.186-1.89.432-1.7,1.77a5.015,5.015,0,0,1,0,1.292c-.129,1.082.365,1.382,1.385,1.345a43.059,43.059,0,0,1,5.357.018c1.692.15,2.113-.474,2.026-2.071-.127-2.328-.028-2.333-2.451-2.334Zm-49.726,4.365h1.48c3.064,0,3.017,0,2.9-3.149-.035-1-.387-1.259-1.314-1.232a52.265,52.265,0,0,1-5.546-.018c-1.6-.125-1.984.473-1.917,1.973.109,2.421.02,2.425,2.357,2.427Zm15.152-28.191c.988,0,1.982-.058,2.964.016,1.048.08,1.474-.3,1.36-1.356a7.648,7.648,0,0,1,0-1.666c.123-1.1-.395-1.374-1.4-1.345-1.975.057-3.955.064-5.93,0-1.057-.036-1.351.331-1.359,1.377-.021,2.978-.071,2.978,2.883,2.978Q2551.921-536.121,2552.662-536.123Zm19.441,0a21.5,21.5,0,0,1,2.593.019c1.449.177,2.066-.334,1.828-1.816a4.7,4.7,0,0,1,0-1.295c.123-1-.325-1.289-1.27-1.259a41.961,41.961,0,0,1-5.186-.02c-1.79-.167-2.271.414-2.281,2.219-.01,1.832.531,2.437,2.283,2.169A13.605,13.605,0,0,1,2572.1-536.121Zm.056,56.3c1.115,0,2.231.012,3.346-.007.345-.006.888.1.919-.374a10.108,10.108,0,0,0-.051-3.5c-.26-.845-1.433-.348-2.192-.385-1.36-.066-2.739.1-4.086-.048-1.747-.19-2.362.315-2.294,2.181.059,1.621.352,2.426,2.131,2.149A14.836,14.836,0,0,1,2572.16-479.818Zm-19.516-4.281c-.991,0-1.988.061-2.973-.016-1.072-.084-1.465.332-1.35,1.378a7.522,7.522,0,0,1,0,1.67c-.114.983.282,1.3,1.251,1.267a39.46,39.46,0,0,1,5.2.019c1.809.175,2.294-.422,2.263-2.225-.029-1.683-.448-2.365-2.163-2.112A15.431,15.431,0,0,1,2552.644-484.1Zm-11.012,4.3c1.052,0,2.107-.057,3.155.016s1.473-.332,1.353-1.38a6.363,6.363,0,0,1,0-1.482c.137-1.133-.306-1.526-1.452-1.469a35.839,35.839,0,0,1-5.192-.015c-1.7-.163-2,.467-2.051,2.054-.06,1.87.444,2.615,2.335,2.292A11.166,11.166,0,0,1,2541.632-479.8Zm15.443-28.133c.991,0,1.985-.048,2.971.014.944.06,1.4-.241,1.288-1.244a6.166,6.166,0,0,1,0-1.483c.17-1.26-.253-1.777-1.6-1.679a28.583,28.583,0,0,1-4.824-.006c-1.752-.171-2.325.327-2.29,2.182.033,1.731.372,2.538,2.23,2.237A14.3,14.3,0,0,1,2557.075-507.933Zm26.122,23.84c-1.051,0-2.108.062-3.154-.017-1.076-.081-1.452.351-1.347,1.383a8.176,8.176,0,0,1,0,1.668c-.1.983.312,1.3,1.273,1.274a44.816,44.816,0,0,1,5.378.021c1.678.15,2-.449,2.045-2.043.05-1.866-.443-2.625-2.343-2.3A11.338,11.338,0,0,1,2583.2-484.093Zm19.287,4.292c.99,0,1.986-.061,2.97.016,1.093.087,1.438-.374,1.328-1.4a8.065,8.065,0,0,1,0-1.669c.1-.99-.321-1.292-1.278-1.261a41,41,0,0,1-5.382-.023c-1.745-.173-1.947.541-2.025,2.074-.1,1.915.5,2.569,2.348,2.276A13.316,13.316,0,0,1,2602.484-479.8Zm-34.6-28.131c.494,0,.989.011,1.482,0,3.123-.081,2.7.633,2.795-2.888.029-1.09-.242-1.562-1.427-1.5a33.959,33.959,0,0,1-5-.01c-1.737-.16-2.334.313-2.291,2.174.039,1.714.355,2.542,2.219,2.24A14.056,14.056,0,0,1,2567.882-507.932Zm-45.446,28.083a25.48,25.48,0,0,1,2.586.017c1.25.128,1.861-.262,1.66-1.6a4.981,4.981,0,0,1,0-1.291c.118-1.015-.237-1.439-1.321-1.388a36.152,36.152,0,0,1-4.986-.012c-1.795-.164-2.483.3-2.381,2.264.08,1.563.354,2.293,2.045,2.033A15.945,15.945,0,0,1,2522.436-479.849Z" transform="translate(0)" fill="#232021"/>
        <path id="Trazado_585871" data-name="Trazado 585871" d="M2612.025-513.414c.441.724,1.011.541,1.583.207a8.815,8.815,0,0,0,.747-.546c2.8-2.067,2.793-2.052,5.607-.013.679.492,1.36,1.493,2.32.352l.133-.365a19.445,19.445,0,0,0,.14-4.438c.008-.88.271-1.192,1.172-1.168,2.107.056,4.218.07,6.323,0,1.057-.038,1.209.427,1.2,1.326-.03,5.642-.039,11.285.007,16.927.008,1-.329,1.243-1.273,1.24q-12.835-.044-25.67,0c-.945,0-1.282-.236-1.274-1.24.046-5.642.037-11.285.007-16.927,0-.9.147-1.363,1.205-1.326,2.1.075,4.216.061,6.323,0,.9-.024,1.164.288,1.172,1.168a19.42,19.42,0,0,0,.14,4.438Zm-6.035,6.076a.691.691,0,0,0-.63.65.6.6,0,0,0,.121.791,1.144,1.144,0,0,0,1.216.621h9a1.141,1.141,0,0,0,1.215-.623.593.593,0,0,0,.121-.789.693.693,0,0,0-.628-.649A86.875,86.875,0,0,0,2605.991-507.337Zm2.416,5.272c.679,0,1.359.021,2.037-.006s1.233-.305,1.223-1.089-.575-1.028-1.26-1.034c-1.3-.011-2.594-.013-3.891.005-.691.01-1.242.289-1.228,1.067s.585,1.028,1.267,1.051C2607.171-502.05,2607.789-502.067,2608.406-502.065Z" transform="translate(-54.735 -14.565)" fill="#f8c995"/>
        <path id="Trazado_585872" data-name="Trazado 585872" d="M2657.715-424.38c-4.156,0-8.312-.041-12.466.026-1.159.019-1.467-.332-1.455-1.468.055-5.519.07-11.04-.009-16.558-.019-1.3.438-1.57,1.593-1.522a45.78,45.78,0,0,0,5.392-.013c1.486-.114,1.813.486,1.691,1.807a20.389,20.389,0,0,0,0,3.346c.1,1.365,1.036,1.889,1.966.934,2.394-2.454,4.5-2.529,6.9,0,.919.968,1.806.433,1.94-.941.036-.369.009-.744.01-1.116.009-4,.009-4,4.094-4,4.6,0,4.6,0,4.6,4.638,0,4.4-.044,8.807.027,13.209.021,1.265-.284,1.715-1.631,1.687C2666.151-424.435,2661.933-424.38,2657.715-424.38Zm-5.872-5.445h4.637c.684,0,1.291-.208,1.342-.968.059-.888-.6-1.141-1.348-1.143q-4.545-.014-9.089.005c-.747,0-1.4.238-1.335,1.151.053.8.678.949,1.342.952C2648.875-429.821,2650.36-429.826,2651.843-429.825Zm-2.57,3.271c.62,0,1.241,0,1.861,0,.7,0,1.242-.273,1.273-1.041s-.5-1.116-1.194-1.132q-2.044-.048-4.091.013a1.016,1.016,0,0,0-1.087,1.041c-.016.776.478,1.095,1.192,1.114C2647.908-426.541,2648.591-426.556,2649.273-426.554Z" transform="translate(-80.302 -61.922)" fill="#f9b253"/>
        <path id="Trazado_585873" data-name="Trazado 585873" d="M2617.068-348.77c-4.09,0-8.18-.047-12.269.028-1.312.024-1.826-.229-1.8-1.707.1-5.451.066-10.905.017-16.358-.01-1.106.255-1.546,1.438-1.491,1.978.092,3.968.091,5.947,0,1.127-.051,1.369.409,1.318,1.4a32.425,32.425,0,0,0,0,3.716c.09,1.4.987,1.928,1.933.978,2.371-2.381,4.458-2.614,6.881-.047.986,1.045,1.912.483,1.993-1.043a36.922,36.922,0,0,0,0-3.716c-.045-.939.232-1.322,1.243-1.286,2.043.072,4.091.054,6.135.006.909-.021,1.33.184,1.323,1.221-.044,5.7-.056,11.4.005,17.1.014,1.273-.681,1.2-1.526,1.2C2625.5-348.775,2621.282-348.77,2617.068-348.77Zm-5.884-5.408c1.423,0,2.845-.009,4.267,0,.793.006,1.6-.075,1.623-1.065s-.756-1.139-1.563-1.138q-4.359,0-8.719,0c-.815,0-1.568.185-1.532,1.17.031.858.721,1.039,1.473,1.033C2608.216-354.185,2609.7-354.177,2611.184-354.177Zm-2.743,3.266c.676,0,1.354.024,2.029-.007.7-.032,1.209-.377,1.188-1.125s-.534-1.053-1.245-1.053q-1.938,0-3.874,0c-.7,0-1.259.268-1.286,1.014-.031.854.585,1.148,1.344,1.171C2607.211-350.892,2607.826-350.907,2608.441-350.911Z" transform="translate(-54.706 -109.382)" fill="#f8c995"/>
        <path id="Trazado_585874" data-name="Trazado 585874" d="M2576.4-424.337c-4.151,0-8.3-.037-12.452.024-1.145.017-1.634-.2-1.617-1.494.069-5.513.055-11.027.01-16.54-.009-1.085.214-1.565,1.423-1.507,2.04.1,4.088.057,6.131.012.88-.019,1.215.268,1.166,1.174-.067,1.235-.05,2.478,0,3.715.059,1.647.958,2.209,2.044,1.086,2.371-2.448,4.394-2.369,6.728.035,1,1.035,1.955.5,2.037-.98a35.519,35.519,0,0,0,0-3.715c-.045-.914.155-1.359,1.208-1.322,2.1.075,4.213.059,6.318.006.927-.023,1.13.354,1.126,1.2-.03,5.7-.051,11.4.012,17.1.014,1.244-.613,1.221-1.492,1.216C2584.824-424.349,2580.611-424.336,2576.4-424.337Zm-.8-7.6a.773.773,0,0,0-.845-.549q-4.314,0-8.628,0c-.476,0-.84.132-.975.635-.913,1.512-.713,2.038.922,2.068,2.948.055,5.9.014,8.848.014.573,0,1.16-.05,1.394-.662C2576.579-431.137,2576.183-431.6,2575.6-431.94Zm-7.894,5.422c.739,0,1.477.02,2.214-.006a1.026,1.026,0,0,0,1.081-1.034,1.013,1.013,0,0,0-1.022-1.1c-1.473-.051-2.952-.052-4.425.007a1,1,0,0,0-.989,1.12,1.038,1.038,0,0,0,1.111,1.007C2566.348-426.5,2567.025-426.517,2567.7-426.518Z" transform="translate(-29.184 -61.966)" fill="#f7c894"/>
        <path id="Trazado_585875" data-name="Trazado 585875" d="M2712.788-349.725a.4.4,0,0,0-.22.085l-27.909.007c-.038-5.938-.062-11.877-.13-17.815-.011-.922.353-1.149,1.205-1.13q3.156.071,6.314,0c.9-.02,1.2.312,1.16,1.188-.055,1.236-.047,2.477,0,3.714.057,1.638.973,2.213,2.057,1.1,2.365-2.433,4.386-2.391,6.725.023,1.014,1.046,1.915.507,2.042-.971.01-.123,0-.248,0-.371.043-1.476-.484-3.483.272-4.295.982-1.054,3.03-.333,4.615-.356,3.754-.054,3.754-.017,3.754,3.724,0,4.4-.008,8.791.009,13.187a2.948,2.948,0,0,0,.205,1.806Zm-20.163-4.742c1.484,0,2.967-.009,4.45,0,.75.006,1.438-.162,1.476-1.025.042-.981-.687-1.185-1.512-1.184q-4.45.007-8.9,0c-.767,0-1.405.267-1.39,1.123s.659,1.088,1.426,1.082C2689.659-354.474,2691.143-354.466,2692.626-354.467Zm-2.731,1.086c-.677,0-1.354-.009-2.031,0a1.036,1.036,0,0,0-1.127.99,1.058,1.058,0,0,0,1.141,1.175c1.413.035,2.83.036,4.243-.022a1.019,1.019,0,0,0,1.043-1.077,1.011,1.011,0,0,0-1.055-1.053C2691.372-353.4,2690.633-353.376,2689.894-353.382Z" transform="translate(-105.871 -109.09)" fill="#fcb454"/>
        <path id="Trazado_585876" data-name="Trazado 585876" d="M2521.155-349.71a10.8,10.8,0,0,0,.209-3.844c.041-4.457.056-8.916-.01-13.372-.018-1.213.326-1.6,1.552-1.54,1.976.1,3.962.058,5.942.013.863-.019,1.23.238,1.187,1.153-.062,1.3-.063,2.6,0,3.9.073,1.481,1.01,2.016,2.031.973,2.337-2.39,4.358-2.485,6.725-.026,1.076,1.118,1.974.539,2.065-1.1.007-.123-.01-.249,0-.371.146-1.455-.684-3.436.359-4.232.956-.728,2.839-.272,4.314-.279,3.977-.019,3.991-.006,3.973,3.895-.023,5.01-.073,10.02-.111,15.03l-27.909-.007a.392.392,0,0,0-.224-.092Zm8.315-4.632c1.483,0,2.967-.011,4.45,0,.76.008,1.425-.193,1.47-1.04s-.57-1.163-1.348-1.164q-4.543-.006-9.086,0c-.769,0-1.395.275-1.372,1.137s.677,1.072,1.435,1.067C2526.5-354.347,2527.987-354.341,2529.471-354.342Zm-2.715,3.277v-.008c.677,0,1.355.03,2.031-.009s1.218-.369,1.2-1.122-.544-1.051-1.246-1.056c-1.292-.009-2.584,0-3.877-.007-.7,0-1.256.275-1.286,1.017-.035.849.561,1.163,1.332,1.182C2525.525-351.053,2526.141-351.065,2526.756-351.065Z" transform="translate(-3.345 -109.216)" fill="#fcb454"/>
        <path id="Trazado_585877" data-name="Trazado 585877" d="M2638.676-527.024c-2.262-2.861-4.309-2.747-6.556-.054,0-3.44.007-6.259-.006-9.078,0-.616.245-.926.873-.907.124,0,.248,0,.371,0,5.318-.314,5.318-.314,5.318,5.011Z" transform="translate(-72.978 -3.402)" fill="#e88b26"/>
        <path id="Trazado_585878" data-name="Trazado 585878" d="M2597.978-451.941c-2.248-2.172-4.24-1.984-6.49.581,0-3.425,0-6.246,0-9.067,0-.643.327-.875.931-.824a5.353,5.353,0,0,0,.556,0c5-.1,5-.1,5,4.908Z" transform="translate(-47.482 -51.036)" fill="#f39126"/>
        <path id="Trazado_585879" data-name="Trazado 585879" d="M2679.192-451.861c-2.019-2.368-4.009-2.414-6.238.356,0-3.462,0-6.315,0-9.168,0-.523.224-.807.765-.805.123,0,.247,0,.37-.009,5.376-.415,5.394-.415,5.365,4.916A17.112,17.112,0,0,1,2679.192-451.861Z" transform="translate(-98.606 -50.802)" fill="#de7812"/>
        <path id="Trazado_585880" data-name="Trazado 585880" d="M2638.7-376.24c-1.452-.3-2.129-1.931-3.356-1.691-1.047.2-1.957,1.11-3.186,1.864,0-3.073,0-5.885,0-8.7,0-.515.225-.812.769-.812.247,0,.494,0,.74-.01,5.033-.12,5.033-.121,5.033,4.9Z" transform="translate(-73.003 -98.518)" fill="#eb8d26"/>
        <path id="Trazado_585881" data-name="Trazado 585881" d="M2557.3-375.9c-2.236-2.766-4.227-2.529-6.41-.045,0-3.331.011-6.078-.008-8.825,0-.712.3-1.019.992-.97a1.337,1.337,0,0,0,.186,0c5.24-.388,5.24-.388,5.24,4.87Z" transform="translate(-22 -98.342)" fill="#de7812"/>
        <path id="Trazado_585882" data-name="Trazado 585882" d="M2720.177-376.17c-3.2-1.776-3.2-1.776-6.4-.013,0-2.948,0-5.753,0-8.558a.7.7,0,0,1,.783-.8c.248,0,.5-.006.744-.012,4.877-.121,4.877-.121,4.877,4.721Z" transform="translate(-124.224 -98.537)" fill="#de7812"/>
        <path id="Trazado_585883" data-name="Trazado 585883" d="M2700.274-461.327h2.034c2.423,0,2.323.007,2.45,2.334.087,1.6-.333,2.221-2.026,2.071a43.054,43.054,0,0,0-5.357-.018c-1.02.037-1.514-.264-1.384-1.345a5.016,5.016,0,0,0,0-1.292c-.191-1.338.255-1.956,1.7-1.77A20.3,20.3,0,0,0,2700.274-461.327Z" transform="translate(-113.037 -50.971)" fill="#e88b26"/>
        <path id="Trazado_585884" data-name="Trazado 585884" d="M2566.638-456.958H2564.6c-2.337,0-2.248-.006-2.357-2.427-.068-1.5.319-2.1,1.917-1.973a52.244,52.244,0,0,0,5.546.018c.927-.026,1.279.232,1.314,1.232.112,3.151.159,3.149-2.9,3.149Z" transform="translate(-29.127 -50.974)" fill="#f2af52"/>
        <path id="Trazado_585885" data-name="Trazado 585885" d="M2607.367-532.549h-1.483c-2.954,0-2.9,0-2.883-2.979.007-1.047.3-1.413,1.359-1.377,1.975.067,3.955.06,5.93,0,1.007-.029,1.524.247,1.4,1.345a7.631,7.631,0,0,0,0,1.666c.114,1.054-.312,1.436-1.36,1.356C2609.348-532.608,2608.356-532.55,2607.367-532.549Z" transform="translate(-54.706 -3.573)" fill="#f2af52"/>
        <path id="Trazado_585886" data-name="Trazado 585886" d="M2659.653-532.617a13.609,13.609,0,0,0-2.037.016c-1.752.268-2.293-.337-2.283-2.169.01-1.8.49-2.386,2.281-2.219a41.969,41.969,0,0,0,5.187.02c.945-.029,1.393.264,1.27,1.26a4.675,4.675,0,0,0,0,1.295c.238,1.482-.378,1.993-1.828,1.816A21.493,21.493,0,0,0,2659.653-532.617Z" transform="translate(-87.549 -3.504)" fill="#f2af52"/>
        <path id="Trazado_585887" data-name="Trazado 585887" d="M2659.73-381.4a14.764,14.764,0,0,0-2.228.02c-1.779.277-2.072-.528-2.13-2.149-.068-1.867.547-2.371,2.294-2.181,1.347.147,2.725-.018,4.085.048.76.037,1.933-.46,2.193.385a10.1,10.1,0,0,1,.051,3.5c-.031.475-.574.368-.918.374C2661.961-381.391,2660.845-381.4,2659.73-381.4Z" transform="translate(-87.57 -98.415)" fill="#fcb454"/>
        <path id="Trazado_585888" data-name="Trazado 585888" d="M2607.367-385.644a15.428,15.428,0,0,0,2.228-.018c1.715-.253,2.134.429,2.164,2.112.031,1.8-.454,2.4-2.263,2.225a39.45,39.45,0,0,0-5.2-.019c-.969.034-1.365-.284-1.251-1.267a7.508,7.508,0,0,0,0-1.67c-.115-1.047.278-1.463,1.35-1.378C2605.378-385.582,2606.375-385.644,2607.367-385.644Z" transform="translate(-54.723 -98.456)" fill="#fcb454"/>
        <path id="Trazado_585889" data-name="Trazado 585889" d="M2578.052-381.323a11.172,11.172,0,0,0-1.853.016c-1.892.323-2.4-.422-2.335-2.292.05-1.587.353-2.216,2.051-2.054a35.855,35.855,0,0,0,5.192.015c1.146-.057,1.589.337,1.452,1.469a6.377,6.377,0,0,0,0,1.482c.12,1.048-.291,1.454-1.353,1.38S2579.1-381.323,2578.052-381.323Z" transform="translate(-36.42 -98.478)" fill="#f39126"/>
        <path id="Trazado_585890" data-name="Trazado 585890" d="M2619.068-456.985a14.2,14.2,0,0,0-2.226.02c-1.858.3-2.2-.507-2.23-2.237-.036-1.854.537-2.353,2.289-2.182a28.593,28.593,0,0,0,4.824.006c1.35-.1,1.773.419,1.6,1.679a6.154,6.154,0,0,0,0,1.483c.111,1-.344,1.3-1.288,1.244C2621.053-457.034,2620.06-456.985,2619.068-456.985Z" transform="translate(-61.994 -50.948)" fill="#f2af52"/>
        <path id="Trazado_585891" data-name="Trazado 585891" d="M2689.1-385.661a11.3,11.3,0,0,0,1.854-.017c1.9-.323,2.392.437,2.342,2.3-.043,1.594-.366,2.194-2.045,2.043a44.827,44.827,0,0,0-5.379-.021c-.961.03-1.374-.291-1.272-1.274a8.21,8.21,0,0,0,0-1.668c-.106-1.032.27-1.463,1.347-1.383C2687-385.6,2688.054-385.66,2689.1-385.661Z" transform="translate(-105.908 -98.433)" fill="#f39126"/>
        <path id="Trazado_585892" data-name="Trazado 585892" d="M2741.091-381.328a13.274,13.274,0,0,0-2.041.017c-1.85.293-2.445-.361-2.348-2.276.078-1.533.28-2.247,2.025-2.074a41.008,41.008,0,0,0,5.382.023c.957-.031,1.381.27,1.278,1.261a8.082,8.082,0,0,0,0,1.669c.11,1.022-.235,1.483-1.328,1.4C2743.076-381.39,2742.081-381.328,2741.091-381.328Z" transform="translate(-138.607 -98.472)" fill="#f39126"/>
        <path id="Trazado_585893" data-name="Trazado 585893" d="M2648.113-456.971a14.037,14.037,0,0,0-2.22.019c-1.864.3-2.18-.526-2.219-2.24-.043-1.862.553-2.335,2.291-2.174a33.951,33.951,0,0,0,5,.01c1.185-.066,1.457.406,1.427,1.5-.095,3.521.328,2.807-2.794,2.888C2649.1-456.961,2648.607-456.971,2648.113-456.971Z" transform="translate(-80.231 -50.96)" fill="#eb8d26"/>
        <path id="Trazado_585894" data-name="Trazado 585894" d="M2526.072-381.373a15.948,15.948,0,0,0-2.4.021c-1.69.26-1.964-.47-2.045-2.033-.1-1.967.587-2.429,2.381-2.265a36.139,36.139,0,0,0,4.985.012c1.084-.051,1.439.373,1.322,1.388a4.97,4.97,0,0,0,0,1.291c.2,1.341-.411,1.731-1.661,1.6A25.469,25.469,0,0,0,2526.072-381.373Z" transform="translate(-3.635 -98.476)" fill="#f39126"/>
        <path id="Trazado_585895" data-name="Trazado 585895" d="M2522.039-317.413l27.909.007c-.188.848-.892.521-1.36.523q-12.607.048-25.216.02C2522.905-316.864,2522.193-316.542,2522.039-317.413Z" transform="translate(-3.9 -141.318)" fill="#fec159"/>
        <path id="Trazado_585896" data-name="Trazado 585896" d="M2684.878-317.406l27.909-.007c-.154.872-.866.549-1.332.55q-12.608.027-25.216-.02C2685.77-316.885,2685.066-316.558,2684.878-317.406Z" transform="translate(-106.09 -141.318)" fill="#fec159"/>
        <path id="Trazado_585897" data-name="Trazado 585897" d="M2626.934-503.957l-.133-.365a1.946,1.946,0,0,1,.223.224C2627.035-504.083,2626.966-504.006,2626.934-503.957Z" transform="translate(-69.644 -24.021)" fill="#090e1a"/>
        <path id="Trazado_585898" data-name="Trazado 585898" d="M2521.019-317.832l-.248.166.142-.267Z" transform="translate(-3.104 -140.991)" fill="#090e1a"/>
        <path id="Trazado_585899" data-name="Trazado 585899" d="M2654.783-504.322l-.132.365a1.243,1.243,0,0,1-.023-.288C2654.632-504.277,2654.729-504.3,2654.783-504.322Z" transform="translate(-87.105 -24.021)" fill="#090e1a"/>
        <path id="Trazado_585900" data-name="Trazado 585900" d="M2760.506-317.924l.153.263-.251-.157Z" transform="translate(-153.49 -140.997)" fill="#090e1a"/>
        <path id="Trazado_585901" data-name="Trazado 585901" d="M2609.227-485.849a.6.6,0,0,1-.122-.791.634.634,0,0,0,.63-.65,86.9,86.9,0,0,1,10.414,0,.634.634,0,0,0,.628.649.593.593,0,0,1-.121.789Z" transform="translate(-58.479 -34.613)" fill="#1a191e"/>
        <path id="Trazado_585902" data-name="Trazado 585902" d="M2612.186-476.474c-.617,0-1.236.016-1.853-.005-.682-.023-1.252-.274-1.266-1.051s.537-1.057,1.228-1.067c1.3-.018,2.594-.016,3.891-.005.685.006,1.25.24,1.26,1.034s-.534,1.062-1.223,1.089S2612.865-476.474,2612.186-476.474Z" transform="translate(-58.514 -40.157)" fill="#1a191e"/>
        <path id="Trazado_585903" data-name="Trazado 585903" d="M2609.59-483.161l11.428,0a1.14,1.14,0,0,1-1.215.623h-9A1.144,1.144,0,0,1,2609.59-483.161Z" transform="translate(-58.843 -37.3)" fill="#232021"/>
        <path id="Trazado_585904" data-name="Trazado 585904" d="M2639.543-486.375a.634.634,0,0,1-.628-.649A.693.693,0,0,1,2639.543-486.375Z" transform="translate(-77.246 -34.877)" fill="#232021"/>
        <path id="Trazado_585905" data-name="Trazado 585905" d="M2609.894-487.027a.635.635,0,0,1-.63.65A.692.692,0,0,1,2609.894-487.027Z" transform="translate(-58.638 -34.875)" fill="#232021"/>
        <path id="Trazado_585906" data-name="Trazado 585906" d="M2655.653-409.629c-1.484,0-2.967,0-4.451,0-.664,0-1.289-.152-1.342-.952-.061-.913.589-1.147,1.335-1.15q4.545-.021,9.089-.005c.751,0,1.406.255,1.348,1.143-.05.76-.657.969-1.341.968Z" transform="translate(-84.112 -82.118)" fill="#1a191e"/>
        <path id="Trazado_585907" data-name="Trazado 585907" d="M2653.064-400.979c-.682,0-1.364.014-2.046,0-.714-.019-1.208-.338-1.192-1.114a1.017,1.017,0,0,1,1.087-1.041q2.044-.064,4.091-.013c.693.016,1.225.359,1.194,1.132s-.568,1.038-1.273,1.041C2654.3-400.976,2653.685-400.978,2653.064-400.979Z" transform="translate(-84.093 -87.498)" fill="#232021"/>
        <path id="Trazado_585908" data-name="Trazado 585908" d="M2614.992-334.084c-1.484,0-2.968-.008-4.452,0-.752.006-1.442-.175-1.473-1.033-.036-.985.717-1.171,1.532-1.17q4.36,0,8.719,0c.807,0,1.587.154,1.564,1.138s-.829,1.072-1.623,1.065C2617.837-334.093,2616.414-334.084,2614.992-334.084Z" transform="translate(-58.514 -129.475)" fill="#232021"/>
        <path id="Trazado_585909" data-name="Trazado 585909" d="M2612.238-325.288c-.615,0-1.23.017-1.844,0-.759-.023-1.375-.317-1.344-1.171.027-.746.589-1.013,1.286-1.014q1.937,0,3.874,0c.712,0,1.224.308,1.245,1.053s-.489,1.092-1.187,1.125C2613.593-325.266,2612.915-325.29,2612.238-325.288Z" transform="translate(-58.504 -135.003)" fill="#232021"/>
        <path id="Trazado_585910" data-name="Trazado 585910" d="M2579.435-411.859c.587.336.983.8.716,1.5-.234.612-.822.662-1.395.662-2.949,0-5.9.041-8.848-.014-1.635-.031-1.834-.556-.922-2.068Z" transform="translate(-33.023 -82.047)" fill="#1a191e"/>
        <path id="Trazado_585911" data-name="Trazado 585911" d="M2571.458-400.963c-.677,0-1.354.013-2.031,0a1.037,1.037,0,0,1-1.111-1.007,1,1,0,0,1,.989-1.12c1.474-.06,2.951-.058,4.426-.007a1.013,1.013,0,0,1,1.022,1.1,1.026,1.026,0,0,1-1.081,1.034C2572.936-400.943,2572.2-400.963,2571.458-400.963Z" transform="translate(-32.94 -87.521)" fill="#232021"/>
        <path id="Trazado_585912" data-name="Trazado 585912" d="M2580.347-412.789l-10.448.083c.135-.5.5-.637.975-.635q4.314.009,8.628,0A.773.773,0,0,1,2580.347-412.789Z" transform="translate(-33.934 -81.117)" fill="#f8c995"/>
        <path id="Trazado_585913" data-name="Trazado 585913" d="M2696.366-334.087c-1.483,0-2.967-.007-4.45,0-.768.006-1.412-.229-1.427-1.082s.623-1.123,1.39-1.123q4.45,0,8.9,0c.826,0,1.555.2,1.513,1.184-.037.863-.726,1.031-1.476,1.025C2699.333-334.1,2697.85-334.088,2696.366-334.087Z" transform="translate(-109.612 -129.47)" fill="#232021"/>
        <path id="Trazado_585914" data-name="Trazado 585914" d="M2693.608-327.464c.738,0,1.478-.026,2.214.011a1.011,1.011,0,0,1,1.055,1.053,1.02,1.02,0,0,1-1.043,1.077c-1.413.058-2.83.057-4.243.022a1.058,1.058,0,0,1-1.141-1.175,1.035,1.035,0,0,1,1.127-.99C2692.255-327.476,2692.932-327.467,2693.608-327.464Z" transform="translate(-109.585 -135.005)" fill="#232021"/>
        <path id="Trazado_585915" data-name="Trazado 585915" d="M2533.563-334.084c-1.483,0-2.967-.006-4.45,0-.758,0-1.414-.2-1.436-1.067s.6-1.137,1.372-1.137q4.544,0,9.086,0c.777,0,1.393.318,1.348,1.164s-.71,1.048-1.47,1.04C2536.53-334.1,2535.046-334.084,2533.563-334.084Z" transform="translate(-7.438 -129.473)" fill="#232021"/>
        <path id="Trazado_585916" data-name="Trazado 585916" d="M2530.837-325.284c-.616,0-1.231.012-1.846,0-.771-.019-1.367-.333-1.332-1.182.03-.743.584-1.019,1.287-1.017,1.292,0,2.584,0,3.877.007.7,0,1.23.3,1.246,1.056s-.514,1.083-1.2,1.122-1.354.009-2.03.009Z" transform="translate(-7.426 -134.996)" fill="#232021"/>
      </g>
    </g>
  </g>
</svg>
