<svg id="Grupo_845555" data-name="Grupo 845555" xmlns="http://www.w3.org/2000/svg" width="105.878" height="105.878" viewBox="0 0 105.878 105.878">
  <rect id="Rectángulo_38178" data-name="Rectángulo 38178" width="105.878" height="105.878" transform="translate(0 0)" fill="none"/>
  <g id="Grupo_846246" data-name="Grupo 846246" transform="translate(-3453.317 300.482)">
    <path id="Trazado_585815" data-name="Trazado 585815" d="M3463.117-239.015c0-4.013.058-8.027-.03-12.038a2.162,2.162,0,0,1,1.913-2.505c5.565-1.414,11.1-2.942,16.667-4.351,1.146-.29,1.67-.639,1.622-1.981-.127-3.53-.083-7.067-.018-10.6.019-1.047-.216-1.644-1.311-1.9-1.043-.242-2.039-.682-3.06-1.024-1.4-.469-1.806-1.321-.965-2.6,1.779-2.7,3.594-5.368,5.366-8.069a2.749,2.749,0,0,1,1.789-1.075q10.055-2.678,20.11-5.362a3.853,3.853,0,0,1,2.112,0q10.115,2.8,20.244,5.549a3.18,3.18,0,0,1,1.944,1.446c1.6,2.456,3.249,4.88,4.854,7.332,1.089,1.662.824,2.372-1.077,3.017-1.3.441-3.147.5-3.755,1.4-.676,1-.245,2.764-.255,4.2-.018,2.635.06,5.273-.037,7.905-.04,1.071.357,1.436,1.311,1.684,5.5,1.43,10.969,2.966,16.479,4.349,1.722.432,2.445,1.146,2.418,3.05-.112,7.845-.1,15.693-.01,23.538a2.434,2.434,0,0,1-2.231,2.819c-6.343,1.509-12.655,3.145-18.992,4.682a2.552,2.552,0,0,0-2.025,1.688,21.418,21.418,0,0,1-19.894,13.442,21.449,21.449,0,0,1-20.034-13.516,2.381,2.381,0,0,0-1.88-1.6c-6.336-1.539-12.649-3.178-18.993-4.683-1.686-.4-2.367-1.13-2.306-2.937C3463.209-231.105,3463.117-235.061,3463.117-239.015Zm43.113-2.727c-1.155.134-1.551-.368-1.452-1.517.042-.483.5-1.515-.724-1.343a18.031,18.031,0,0,0-9.619,4.23c1.492,0,2.555.072,3.6-.019,1.166-.1,1.086.62,1.024,1.352-.058.674.4,1.644-.988,1.567-1.431-.08-2.9.156-4.3-.057-2.293-.35-3.166.973-3.956,2.908,1.866,0,3.582.077,5.288-.025,1.294-.077,1.076.719,1.092,1.482.018.8.132,1.525-1.124,1.452-1.789-.1-3.594.068-5.38-.052-1.87-.126-1.655,1.339-1.706,2.288-.067,1.229,1.067.452,1.629.568a7.539,7.539,0,0,0,2.323.022c1.089-.122,1.4.235,1.425,1.363.022,1.27-.338,1.716-1.6,1.554-.765-.1-1.57.086-2.327-.039-1.867-.307-1.992.616-1.8,2.123a18.867,18.867,0,0,0,15.7,16.428c1.208.208,1.681-.044,1.473-1.269-.194-1.141.264-1.65,1.42-1.515,1.1-.1,1.677.3,1.473,1.5-.21,1.241.3,1.477,1.5,1.273A18.787,18.787,0,0,0,3524.768-223c.191-1.11.124-1.765-1.217-1.549-1.144.184-1.531-.24-1.532-1.445s.4-1.624,1.536-1.442c1.348.216,1.4-.45,1.213-1.553a18.778,18.778,0,0,0-15.564-15.533c-1.2-.2-1.711.035-1.5,1.275C3507.906-242.042,3507.334-241.642,3506.229-241.742Zm40.277,3.375c0-3.407-.033-6.815.02-10.222.016-1.068-.279-1.355-1.33-1.068q-8.038,2.19-16.1,4.288a1.462,1.462,0,0,0-1.291,1.724c.053,5.738.032,11.477.017,17.216a9.034,9.034,0,0,1-.2,2.482c-.418,1.429.181,1.5,1.3,1.223,5.445-1.367,10.888-2.739,16.347-4.047,1.029-.246,1.285-.734,1.267-1.732C3546.47-231.791,3546.507-235.08,3546.506-238.368Zm-61.894,15.913c.048-.472.084-.934.145-1.394.213-1.626-.3-2.338-2.121-2.185-2.259.19-4.547-.018-6.818.072-1.152.045-1.24-.5-1.221-1.4s-.064-1.6,1.26-1.543c2.509.109,5.029-.041,7.538.062,1.252.051,1.285-.536,1.317-1.5.036-1.071-.233-1.5-1.385-1.425-1.489.1-3-.053-4.485.05-1.159.08-1.42-.365-1.379-1.43.036-.941.03-1.608,1.3-1.505,1.427.115,2.875-.046,4.306.049,1.187.078,1.659-.189,1.664-1.525s-.607-1.461-1.623-1.37c-.415.037-.843-.04-1.255.015-1.137.152-1.538-.235-1.538-1.451s.4-1.6,1.538-1.452c.471.061.963-.042,1.434.021,1.092.146,1.558-.247,1.4-1.378a5.409,5.409,0,0,1,0-1.611c.229-1.363-.429-1.81-1.673-2.124q-7.652-1.926-15.249-4.068c-1.356-.381-1.836-.288-1.813,1.323.09,6.342.037,12.686.037,19.029,0,.419-.018.839.006,1.256.082,1.458,1.352,1.089,2.155,1.291,1.133.285.686-.73.674-1.159-.026-.911.383-1.024,1.176-1.1,1.408-.133,2.1.366,1.714,1.75-.378,1.349.3,1.589,1.366,1.841C3476.912-224.41,3480.717-223.427,3484.613-222.454Zm20.2-49.144-.314-.127c-.58,1.019-1.165,2.035-1.739,3.057-1.578,2.807-1.574,2.8-4.546,1.8-2.659-.9-5.319-1.8-7.986-2.68a20.986,20.986,0,0,0-4.1-1.245c0,3.78.03,7.425-.022,11.07-.013.871.408,1.119,1.106,1.3q8.144,2.152,16.279,4.342c.98.266,1.354.129,1.343-1.013C3504.782-260.6,3504.811-266.1,3504.811-271.6Zm21.568.652c-4.421,1.474-8.577,2.78-12.668,4.262-1.728.626-2.8.4-3.6-1.337-.593-1.3-1.427-2.491-2.417-4.178,0,6.087.027,11.586-.022,17.084-.01,1.162.409,1.27,1.376,1.009q8.13-2.2,16.278-4.325a1.187,1.187,0,0,0,1.066-1.346C3526.355-263.417,3526.379-267.06,3526.379-270.946Zm4.7-4.946a4.774,4.774,0,0,0-.24-.463c-1.089-1.644-2.194-3.277-3.267-4.932-.342-.529-.774-.455-1.253-.327-5.657,1.507-11.309,3.032-16.975,4.5-.83.215-.947.465-.515,1.179,1.144,1.892,2.251,3.8,3.346,5.725.309.543.6.754,1.276.525,5.6-1.893,11.22-3.738,16.83-5.608C3530.6-275.395,3531.009-275.414,3531.084-275.892Zm-27.287-.469c.066-.893-.7-.73-1.114-.843q-5.875-1.608-11.773-3.127c-1.841-.478-3.867-1.779-5.479-1.177s-2.163,3.008-3.371,4.474c-1.021,1.239-.5,1.572.746,1.967,4.609,1.464,9.189,3.021,13.779,4.542,3.266,1.083,3.267,1.083,5.006-1.961C3502.331-273.78,3503.068-275.078,3503.8-276.361Zm18.272-7.1c-.824-.267-1.13-.379-1.442-.464-4.261-1.156-8.53-2.281-12.778-3.478a5.268,5.268,0,0,0-2.965-.037c-4.311,1.2-8.638,2.337-12.953,3.521-.323.089-.911-.118-.891.624q7.165,1.909,14.339,3.813a2.578,2.578,0,0,0,1.212.147C3511.58-280.64,3516.558-281.983,3522.07-283.459Zm2.876,46.059c0-2.2-.042-4.407.021-6.608.024-.858-.377-1.125-1.091-1.314-4.965-1.308-9.92-2.651-14.889-3.942-.43-.112-1.221-.705-1.29.456-.046.765-.026,1.352,1.028,1.454a19.963,19.963,0,0,1,3.676.749A23.711,23.711,0,0,1,3524.946-237.4Zm-37.336-5.345c.233.717-.64,1.926.481,2.283a2.565,2.565,0,0,0,2.8-.568,20.711,20.711,0,0,1,12.735-6.312c1.016-.122,1.377-.591,1.16-1.512-.261-1.107-1.049-.451-1.548-.322-4.506,1.165-8.985,2.433-13.5,3.555C3488.153-245.227,3486.97-244.772,3487.61-242.745Zm-17.23-9.138c.771.243,1.08.354,1.4.439,4.094,1.1,8.244,2.031,12.265,3.355,2.634.867,4.683-.389,6.967-1-4.216-1.287-8.481-2.225-12.614-3.568C3475.654-253.551,3473.332-252.688,3470.38-251.883Zm41.415.132a2.554,2.554,0,0,0,1.5.648c3.858,1.041,7.735,2.015,11.563,3.158,2.388.714,4.263-.577,6.359-1.084-3.829-1.22-7.7-2.033-11.409-3.3C3516.948-253.3,3514.441-252.622,3511.794-251.751Zm29.8,0a.83.83,0,0,0-.662-.5c-4.382-1.171-8.745-2.416-13.151-3.487-1.69-.41-3.22.547-4.78,1.112,3.771,1.186,7.57,2.023,11.24,3.246A9.455,9.455,0,0,0,3541.592-251.748Zm-59.6-3.182c.263.47.651.45.988.54,4.208,1.124,8.446,2.153,12.612,3.416,1.907.578,3.462.042,5.235-.677a5.2,5.2,0,0,0-.62-.28c-4.03-1.1-8.094-2.09-12.08-3.33A8.241,8.241,0,0,0,3481.993-254.931Z" transform="translate(0 0)" fill="#050504"/>
    <path id="Trazado_585816" data-name="Trazado 585816" d="M3583.062-159.709c1.1.1,1.677-.3,1.473-1.5-.21-1.241.3-1.478,1.5-1.275a18.778,18.778,0,0,1,15.564,15.533c.189,1.1.136,1.769-1.212,1.553-1.139-.183-1.537.231-1.536,1.442s.388,1.629,1.532,1.445c1.341-.215,1.408.44,1.217,1.549a18.787,18.787,0,0,1-15.564,15.533c-1.2.2-1.71-.032-1.5-1.273.2-1.2-.37-1.6-1.473-1.5v-11.368a4.388,4.388,0,0,0,3.7-2.192,1.388,1.388,0,0,1,1.443-.76c1.675.037,3.354-.059,5.024.037,1.129.064,1.406-.324,1.409-1.412,0-1.133-.252-1.6-1.479-1.523-1.609.106-3.229.037-4.844.018-.4,0-.891.179-1.178-.213-1.223-1.671-3.374-2.865-2.642-5.538a19.858,19.858,0,0,0,.061-2.858c.136-1.207-.384-1.6-1.487-1.506Zm9.064.99c-1.246-.015-1.686.536-1.222,1.67a5.732,5.732,0,0,0,4.424,3.538c1.232.249,1.622-.51,1.365-1.616C3596.333-156.686,3593.738-158.7,3592.126-158.719Zm5.184,8.671a1.207,1.207,0,0,0,1.271-1.332,1.3,1.3,0,0,0-1.384-1.479,1.309,1.309,0,0,0-1.368,1.345A1.377,1.377,0,0,0,3597.311-150.048Z" transform="translate(-76.832 -82.033)" fill="#a3a3a3"/>
    <path id="Trazado_585817" data-name="Trazado 585817" d="M3549.854-139.64v11.368c-1.156-.135-1.614.374-1.42,1.515.208,1.225-.266,1.477-1.473,1.269a18.867,18.867,0,0,1-15.7-16.428c-.191-1.507-.065-2.43,1.8-2.123.757.124,1.562-.06,2.327.038,1.259.162,1.62-.284,1.6-1.554-.02-1.128-.335-1.485-1.425-1.363a7.536,7.536,0,0,1-2.323-.022c-.563-.116-1.7.66-1.63-.568.052-.949-.165-2.414,1.706-2.288,1.786.12,3.591-.053,5.38.052,1.256.073,1.143-.649,1.125-1.452-.017-.763.2-1.559-1.093-1.482-1.706.1-3.422.025-5.288.025.79-1.935,1.663-3.258,3.956-2.908,1.4.214,2.868-.023,4.3.057,1.389.078.93-.892.988-1.567.063-.732.142-1.453-1.024-1.352-1.049.091-2.112.019-3.6.019a18.03,18.03,0,0,1,9.619-4.23c1.225-.172.766.859.724,1.343-.1,1.15.3,1.651,1.452,1.517q0,2.092,0,4.185c-1.13-.122-1.519.344-1.444,1.5.106,1.657.02,3.327.031,4.991a1.236,1.236,0,0,1-.61,1.316,4.073,4.073,0,0,0-2.135,4.823A4.327,4.327,0,0,0,3549.854-139.64Z" transform="translate(-43.624 -81.969)" fill="#e2e2e2"/>
    <path id="Trazado_585818" data-name="Trazado 585818" d="M3661.175-165.551c0,3.288-.038,6.576.023,9.863.018,1-.238,1.485-1.267,1.731-5.458,1.309-10.9,2.681-16.347,4.047-1.121.282-1.719.206-1.3-1.223a9.044,9.044,0,0,0,.2-2.482c.016-5.739.036-11.478-.017-17.216a1.462,1.462,0,0,1,1.291-1.724q8.067-2.085,16.1-4.288c1.05-.286,1.346,0,1.329,1.068C3661.141-172.366,3661.174-168.958,3661.175-165.551Z" transform="translate(-114.668 -72.817)" fill="#a39764"/>
    <path id="Trazado_585819" data-name="Trazado 585819" d="M3489.756-149.58c-3.9-.973-7.7-1.956-11.524-2.857-1.069-.252-1.744-.492-1.366-1.841.387-1.384-.306-1.883-1.714-1.75-.792.075-1.2.188-1.175,1.1.012.429.459,1.445-.674,1.159-.8-.2-2.073.168-2.155-1.291-.024-.418-.006-.838-.006-1.256,0-6.343.054-12.687-.037-19.029-.023-1.61.457-1.7,1.813-1.323q7.6,2.132,15.249,4.068c1.244.313,1.9.761,1.673,2.124a5.4,5.4,0,0,0,0,1.611c.156,1.132-.311,1.524-1.4,1.378-.47-.063-.963.04-1.434-.021-1.138-.146-1.538.237-1.538,1.452s.4,1.6,1.538,1.451c.411-.055.839.022,1.255-.015,1.015-.091,1.627.023,1.623,1.37s-.477,1.6-1.664,1.525c-1.43-.095-2.878.066-4.306-.049-1.274-.1-1.268.564-1.3,1.505-.041,1.065.22,1.51,1.38,1.43,1.489-.1,3,.052,4.485-.05,1.153-.079,1.421.354,1.385,1.425-.031.961-.065,1.548-1.317,1.5-2.509-.1-5.029.047-7.538-.062-1.325-.058-1.241.647-1.26,1.543s.069,1.443,1.221,1.4c2.271-.089,4.559.118,6.818-.072,1.826-.153,2.334.559,2.121,2.185C3489.84-150.514,3489.8-150.052,3489.756-149.58ZM3481-164.642c1.024.134,1.848.113,1.664-1.3-.105-.81.189-1.753-1.21-1.574-.837.108-1.906-.292-1.709,1.25C3479.854-165.411,3479.466-164.277,3481-164.642Zm-1.266,4.419c.247-1.152-.138-1.583-1.379-1.568-1.161.014-1.548.314-1.508,1.5.035,1.016.168,1.54,1.365,1.455C3479.2-158.9,3480.081-158.83,3479.734-160.223Z" transform="translate(-5.144 -72.874)" fill="#c3b57b"/>
    <path id="Trazado_585820" data-name="Trazado 585820" d="M3545.82-237.882c0,5.5-.029,11,.024,16.5.011,1.143-.362,1.279-1.343,1.013q-8.131-2.205-16.279-4.342c-.7-.185-1.118-.432-1.105-1.3.052-3.645.021-7.29.021-11.07a20.973,20.973,0,0,1,4.1,1.245c2.667.879,5.327,1.778,7.985,2.68,2.972,1.007,2.969,1.012,4.546-1.8.575-1.022,1.159-2.038,1.739-3.057Z" transform="translate(-41.009 -33.716)" fill="#c3b57b"/>
    <path id="Trazado_585821" data-name="Trazado 585821" d="M3605.789-238.072c0,3.886-.024,7.528.019,11.17a1.187,1.187,0,0,1-1.066,1.346q-8.146,2.137-16.278,4.325c-.967.261-1.386.153-1.376-1.009.049-5.5.022-11,.022-17.084.989,1.687,1.823,2.877,2.417,4.178.793,1.739,1.867,1.963,3.6,1.337C3597.212-235.292,3601.368-236.6,3605.789-238.072Zm-1.119,6.026c-.214-1.238-.442-2.543-1.74-3.283a.635.635,0,0,0-.91.314,3.855,3.855,0,0,0,.241,3.6c.3.64.674,1.436,1.541,1.226C3604.65-230.393,3604.616-231.252,3604.67-232.046Zm-1.2,3.014a1.359,1.359,0,0,0-1.334,1.545,1.24,1.24,0,0,0,1.387,1.291,1.319,1.319,0,0,0,1.379-1.512A1.356,1.356,0,0,0,3603.468-229.031Z" transform="translate(-79.41 -32.874)" fill="#a39764"/>
    <path id="Trazado_585822" data-name="Trazado 585822" d="M3612.116-259.945c-.075.478-.488.5-.8.6-5.61,1.87-11.228,3.716-16.83,5.609-.679.229-.967.018-1.276-.525-1.095-1.92-2.2-3.834-3.346-5.725-.432-.714-.316-.964.515-1.179,5.666-1.47,11.318-2.995,16.975-4.5.479-.128.911-.2,1.253.327,1.073,1.655,2.178,3.288,3.267,4.932A4.664,4.664,0,0,1,3612.116-259.945Z" transform="translate(-81.031 -15.947)" fill="#4889d8"/>
    <path id="Trazado_585823" data-name="Trazado 585823" d="M3536.639-260.338c-.73,1.283-1.467,2.581-2.207,3.876-1.739,3.044-1.74,3.043-5.006,1.961-4.59-1.521-9.17-3.078-13.779-4.542-1.244-.4-1.767-.729-.746-1.967,1.208-1.466,1.758-3.872,3.371-4.474s3.639.7,5.479,1.177q5.9,1.53,11.773,3.127C3535.938-261.069,3536.705-261.231,3536.639-260.338Z" transform="translate(-32.841 -16.023)" fill="#4889d8"/>
    <path id="Trazado_585824" data-name="Trazado 585824" d="M3571.86-278.065c-5.511,1.476-10.49,2.82-15.479,4.125a2.578,2.578,0,0,1-1.212-.147q-7.174-1.895-14.339-3.813c-.02-.742.568-.535.891-.624,4.315-1.184,8.642-2.325,12.953-3.521a5.269,5.269,0,0,1,2.965.037c4.249,1.2,8.518,2.322,12.778,3.478C3570.73-278.445,3571.036-278.332,3571.86-278.065Z" transform="translate(-49.79 -5.394)" fill="#5d646a"/>
    <path id="Trazado_585825" data-name="Trazado 585825" d="M3604.366-164.144a23.712,23.712,0,0,0-12.545-9.2,19.963,19.963,0,0,0-3.677-.749c-1.053-.1-1.074-.689-1.028-1.454.07-1.162.861-.568,1.291-.456,4.969,1.291,9.924,2.634,14.889,3.942.714.188,1.115.456,1.092,1.314C3604.324-168.551,3604.366-166.347,3604.366-164.144Z" transform="translate(-79.419 -73.257)" fill="#bfb178"/>
    <path id="Trazado_585826" data-name="Trazado 585826" d="M3530.979-169.438c-.64-2.027.543-2.482,2.131-2.876,4.516-1.122,8.995-2.39,13.5-3.555.5-.129,1.287-.785,1.548.322.217.922-.144,1.39-1.16,1.512a20.711,20.711,0,0,0-12.735,6.312,2.565,2.565,0,0,1-2.8.568C3530.338-167.513,3531.211-168.721,3530.979-169.438Z" transform="translate(-43.369 -73.307)" fill="#9f9361"/>
    <path id="Trazado_585827" data-name="Trazado 585827" d="M3483.39-184.9c2.952-.8,5.274-1.668,8.015-.778,4.133,1.343,8.4,2.28,12.614,3.568-2.284.614-4.333,1.87-6.967,1-4.021-1.323-8.171-2.254-12.265-3.355C3484.47-184.544,3484.161-184.655,3483.39-184.9Z" transform="translate(-13.01 -66.985)" fill="#796f46"/>
    <path id="Trazado_585828" data-name="Trazado 585828" d="M3598.533-184.354c2.646-.87,5.154-1.552,8.013-.577,3.713,1.266,7.581,2.079,11.409,3.3-2.1.508-3.971,1.8-6.359,1.084-3.827-1.143-7.7-2.117-11.562-3.158A2.555,2.555,0,0,1,3598.533-184.354Z" transform="translate(-86.739 -67.397)" fill="#796f46"/>
    <path id="Trazado_585829" data-name="Trazado 585829" d="M3648.277-189.747a9.454,9.454,0,0,1-7.352.369c-3.67-1.223-7.469-2.06-11.24-3.246,1.561-.565,3.09-1.522,4.78-1.112,4.406,1.07,8.769,2.316,13.151,3.487A.829.829,0,0,1,3648.277-189.747Z" transform="translate(-106.686 -62.002)" fill="#796f46"/>
    <path id="Trazado_585830" data-name="Trazado 585830" d="M3515.679-192.684a8.241,8.241,0,0,1,6.134-.331c3.986,1.241,8.05,2.231,12.08,3.33a5.244,5.244,0,0,1,.621.28c-1.773.719-3.329,1.255-5.236.677-4.166-1.263-8.4-2.292-12.612-3.416C3516.33-192.234,3515.941-192.214,3515.679-192.684Z" transform="translate(-33.685 -62.247)" fill="#796f46"/>
    <path id="Trazado_585831" data-name="Trazado 585831" d="M3575.38-127.1a4.327,4.327,0,0,1-4.158-3.317,4.072,4.072,0,0,1,2.135-4.823,1.236,1.236,0,0,0,.61-1.316c-.011-1.664.075-3.333-.031-4.991-.074-1.158.314-1.624,1.444-1.5,1.1-.1,1.624.3,1.487,1.506a19.719,19.719,0,0,1-.06,2.858c-.732,2.673,1.419,3.867,2.642,5.538.288.392.779.209,1.178.213,1.615.019,3.236.088,4.845-.018,1.227-.081,1.482.39,1.479,1.523,0,1.088-.28,1.476-1.409,1.412-1.67-.1-3.349,0-5.024-.037a1.387,1.387,0,0,0-1.443.76A4.389,4.389,0,0,1,3575.38-127.1Zm.051-2.943c.89-.147,1.448-.635,1.377-1.558a1.307,1.307,0,0,0-1.434-1.293,1.307,1.307,0,0,0-1.379,1.35C3573.968-130.619,3574.534-130.148,3575.432-130.042Z" transform="translate(-69.151 -94.51)" fill="#040404"/>
    <path id="Trazado_585832" data-name="Trazado 585832" d="M3605.767-151.9c1.611.019,4.207,2.033,4.568,3.592.257,1.106-.134,1.865-1.366,1.616a5.732,5.732,0,0,1-4.424-3.538C3604.082-151.36,3604.521-151.91,3605.767-151.9Z" transform="translate(-90.473 -88.856)" fill="#f3f3f3"/>
    <path id="Trazado_585833" data-name="Trazado 585833" d="M3620.041-132.792a1.377,1.377,0,0,1-1.481-1.466,1.309,1.309,0,0,1,1.368-1.345,1.3,1.3,0,0,1,1.385,1.479A1.208,1.208,0,0,1,3620.041-132.792Z" transform="translate(-99.562 -99.289)" fill="#f1f1ee"/>
    <path id="Trazado_585834" data-name="Trazado 585834" d="M3496.342-148.05c-1.534.365-1.146-.769-1.255-1.621-.2-1.542.872-1.143,1.708-1.25,1.4-.179,1.1.763,1.21,1.574C3498.19-147.937,3497.366-147.916,3496.342-148.05Z" transform="translate(-20.485 -89.466)" fill="#040404"/>
    <path id="Trazado_585835" data-name="Trazado 585835" d="M3489.953-133.406c.346,1.394-.539,1.32-1.522,1.39-1.2.086-1.33-.438-1.365-1.455-.04-1.189.347-1.489,1.508-1.5C3489.815-134.988,3490.2-134.558,3489.953-133.406Z" transform="translate(-15.362 -99.692)" fill="#040404"/>
    <path id="Trazado_585836" data-name="Trazado 585836" d="M3630.625-225.1c-.053.794-.019,1.653-.868,1.859-.866.21-1.242-.586-1.541-1.226a3.857,3.857,0,0,1-.241-3.6.635.635,0,0,1,.91-.314C3630.182-227.639,3630.411-226.334,3630.625-225.1Z" transform="translate(-105.365 -39.824)" fill="#f1f1ee"/>
    <path id="Trazado_585837" data-name="Trazado 585837" d="M3630.245-210.708a1.357,1.357,0,0,1,1.433,1.323,1.319,1.319,0,0,1-1.379,1.512,1.24,1.24,0,0,1-1.388-1.291A1.36,1.36,0,0,1,3630.245-210.708Z" transform="translate(-106.187 -51.198)" fill="#f1f1ee"/>
    <path id="Trazado_585838" data-name="Trazado 585838" d="M3580.648-111.931c-.9-.107-1.464-.577-1.435-1.5a1.307,1.307,0,0,1,1.378-1.35,1.307,1.307,0,0,1,1.434,1.293C3582.1-112.566,3581.538-112.078,3580.648-111.931Z" transform="translate(-74.367 -112.621)" fill="#e96161"/>
  </g>
</svg>
