<svg id="Grupo_845160" data-name="Grupo 845160" xmlns="http://www.w3.org/2000/svg" width="105.878" height="105.878" viewBox="0 0 105.878 105.878">
  <rect id="Rectángulo_38178" data-name="Rectángulo 38178" width="105.878" height="105.878" transform="translate(0 0)" fill="none"/>
  <g id="Grupo_846245" data-name="Grupo 846245" transform="translate(-2913.294 584.957)">
    <path id="Trazado_585793" data-name="Trazado 585793" d="M2926.667-527.143q0-14.648,0-29.3c0-3.753,1.49-5.247,5.213-5.255a10.251,10.251,0,0,1,1.234.007,1.877,1.877,0,0,0,2.439-1.616c.493-1.8,2.072-2.616,3.969-2.625,1.942-.01,3.884-.039,5.824.013a1.23,1.23,0,0,0,1.457-1.073c1.379-4.636,5.034-7.426,9.556-7.417s8.1,2.767,9.516,7.461c.272.906.705,1.041,1.494,1.025,1.882-.037,3.766-.031,5.648,0,2.26.032,3.778,1.041,4.323,3.152.258,1,.7,1.161,1.555,1.091.7-.058,1.411-.015,2.117-.011,3.39.017,4.989,1.584,4.992,4.945q.015,14.03,0,28.06c0,2.309,0,2.309,2.316,2.309,1.471,0,2.942-.024,4.412.007,2.077.043,3.138,1.088,3.152,3.177.029,4.117.056,8.236-.02,12.353-.021,1.185.345,1.5,1.477,1.439,1.76-.091,3.53-.05,5.294-.017,2.075.039,3.127,1.09,3.14,3.189q.04,6.618,0,13.236c-.01,2.306-1.038,3.333-3.344,3.342-4.942.018-9.885.006-14.827.006-6.854,0-13.709-.026-20.563.018-1.714.011-3.058-.437-3.559-2.2-.318-1.115-1.141-.621-1.718-.623-9.943-.034-19.886-.023-29.83-.026-3.757,0-5.271-1.491-5.273-5.2Q2926.662-512.407,2926.667-527.143Zm2.83.081c0,9.827.017,19.653-.018,29.48-.005,1.505.407,2.3,2.085,2.3q15.272-.055,30.544.012c1.173.006,1.331-.416,1.313-1.421-.056-3.118-.034-6.237-.016-9.355.014-2.341,1-3.345,3.308-3.374,1.648-.021,3.3-.09,4.942.023,1.28.088,1.708-.232,1.672-1.608-.1-4.057-.056-8.12-.029-12.179.015-2.108,1.053-3.145,3.139-3.183,1.765-.033,3.535-.074,5.3.017,1.133.059,1.487-.256,1.476-1.439-.062-6.178-.029-12.357-.029-18.535,0-3.53-.02-7.061.008-10.591.01-1.318-.525-2-1.882-1.946-.353.013-.707,0-1.059,0-2.64,0-2.64,0-2.717,2.615a4.189,4.189,0,0,1-4.433,4.436q-16.773.04-33.546,0a4.178,4.178,0,0,1-4.406-4.285c-.117-2.77-.117-2.77-2.919-2.765h-.177c-2.335.009-2.551.211-2.552,2.5Q2929.493-541.714,2929.5-527.062Zm26.908-27.571c5.349,0,10.7-.038,16.049.022,1.69.019,2.361-.654,2.262-2.309-.073-1.23-.009-2.468-.015-3.7-.012-2.2-.262-2.466-2.405-2.477-2.234-.01-4.469-.046-6.7.012-1.439.037-2.1-.467-2.252-1.995a6.936,6.936,0,0,0-7.068-6.484,6.92,6.92,0,0,0-6.931,6.442c-.158,1.651-.915,2.078-2.394,2.039-2.35-.062-4.7.006-7.054-.021-1.331-.016-1.949.58-1.922,1.914.028,1.41,0,2.821.007,4.232.016,2.037.3,2.323,2.377,2.326Q2948.38-554.622,2956.4-554.633Zm28.213,45.2c2.413,0,4.826-.031,7.238.016.9.018,1.242-.241,1.231-1.19-.044-3.942-.056-7.885,0-11.826.018-1.2-.664-1.108-1.463-1.133-.876-.028-1.469.062-1.4,1.2.087,1.407.051,2.824.011,4.235a2.786,2.786,0,0,1-2.932,3.039q-2.733.083-5.472,0a2.759,2.759,0,0,1-2.882-2.906,40.962,40.962,0,0,1,.009-4.234c.077-1.161-.439-1.339-1.444-1.349-1.042-.01-1.442.249-1.422,1.372q.1,5.647,0,11.3c-.018,1.122.262,1.555,1.459,1.509C2979.907-509.492,2982.263-509.429,2984.617-509.43Zm-9.98,16.951c2.413,0,4.826-.016,7.238.009.79.008,1.334-.043,1.322-1.094q-.071-6,0-12c.016-1.292-.83-.983-1.545-1.036-.8-.06-1.36.054-1.308,1.1.071,1.409.041,2.824.009,4.235-.045,2.01-1.063,3.081-3.02,3.133q-2.646.069-5.3,0a2.788,2.788,0,0,1-2.975-3c-.044-1.411-.071-2.827.008-4.235.061-1.069-.413-1.272-1.352-1.253-.92.018-1.54.019-1.515,1.274.078,3.882.064,7.767.006,11.649-.016,1.085.444,1.254,1.367,1.236C2969.929-492.51,2972.283-492.478,2974.637-492.478Zm19.757,0c2.472,0,4.943-.021,7.415.012.792.011,1.172-.183,1.164-1.072-.035-4-.045-8,0-12,.013-1.086-.585-1.087-1.347-1.061s-1.571-.183-1.507,1.076c.074,1.467.052,2.942,0,4.412a2.787,2.787,0,0,1-2.992,2.979q-2.646.072-5.3,0a2.789,2.789,0,0,1-3-2.974,39.831,39.831,0,0,1,.012-4.234c.092-1.257-.586-1.261-1.509-1.278s-1.371.183-1.356,1.251q.083,5.824,0,11.649c-.015,1.052.39,1.282,1.343,1.261C2989.685-492.514,2992.04-492.478,2994.394-492.479Zm-6.975-28.263c0-2.808,0-2.808-2.181-2.809-3.467,0-3.467,0-3.467,2.223,0,3.423,0,3.423,2.268,3.423C2987.419-517.9,2987.419-517.9,2987.419-520.742Zm-9.89,16.92c0-2.776,0-2.776-2.036-2.777-3.611,0-3.611,0-3.612,2.255,0,3.391,0,3.391,2.3,3.392C2977.529-500.952,2977.529-500.952,2977.529-503.822Zm19.78,0c0-2.778,0-2.778-2.034-2.78-3.613,0-3.613,0-3.614,2.253,0,3.394,0,3.394,2.3,3.394C2997.309-500.952,2997.309-500.952,2997.309-503.82Z" transform="translate(0 0)" fill="#252122"/>
    <path id="Trazado_585794" data-name="Trazado 585794" d="M2934.643-498.634q0-14.652,0-29.3c0-2.288.217-2.49,2.552-2.5h.177c2.8,0,2.8,0,2.919,2.765a4.178,4.178,0,0,0,4.406,4.285q16.773.041,33.546,0a4.19,4.19,0,0,0,4.433-4.436c.077-2.617.077-2.617,2.716-2.614.353,0,.707.013,1.06,0,1.356-.052,1.892.629,1.881,1.946-.028,3.53-.008,7.061-.008,10.591,0,6.178-.033,12.357.029,18.535.012,1.183-.342,1.5-1.476,1.439-1.761-.091-3.53-.049-5.3-.017-2.086.039-3.125,1.076-3.139,3.183-.027,4.06-.075,8.122.029,12.179.036,1.376-.392,1.7-1.672,1.608-1.64-.112-3.294-.043-4.942-.023-2.3.029-3.294,1.033-3.308,3.374-.018,3.118-.041,6.238.016,9.355.019,1.005-.14,1.427-1.312,1.421q-15.272-.077-30.544-.012c-1.678.006-2.09-.792-2.085-2.3C2934.659-478.981,2934.643-488.808,2934.643-498.634Zm30.553-13.442c-5.708,0-11.415.007-17.122-.007-1.013,0-2.042.087-2.082,1.33-.048,1.505,1.135,1.51,2.251,1.51q16.768-.011,33.537,0c1.114,0,2.315,0,2.257-1.5-.053-1.367-1.209-1.336-2.25-1.335Q2973.491-512.067,2965.2-512.077Zm5.62,7.063c-3.824,0-7.647.011-11.471-.007-1.022,0-2.021.117-2.052,1.362-.035,1.372,1.022,1.483,2.108,1.481q11.294-.018,22.589,0c1.022,0,2.021-.121,2.053-1.363.035-1.371-1.023-1.485-2.109-1.48C2978.227-505,2974.521-505.014,2970.815-505.014Zm-19.038-14.126c-3.585,0-7.169.011-10.754-.007-1.087-.006-2.14.117-2.1,1.486.037,1.242,1.037,1.357,2.057,1.355q10.666-.02,21.331,0c1.025,0,1.99-.131,2.006-1.4s-.926-1.444-1.965-1.439C2958.829-519.13,2955.3-519.14,2951.777-519.14Zm-.191,24.017c3.584,0,7.169-.009,10.753.006,1.034,0,1.984-.159,1.979-1.427s-.962-1.414-1.992-1.413q-10.666.016-21.332,0c-1.015,0-2.022.1-2.07,1.34-.053,1.367.99,1.508,2.083,1.5C2944.535-495.134,2948.061-495.123,2951.586-495.123Zm0,18.361c-3.529,0-7.059.011-10.588-.007-1.015-.005-2.026.092-2.078,1.336-.056,1.368.988,1.508,2.082,1.506q10.589-.019,21.176,0c1.015,0,2.027-.1,2.079-1.338.056-1.367-.988-1.511-2.083-1.505C2958.649-476.751,2955.121-476.762,2951.591-476.762Zm13.348-11.3c2.472,0,4.944-.011,7.416.005,1.014.007,1.817-.32,1.8-1.439s-.838-1.4-1.842-1.4q-7.328.021-14.655,0c-1.012,0-1.815.308-1.8,1.437s.839,1.409,1.84,1.4C2960.113-488.072,2962.526-488.06,2964.938-488.06ZM2946.5-481c2,0,4-.016,6,.007.994.011,1.836-.248,1.876-1.367s-.741-1.475-1.765-1.473q-6,.015-12,0c-.952,0-1.675.357-1.7,1.362-.028,1.117.742,1.481,1.766,1.474C2942.623-481.006,2944.564-481,2946.5-481Zm30.553-38.144c-1.764,0-3.528.01-5.292,0-1.023-.008-1.793.356-1.765,1.473.025,1,.748,1.366,1.7,1.363q5.292-.012,10.584,0c1.022,0,1.8-.36,1.765-1.473s-.881-1.381-1.875-1.367C2980.468-519.123,2978.763-519.14,2977.058-519.14Zm-32.393,28.253c-1.353,0-2.7.008-4.056,0-.954-.008-1.661.365-1.692,1.37s.63,1.456,1.6,1.457q4.056.007,8.111,0c.96,0,1.625-.425,1.6-1.452s-.736-1.377-1.681-1.373C2947.25-490.883,2945.958-490.887,2944.665-490.887Zm-.167-14.123v.006c-1.4,0-2.81-.026-4.214.01a1.3,1.3,0,0,0-1.373,1.312,1.3,1.3,0,0,0,1.381,1.475c2.692.04,5.385.032,8.077.01a1.314,1.314,0,0,0,1.455-1.407,1.324,1.324,0,0,0-1.463-1.4C2947.073-505.031,2945.785-505.011,2944.5-505.011Zm26.151,9.872v.016c.647,0,1.294.009,1.941,0,.972-.016,1.613-.484,1.575-1.485a1.356,1.356,0,0,0-1.545-1.338c-1.353,0-2.707-.029-4.058.022a1.3,1.3,0,0,0-1.324,1.373,1.307,1.307,0,0,0,1.294,1.4C2969.233-495.093,2969.942-495.139,2970.648-495.139Z" transform="translate(-5.146 -28.428)" fill="#fcfcfc"/>
    <path id="Trazado_585795" data-name="Trazado 585795" d="M2977.087-549.438q-8.024,0-16.049,0c-2.077,0-2.361-.289-2.377-2.326-.011-1.41.021-2.822-.007-4.232-.027-1.334.592-1.93,1.922-1.914,2.352.028,4.7-.04,7.054.022,1.479.039,2.236-.387,2.394-2.039a6.921,6.921,0,0,1,6.932-6.442,6.936,6.936,0,0,1,7.068,6.484c.154,1.528.813,2.032,2.252,1.995,2.232-.058,4.468-.022,6.7-.012,2.143.01,2.394.272,2.405,2.477.007,1.234-.058,2.472.015,3.7.1,1.655-.572,2.328-2.262,2.309C2987.786-549.476,2982.436-549.438,2977.087-549.438Zm-.094-15.524a4.245,4.245,0,0,0-4.2,4.3,4.25,4.25,0,0,0,4.35,4.154,4.227,4.227,0,0,0,4.108-4.209A4.242,4.242,0,0,0,2976.993-564.962Z" transform="translate(-20.682 -5.195)" fill="#5e98ae"/>
    <path id="Trazado_585796" data-name="Trazado 585796" d="M3075.057-416.436c-2.354,0-4.71-.063-7.061.027-1.2.045-1.478-.387-1.459-1.509q.092-5.647,0-11.3c-.02-1.123.381-1.382,1.422-1.372,1,.009,1.522.188,1.444,1.349a40.963,40.963,0,0,0-.009,4.234,2.759,2.759,0,0,0,2.882,2.906q2.734.089,5.472,0a2.786,2.786,0,0,0,2.931-3.039c.04-1.411.077-2.828-.011-4.235-.07-1.137.522-1.226,1.4-1.2.8.025,1.481-.07,1.463,1.133-.06,3.941-.048,7.884,0,11.826.011.949-.333,1.208-1.231,1.19C3079.883-416.467,3077.47-416.436,3075.057-416.436Z" transform="translate(-90.439 -92.993)" fill="#d69649"/>
    <path id="Trazado_585797" data-name="Trazado 585797" d="M3046.975-368.457c-2.354,0-4.708-.031-7.062.016-.923.018-1.383-.151-1.367-1.236.058-3.882.072-7.767-.006-11.649-.025-1.255.6-1.256,1.515-1.274.939-.019,1.413.184,1.352,1.254-.08,1.408-.052,2.824-.009,4.235a2.788,2.788,0,0,0,2.975,3q2.646.075,5.3,0c1.957-.051,2.974-1.123,3.02-3.133.032-1.411.061-2.827-.009-4.235-.052-1.043.5-1.158,1.308-1.1.715.053,1.561-.256,1.545,1.036q-.074,6,0,12c.012,1.051-.531,1.1-1.322,1.094C3051.8-368.473,3049.388-368.457,3046.975-368.457Z" transform="translate(-72.338 -124.022)" fill="#d69649"/>
    <path id="Trazado_585798" data-name="Trazado 585798" d="M3102.935-368.457c-2.354,0-4.708-.035-7.061.018-.953.021-1.358-.209-1.343-1.261q.082-5.824,0-11.649c-.015-1.068.419-1.268,1.356-1.251s1.6.021,1.509,1.277a39.766,39.766,0,0,0-.012,4.234,2.789,2.789,0,0,0,3,2.974q2.647.07,5.3,0a2.787,2.787,0,0,0,2.992-2.979c.047-1.469.07-2.945,0-4.412-.064-1.259.756-1.051,1.507-1.076s1.36-.025,1.347,1.061c-.049,4-.039,8,0,12,.007.889-.373,1.083-1.164,1.072C3107.878-368.479,3105.407-368.458,3102.935-368.457Z" transform="translate(-108.541 -124.021)" fill="#d69649"/>
    <path id="Trazado_585799" data-name="Trazado 585799" d="M3088.242-427.692c0,2.839,0,2.839-3.38,2.838-2.269,0-2.269,0-2.268-3.423,0-2.225,0-2.225,3.467-2.223C3088.242-430.5,3088.242-430.5,3088.242-427.692Z" transform="translate(-100.824 -93.049)" fill="#e5b670"/>
    <path id="Trazado_585800" data-name="Trazado 585800" d="M3060.258-379.758c0,2.87,0,2.87-3.349,2.869-2.3,0-2.3,0-2.3-3.392,0-2.259,0-2.259,3.612-2.255C3060.257-382.534,3060.257-382.534,3060.258-379.758Z" transform="translate(-82.728 -124.064)" fill="#e5b670"/>
    <path id="Trazado_585801" data-name="Trazado 585801" d="M3116.228-379.756c0,2.867,0,2.867-3.351,2.867-2.3,0-2.3,0-2.3-3.394,0-2.256,0-2.256,3.614-2.253C3116.228-382.534,3116.228-382.534,3116.228-379.756Z" transform="translate(-118.919 -124.063)" fill="#e5b670"/>
    <path id="Trazado_585802" data-name="Trazado 585802" d="M2985.992-478.489q8.3,0,16.592,0c1.04,0,2.2-.032,2.25,1.335.059,1.5-1.143,1.5-2.257,1.5q-16.768-.011-33.537,0c-1.116,0-2.3,0-2.251-1.51.04-1.243,1.069-1.332,2.082-1.33C2974.577-478.482,2980.284-478.489,2985.992-478.489Z" transform="translate(-25.942 -62.016)" fill="#262223"/>
    <path id="Trazado_585803" data-name="Trazado 585803" d="M3012.287-458.5c3.706,0,7.412.011,11.118-.007,1.086-.005,2.145.109,2.109,1.48-.032,1.241-1.03,1.365-2.053,1.363q-11.294-.02-22.589,0c-1.086,0-2.143-.109-2.108-1.481.032-1.245,1.03-1.366,2.052-1.362C3004.64-458.494,3008.464-458.5,3012.287-458.5Z" transform="translate(-46.618 -74.937)" fill="#262223"/>
    <path id="Trazado_585804" data-name="Trazado 585804" d="M2959.644-498.475c3.526,0,7.052.01,10.578-.006,1.038,0,1.981.172,1.965,1.439s-.981,1.4-2.006,1.4q-10.666-.016-21.331,0c-1.02,0-2.02-.113-2.057-1.355-.041-1.37,1.011-1.492,2.1-1.486C2952.475-498.464,2956.059-498.475,2959.644-498.475Z" transform="translate(-13.012 -49.093)" fill="#262223"/>
    <path id="Trazado_585805" data-name="Trazado 585805" d="M2959.452-435.689c-3.526,0-7.052-.011-10.577.007-1.093.006-2.136-.135-2.083-1.5.048-1.242,1.056-1.342,2.071-1.34q10.666.019,21.331,0c1.029,0,1.987.143,1.992,1.413s-.946,1.431-1.98,1.427C2966.621-435.7,2963.037-435.689,2959.452-435.689Z" transform="translate(-13.012 -87.862)" fill="#262223"/>
    <path id="Trazado_585806" data-name="Trazado 585806" d="M2959.456-378.561c3.53,0,7.059.011,10.588-.007,1.095-.006,2.14.138,2.083,1.505-.051,1.241-1.063,1.339-2.078,1.338q-10.588-.02-21.176,0c-1.095,0-2.138-.138-2.083-1.506.052-1.244,1.063-1.341,2.078-1.336C2952.4-378.55,2955.927-378.561,2959.456-378.561Z" transform="translate(-13.01 -126.629)" fill="#262223"/>
    <path id="Trazado_585807" data-name="Trazado 585807" d="M3003.792-415.7c-2.413,0-4.826-.012-7.239.006-1,.007-1.826-.271-1.84-1.4s.789-1.44,1.8-1.437q7.328.016,14.655,0c1,0,1.828.279,1.842,1.4s-.79,1.445-1.8,1.439C3008.737-415.713,3006.265-415.7,3003.792-415.7Z" transform="translate(-44 -100.785)" fill="#262223"/>
    <path id="Trazado_585808" data-name="Trazado 585808" d="M2954.358-395.713c-1.94,0-3.882-.01-5.822,0-1.023.007-1.794-.357-1.766-1.474.026-1.005.749-1.363,1.7-1.362q6,.012,12,0c1.023,0,1.8.359,1.765,1.473s-.882,1.378-1.876,1.367C2958.356-395.729,2956.357-395.713,2954.358-395.713Z" transform="translate(-12.999 -113.712)" fill="#262323"/>
    <path id="Trazado_585809" data-name="Trazado 585809" d="M3041.781-498.477c1.705,0,3.41.017,5.115-.007.994-.014,1.836.247,1.875,1.367s-.743,1.476-1.765,1.473q-5.292-.015-10.584,0c-.951,0-1.675-.359-1.7-1.363-.028-1.117.742-1.481,1.765-1.473C3038.253-498.467,3040.017-498.477,3041.781-498.477Z" transform="translate(-69.87 -49.091)" fill="#272324"/>
    <path id="Trazado_585810" data-name="Trazado 585810" d="M2952.514-418.523c1.293,0,2.586,0,3.88,0,.945,0,1.653.339,1.68,1.373s-.638,1.45-1.6,1.452q-4.055.01-8.111,0c-.969,0-1.631-.454-1.6-1.457s.739-1.378,1.692-1.37C2949.811-418.515,2951.163-418.523,2952.514-418.523Z" transform="translate(-12.996 -100.792)" fill="#262223"/>
    <path id="Trazado_585811" data-name="Trazado 585811" d="M2952.333-458.495c1.288,0,2.576-.02,3.863.007a1.324,1.324,0,0,1,1.464,1.4,1.315,1.315,0,0,1-1.455,1.407c-2.692.022-5.385.03-8.077-.01a1.3,1.3,0,0,1-1.381-1.475,1.3,1.3,0,0,1,1.373-1.312c1.4-.036,2.809-.01,4.214-.01Z" transform="translate(-12.982 -74.944)" fill="#272324"/>
    <path id="Trazado_585812" data-name="Trazado 585812" d="M3030.32-435.705c-.706,0-1.415.046-2.116-.012a1.307,1.307,0,0,1-1.294-1.4,1.3,1.3,0,0,1,1.323-1.373c1.351-.051,2.705-.027,4.058-.022a1.356,1.356,0,0,1,1.545,1.338c.038,1-.6,1.469-1.575,1.485-.647.011-1.294,0-1.941,0Z" transform="translate(-64.818 -87.861)" fill="#292526"/>
    <path id="Trazado_585813" data-name="Trazado 585813" d="M3002.861-562.382a4.242,4.242,0,0,1,4.257,4.245,4.227,4.227,0,0,1-4.108,4.209,4.25,4.25,0,0,1-4.35-4.154A4.245,4.245,0,0,1,3002.861-562.382Zm1.465,4.132a1.416,1.416,0,0,0-1.474-1.3,1.3,1.3,0,0,0-1.356,1.469,1.291,1.291,0,0,0,1.343,1.313C3003.725-556.74,3004.191-557.286,3004.326-558.25Z" transform="translate(-46.551 -7.775)" fill="#242122"/>
    <path id="Trazado_585814" data-name="Trazado 585814" d="M3009.511-553.063c-.135.964-.6,1.51-1.487,1.486a1.291,1.291,0,0,1-1.343-1.313,1.3,1.3,0,0,1,1.356-1.469A1.416,1.416,0,0,1,3009.511-553.063Z" transform="translate(-51.736 -12.961)" fill="#ededed"/>
  </g>
</svg>
