<svg xmlns="http://www.w3.org/2000/svg" xmlns:xlink="http://www.w3.org/1999/xlink" width="139" height="140" viewBox="0 0 139 140">
  <defs>
    <clipPath id="clip-path">
      <ellipse id="Elipse_154" data-name="Elipse 154" cx="69.5" cy="70" rx="69.5" ry="70" transform="translate(0.108 -0.327)" fill="#fff" stroke="#707070" stroke-width="1"/>
    </clipPath>
  </defs>
  <g id="Grupo_845316" data-name="Grupo 845316" transform="translate(-0.108 0.327)">
    <g id="Enmascarar_grupo_17" data-name="Enmascarar grupo 17" transform="translate(0 0)" clip-path="url(#clip-path)">
      <g id="Elipse_7362" data-name="Elipse 7362" transform="translate(-7.892 -6.327)" fill="#fff" stroke="#707070" stroke-width="1">
        <ellipse cx="77" cy="76.5" rx="77" ry="76.5" stroke="none"/>
        <ellipse cx="77" cy="76.5" rx="76.5" ry="76" fill="none"/>
      </g>
      <g id="Grupo_846247" data-name="Grupo 846247" transform="translate(-3920.702 539.319)">
        <path id="Trazado_585839" data-name="Trazado 585839" d="M3985.724-464.76c-1.709,1.293-2.9,2.614-2.794,5.091.228,5.246.032,10.509.088,15.764a6.886,6.886,0,0,1-1.665,4.751c-4.357,5.222-8.634,10.51-13.042,15.9-4.676-5.733-9.271-11.357-13.851-16.992a4.8,4.8,0,0,1-.793-3.231c.011-6.57-.015-13.14.024-19.709a3.217,3.217,0,0,0-.971-2.532c-1.645-1.646-3.151-3.431-4.791-5.082-.725-.73-.974-1.262-.019-1.949a9.948,9.948,0,0,0,1.021-1,1.762,1.762,0,0,0,.469-2.115,1.87,1.87,0,0,0-1.737-1.046c-2.825-.266-2.824-.276-2.824-3.128,0-3.344.054-6.69-.029-10.033-.028-1.167.274-1.662,1.469-1.506a8.846,8.846,0,0,0,1.433,0,1.712,1.712,0,0,0,1.712-1.062,1.84,1.84,0,0,0-.405-1.985c-.6-.708-1.9-1.256-1.735-2.066.173-.844,1.239-1.519,1.95-2.234,2.4-2.415,4.844-4.786,7.2-7.239.715-.744,1.189-.8,1.81.013a9.522,9.522,0,0,0,1,1.024,1.783,1.783,0,0,0,2.093.553,1.86,1.86,0,0,0,1.1-1.867c.13-2.739.151-2.738,2.882-2.738,3.4,0,6.811.054,10.213-.028,1.232-.029,1.81.3,1.569,1.568-.244,1.3.446,1.45,1.52,1.434,3.4-.051,6.809,0,10.212-.024a15.972,15.972,0,0,0,10.666-3.978,2.816,2.816,0,0,0,1.151-2.082,2.768,2.768,0,0,1,2.943-2.73c.119-.006.239,0,.358,0,4.923-.093,5.411.388,5.412,5.336a25.8,25.8,0,0,1-.015,2.686c-.285,2.7.2,4.546,3.077,6.028,4.184,2.157,3.745,8.383-.6,10.466-2.107,1.009-2.7,2.209-2.5,4.355a54.674,54.674,0,0,1,.029,6.088,2.868,2.868,0,0,1-3.105,3.141,28.843,28.843,0,0,1-3.044-.03,2.338,2.338,0,0,1-2.421-2.01c-.085-2.446-1.929-3.245-3.5-4.336-.709-.493-1.611-1.331-2.341-.943-.646.343-.173,1.526-.241,2.333-.045.534,0,1.074-.01,1.612-.014,1.013.3,2.212-.139,2.99-.52.929-1.838.243-2.8.4a1.912,1.912,0,0,0-1.662,1.168,1.836,1.836,0,0,0,.5,1.96c.589.715,1.876,1.207,1.711,2.076-.15.786-1.125,1.514-1.883,2.066-2.584,1.883-1.245,4.58-1.527,6.933-.06.5.454.439.795.439,4.3,0,8.6-.007,12.9.015.647,0,.876-.229,1.08-.853a2.975,2.975,0,0,1,3.181-2.08c8.541.017,17.082,0,25.622.018,2.122.005,3.241,1.1,3.3,3.164.052,1.791.049,3.584,0,5.375a2.944,2.944,0,0,1-3.277,3.2q-12.811.038-25.623,0c-2.291-.006-3.311-1.111-3.353-3.463-.042-2.4-.042-2.4-2.5-2.4-3.583,0-7.167.032-10.75-.02-1.011-.014-1.48.127-1.442,1.328.1,3.043.075,6.092.008,9.136-.022,1.029.3,1.292,1.3,1.278,4.061-.053,8.123-.032,12.184-.013.712,0,1.13-.081,1.387-.929a2.842,2.842,0,0,1,3.044-2c8.6.015,17.2-.007,25.8.018,2.086.006,3.172,1.126,3.223,3.236.042,1.731.039,3.464,0,5.2-.048,2.194-1.132,3.3-3.36,3.308q-12.721.042-25.444,0c-2.414-.007-3.418-1.093-3.452-3.557-.032-2.341-.032-2.341-2.382-2.341-3.643,0-7.288.046-10.93-.028-1.122-.023-1.4.311-1.374,1.4.079,2.8.051,5.614.016,8.42-.017,1.366.594,1.953,1.943,1.945q5.823-.033,11.646,0c.672,0,1.016-.118,1.239-.875a2.815,2.815,0,0,1,3-2.055c8.66.009,17.321-.012,25.981.017a2.877,2.877,0,0,1,3.113,3.153q.073,2.686,0,5.375c-.053,2-1.126,3.178-3.107,3.188q-12.99.068-25.981,0c-2.152-.01-3.126-1.186-3.165-3.474-.041-2.415-.041-2.415-2.487-2.415-3.345,0-6.69.01-10.034,0-3.42-.014-5.059-1.633-5.063-5.032q-.018-14.244-.017-28.489C3985.919-463.906,3986.106-464.339,3985.724-464.76Zm-27.659,23.177-.635.054.19.381c1.25,1.585,2.519,3.155,3.74,4.762a1.687,1.687,0,0,0,1.587.545q5.359-.009,10.718,0c.591,0,1.159.061,1.6-.525,1.063-1.423,2.178-2.807,3.272-4.207.313-.227.708-.482.659-.87-.037-.29-.443-.212-.714-.137Q3968.272-441.874,3958.064-441.583Zm48.71-.223c.648.047,1.3.135,1.944.136q9.842.016,19.684.006c4.886,0,5.2-.377,4.486-5.281-.061-.414-.177-.681-.655-.6q-12.251-.024-24.5-.036c-.466,0-1.277-.279-1.245.551C4006.556-445.287,4006.065-443.51,4006.774-441.807Zm-6.259-44.88q.268-9.339,0-18.677V-506.4c-.008-.21.026-.59-.031-.6-.455-.113-.7.223-.94.539a19.111,19.111,0,0,1-9.031,3.082c-3.929.142-7.866.16-11.8.08-1.4-.028-1.669.414-1.64,1.706.086,3.813.064,7.629.01,11.443-.015,1.074.129,1.612,1.417,1.567,2.857-.1,5.725.066,8.581-.052a20.838,20.838,0,0,1,12.871,3.484c.113.212.293.351.508.206.279-.189.141-.461.049-.706Zm-52.15-1.9c-.3-.033-.5.066-.523.4-.023,2.328,0,4.657-.09,6.982-.036.943.267,1.287,1.192,1.549a4.533,4.533,0,0,1,2.778,7.051,1.169,1.169,0,0,0,.211,1.772c1.251,1.282,2.5,2.572,3.657,3.937.751.885,1.291,1.182,2.472.469,2.349-1.417,5.789-.607,6.531,1.9.766,2.587,2.33,2.282,4.121,2.26,1.374-.017,2.75-.061,4.12.016.93.052,1.275-.219,1.524-1.178.7-2.686,3.527-4.517,5.74-3.253,2.313,1.323,3.231.105,4.474-1.227.9-.96,1.814-1.905,2.792-2.78a1.421,1.421,0,0,0,.326-2.2c-1.443-2.351-.486-5.672,2.073-6.415,2.045-.594,2.173-1.686,2.014-3.309a18.392,18.392,0,0,1-.011-1.969c.013-1.422-1.12-.893-1.825-1.058-.882-.206-1.057.236-1.1,1.066-.182,3.124-1.577,4.544-4.672,4.691-.985.047-1.208.391-1.178,1.271.051,1.432.048,2.867,0,4.3-.063,2.042-1.029,3.119-3.026,3.273a4.681,4.681,0,0,0-1.985.671c-5.789,3.206-11.593,3.185-17.1-.485a15.217,15.217,0,0,1-7.006-15.772c.963-6.529,4.867-10.859,11.137-12.993.625-.213,1.219-.346,1.545-1.049a10.8,10.8,0,0,1,3.684-4.07l3.486-1.494c-2.707,0-4.985,0-7.263,0-.614,0-1.253-.051-1.093.89-1.3,3.709-4.008,4.818-7.391,2.928a.891.891,0,0,0-1.325.2c-1.588,1.617-3.2,3.212-4.8,4.811-.384.382-.649.628-.271,1.317C3953.531-492.511,3952.338-489.818,3948.365-488.583Zm25.816,9.687c0-2.132-.036-3.863.015-5.591.025-.87-.117-1.3-1.124-1.6-4.512-1.323-7.182-4.363-7.592-9.091-.146-1.68-.768-1.3-1.726-.81a13.217,13.217,0,0,0-6.141,16.8A13.123,13.123,0,0,0,3973.5-471.6c.445-.142,1.413.066,1.05-.957C3973.763-474.777,3974.43-477.061,3974.181-478.9Zm45.344,16.633h-8.781c-4.356,0-4.3,0-4.335,4.366-.009,1.276.369,1.585,1.6,1.575,6.809-.058,13.619-.028,20.428-.028,4.617,0,4.582,0,4.445-4.64-.031-1.044-.367-1.3-1.356-1.292C4027.529-462.234,4023.527-462.262,4019.525-462.262Zm-.012,35.185h9.121c4.28,0,4.23,0,4.249-4.278.005-1.252-.345-1.6-1.6-1.587-6.855.06-13.711.028-20.567.028-4.338,0-4.3,0-4.3,4.367,0,1.147.274,1.522,1.469,1.5C4011.763-427.125,4015.638-427.077,4019.513-427.077Zm-57.095-26.788c0-2.621-.011-5.243,0-7.864.008-1.314-.512-2.217-1.882-2.371-1.513-.171-3.929,2.051-3.931,3.56q-.011,5.72,0,11.439c0,4.623,0,4.583,4.574,4.459,1.068-.029,1.277-.4,1.258-1.359C3962.386-448.622,3962.421-451.244,3962.418-453.865Zm17.6-.229q0-4.031,0-8.061c0-.813.218-1.825-1.046-1.857a1.7,1.7,0,0,0-1.846,1.766,7.34,7.34,0,0,0,0,1.431c.121,1.092-.166,1.755-1.429,1.531-1.333-.237-1.552.44-1.521,1.612.075,2.924.024,5.851.024,8.776,0,4.332,0,4.294,4.435,4.251,1.076-.011,1.452-.258,1.417-1.39C3979.96-448.719,3980.017-451.408,3980.018-454.094Zm26.417-41.933c0-4.9-.032-9.791.025-14.685.012-1.088-.265-1.452-1.391-1.425-1.073.025-1.571.171-1.564,1.443q.081,14.685,0,29.37c0,1.163.31,1.5,1.485,1.51,1.208.008,1.479-.392,1.466-1.528C4006.4-486.237,4006.436-491.132,4006.435-496.028ZM3971.27-451.87v-3.036c0-4.638,0-4.606-4.615-4.442-1.017.036-1.329.35-1.311,1.35.054,2.975.019,5.951.019,8.927,0,4.6,0,4.6,4.628,4.406a1.093,1.093,0,0,1,.178,0c.865.1,1.133-.3,1.114-1.135C3971.237-447.823,3971.268-449.847,3971.27-451.87Zm2.906-43.957c0-2.02-.045-4.042.019-6.06.033-1.048-.316-1.216-1.238-.889a7.326,7.326,0,0,0-4.589,6.993,7.364,7.364,0,0,0,4.753,6.7c1.019.352,1.078-.056,1.065-.861C3974.156-491.905,3974.176-493.867,3974.176-495.827Zm5.847,15.931c0-1.549-.07-3.1.022-4.647.073-1.221-.637-1.165-1.456-1.142-.77.021-1.539-.174-1.51,1.1q.107,4.736,0,9.475c-.03,1.222.651,1.171,1.468,1.159.781-.011,1.568.145,1.5-1.118C3979.957-476.674,3980.022-478.287,3980.023-479.9Zm-7.685,47.071h-8.031c1.287,1.579,2.405,2.939,3.508,4.312.334.415.627.468.98.031C3969.9-429.85,3971.02-431.21,3972.338-432.825Zm37.021-66.482c0,1.976.041,3.79-.014,5.6-.039,1.273.505,1.057,1.253.609a3.134,3.134,0,0,0,1.639-3.281C4012.042-497.976,4011.017-498.807,4009.359-499.308Zm-24.671,13.642c-.937-.06-1.925-.185-1.679,1.27.112.657-.427,1.657.952,1.64a1.728,1.728,0,0,0,1.986-1.781C3986.034-485.556,3985.546-485.8,3984.688-485.666Z" fill="#080706"/>
        <path id="Trazado_585840" data-name="Trazado 585840" d="M4153.756-495.067c-.327.22-.59.367-.82.557-2.434,2.018-4.9,4-7.274,6.086-1.058.933-1.275-.078-1.72-.554-.491-.525-1.212-.966-.148-1.795,2.446-1.9,4.778-3.956,7.174-5.926.312-.257.63-.882,1.163-.3C4152.647-496.439,4153.117-495.832,4153.756-495.067Z" transform="translate(-127.275 -11.414)" fill="#0b0b0b"/>
        <path id="Trazado_585841" data-name="Trazado 585841" d="M4144.788-452.58c.384.285.671.479.937.7,2.338,1.945,4.626,3.955,7.03,5.818,1.1.856.376,1.306-.1,1.965-.563.783-.981,1.122-1.906.293-2.218-1.99-4.569-3.833-6.841-5.765-.309-.263-1.021-.461-.705-1.015A16.082,16.082,0,0,1,4144.788-452.58Z" transform="translate(-127.2 -40.058)" fill="#0b0b0b"/>
        <path id="Trazado_585842" data-name="Trazado 585842" d="M4153.721-463.074a17.281,17.281,0,0,0-2.679.024c-1.7.27-1.8-.645-1.719-1.943.049-.747.229-1.044,1.022-1.028,2.265.044,4.532.061,6.795,0,1.385-.038.91.927.962,1.591.054.692.212,1.469-.985,1.375C4155.991-463.143,4154.854-463.074,4153.721-463.074Z" transform="translate(-131.161 -31.436)" fill="#080706"/>
        <path id="Trazado_585843" data-name="Trazado 585843" d="M4132.8-399.23c-.362-1.419.463-1.479,1.563-1.517,1.172-.04,1.51.313,1.5,1.494s-.266,1.656-1.56,1.623C4133.1-397.661,4132.479-397.917,4132.8-399.23Z" transform="translate(-120.522 -73.301)" fill="#272727"/>
        <path id="Trazado_585844" data-name="Trazado 585844" d="M4150.862-400.566c1.263-.3,1.41.344,1.463,1.448.066,1.367-.515,1.468-1.655,1.535-1.426.084-1.275-.685-1.357-1.627C4149.2-400.486,4149.742-400.8,4150.862-400.566Z" transform="translate(-131.158 -73.372)" fill="#0b0b0b"/>
        <path id="Trazado_585845" data-name="Trazado 585845" d="M4117.886-397.684c-1.388.35-1.254-.561-1.357-1.519-.161-1.476.656-1.365,1.689-1.458,1.513-.136,1.194.8,1.3,1.674C4119.674-397.624,4118.933-397.511,4117.886-397.684Z" transform="translate(-110.127 -73.35)" fill="#0b0b0b"/>
        <path id="Trazado_585846" data-name="Trazado 585846" d="M3975.494-488.064a10.8,10.8,0,0,0-3.684,4.07c-.326.7-.919.836-1.545,1.049-6.27,2.134-10.174,6.464-11.137,12.993a15.216,15.216,0,0,0,7.006,15.772c5.508,3.67,11.312,3.691,17.1.485a4.685,4.685,0,0,1,1.985-.671c2-.154,2.963-1.231,3.026-3.273.044-1.432.046-2.867,0-4.3-.032-.88.192-1.224,1.177-1.271,3.1-.147,4.49-1.567,4.672-4.691.048-.831.223-1.272,1.1-1.066.7.165,1.837-.363,1.825,1.058a18.393,18.393,0,0,0,.012,1.969c.158,1.623.031,2.716-2.015,3.309-2.559.743-3.516,4.064-2.073,6.415a1.421,1.421,0,0,1-.325,2.2c-.978.875-1.9,1.82-2.792,2.78-1.243,1.332-2.161,2.55-4.474,1.227-2.212-1.265-5.042.567-5.739,3.253-.249.959-.595,1.23-1.524,1.178-1.37-.077-2.747-.033-4.12-.016-1.791.022-3.354.327-4.12-2.26-.743-2.511-4.182-3.321-6.531-1.9-1.182.713-1.721.416-2.472-.469-1.158-1.365-2.407-2.655-3.657-3.937a1.168,1.168,0,0,1-.211-1.772,4.532,4.532,0,0,0-2.778-7.051c-.925-.262-1.227-.606-1.191-1.549.088-2.325.068-4.654.091-6.982l.522-.4c3.974-1.235,5.166-3.929,3.211-7.495-.378-.689-.112-.935.271-1.317,1.6-1.6,3.215-3.195,4.8-4.811a.891.891,0,0,1,1.325-.2c3.382,1.889,6.087.781,7.39-2.928,1.279-.562,2.631-.313,3.957-.363C3975.268-489.058,3975.514-488.693,3975.494-488.064Z" transform="translate(-5.257 -16.67)" fill="#f5d26d"/>
        <path id="Trazado_585847" data-name="Trazado 585847" d="M4058.219-491.065l0,1.034c-.581.236-.493.75-.493,1.217q0,8.121,0,16.243c0,.467-.086.98.493,1.217l0,1.034-.557.5a20.838,20.838,0,0,0-12.871-3.483c-2.857.119-5.724-.048-8.582.052-1.288.045-1.432-.492-1.417-1.567.054-3.814.077-7.63-.01-11.443-.029-1.293.243-1.734,1.639-1.706,3.931.08,7.869.062,11.8-.08a19.114,19.114,0,0,0,9.031-3.082Z" transform="translate(-57.706 -15.332)" fill="#e3e6ea"/>
        <path id="Trazado_585848" data-name="Trazado 585848" d="M3995.279-445.561c.25,1.835-.417,4.118.367,6.334.363,1.023-.6.815-1.049.957a13.124,13.124,0,0,1-15.886-7.576,13.217,13.217,0,0,1,6.141-16.8c.959-.486,1.581-.87,1.727.81.41,4.727,3.08,7.768,7.591,9.091,1.007.3,1.149.725,1.124,1.6C3995.243-449.424,3995.279-447.694,3995.279-445.561Z" transform="translate(-21.098 -33.334)" fill="#f4f6f7"/>
        <path id="Trazado_585849" data-name="Trazado 585849" d="M4129.7-367.909c4,0,8,.028,12.005-.019.989-.012,1.325.248,1.356,1.292.136,4.641.172,4.64-4.444,4.64-6.81,0-13.619-.03-20.428.028-1.235.011-1.614-.3-1.6-1.575.031-4.366-.021-4.366,4.335-4.366Z" transform="translate(-110.176 -94.353)" fill="#f0ce6b"/>
        <path id="Trazado_585850" data-name="Trazado 585850" d="M4129.707-280.248c-3.875,0-7.75-.048-11.625.028-1.2.024-1.471-.352-1.469-1.5.005-4.367-.037-4.367,4.3-4.367,6.856,0,13.712.032,20.567-.028,1.251-.011,1.6.335,1.6,1.587-.019,4.277.031,4.278-4.249,4.278Z" transform="translate(-110.194 -146.829)" fill="#f7d36e"/>
        <path id="Trazado_585851" data-name="Trazado 585851" d="M4116.907-321.235c-.709-1.7-.219-3.48-.287-5.22-.033-.831.778-.551,1.244-.551q12.252,0,24.5.036c.014,1.073-.054,2.154.062,3.216.176,1.609-.36,2.154-2.057,2.131-7.152-.095-14.307-.047-21.46-.028C4118.231-321.65,4117.46-321.92,4116.907-321.235Z" transform="translate(-110.133 -120.571)" fill="#f7d36e"/>
        <path id="Trazado_585852" data-name="Trazado 585852" d="M3983.518-362.782c0,2.621-.034,5.244.019,7.864.02.954-.189,1.33-1.258,1.359-4.575.123-4.574.164-4.574-4.459q0-5.719,0-11.439c0-1.509,2.418-3.731,3.931-3.56,1.37.154,1.89,1.057,1.882,2.371C3983.506-368.025,3983.517-365.4,3983.518-362.782Z" transform="translate(-21.098 -91.083)" fill="#b3db7e"/>
        <path id="Trazado_585853" data-name="Trazado 585853" d="M4001.444-309.458c-1.094,1.4-2.208,2.784-3.272,4.207-.437.585-1.006.525-1.6.525q-5.358,0-10.718,0a1.688,1.688,0,0,1-1.587-.545c-1.222-1.606-2.49-3.177-3.74-4.762l.445-.435q10.208-.286,20.415,0Z" transform="translate(-22.911 -131.117)" fill="#c8cdd5"/>
        <path id="Trazado_585854" data-name="Trazado 585854" d="M4032.522-362.838c0,2.687-.057,5.375.026,8.059.036,1.132-.341,1.38-1.417,1.39-4.435.043-4.435.081-4.435-4.251,0-2.926.051-5.852-.024-8.776-.03-1.172.189-1.849,1.522-1.612,1.263.224,1.55-.44,1.429-1.531a7.339,7.339,0,0,1,0-1.431,1.7,1.7,0,0,1,1.846-1.766c1.264.032,1.045,1.044,1.046,1.857Q4032.528-366.868,4032.522-362.838Z" transform="translate(-52.505 -91.256)" fill="#b3db7e"/>
        <path id="Trazado_585855" data-name="Trazado 585855" d="M4111.417-490.85c0,4.9-.032,9.791.024,14.685.014,1.136-.257,1.536-1.465,1.528-1.176-.008-1.491-.347-1.485-1.51q.066-14.685,0-29.37c-.007-1.272.492-1.419,1.563-1.443,1.126-.027,1.4.337,1.391,1.425C4111.385-500.64,4111.416-495.745,4111.417-490.85Z" transform="translate(-104.981 -5.178)" fill="#fb806c"/>
        <path id="Trazado_585856" data-name="Trazado 585856" d="M4007.995-352.36c0,2.023-.032,4.048.014,6.07.019.839-.25,1.239-1.114,1.135a1.1,1.1,0,0,0-.178,0c-4.629.2-4.629.2-4.629-4.406,0-2.976.036-5.952-.018-8.927-.018-1,.294-1.315,1.311-1.35,4.616-.164,4.615-.2,4.615,4.442Q4008-353.877,4007.995-352.36Z" transform="translate(-36.726 -99.511)" fill="#f17c69"/>
        <path id="Trazado_585857" data-name="Trazado 585857" d="M4016.307-474.172c0,1.961-.02,3.922.01,5.883.012.805-.046,1.213-1.065.861a7.364,7.364,0,0,1-4.753-6.7,7.326,7.326,0,0,1,4.589-6.993c.922-.327,1.271-.158,1.238.889C4016.263-478.214,4016.307-476.192,4016.307-474.172Z" transform="translate(-42.132 -21.655)" fill="#fb806c"/>
        <path id="Trazado_585858" data-name="Trazado 585858" d="M4037.735-427.419c0,1.609-.066,3.222.021,4.826.069,1.263-.718,1.107-1.5,1.118-.817.012-1.5.064-1.468-1.159q.114-4.736,0-9.475c-.029-1.274.74-1.079,1.51-1.1.818-.023,1.529-.079,1.456,1.142C4037.665-430.522,4037.735-428.968,4037.735-427.419Z" transform="translate(-57.713 -52.478)" fill="#a4acb7"/>
        <path id="Trazado_585859" data-name="Trazado 585859" d="M4117.6-321.118c.552-.685,1.324-.415,2-.417,7.153-.019,14.308-.066,21.46.028,1.7.023,2.232-.522,2.056-2.131-.115-1.061-.048-2.143-.062-3.216.478-.084.594.183.654.6.716,4.9.4,5.281-4.486,5.281q-9.842,0-19.684-.006C4118.9-320.982,4118.252-321.07,4117.6-321.118Z" transform="translate(-110.829 -120.689)" fill="#d4bb61"/>
        <path id="Trazado_585860" data-name="Trazado 585860" d="M4007.211-285.787c-1.319,1.615-2.436,2.975-3.543,4.343-.354.437-.646.384-.98-.031-1.1-1.373-2.221-2.733-3.508-4.312Z" transform="translate(-34.873 -147.038)" fill="#8f98a2"/>
        <path id="Trazado_585861" data-name="Trazado 585861" d="M4124.782-471.179c1.658.5,2.684,1.331,2.878,2.931a3.133,3.133,0,0,1-1.639,3.281c-.747.448-1.292.664-1.253-.609C4124.824-467.389,4124.782-469.2,4124.782-471.179Z" transform="translate(-115.423 -28.129)" fill="#f0ce6b"/>
        <path id="Trazado_585862" data-name="Trazado 585862" d="M4099.258-469.389c-.58-.237-.493-.75-.493-1.217q0-8.122,0-16.243c0-.467-.088-.98.493-1.217Q4099.527-478.727,4099.258-469.389Z" transform="translate(-98.743 -17.297)" fill="#c8cdd5"/>
        <path id="Trazado_585863" data-name="Trazado 585863" d="M4052.943-433.2c.859-.135,1.346.11,1.259,1.129a1.727,1.727,0,0,1-1.985,1.781c-1.378.017-.84-.983-.952-1.64C4051.018-433.384,4052.005-433.259,4052.943-433.2Z" transform="translate(-68.255 -52.467)" fill="#8f98a2"/>
        <path id="Trazado_585864" data-name="Trazado 585864" d="M4006.96-488.985c.02-.629-.226-.994-.914-.968-1.326.05-2.678-.2-3.957.363-.16-.941.479-.892,1.093-.89,2.278,0,4.557,0,7.263,0Z" transform="translate(-36.723 -15.748)" fill="#f0ce6b"/>
        <path id="Trazado_585865" data-name="Trazado 585865" d="M4098.408-492.068l-.971-.065c.239-.316.485-.651.94-.539C4098.433-492.658,4098.4-492.278,4098.408-492.068Z" transform="translate(-97.894 -14.329)" fill="#c8cdd5"/>
        <path id="Trazado_585866" data-name="Trazado 585866" d="M4098.588-432.6l.557-.5c.091.245.23.517-.049.706C4098.88-432.249,4098.7-432.389,4098.588-432.6Z" transform="translate(-98.633 -52.552)" fill="#c8cdd5"/>
        <path id="Trazado_585867" data-name="Trazado 585867" d="M4038.754-309.322l-.054-1.007c.27-.075.676-.153.713.137C4039.463-309.8,4039.066-309.548,4038.754-309.322Z" transform="translate(-60.221 -131.253)" fill="#e3e6ea"/>
        <path id="Trazado_585868" data-name="Trazado 585868" d="M3980.635-310.21l-.445.435-.19-.381Z" transform="translate(-22.571 -131.373)" fill="#e3e6ea"/>
        <path id="Trazado_585869" data-name="Trazado 585869" d="M3953.789-441.282l-.522.4C3953.291-441.216,3953.49-441.315,3953.789-441.282Z" transform="translate(-5.424 -47.301)" fill="#d4bb61"/>
      </g>
    </g>
  </g>
</svg>
