<svg id="Grupo_845557" data-name="Grupo 845557" xmlns="http://www.w3.org/2000/svg" width="105.878" height="105.878" viewBox="0 0 105.878 105.878">
  <rect id="Rectángulo_38178" data-name="Rectángulo 38178" width="105.878" height="105.878" transform="translate(0 0)" fill="none"/>
  <g id="Grupo_846244" data-name="Grupo 846244" transform="translate(-3414.66 672.49)">
    <path id="Trazado_585745" data-name="Trazado 585745" d="M3458.243-573.7a1.841,1.841,0,0,1-2.053,1.42c-4-.05-8,0-12-.029a3.155,3.155,0,0,1-3.464-3.445c-.036-8.8-.136-17.6.041-26.4.078-3.829-.353-7.648-.034-11.465.1-1.166-.734-1.407-1.412-1.878-6.748-4.7-9.8-11.208-8.5-19.277s6.241-13.373,14.142-15.583a19.238,19.238,0,0,1,23.248,12.6c.217.631.085,1.512,1.216,1.534,1.214.023,1.953.026,1.93-1.663-.11-8.245-.053-16.491-.048-24.737,0-3.183,1.031-4.223,4.17-4.224q12.551,0,25.1,0c3.027,0,4.074,1.05,4.078,4.112q.013,12.276,0,24.553,0,14.971,0,29.943,0,15.525,0,31.051c0,4.156-.744,4.884-4.973,4.884-7.814,0-15.63.1-23.441-.042-4.016-.073-8.023.159-12.035.063-1.106-.026-1.945-.224-2.205-1.436a1.782,1.782,0,0,1,2.014-1.388c1.194.009,2.389-.058,3.584-.093.365.031.73.092,1.095.091,3.089-.014,2.587.212,2.595-2.489.021-7.3.007-14.6.007-21.9,0-3.567,0-3.567-3.72-3.328-.305-.024-.61-.067-.916-.071-3.492-.052-3.492-.051-3.492,3.392,0,.553.027,1.108-.012,1.658a2.212,2.212,0,0,1-2.352,2.3c-2.271.045-4.545.049-6.816,0a2.166,2.166,0,0,1-2.313-2.324c-.045-1.288-.056-2.581,0-3.869.035-.869-.261-1.2-1.152-1.176-1.841.051-3.687.07-5.526-.006-1.112-.047-1.49.3-1.484,1.449q.062,12.438-.005,24.876c-.008,1.257.426,1.546,1.594,1.525,3.622-.064,7.246,0,10.87-.035C3457.072-575.117,3457.913-574.859,3458.243-573.7Zm27.046-24.684c1.524.037,3.048.082,4.572.1.3,0,.808-.005.86-.145a8.56,8.56,0,0,0,.172-3.953c-.1-.978-1.1-.493-1.676-.5-4.3-.067-4.3-.047-4.186,4.079C3484.992-598.587,3484.895-598.334,3485.289-598.385Zm-.008-35.008c-.388-.029-.291.218-.248.435-.01.183-.027.366-.029.549-.04,3.546-.04,3.546,3.491,3.545,2.47,0,2.349-.009,2.508-2.366.123-1.8-.32-2.6-2.254-2.3A28.468,28.468,0,0,1,3485.281-633.393Zm-17.709,27.651c.6.034,1.214.027,1.811.11,1.472.2,2.069-.305,1.958-1.878-.136-1.934-.006-3.886-.042-5.829a1.676,1.676,0,0,1,1.469-1.948,2.112,2.112,0,0,1,1.3.939.359.359,0,0,0,.123.325q.012,3.87.024,7.741c-.055.32.022.535.4.506a6.078,6.078,0,0,0,2.581.029,43.934,43.934,0,0,0,6.645,0c4.678.188,9.356.139,14.033.026.549.03,1.1.082,1.646.085,2.392.014,2.394.009,2.394-2.362q0-11.037,0-22.074c0-3.667,0-3.667-3.7-3.337-4.411-.346-4.411-.346-4.439,4.012,0,.307.018.615-.01.92a2.231,2.231,0,0,1-2.329,2.329q-3.4.061-6.808,0a2.2,2.2,0,0,1-2.361-2.458c-.018-1.165-.081-2.337.012-3.5.094-1.181-.4-1.47-1.486-1.423-1.714.075-3.438.086-5.15,0-1.245-.065-1.565.426-1.545,1.6.062,3.5.007,6.994.029,10.491.008,1.231-.208,2.227-1.719,2.283-1.015-.458-1.122-1.314-1.114-2.3.032-3.63-.008-7.261.025-10.891.009-.9-.372-1.157-1.209-1.177-.862-.021-1.031.365-.984,1.12a19.886,19.886,0,0,1-1.823,9.132l-.848,1.683c-2.6,3.659-5.743,6.731-10.132,8.029-1.95.576-2.322,1.563-1.955,3.263-.3,2.484-.815,2.959-3.236,2.98q-1.287.011-2.574,0c-2.417-.021-2.939-.5-3.226-2.977.025-.607.038-1.215.077-1.821.065-1.01-.78-1.038-1.363-1.095-.821-.081-.451.676-.494,1.073a9.15,9.15,0,0,0,.063,1.453c-.026,1.289-.02,2.58-.088,3.866-.047.89.323,1.185,1.186,1.179Q3456.143-605.711,3467.572-605.742Zm30.677-58.21c-4.453-.4-4.488-.4-4.454,3.9.013,1.533-.249,2.8-1.87,3.363l-8.032-.048c-1.421-.536-1.653-1.753-1.744-3.049.375-4.269.375-4.269-3.811-4.269-.858,0-1.718-.042-2.572.016-.542.037-1.268-.338-1.546.522-.174,8.861-.156,17.722-.009,26.583-.06.331-.011.589.4.6l2.953.014h20.651c.365.025.73.068,1.1.073,2.6.032,2.6.029,2.6-2.5q0-10.93,0-21.86C3501.912-664.271,3501.911-664.271,3498.249-663.952Zm0,88.756c.364.034.727.091,1.091.1,2.571.042,2.572.039,2.573-2.523q0-10.931,0-21.862c0-3.589,0-3.589-3.7-3.345-4.408-.276-4.408-.276-4.437,4.04,0,.246.007.493,0,.738a2.328,2.328,0,0,1-2.546,2.52c-1.783.02-3.567.007-5.351.006-3.148,0-3.613-.472-3.618-3.64,0-3.737,0-3.737-3.736-3.737-4.4,0-4.4,0-4.4,4.4q0,10.888.006,21.776c0,.75-.269,1.653,1.066,1.642C3482.878-575.141,3490.563-575.162,3498.247-575.2Zm-45.784-40.291a12.274,12.274,0,0,0,1.627-.209,16.542,16.542,0,0,0,11.788-20.007c-1.7-6.649-7.606-11.9-13.8-12.263-11.515-1.923-21.308,9.139-18.2,20.565C3436.125-619.123,3444.648-613.66,3452.464-615.487Zm5.041,12.581a8.882,8.882,0,0,1-1.286-.01c-1.4-.208-1.917.251-1.853,1.768.122,2.872.024,2.877,2.945,2.877.736,0,1.472-.012,2.207,0a.756.756,0,0,0,.9-.661C3461.133-601.831,3460.364-602.906,3457.5-602.906Zm30.6-61.16a8.057,8.057,0,0,1-1.282-.01c-1.574-.257-1.931.435-1.863,1.921.123,2.684.031,2.688,2.719,2.688.794,0,1.589-.006,2.384,0,.447,0,.765-.014.91-.609C3491.681-662.977,3490.924-664.065,3488.109-664.065Zm-38.732,54.091c1.084-.035,2.056.159,2.1-1.271.048-1.472-1.04-.963-1.62-.879-.616.089-1.792-.865-1.845.8C3447.976-610.1,3448.539-609.841,3449.377-609.974Z" transform="translate(0 0)" fill="#080705"/>
    <path id="Trazado_585746" data-name="Trazado 585746" d="M3489.76-466.123c-1.2.034-2.39.1-3.584.093a1.782,1.782,0,0,0-2.014,1.388l-3.768.014c-.33-1.158-1.171-1.416-2.269-1.406-3.623.032-7.248-.029-10.87.035-1.167.02-1.6-.268-1.593-1.525q.078-12.438.005-24.876c-.006-1.147.372-1.5,1.484-1.449,1.839.077,3.685.057,5.526.006.892-.024,1.188.307,1.153,1.176-.052,1.288-.042,2.581,0,3.869a2.166,2.166,0,0,0,2.313,2.324c2.271.051,4.545.047,6.816,0a2.212,2.212,0,0,0,2.352-2.3c.04-.55.012-1.105.012-1.658,0-3.443,0-3.444,3.492-3.392.305,0,.61.047.916.071Q3489.748-479.939,3489.76-466.123Zm-22.2-7.91c0,1.291-.017,2.582,0,3.873a2.29,2.29,0,0,0,2.532,2.513c1.291.023,2.583.029,3.873,0a2.248,2.248,0,0,0,2.452-2.406c.051-2.52.061-5.042,0-7.561a2.173,2.173,0,0,0-2.345-2.3c-1.351-.035-2.7-.033-4.056,0a2.267,2.267,0,0,0-2.456,2.574C3467.559-476.247,3467.563-475.14,3467.564-474.034Zm2.629-7.671v.009c.49,0,.981.025,1.469-.006a1.333,1.333,0,0,0,1.42-1.37,1.323,1.323,0,0,0-1.415-1.378,20.516,20.516,0,0,0-2.75.012,1.29,1.29,0,0,0-1.325,1.449,1.3,1.3,0,0,0,1.317,1.276C3469.334-481.674,3469.765-481.705,3470.194-481.705Z" transform="translate(-22.151 -109.073)" fill="#f8b24c"/>
    <path id="Trazado_585747" data-name="Trazado 585747" d="M3457.184-583.643c-7.815,1.827-16.338-3.636-18.586-11.914-3.1-11.426,6.69-22.488,18.2-20.565.115.84.905.889,1.445,1.222,2.01,1.24,3.99,2.5,4.9,4.857a2.878,2.878,0,0,0-2.767,1.083c-2.721,2.748-5.488,5.451-8.184,8.224-.767.789-1.226,1.031-2.154.1-3.422-3.432-3.485-3.391-6.942.1-.173.174-.354.341-.519.523-1.22,1.35-1.263,2.395,0,3.7,2.005,2.074,4.041,4.121,6.123,6.117a3.148,3.148,0,0,0,4.752,0c1.388-1.3,2.68-2.7,4.052-4.021a1.718,1.718,0,0,0,.347-2.311l2.665-2.672a1.753,1.753,0,0,0,2.43-.453c1.239-1.264,2.54-2.467,3.814-3.7a21.716,21.716,0,0,1,.368,3.089c-.132,6.687-2.946,11.888-8.707,15.41C3457.919-584.536,3457.205-584.444,3457.184-583.643Z" transform="translate(-4.72 -31.844)" fill="#26ceb0"/>
    <path id="Trazado_585748" data-name="Trazado 585748" d="M3548.627-548.922a6.077,6.077,0,0,1-2.581-.029l-.4-.506q-.012-3.87-.023-7.741c.333-.25.131-.3-.123-.325a2.112,2.112,0,0,0-1.3-.939,9.675,9.675,0,0,1-.359-3.862c1.51-.057,1.726-1.052,1.718-2.283-.021-3.5.033-6.995-.029-10.491-.021-1.173.3-1.665,1.545-1.6,1.712.09,3.436.078,5.15,0,1.087-.048,1.581.241,1.486,1.422-.093,1.158-.03,2.33-.012,3.5a2.2,2.2,0,0,0,2.361,2.457q3.4.06,6.808,0a2.231,2.231,0,0,0,2.329-2.329c.028-.3.008-.613.01-.92.029-4.357.029-4.357,4.439-4.012q.011,13.566.023,27.132l-.332.328a.444.444,0,0,0-.032.228c-4.678.113-9.356.161-14.034-.026A8.957,8.957,0,0,0,3548.627-548.922Zm-1.177-7.745h-.006c0,1.229-.01,2.459,0,3.688a2.208,2.208,0,0,0,2.355,2.471c1.351.044,2.7.033,4.055.006a2.249,2.249,0,0,0,2.444-2.416c.059-2.457.05-4.917,0-7.375a2.261,2.261,0,0,0-2.388-2.477c-1.412-.047-2.829-.057-4.239.009a2.123,2.123,0,0,0-2.217,2.222C3547.406-559.25,3547.451-557.958,3547.451-556.667Zm2.671-7.888v.006c.427,0,.854,0,1.28,0,.937-.011,1.565-.471,1.541-1.415a1.316,1.316,0,0,0-1.474-1.3c-.853-.012-1.708-.024-2.56,0s-1.422.424-1.435,1.319a1.278,1.278,0,0,0,1.368,1.385C3549.267-564.534,3549.7-564.555,3550.122-564.555Z" transform="translate(-71.429 -56.826)" fill="#f7b14c"/>
    <path id="Trazado_585749" data-name="Trazado 585749" d="M3572.6-466.128c-7.685.034-15.37.055-23.054.115-1.335.01-1.066-.892-1.066-1.642q-.014-10.889-.006-21.776c0-4.4,0-4.4,4.4-4.4,3.731,0,3.731,0,3.736,3.737,0,3.168.469,3.637,3.618,3.64,1.783,0,3.567.014,5.351-.006a2.328,2.328,0,0,0,2.546-2.52c.011-.245,0-.492,0-.738.03-4.316.03-4.316,4.438-4.04Q3572.588-479.945,3572.6-466.128Zm-13.362-7.531h.008q0-1.753,0-3.5c0-.123,0-.246-.006-.369a2.3,2.3,0,0,0-2.469-2.4c-1.229-.023-2.459-.031-3.688,0-1.935.047-2.669.77-2.715,2.675-.03,1.229.02,2.46-.01,3.688-.162,6.521.136,5.93,6.313,5.928.062,0,.123,0,.185-.005a2.273,2.273,0,0,0,2.366-2.319C3559.305-471.2,3559.242-472.43,3559.242-473.66Zm-6.785-8.041c1.034,0,1.525.023,2.013-.005a1.339,1.339,0,0,0,1.41-1.381,1.254,1.254,0,0,0-1.247-1.338,22.016,22.016,0,0,0-3.111.025,1.2,1.2,0,0,0-1.13,1.236,1.235,1.235,0,0,0,.969,1.372A3.847,3.847,0,0,0,3552.457-481.7Z" transform="translate(-74.357 -109.068)" fill="#f8bf6c"/>
    <path id="Trazado_585750" data-name="Trazado 585750" d="M3551.908-631.661l-2.953-.014a.637.637,0,0,0-.4-.6c-.147-8.861-.165-17.722.009-26.583,2.012,0,4.025.037,6.036-.014,1.025-.026,1.4.357,1.4,1.383,0,.794-.407,1.735.494,2.361.091,1.3.323,2.513,1.744,3.049.148.176.295.5.447.507q3.549.056,7.1.016c.163,0,.323-.309.484-.474,1.622-.568,1.883-1.83,1.87-3.363-.034-4.3,0-4.3,4.454-3.9q-.015,13.818-.031,27.636h-15.113A6.109,6.109,0,0,0,3551.908-631.661Zm-1.554-7.816c0,1.291-.029,2.583.008,3.873a2.169,2.169,0,0,0,2.309,2.33c1.412.055,2.829.048,4.241,0a2.194,2.194,0,0,0,2.3-2.359q.1-3.779,0-7.562a2.224,2.224,0,0,0-2.331-2.347c-1.411-.062-2.831-.076-4.24,0a2.192,2.192,0,0,0-2.277,2.373C3550.338-641.937,3550.356-640.707,3550.354-639.477Zm2.748-7.835c.366,0,.732-.006,1.1,0,.917.017,1.632-.362,1.654-1.311.024-1.059-.732-1.444-1.724-1.429-.732.011-1.465,0-2.2.006-.926.011-1.562.42-1.548,1.4.014,1.009.718,1.324,1.617,1.329C3552.369-647.311,3552.735-647.312,3553.1-647.312Z" transform="translate(-74.341 -4.656)" fill="#f7be6b"/>
    <path id="Trazado_585751" data-name="Trazado 585751" d="M3488.63-547.226l.848-1.683c.389.4.3.909.3,1.39q-.009,8.069-.028,16.138-11.429.048-22.858.106c-.862.006-1.232-.289-1.186-1.179.068-1.287.062-2.577.088-3.866l1.717.39c.288,2.473.809,2.957,3.226,2.977q1.287.011,2.575,0c2.42-.021,2.934-.5,3.235-2.981a15.031,15.031,0,0,0,8.9-5.293C3486.941-542.911,3488.526-544.723,3488.63-547.226Z" transform="translate(-22.174 -74.361)" fill="#f8bf6c"/>
    <path id="Trazado_585752" data-name="Trazado 585752" d="M3495.2-609.669c-.9-2.352-2.885-3.617-4.9-4.857-.539-.333-1.33-.382-1.445-1.222,6.191.361,12.1,5.614,13.8,12.263a16.542,16.542,0,0,1-11.788,20.007,12.3,12.3,0,0,1-1.627.209c.021-.8.735-.894,1.235-1.2,5.76-3.522,8.574-8.722,8.706-15.41a21.773,21.773,0,0,0-.368-3.088c.72-1.081,1.112-2.222.1-3.3A16.16,16.16,0,0,0,3495.2-609.669Z" transform="translate(-36.777 -32.218)" fill="#1fb19b"/>
    <path id="Trazado_585753" data-name="Trazado 585753" d="M3613.155-549.451q-.012-13.566-.023-27.132c3.7-.33,3.7-.33,3.7,3.337q0,11.037,0,22.074c0,2.371,0,2.376-2.395,2.362-.549,0-1.1-.055-1.646-.085a.447.447,0,0,1,.032-.228Z" transform="translate(-114.915 -56.827)" fill="#ed9227"/>
    <path id="Trazado_585754" data-name="Trazado 585754" d="M3613.747-466.111q-.016-13.817-.031-27.634c3.7-.243,3.7-.243,3.7,3.345q0,10.931,0,21.862c0,2.562,0,2.566-2.573,2.523C3614.474-466.02,3614.111-466.077,3613.747-466.111Z" transform="translate(-115.5 -109.085)" fill="#f3a231"/>
    <path id="Trazado_585755" data-name="Trazado 585755" d="M3613.721-631.6l.031-27.636c3.663-.319,3.663-.319,3.663,3.348q0,10.93,0,21.86c0,2.53,0,2.533-2.6,2.5C3614.452-631.528,3614.086-631.572,3613.721-631.6Z" transform="translate(-115.503 -4.719)" fill="#f3a231"/>
    <path id="Trazado_585756" data-name="Trazado 585756" d="M3530.839-466.1q-.011-13.816-.023-27.631c3.72-.239,3.72-.239,3.72,3.328,0,7.3.013,14.6-.007,21.9-.008,2.7.494,2.475-2.595,2.489C3531.569-466.012,3531.2-466.073,3530.839-466.1Z" transform="translate(-63.231 -109.092)" fill="#f89827"/>
    <path id="Trazado_585757" data-name="Trazado 585757" d="M3530.324-548.877q.016-8.069.028-16.138c0-.48.092-.988-.3-1.39a19.884,19.884,0,0,0,1.823-9.132c-.046-.755.123-1.141.985-1.12.837.02,1.218.272,1.209,1.177-.033,3.63.007,7.261-.025,10.891-.009.989.1,1.845,1.114,2.3a9.675,9.675,0,0,0,.359,3.862,1.676,1.676,0,0,0-1.47,1.948c.035,1.943-.095,3.895.041,5.829.11,1.573-.487,2.083-1.958,1.878C3531.538-548.85,3530.928-548.843,3530.324-548.877Z" transform="translate(-62.752 -56.865)" fill="#f3a231"/>
    <path id="Trazado_585758" data-name="Trazado 585758" d="M3498.169-493.893c2.859,0,3.628,1.075,2.912,3.976a.756.756,0,0,1-.9.661c-.736-.013-1.472,0-2.208,0-2.921,0-2.823,0-2.945-2.876-.064-1.517.451-1.976,1.853-1.768A8.826,8.826,0,0,0,3498.169-493.893Z" transform="translate(-40.664 -109.013)" fill="#f7e2c4"/>
    <path id="Trazado_585759" data-name="Trazado 585759" d="M3506.921-544.355c-.1,2.5-1.689,4.316-3.185,6a15.032,15.032,0,0,1-8.9,5.293c-.367-1.7,0-2.685,1.955-3.262C3501.178-537.624,3504.319-540.7,3506.921-544.355Z" transform="translate(-40.465 -77.232)" fill="#f3a231"/>
    <path id="Trazado_585760" data-name="Trazado 585760" d="M3578.224-576.643a28.46,28.46,0,0,0,3.468-.135c1.934-.3,2.376.5,2.254,2.3-.16,2.357-.039,2.365-2.508,2.366-3.53,0-3.531,0-3.491-3.545,0-.183.02-.366.029-.548C3578.059-576.351,3578.141-576.5,3578.224-576.643Z" transform="translate(-92.942 -56.749)" fill="#f7e2c4"/>
    <path id="Trazado_585761" data-name="Trazado 585761" d="M3577.983-489.845c-.112-4.126-.112-4.146,4.186-4.079.575.009,1.576-.476,1.676.5a8.564,8.564,0,0,1-.172,3.954c-.052.139-.563.149-.86.144-1.524-.021-3.048-.066-4.571-.1Z" transform="translate(-92.952 -108.958)" fill="#f7e2c4"/>
    <path id="Trazado_585762" data-name="Trazado 585762" d="M3580.983-659.427c2.814,0,3.572,1.089,2.868,3.99-.145.6-.463.613-.91.609-.794-.006-1.589,0-2.383,0-2.688,0-2.6,0-2.72-2.688-.068-1.486.289-2.179,1.864-1.921A8.064,8.064,0,0,0,3580.983-659.427Z" transform="translate(-92.873 -4.638)" fill="#f7e2c4"/>
    <path id="Trazado_585763" data-name="Trazado 585763" d="M3479.211-516.924c-.839.134-1.4-.13-1.363-1.351.053-1.664,1.229-.71,1.845-.8.58-.084,1.668-.593,1.62.879C3481.266-516.765,3480.295-516.959,3479.211-516.924Z" transform="translate(-29.833 -93.05)" fill="#f6f8f9"/>
    <path id="Trazado_585764" data-name="Trazado 585764" d="M3467.477-518.774l-1.717-.39a9.119,9.119,0,0,1-.062-1.453c.042-.4-.328-1.154.493-1.073.583.057,1.428.085,1.363,1.095C3467.515-519.989,3467.5-519.381,3467.477-518.774Z" transform="translate(-22.143 -91.518)" fill="#f3a231"/>
    <path id="Trazado_585765" data-name="Trazado 585765" d="M3556.833-502.579a8.957,8.957,0,0,1,6.645,0A43.926,43.926,0,0,1,3556.833-502.579Z" transform="translate(-79.635 -103.169)" fill="#f8b24c"/>
    <path id="Trazado_585766" data-name="Trazado 585766" d="M3556.7-655.081c-.9-.627-.49-1.568-.493-2.361,0-1.026-.374-1.409-1.4-1.383-2.011.051-4.024.014-6.036.014.278-.86,1-.485,1.546-.522.854-.058,1.713-.016,2.571-.016C3557.078-659.349,3557.078-659.349,3556.7-655.081Z" transform="translate(-74.554 -4.705)" fill="#f8bf6c"/>
    <path id="Trazado_585767" data-name="Trazado 585767" d="M3557.832-585.353a6.11,6.11,0,0,1,5.538,0Z" transform="translate(-80.264 -50.964)" fill="#f8bf6c"/>
    <path id="Trazado_585768" data-name="Trazado 585768" d="M3582.984-639.438c-.161.165-.321.473-.484.474q-3.55.039-7.1-.016c-.152,0-.3-.33-.447-.507Z" transform="translate(-91.059 -17.251)" fill="#f8bf6c"/>
    <path id="Trazado_585769" data-name="Trazado 585769" d="M3548.729-502.937l.4.506C3548.751-502.4,3548.674-502.617,3548.729-502.937Z" transform="translate(-74.515 -103.346)" fill="#f8b24c"/>
    <path id="Trazado_585770" data-name="Trazado 585770" d="M3548.715-585.89a.638.638,0,0,1,.4.6C3548.7-585.3,3548.655-585.559,3548.715-585.89Z" transform="translate(-74.503 -51.044)" fill="#f8bf6c"/>
    <path id="Trazado_585771" data-name="Trazado 585771" d="M3577.965-482.693l.259.419C3577.829-482.224,3577.927-482.477,3577.965-482.693Z" transform="translate(-92.934 -116.11)" fill="#b6e36f"/>
    <path id="Trazado_585772" data-name="Trazado 585772" d="M3578.212-576.311c-.083.146-.165.292-.248.436C3577.921-576.093,3577.824-576.34,3578.212-576.311Z" transform="translate(-92.931 -57.082)" fill="#b6e36f"/>
    <path id="Trazado_585773" data-name="Trazado 585773" d="M3548.355-524.766c.254.027.456.075.123.325A.358.358,0,0,1,3548.355-524.766Z" transform="translate(-74.287 -89.583)" fill="#f8b24c"/>
    <path id="Trazado_585774" data-name="Trazado 585774" d="M3470.8-450.306c0-1.107,0-2.213,0-3.32a2.267,2.267,0,0,1,2.456-2.574c1.352-.028,2.705-.031,4.057,0a2.173,2.173,0,0,1,2.345,2.3c.065,2.519.055,5.042,0,7.561a2.248,2.248,0,0,1-2.452,2.406c-1.29.033-2.582.027-3.873,0a2.289,2.289,0,0,1-2.532-2.513C3470.781-447.723,3470.8-449.015,3470.8-450.306Zm4.48,3.643c.93.091,1.679.15,1.684-1.3,0-1.413-.681-1.389-1.673-1.377s-1.857-.155-1.821,1.423C3473.5-446.415,3474.34-446.626,3475.277-446.663Zm-.138-6.89c-.455.348-1.6-.478-1.583.815.014,1.111,1.015.685,1.558.64.606-.051,1.686.6,1.764-.6C3476.957-453.943,3475.84-453.325,3475.139-453.553Z" transform="translate(-25.385 -132.801)" fill="#060503"/>
    <path id="Trazado_585775" data-name="Trazado 585775" d="M3473.478-465.726c-.428,0-.859.031-1.284-.007a1.3,1.3,0,0,1-1.318-1.276,1.29,1.29,0,0,1,1.326-1.449,20.516,20.516,0,0,1,2.75-.012,1.323,1.323,0,0,1,1.415,1.378,1.333,1.333,0,0,1-1.42,1.37c-.488.031-.979.006-1.469.006Z" transform="translate(-25.436 -125.053)" fill="#080705"/>
    <path id="Trazado_585776" data-name="Trazado 585776" d="M3469.333-599.4a16.164,16.164,0,0,1,3.711,3.405c1.016,1.075.624,2.216-.1,3.3-1.275,1.229-2.576,2.431-3.814,3.7a1.753,1.753,0,0,1-2.431.453,1.725,1.725,0,0,1,.454-2.431c.855-.791,1.594-1.715,2.492-2.449.968-.791.837-1.306.016-2.163-.853-.891-1.291-.656-2.02.092-2.913,2.986-5.913,5.887-8.821,8.878-1.085,1.116-1.994,1.259-3.063.041-.687-.782-1.523-1.435-2.19-2.232-.806-.961-1.238-.22-1.726.286-.466.482-1.269.844-.341,1.713,1.7,1.592,3.33,3.262,4.948,4.939.614.637,1.06.6,1.649-.02,1.138-1.2,2.358-2.327,3.5-3.531a1.779,1.779,0,0,1,2.443-.453,1.718,1.718,0,0,1-.348,2.311c-1.371,1.319-2.664,2.72-4.051,4.021a3.148,3.148,0,0,1-4.752,0c-2.082-2-4.118-4.043-6.123-6.117-1.261-1.3-1.218-2.348,0-3.7.165-.182.346-.348.519-.523,3.457-3.5,3.52-3.536,6.942-.1.928.931,1.388.689,2.154-.1,2.7-2.772,5.463-5.475,8.185-8.224A2.878,2.878,0,0,1,3469.333-599.4Z" transform="translate(-10.911 -42.488)" fill="#030705"/>
    <path id="Trazado_585777" data-name="Trazado 585777" d="M3469.568-580.256a1.779,1.779,0,0,0-2.443.453c-1.136,1.2-2.357,2.328-3.495,3.531-.59.623-1.035.657-1.65.02-1.618-1.678-3.247-3.348-4.948-4.939-.928-.869-.125-1.231.341-1.713.489-.506.92-1.248,1.726-.286.667.8,1.5,1.449,2.19,2.232,1.069,1.218,1.979,1.075,3.064-.041,2.907-2.991,5.908-5.892,8.821-8.878.729-.747,1.167-.983,2.02-.092.821.857.952,1.372-.016,2.163-.9.734-1.637,1.658-2.492,2.449a1.726,1.726,0,0,0-.454,2.431Z" transform="translate(-16.44 -48.108)" fill="#b6e36f"/>
    <path id="Trazado_585778" data-name="Trazado 585778" d="M3553.62-532.928c0-1.291-.044-2.583.012-3.871a2.123,2.123,0,0,1,2.217-2.222c1.41-.066,2.827-.056,4.239-.009a2.261,2.261,0,0,1,2.388,2.477c.045,2.457.054,4.918,0,7.375a2.249,2.249,0,0,1-2.444,2.416c-1.351.027-2.7.038-4.055-.006a2.209,2.209,0,0,1-2.356-2.471c-.012-1.229,0-2.458,0-3.688Zm4.057.789c-.794-.12-1.413-.005-1.408,1.4.006,1.574.94,1.211,1.811,1.273,1.045.075,1.661-.028,1.666-1.415C3559.75-532.466,3558.784-532.08,3557.676-532.139Zm.4-2.715c.548-.244,1.533.4,1.56-.7.03-1.221-1.024-.761-1.626-.755s-1.686-.482-1.632.737C3556.426-534.367,3557.518-535.15,3558.073-534.854Z" transform="translate(-77.598 -80.565)" fill="#060503"/>
    <path id="Trazado_585779" data-name="Trazado 585779" d="M3556.359-548.447c-.427,0-.855.021-1.28,0a1.278,1.278,0,0,1-1.368-1.385c.013-.895.594-1.294,1.435-1.319s1.707-.013,2.56,0a1.317,1.317,0,0,1,1.474,1.3c.024.944-.6,1.4-1.541,1.415-.427,0-.854,0-1.281,0Z" transform="translate(-77.666 -72.934)" fill="#060503"/>
    <path id="Trazado_585780" data-name="Trazado 585780" d="M3613.214-502.923l-.332.328Z" transform="translate(-114.974 -103.355)" fill="#f8b24c"/>
    <path id="Trazado_585781" data-name="Trazado 585781" d="M3562.434-449.933c0,1.229.063,2.463-.017,3.687a2.272,2.272,0,0,1-2.366,2.319c-.061,0-.123.005-.184.005-6.177,0-6.474.593-6.313-5.928.03-1.229-.02-2.459.01-3.688.047-1.9.781-2.628,2.716-2.675,1.229-.03,2.458-.021,3.688,0a2.3,2.3,0,0,1,2.469,2.4c.01.122.005.246.006.369q0,1.752,0,3.5Zm-4.273,3.242c.964.25,1.5.034,1.535-1.319.038-1.474-.752-1.363-1.7-1.33-.871.031-1.758-.271-1.781,1.265C3556.2-446.519,3556.981-446.557,3558.161-446.69Zm-.257-6.843c-.565.2-1.538-.386-1.588.682-.058,1.241,1.019.764,1.6.749s1.673.55,1.66-.683C3559.565-454,3558.476-453.29,3557.9-453.533Z" transform="translate(-77.549 -132.795)" fill="#060503"/>
    <path id="Trazado_585782" data-name="Trazado 585782" d="M3555.745-465.669a3.844,3.844,0,0,1-1.1-.091,1.234,1.234,0,0,1-.969-1.372,1.2,1.2,0,0,1,1.13-1.236,22.028,22.028,0,0,1,3.111-.025,1.254,1.254,0,0,1,1.247,1.338,1.339,1.339,0,0,1-1.41,1.381C3557.271-465.646,3556.78-465.669,3555.745-465.669Z" transform="translate(-77.645 -125.1)" fill="#080705"/>
    <path id="Trazado_585783" data-name="Trazado 585783" d="M3553.608-615.811c0-1.23-.018-2.46.006-3.689a2.192,2.192,0,0,1,2.278-2.373c1.41-.079,2.829-.065,4.24,0a2.224,2.224,0,0,1,2.33,2.347q.1,3.779,0,7.562a2.194,2.194,0,0,1-2.3,2.359c-1.413.049-2.829.056-4.241,0a2.17,2.17,0,0,1-2.309-2.33C3553.579-613.228,3553.607-614.519,3553.608-615.811Zm4.124,3.477c1.006-.052,1.98.377,1.982-1.209,0-1.337-.553-1.508-1.6-1.388-.8.091-1.83-.417-1.817,1.194C3556.307-612.418,3556.808-612.153,3557.732-612.333Zm.264-5.382c.551-.227,1.55.415,1.616-.651.07-1.126-.955-.732-1.509-.7-.612.035-1.72-.525-1.714.682C3556.395-617.327,3557.431-617.926,3558-617.715Z" transform="translate(-77.594 -28.322)" fill="#080705"/>
    <path id="Trazado_585784" data-name="Trazado 585784" d="M3556.426-631.253c-.366,0-.733,0-1.1,0-.9,0-1.6-.319-1.617-1.329-.013-.983.623-1.392,1.549-1.4.733-.009,1.466,0,2.2-.006.991-.015,1.748.369,1.723,1.429-.022.95-.737,1.329-1.654,1.311C3557.159-631.259,3556.792-631.253,3556.426-631.253Z" transform="translate(-77.665 -20.715)" fill="#080705"/>
    <path id="Trazado_585785" data-name="Trazado 585785" d="M3479.842-434.932c-.937.037-1.776.248-1.81-1.258-.036-1.578.814-1.411,1.821-1.423.992-.012,1.677-.035,1.672,1.377C3481.521-434.782,3480.771-434.842,3479.842-434.932Z" transform="translate(-29.95 -144.532)" fill="#f7e2c4"/>
    <path id="Trazado_585786" data-name="Trazado 585786" d="M3479.854-449c.7.228,1.818-.39,1.738.852-.077,1.2-1.157.552-1.764.6-.542.045-1.543.472-1.558-.64C3478.255-449.478,3479.4-448.652,3479.854-449Z" transform="translate(-30.1 -137.354)" fill="#e14250"/>
    <path id="Trazado_585787" data-name="Trazado 585787" d="M3562.224-520.375c1.108.06,2.074-.327,2.069,1.263,0,1.387-.62,1.49-1.665,1.415-.871-.062-1.805.3-1.811-1.273C3560.812-520.381,3561.431-520.5,3562.224-520.375Z" transform="translate(-82.147 -92.328)" fill="#f7e2c4"/>
    <path id="Trazado_585788" data-name="Trazado 585788" d="M3562.8-530.293c-.555-.3-1.647.487-1.7-.713-.053-1.219,1.032-.731,1.632-.737s1.657-.466,1.627.755C3564.329-529.9,3563.345-530.536,3562.8-530.293Z" transform="translate(-82.322 -85.126)" fill="#e14250"/>
    <path id="Trazado_585789" data-name="Trazado 585789" d="M3562.756-434.957c-1.179.133-1.966.171-1.942-1.384.023-1.536.91-1.234,1.781-1.265.943-.033,1.734-.144,1.7,1.33C3564.255-434.922,3563.72-434.707,3562.756-434.957Z" transform="translate(-82.145 -144.528)" fill="#f7e2c4"/>
    <path id="Trazado_585790" data-name="Trazado 585790" d="M3562.661-448.929c.573.243,1.662-.462,1.675.748.013,1.233-1.073.668-1.66.683s-1.661.492-1.6-.749C3561.123-449.315,3562.1-448.728,3562.661-448.929Z" transform="translate(-82.307 -137.399)" fill="#e14250"/>
    <path id="Trazado_585791" data-name="Trazado 585791" d="M3562.338-600.448c-.923.18-1.425-.084-1.436-1.4-.013-1.611,1.014-1.1,1.817-1.194,1.048-.119,1.6.051,1.6,1.388C3564.318-600.071,3563.344-600.5,3562.338-600.448Z" transform="translate(-82.2 -40.208)" fill="#f6f8f9"/>
    <path id="Trazado_585792" data-name="Trazado 585792" d="M3562.762-613.005c-.565-.21-1.6.388-1.607-.669-.006-1.207,1.1-.647,1.714-.682.553-.032,1.579-.426,1.509.7C3564.312-612.59,3563.314-613.232,3562.762-613.005Z" transform="translate(-82.36 -33.032)" fill="#e14250"/>
  </g>
</svg>
