<svg xmlns="http://www.w3.org/2000/svg" width="78.44" height="78.431" viewBox="0 0 78.44 78.431">
  <g id="Grupo_845648" data-name="Grupo 845648" transform="translate(-8946.653 924.9)">
    <path id="Trazado_584414" data-name="Trazado 584414" d="M8985.892-846.5c-12.534,0-25.069-.022-37.6.032-1.3.005-1.638-.285-1.634-1.614q.069-35.385.033-70.77c0-2.711.766-3.475,3.456-3.481.264,0,.527,0,.79,0,2.506.01,3.335.816,3.338,3.285.006,6,.017,12.006-.013,18.008,0,.938-.018,1.519,1.266,1.511,1.233-.008,1.3-.5,1.295-1.483-.034-7.477.013-14.955-.052-22.431-.01-1.212.326-1.454,1.48-1.447q12.482.079,24.964-.006c1.247-.01,1.465.378,1.427,1.5-.083,2.525.021,5.055-.05,7.581-.027.979.363,1.147,1.193,1.075.706-.061,1.436.2,1.388-1.044-.1-2.629.021-5.266-.057-7.9-.029-1.006.286-1.208,1.236-1.2q12.719.056,25.438,0c1.032-.006,1.188.337,1.184,1.255-.035,7.53-.009,15.06-.034,22.589,0,.932-.029,1.525,1.26,1.515,1.228-.01,1.307-.49,1.3-1.479-.038-6-.021-12.006-.017-18.008,0-2.493.82-3.307,3.3-3.316a17.752,17.752,0,0,1,1.895.02,2.454,2.454,0,0,1,2.366,2.324,9.539,9.539,0,0,1,.021,1.262q0,35.306.03,70.612c0,1.274-.243,1.656-1.6,1.65C9010.962-846.529,8998.427-846.5,8985.892-846.5Zm-6.284-10.055-.043-.045c.556,1.962,1.738,2.892,3.866,2.541a26.362,26.362,0,0,1,2.832-.038c.7-.037.849.223.906.892.105,1.222-.136,1.877-1.563,1.672a12.342,12.342,0,0,0-2.675,0c-.442.033-1.354-.434-1.144.653.14.726-.419,1.931,1.163,1.871,1.89-.072,3.785-.056,5.675,0,.826.025,1.067-.217,1.063-1.054-.038-5.2-.046-10.4,0-15.6.01-.989-.4-1.083-1.2-1.07-2.521.042-5.046-.008-7.567.025-1.248.017-2.863-.533-3.644.221s-.09,2.4-.264,3.627C8976.638-860.235,8977.276-858.061,8979.607-856.559Zm-26.585-13.817a9.051,9.051,0,0,1-.479-8.328,1.166,1.166,0,0,0-.024-1.05,12.555,12.555,0,0,1-.784-5.261q.023-16.66.006-33.32c0-.759.243-1.534-1.1-1.525-1.223.01-1.448.383-1.446,1.521q.053,30.24.035,60.481c0,.337-.163.721.228,1.129a18.14,18.14,0,0,1,3.571-3.242,12.06,12.06,0,0,1,4.614-1.513c1.578-.034,1.935-.751,1.7-2.109a2.317,2.317,0,0,1,0-.787,1.8,1.8,0,0,0-1.339-2.261A11.116,11.116,0,0,1,8953.022-870.376Zm59.4-5.244v-5.207c0-3.591,0-3.62-3.569-3.576-1.294.016-2.953-.581-3.783.27-.754.772-.23,2.405-.2,3.653.021.921-.3,1.146-1.175,1.135q-5.127-.066-10.257,0c-.927.013-1.358-.178-1.261-1.2.09-.938-.033-1.9.033-2.837.063-.864-.294-1.069-1.092-1.048-1.787.048-3.578.06-5.365,0-.9-.032-1.162.254-1.153,1.152.042,4.26.059,8.521-.009,12.78-.017,1.108.4,1.281,1.365,1.266,3.26-.05,6.522.017,9.782-.039,1.06-.018,1.769.085,1.526,1.4-.158.862.188,1.181,1.108,1.171q6.469-.066,12.939,0c.933.01,1.143-.315,1.128-1.179C9012.388-870.465,9012.42-873.043,9012.42-875.62ZM8974.5-907.237c0-2.156.033-4.313-.018-6.468-.021-.836.251-1.091,1.076-1.068,1.839.053,3.682-.009,5.522.029.721.015,1.037-.172,1.018-.961q-.07-2.839,0-5.68c.02-.788-.3-.932-1.017-.966-3.986-.189-4.019-.208-4.023,3.761,0,1-.225,1.36-1.295,1.338q-5.046-.1-10.1,0c-1.056.021-1.3-.316-1.3-1.328,0-3.969-.039-3.936-4.015-3.777-.876.035-1.025.355-1.023,1.122q.035,10.256,0,20.511c0,.894.253,1.162,1.151,1.153q6.469-.064,12.939,0c.961.011,1.124-.363,1.105-1.2C8974.464-902.924,8974.5-905.081,8974.5-907.237Zm37.924-3.725c0-3.366-.024-6.732.015-10.1.011-.877-.1-1.292-1.167-1.3-3.84-.046-3.893-.093-3.866,3.764.009,1.177-.412,1.374-1.45,1.344-2.418-.069-4.84-.011-7.259-.027-1.255-.008-2.859.4-3.669-.22-.881-.671-.178-2.358-.3-3.594a2.4,2.4,0,0,0-.006-.315c-.513-2.013-2.068-.586-3.1-.845-.553-.139-1.945-.833-1.947.853,0,1.893.028,3.787-.016,5.68-.018.766.256,1,1,.98,1.734-.042,3.474.05,5.206-.036,1.079-.054,1.439.23,1.421,1.372-.071,4.154.013,8.31-.056,12.464-.021,1.133.329,1.4,1.414,1.379,4.155-.062,8.312-.055,12.467,0,1.007.013,1.355-.233,1.334-1.3C9012.376-904.229,9012.42-907.6,9012.42-910.962ZM8997.351-892c-6.373,0-12.743.021-19.116-.022-.951-.006-1.311.2-1.228,1.206a7.558,7.558,0,0,1-1.061,5.155,1.661,1.661,0,0,0,.024,2.093,40.713,40.713,0,0,1,3.429,8.451c.314,1.1.254,1.73-.929,2.162-1.063.389-2.19,2.547-1.7,3.359.479.792,1.5.234,2.276.334.517.067,1.06-.047,1.575.025,1.137.16,1.517-.183,1.5-1.419-.083-4.948.006-9.9-.064-14.846-.016-1.168.257-1.479,1.456-1.472q15.006.081,30.016,0c1.2-.007,1.468.3,1.455,1.471-.066,5.791-.006,11.582-.053,17.373-.008,1.022.13,1.439,1.318,1.461,1.313.025,1.249-.614,1.246-1.526-.022-7.423-.039-14.847.014-22.27.009-1.187-.226-1.586-1.515-1.57C9009.778-891.962,9003.564-892,8997.351-892Zm-32.943,32.881v-.006c-1.736,0-3.475-.043-5.21.008a10.023,10.023,0,0,0-9.524,7.8c-.541,2.287-.541,2.287,1.723,2.288a12.828,12.828,0,0,1,1.577.012c1.021.127,1.484-.239,1.3-1.289-.2-1.092.345-1.279,1.321-1.285s1.392.25,1.212,1.234c-.212,1.165.352,1.368,1.4,1.352,3.946-.059,7.9-.08,11.84.007,1.385.031,2.229-.12,1.938-1.791-.168-.963.624-.8,1.151-.748s1.526-.391,1.334.71c-.331,1.9.759,1.906,2.075,1.807a9.338,9.338,0,0,1,1.733,0c.959.107,1.1-.292,1.021-1.17a10.065,10.065,0,0,0-9.524-8.917C8967.988-859.186,8966.2-859.124,8964.407-859.124Zm42.919,10.087c2.95,0,5.9-.042,8.849.023,1.022.022,1.346-.258,1.325-1.307-.065-3.369-.023-6.739-.023-10.109,0-3.982,0-3.95-4.033-3.791-.873.034-1.05.341-1.031,1.118.044,1.789-.034,3.582.033,5.37.035.922-.291,1.169-1.17,1.137-1.683-.061-3.37-.017-5.056-.017-3.913,0-3.913,0-3.913-3.884,0-3.775,0-3.73-3.783-3.728-1.077,0-1.3.355-1.288,1.348q.075,6.318,0,12.636c-.013.991.287,1.245,1.247,1.226C9001.428-849.074,9004.378-849.036,9007.326-849.036Zm-52.9-27.049a7.109,7.109,0,0,0,5.762,7.739.923.923,0,0,0,.934-.421,2.28,2.28,0,0,0-.21-3.443c-2.128-2.2-2.126-4.765.01-6.425a5.045,5.045,0,0,0,1.308-5.393,3.782,3.782,0,0,1,3.187-5.416c.569-.039,1.5-.435,1.49.763-.009.826.364,1.89-1.184,1.77a1.139,1.139,0,0,0-1.293,1.267c.022.834.606,1.181,1.379,1.206.843.027,1.686.016,2.528.014,4.286-.012,6.247-2.055,6.176-6.324-.016-.936-.241-1.287-1.235-1.271-3.632.056-7.268-.049-10.9.054a7.94,7.94,0,0,0-6.538,3.57c-2.383,3.42-2.058,6.692,1.036,10.821.93,1.241.769,1.754-.633,2.423C8955.172-874.64,8955.321-876.142,8954.43-876.086Zm13.767-5.806c-3.092,0-3.094,0-3.593,2.74-.1.517-.18,1.036-.271,1.554-.066.367-.149.641-.618.773-2.3.648-2.464,1.35-.769,3.08a4.457,4.457,0,0,1,.112,6.509c-1.1,1.141-1.121,2.3-1.239,3.652-.143,1.613.374,2.022,1.96,1.952,3.131-.139,3.233-.045,3.095-3.1-.075-1.628.362-2.1,2.022-2.046,3.566.119,5.627-1.967,5.565-5.525-.02-1.181.295-1.876,1.415-2.228.595-.187.97-.465.7-1.267a43.238,43.238,0,0,0-2.778-6.515c-.258-.483-.51-.709-1.1-.4A8.5,8.5,0,0,1,8968.2-881.892Zm17.739-17.7c2.526,0,5.056-.024,7.582.014.809.013,1.242-.089,1.226-1.08-.056-3.527.21-7.076-.106-10.575-.2-2.188-2.273-.543-3.43-.943-.6-.209-1.673-.41-1.55.985.078.888-.064,1.8.034,2.682.128,1.165-.365,1.417-1.427,1.362a47.351,47.351,0,0,0-4.9,0c-1.047.055-1.312-.293-1.315-1.319,0-3.978-.04-3.945-4.015-3.783-.881.036-1.028.362-1.022,1.127.031,3.475.045,6.95-.007,10.424-.015.938.325,1.14,1.185,1.124C8980.773-899.621,8983.354-899.59,8985.936-899.59Zm36.6,15.2c0-11.319-.018-22.637.026-33.955,0-1.151-.243-1.508-1.456-1.509-1.482,0-1.086.945-1.086,1.686q-.018,33.718-.01,67.436a7.332,7.332,0,0,1,0,.789c-.069.666.187.875.878.938,1.253.113,1.7-.193,1.688-1.587C9022.5-861.859,9022.534-873.125,9022.534-884.39Zm-36.581-12.668h-15.8c-4.9,0-9.794.014-14.689-.014-.811,0-1.166.114-1.237,1.078-.1,1.382.519,1.482,1.637,1.481q30.012-.041,60.024-.012c.936,0,1.647.11,1.647-1.312,0-1.533-.889-1.218-1.73-1.219Q9000.878-897.061,8985.953-897.058Zm6.244,39.183c0,2.571.061,5.145-.028,7.713-.036,1.088.441,1.148,1.3,1.154.873.006,1.3-.094,1.287-1.163q-.092-7.713,0-15.427c.013-1.085-.44-1.147-1.3-1.153-.872-.006-1.321.091-1.285,1.163C8992.256-863.02,8992.2-860.447,8992.2-857.875Zm12.642-3.923c0,2.651,0,2.651,1.849,2.653,3.205,0,3.205,0,3.206-2.086,0-2.967,0-2.967-2.007-2.968C9004.839-864.2,9004.839-864.2,9004.839-861.8Zm-30.385-4.252a8.233,8.233,0,0,1-4.376,1.811c-1.027.066-.624.821-.607,1.28s-.464,1.266.559,1.31c1.485.065,3.447,1.3,4.152.738.976-.783.212-2.815.318-4.307A8.089,8.089,0,0,0,8974.454-866.049Zm-5.054-55.07c.247-.874-.1-1.254-1.108-1.242-.922.011-1.442.1-1.416,1.255.021,1.037.317,1.348,1.348,1.329C8969.178-919.795,8969.63-920.041,8969.4-921.12Zm3.73,1.283c.725.078,1.483.175,1.379-1.016-.066-.773.189-1.658-1.135-1.5-.723.086-1.535-.152-1.417,1.061C8972.034-920.524,8971.754-919.576,8973.131-919.837Zm25.408,0c.983.207,1.269-.2,1.275-1.179,0-1.013-.261-1.376-1.322-1.353-.944.021-1.283.248-1.271,1.244S8997.444-919.595,8998.539-919.838Zm5.079-2.472c-1.045-.225-1.353.221-1.341,1.262.012.946.244,1.276,1.241,1.273,1.013,0,1.387-.262,1.351-1.324C9004.837-922.018,9004.661-922.538,9003.618-922.31Zm-16.514,11.3c.353-1.043-.187-1.254-1.2-1.261-.979-.006-1.374.2-1.346,1.281.023.973.21,1.381,1.286,1.341C8986.8-909.684,8987.392-909.811,8987.1-911.011Zm10.1,27.779c.289-.949-.182-1.2-1.141-1.217-.984-.018-1.416.2-1.373,1.294.036.907.188,1.321,1.221,1.293C8996.875-881.888,8997.478-882.027,8997.206-883.231Zm5.073.1c.242-1.09-.285-1.31-1.286-1.319s-1.228.319-1.245,1.268c-.02,1.054.329,1.334,1.349,1.325C9002.071-881.869,9002.485-882.149,9002.279-883.135Z" transform="translate(-0.001)" fill="#030303"/>
    <path id="Trazado_584415" data-name="Trazado 584415" d="M9094.461-788.443c0,2.577-.031,5.155.018,7.731.016.863-.2,1.189-1.127,1.179q-6.47-.07-12.94,0c-.92.009-1.267-.309-1.107-1.171.242-1.312-.467-1.415-1.526-1.4-3.26.056-6.523-.01-9.783.04-.964.015-1.381-.157-1.365-1.266.068-4.259.052-8.52.009-12.78-.009-.9.256-1.183,1.154-1.152,1.787.064,3.577.052,5.364,0,.8-.022,1.155.184,1.093,1.048-.066.942.056,1.9-.034,2.837-.1,1.027.334,1.218,1.262,1.2q5.125-.073,10.257,0c.873.011,1.2-.214,1.175-1.135-.029-1.248-.554-2.881.2-3.653.831-.851,2.49-.254,3.784-.27,3.568-.044,3.568-.015,3.568,3.576Z" transform="translate(-82.042 -87.177)" fill="#d19f6b"/>
    <path id="Trazado_584416" data-name="Trazado 584416" d="M9001.877-901.862c0,2.156-.031,4.313.018,6.468.016.837-.146,1.211-1.107,1.2q-6.469-.074-12.939,0c-.9.009-1.156-.259-1.15-1.153q.05-10.255,0-20.511c0-.767.148-1.087,1.023-1.122,3.977-.159,4.01-.192,4.016,3.777,0,1.012.248,1.349,1.3,1.328q5.048-.1,10.1,0c1.07.022,1.293-.339,1.293-1.337.006-3.969.039-3.95,4.025-3.761.713.034,1.035.178,1.016.966q-.07,2.839,0,5.68c.02.789-.3.975-1.018.961-1.84-.038-3.684.025-5.523-.028-.824-.024-1.1.232-1.076,1.067C9001.912-906.175,9001.877-904.018,9001.877-901.862Z" transform="translate(-27.383 -5.375)" fill="#d19f6b"/>
    <path id="Trazado_584417" data-name="Trazado 584417" d="M9105.424-905.806c0,3.366-.042,6.733.025,10.1.022,1.063-.327,1.309-1.335,1.3-4.154-.052-8.311-.059-12.465,0-1.085.016-1.435-.246-1.416-1.379.07-4.154-.015-8.31.057-12.464.02-1.141-.342-1.426-1.422-1.372-1.731.087-3.471-.006-5.206.036-.743.018-1.017-.214-1-.98.044-1.892.013-3.786.015-5.68,0-1.686,1.395-.993,1.948-.853,1.027.26,2.584-1.168,3.1.845a2.243,2.243,0,0,1,0,.315c.124,1.236-.58,2.923.3,3.594.81.617,2.413.212,3.668.22,2.42.015,4.842-.043,7.259.027,1.037.03,1.458-.168,1.45-1.344-.027-3.857.025-3.81,3.866-3.764,1.063.013,1.178.428,1.168,1.3C9105.4-912.538,9105.424-909.172,9105.424-905.806Z" transform="translate(-93.006 -5.156)" fill="#d19f6b"/>
    <path id="Trazado_584418" data-name="Trazado 584418" d="M9059.917-820.935c6.214,0,12.428.042,18.641-.034,1.288-.016,1.522.383,1.516,1.57-.054,7.423-.036,14.847-.015,22.27,0,.912.066,1.551-1.246,1.526-1.187-.023-1.327-.439-1.318-1.461.047-5.791-.013-11.583.052-17.373.015-1.169-.259-1.478-1.455-1.471q-15.007.081-30.016,0c-1.2-.007-1.471.3-1.454,1.472.07,4.948-.02,9.9.063,14.846.021,1.236-.359,1.579-1.494,1.419-.517-.072-1.059.042-1.577-.025-.773-.1-1.8.458-2.274-.334-.492-.812.635-2.971,1.7-3.359,1.182-.432,1.243-1.066.929-2.162a40.611,40.611,0,0,0-3.43-8.451,1.662,1.662,0,0,1-.023-2.093,7.564,7.564,0,0,0,1.061-5.155c-.084-1.009.277-1.212,1.229-1.206C9047.173-820.915,9053.545-820.935,9059.917-820.935Z" transform="translate(-62.567 -71.069)" fill="#f5f7f8"/>
    <path id="Trazado_584419" data-name="Trazado 584419" d="M8970.294-716.919c1.788,0,3.58-.062,5.366.012a10.063,10.063,0,0,1,9.523,8.917c.084.877-.061,1.277-1.019,1.17a9.375,9.375,0,0,0-1.735,0c-1.315.1-2.406.089-2.075-1.807.193-1.1-.809-.663-1.332-.71s-1.32-.215-1.153.748c.292,1.672-.551,1.822-1.936,1.792-3.946-.087-7.894-.066-11.841-.007-1.053.016-1.616-.187-1.4-1.352.179-.984-.251-1.24-1.213-1.234s-1.517.193-1.321,1.285c.187,1.049-.275,1.416-1.3,1.289a12.864,12.864,0,0,0-1.577-.012c-2.265,0-2.265,0-1.723-2.288a10.023,10.023,0,0,1,9.524-7.8c1.734-.052,3.473-.008,5.211-.008Z" transform="translate(-5.886 -142.205)" fill="#b2db7d"/>
    <path id="Trazado_584420" data-name="Trazado 584420" d="M9116.717-717.913c-2.949,0-5.9-.038-8.848.021-.961.019-1.26-.235-1.247-1.226q.083-6.317,0-12.636c-.013-.993.211-1.348,1.287-1.348,3.783,0,3.783-.047,3.783,3.728,0,3.884,0,3.884,3.914,3.884,1.686,0,3.372-.043,5.055.017.879.032,1.206-.215,1.172-1.137-.068-1.788.01-3.58-.034-5.37-.02-.777.159-1.084,1.03-1.118,4.034-.159,4.034-.19,4.033,3.791,0,3.369-.04,6.74.024,10.109.021,1.049-.3,1.33-1.326,1.307C9122.616-717.955,9119.665-717.913,9116.717-717.913Z" transform="translate(-109.39 -131.123)" fill="#d19e6b"/>
    <path id="Trazado_584421" data-name="Trazado 584421" d="M8970.916-804.979c.892-.057.742,1.446,1.816.932,1.4-.669,1.563-1.182.633-2.424-3.093-4.128-3.418-7.4-1.036-10.821a7.943,7.943,0,0,1,6.539-3.57c3.63-.1,7.266,0,10.9-.054,1-.015,1.22.335,1.236,1.271.071,4.268-1.891,6.312-6.177,6.324-.843,0-1.686.013-2.527-.014-.773-.025-1.357-.372-1.379-1.206a1.138,1.138,0,0,1,1.293-1.267c1.548.12,1.173-.944,1.184-1.77.012-1.2-.922-.8-1.492-.763a3.781,3.781,0,0,0-3.186,5.416,5.045,5.045,0,0,1-1.307,5.393c-2.136,1.66-2.139,4.223-.01,6.425a2.28,2.28,0,0,1,.209,3.443.923.923,0,0,1-.934.421A7.109,7.109,0,0,1,8970.916-804.979Z" transform="translate(-16.487 -71.107)" fill="#636b75"/>
    <path id="Trazado_584422" data-name="Trazado 584422" d="M9000.942-790.947a8.5,8.5,0,0,0,4.5-.813c.593-.313.845-.086,1.1.4a43.448,43.448,0,0,1,2.78,6.515c.271.8-.1,1.08-.7,1.267-1.122.352-1.436,1.048-1.416,2.228.062,3.558-2,5.643-5.565,5.525-1.661-.055-2.1.417-2.023,2.046.14,3.051.036,2.957-3.094,3.1-1.586.07-2.1-.339-1.961-1.952.119-1.357.138-2.512,1.239-3.652a4.456,4.456,0,0,0-.11-6.509c-1.7-1.73-1.534-2.432.767-3.08.47-.132.552-.406.618-.773.093-.518.178-1.036.271-1.554C8997.851-790.946,8997.851-790.946,9000.942-790.947Z" transform="translate(-32.747 -90.945)" fill="#edcdb1"/>
    <path id="Trazado_584423" data-name="Trazado 584423" d="M9051.586-872.547c-2.58,0-5.162-.03-7.74.017-.859.016-1.2-.185-1.186-1.124.053-3.474.039-6.95.008-10.424-.006-.765.141-1.091,1.023-1.127,3.973-.161,4.01-.194,4.014,3.784,0,1.026.27,1.374,1.314,1.319a47.37,47.37,0,0,1,4.9,0c1.063.055,1.555-.2,1.426-1.362-.1-.884.045-1.793-.033-2.682-.123-1.4.945-1.194,1.549-.985,1.156.4,3.232-1.245,3.43.943.316,3.5.051,7.048.107,10.575.016.992-.416,1.093-1.225,1.08C9056.643-872.571,9054.113-872.547,9051.586-872.547Z" transform="translate(-65.651 -27.044)" fill="#cd9c75"/>
    <path id="Trazado_584424" data-name="Trazado 584424" d="M9181.1-873.48c0,11.266-.029,22.531.036,33.8.009,1.394-.435,1.7-1.687,1.587-.691-.062-.947-.271-.877-.937a7.594,7.594,0,0,0,0-.789q0-33.718.01-67.436c0-.741-.4-1.687,1.086-1.686,1.213,0,1.461.358,1.456,1.51C9181.083-896.117,9181.1-884.8,9181.1-873.48Z" transform="translate(-158.567 -10.91)" fill="#a7afba"/>
    <path id="Trazado_584425" data-name="Trazado 584425" d="M8958.517-849.071a18.115,18.115,0,0,0-3.572,3.242c-.39-.408-.226-.792-.227-1.129q-.015-30.241-.035-60.481c0-1.139.224-1.512,1.447-1.521,1.344-.01,1.1.766,1.1,1.525q0,16.66-.007,33.32a12.54,12.54,0,0,0,.786,5.261,1.172,1.172,0,0,1,.022,1.05,9.051,9.051,0,0,0,.479,8.328Q8958.514-854.274,8958.517-849.071Z" transform="translate(-5.491 -10.9)" fill="#a7afba"/>
    <path id="Trazado_584426" data-name="Trazado 584426" d="M9002.314-836.9q14.927,0,29.854,0c.842,0,1.73-.315,1.73,1.219,0,1.422-.709,1.313-1.646,1.312q-30.015-.015-60.025.012c-1.117,0-1.738-.1-1.635-1.481.07-.964.424-1.083,1.236-1.078,4.9.028,9.793.014,14.689.014Z" transform="translate(-16.363 -60.162)" fill="#a7afba"/>
    <path id="Trazado_584427" data-name="Trazado 584427" d="M9045.008-731.11c-2.329-1.5-2.969-3.676-2.595-6.31.176-1.23-.521-2.866.266-3.627s2.4-.2,3.643-.221c2.522-.034,5.046.017,7.566-.025.811-.014,1.215.081,1.206,1.07-.051,5.2-.043,10.4-.006,15.6.007.836-.234,1.079-1.062,1.054-1.89-.058-3.785-.074-5.674,0-1.583.06-1.023-1.145-1.164-1.871-.211-1.086.7-.619,1.144-.653a12.329,12.329,0,0,1,2.674,0c1.429.206,1.669-.45,1.564-1.672-.059-.669-.212-.93-.905-.892a26.383,26.383,0,0,0-2.833.038c-2.128.351-3.311-.579-3.866-2.542,2.1,0,4.211-.069,6.313.015,1.059.042,1.282-.307,1.306-1.313.026-1.1-.381-1.316-1.354-1.259-1.258.074-2.524.018-3.788.018C9044.872-733.694,9044.872-733.694,9045.008-731.11Zm3.841-5.112c.943,0,1.891-.051,2.829.012,1.222.082.8-.79.858-1.376.061-.645.116-1.225-.9-1.186-1.937.075-3.878.049-5.817.008-.7-.015-.829.252-.89.9-.116,1.23.152,1.874,1.563,1.66A15.816,15.816,0,0,1,9048.849-736.222Z" transform="translate(-65.402 -125.45)" fill="#e1e4e8"/>
    <path id="Trazado_584428" data-name="Trazado 584428" d="M9090.633-732.116c0-2.572.058-5.145-.027-7.713-.036-1.072.413-1.169,1.285-1.163.855.006,1.31.068,1.3,1.153q-.094,7.713,0,15.427c.013,1.069-.414,1.169-1.286,1.163-.854-.006-1.334-.065-1.3-1.154C9090.691-726.971,9090.633-729.545,9090.633-732.116Z" transform="translate(-98.435 -125.759)" fill="#c8cdd5"/>
    <path id="Trazado_584429" data-name="Trazado 584429" d="M8966.8-742.05q0-5.2,0-10.405a11.121,11.121,0,0,0,4.976,3.735,1.8,1.8,0,0,1,1.339,2.261,2.317,2.317,0,0,0,0,.787c.238,1.358-.118,2.075-1.7,2.109A12.061,12.061,0,0,0,8966.8-742.05Z" transform="translate(-13.774 -117.921)" fill="#f3f5f6"/>
    <path id="Trazado_584430" data-name="Trazado 584430" d="M9130.679-730.516c0-2.4,0-2.4,3.048-2.4,2.008,0,2.008,0,2.008,2.968,0,2.089,0,2.089-3.206,2.086C9130.679-727.866,9130.679-727.866,9130.679-730.516Z" transform="translate(-125.841 -131.282)" fill="#ad7544"/>
    <path id="Trazado_584431" data-name="Trazado 584431" d="M9023.588-738.771a8.091,8.091,0,0,1,.046.833c-.105,1.492.658,3.523-.318,4.307-.705.566-2.667-.674-4.152-.738-1.021-.044-.543-.853-.559-1.311s-.42-1.214.607-1.28A8.228,8.228,0,0,0,9023.588-738.771Z" transform="translate(-49.134 -127.279)" fill="#eff1f2"/>
    <path id="Trazado_584432" data-name="Trazado 584432" d="M9013.132-915.631c.229,1.079-.222,1.325-1.177,1.343-1.029.019-1.325-.292-1.348-1.329-.026-1.153.494-1.244,1.416-1.255C9013.037-916.885,9013.379-916.5,9013.132-915.631Z" transform="translate(-43.732 -5.489)" fill="#ad7544"/>
    <path id="Trazado_584433" data-name="Trazado 584433" d="M9027.833-914.368c-1.378.261-1.1-.688-1.172-1.455-.12-1.213.694-.975,1.416-1.061,1.325-.158,1.067.727,1.135,1.5C9029.316-914.193,9028.56-914.29,9027.833-914.368Z" transform="translate(-54.703 -5.469)" fill="#ad7544"/>
    <path id="Trazado_584434" data-name="Trazado 584434" d="M9107.9-914.37c-1.095.244-1.308-.292-1.318-1.288s.327-1.223,1.271-1.244c1.063-.023,1.328.339,1.322,1.353C9109.173-914.571,9108.888-914.163,9107.9-914.37Z" transform="translate(-109.366 -5.468)" fill="#ad7544"/>
    <path id="Trazado_584435" data-name="Trazado 584435" d="M9123.919-916.831c1.043-.228,1.218.292,1.25,1.212.036,1.061-.336,1.321-1.35,1.324-1,0-1.229-.327-1.24-1.273C9122.566-916.61,9122.874-917.056,9123.919-916.831Z" transform="translate(-120.302 -5.479)" fill="#ad7544"/>
    <path id="Trazado_584436" data-name="Trazado 584436" d="M9069.086-883.7c.287,1.2-.3,1.327-1.257,1.362-1.077.04-1.263-.369-1.288-1.341-.027-1.076.367-1.287,1.346-1.281C9068.9-884.954,9069.438-884.743,9069.086-883.7Z" transform="translate(-81.981 -27.311)" fill="#cd9c75"/>
    <path id="Trazado_584437" data-name="Trazado 584437" d="M9101.1-795.747c.271,1.2-.332,1.344-1.294,1.37-1.032.028-1.185-.386-1.22-1.293-.043-1.1.389-1.312,1.373-1.294C9100.915-796.947,9101.386-796.7,9101.1-795.747Z" transform="translate(-103.892 -87.484)" fill="#ad7544"/>
    <path id="Trazado_584438" data-name="Trazado 584438" d="M9117.107-795.661c.206.985-.208,1.265-1.182,1.274-1.021.009-1.369-.271-1.35-1.325.018-.949.254-1.277,1.245-1.268S9117.35-796.751,9117.107-795.661Z" transform="translate(-114.828 -87.474)" fill="#ad7544"/>
    <path id="Trazado_584439" data-name="Trazado 584439" d="M9054.494-730.443a15.815,15.815,0,0,0-2.355.021c-1.412.214-1.68-.43-1.566-1.66.063-.651.188-.919.893-.9,1.939.041,3.881.068,5.816-.008,1.018-.039.961.541.9,1.186-.055.586.363,1.459-.859,1.376C9056.385-730.494,9055.438-730.443,9054.494-730.443Z" transform="translate(-71.046 -131.228)" fill="#030303"/>
    <path id="Trazado_584440" data-name="Trazado 584440" d="M9050.778-714.4c-.138-2.585-.138-2.585,2.434-2.585,1.262,0,2.528.056,3.787-.018.973-.057,1.38.157,1.354,1.259-.023,1.006-.246,1.355-1.3,1.313-2.1-.083-4.209-.019-6.312-.015Z" transform="translate(-71.171 -142.156)" fill="#030303"/>
  </g>
</svg>
