<svg xmlns="http://www.w3.org/2000/svg" width="79.073" height="79.06" viewBox="0 0 79.073 79.06">
  <g id="Grupo_845649" data-name="Grupo 845649" transform="translate(-9400.991 960.472)">
    <path id="Trazado_584441" data-name="Trazado 584441" d="M9480.045-914.182q0,15.145,0,30.29c0,2.307-.164,2.478-2.395,2.478q-20,0-40,0c-2.238,0-2.385-.166-2.4-2.472-.01-1.308.443-3.046-.217-3.813-.78-.907-2.571-.28-3.919-.285-8.23-.032-16.462-.013-24.692-.018-3.681,0-5.422-1.749-5.422-5.447q-.006-28.809,0-57.618c0-3.7,1.74-5.439,5.42-5.448,1.7,0,3.4.02,5.1-.008,1.181-.02,2.519.414,3.27-1.048.088-.168.5-.268.744-.239.96.112,1.386-.153,1.3-1.232-.077-1.019.625-1.427,1.6-1.426q7.572.007,15.145,0c1.181,0,1.74.573,1.657,1.724-.051.716.188,1.005.917.922a1.4,1.4,0,0,1,1.618.845c.262.671.8.452,1.245.456,2.3.019,4.608,0,6.913.012,3.264.019,5.117,1.841,5.123,5.082.016,7.9.033,15.8-.022,23.706-.009,1.193.227,1.575,1.5,1.549,3.794-.077,3.8-.013,3.8-3.834,0-5.048.037-10.1-.021-15.145-.019-1.537.5-2.173,2.095-2.16q9.794.079,19.59,0c1.615-.014,2.078.669,2.072,2.184C9480.026-934.815,9480.045-924.5,9480.045-914.182Zm-71.146-8.161c0,8.287.033,16.575-.034,24.862-.011,1.328.378,1.612,1.64,1.6q11.524-.087,23.05,0c1.34.012,1.74-.279,1.729-1.684-.07-8.836-.015-17.672-.057-26.508-.008-1.534.5-2.253,2.1-2.16,1.258.074,2.533-.088,3.783.04,1.577.162,2.136-.232,2.095-1.988-.136-5.814-.052-11.634-.052-17.452,0-2.983,0-3.015-3-2.96-.767.014-1.77-.476-2.277.347-.583.945-1.362.953-2.257.952-6.092-.008-12.184.012-18.275-.018-1.19-.006-2.6.469-3.292-1.141-.067-.156-.6-.148-.913-.155-.877-.02-1.765.07-2.632-.025-1.257-.137-1.658.249-1.647,1.587C9408.932-938.809,9408.9-930.576,9408.9-922.344Zm-5.269.086q0,14.411,0,28.821c0,2.047.589,2.782,2.362,2.786,9.388.022,18.774.006,28.162.021.712,0,1.08-.12,1.116-.971.051-1.184-.148-1.719-1.564-1.707-8.344.075-16.687.039-25.032.035-2.227,0-2.414-.2-2.415-2.473q-.006-6.587,0-13.175,0-20.01,0-40.02c0-2.05.244-2.295,2.252-2.305,1.536-.008,3.076-.062,4.609.017,1.131.058,1.033-.616,1.054-1.359.022-.8-.028-1.351-1.1-1.313-2.139.076-4.281.019-6.422.024-2.479.006-3.02.529-3.021,2.963Q9403.625-936.586,9403.63-922.258Zm55.339,28.979c0,2.63.03,5.262-.018,7.891-.017.937.175,1.367,1.25,1.357q7.973-.075,15.947,0c1.043.009,1.284-.362,1.275-1.332-.042-4.439-.018-8.878-.018-13.318,0-3.956,0-3.915-4.019-3.839-1.055.02-1.3.4-1.261,1.35.061,1.642.007,3.288.02,4.932a1.478,1.478,0,0,1-.8,1.5,1.214,1.214,0,0,1-1.607-.423c-1.055-1.471-2.027-1.525-3.1-.015a1.226,1.226,0,0,1-1.6.449,1.445,1.445,0,0,1-.814-1.484c.015-.822,0-1.644,0-2.466,0-3.957,0-3.916-4.017-3.841-1.052.02-1.282.392-1.264,1.348C9459-898.541,9458.969-895.91,9458.969-893.279Zm9.2-32.935c2.631,0,5.263-.05,7.892.024,1.089.031,1.386-.318,1.372-1.386-.055-4.384-.022-8.768-.022-13.152,0-4.066,0-4.02-4.046-3.957-1.085.017-1.269.424-1.235,1.357.059,1.642.007,3.287.02,4.931a1.47,1.47,0,0,1-.795,1.5,1.215,1.215,0,0,1-1.607-.422c-1.047-1.456-2.014-1.55-3.086-.026a1.232,1.232,0,0,1-1.6.465,1.427,1.427,0,0,1-.828-1.474c.016-.822,0-1.644,0-2.466,0-3.936,0-3.9-3.975-3.857-.981.011-1.323.239-1.313,1.28q.076,7.973,0,15.947c-.011,1.066.374,1.277,1.333,1.256C9462.9-926.25,9465.536-926.214,9468.166-926.214Zm-11.84,32.97v-5.268c0-4.211,0-4.181-4.174-4-.882.038-1.126.325-1.1,1.158.045,1.754.007,3.512.011,5.267a1.389,1.389,0,0,1-.774,1.344,1.125,1.125,0,0,1-1.492-.291c-1.126-1.54-2.172-1.663-3.332-.038a1.148,1.148,0,0,1-1.483.355,1.347,1.347,0,0,1-.821-1.312c0-.823-.006-1.646-.006-2.469,0-4.212,0-4.212-4.16-3.991a1.014,1.014,0,0,1-.165,0c-.722-.08-.949.26-.947.957q.028,8.231,0,16.463c0,.794.283,1.034,1.053,1.031q8.149-.035,16.3,0c.88.005,1.129-.3,1.115-1.142C9456.3-887.866,9456.324-890.555,9456.326-893.244Zm0-20.943v-5.428c0-4.172,0-4.142-4.177-3.982-.878.034-1.128.306-1.1,1.146.051,1.7,0,3.4.02,5.1a1.479,1.479,0,0,1-.91,1.588,1.3,1.3,0,0,1-1.588-.564c-1.033-1.462-1.965-1.308-2.961.036a1.277,1.277,0,0,1-1.6.508,1.494,1.494,0,0,1-.863-1.618c.022-.767,0-1.535,0-2.3,0-4.177,0-4.152-4.267-3.891-.8.049-1.014.311-1.011,1.068q.035,8.143,0,16.285c0,.857.251,1.131,1.118,1.126,5.373-.034,10.747-.047,16.12.009,1.093.011,1.253-.417,1.235-1.349C9456.293-909.032,9456.326-911.61,9456.326-914.187Zm2.641-.332c0,2.634.048,5.269-.022,7.9-.029,1.1.21,1.528,1.424,1.513q7.818-.1,15.638,0c1.215.016,1.438-.42,1.424-1.513-.056-4.335-.023-8.67-.023-13.005,0-4.213,0-4.181-4.2-3.975-.914.045-1.091.394-1.072,1.189.04,1.7,0,3.4.015,5.1a1.462,1.462,0,0,1-.807,1.492,1.221,1.221,0,0,1-1.606-.438c-1.062-1.5-2.032-1.485-3.094,0a1.221,1.221,0,0,1-1.606.435,1.45,1.45,0,0,1-.8-1.493c.016-.768,0-1.536,0-2.3,0-4.212,0-4.181-4.192-3.986-.9.042-1.1.368-1.085,1.177C9458.99-919.787,9458.968-917.153,9458.967-914.519Zm-33.044-35.414c2.689,0,5.379.007,8.068-.007.513,0,1.206.169,1.228-.68.032-1.316.033-2.635,0-3.95-.021-.742-.646-.6-1.113-.626-.906-.053-1.509-.507-1.463-1.421.057-1.111-.5-1.235-1.405-1.226q-5.1.053-10.208,0c-.992-.011-1.731.031-1.621,1.35a1.083,1.083,0,0,1-1.087,1.223c-1.649-.13-1.567.882-1.517,1.978a17.569,17.569,0,0,1,0,2.139c-.071.927.291,1.253,1.224,1.236C9420.654-949.963,9423.289-949.933,9425.923-949.932Zm22.5,10.561c0-4,.014-8-.006-12-.008-1.7-.637-2.458-2.144-2.491-2.463-.055-4.93.021-7.394-.038-1-.024-1.035.521-.993,1.24.04.671-.233,1.477.971,1.424,1.53-.067,3.066-.02,4.6-.014,2.117.008,2.335.226,2.336,2.38q.006,10.6-.011,21.2c0,.924.027,1.5,1.264,1.5s1.417-.466,1.4-1.539C9448.388-931.592,9448.422-935.482,9448.419-939.371Zm21.043,19.019c.111-3.933.1-3.29-1.509-3.184-2.429.161-.373,2.067-1.082,3.018A2.036,2.036,0,0,1,9469.462-920.352Zm-20.986,21.035c-.254-1.163.458-2.344-.417-3.081a2.018,2.018,0,0,0-1.987.046c-.668.787-.214,1.9-.262,3.19C9446.746-900.11,9447.555-899.838,9448.476-899.317Zm.094-21.108c-.42-1.135.39-2.326-.519-3.056a2.023,2.023,0,0,0-1.985.054c-.654.791-.216,1.9-.256,3.37C9446.746-921.371,9447.561-920.764,9448.569-920.425Zm20.9,20.96c-.694-.948,1.46-3.057-1.3-3.031-2.729.025-.574,2.1-1.332,3.111A2.163,2.163,0,0,1,9469.471-899.465Zm.036-42.151c-.173-1.015.478-2.187-.347-2.941a2.014,2.014,0,0,0-1.992.027c-.706.78-.211,1.91-.272,2.939A2.631,2.631,0,0,1,9469.507-941.616Z" transform="translate(0 0)" fill="#030202"/>
    <path id="Trazado_584442" data-name="Trazado 584442" d="M9424.911-898.437c0-8.232.034-16.465-.034-24.7-.012-1.338.39-1.724,1.646-1.587.867.095,1.755.006,2.633.025.315.007.845,0,.912.155.693,1.61,2.1,1.135,3.292,1.141,6.092.03,12.184.01,18.275.018.895,0,1.675-.007,2.257-.952.508-.823,1.511-.333,2.277-.347,3-.055,3-.023,3,2.96,0,5.818-.085,11.637.051,17.452.041,1.757-.518,2.15-2.1,1.988-1.249-.128-2.525.034-3.783-.04-1.594-.094-2.105.625-2.1,2.16.042,8.836-.014,17.672.057,26.508.011,1.4-.39,1.7-1.729,1.684q-11.525-.1-23.05,0c-1.261.009-1.65-.275-1.64-1.6C9424.943-881.862,9424.911-890.15,9424.911-898.437Zm6.62-3.869c-4.316-.021-4.007-.307-3.988,3.96,0,.055,0,.109,0,.164-.033,4.031-.247,3.8,3.838,3.789,4.434-.007,4.068.323,4.074-4.049C9435.462-902.581,9435.738-902.332,9431.531-902.306Zm-.152,17.131c4.436.016,4.085.33,4.072-4.041v-.164c.038-3.91.221-3.721-3.754-3.709-4.548.015-4.146-.369-4.158,4.127C9427.527-884.931,9427.294-885.143,9431.379-885.175Zm4.072,5.417c.009-4.413.387-4.1-4.011-4.107-4.2,0-3.905-.258-3.9,3.892,0,4.36-.353,4.017,4.1,4.027C9435.716-875.937,9435.482-875.727,9435.451-879.758Zm11.926-26.5c-2.461,0-4.922.013-7.383-.006-.957-.008-1.854.124-1.877,1.3s.842,1.357,1.818,1.354q7.383-.02,14.768,0c.984,0,1.825-.215,1.8-1.378-.026-1.052-.815-1.279-1.737-1.272C9452.3-906.246,9449.839-906.259,9447.377-906.259Zm-.073-9.223c-2.406,0-4.812.012-7.22-.006-1-.007-1.988.079-1.965,1.368.021,1.168.938,1.285,1.891,1.282q7.3-.021,14.6,0c.956,0,1.867-.122,1.884-1.289.018-1.288-.971-1.369-1.973-1.361C9452.117-915.47,9449.71-915.482,9447.3-915.482Zm-10.543-4.03a1.261,1.261,0,0,0-.818-1.129,1.284,1.284,0,0,0-1.5.341c-1.168,1.151-2.352,2.288-3.472,3.484-.556.594-.983.788-1.536.039a6.868,6.868,0,0,0-.808-.813c-.642-.616-1.349-.788-2.014-.1s-.448,1.388.172,2.01c.694.7,1.411,1.373,2.078,2.1a1.569,1.569,0,0,0,2.64,0c1.48-1.534,3.009-3.021,4.514-4.531A1.748,1.748,0,0,0,9436.761-919.512Zm0,9.35a1.24,1.24,0,0,0-.705-1.2,1.3,1.3,0,0,0-1.638.313c-1.088,1.075-2.23,2.106-3.23,3.259-.767.882-1.337.924-2.006-.022a4.033,4.033,0,0,0-.579-.579,1.284,1.284,0,0,0-2.015-.05,1.249,1.249,0,0,0,.114,1.893c.759.786,1.552,1.541,2.313,2.324a1.462,1.462,0,0,0,2.395-.055c1.572-1.6,3.164-3.174,4.748-4.76A1.573,1.573,0,0,0,9436.761-910.162Zm8.066-1.368c-1.64,0-3.278.016-4.916-.006-.983-.013-1.823.212-1.8,1.374.025,1.05.809,1.281,1.732,1.276q4.834-.024,9.668,0c.929,0,1.7-.245,1.714-1.294.014-1.164-.837-1.37-1.813-1.356C9447.887-911.513,9446.356-911.53,9444.827-911.53Zm0-9.223c-1.639,0-3.277.016-4.916-.006-.981-.013-1.823.207-1.8,1.37.022,1.05.8,1.284,1.729,1.28q4.834-.024,9.668,0c.928,0,1.7-.241,1.718-1.29.017-1.163-.831-1.374-1.811-1.36C9447.891-920.736,9446.36-920.753,9444.83-920.753Zm-.682,23.717c-1.475,0-2.949.008-4.423,0-.956-.007-1.652.348-1.612,1.39.035.942.71,1.256,1.589,1.253q4.34-.014,8.682,0c.891,0,1.525-.368,1.532-1.309s-.613-1.33-1.51-1.329Q9446.278-897.034,9444.148-897.036Zm-.209,21.084c1.42,0,2.84-.015,4.26.005.928.013,1.691-.244,1.715-1.293s-.7-1.359-1.65-1.355q-4.258.018-8.518,0c-.949,0-1.667.326-1.632,1.37s.808,1.292,1.731,1.277C9441.209-875.968,9442.575-875.952,9443.939-875.952Zm-.076-9.223c1.474,0,2.947-.009,4.422,0,.951.007,1.657-.333,1.629-1.376-.024-.941-.689-1.271-1.572-1.268q-4.342.013-8.682,0c-.889,0-1.539.349-1.548,1.292-.01,1.047.711,1.362,1.655,1.352C9441.133-885.186,9442.5-885.175,9443.863-885.175Zm-1.258-5.27c1.036,0,2.072-.008,3.108,0,.884.009,1.534-.334,1.568-1.273s-.569-1.361-1.469-1.364q-3.108-.01-6.217,0c-.9,0-1.508.409-1.486,1.348s.663,1.3,1.55,1.289C9440.643-890.451,9441.624-890.446,9442.605-890.445Zm.041-9.225c1.09,0,2.182.018,3.271-.006a1.238,1.238,0,0,0,1.367-1.3,1.224,1.224,0,0,0-1.349-1.317c-2.127-.024-4.254-.016-6.381-.006-.9,0-1.484.451-1.446,1.386a1.257,1.257,0,0,0,1.429,1.244C9440.574-899.663,9441.61-899.67,9442.646-899.671Zm.037,18.448c1.037,0,2.073,0,3.109,0,.9,0,1.5-.407,1.491-1.346a1.234,1.234,0,0,0-1.386-1.282c-2.127-.015-4.254-.012-6.381,0a1.242,1.242,0,0,0-1.408,1.261c-.025.937.566,1.361,1.466,1.369C9440.611-881.216,9441.648-881.223,9442.684-881.223Z" transform="translate(-16.013 -23.906)" fill="#e7be4e"/>
    <path id="Trazado_584443" data-name="Trazado 584443" d="M9409-908.9q0-14.328,0-28.656c0-2.433.542-2.957,3.02-2.963,2.142,0,4.284.052,6.423-.024,1.074-.038,1.125.511,1.1,1.313-.021.743.078,1.417-1.053,1.359-1.533-.079-3.074-.025-4.611-.017-2.007.011-2.25.255-2.251,2.305q0,20.01,0,40.02,0,6.588,0,13.175c0,2.276.189,2.472,2.416,2.473,8.344,0,16.689.04,25.032-.035,1.416-.013,1.615.522,1.564,1.707-.036.851-.4.972-1.116.971-9.388-.015-18.774,0-28.162-.021-1.773,0-2.361-.739-2.362-2.786Q9408.99-894.485,9409-908.9Z" transform="translate(-5.366 -13.362)" fill="#3e8bb5"/>
    <path id="Trazado_584444" data-name="Trazado 584444" d="M9576.856-775.44c0-2.631.034-5.262-.018-7.891-.019-.957.212-1.329,1.264-1.348,4.017-.075,4.017-.116,4.017,3.841,0,.822.013,1.644,0,2.466a1.444,1.444,0,0,0,.815,1.484,1.226,1.226,0,0,0,1.6-.449c1.068-1.511,2.041-1.456,3.1.015a1.214,1.214,0,0,0,1.607.423,1.475,1.475,0,0,0,.8-1.5c-.012-1.644.041-3.29-.019-4.932-.035-.955.206-1.33,1.26-1.35,4.02-.076,4.019-.117,4.019,3.839,0,4.439-.024,8.879.019,13.318.008.969-.232,1.341-1.276,1.332q-7.973-.072-15.947,0c-1.075.01-1.266-.42-1.249-1.357C9576.888-770.178,9576.856-772.81,9576.856-775.44Zm13.781,5.279c-.6,0-1.2-.016-1.8,0-.822.026-1.386.426-1.409,1.278a1.235,1.235,0,0,0,1.34,1.34c1.257.04,2.517.026,3.774.006a1.253,1.253,0,0,0,1.407-1.277c.013-.944-.61-1.339-1.5-1.351C9591.842-770.17,9591.24-770.164,9590.638-770.162Zm.061-1.319c.6,0,1.2.01,1.806,0,.819-.017,1.407-.4,1.44-1.247.037-.941-.569-1.371-1.466-1.382-1.258-.015-2.518-.029-3.774.014a1.215,1.215,0,0,0-1.281,1.23,1.246,1.246,0,0,0,1.307,1.374C9589.383-771.446,9590.042-771.484,9590.7-771.481Z" transform="translate(-117.888 -117.839)" fill="#956538"/>
    <path id="Trazado_584445" data-name="Trazado 584445" d="M9586.04-894.134c-2.63,0-5.262-.036-7.891.019-.959.02-1.344-.19-1.333-1.256q.079-7.973,0-15.947c-.01-1.041.333-1.268,1.313-1.28,3.976-.046,3.976-.08,3.976,3.857,0,.822.014,1.644,0,2.466a1.427,1.427,0,0,0,.828,1.474,1.233,1.233,0,0,0,1.6-.465c1.071-1.525,2.039-1.43,3.086.026a1.214,1.214,0,0,0,1.606.422,1.469,1.469,0,0,0,.795-1.5c-.013-1.644.04-3.29-.019-4.931-.034-.934.15-1.34,1.235-1.357,4.046-.063,4.045-.109,4.045,3.957,0,4.384-.032,8.769.023,13.153.013,1.068-.284,1.417-1.373,1.386C9591.3-894.184,9588.671-894.134,9586.04-894.134Zm4.638-1.337a21.324,21.324,0,0,0,2.135-.016,1.188,1.188,0,0,0,1.13-1.205,1.175,1.175,0,0,0-1.142-1.351c-1.422-.073-2.852-.064-4.273,0a1.158,1.158,0,0,0-1.128,1.2,1.2,1.2,0,0,0,1.142,1.356A18.693,18.693,0,0,0,9590.678-895.47Zm0-3.931c.6,0,1.206.007,1.81,0,.824-.013,1.41-.394,1.445-1.244.038-.943-.56-1.378-1.463-1.387-1.261-.012-2.522-.026-3.783.013a1.211,1.211,0,0,0-1.284,1.228,1.239,1.239,0,0,0,1.3,1.379C9589.361-899.369,9590.021-899.405,9590.68-899.4Z" transform="translate(-117.874 -32.08)" fill="#ba7d45"/>
    <path id="Trazado_584446" data-name="Trazado 584446" d="M9531.348-775.477c0,2.689-.027,5.378.015,8.066.013.844-.236,1.147-1.115,1.142q-8.149-.05-16.3,0c-.771,0-1.058-.237-1.054-1.031q.038-8.231,0-16.463c0-.7.226-1.037.946-.957a1.014,1.014,0,0,0,.165,0c4.161-.221,4.16-.221,4.161,3.991,0,.823,0,1.646,0,2.469a1.348,1.348,0,0,0,.822,1.312,1.147,1.147,0,0,0,1.482-.355c1.16-1.626,2.207-1.5,3.333.038a1.123,1.123,0,0,0,1.491.291,1.389,1.389,0,0,0,.774-1.344c0-1.756.035-3.513-.011-5.267-.022-.833.222-1.121,1.1-1.158,4.175-.178,4.174-.208,4.174,4Zm-4.56,1.3v-.008c-.657,0-1.316-.028-1.973.007a1.249,1.249,0,0,0-1.344,1.341,1.2,1.2,0,0,0,1.245,1.263c1.368.044,2.741.053,4.107-.012a1.182,1.182,0,0,0,1.184-1.316,1.221,1.221,0,0,0-1.247-1.265C9528.106-774.215,9527.446-774.177,9526.788-774.177Zm-.1,6.569v.008c.658,0,1.316.027,1.973-.007a1.251,1.251,0,0,0,1.346-1.341,1.194,1.194,0,0,0-1.244-1.263c-1.368-.044-2.741-.053-4.107.011a1.179,1.179,0,0,0-1.185,1.314,1.222,1.222,0,0,0,1.246,1.267C9525.369-767.57,9526.029-767.609,9526.688-767.609Z" transform="translate(-75.022 -117.767)" fill="#b07642"/>
    <path id="Trazado_584447" data-name="Trazado 584447" d="M9531.339-839.376c0,2.577-.033,5.155.017,7.731.019.933-.143,1.361-1.234,1.349-5.373-.057-10.747-.043-16.12-.009-.867.005-1.124-.269-1.119-1.126q.048-8.142,0-16.285c0-.757.211-1.019,1.011-1.068,4.267-.261,4.266-.286,4.266,3.891,0,.768.019,1.536,0,2.3a1.5,1.5,0,0,0,.864,1.618,1.277,1.277,0,0,0,1.6-.508c1-1.345,1.928-1.5,2.96-.036a1.3,1.3,0,0,0,1.588.564,1.48,1.48,0,0,0,.911-1.588c-.02-1.7.03-3.4-.021-5.1-.025-.84.226-1.112,1.1-1.146,4.178-.161,4.177-.19,4.177,3.982Zm-4.567,3.787c.6,0,1.208.012,1.811,0a1.264,1.264,0,0,0,1.415-1.276,1.227,1.227,0,0,0-1.335-1.346c-1.262-.036-2.525-.021-3.787-.007a1.249,1.249,0,0,0-1.412,1.274c-.017.948.6,1.349,1.5,1.358C9525.564-835.583,9526.168-835.587,9526.771-835.589Zm-.04,3.933c.714,0,1.432.054,2.138-.016a1.189,1.189,0,0,0,1.134-1.2,1.175,1.175,0,0,0-1.138-1.356c-1.423-.074-2.854-.063-4.277,0a1.161,1.161,0,0,0-1.133,1.2,1.2,1.2,0,0,0,1.139,1.36A18.935,18.935,0,0,0,9526.731-831.656Z" transform="translate(-75.012 -74.812)" fill="#c6854a"/>
    <path id="Trazado_584448" data-name="Trazado 584448" d="M9576.841-839.66c0-2.634.022-5.268-.013-7.9-.012-.809.184-1.135,1.084-1.177,4.194-.194,4.192-.226,4.192,3.986,0,.768.013,1.537,0,2.3a1.453,1.453,0,0,0,.8,1.493,1.222,1.222,0,0,0,1.607-.435c1.061-1.487,2.03-1.5,3.094,0a1.22,1.22,0,0,0,1.606.438,1.463,1.463,0,0,0,.806-1.492c-.011-1.7.026-3.4-.015-5.1-.018-.8.158-1.145,1.072-1.189,4.205-.206,4.2-.239,4.2,3.975,0,4.335-.033,8.671.022,13.005.014,1.093-.208,1.529-1.423,1.513q-7.818-.1-15.638,0c-1.214.016-1.453-.417-1.424-1.513C9576.889-834.391,9576.841-837.026,9576.841-839.66Zm13.96,1.483c-.658,0-1.316-.012-1.973,0a1.266,1.266,0,0,0-1.422,1.267,1.226,1.226,0,0,0,1.327,1.352c1.314.039,2.632.038,3.945-.007a1.2,1.2,0,0,0,1.259-1.251,1.246,1.246,0,0,0-1.328-1.355C9592.008-838.2,9591.4-838.175,9590.8-838.177Zm-.027,6.573c.658,0,1.32.049,1.972-.013a1.209,1.209,0,0,0,1.2-1.311,1.2,1.2,0,0,0-1.235-1.272c-1.368-.047-2.741-.053-4.108.008a1.183,1.183,0,0,0-1.194,1.305,1.216,1.216,0,0,0,1.235,1.276C9589.346-831.559,9590.062-831.6,9590.773-831.6Z" transform="translate(-117.874 -74.859)" fill="#b07642"/>
    <path id="Trazado_584449" data-name="Trazado 584449" d="M9458.039-944.588c-2.634,0-5.269-.03-7.9.016-.933.016-1.295-.309-1.224-1.236a17.569,17.569,0,0,0,0-2.139c-.051-1.1-.132-2.108,1.517-1.978a1.085,1.085,0,0,0,1.088-1.223c-.111-1.319.627-1.362,1.62-1.35q5.1.056,10.208,0c.905-.009,1.462.115,1.405,1.226-.046.915.556,1.368,1.464,1.421.465.027,1.092-.115,1.112.626q.056,1.974,0,3.95c-.021.849-.714.677-1.227.68C9463.418-944.581,9460.729-944.588,9458.039-944.588Z" transform="translate(-32.116 -5.345)" fill="#6f2525"/>
    <path id="Trazado_584450" data-name="Trazado 584450" d="M9523.438-926c0,3.889-.033,7.779.022,11.667.016,1.073-.169,1.537-1.4,1.539s-1.267-.578-1.264-1.5c.022-7.066.014-14.132.011-21.2,0-2.154-.219-2.372-2.335-2.38-1.534-.006-3.07-.052-4.6.014-1.2.052-.931-.754-.971-1.424-.042-.719-.011-1.264.993-1.24,2.464.059,4.93-.018,7.395.038,1.506.034,2.135.8,2.143,2.491C9523.449-934,9523.436-930,9523.438-926Z" transform="translate(-75.016 -13.373)" fill="#3e8bb5"/>
    <path id="Trazado_584451" data-name="Trazado 584451" d="M9603.17-845.434a2.035,2.035,0,0,0-2.59-.166c.709-.951-1.348-2.858,1.082-3.018C9603.272-848.724,9603.281-849.366,9603.17-845.434Z" transform="translate(-133.708 -74.919)" fill="#e3ba4d"/>
    <path id="Trazado_584452" data-name="Trazado 584452" d="M9539.42-781.677c-.922-.521-1.73-.794-2.666.155.047-1.288-.406-2.4.262-3.19a2.016,2.016,0,0,1,1.986-.046C9539.877-784.022,9539.166-782.84,9539.42-781.677Z" transform="translate(-90.944 -117.639)" fill="#e3ba4d"/>
    <path id="Trazado_584453" data-name="Trazado 584453" d="M9539.514-845.659c-1.01-.339-1.824-.946-2.76.368.039-1.47-.4-2.579.256-3.37a2.023,2.023,0,0,1,1.985-.054C9539.9-847.985,9539.093-846.794,9539.514-845.659Z" transform="translate(-90.944 -74.766)" fill="#e3ba4d"/>
    <path id="Trazado_584454" data-name="Trazado 584454" d="M9603.21-781.541a2.164,2.164,0,0,0-2.63.079c.758-1.011-1.395-3.085,1.332-3.111C9604.67-784.6,9602.516-782.489,9603.21-781.541Z" transform="translate(-133.739 -117.923)" fill="#e3ba4d"/>
    <path id="Trazado_584455" data-name="Trazado 584455" d="M9603.331-909.754a2.63,2.63,0,0,0-2.611.024c.062-1.029-.434-2.159.271-2.939a2.014,2.014,0,0,1,1.992-.027C9603.809-911.941,9603.158-910.769,9603.331-909.754Z" transform="translate(-133.823 -31.862)" fill="#e3ba4d"/>
    <path id="Trazado_584456" data-name="Trazado 584456" d="M9436.932-856.551c4.207-.026,3.93-.275,3.924,3.865-.006,4.372.359,4.042-4.074,4.049-4.086.006-3.871.241-3.838-3.789v-.164C9432.925-856.858,9432.615-856.572,9436.932-856.551Zm.957,2.7h-1.982c-.217-.041-.306.047-.265.264v1.983q-.063.326.264.265h1.982q.327.062.266-.264v-1.983C9438.2-853.806,9438.106-853.894,9437.889-853.854Z" transform="translate(-21.412 -69.661)" fill="#030301"/>
    <path id="Trazado_584457" data-name="Trazado 584457" d="M9436.783-820.658c-4.085.032-3.852.244-3.84-3.787.013-4.5-.39-4.112,4.158-4.127,3.975-.012,3.792-.2,3.754,3.709v.164C9440.868-820.328,9441.219-820.642,9436.783-820.658Zm1.109-2.7c.218.042.306-.047.266-.264V-825.6q.062-.326-.265-.265h-1.982q-.327-.062-.265.264v1.982q-.063.326.264.265Z" transform="translate(-21.417 -88.423)" fill="#030301"/>
    <path id="Trazado_584458" data-name="Trazado 584458" d="M9440.857-796.48c.031,4.032.265,3.821-3.816,3.812-4.449-.01-4.092.333-4.1-4.027,0-4.15-.3-3.9,3.9-3.892C9441.243-800.583,9440.865-800.892,9440.857-796.48Zm-2.964,1.108q.327.062.266-.264v-1.983c.042-.218-.047-.306-.265-.265h-1.982c-.217-.042-.306.047-.265.264v1.982q-.063.326.264.265Z" transform="translate(-21.418 -107.185)" fill="#030301"/>
    <path id="Trazado_584459" data-name="Trazado 584459" d="M9474.309-868.534c2.462,0,4.923.013,7.385-.006.922-.007,1.711.22,1.737,1.272.029,1.163-.812,1.38-1.8,1.378q-7.384-.02-14.768,0c-.977,0-1.84-.188-1.818-1.354s.92-1.3,1.877-1.3C9469.387-868.522,9471.848-868.534,9474.309-868.534Z" transform="translate(-42.944 -61.631)" fill="#040302"/>
    <path id="Trazado_584460" data-name="Trazado 584460" d="M9474.24-896.517c2.406,0,4.813.012,7.219-.006,1-.007,1.991.073,1.973,1.361-.016,1.167-.928,1.292-1.883,1.289q-7.3-.021-14.6,0c-.952,0-1.868-.114-1.891-1.282-.023-1.289.962-1.375,1.966-1.368C9469.427-896.505,9471.833-896.517,9474.24-896.517Z" transform="translate(-42.948 -42.871)" fill="#040302"/>
    <path id="Trazado_584461" data-name="Trazado 584461" d="M9439.466-911.26a1.742,1.742,0,0,1-.74,1.394c-1.5,1.51-3.033,3-4.513,4.531a1.57,1.57,0,0,1-2.641,0c-.666-.723-1.383-1.4-2.077-2.1-.62-.623-.844-1.319-.173-2.01s1.373-.515,2.014.1a6.867,6.867,0,0,1,.809.813c.552.749.979.555,1.535-.039,1.12-1.2,2.3-2.333,3.473-3.484a1.283,1.283,0,0,1,1.5-.341A1.256,1.256,0,0,1,9439.466-911.26Z" transform="translate(-18.719 -32.158)" fill="#030301"/>
    <path id="Trazado_584462" data-name="Trazado 584462" d="M9439.461-883.154a1.569,1.569,0,0,1-.6,1.121c-1.584,1.586-3.176,3.162-4.748,4.76a1.462,1.462,0,0,1-2.395.055c-.762-.784-1.555-1.538-2.313-2.324a1.249,1.249,0,0,1-.114-1.893,1.284,1.284,0,0,1,2.015.05,4.033,4.033,0,0,1,.579.579c.669.947,1.239.9,2.006.022,1-1.153,2.143-2.184,3.23-3.259a1.3,1.3,0,0,1,1.638-.313A1.238,1.238,0,0,1,9439.461-883.154Z" transform="translate(-18.714 -50.915)" fill="#030301"/>
    <path id="Trazado_584463" data-name="Trazado 584463" d="M9471.755-884.526c1.529,0,3.06.016,4.589-.006.977-.014,1.827.193,1.813,1.356-.012,1.049-.785,1.3-1.714,1.294q-4.834-.022-9.668,0c-.924,0-1.707-.226-1.732-1.276-.027-1.162.813-1.387,1.8-1.374C9468.477-884.511,9470.115-884.526,9471.755-884.526Z" transform="translate(-42.94 -50.91)" fill="#050402"/>
    <path id="Trazado_584464" data-name="Trazado 584464" d="M9471.758-912.508c1.53,0,3.061.016,4.589-.006.979-.015,1.827.2,1.811,1.36-.014,1.049-.79,1.295-1.718,1.29q-4.834-.022-9.668,0c-.926,0-1.706-.23-1.729-1.28-.024-1.163.817-1.383,1.8-1.37C9468.48-912.493,9470.119-912.508,9471.758-912.508Z" transform="translate(-42.94 -32.15)" fill="#050402"/>
    <path id="Trazado_584465" data-name="Trazado 584465" d="M9471.068-840.543q2.13,0,4.259,0c.9,0,1.519.39,1.511,1.329s-.643,1.309-1.533,1.308q-4.342,0-8.682,0c-.879,0-1.554-.311-1.589-1.253-.04-1.042.656-1.4,1.612-1.39C9468.12-840.536,9469.595-840.544,9471.068-840.543Z" transform="translate(-42.933 -80.399)" fill="#050402"/>
    <path id="Trazado_584466" data-name="Trazado 584466" d="M9470.863-781.943c-1.365,0-2.73-.016-4.095.006-.924.014-1.7-.227-1.731-1.277s.684-1.374,1.633-1.37q4.26.015,8.518,0c.945,0,1.672.31,1.649,1.355s-.786,1.307-1.715,1.293C9473.7-781.958,9472.283-781.943,9470.863-781.943Z" transform="translate(-42.936 -117.915)" fill="#050402"/>
    <path id="Trazado_584467" data-name="Trazado 584467" d="M9470.785-809.923c-1.365,0-2.73-.011-4.095,0-.944.01-1.665-.3-1.655-1.352.008-.942.659-1.293,1.548-1.292q4.34.008,8.682,0c.884,0,1.548.327,1.573,1.268.027,1.043-.679,1.383-1.63,1.376C9473.733-809.932,9472.26-809.923,9470.785-809.923Z" transform="translate(-42.935 -99.158)" fill="#050402"/>
    <path id="Trazado_584468" data-name="Trazado 584468" d="M9469.523-825.91c-.982,0-1.964-.005-2.945,0-.887.006-1.528-.349-1.55-1.289s.589-1.346,1.485-1.348q3.108-.005,6.217,0c.9,0,1.5.429,1.469,1.364s-.684,1.281-1.568,1.273C9471.6-825.918,9470.559-825.91,9469.523-825.91Z" transform="translate(-42.93 -88.442)" fill="#050502"/>
    <path id="Trazado_584469" data-name="Trazado 584469" d="M9469.559-853.9c-1.035,0-2.072.007-3.107,0a1.256,1.256,0,0,1-1.429-1.244c-.038-.935.543-1.381,1.446-1.386,2.127-.011,4.254-.018,6.381.006a1.224,1.224,0,0,1,1.349,1.317,1.238,1.238,0,0,1-1.367,1.3C9471.741-853.885,9470.65-853.9,9469.559-853.9Z" transform="translate(-42.925 -69.673)" fill="#050502"/>
    <path id="Trazado_584470" data-name="Trazado 584470" d="M9469.6-797.932c-1.037,0-2.072.007-3.109,0-.9-.008-1.49-.432-1.466-1.369a1.242,1.242,0,0,1,1.408-1.261c2.127-.01,4.254-.013,6.381,0a1.233,1.233,0,0,1,1.386,1.282c.008.94-.6,1.342-1.491,1.346C9471.672-797.929,9470.635-797.932,9469.6-797.932Z" transform="translate(-42.927 -107.197)" fill="#050502"/>
    <path id="Trazado_584471" data-name="Trazado 584471" d="M9612.17-740.605c.6,0,1.2-.008,1.8,0,.893.012,1.516.407,1.5,1.351a1.252,1.252,0,0,1-1.406,1.277c-1.259.02-2.518.033-3.775-.006a1.234,1.234,0,0,1-1.339-1.34c.022-.851.587-1.251,1.409-1.278C9610.966-740.62,9611.568-740.6,9612.17-740.605Z" transform="translate(-139.42 -147.396)" fill="#040302"/>
    <path id="Trazado_584472" data-name="Trazado 584472" d="M9612.226-749.977c-.655,0-1.315.036-1.969-.012a1.245,1.245,0,0,1-1.306-1.374,1.214,1.214,0,0,1,1.281-1.23c1.257-.042,2.516-.028,3.773-.013.9.01,1.5.441,1.467,1.382-.033.846-.621,1.23-1.441,1.247C9613.43-749.965,9612.828-749.975,9612.226-749.977Z" transform="translate(-139.416 -139.344)" fill="#040302"/>
    <path id="Trazado_584473" data-name="Trazado 584473" d="M9612.2-865.924a18.818,18.818,0,0,1-2.136-.016,1.2,1.2,0,0,1-1.143-1.356,1.159,1.159,0,0,1,1.129-1.2c1.422-.063,2.852-.072,4.273,0a1.175,1.175,0,0,1,1.141,1.351,1.186,1.186,0,0,1-1.129,1.205C9613.631-865.869,9612.913-865.924,9612.2-865.924Z" transform="translate(-139.396 -61.626)" fill="#050302"/>
    <path id="Trazado_584474" data-name="Trazado 584474" d="M9612.213-877.9c-.658,0-1.318.034-1.974-.011a1.241,1.241,0,0,1-1.3-1.379,1.211,1.211,0,0,1,1.284-1.228c1.261-.039,2.522-.025,3.784-.013.9.009,1.5.444,1.462,1.387-.034.85-.621,1.231-1.445,1.244C9613.419-877.887,9612.815-877.895,9612.213-877.9Z" transform="translate(-139.406 -53.587)" fill="#050302"/>
    <path id="Trazado_584475" data-name="Trazado 584475" d="M9548.3-752.6c.657,0,1.317-.038,1.972.01a1.22,1.22,0,0,1,1.247,1.265,1.181,1.181,0,0,1-1.183,1.316c-1.367.065-2.74.056-4.108.012a1.2,1.2,0,0,1-1.245-1.263,1.249,1.249,0,0,1,1.345-1.341c.655-.035,1.315-.007,1.973-.007Z" transform="translate(-96.531 -139.348)" fill="#050302"/>
    <path id="Trazado_584476" data-name="Trazado 584476" d="M9548.191-738c-.658,0-1.318.039-1.972-.01a1.222,1.222,0,0,1-1.246-1.267,1.179,1.179,0,0,1,1.185-1.314c1.366-.064,2.739-.055,4.107-.011a1.194,1.194,0,0,1,1.244,1.263,1.251,1.251,0,0,1-1.346,1.341c-.656.034-1.314.007-1.973.007Z" transform="translate(-96.526 -147.381)" fill="#050302"/>
    <path id="Trazado_584477" data-name="Trazado 584477" d="M9548.293-813.938c-.6,0-1.208.005-1.812,0-.9-.009-1.514-.41-1.5-1.358a1.248,1.248,0,0,1,1.412-1.274c1.262-.015,2.525-.029,3.786.007a1.228,1.228,0,0,1,1.336,1.346,1.264,1.264,0,0,1-1.415,1.276C9549.5-813.927,9548.9-813.938,9548.293-813.938Z" transform="translate(-96.534 -96.462)" fill="#050502"/>
    <path id="Trazado_584478" data-name="Trazado 584478" d="M9548.232-801.963a18.95,18.95,0,0,1-2.138-.017,1.2,1.2,0,0,1-1.139-1.36,1.161,1.161,0,0,1,1.133-1.2c1.424-.061,2.854-.072,4.277,0a1.175,1.175,0,0,1,1.138,1.356,1.19,1.19,0,0,1-1.134,1.2C9549.664-801.909,9548.945-801.963,9548.232-801.963Z" transform="translate(-96.513 -104.504)" fill="#050502"/>
    <path id="Trazado_584479" data-name="Trazado 584479" d="M9612.34-816.568c.6,0,1.207-.029,1.808.008a1.246,1.246,0,0,1,1.329,1.355,1.2,1.2,0,0,1-1.26,1.251c-1.313.045-2.631.046-3.945.007a1.226,1.226,0,0,1-1.326-1.352,1.266,1.266,0,0,1,1.421-1.267C9611.023-816.58,9611.682-816.569,9612.34-816.568Z" transform="translate(-139.413 -96.467)" fill="#050302"/>
    <path id="Trazado_584480" data-name="Trazado 584480" d="M9612.306-801.959c-.712,0-1.428.043-2.136-.009a1.217,1.217,0,0,1-1.236-1.276,1.184,1.184,0,0,1,1.194-1.305c1.368-.061,2.74-.055,4.108-.008a1.2,1.2,0,0,1,1.235,1.272,1.208,1.208,0,0,1-1.2,1.31C9613.625-801.912,9612.963-801.961,9612.306-801.959Z" transform="translate(-139.405 -104.502)" fill="#050302"/>
    <path id="Trazado_584481" data-name="Trazado 584481" d="M9443.667-848.078v1.983l-.266.264h-1.982l-.264-.265v-1.983l.265-.264h1.982Z" transform="translate(-26.926 -75.172)" fill="#e7be4e"/>
    <path id="Trazado_584482" data-name="Trazado 584482" d="M9441.135-841.526l.264.265Q9441.073-841.2,9441.135-841.526Z" transform="translate(-26.906 -79.742)" fill="#dcb44a"/>
    <path id="Trazado_584483" data-name="Trazado 584483" d="M9448.238-848.1l-.265-.265Q9448.3-848.423,9448.238-848.1Z" transform="translate(-31.497 -75.152)" fill="#dcb44a"/>
    <path id="Trazado_584484" data-name="Trazado 584484" d="M9441.4-848.363l-.265.264C9441.095-848.316,9441.184-848.4,9441.4-848.363Z" transform="translate(-26.906 -75.152)" fill="#dcb44a"/>
    <path id="Trazado_584485" data-name="Trazado 584485" d="M9447.971-841.259l.266-.264C9448.276-841.305,9448.188-841.217,9447.971-841.259Z" transform="translate(-31.495 -79.744)" fill="#dcb44a"/>
    <path id="Trazado_584486" data-name="Trazado 584486" d="M9441.42-820.36h1.982l.265.265v1.983l-.266.264h-1.982l-.264-.265V-820.1Z" transform="translate(-26.926 -93.932)" fill="#e7be4e"/>
    <path id="Trazado_584487" data-name="Trazado 584487" d="M9448.238-820.114l-.265-.265Q9448.3-820.44,9448.238-820.114Z" transform="translate(-31.497 -93.912)" fill="#dcb44a"/>
    <path id="Trazado_584488" data-name="Trazado 584488" d="M9441.4-820.38l-.265.264C9441.095-820.333,9441.184-820.422,9441.4-820.38Z" transform="translate(-26.906 -93.911)" fill="#dcb44a"/>
    <path id="Trazado_584489" data-name="Trazado 584489" d="M9441.135-813.543l.264.265Q9441.073-813.217,9441.135-813.543Z" transform="translate(-26.906 -98.502)" fill="#dcb44a"/>
    <path id="Trazado_584490" data-name="Trazado 584490" d="M9447.971-813.276l.266-.264C9448.276-813.322,9448.188-813.234,9447.971-813.276Z" transform="translate(-31.495 -98.504)" fill="#dcb44a"/>
    <path id="Trazado_584491" data-name="Trazado 584491" d="M9441.155-790.13v-1.982l.265-.264h1.982l.265.265v1.983l-.266.264h-1.982Z" transform="translate(-26.926 -112.691)" fill="#e7be4e"/>
    <path id="Trazado_584492" data-name="Trazado 584492" d="M9448.238-792.131l-.265-.265Q9448.3-792.457,9448.238-792.131Z" transform="translate(-31.497 -112.672)" fill="#dcb44a"/>
    <path id="Trazado_584493" data-name="Trazado 584493" d="M9441.135-785.56l.264.265Q9441.073-785.234,9441.135-785.56Z" transform="translate(-26.906 -117.262)" fill="#dcb44a"/>
    <path id="Trazado_584494" data-name="Trazado 584494" d="M9447.971-785.293l.266-.264C9448.276-785.339,9448.188-785.251,9447.971-785.293Z" transform="translate(-31.495 -117.264)" fill="#dcb44a"/>
    <path id="Trazado_584495" data-name="Trazado 584495" d="M9441.4-792.4l-.265.264C9441.095-792.35,9441.184-792.439,9441.4-792.4Z" transform="translate(-26.906 -112.671)" fill="#dcb44a"/>
  </g>
</svg>
